<svg viewBox="0 0 50.84 50.51" xmlns="http://www.w3.org/2000/svg">
         <path d="m19.92 48.52a8.75 8.75 0 0 0 -5.51-1.83 7.26 7.26 0 0 0 -1.57.14 6.23 6.23 0 0 0 -1.92.8l-2.16 1.49-2.93-1.75-5.83-5.83 2.08-3.06a22 22 0 0 1 2.26-2.7 15.35 15.35 0 0 1 2.66-2.24 12.24 12.24 0 0 1 3-1.45l.33-.09 3.32-8-4.89-4.8.15-2a10.22 10.22 0 0 1 .64-2.59 8.33 8.33 0 0 1 1.58-2.65l.13-.14-2.06-2 1.4-2.62a13 13 0 0 1 1.94-2.95 11.87 11.87 0 0 1 9.08-4.25h.06a7.63 7.63 0 0 1 4.93 1.58c.39.35 4.48 4.42 5.19 5.17a10.1 10.1 0 0 1 2.54 3.92l8 21.23 8.48 7.73-2.32 3.28-1.3 2-1.2 2.09-1.57 2.65-2.25-.07h-.08a6.47 6.47 0 0 1 -4.39-2.37c-.53-.51-3.8-3.79-4.27-4.26a7.8 7.8 0 0 1 -1-1.1 9.86 9.86 0 0 1 -1.3-1.85 12.81 12.81 0 0 1 -1-2l-.83-2.19-.05-.15h-3.08l4.73 4.63-8.37 10.22z" class="cjd-border" fill="#525a6f"></path>
         <path d="m6.54 46.45 2.17 1.31 1.57-1.08a7.27 7.27 0 0 1 2.3-1 7.74 7.74 0 0 1 1.83-.17 9.86 9.86 0 0 1 6.21 2.06l1.73 1.32 7-8.6-6-5.85h6.7l.32.88.83 2.16a12.25 12.25 0 0 0 .94 1.9 8.44 8.44 0 0 0 1.15 1.72 6.31 6.31 0 0 0 .93 1c.15.15 4.15 4.16 4.32 4.31a5.44 5.44 0 0 0 3.67 2h1.54l1.25-1.96 1.23-2.1 1.33-2.08 1.75-2.47-7.06-6.44-.51.34-8.45-22.58a9.06 9.06 0 0 0 -2.29-3.51c-.19-.21-4.93-5-5.16-5.14a6.48 6.48 0 0 0 -4.21-1.32 10.76 10.76 0 0 0 -8.23 3.85 11.57 11.57 0 0 0 -1.78 2.71l-.92 1.78 2.3 2.28a8.75 8.75 0 0 0 -.92.89 7.1 7.1 0 0 0 -1.36 2.34 8.64 8.64 0 0 0 -.57 2.29l-.15 1.46 5.07 5-3.84 9.23-.85.24a11.24 11.24 0 0 0 -2.71 1.28 14.55 14.55 0 0 0 -2.5 2.06 21.49 21.49 0 0 0 -2.17 2.56l-1.52 2.28z" class="cjd-stroke" fill="#fff"></path>
         <path d="m4 39.79a21.07 21.07 0 0 1 2-2.43 13.49 13.49 0 0 1 2.3-1.9 10.07 10.07 0 0 1 2.46-1.18l1.37-.38 6.47-15.61-.17-.65a3.07 3.07 0 0 0 -1.32-1.13 4.06 4.06 0 0 0 -1.7-.4 4.15 4.15 0 0 0 -3.41 1.5l-.45.58-.3-.19.05-.68a7.24 7.24 0 0 1 .49-2 6 6 0 0 1 1.15-1.95 8 8 0 0 1 .93-.87 6 6 0 0 1 3.86-1.48 5.88 5.88 0 0 1 2.9.75l.52.35.85-2.12-.1-.25a3.38 3.38 0 0 0 -1.1-1.39 4 4 0 0 0 -1.22-.65 6.77 6.77 0 0 0 -2.3-.38 6.65 6.65 0 0 0 -4.09 1.4l-.52.5-.43-.23.4-.77a11.48 11.48 0 0 1 1.62-2.47 9.66 9.66 0 0 1 7.41-3.47 5.38 5.38 0 0 1 3.5 1.08 7.76 7.76 0 0 1 2 3.11l8.83 23.52.72 1.9a12 12 0 0 0 .95 2 2.83 2.83 0 0 0 2.45 1.72 2.4 2.4 0 0 0 1.44-.4l.7-.47.4.27-1.1 1.55-1.34 2.12-1.22 2.12-.87 1.47h-.83a4.39 4.39 0 0 1 -3.09-1.85 6.94 6.94 0 0 1 -1-1.55 10.93 10.93 0 0 1 -.88-1.74l-.88-2.14-2.45-6.76h-12.94l-2.47 5.69h1.22a13.84 13.84 0 0 1 2.71.42 17.89 17.89 0 0 1 2.7.87l.73.35.85-.9.89.75-5.59 6.86-.84-.65a11.13 11.13 0 0 0 -6.91-2.29 9.52 9.52 0 0 0 -2.1.2 8.58 8.58 0 0 0 -2.67 1.12l-1 .68-.5-.3zm14.34-17h8.81l-4.23-11.09z" class="cjd-fill" fill="#8089a2"></path>
      </svg>