<svg viewBox="0 0 47.94 50.51" xmlns="http://www.w3.org/2000/svg">
         <path d="m4 42.25 2.12-2.85c.22-.27.45-.53.68-.79l-2.06-2 1.66-1.71a1.15 1.15 0 0 0 .34-.64l.08-1.42v-2.21a1 1 0 0 1 -.21-.19c-1.61-1.63-2.17-2.2-2.38-2.44a5.61 5.61 0 0 1 -1.9-4.41 5.75 5.75 0 0 1 1.6-4.23 5.94 5.94 0 0 1 3-1.74 11.54 11.54 0 0 1 .33-1.88l-1.6-1.26-5.66-5.66 1.28-2.67a11 11 0 0 1 2-2.75 9.61 9.61 0 0 1 7.21-3.07 19.3 19.3 0 0 1 2.51.17l2.81.5 3.39.68a12 12 0 0 0 2.06.24 2.62 2.62 0 0 0 .74-.09l2.37-1.83 2.7 2.73 4.45-2.73 1.11.52a11.55 11.55 0 0 1 3.69 2.62c.49.47 4 4 4.44 4.44a9 9 0 0 1 3 7 10.37 10.37 0 0 1 -.52 3.28 16 16 0 0 1 -1.33 2.9 16.58 16.58 0 0 1 -1.25 1.88c.46.46 1 1 1.22 1.24a6 6 0 0 1 2 3.95 19 19 0 0 1 .12 2.57v7.67 1.78a3.29 3.29 0 0 0 .68 1.89l3.23 4.52-6.72-1.15a14 14 0 0 0 -8.85 3.11l-2.34 2.15-3.3-1.94a12.09 12.09 0 0 0 -5.86-1.43 11.14 11.14 0 0 0 -6.06 1.81l-2.63 1.75z" class="cjd-border" fill="#525a6f"></path>
         <path d="m6.43 13.63 1.84 1.5.73-.86.09-.1a9 9 0 0 0 -1.09 3.94v.53a4.56 4.56 0 0 0 -3.23 1.52 4.56 4.56 0 0 0 -1.29 3.41 4.5 4.5 0 0 0 1.52 3.61c.16.19 2.89 2.91 3 3v2.66l-.1 1.49a2.33 2.33 0 0 1 -.65 1.33l-.86.89 2 2c-.39.45-.9.99-1.39 1.53l-1.51 2 6.81 6.92 1.85-1.23a12.38 12.38 0 0 1 6.68-2 13.35 13.35 0 0 1 6.44 1.64l2.56 1.59 1.79-1.61a15.21 15.21 0 0 1 9.69-3.39l4.08.71-1.61-2.31a4.52 4.52 0 0 1 -.88-2.52v-1.8-7.68a18.31 18.31 0 0 0 -.16-2.4 4.88 4.88 0 0 0 -1.69-3.27c-.16-.19-1.86-1.89-2-2l.14-.16a15.39 15.39 0 0 0 1.66-2.36 14.61 14.61 0 0 0 1.23-2.69 9.27 9.27 0 0 0 .47-2.93 8 8 0 0 0 -2.55-6.17c-.21-.19-4.31-4.28-4.5-4.42a10.33 10.33 0 0 0 -3.36-2.38l-.55-.26-4.7 2.85-2.62-2.68-1.66 1.27a2.62 2.62 0 0 1 -1.35.25 12.61 12.61 0 0 1 -2.26-.26l-3.4-.68-2.75-.48a18.94 18.94 0 0 0 -2.35-.16 8.54 8.54 0 0 0 -6.44 2.72 9.62 9.62 0 0 0 -1.76 2.47l-.92 1.92zm23.89 1.64a4.39 4.39 0 0 1 -.46 1.14 2.82 2.82 0 0 1 .28-1.58 1.74 1.74 0 0 1 .32-.35 5.88 5.88 0 0 1 -.14.79z" class="cjd-stroke" fill="#fff"></path>
         <path d="m3.32 7.17a8.55 8.55 0 0 1 1.57-2.17 7.38 7.38 0 0 1 5.6-2.37 16.57 16.57 0 0 1 2.19.15l2.71.48 3.36.67c2.2.43 3.71.37 4.52-.18l.88-.67.39.43-.54.77a12.52 12.52 0 0 1 -3.09 2.81 8.86 8.86 0 0 1 -2.46 1.17 8.69 8.69 0 0 1 -3 .4 12.57 12.57 0 0 1 -2.11-.12c-.76-.1-1.65-.26-2.66-.48l-2.83-.59a10.19 10.19 0 0 0 -2.17-.25 3.33 3.33 0 0 0 -2.61 1.27l-.27-.23zm2.68 19.28a3.28 3.28 0 0 1 -1.34-2.91 3.42 3.42 0 0 1 1-2.59 3.41 3.41 0 0 1 2.53-1.17h1v-1.62a7.73 7.73 0 0 1 3.56-6.24 17.74 17.74 0 0 1 2-1.19l1.07-.55.35.4a6 6 0 0 0 -1 3.41v15.07a6.79 6.79 0 0 1 -1.61 4.38 15.94 15.94 0 0 1 -3.94 2.76l-1.12.6-.43-.35a3.41 3.41 0 0 0 1-2l.08-1.59v-7.65h-.75a1.34 1.34 0 0 0 -1.47 1.37v.37zm2 14.36a19.52 19.52 0 0 1 6.8-5.4 13.64 13.64 0 0 1 2.93-1 13.83 13.83 0 0 1 3.27-.41 14 14 0 0 1 3.71.53l1.22.37v-16.69h1.47v2l1.26-.95a9.69 9.69 0 0 0 1.55-1.41 5.58 5.58 0 0 0 1.22-2.32 8.42 8.42 0 0 0 .22-2 8.33 8.33 0 0 0 -.94-4 7.3 7.3 0 0 0 -3.14-2.83l-1.67 1a5.5 5.5 0 0 0 -1.75 1.4 4.13 4.13 0 0 0 -.51 2.23v1.12 11.69c0 1.18 0 2.11-.1 2.81a5.35 5.35 0 0 1 -2.68 4.1 17.12 17.12 0 0 1 -2.07 1.2l-1.66.75-.5-.4a4.27 4.27 0 0 0 .95-2.24l.1-1.64v-13.07l.05-1.74q.15-2.73 4.25-5.4l2.27-1.39 7.41-4.5c3.17 1.47 4.74 3.79 4.73 6.94a8.18 8.18 0 0 1 -.39 2.57 13.94 13.94 0 0 1 -1.13 2.48 14.6 14.6 0 0 1 -1.57 2.19 11 11 0 0 1 -2 1.86l-1.47 1h1.67a7.06 7.06 0 0 1 3.34.6 3.66 3.66 0 0 1 1.71 2.84 16.09 16.09 0 0 1 .13 2.24v7.66 1.82a5.6 5.6 0 0 0 1.13 3.18l-1.45-.25a16.26 16.26 0 0 0 -10.52 3.66l-1.19 1.09-1.85-1.1a14.25 14.25 0 0 0 -7-1.79 13.47 13.47 0 0 0 -7.33 2.19l-1 .7-.47-.45zm19.41-16.35.64.07h.87 1.07l.75-.07v-1.84c-.13-.88-.78-1.34-1.94-1.37h-1.4v3.21zm0 5.6.79-.15.95-.1.84.05.75.2v-4.06l-1.57.1-1.76-.1zm0 1.57v3.7l.94.65 1.27.92.6.57.52-.27v-5.57l-.32-.1a6.16 6.16 0 0 0 -1.32-.15l-1.22.15z" class="cjd-fill" fill="#8089a2"></path>
      </svg>