<svg viewBox="0 0 45.24 50.51" xmlns="http://www.w3.org/2000/svg">
         <path d="m24.7 50.51a16.59 16.59 0 0 1 -3.52-.35 18 18 0 0 1 -5.18-1.94 20.24 20.24 0 0 1 -4.3-3.09l-1.6-1.43c-2.41-2.15-3.17-2.82-3.35-3a28.75 28.75 0 0 1 -3.9-5.24 18.8 18.8 0 0 1 -2.1-4.82 20.32 20.32 0 0 1 -.75-5.92 23.21 23.21 0 0 1 4.29-13.07 26.48 26.48 0 0 1 10.37-9.11h.05l3.81-1.66 3.16 3.4c.45-.25.88-.5 1.28-.75l5.9-3.53 3.41 3.42a2.69 2.69 0 0 0 1.39.46 2 2 0 0 0 .62-.1l2.3-.78 7.6 8.3-2.09 2.31-.07.05a11.54 11.54 0 0 1 -4.77 2.87v12.73l8 7.74-1.73 3a23.81 23.81 0 0 1 -8.07 7.8 20.34 20.34 0 0 1 -10.45 2.71z" class="cjd-border" fill="#525a6f"></path>
         <path d="m3.88 34.87a27.1 27.1 0 0 0 3.7 5c.17.18 4.59 4.1 4.94 4.42a19.31 19.31 0 0 0 4.07 2.93 17.16 17.16 0 0 0 4.82 1.78 15.72 15.72 0 0 0 3.29.33h.3a19.07 19.07 0 0 0 9.85-2.54 22.45 22.45 0 0 0 7.68-7.42l1.27-2.17-7.15-7-.52.55v-15.13h.2a10.78 10.78 0 0 0 4.9-2.78l1.36-1.51-6.38-7-1.59.57a3.47 3.47 0 0 1 -1 .16 3.88 3.88 0 0 1 -2.12-.72l-2.82-2.89-5.13 3.08-1.93 1.12-.17.07-3.22-3.46-3 1.3a25.42 25.42 0 0 0 -9.99 8.74 22.09 22.09 0 0 0 -4.09 12.43 19.19 19.19 0 0 0 .75 5.6 17.78 17.78 0 0 0 1.98 4.54zm11.57-4.25a17.14 17.14 0 0 1 -.45-3.84 20.27 20.27 0 0 1 1.32-7.47v10.08 1.69l-.13 1.44a1.09 1.09 0 0 1 -.08.31 16.65 16.65 0 0 1 -.66-2.21z" class="cjd-stroke" fill="#fff"></path>
         <path d="m17.8 9.08c2.2-1.16 4.28-2.34 6.34-3.56l4.31-2.59.9 1q2.83 2.97 5.65 2.07l.78-.28.27.4-.72.8a9.58 9.58 0 0 1 -4.33 2.46l-1.05.25v27.27l1.15-.53a20 20 0 0 0 4.67-3.48l1-1 .53.48-.8 1.35a21.42 21.42 0 0 1 -7.3 7.05 18 18 0 0 1 -9.27 2.38 15.12 15.12 0 0 1 -3.31-.3 15.33 15.33 0 0 1 -4.51-1.71 17.5 17.5 0 0 1 -3.84-2.76 18.08 18.08 0 0 1 -3.36-4.08 16.78 16.78 0 0 1 -1.91-4.3 17.63 17.63 0 0 1 -.7-5.27 20.8 20.8 0 0 1 3.89-11.73 24.27 24.27 0 0 1 9.48-8.34l2.1-.9.45.73a18.84 18.84 0 0 0 -6.46 6.24 20 20 0 0 0 -3 11 16.79 16.79 0 0 0 .45 4.08 16.3 16.3 0 0 0 1.43 4.14 14.14 14.14 0 0 0 5.68 6.05 15.58 15.58 0 0 0 8.07 2.08 13.07 13.07 0 0 0 2.78-.25l1.28-.35v-27.85l-1.33-.5a7.91 7.91 0 0 1 -2-1.08l-1.15-1-.45.23v18.57l-.08 1.88a7.8 7.8 0 0 1 -.3 1.8 5.22 5.22 0 0 1 -.83 1.73 7.51 7.51 0 0 1 -3.83 2.91l-1.56.5-.45-.3.5-.7a2.5 2.5 0 0 0 .36-1l.15-1.5.05-1.75v-18.69l-3.19 1.6-.5-1.15z" class="cjd-fill" fill="#8089a2"></path>
      </svg>