<svg viewBox="0 0 42.9 50.51" xmlns="http://www.w3.org/2000/svg">
         <path d="m.48 42.06 1.52-2.88v-.07a13.86 13.86 0 0 1 2.16-2.49l.13-.13-1.45-1.29 1.92-2.26c0-.14.09-.38.16-.75l.08-.92v-1.27c-.71-.64-2.14-2.11-2.55-2.54a5.82 5.82 0 0 1 -2-4.79 6.73 6.73 0 0 1 1.45-4.28 5.47 5.47 0 0 1 3.16-2 9 9 0 0 1 1.11-3.7c-.67-.69-1.78-2.03-2.81-3.3-2.97-3.7-3.36-4.95-3.36-5.69v-.2l.61-3.5 4.39.82a21.22 21.22 0 0 0 2.58.12l3.1-.12 3.39-.2 4-.27c1.23-.09 2.57-.14 3.93-.14a32.57 32.57 0 0 1 4.84.33 9.51 9.51 0 0 1 3.82 1.46c.62.41 4.08 4 4.11 4 3.68 3.82 3.9 4.39 4 4.64a10.35 10.35 0 0 1 .83 4v22.36 2.07a1.86 1.86 0 0 0 .49 1.2l2.76 3.32-6.37.69a14.8 14.8 0 0 0 -2.82.58 13.74 13.74 0 0 0 -5.12 2.8l-2.45 2.55-1.58-.93a15.45 15.45 0 0 0 -7.86-2.28h-.17a8.42 8.42 0 0 0 -5.92 2l-1.64 1.51z" class="cjd-border" fill="#525a6f"></path>
         <path d="m7.53 12.47.12.13a7.89 7.89 0 0 0 -1.45 4.79 4.37 4.37 0 0 0 -3.38 1.71 5.59 5.59 0 0 0 -1.21 3.57 4.62 4.62 0 0 0 1.61 3.93c.17.2 2.61 2.64 2.8 2.8l.11.12v1.79l-.07 1c-.13.67-.2 1-.25 1.14l-1.34 1.62 1.64 1.42c-.38.3-.74.62-1.1 1a13 13 0 0 0 -2 2.28l-1.11 2.08 7.1 7.06.82-.74a9.55 9.55 0 0 1 6.7-2.29h.17a16.65 16.65 0 0 1 8.5 2.43l.79.47 1.84-1.92a14.91 14.91 0 0 1 5.58-3.07 15.57 15.57 0 0 1 3-.63l4.23-.46-1.37-1.7a3 3 0 0 1 -.75-1.92v-2.08-22.35a9.34 9.34 0 0 0 -.76-3.59c-.38-.91-7.14-7.78-7.7-8.14a8.33 8.33 0 0 0 -3.35-1.24 30.36 30.36 0 0 0 -4.7-.31c-1.38 0-2.69 0-3.9.13l-4 .27-3.4.2-3.1.13a21.83 21.83 0 0 1 -2.76-.1l-3.29-.65-.39 2.26v.09c-.01 1.73 6.17 8.59 6.37 8.77zm16.15 20.53.85-.2a4.71 4.71 0 0 1 .58-.06v2.2h-.13c-.45-.23-.88-.45-1.3-.64zm0-18h.63z" class="cjd-stroke" fill="#fff"></path>
         <path d="m4.65 3.1a21.26 21.26 0 0 0 3 .16l3.17-.13 3.43-.2 4-.28c1.19-.08 2.46-.12 3.82-.12a29.25 29.25 0 0 1 4.48.3 7.3 7.3 0 0 1 2.87 1 5.54 5.54 0 0 1 2.13 2.57 8.07 8.07 0 0 1 .68 3.15v22.39 2.09a4.13 4.13 0 0 0 1 2.64l-2.09.23a16.73 16.73 0 0 0 -3.27.68 15.82 15.82 0 0 0 -6 3.35l-1.24 1.28a17.63 17.63 0 0 0 -9.08-2.59 10.77 10.77 0 0 0 -7.65 2.59l-.58-.58.68-1.28a12 12 0 0 1 1.81-2.07 17.09 17.09 0 0 1 8.93-4.4l1.24-.2v-24.79h-2.42l-4-.07c-4.84-.32-7.24-2-7.23-5.16l.18-1zm0 23a3.35 3.35 0 0 1 -1.88-3.45 4.55 4.55 0 0 1 1-2.87 3.31 3.31 0 0 1 2.67-1.23h.93v-.73a7.05 7.05 0 0 1 1.21-4.5 12.1 12.1 0 0 1 3.85-2.85l1.57-.72.4.3-.48.63a3.13 3.13 0 0 0 -.52 1.58l-.05 1.16v12.41l-.06 2.17a5.87 5.87 0 0 1 -.81 2.84 9.61 9.61 0 0 1 -3.77 3.22l-1.89.94-.55-.3.55-.66a7.87 7.87 0 0 0 .4-1.58l.1-1.13v-6.71h-.88a1.22 1.22 0 0 0 -1.21.88l-.17.81zm12.81-10.39 1.36.3a17.78 17.78 0 0 0 3.12.23 13.69 13.69 0 0 0 2.82-.2l1.46-.33v-3.62-.91c-.23-1.76-1.53-2.63-3.87-2.62-1.43 0-3 .1-4.84.23v6.92zm0 1.59v8.1l2-.43a22 22 0 0 1 2.21-.15 17.46 17.46 0 0 1 3.3.3l1.23.28v-8.1l-1.54.3a13.64 13.64 0 0 1 -2.69.23 16.88 16.88 0 0 1 -3.07-.28zm0 9.69v6.59l2 .33a21.39 21.39 0 0 1 5 2l1.31.7h.48v-9.61l-1.51-.33a22.33 22.33 0 0 0 -3.27-.25 15.72 15.72 0 0 0 -2.21.15z" class="cjd-fill" fill="#8089a2"></path>
      </svg>