<svg viewBox="0 0 43.28 50.51" xmlns="http://www.w3.org/2000/svg">
         <path d="m4 41.86 2.39-2.86.33-.37-1.49-1.56 1.64-2.07a4.13 4.13 0 0 0 .18-1.42v-1.25c-2.94-2.91-3.64-3.64-3.85-3.86a5.66 5.66 0 0 1 -1.95-4.6 7.54 7.54 0 0 1 1.13-4.09 6.39 6.39 0 0 1 3.62-2.89 7.3 7.3 0 0 1 1.12-.27c0-.23.07-.45.12-.67l-1.44-.68-5.8-5.76 1.18-2.7a9.46 9.46 0 0 1 .99-1.81c2.18-3.22 5-4.9 8.5-5h.06a15.71 15.71 0 0 1 3.45.46l3.11.74a3.44 3.44 0 0 0 .73.08 1.21 1.21 0 0 0 .28 0l1.77-1.22 2 1.47a10.23 10.23 0 0 1 5.18-1.53h.08a14.69 14.69 0 0 1 5.67 1.37l.57-.8 3.9 2.31 5.8 5.79-6.05 10.18 4.1 4.1-6.12 9.93 1.94 1.12 5.78 5.78-5.92 10.45-3.39-1.29c-.94-.34-1.91-.65-2.88-.92a32.79 32.79 0 0 0 -8.34-1.19c-4 .06-5.9.73-6.79 1.28h-.06a11.68 11.68 0 0 0 -1.33 1l-1.63 1.36zm22.67-10a35.72 35.72 0 0 1 4.2 1l-.87-.51-2.56-2.6a4.86 4.86 0 0 0 -.73.14v2zm1.33-16.66c.44.08.89.18 1.36.31s1 .29 1.5.47l.37-.53-.65-.73h-.49a4.22 4.22 0 0 0 -2.09.48z" class="cjd-border" fill="#525a6f"></path>
         <path d="m6.43 14.31 2.13 1a7.85 7.85 0 0 0 -.41 2.36 5.72 5.72 0 0 0 -1.84.3 5.32 5.32 0 0 0 -2.95 2.38 6.51 6.51 0 0 0 -1 3.5 4.5 4.5 0 0 0 1.64 3.79c.17.22 4.1 4.13 4.18 4.21v1.73a4.45 4.45 0 0 1 -.33 2l-1.11 1.42 1.58 1.67a13.5 13.5 0 0 0 -1.06 1.1l-1.7 2 7.07 7.23.82-.69a13.21 13.21 0 0 1 1.49-1.11c1.47-.91 4-1.4 7.39-1.45a33.84 33.84 0 0 1 8.67 1.17c1 .27 2 .59 3 .94l2.48.94 5-8.8-5.07-5.06-2.8-1.66-1 1.37a40.14 40.14 0 0 0 -6.19-1.65l-.84-.13v-3.71l.19-.13a4.73 4.73 0 0 1 2.08-.45h.06l2.78 2.85 3 1.72 6.19-10-5.08-5.09-2.74-1.83-.83 1.16a13.47 13.47 0 0 0 -2.2-.77 11.44 11.44 0 0 0 -2.92-.44h-.33a3 3 0 0 1 1.09-1.64 5.2 5.2 0 0 1 3.18-1 5.46 5.46 0 0 1 .9.07l.33.21 2.16 2.39 2.9 1.86 5.49-9.23-5.06-5.05-2.88-1.69-.52.74-.46-.25a13.82 13.82 0 0 0 -5.61-1.44 9.29 9.29 0 0 0 -5.05 1.64l-.2.13-2.05-1.46-1.18.81a1.84 1.84 0 0 1 -.85.16 5.15 5.15 0 0 1 -1-.1l-3.13-.75a14.66 14.66 0 0 0 -3.19-.43 9.2 9.2 0 0 0 -7.54 4.49 9.12 9.12 0 0 0 -.88 1.62l-.87 2z" class="cjd-stroke" fill="#fff"></path>
         <path d="m3.29 7.71a7.54 7.54 0 0 1 .77-1.42 8.07 8.07 0 0 1 6.67-4 13.45 13.45 0 0 1 2.92.4l3.14.75a3.75 3.75 0 0 0 2.67-.2l.54-.37.48.35-.5.67-.89 1.11-1.2 1.34a6.22 6.22 0 0 1 -1.3 1 5.11 5.11 0 0 1 -2.72.95 20.12 20.12 0 0 1 -3.49-.42l-2.45-.26-1.93-.15a3 3 0 0 0 -2.17 1l-.45.45-.48-.22zm1.92 19.38a3.31 3.31 0 0 1 -1.67-3.22 5.33 5.33 0 0 1 .79-2.87 4.25 4.25 0 0 1 2.33-1.9 5 5 0 0 1 1.54-.25h1.1v-.9c-.05-2.62 1.39-4.95 4.3-6.95l2.34-1.6.38.45a3.86 3.86 0 0 0 -1.05 2.65v15.39 1.79q-.2 3.56-5.56 7.07l-1 .62-.43-.45.53-.67a5.26 5.26 0 0 0 .52-2.67v-8.26h-1.25l-1 .05a1.13 1.13 0 0 0 -1.1 1.27l.13.8zm2.92 13.43a16 16 0 0 1 2.37-2.2 23.57 23.57 0 0 1 3-2 17.65 17.65 0 0 1 2.82-1.32l1.57-.55v-20.27l.08-2a10.77 10.77 0 0 1 1.47-5.07 11.54 11.54 0 0 1 3.41-3.37 8.06 8.06 0 0 1 4.43-1.44 12.43 12.43 0 0 1 5.12 1.32l1.32.7.5-.7 1 .57-4.3 7.22-1-.63.65-1.12-1-.82a8 8 0 0 0 -2.07-1.08 8.11 8.11 0 0 0 -2.5-.42 6.36 6.36 0 0 0 -3.87 1.23 4.45 4.45 0 0 0 -1.69 3.56l-.05 2.52v7.24l.87-1.12c1.85-2.25 3.8-3.4 5.87-3.45a10.45 10.45 0 0 1 2.62.4 13 13 0 0 1 2.17.78l.7.35.75-1.05.9.6-5 8.14-1-.58.8-1.3-1-.79a8.47 8.47 0 0 0 -2.16-1.1 6.49 6.49 0 0 0 -2.11-.4 5.83 5.83 0 0 0 -2.65.6l-.77.5v10.53l1.17-.13 2-.1a23.52 23.52 0 0 1 3.72.35 40.14 40.14 0 0 1 6 1.62l.85.3.88-1.24.92.55-4 7-1.57-.6c-1-.37-2-.69-3.07-1a35 35 0 0 0 -9-1.27q-5.49.08-8 1.62a13.58 13.58 0 0 0 -1.65 1.23l-.54-.58z" class="cjd-fill" fill="#8089a2"></path>
      </svg>