<svg viewBox="0 0 50.12 50.51" xmlns="http://www.w3.org/2000/svg">
         <path d="m21.41 50.51h-.16a16.8 16.8 0 0 1 -3.4-.41 14.72 14.72 0 0 1 -2.38-.62l-2.68-.92a4.06 4.06 0 0 0 -1.25-.24 1.18 1.18 0 0 0 -.94.37l-1.66 1.74-3.16-1.67-5.78-5.76 1.54-3.2v-.06a12.33 12.33 0 0 1 2.28-2.85 8.61 8.61 0 0 1 6.18-2.76h.09a12.38 12.38 0 0 1 2.23.25l.85-1a3.62 3.62 0 0 0 .21-1.38v-.64c-.11-.1-.25-.22-.39-.37-2.33-2.29-3.08-2.99-3.33-3.31a5.67 5.67 0 0 1 -1.85-3 5.59 5.59 0 0 1 -.24-1.82 6.49 6.49 0 0 1 1.92-4.76 6.2 6.2 0 0 1 2.3-1.34l-2.5-.38-5.91-5.93 1.52-3.32a13.44 13.44 0 0 1 1.38-2.34 9.36 9.36 0 0 1 8-4.11h.07a24.6 24.6 0 0 1 3.55.32l3.1.4 2.23.29 1.44.09h.13l.6-.33 1.78-1.33 2.67 2 1 1 1.06-.71 3.54-2.41 2.1 2.1c1 1 1.43 1 1.49 1a.43.43 0 0 0 .21-.1l2.54-1.66 3.27 3.08 5.09 5.06-2 2.54a14.17 14.17 0 0 1 -4.1 3.98v28.53h-5.4l-1.88-2.16a7.94 7.94 0 0 1 -1.67 2.16 23.26 23.26 0 0 1 -6.31 4.06 25.58 25.58 0 0 1 -3.74 1.41 14 14 0 0 1 -3.64.51z" class="cjd-border" fill="#525a6f"></path>
         <path d="m6.47 47.83 2.23 1.17 1.07-1.12a2.32 2.32 0 0 1 1.77-.73 5.22 5.22 0 0 1 1.62.31l2.7.92a12.64 12.64 0 0 0 2.21.58 16.39 16.39 0 0 0 3.19.39h.15a12.46 12.46 0 0 0 3.33-.5 23.27 23.27 0 0 0 3.57-1.31 21.9 21.9 0 0 0 6-3.86 6.29 6.29 0 0 0 2-3.57l2.85 3.3h3.75v-28.16l.54-.25a13.37 13.37 0 0 0 3.75-3.61l1.35-1.73-5.1-5.06-1.79-1.78-1.81 1.18a1.6 1.6 0 0 1 -.81.24 3.63 3.63 0 0 1 -2.3-1.33l-1.43-1.42-2.76 1.88-1.86 1.24-1.6-1.61-1.92-1.45-1.17.86-.74.41a1.55 1.55 0 0 1 -.59.11h-.07l-1.5-.1-2.3-.29-3.07-.45a22.37 22.37 0 0 0 -3.34-.27h-.07a8.29 8.29 0 0 0 -7.11 3.64 12.48 12.48 0 0 0 -1.21 2.15l-1.24 2.59 5.08 5.08 2.61.39.85-.9a1.94 1.94 0 0 1 1.34-.43h.28c0 .11-.07.22-.1.33a10.17 10.17 0 0 0 -.31 2.77c-3.65.09-5.7 2-5.79 5.42a4.38 4.38 0 0 0 .2 1.48 4.51 4.51 0 0 0 1.53 2.49c.17.2 4 4 4.05 4.07v1.1a4.18 4.18 0 0 1 -.35 2l-1.15 1.42.61.51-.64-.22a10.3 10.3 0 0 0 -2.84-.44h-.13a7.52 7.52 0 0 0 -5.36 2.41 11.35 11.35 0 0 0 -2.08 2.59l-1.17 2.48z" class="cjd-stroke" fill="#fff"></path>
         <path d="m3.59 40.84a10.08 10.08 0 0 1 1.88-2.32 6.33 6.33 0 0 1 4.61-2.08 8.67 8.67 0 0 1 2.5.38c.77.25 1.75.63 2.93 1.14l2.38 1.04 1.9.8a4.41 4.41 0 0 0 1.81.37q2.66.11 2.65-3.6v-2.56-21a4.51 4.51 0 0 1 1.75-3.85q1.37-1 3.76-2.55l3.43-2.28 2-1.35.75.75q2.44 2.48 4.51 1.27l1.08-.7.43.4-.7.9a12.67 12.67 0 0 1 -3.39 3.31l-1.17.55v27.73h-1.48v-13.13h-5v7.09l-.08 3.13a5.16 5.16 0 0 1 -1.72 3.48 20.87 20.87 0 0 1 -5.71 3.66 22.12 22.12 0 0 1 -3.4 1.25 10.94 10.94 0 0 1 -3.16.45 15.07 15.07 0 0 1 -3-.37 11 11 0 0 1 -2-.53l-2.73-.93q-2.91-1-4.59.7l-.47.5-.48-.25zm3.41-32.75a11.05 11.05 0 0 1 1.15-2 7.14 7.14 0 0 1 6.23-3.09 21.63 21.63 0 0 1 3.19.25l3.07.45 2.36.3 1.56.1a2.69 2.69 0 0 0 1.22-.22l.86-.48.55-.4.4.3-.48.78a13.23 13.23 0 0 1 -1.5 1.85 9.81 9.81 0 0 1 -4.31 2.71 8.72 8.72 0 0 1 -2.76.43 21.57 21.57 0 0 1 -2.75-.2l-2.63-.38-2.48-.33-1-.05a3.16 3.16 0 0 0 -2.23.75l-.48.51-.5-.08zm8.09 26.64a4.92 4.92 0 0 0 .57-2.73v-7.94h-1-.65c-1.33.13-2 .72-1.95 1.75v.68l-.63-.35a3.33 3.33 0 0 1 -1.43-2.14 3.12 3.12 0 0 1 -.15-1.13q.09-4.2 4.68-4.31h1.1v-1a9.22 9.22 0 0 1 .31-2.56c.38-1.58 2.07-3.1 5-4.56l1.41-.62.3.32a3 3 0 0 0 -1.05 2.43v13.8 2q-.26 4.35-5.46 6.78l-1.14.48-.42-.35zm15.17-16.12h5v-8.94l-.7-.1a7.43 7.43 0 0 1 -3.43-1.41l-.48-.35-.35.35z" class="cjd-fill" fill="#8089a2"></path>
      </svg>