<svg viewBox="0 0 45.19 50.51" xmlns="http://www.w3.org/2000/svg">
         <path d="m25.69 50.51h-.25a20 20 0 0 1 -13.44-4.75c-.49-.41-1-.87-1.43-1.34l-4.42-4.42a19.34 19.34 0 0 1 -4.54-6.6 19 19 0 0 1 -1.21-4 17.78 17.78 0 0 1 -.4-3.97 23.5 23.5 0 0 1 4.34-13.5 28.57 28.57 0 0 1 8.86-8.23l3.84-2.15 3.17 3.3 3.49-2.26 3.81-2.59 2.92 2.93h.06a2.25 2.25 0 0 0 1.37.54h.06a1.2 1.2 0 0 0 .52-.17l2.43-1.3 8.39 8.4-7.61 10.3a12.32 12.32 0 0 1 1.35 1.19l4.5 4.5a11.77 11.77 0 0 1 1.5 1.78 12 12 0 0 1 2.19 6.9 12.28 12.28 0 0 1 -1 4.81c-2.19 5.27-6.89 8.67-14.02 10.12a21 21 0 0 1 -4.48.51z" class="cjd-border" fill="#525a6f"></path>
         <path d="m34.68 3.41-1.68.95a2.27 2.27 0 0 1 -1.09.31h-.06a3.41 3.41 0 0 1 -2.12-.82l-.1-.1-2.26-2.26-3 2-4.3 2.78-3.2-3.27-3.05 1.7a27.47 27.47 0 0 0 -8.51 7.9 22.52 22.52 0 0 0 -4.16 12.84 16.76 16.76 0 0 0 .38 3.71 18.1 18.1 0 0 0 1.14 3.85 18.33 18.33 0 0 0 4.33 6.19l4.42 4.42a16.46 16.46 0 0 0 1.36 1.28 18.91 18.91 0 0 0 12.71 4.47h.24a20 20 0 0 0 4.24-.46c6.74-1.39 11.19-4.57 13.22-9.43a11.11 11.11 0 0 0 .81-4.36 10.94 10.94 0 0 0 -2-6.25 10.51 10.51 0 0 0 -1.43-1.63c-.18-.19-4.32-4.33-4.51-4.51a11.55 11.55 0 0 0 -2.06-1.72l7.71-10.47z" class="cjd-stroke" fill="#fff"></path>
         <path d="m13.75 11.15 2.45-1.25c1.32-.7 2.82-1.57 4.48-2.6l4.32-2.81 2.22-1.49.73.75 1 1a4.6 4.6 0 0 0 2.86 1.1 3.41 3.41 0 0 0 1.72-.45l.93-.53.68.68-10.29 14 2.52.23a16 16 0 0 1 3.64 1 10.82 10.82 0 0 1 5 3.73 9.76 9.76 0 0 1 1.8 5.49 10 10 0 0 1 -.8 3.91q-2.84 6.78-12.39 8.76a19.37 19.37 0 0 1 -4.24.43 17.75 17.75 0 0 1 -11.96-4.1 17 17 0 0 1 -4.69-6.44 16.52 16.52 0 0 1 -1.07-3.58 15.34 15.34 0 0 1 -.35-3.48 21.24 21.24 0 0 1 3.93-12.27 26.34 26.34 0 0 1 8.16-7.56l2.15-1.2.6.8-1.65 1.23a14.76 14.76 0 0 0 -4.61 6.28 31.24 31.24 0 0 0 -2.1 11.42 27.85 27.85 0 0 0 1 7.61q2.78 9.8 11.82 9.74a6.36 6.36 0 0 0 1.5-.1l1-.25v-20.56l-2.63 3.51v4.26a17.07 17.07 0 0 1 -.2 2.35 8 8 0 0 1 -1.62 3.93 12.15 12.15 0 0 1 -3.38 2.58l-1.06.53-.47-.43.5-.9a4.09 4.09 0 0 0 .22-1.38v-1.7-21.39l-1.7.77v-1.62zm7.69-2.55v13.27l10.31-14-1.45.9a6.25 6.25 0 0 1 -1.68.65 7.22 7.22 0 0 1 -2 .3 5.67 5.67 0 0 1 -3.35-1.45l-.58-.45zm4.1 12.52v6.08l1.28.18 1.2.05a6.41 6.41 0 0 0 1.6-.18l1-.3-.18-.7a7.92 7.92 0 0 0 -2.63-4.16 4.61 4.61 0 0 0 -1.58-.82zm0 7.66v5.16l.58-.1a8.45 8.45 0 0 1 1.55-.13 10.66 10.66 0 0 1 2.18.3l1 .28.28-.9a11.09 11.09 0 0 0 .22-2.23 10.44 10.44 0 0 0 -.2-2.18l-.1-.45-.92.25a7.89 7.89 0 0 1 -2.13.22l-1.56-.1zm0 6.73v5.41l1.18-.67a10.12 10.12 0 0 0 3.43-3.83l.3-.53-.85-.33a7.58 7.58 0 0 0 -2.16-.27l-1 .05z" class="cjd-fill" fill="#8089a2"></path>
      </svg>