<svg viewBox="0 0 49.38 50.51" xmlns="http://www.w3.org/2000/svg">
         <path d="m33.84 45-2.49-2-.53.44a30 30 0 0 0 -2.31 2.17l-2 2.17-2.26 2.65-2.7-1.83a12.38 12.38 0 0 0 -6-1.68 10.48 10.48 0 0 0 -2.15.23 7.92 7.92 0 0 0 -1.88.65l-2.21 1.33-2.55-2-5.67-5.71 1.42-2.24.06-.07a16.62 16.62 0 0 1 5.66-4.55q.66-.35 1.35-.63l-.39-.44 1.81-1.71a.31.31 0 0 1 0-.08l-.25-.24c-2.46-2.46-3.15-3.2-3.37-3.46a6.07 6.07 0 0 1 -1.95-4.86 6.63 6.63 0 0 1 1.72-4.7 6.07 6.07 0 0 1 4-1.91v-1c0-.08 0-.16 0-.24h-.21a1.41 1.41 0 0 0 -.62.09l-1 1.05h-3.54l-5.78-5.73.8-3a10 10 0 0 1 2.69-4.4 7.29 7.29 0 0 1 5.17-2.2 12.74 12.74 0 0 1 3.19.46h.12l1.89.56 2.51.88a2.61 2.61 0 0 0 1 .2 1.23 1.23 0 0 0 .39-.05l1.31-.54a3.6 3.6 0 0 1 3.43-2.36h.07a3.71 3.71 0 0 1 2.72 1.05l.42.42 2.44 2.45.36-.23 2.65-1.78 3-2.16.55.56 2.16 2.18a5.71 5.71 0 0 0 1.83 1.26h.06a2.1 2.1 0 0 0 .6-.11l1.41-.38 5.55 5.49 1.89 2.77-1.87 1.87h-.05a8 8 0 0 1 -1.84 1.36v21.36l2.24 2.11 2.69 3.79-3.12 2.35-2 1.61-1.77 1.5-3.19 2.79z" class="cjd-border" fill="#525a6f"></path>
         <path d="m6.25 15.36h2.54l.74-.78a2.05 2.05 0 0 1 1.37-.4 6.63 6.63 0 0 1 1.43.19 7.75 7.75 0 0 0 -.09 1.19v2.09h-.44a5 5 0 0 0 -3.8 1.58 5.46 5.46 0 0 0 -1.4 3.92 5 5 0 0 0 1.6 4c.16.2 4 4 4.06 4.09v.13a1.91 1.91 0 0 1 -.29 1.06l-1.16 1.09.76.87a15.72 15.72 0 0 0 -2.78 1.13 15.57 15.57 0 0 0 -5.28 4.23l-.91 1.44 5 5 1.89 1.51 1.51-.89a8.5 8.5 0 0 1 2.19-.76 11.36 11.36 0 0 1 2.39-.26 13.5 13.5 0 0 1 6.53 1.84l1.89 1.23 1.67-1.86 2-2.19a30.9 30.9 0 0 1 2.41-2.27l1.25-1 3.25 2.68 4.82 4.78 2.39-2.1 1.78-1.51 2-1.63 2.26-1.76-2-2.8-2.5-2.37v-22.53l.29-.14a7.86 7.86 0 0 0 1.9-1.29l1.2-1.19-1.28-1.93-5-5-.76.25a3.81 3.81 0 0 1 -.9.14 1.18 1.18 0 0 1 -.37 0h-.07a6.85 6.85 0 0 1 -2.27-1.49l-1.51-1.65-.56-.52-2.2 1.59-2.67 1.8-1.13.74-3.5-3.53a2.57 2.57 0 0 0 -1.91-.71 2.47 2.47 0 0 0 -2.65 2.63l-.31-.41-1.5.62a2.24 2.24 0 0 1 -.78.13 4 4 0 0 1 -1.35-.29l-2.4-.82-2-.58a11.76 11.76 0 0 0 -2.92-.44 6.26 6.26 0 0 0 -4.39 1.9 9 9 0 0 0 -2.4 3.89l-.62 2.38zm23.94 19.07-.62.74-.18.18v-5h.8zm-.8-23.43.22-.26.17.21h.09l.32.43v6.36h-.8z" class="cjd-stroke" fill="#fff"></path>
         <path d="m3 8.31a7.8 7.8 0 0 1 2.06-3.39 5.21 5.21 0 0 1 3.62-1.58 10.86 10.86 0 0 1 2.63.39l1.92.57 2.36.81a4.23 4.23 0 0 0 2.95.15l.71-.3.3.4-.55.64a13.31 13.31 0 0 1 -2.39 2 11 11 0 0 1 -1.79 1 5.16 5.16 0 0 1 -2.11.37 9.74 9.74 0 0 1 -2.61-.37l-2.1-.62q-2.9-.78-4.23.4l-.44.46h-.6zm1.4 32.16a14.47 14.47 0 0 1 4.91-3.91 15.74 15.74 0 0 1 7.31-1.72 14.11 14.11 0 0 1 4.38.76l.86.32v-30.37l-.52-.55a1.31 1.31 0 0 1 -.27-1 1.36 1.36 0 0 1 1.5-1.57c1 0 1.49.51 1.48 1.54a1.9 1.9 0 0 1 -.25.89l-.52.61v13.34h8.07v-10.21l-1.89-1.2-1 .44-.6-.84 1.89-1.2 2.7-1.8 1.43-1 .91.94a9.08 9.08 0 0 0 3.21 2.18 3.16 3.16 0 0 0 2 0l.32.47-.52.51a6.37 6.37 0 0 1 -1.62 1.11l-.93.44v26.19l1.82 1.94 1.52-1 .71 1-1.4 1.06-2 1.65-1.83 1.51-1.57 1.39-1.75-1.89a24.72 24.72 0 0 0 -2.19-2.07l-1.56-1.13 1.42-1.3.93-1.11v-10.72h-8.06v12l1.37-1.37.74 1-1 .84a31.48 31.48 0 0 0 -2.52 2.36l-2 2.21-1 1.18-1.11-.71a13.62 13.62 0 0 0 -9.77-1.68 9.59 9.59 0 0 0 -2.51.88l-1 .57-.49-.45zm8.36-7.2a2.89 2.89 0 0 0 .62-1.8v-1.3-6h-1.14c-1.72 0-2.59.69-2.63 1.92v.64l-.72-.37a3.85 3.85 0 0 1 -1.19-3.22 4.31 4.31 0 0 1 1.09-3.14 3.91 3.91 0 0 1 3-1.2h1.58v-3.24c0-2.9 1.77-5.08 5.33-6.54l1.21-.47.37.4-.5.37a5.1 5.1 0 0 0 -.51 2.55v1.65 12c0 2.53-.51 4.36-1.55 5.49a7.9 7.9 0 0 1 -1.72 1.49 10.74 10.74 0 0 1 -2 1.06l-1.31.49-.37-.42z" class="cjd-fill" fill="#8089a2"></path>
      </svg>