<svg viewBox="0 0 39.47 50.51" xmlns="http://www.w3.org/2000/svg">
         <path d="m22.71 50.51a16.26 16.26 0 0 1 -3.62-.51 25.74 25.74 0 0 1 -2.87-.77l-2.58-.82a5.86 5.86 0 0 0 -1.71-.32c-.67 0-.87.19-1 .4l-.69 1h-4.24l-6-6 1.78-4c1.93-4 4.56-6 7.84-6a8.09 8.09 0 0 1 2.51.41l.43-.79a7 7 0 0 0 .32-2.18c-1-1-3.42-3.42-4-4a5.22 5.22 0 0 1 -1.81-4.43 6 6 0 0 1 2.93-5.5l-1.9-.87-5.79-5.79 1.16-3.13a15.53 15.53 0 0 1 1.21-2.21 11.63 11.63 0 0 1 1.79-2.24 9.43 9.43 0 0 1 6.73-2.43 19.57 19.57 0 0 1 3.91.38l3.07.63a11.33 11.33 0 0 0 2 .23 2.84 2.84 0 0 0 1-.13l2.18-1.44 2.64 2.25.11-.07 2.74-1.61 2.65 2.33 6 6-1.75 1.69a.68.68 0 0 0 -.19.28l-.11 1.31v2.23 21.9a17.89 17.89 0 0 1 -.49 5 10.69 10.69 0 0 1 -2.96 4.53 16 16 0 0 1 -5.17 3.34 16.21 16.21 0 0 1 -6 1.33zm-10.12-34.33h.32l.06-.42z" class="cjd-border" fill="#525a6f"></path>
         <path d="m9.62 48.38.34-.5a2.16 2.16 0 0 1 2-.93 7.26 7.26 0 0 1 2.07.37l2.58.83a24.37 24.37 0 0 0 2.76.74 15.28 15.28 0 0 0 3.36.46h.16a14.72 14.72 0 0 0 5.57-1.24 14.94 14.94 0 0 0 4.79-3.11 9.55 9.55 0 0 0 2.55-4.09 16.8 16.8 0 0 0 .46-4.64v-21.89-2.27l.1-1.43a1.75 1.75 0 0 1 .53-.95l.91-.87-5.1-5.11-1.99-1.75-2.06 1.17c-.27.16-.54.34-.81.52l-2.57-2.24-1.49 1a3.34 3.34 0 0 1 -1.56.28 12.12 12.12 0 0 1 -2.22-.26l-3.07-.63a18.74 18.74 0 0 0 -3.67-.35 8.32 8.32 0 0 0 -5.99 2.11 10.44 10.44 0 0 0 -1.62 2 14.72 14.72 0 0 0 -1.09 2l-.89 2.41 5.11 5.11 2.3 1 1.08-1.29a2 2 0 0 1 1.65-.78h.63a6.19 6.19 0 0 0 -.19.77l-.16 1.33v1h-.6c-3.26 0-5.12 1.81-5.22 5.11a4.08 4.08 0 0 0 1.41 3.74c.15.2 4.22 4.28 4.39 4.43a8.68 8.68 0 0 1 -.44 3.15l-1 1.75a7.1 7.1 0 0 0 -3-.71c-2.8 0-5.08 1.81-6.8 5.38l-1.45 3.27 5.11 5.11z" class="cjd-stroke" fill="#fff"></path>
         <path d="m3.89 40.45q2.27-4.73 5.75-4.72a6.17 6.17 0 0 1 2.82.73 21.12 21.12 0 0 1 2.32 1.47l2.22 1.61a7.14 7.14 0 0 0 3.78 1.54q3 0 3.08-4.79v-1.64-22.77a9.54 9.54 0 0 1 .58-3.48 8.43 8.43 0 0 1 2.42-2.57 20.87 20.87 0 0 1 2.35-1.67l1.31-.75.43.38a2.85 2.85 0 0 0 -.89 1.63l-.06 1.52v2.32 21.91a16.34 16.34 0 0 1 -.38 4.29 8.45 8.45 0 0 1 -2.24 3.6 13.55 13.55 0 0 1 -4.44 2.85 13.63 13.63 0 0 1 -5.15 1.16 12.91 12.91 0 0 1 -3.25-.43 21.53 21.53 0 0 1 -2.65-.7l-2.65-.84c-2.56-.8-4.34-.47-5.35 1h-.73zm1.74-32.38a13.55 13.55 0 0 1 1-1.88 8.84 8.84 0 0 1 1.45-1.75 7.14 7.14 0 0 1 5.14-1.79 17.14 17.14 0 0 1 3.43.35l3.08.63c2.16.42 3.72.36 4.66-.18l.83-.55.43.32-.65.87a8.81 8.81 0 0 1 -1.16 1.41 10.78 10.78 0 0 1 -1.59 1.44 8.35 8.35 0 0 1 -2.35 1.36 7.76 7.76 0 0 1 -2.85.48 16.41 16.41 0 0 1 -3-.25l-2.82-.46a16.37 16.37 0 0 0 -2.55-.23 3.2 3.2 0 0 0 -2.55 1.21l-.5.61-.5-.23zm5.93 17.5a2.75 2.75 0 0 1 -2.15-3.13c.09-2.69 1.47-4 4.16-4h1.67v-2.1l.15-1.23a4.67 4.67 0 0 1 1.54-2.73 22.09 22.09 0 0 1 2.62-1.86l2.32-1.44.45.25-.58.71a2.08 2.08 0 0 0 -.48 1.26v13.62 2.44a6.8 6.8 0 0 1 -3.36 5.9l-2 1.21-1.26.68-.48-.2.5-.91a9.83 9.83 0 0 0 .56-3.86v-6.18h-1.65l-.83.07a1.08 1.08 0 0 0 -.91 1.11v.48z" class="cjd-fill" fill="#8089a2"></path>
      </svg>