<svg viewBox="0 0 37.07 49.29" xmlns="http://www.w3.org/2000/svg">
         <path d="m19.12 49.29a15.74 15.74 0 0 1 -7.45-1.72 11.6 11.6 0 0 1 -3.21-2.3l-5-5a8.49 8.49 0 0 1 -2.7-6.2 6.94 6.94 0 0 1 1.85-4.91 6.51 6.51 0 0 1 4.92-2.24h.11.53l-.49-.51a5.55 5.55 0 0 1 -1.82-4.6 5.59 5.59 0 0 1 1.46-4.18 5.08 5.08 0 0 1 1.75-1.19l-3.3-1.54-5.77-5.77 2-3.13v-.05c2.64-3.73 5.67-5.62 9-5.64h.07a22.67 22.67 0 0 1 3.49.48l2.86.61a6.82 6.82 0 0 0 1.58.22 1.8 1.8 0 0 0 .76-.12l1.64-1.33 2.9 1.94.63.7 1.54-1.1 3.11-1.71 1 1.36 4.52 4.38 2 2.81-1.38 1.72a2.24 2.24 0 0 0 -.06.33l-.16 1.61v1 22.79a20.92 20.92 0 0 1 -.12 2.56 10.62 10.62 0 0 1 -4.72 7.32 18.77 18.77 0 0 1 -11.46 3.43zm-9.64-32.95a7.78 7.78 0 0 1 2.15-.34v-.11-1.14h-.39a.77.77 0 0 0 -.45.24z" class="cjd-border" fill="#525a6f"></path>
         <path d="m6.44 14 2.56 1.19 1-1.06a1.86 1.86 0 0 1 1.26-.57 13.75 13.75 0 0 1 1.62.18 6.18 6.18 0 0 0 -.12.62v1.51 1.21h-.67a5.24 5.24 0 0 0 -3.92 1.37 4.5 4.5 0 0 0 -1.17 3.39c0 2.07.65 3.19 1.45 3.78.17.22 4.14 4.18 4.28 4.3v1.21l-1.65-1.66a5 5 0 0 0 -3.48-1.4 5.38 5.38 0 0 0 -4.09 1.86 5.76 5.76 0 0 0 -1.61 4.14 7.38 7.38 0 0 0 2.37 5.41l5 5a10.25 10.25 0 0 0 2.93 2.1 14.51 14.51 0 0 0 6.92 1.61 17.7 17.7 0 0 0 10.81-3.19 9.56 9.56 0 0 0 4.27-6.57 18.6 18.6 0 0 0 .13-2.43v-22.77-1.08l.14-1.67a2.93 2.93 0 0 1 .19-.78l1-1.19-1.41-2-4.58-4.41-.43-.62-2.16 1.19-1.8 1.33-.49.39-1.24-1.39-2.08-1.42-1 .85a2.67 2.67 0 0 1 -1.47.32 7.94 7.94 0 0 1 -1.84-.25l-2.82-.6a21.43 21.43 0 0 0 -3.3-.46c-3 0-5.69 1.75-8.09 5.14l-1.51 2.42z" class="cjd-stroke" fill="#fff"></path>
         <path d="m6.82 36.35c0 1 .78 2 2.32 2.86a8.56 8.56 0 0 0 2.34 1 8.83 8.83 0 0 0 2.52.33 9.39 9.39 0 0 0 5.46-1.77 6.46 6.46 0 0 0 2.75-5c.07-.73.1-1.72.1-3v-19a11.63 11.63 0 0 1 .29-3.09 5.17 5.17 0 0 1 1.78-2.54l1.62-1.27 1.72-1.24 1.17-.63.35.49-.5.62a3.48 3.48 0 0 0 -.37 1.28l-.14 1.72v1.14 22.75a18.11 18.11 0 0 1 -.12 2.26 8.48 8.48 0 0 1 -3.82 5.82 16.65 16.65 0 0 1 -10.14 3 13.42 13.42 0 0 1 -6.41-1.51 9.39 9.39 0 0 1 -2.64-1.9 6.28 6.28 0 0 1 -2-4.63 4.71 4.71 0 0 1 1.2-3.35 4.33 4.33 0 0 1 3.26-1.49 4 4 0 0 1 2.69 1.06 3.59 3.59 0 0 1 1.14 2.67 3.47 3.47 0 0 1 -1.11 2.66 2.44 2.44 0 0 1 -2.76.54l-.62-.3zm-3-29.12q3.33-4.64 7.18-4.66a20.87 20.87 0 0 1 3.15.43l2.78.59c1.89.44 3.29.35 4.19-.27l.42-.32.45.3-.37.57a11.26 11.26 0 0 1 -1 1.35 16.88 16.88 0 0 1 -2.69 2.47 6 6 0 0 1 -3.45.89 8.55 8.55 0 0 1 -1.7-.13l-2.28-.45-2.42-.37a11.18 11.18 0 0 0 -1.75-.2 3 3 0 0 0 -2.12.89l-.47.49-.66-.32zm6.09 17.83c-1.19-.26-1.78-1.34-1.78-3.23-.06-2.4 1.25-3.62 3.95-3.65h1.75v-2.27l.07-1.4a4.64 4.64 0 0 1 1.6-2.86 20.83 20.83 0 0 1 4.91-3.06l.35.52-.47.49a2.45 2.45 0 0 0 -.47 1.31l-.07 1.28v1 16.4 2.09a6.06 6.06 0 0 1 -3.51 5.5 11.46 11.46 0 0 1 -1.84.77l-1.14.37-.42-.55.35-.41a4 4 0 0 0 .56-2.36l.08-2.12v-9.32h-1.65l-.87.05a1.13 1.13 0 0 0 -.89 1.28l.05.29z" class="cjd-fill" fill="#8089a2"></path>
      </svg>