<svg viewBox="0 0 47.64 50.51" xmlns="http://www.w3.org/2000/svg">
         <path d="m24.89 48.87c-.85-.48-1.55-.84-2.07-1.07a11.84 11.84 0 0 0 -2-.58 12.48 12.48 0 0 0 -2.64-.32h-.18a9.43 9.43 0 0 0 -2 .22 12.1 12.1 0 0 0 -2.13.62 5.72 5.72 0 0 0 -1.38.85l-2.11 1.78-3.12-2.15-5.69-5.69 1.79-2.73a19.39 19.39 0 0 1 2.64-2.93l.18-.16-1.18-1.36 1.28-2.05a1.42 1.42 0 0 0 .11-.3 14.72 14.72 0 0 0 .18-1.53v-.2c-.71-.7-2.21-2.21-2.65-2.69a5.24 5.24 0 0 1 -1.78-4.39 7.83 7.83 0 0 1 1.2-4.19 5.19 5.19 0 0 1 3.29-2.36c0-.27 0-.53.07-.79l-1-.09-5.7-5.76.83-3.2v-.07a10.15 10.15 0 0 1 3.08-4.6 8.1 8.1 0 0 1 5.44-2.13h.07a14.26 14.26 0 0 1 2.82.31l2 .47 1.82.43h.05a1.32 1.32 0 0 0 .42.07.94.94 0 0 0 .43-.1l2-1.22 2.66 2.33.19-.13 2.67-1.56 4 3.94 3-5.54 2.86 2 1.13.75a.8.8 0 0 0 .33.06h.23a.81.81 0 0 0 .51-.24l1.95-2.24 8.23 7.77-.55 2-.39 1.35v.07a11 11 0 0 1 -3 4.63 7.22 7.22 0 0 1 -4.78 1.85h-.23a6 6 0 0 1 -1.42-.17l-2.65 4.85a17.84 17.84 0 0 1 1.93 2.73c.68 1.15 1.32 2.34 1.89 3.55v.06l1 2.41.69 1.57.6-.26 5.56 5.56 2.27 2.92-2.09 2.28a11.78 11.78 0 0 0 -1.24 1.6l-1.74 2.5-1.42 2.12h-1.75v.05h-.49a6.61 6.61 0 0 1 -4.91-2.38l-2.23-2.2c-.13.14-.26.28-.37.42l-1.55 2-2.16 2.89z" class="cjd-border" fill="#525a6f"></path>
         <path d="m1.91 8.14-.66 2.54 5 5 1.75.15a10 10 0 0 0 -.31 2.58v.18a4.15 4.15 0 0 0 -3.44 2 6.84 6.84 0 0 0 -1 3.61 4.15 4.15 0 0 0 1.43 3.55c.17.21 2.92 3 3 3.05v.7a14.72 14.72 0 0 1 -.19 1.69 2.8 2.8 0 0 1 -.23.67l-.86 1.41 1.34 1.58q-.5.41-1 .87a17.18 17.18 0 0 0 -2.44 2.7l-1.3 1.96 5 5 2.31 1.62 1.46-1.23a7.17 7.17 0 0 1 1.66-1 12.29 12.29 0 0 1 2.34-.77 10.38 10.38 0 0 1 2.2-.25h.19a14.78 14.78 0 0 1 2.88.34 13.5 13.5 0 0 1 2.22.65 24.18 24.18 0 0 1 2.2 1.14l1.89 1.12 1.56-2.08 1.56-2c.36-.4.77-.85 1.22-1.32l3.08 3a5.49 5.49 0 0 0 4.15 2h1.6l1.11-1.6 1.74-2.55a14.1 14.1 0 0 1 1.36-1.75l1.43-1.56-1.63-2.14-5-5-1 .43-1.05-2.62-1-2.39c-.48-1.15-1.15-2.31-1.82-3.42a15.83 15.83 0 0 0 -1.91-2.66l-.35-.34-.09-.1 3.46-6.45.36.13a4.59 4.59 0 0 0 1.6.27h.27a6.11 6.11 0 0 0 4.1-1.51 10 10 0 0 0 2.64-4.16l.38-1.31.37-1.37-6.92-6.5-1.16 1.3a1.87 1.87 0 0 1 -1.2.6h-.37a1.75 1.75 0 0 1 -.92-.23l-1.18-.78-1.83-1.24-3.12 5.75-4.46-4.4-1.81 1.16c-.31.2-.6.41-.89.61l-2.7-2.36-1.33.81a2 2 0 0 1 -1 .25 2.68 2.68 0 0 1 -.72-.11l-1.79-.42-2-.47a12.75 12.75 0 0 0 -2.6-.29h-.14a7 7 0 0 0 -4.68 1.82 8.87 8.87 0 0 0 -2.74 4.1z" class="cjd-stroke" fill="#fff"></path>
         <path d="m3 8.46a8 8 0 0 1 2.4-3.6 5.91 5.91 0 0 1 4-1.57 12 12 0 0 1 2.38.27l2 .47 1.77.41a3.34 3.34 0 0 0 2.57-.24l.69-.42.34.27-.65 1.13c-1.71 2.74-3.5 4.1-5.29 4.06a11.65 11.65 0 0 1 -2.52-.24l-2.28-.44a17.38 17.38 0 0 0 -2-.17 3.54 3.54 0 0 0 -2.52.76l-.47.61-.73-.07zm12.72 2.4-.49.49a2.83 2.83 0 0 0 -.47 1.37l-.08 2.28v10.83 2.53a6 6 0 0 1 -1.86 4.41 12.48 12.48 0 0 1 -1.94 1.39l-1.66.93-1 .52-.4-.47.47-.76a3.7 3.7 0 0 0 .34-1 14.14 14.14 0 0 0 .2-1.86v-2-3.93h-.64a1.7 1.7 0 0 0 -1.86 1.1l-.13.59-.54-.28a2.93 2.93 0 0 1 -1.27-2.84 5.67 5.67 0 0 1 .83-3 3 3 0 0 1 2.7-1.47h.91v-1.3a7.69 7.69 0 0 1 .9-3.85 5.29 5.29 0 0 1 1.2-1.54 14.12 14.12 0 0 1 1.79-1.31 10.43 10.43 0 0 1 1.72-.88l1-.32zm-10.5 30.21a16.43 16.43 0 0 1 2.31-2.55 14.43 14.43 0 0 1 2.64-2 17.06 17.06 0 0 1 8.53-2.35 12.75 12.75 0 0 1 3.53.44 10.24 10.24 0 0 1 2.37 1.06l1.21.73.8-.71.76.71-1.2 1.15c-.58.61-1.1 1.16-1.54 1.67l-1.63 2.07-1 1.28-1-.62c-.95-.53-1.72-.93-2.33-1.2a15.37 15.37 0 0 0 -2.37-.75 15.63 15.63 0 0 0 -3.11-.37 12.43 12.43 0 0 0 -2.63.27 14.42 14.42 0 0 0 -2.56.8 8.26 8.26 0 0 0 -1.94 1.18l-.81.69-.71-.49zm11.42-9.65a4.22 4.22 0 0 0 .54-2.06l.07-1.4v-11.78l.08-1.91a16.21 16.21 0 0 1 .16-2.63 4.75 4.75 0 0 1 .74-1.83 9.2 9.2 0 0 1 1.14-1.57 12.54 12.54 0 0 1 1.49-1.42 20.39 20.39 0 0 1 2.27-1.72l1.06-.66.44.42-.49.51a5.81 5.81 0 0 0 -1 3.29v1.37 10.24l9.19-17 .81.56 1.22.81a3.1 3.1 0 0 0 2 .36 3 3 0 0 0 1.88-1l.47-.54.49.39-.2.69-.37 1.27q-1.81 5-5.76 4.93a3.76 3.76 0 0 1 -1.37-.2l-1.27-.46-4.34 8.08 1 1a14.58 14.58 0 0 1 1.76 2.47c.65 1.1 1.25 2.22 1.79 3.36l1 2.38 1.81 4.53.75 1.48a6.13 6.13 0 0 0 .91 1.4 2.9 2.9 0 0 0 2.31 1.22 3.47 3.47 0 0 0 1.33-.3l.66-.29.51.66-.78.86a14.87 14.87 0 0 0 -1.47 1.89l-1.74 2.57-.73 1.18h-1a4.5 4.5 0 0 1 -3.55-1.91 9.68 9.68 0 0 1 -1.23-2.06l-.69-1.6-.44-1.23-1.72-5.12-.54-1.65-1-2.7c-.34-.77-.63-1.37-.86-1.81l-.83-1.25v1.62 1.1c-.23 1.86-1.42 3.49-3.56 4.87a11.19 11.19 0 0 1 -2 1.11l-.93.37-.41-.4z" class="cjd-fill" fill="#8089a2"></path>
      </svg>