<svg viewBox="0 0 45.66 50.51" xmlns="http://www.w3.org/2000/svg">
         <path d="m2.39 42 3.1-3.26c.16-.16.33-.31.51-.46l-1.68-1.76 1.5-2.12a3.59 3.59 0 0 0 .09-.47c0-.38.12-1.17.14-1.53v-.11c-.94-.94-3.34-3.33-3.94-4a5.26 5.26 0 0 1 -1.82-4.38 7.92 7.92 0 0 1 1-3.76 6.18 6.18 0 0 1 3.07-3 7.5 7.5 0 0 1 1.8-.55v-.46c0-.16 0-.33 0-.49l-6.16-5.31.77-3.15a11.48 11.48 0 0 1 1.12-2.76 7.85 7.85 0 0 1 1.65-2.13 8.54 8.54 0 0 1 6.11-2.3h.12a18.17 18.17 0 0 1 2.92.29h.06l2.35.59 2.23.57a3.69 3.69 0 0 0 .93.14.8.8 0 0 0 .23 0l1.7-.68 2.46 1.65a14.93 14.93 0 0 1 7.66-2.56 11.14 11.14 0 0 1 3.43.59 13.45 13.45 0 0 1 3.15 1.49l2.22 1.62 6 5.95-4.32 4.49c-.61.66-1.48 1.7-2.58 3.09l-1.45 1.82-6.26-5.6a1.18 1.18 0 0 0 0 .21l-.11 1.71v2a4.57 4.57 0 0 1 2.09-.56h.08a3.78 3.78 0 0 1 3.13 1.43c.84.77 3.64 3.57 4.42 4.41a3.7 3.7 0 0 1 1.4 3.06 3.32 3.32 0 0 1 -.84 2.35v7.26l5 5-3.14 3.68c-.74.91-1.49 1.9-2.23 3l-2.38 3.43-3.47-1.32-3-1.13a25 25 0 0 0 -7.51-1.25 31.55 31.55 0 0 0 -3.71.25 18.8 18.8 0 0 0 -6.14 1.71l-3.27 1.82z" class="cjd-border" fill="#525a6f"></path>
         <path d="m6.31 39.56-2.31 2.44 7 7.08 2.52-1.41a19.8 19.8 0 0 1 6.54-1.82 32 32 0 0 1 3.85-.27 26 26 0 0 1 7.89 1.32l3.06 1.1 2.63 1 1.87-2.7c.76-1.09 1.53-2.11 2.3-3l2.44-2.89-4.51-4.52h-.07v-8.22l.06-.08a2.75 2.75 0 0 0 -.26-4c-.16-.22-4.3-4.37-4.53-4.52a2.59 2.59 0 0 0 -2.25-1 2.59 2.59 0 0 0 -2.76 2.75 2.25 2.25 0 0 0 .77 1.83v.05 10.77l-.66-.14-.89-.17a8.27 8.27 0 0 0 .22-1.35v-1.58-14.86l.09-1.74c.08-1.21.43-1.74.87-2l6.42 5.75.69-.87c1.12-1.42 2-2.48 2.64-3.16l3.57-3.65-5.09-5.09-2.12-1.55a12.54 12.54 0 0 0 -2.88-1.36 10.06 10.06 0 0 0 -3.07-.53c-2.31 0-4.88.94-7.82 2.85l-.6-.4.1-.12-1.97-1.31-1.17.47a2.12 2.12 0 0 1 -.62.08 5.38 5.38 0 0 1 -1.21-.17l-2.24-.57-2.3-.56a17.06 17.06 0 0 0 -2.73-.27h-.1a7.42 7.42 0 0 0 -5.32 2 6.68 6.68 0 0 0 -1.47 1.83 10.7 10.7 0 0 0 -1 2.5l-.6 2.44 6.1 5.27a8.44 8.44 0 0 0 -.12 1v.94.52a6.28 6.28 0 0 0 -2.48.55 5.15 5.15 0 0 0 -2.51 2.48 6.53 6.53 0 0 0 -.81 3.22 4.08 4.08 0 0 0 1.44 3.56c.18.22 4.2 4.22 4.32 4.34s0 .49 0 .65c0 .4-.1 1.2-.15 1.61a3.82 3.82 0 0 1 -.18.84l-1 1.48 1.95 1.93a17.43 17.43 0 0 0 -1.44 1.22z" class="cjd-stroke" fill="#fff"></path>
         <path d="m4.21 26.9c-1.11-.45-1.64-1.45-1.61-3a5.53 5.53 0 0 1 .68-2.68 4 4 0 0 1 2-2 4.8 4.8 0 0 1 2-.45h1.12v-1.61-.9a5.38 5.38 0 0 1 .85-2.76 6.67 6.67 0 0 1 1.88-2 12.7 12.7 0 0 1 2.23-1.38l1.81-.85.25.52a4.25 4.25 0 0 0 -1 2.41l-.02 1.7v11.67a23.45 23.45 0 0 1 -.3 4.54 7.61 7.61 0 0 1 -2.26 3.89 10.83 10.83 0 0 1 -2 1.63q-.66.41-2 1.08l-.45-.42.55-.78a5.53 5.53 0 0 0 .3-1.26l.15-1.68.05-2.81v-4.92h-1.44a1.71 1.71 0 0 0 -1.94 1.46l-.06.8zm-1.21-19.12a9.14 9.14 0 0 1 .91-2.24 5.6 5.6 0 0 1 1.2-1.54 6.3 6.3 0 0 1 4.62-1.69 14.78 14.78 0 0 1 2.54.25l2.26.55 2.23.58a4.45 4.45 0 0 0 2.53.05l.63-.25.38.25-.86 1a12.15 12.15 0 0 1 -2 2 7.59 7.59 0 0 1 -2.14 1.26 6.21 6.21 0 0 1 -2.41.46 9.5 9.5 0 0 1 -2-.21l-2.26-.52a11.92 11.92 0 0 0 -2.34-.3 3.27 3.27 0 0 0 -2.41 1l-.47.75-.71-.18zm4.12 32.6a24.74 24.74 0 0 1 8-4.74 25 25 0 0 1 9.18-1.71 28.4 28.4 0 0 1 5.37.53l2.09.45v-12.91l-.48-.32a1.16 1.16 0 0 1 -.38-1c0-1 .53-1.57 1.63-1.6s1.56.5 1.56 1.5a1.37 1.37 0 0 1 -.43 1l-.42.35v13.33l2.13.65 1.1-1.13.88.71-1.68 2c-.79 1-1.57 2-2.36 3.11l-1.35 2-1.79-.68-3.11-1.15a27.12 27.12 0 0 0 -8.26-1.38 34.19 34.19 0 0 0 -4 .27 20.84 20.84 0 0 0 -6.95 2l-1.75 1-.51-.66zm9.39-7.7a4.17 4.17 0 0 0 .35-1.31l.14-2.37v-5.24-8.53a25.62 25.62 0 0 1 .1-2.83 6.44 6.44 0 0 1 1.23-3.47 14.43 14.43 0 0 1 2.76-2.56q5.39-4.06 9.19-4.06a8.67 8.67 0 0 1 2.72.48 10.47 10.47 0 0 1 2.63 1.21l1 .75-2.63 2.75c-.65.71-1.55 1.79-2.71 3.24l-.82-.6 1.23-1.63-1.36-1.28a6.6 6.6 0 0 0 -4.24-2q-2.79-.06-3 3.23l-.1 1.81v14.83 1.53q-.35 4.17-5 6.48l-1.65.67-.35-.42z" class="cjd-fill" fill="#8089a2"></path>
      </svg>