<svg viewBox="0 0 55.68 50.51" xmlns="http://www.w3.org/2000/svg">
         <path d="m32.85 49.51-.37-.36-2-2a3.46 3.46 0 0 0 -2.12-1 2.09 2.09 0 0 0 -.72.14l-1.64 1.06-1.86-.89a10.07 10.07 0 0 1 -.79.81 7.74 7.74 0 0 1 -5.35 2.29h-.07a11 11 0 0 1 -2.75-.39l-2.79-.81a6 6 0 0 0 -1.69-.36h-.31l-1.15 1.81-3.6-.69-5.64-5.64.73-3.48a7.83 7.83 0 0 1 4.52-5.68l-.42-.52 2.24-1.85a.57.57 0 0 0 .17-.25c-.92-.93-3-3.11-3.57-3.66a5.67 5.67 0 0 1 -2-4.47v-.14a6 6 0 0 1 2-4.4 6.88 6.88 0 0 1 3.73-1.66v-2.64l.07-1.52v-.05c.25-1.95 1.51-3.57 3.75-4.8l1.9-1 14.17-7.1 2.54 2.74v-2.15h5.39l1.78 2.15.8-.71 2.43-2.29 2.9 2.8c1.06.93 1.56 1 1.63 1l2-.71 5.53 5.53 1.95 2.55-1.56 1.83a10.11 10.11 0 0 1 -2 2v20.69l5 5-3.63 5-2.69 4.06-1.94-.17h-.05a7.25 7.25 0 0 1 -4.58-2.44l-2.42-2.4-.13.09a25.51 25.51 0 0 0 -3.69 3l-2.73 2.73z" class="cjd-border" fill="#525a6f"></path>
         <path d="m46.43 4.39-1.31.47a1 1 0 0 1 -.35.06 4.07 4.07 0 0 1 -2.4-1.29l-2.15-2.08-1.62 1.54c-.57.52-1.14 1-1.72 1.44l-2.18-2.59h-3.77v3.62h-.2l-3.73-3.92-13.34 6.7-1.88 1c-2 1.09-3 2.48-3.2 4.14l-.07 1.25v3.66h-.29-.05a5.74 5.74 0 0 0 -3.71 1.37 5 5 0 0 0 -1.63 3.62 4.37 4.37 0 0 0 1.6 3.66c.11.13 3.88 4 4 4.11v.19a1.94 1.94 0 0 1 -.62 1.3l-1.4 1.16.76.93a8.51 8.51 0 0 0 -1.28.38 6.64 6.64 0 0 0 -4.06 5l-.6 2.9 5 5 2.51.49.79-1.24a1.12 1.12 0 0 1 1-.45h.16a7 7 0 0 1 2 .42l2.76.8a10 10 0 0 0 2.47.35h.08a6.69 6.69 0 0 0 4.59-2 8.64 8.64 0 0 0 1.21-1.38l2.13 1 1.23-.77a3.07 3.07 0 0 1 1.24-.23 4.52 4.52 0 0 1 2.88 1.31l2 2 .55.56 1.92-1.87a26.6 26.6 0 0 1 3.87-3.18l.91-.59c.13.14 2.91 2.92 3.07 3.07a6.16 6.16 0 0 0 3.91 2.1l1.26.11 2.36-3.51 3.09-4.2-4.63-4.61v-21.83a9.57 9.57 0 0 0 2.24-2.12l.92-1.11-1.36-1.78z" class="cjd-stroke" fill="#fff"></path>
         <path d="m2.93 40.46a5.55 5.55 0 0 1 3.38-4.21 6.27 6.27 0 0 1 2.27-.44 14.88 14.88 0 0 1 2.72.29l2.6.57a7.38 7.38 0 0 0 1.59.17 2.08 2.08 0 0 0 2.32-1.84l.19-1.64.12-2.13v-22.39l-1 .63a3.48 3.48 0 0 0 -1.49 3.06v1.59 12 1.72a5.83 5.83 0 0 1 -1.91 4.06 10.71 10.71 0 0 1 -3.87 2.37l-1.3.32-.55-.54.56-.47a3.12 3.12 0 0 0 1-2l.07-1.94v-4.72h-.7l-.93.08c-1 .15-1.3.64-.88 1.47l.17.35-.71-.05c-1.69-.22-2.58-1.31-2.58-3.32a3.54 3.54 0 0 1 1.21-2.79 4.58 4.58 0 0 1 3-1.08h1.45v-4.8l.05-1.19c.11-1.28 1-2.36 2.62-3.26l1.84-1 12.45-6.22.54.86q2.23 3.3 4.92 3.42v-4.28h1.45v4.28l1.07-.27a8.12 8.12 0 0 0 2.29-1.21 24.92 24.92 0 0 0 2.46-2l.86-.81 1.39 1.35q2.31 2 3.9 1.47l.5-.19.32.41-.32.42a9.34 9.34 0 0 1 -2.15 2l-.35.19v22.9l.05 2c.15 1.51.91 2.25 2.28 2.2a2.16 2.16 0 0 0 .88-.12l.54-.17.49.44-2.5 3.4-2 3-.57-.05c-2.17-.3-3.66-1.64-4.48-4a8.86 8.86 0 0 1 -.53-2.92v-2.15-8.36h-4.13v11.72l1.34-.64.59 1-1.46.89a27.84 27.84 0 0 0 -4 3.33l-1.13 1.13-1.32-1.35q-3-2.94-5.87-1.66l-.79.49-.66-.32.84-1.37a9 9 0 0 1 2.59-2.5v-10.72h-4.14v7.2l-.07 2.64a11 11 0 0 1 -.39 2.18 7.93 7.93 0 0 1 -2.2 3.72 5.61 5.61 0 0 1 -3.86 1.69 8.57 8.57 0 0 1 -2.21-.35l-2.72-.79a7.75 7.75 0 0 0 -2.42-.46 2.29 2.29 0 0 0 -2.06.95l-.39.62-.64-.13zm16.6-32.26v11.5h4.13v-10.64l-1.66-.67-1.4-.71zm10 1.44v25.26l.91.44 1.66.91v-27.25zm4-1.05v11.11h4.13v-10.06a10.54 10.54 0 0 1 -1.76-.81l-1.12-.71z" class="cjd-fill" fill="#8089a2"></path>
      </svg>