<svg viewBox="0 0 47.81 51.31" xmlns="http://www.w3.org/2000/svg">
         <path d="m37 49.85-.12-.06a9.26 9.26 0 0 1 -2.5-1.94 10.05 10.05 0 0 1 -.73-.73c-.37-.36-3.34-3.34-3.7-3.71-.14-.13-.28-.26-.41-.4l-6.27 8.22-3.11-2.23a9 9 0 0 0 -4.65-1.45h-.51a8.41 8.41 0 0 0 -4.25 1l-1.54 1h-3.32l-5.89-5.92 1.51-3.2a15.29 15.29 0 0 1 5.06-5.84 15.49 15.49 0 0 1 2.13-1.29h.11.13v-.55l-.31-.3-3.39-3.53a5.93 5.93 0 0 1 -2-4.87 6.76 6.76 0 0 1 1.89-4.77 6.15 6.15 0 0 1 1.1-.94l-3.36-3-.48-2.22-.1-1.42v-.06a10.26 10.26 0 0 1 .5-3.44 8.91 8.91 0 0 1 1-2.07 9.52 9.52 0 0 1 2-2.41 9.32 9.32 0 0 1 6.39-2.4 10.06 10.06 0 0 1 7 2.92l3.82 3.85 2.29-2.09c.92-.89 1.91-1.89 2.95-2.95l2.82-3 2.64 1.63a6.18 6.18 0 0 0 2.95 1 2.22 2.22 0 0 0 .9-.17l2.17-1 2.41 2.05 5.68 5.68-2 3.08h-.06a13.7 13.7 0 0 1 -4.67 4.39v34.6zm-12.57-14.57-.32-.63-.71-.06z" class="cjd-border" fill="#525a6f"></path>
         <path d="m37.35 48.78h.07l2.55.9v-33.68a11.87 11.87 0 0 0 4.92-4.39l1.45-2.22-5-5-1.79-1.55-1.55.72a3.28 3.28 0 0 1 -1.36.28 7.33 7.33 0 0 1 -3.55-1.19l-1.84-1.19-2.19 2.33c-1 1.08-2 2.09-3 3l-2.82 2.61 5 5 2.29 2.15.74-.43v.44h-.18c-.56.09-2.58.13-2.69.13h-.31l-.28-.5a40.33 40.33 0 0 0 -2.28-3.65 17.51 17.51 0 0 0 -2.16-2.48l-5-5a8.94 8.94 0 0 0 -6.2-2.62 8.25 8.25 0 0 0 -5.67 2.12 8.49 8.49 0 0 0 -1.77 2.16 7.65 7.65 0 0 0 -.86 1.82 9.18 9.18 0 0 0 -.44 3.08l.08 1.28.38 1.78 4.32 3.9a5.41 5.41 0 0 0 -2.27 1.44 5.74 5.74 0 0 0 -1.58 4 4.78 4.78 0 0 0 1.66 4c.16.2 4 4 4.05 4.09v1.89l-.83.32h-.05a15.35 15.35 0 0 0 -2 1.2 14.1 14.1 0 0 0 -4.69 5.41l-1.13 2.48 5 5h2.56l1.27-.81a9.47 9.47 0 0 1 4.8-1.15h.52a10.09 10.09 0 0 1 5.24 1.66l2.24 1.56 6.24-8.17-5-5-2.68-1.79-1 1-.42-.24c-.46-.25-.92-.48-1.37-.69v-.78h.09a15.87 15.87 0 0 1 4.06-.51l1.92.15c.69 1.39 1.28 2.52 1.75 3.38a22.21 22.21 0 0 0 4.1 5.64l3.72 3.74a9.57 9.57 0 0 0 .72.71 8.15 8.15 0 0 0 2.22 1.67zm-18.58-24.16v-3.56l1.77 3.77a14.75 14.75 0 0 0 -1.77-.21z" class="cjd-stroke" fill="#fff"></path>
         <path d="m3.55 41.43a13 13 0 0 1 4.31-5 14.91 14.91 0 0 1 1.83-1.11l1.5-.59v-8.9h-1.06c-1.13 0-1.67.42-1.6 1.16l.1.54.19.54-.39-.07-1-.32a3.52 3.52 0 0 1 -2-3.6 4.55 4.55 0 0 1 1.27-3.24 4.47 4.47 0 0 1 3.29-1.39h1.13v-10.1l-.91.05a5.16 5.16 0 0 0 -4.66 3.33l-.32.82h-.42l-.18-.79-.07-1.16a7.69 7.69 0 0 1 .44-2.71 6.38 6.38 0 0 1 .74-1.58 7.45 7.45 0 0 1 1.56-1.9 7.05 7.05 0 0 1 4.9-1.82 7.84 7.84 0 0 1 5.38 2.31 17 17 0 0 1 2 2.32c.7 1 1.44 2.17 2.22 3.55l1.7 3.08 1.38 2.64 1.06.2a14.88 14.88 0 0 0 2.81.17 16.55 16.55 0 0 0 2.51-.15l1.11-.22v-7h-.83a9.42 9.42 0 0 1 -3.48-.59l-1.06-.5-1.28.74-.82-.74 2-1.8q1.42-1.38 3-3l1.55-1.65 1.09.69c2.32 1.38 4.3 1.71 6 1l.88-.42.5.42-.92 1.36q-2.39 3.24-4.53 4l-.62.17v32.94l-1-.35q-2.41-1.2-5.27-6.36-.87-1.55-2.2-4.29l-1.94-4-.84-.25a24.8 24.8 0 0 0 -2.49-.37l-2.11-.21a17.26 17.26 0 0 0 -4.44.57l-.86.29v6.51l1.85.1a13.12 13.12 0 0 1 5.1 1.73l1.16.66.94-1 .88.59-4.83 6.34-1.3-.94a11.18 11.18 0 0 0 -5.85-1.85 10.88 10.88 0 0 0 -6 1.31l-1 .64h-.49zm9.1-31.66v16.82l1.82-.47a15.1 15.1 0 0 1 3.43-.39 13.23 13.23 0 0 1 3.23.39l1.48.45-3.13-6.69-1.48-3q-1-2-2.1-3.84a7.9 7.9 0 0 0 -2.81-3.04zm13.09 9.23 1.65 3.72 1.68 3.73a36 36 0 0 0 1.75 3.45l1.58 2.54v-13.39l-.74.14a11.66 11.66 0 0 1 -2.49.23 13.64 13.64 0 0 1 -2.05-.15z" class="cjd-fill" fill="#8089a2"></path>
      </svg>