<svg viewBox="0 0 48.19 50.51" xmlns="http://www.w3.org/2000/svg">
         <path d="m25.74 50.51a18.41 18.41 0 0 1 -6.74-1.29 22.68 22.68 0 0 1 -8-5.33l-2.11-2.09-3-3a19.71 19.71 0 0 1 -4.89-8.41 23.27 23.27 0 0 1 -1-6.69 24.77 24.77 0 0 1 7.52-18 21.56 21.56 0 0 1 8.37-5.11l1.68-.59 4.65 4.79.48-.21v-3.72h5.37l.63.6 2.3-1.46 1.24.85a32.26 32.26 0 0 1 4.87 4c.38.37 4.31 4.3 4.63 4.63a20.7 20.7 0 0 1 3.18 3.86 21.71 21.71 0 0 1 2.45 5.66 23.46 23.46 0 0 1 .82 6.13 27.4 27.4 0 0 1 -3.68 13.71 23.35 23.35 0 0 1 -10.4 9.79 18.83 18.83 0 0 1 -8.11 1.88h-.25z" class="cjd-border" fill="#525a6f"></path>
         <path d="m6.7 38 5.1 5.1a21.48 21.48 0 0 0 7.6 5.07 17.17 17.17 0 0 0 6.34 1.21h.26a17.72 17.72 0 0 0 7.62-1.74 22.24 22.24 0 0 0 9.9-9.33 26.3 26.3 0 0 0 3.48-13.16 22 22 0 0 0 -.78-5.82 20.58 20.58 0 0 0 -2.28-5.33 19.19 19.19 0 0 0 -3-3.65c-.16-.17-4.38-4.4-4.63-4.64a30.83 30.83 0 0 0 -4.71-3.87l-.6-.45-2.67 1.61-.12.07v-.48l-.62-.59h-3.77v3.33l-1 .44-.91.4-4.65-4.83-1 .34a20.48 20.48 0 0 0 -7.92 4.83 23.62 23.62 0 0 0 -7.18 17.19 22.14 22.14 0 0 0 .9 6.37 18.45 18.45 0 0 0 4.64 7.93zm26.4-12.44a17.88 17.88 0 0 1 -.19 2.26l-.21-.06v-3.6l.4.07zm-18 1.53c0-.81 0-1.6.06-2.36v4.75c-.05-.77-.07-1.57-.07-2.39z" class="cjd-stroke" fill="#fff"></path>
         <path d="m13.91 10.39 1.76-.62 3.72-1.34c1.31-.48 2.61-1 3.9-1.61l1.64-.75v-3h1.48v2.32l2.49-1.39 2-1.26a23.81 23.81 0 0 1 6.92 6.72 19.49 19.49 0 0 1 2.17 5 20.63 20.63 0 0 1 .74 5.52 25 25 0 0 1 -3.33 12.63 21 21 0 0 1 -9.4 8.85 16.35 16.35 0 0 1 -7.24 1.63 16 16 0 0 1 -6.05-1.09 20.45 20.45 0 0 1 -7.19-4.8 17.27 17.27 0 0 1 -4.35-7.42 20.9 20.9 0 0 1 -.86-6 22.43 22.43 0 0 1 6.84-16.45 19.44 19.44 0 0 1 7.5-4.56l.38.81-1.29.68a10.83 10.83 0 0 0 -2.44 2.09q-4.47 4.98-4.47 15.65.08 19.5 12.57 19.52a12.08 12.08 0 0 0 2-.13l1.54-.32v-33.47l-2.66 1.21v20.62 1.54c-.18 2.18-2 4-5.38 5.43l-1.16.43-.5-.38.35-.3a2.11 2.11 0 0 0 .7-1.61v-23.39l-2.36.68v-1.44zm12.5-3.49v9.15l1 .26a9.91 9.91 0 0 0 1.93.15 8.35 8.35 0 0 0 3.13-.46l.61-.27-.26-.73a19.74 19.74 0 0 0 -4.32-7.17l-1.5-1.31zm0 10.74v11.52l1.48-.3a19.72 19.72 0 0 1 2.27-.18 8.61 8.61 0 0 1 2.44.32l1.2.47.16-.7c.13-.85.23-1.9.3-3.14v-2.18l-.13-2.16a26.64 26.64 0 0 0 -.38-2.64l-.27-1.34-1.21.43a10.38 10.38 0 0 1 -2.72.3 8.32 8.32 0 0 1 -1.83-.12zm0 13.1v9.66l1.18-.63c2.42-1.46 4.24-3.92 5.49-7.39l.42-1.38-.8-.33a11.67 11.67 0 0 0 -3.15-.4 12.14 12.14 0 0 0 -1.81.15z" class="cjd-fill" fill="#8089a2"></path>
      </svg>