<svg viewBox="0 0 36.15 50.51" xmlns="http://www.w3.org/2000/svg">
         <path d="m19.1 50.28h-.1a6.26 6.26 0 0 1 -3.5-1.88l-2.19 1.92h-4.2l.08-1.07-4.39-3.84.26-3.49v-.17l-3.66-3.34-.14-2.65a8.8 8.8 0 0 1 3.61-7.34l.29-.19-.94-.94c-1.61-1.62-2.16-2.17-2.35-2.38a4.45 4.45 0 0 1 -1.53-3.72 5.5 5.5 0 0 1 4.25-5.47l-4.59-4.61v-1.89a9.07 9.07 0 0 1 1.62-5.63 6.89 6.89 0 0 1 5.7-2.68 7 7 0 0 1 5.18 1.88.58.58 0 0 0 .21.2v-2.12h4.6l2.15 2.26c.33-.23.65-.47 1-.7l3.17-2.43 2.27 2.18c1.17 1.07 1.72 1.1 1.78 1.1l1.55-.52 6.9 6.81-1.66 2-.07.05a10.14 10.14 0 0 1 -1.17 1.06v20.69l.08 1.38a4.57 4.57 0 0 0 .11 1.08l.72 1.57-1.38 2.31-2.23-.26a8.28 8.28 0 0 0 -4.94 1.62 9.12 9.12 0 0 0 -1.07.91l-2.17 2.12-.15-.1v6.54z" class="cjd-border" fill="#525a6f"></path>
         <path d="m25 40.29a9.23 9.23 0 0 1 5.58-1.82l1.67.19.78-1.31-.54-1.17a5.4 5.4 0 0 1 -.16-1.4l-.06-1.39v-21.19l.26-.17a12.49 12.49 0 0 0 1.12-1l1.07-1.32-5.72-5.83-1 .34a1.06 1.06 0 0 1 -.31 0 4 4 0 0 1 -2.45-1.37l-1.68-1.6-2.56 1.96c-.55.41-1.11.81-1.69 1.2l-2.42-2.59h-3.22v3.55l-1.89-1.89a6 6 0 0 0 -4.47-1.58 5.86 5.86 0 0 0 -4.92 2.29 8 8 0 0 0 -1.39 5.02v1.49l4.35 4.35h1v1.48h-.26a4.66 4.66 0 0 0 -3.37 1.28 4.46 4.46 0 0 0 -1.39 3.37 3.47 3.47 0 0 0 1.25 2.94c.15.19 3.6 3.62 3.69 3.73v.79l-.76.5a7.86 7.86 0 0 0 -3.25 6.58l.11 2.28 3.73 3.34-.1.66-.22 3 4.39 3.83v.52h2.83l2-1.74.68-.51a4.73 4.73 0 0 0 .46.44 5.27 5.27 0 0 0 3.13 1.75l2 .14v-7.8l.62.6.5.48 1.48-1.42a11.21 11.21 0 0 1 1.18-1z" class="cjd-stroke" fill="#fff"></path>
         <path d="m2 9.22a7.16 7.16 0 0 1 1.17-4.43 4.94 4.94 0 0 1 4.15-1.91 5 5 0 0 1 3.75 1.29 6.08 6.08 0 0 1 1.27 3.83l.06 1.78 2.26-1.29v-5.65h1.26v4.94l2.17-1.35c1.2-.78 2.38-1.58 3.52-2.43l1.87-1.42 1.07 1c1.45 1.42 2.7 1.89 3.74 1.58l.45-.16.38.36-.47.64a10.72 10.72 0 0 1 -1 1l-.65.35v21.7 1.39a6.3 6.3 0 0 0 .22 1.74l.34.75-.19.33-1.1-.13a10.2 10.2 0 0 0 -6.22 2 11 11 0 0 0 -1.29 1.09l-.76.78-1.14-1.11-1-.71v8.82h-.86a4.45 4.45 0 0 1 -2.85-1.78l-.67-.86-1.48 1.15-1.76 1.49h-1.35l.15-2 .23-2.83v-6l-.64.24a5.63 5.63 0 0 0 -2.43 2.7l-.36.89h-.54l-.06-1.24a6.85 6.85 0 0 1 2.85-5.76l1.18-.8v-6.97h-1c-1.38 0-2.13.3-2.26 1v.56l-.23-.08a2.41 2.41 0 0 1 -1.46-2.51 3.41 3.41 0 0 1 1.09-2.64 3.66 3.66 0 0 1 2.68-1h1.19v-7.18-.9c-.08-1.48-.78-2.28-2.11-2.26a2 2 0 0 0 -2 1.4l-.17.64-.06.48h-.94zm10.4 1.93v24.85 2.64a5.89 5.89 0 0 0 .5 2.36 3.79 3.79 0 0 0 1.76 1.57v-32.84zm3.52-1.91v4.83l1.1.23a9.56 9.56 0 0 0 1.84.18 8 8 0 0 0 1.61-.13l1.4-.28v-5.75l-1.46-.63-1.05-.62zm0 15.09 1-.17a19.78 19.78 0 0 1 2.29-.16 10.75 10.75 0 0 1 1.63.1l1 .22v-8.9l-1.16.22a11.93 11.93 0 0 1 -1.85.19 11.15 11.15 0 0 1 -1.83-.19l-1.12-.22zm0 1.35v3.13l.84.37a21.73 21.73 0 0 1 2 1.06 14.81 14.81 0 0 1 1.71 1.23l1.1 1 .3-.17v-6.62l-.49-.11a13.47 13.47 0 0 0 -2.22-.21 20.15 20.15 0 0 0 -2.08.15z" class="cjd-fill" fill="#8089a2"></path>
      </svg>