<svg viewBox="0 0 42.65 50.51" xmlns="http://www.w3.org/2000/svg">
         <path d="m30.05 50.51a6.58 6.58 0 0 1 -3.51-1.1 15 15 0 0 1 -2.25-1.63l-2-1.81-1.65-1.46h-.21l-1.86-.42h-.07a18.8 18.8 0 0 1 -8.86-5.31l-3.64-3.73a20.61 20.61 0 0 1 -2.42-2.74 18.72 18.72 0 0 1 -3.58-11.67 20.15 20.15 0 0 1 .86-5.81 22.29 22.29 0 0 1 4.31-8.13 19.18 19.18 0 0 1 7.47-5.7h.06l3.05-1 .69 1.13 3.25 3.13.38-.16v-3.17h5.32v.37l2.19-1.3 2.69 1.89a20.74 20.74 0 0 1 2.36 2.11c.37.33 4.87 4.85 5.37 5.38a18.8 18.8 0 0 1 4.37 9.17 21.73 21.73 0 0 1 .32 3.66 23.05 23.05 0 0 1 -.58 4.79 25.84 25.84 0 0 1 -6.27 12 24.7 24.7 0 0 1 -2.05 2.12l2.26 2.25 2.26 3.18-3.55 2.35a10.39 10.39 0 0 1 -4 1.56z" class="cjd-border" fill="#525a6f"></path>
         <path d="m35.27 44.11-3-3 .65-.57a26.24 26.24 0 0 0 2.13-2.18 24.93 24.93 0 0 0 6-11.58 23.06 23.06 0 0 0 .51-4.61 20.67 20.67 0 0 0 -.31-3.49 17.81 17.81 0 0 0 -4.12-8.67c-.42-.48-5.11-5.18-5.3-5.37a18.89 18.89 0 0 0 -2.19-1.95l-2.09-1.47-2.33 1.4-.28.14v-.3h-.54v-.54h-3.34v2.84l-1.6.72-3.82-3.7-.34-.56-2.3.72a18.15 18.15 0 0 0 -7 5.4 20.94 20.94 0 0 0 -4.11 7.77 18.82 18.82 0 0 0 -.89 5.54 17.74 17.74 0 0 0 3.36 11.05 18.32 18.32 0 0 0 2.32 2.62l3.7 3.7a17.69 17.69 0 0 0 8.4 5l1.81.41.45.07.24.2 1.72 1.51 2 1.79a13.77 13.77 0 0 0 2.1 1.54 5.6 5.6 0 0 0 3 1 8.5 8.5 0 0 0 4.12-1.54l2.64-1.68zm-6.12-19.74v.28h-.21v-3.25l.38.05a25.68 25.68 0 0 1 -.17 2.92zm-15.75 2.55c-.06-.88-.09-1.86-.09-2.92 0-1 0-2 .09-2.76z" class="cjd-stroke" fill="#fff"></path>
         <path d="m12.43 9.2 2.75-1c1.93-.68 3.41-1.25 4.45-1.69l2.46-1.11v-2.4h1.31v1.73l2.34-1.22 1.78-1.07 1.57 1.11a19.11 19.11 0 0 1 2.83 2.67 16.71 16.71 0 0 1 3.89 8.18 19.57 19.57 0 0 1 .29 3.31 21.71 21.71 0 0 1 -.49 4.4 23.74 23.74 0 0 1 -5.8 11.11 22.77 22.77 0 0 1 -2 2.09l-1.13 1-1.68.07a4.34 4.34 0 0 0 -2.11.64l-.42.29.93.83 1.31 1 1.65 1.13a5.76 5.76 0 0 0 2.71 1.09l.58-.16.78-.33.49.69-1.72 1.09a7.65 7.65 0 0 1 -3.66 1.35 4.64 4.64 0 0 1 -2.45-.8 13.09 13.09 0 0 1 -1.95-1.42l-2-1.8-1.69-1.49-.45-.42-.71-.07-1.75-.4a16.86 16.86 0 0 1 -9.36-6.47 16.68 16.68 0 0 1 -3.13-10.49 17.52 17.52 0 0 1 .77-5.22 20 20 0 0 1 3.92-7.42 17 17 0 0 1 6.64-5.11l1.47-.47.42.69-1 .55a11.26 11.26 0 0 0 -2.53 2.08 12.2 12.2 0 0 0 -1.89 2.7 13.53 13.53 0 0 0 -1.25 3.47 28.56 28.56 0 0 0 -.69 4.38c-.08.91-.12 2-.11 3.2a33.49 33.49 0 0 0 .27 4.8q1.38 10.13 8 12l1-.47a4.48 4.48 0 0 1 1.58-.35 6 6 0 0 1 2.06.46l.89.36.53-.16v-29.34l-2.33 1v17.81l-.07 1.53a4.53 4.53 0 0 1 -1.77 3.18 13.82 13.82 0 0 1 -3.23 2l-.78.29-.4-.36.38-.6a5.54 5.54 0 0 0 .54-2.15v-1.12-18.66l-2 .62v-1.13zm11 5.09.66.15a8.24 8.24 0 0 0 1.65.14 7.29 7.29 0 0 0 2.44-.32l1.11-.44-.57-1.65a16.23 16.23 0 0 0 -3.49-5.17l-1.05-1-.77.35v7.92zm0 1.4v10.24l1.15-.29a14.15 14.15 0 0 1 2.22-.22 9.47 9.47 0 0 1 1.89.18l1.29.33.2-1.42a26 26 0 0 0 .18-3.2 23.94 23.94 0 0 0 -.36-4.31l-.37-1.73-1.2.44a8.78 8.78 0 0 1 -2.47.31h-1.05zm0 11.64v8.32l1.04-.65a11.3 11.3 0 0 0 1.53-1.33 12.69 12.69 0 0 0 3.15-5l.43-1.36-.71-.24a9.59 9.59 0 0 0 -2.29-.29 9.42 9.42 0 0 0 -1.94.18z" class="cjd-fill" fill="#8089a2"></path>
      </svg>