<svg viewBox="0 0 46.62 50.51" xmlns="http://www.w3.org/2000/svg">
         <path d="m25 48.63a14.47 14.47 0 0 0 -2.69-1 14.33 14.33 0 0 0 -3.45-.49 15.05 15.05 0 0 0 -2.42.26 9.1 9.1 0 0 0 -2.78 1l-2.66 1.98-3.26-1.87-6-6 2.47-3.17c.33-.39.71-.79 1.13-1.2l-1.47-1.29 1.57-2a2.18 2.18 0 0 0 .56-1.23v-2.89c-2-2-2.57-2.57-2.76-2.77a5.26 5.26 0 0 1 -1.83-4.44 7.24 7.24 0 0 1 1.49-4.52 5.93 5.93 0 0 1 3.1-2.07c0-.28.06-.55.11-.8v-.16l-.33-.16-5.78-5.81.87-2.29a15.59 15.59 0 0 1 2.95-4.47 7.72 7.72 0 0 1 5.67-2.69 12.14 12.14 0 0 1 3.28.45l3.29.88a3.17 3.17 0 0 0 .79.1 2.15 2.15 0 0 0 .8-.15l2.17-1.51 2.65 2.2.82.85 6-3.37 1.07.46a10 10 0 0 1 3.42 2.4c.53.51 4.07 4.05 4.58 4.57a10.55 10.55 0 0 1 3.16 8 14.38 14.38 0 0 1 -.16 2.23 14.35 14.35 0 0 1 -3.48 7.15 16 16 0 0 1 -1.3 1.3 11 11 0 0 1 1 1 11.8 11.8 0 0 1 1.68 2.73 19.62 19.62 0 0 1 1 3.15l.36 1.54 4 3.94 2 2.27-5.56 9.4-2.79-.59h-.06a9.16 9.16 0 0 1 -2.91-1.39 8.89 8.89 0 0 1 -1.47-1.16l-1-1-.88.88-3.42 3.66z" class="cjd-border" fill="#525a6f"></path>
         <path d="m43.76 39.37-4.07-4-.17-.19-.43-1.85a19.52 19.52 0 0 0 -.91-3 10.8 10.8 0 0 0 -1.52-2.47 11.6 11.6 0 0 0 -.95-1l-.57-.57-.28-.29a16.83 16.83 0 0 0 2.1-2 13.17 13.17 0 0 0 3.19-6.56 12 12 0 0 0 .14-2 9.33 9.33 0 0 0 -2.81-7.19c-.18-.21-4.38-4.41-4.59-4.6a8.9 8.9 0 0 0 -3.06-2.14l-.53-.23-6.23 3.55-1.39-1.45-1.91-1.59-1.54 1.1a3.28 3.28 0 0 1 -1.39.3 4.19 4.19 0 0 1 -1.08-.19l-3.3-.88a11.06 11.06 0 0 0 -2.92-.45 6.58 6.58 0 0 0 -4.86 2.33 14.55 14.55 0 0 0 -2.68 4.12l-.64 1.59 5.13 5.13 1 .47a6.18 6.18 0 0 0 -.25 1 7.45 7.45 0 0 0 -.13 1.51v.06a4.69 4.69 0 0 0 -3.33 1.83 6.06 6.06 0 0 0 -1.23 3.81 4.06 4.06 0 0 0 1.45 3.59c.17.21 3 3 3.1 3.14v3.38a3.14 3.14 0 0 1 -.8 2l-.86 1.1 1.69 1.43a15.9 15.9 0 0 0 -2 2l-1.81 2.29 5.13 5.13 2.46 1.42 2.09-1.5a10.19 10.19 0 0 1 3.19-1.2 15.56 15.56 0 0 1 2.67-.3 15.27 15.27 0 0 1 3.75.52 16.35 16.35 0 0 1 2.93 1.05l2.76 1.47 2.83-3 1.71-1.73s1.64 1.65 1.83 1.82a6.76 6.76 0 0 0 1.33 1.17 7.74 7.74 0 0 0 2.55 1.21l1.93.41 4.71-8z" class="cjd-stroke" fill="#fff"></path>
         <path d="m3 8.57a13.14 13.14 0 0 1 2.5-3.76 5.46 5.46 0 0 1 4-1.94 10 10 0 0 1 2.61.41l3.31.89a4.71 4.71 0 0 0 3.37-.28l.88-.64.46.38-.4.69a10.65 10.65 0 0 1 -3.78 4 4.84 4.84 0 0 1 -2.5.68 9.24 9.24 0 0 1 -1.9-.22l-2.87-.59a11.79 11.79 0 0 0 -2.43-.25 3.23 3.23 0 0 0 -2.38.88l-.48.53-.56-.25zm2.32 18a2.85 2.85 0 0 1 -1.62-3 5 5 0 0 1 1-3.12 3.56 3.56 0 0 1 2.94-1.41h.65v-1.21a5.44 5.44 0 0 1 .11-1.29c.28-1.94 1.76-3.59 4.42-5l2.28-1.19.31.41-.51.88a4 4 0 0 0 -.4 1.42 12.31 12.31 0 0 0 -.16 2.18v10.82a24.83 24.83 0 0 1 -.27 4.48 6.41 6.41 0 0 1 -2.36 3.67 14.45 14.45 0 0 1 -2.18 1.44l-1.77.94-.53-.28a4.3 4.3 0 0 0 1.06-2.68v-8.51h-.75c-.86 0-1.38.54-1.57 1.67zm.69 14.28a16 16 0 0 1 2.39-2.24 23.38 23.38 0 0 1 2.48-1.75 16.06 16.06 0 0 1 3.27-1.44 16.31 16.31 0 0 1 4.55-.71 18.35 18.35 0 0 1 3.47.38l3.32.84 1.51.38 1-.84-.31-1.47-.81-3.87-.66-2.66-.56-1.8a6.39 6.39 0 0 0 -.56-1.21 2 2 0 0 0 -1.1-.91l-.56-.07h-.4v1.89l-.04 1.63c-.23 2.54-1.94 4.49-5.11 5.88l-1.47.6-.42-.39.4-.6a8.11 8.11 0 0 0 .64-3v-1.52-14.26l.08-1.57a5 5 0 0 1 2.4-3.92l2-1.19 7.89-4.43q4.59 2 4.59 7.74a10.54 10.54 0 0 1 -.13 1.82 12.24 12.24 0 0 1 -1 3.16 11.74 11.74 0 0 1 -1.87 2.82 15.88 15.88 0 0 1 -1.95 1.86l-1.72 1.19a13 13 0 0 1 1.49.76 7.46 7.46 0 0 1 1.8 1.62 9.17 9.17 0 0 1 1.38 2.15 17.24 17.24 0 0 1 .85 2.77l.55 2.51a16.37 16.37 0 0 0 .74 2.53 3.1 3.1 0 0 0 3.21 2.23l.86-.21.41.46-3.85 6.5-1.09-.22a6.88 6.88 0 0 1 -2.17-1 7.39 7.39 0 0 1 -2.43-3l-.66-1.4-3.27 3.21-2.22 2.38-2-1.06a17.22 17.22 0 0 0 -3.17-1.14 16.21 16.21 0 0 0 -4.05-.56 16.25 16.25 0 0 0 -2.86.31 11 11 0 0 0 -3.59 1.37l-1.54 1.08-.66-.38zm17-18.73 1.32-.51a7.25 7.25 0 0 0 2-1.21 8.06 8.06 0 0 0 2.9-6.4 12.51 12.51 0 0 0 -.23-2.25 8.76 8.76 0 0 0 -.69-2 8.26 8.26 0 0 0 -2.12-2.75l-.71-.51-.33.13-.68.38a3.14 3.14 0 0 0 -1.29 2.17l-.1 1v11.94z" class="cjd-fill" fill="#8089a2"></path>
      </svg>