<svg viewBox="0 0 47.21 50.51" xmlns="http://www.w3.org/2000/svg">
         <path d="m0 41.92 2.75-3.18a21.82 21.82 0 0 1 4.25-3.46l-.76-.78a4.7 4.7 0 0 1 -1.74-3.73 5.19 5.19 0 0 1 1.38-3.6l-.75-.76a7.46 7.46 0 0 1 -2.48-5.73 10.33 10.33 0 0 1 1-4.34l1.16-2.45.8.12a8.77 8.77 0 0 1 0-.9 11.83 11.83 0 0 1 4.34-9 16.27 16.27 0 0 1 11.13-4.11 19.53 19.53 0 0 1 9.63 2.64l2-1.65 9.17 9.33-3 2.62c-.34.31-.68.63-1 1a10.85 10.85 0 0 1 1.73 1.32l4.12 4.11 1 1a7.79 7.79 0 0 1 2.62 5.87 11.91 11.91 0 0 1 -1.69 6.06 39.2 39.2 0 0 1 -2.82 4.09l-3 3.75-3.44 4.25-1.74 2.4-2.66 3.59-3.61-1.81c-1.28-.6-2.53-1.12-3.7-1.54a16.2 16.2 0 0 0 -5.32-.9 13.78 13.78 0 0 0 -9 3.07l-1.58 1.31z" class="cjd-border" fill="#525a6f"></path>
         <path d="m43.79 21.15s-4.89-4.91-5.07-5.07a9.27 9.27 0 0 0 -2.84-1.83c.73-.81 1.46-1.53 2.16-2.17l2.14-1.83-7.57-7.7-1.45 1.21-.32.3a18.56 18.56 0 0 0 -9.76-2.91 15.17 15.17 0 0 0 -10.4 3.79 10.7 10.7 0 0 0 -4 8.13 7.45 7.45 0 0 0 .34 2.27l-1.52-.23-.79 1.68a9 9 0 0 0 -.91 3.86 6.31 6.31 0 0 0 2.12 4.92c.16.17 1.65 1.64 1.65 1.64a3.64 3.64 0 0 0 -.77.65 4.07 4.07 0 0 0 -1.15 2.9 3.59 3.59 0 0 0 1.35 2.91c.16.2 1.78 1.8 1.83 1.86a20.77 20.77 0 0 0 -5.25 4l-2 2.34 7.27 7.13.78-.64a14.8 14.8 0 0 1 9.71-3.36 17.35 17.35 0 0 1 5.66 1c1.22.43 2.51 1 3.83 1.59l2.73 1.37 1.94-2.81 1.77-2.44 3.45-4.27 3-3.75a39.6 39.6 0 0 0 2.74-4 10.81 10.81 0 0 0 1.53-5.48 6.67 6.67 0 0 0 -2.2-5.06zm-15.07 13.09c-1.47-.42-2.73-.74-3.75-1l-.83-.14h1.68l2.89.05h.77zm-4.83-22.46-.54.91h-2.91c-.6 0-1.15 0-1.67-.06a3 3 0 0 1 .35-.22 7.35 7.35 0 0 1 3.56-1 7.94 7.94 0 0 1 1.37.13z" class="cjd-stroke" fill="#fff"></path>
         <path d="m4.45 40.29q6-6.19 15.8-6.3a24.91 24.91 0 0 1 4.5.43c1.16.23 2.63.61 4.4 1.15l1.37-1.78a47.87 47.87 0 0 0 3-4.22 9.17 9.17 0 0 0 1.6-4.93 4.21 4.21 0 0 0 -2.42-4q-2.43-1.17-8.8-1.22h-1.5l-1.08 1.87h1.25c2.05 0 3.78.09 5.2.23q4.62.46 4.7 3.77a8.72 8.72 0 0 1 -2.32 5.57l-.4.45-.53-.2q1.17-3-2.17-3.8a23.8 23.8 0 0 0 -3.38-.31h-2.9-2.57l-.53.85-1.35 2c-1.83 2.55-3.88 3.84-6.15 3.85a3.49 3.49 0 0 1 -2.29-.72 2.48 2.48 0 0 1 -1.08-2.1 3 3 0 0 1 .85-2.13 3 3 0 0 1 2.13-.9 2.69 2.69 0 0 1 1.9.78 2.4 2.4 0 0 1 .72 1.85l-.05.72.78-.2a4.41 4.41 0 0 0 1.07-1l1.38-1.65 1-1.45-2.8-.13a14.83 14.83 0 0 1 -6.1-1.4 5 5 0 0 1 -2.68-4.73 8 8 0 0 1 .8-3.37l.43-.9.52.08q0 2.3 2.85 3.47a12.89 12.89 0 0 0 2.58.75 22.85 22.85 0 0 0 3.62.47l3.7.18 1.1-1.88-3.25-.12a27.16 27.16 0 0 1 -3.35-.38 10.61 10.61 0 0 1 -3.13-1 5 5 0 0 1 -3-4.9 9.55 9.55 0 0 1 3.58-7.24 14 14 0 0 1 9.65-3.5 17.58 17.58 0 0 1 9.9 3.2l1-.88.6-.5.93 1-1.31 1.03a39.56 39.56 0 0 0 -5 5.55l-1.53 2.15 1.65.2c3.24.35 5.36.6 6.38.77a8.08 8.08 0 0 1 4.2 2.1 5.61 5.61 0 0 1 1.9 4.2 9.55 9.55 0 0 1 -1.35 4.88 36.63 36.63 0 0 1 -2.65 3.85l-3 3.72-3.47 4.3-1.8 2.48-1.38 2-1.85-.93a40.76 40.76 0 0 0 -3.95-1.65 18.55 18.55 0 0 0 -6.07-1 15.85 15.85 0 0 0 -10.45 3.6l-.65-.6zm19.55-26.44.85-1.43.7-.92.63-.85-.8-1.28a9.66 9.66 0 0 0 -1.19-1.37 9.76 9.76 0 0 0 -3.11-2.08 8.89 8.89 0 0 0 -3.48-.72 8.59 8.59 0 0 0 -4.13 1.1 3.91 3.91 0 0 0 -2.27 3.4c0 1.82 1 3 3.07 3.5a30.12 30.12 0 0 0 6.15.6z" class="cjd-fill" fill="#8089a2"></path>
      </svg>