<svg viewBox="0 0 44.27 50.51" xmlns="http://www.w3.org/2000/svg">
         <path d="m23.56 50.51a17 17 0 0 1 -12.44-5l-5.21-5.22a16.84 16.84 0 0 1 -5.14-12.44 23.1 23.1 0 0 1 3.47-11.53c.26-.48.55-1 .86-1.43l-5.1-4.78 2.79-4.81h.07a12 12 0 0 1 10.32-5.2c1.55 0 3.41.09 5.52.3l5.16.6 4.19.49a31.36 31.36 0 0 0 3.79.26h.38a3.6 3.6 0 0 0 2-.66l1.65-1 5.9 5.91 2.5 2.7-2.27 2.85a14 14 0 0 1 -2.52 2.3h-.08l-.89.55v14.94l4.64 4.66-1.15 3.05a20.83 20.83 0 0 1 -8.34 10.5 18.29 18.29 0 0 1 -4.66 2.19 18.76 18.76 0 0 1 -5.44.77z" class="cjd-border" fill="#525a6f"></path>
         <path d="m38.7 12.91a12.63 12.63 0 0 0 2.3-2.11l1.68-2.06-1.81-2-5.18-5.23-.84.54a4.74 4.74 0 0 1 -2.62.84h-.39a30.59 30.59 0 0 1 -3.94-.28l-4.18-.48-5.13-.58c-2.06-.21-3.88-.32-5.4-.32a11 11 0 0 0 -9.77 5.36l-1.93 3.3 5.16 4.84a23.32 23.32 0 0 0 -1.39 2.17 22.1 22.1 0 0 0 -3.26 10.96 15.67 15.67 0 0 0 4.74 11.59l5.26 5.21a15.87 15.87 0 0 0 11.61 4.67 17.79 17.79 0 0 0 5.12-.72 17.57 17.57 0 0 0 4.37-2.06 19.72 19.72 0 0 0 7.87-9.93l.87-2.33-4.55-4.45v-16zm-23.63 15.09a16.13 16.13 0 0 1 1.84-7.51v8.78 2.42a1.78 1.78 0 0 1 -.22.7l-.69.86a15 15 0 0 1 -.93-5.25z" class="cjd-stroke" fill="#fff"></path>
         <path d="m4.41 7.21a9.87 9.87 0 0 1 8.77-4.83c1.49 0 3.25.13 5.29.33l5.12.59 4.16.49a30.86 30.86 0 0 0 4.39.28 5.9 5.9 0 0 0 3.35-1l.46.52-1 1.26a11.61 11.61 0 0 1 -2.08 1.9l-2.01 1.25v25.4l.59-.57a16.75 16.75 0 0 0 2.31-2.7l.77-1.13.65.51-.57 1.49a18.49 18.49 0 0 1 -7.4 9.36 15.83 15.83 0 0 1 -4.09 1.92 16.1 16.1 0 0 1 -4.78.67 14.64 14.64 0 0 1 -10.76-4.34 14.48 14.48 0 0 1 -4.45-10.74 20.85 20.85 0 0 1 3.16-10.38 23.37 23.37 0 0 1 4.14-5.32l2-1.8.9.51-1.33 1.7a17 17 0 0 0 -3.32 10.2 14.8 14.8 0 0 0 3.32 9.72 11.26 11.26 0 0 0 9.13 4.29 13.74 13.74 0 0 0 6.76-1.72l1.49-.9v-25.55l-1.38.28a14.82 14.82 0 0 1 -2.41.16c-1.2 0-2.4 0-3.6-.13-1.37-.09-3.2-.28-5.47-.57l-4.58-.54c-1.25-.12-2.39-.18-3.42-.2a5.77 5.77 0 0 0 -3.62 1l-.95 1-.72-.28zm11.59 7.79 8.22-4.65v13.87l-.05 2a9.94 9.94 0 0 1 -.3 2.13q-.82 3.48-5 5.37l-1.31.52-.56-.43.59-.75a2.88 2.88 0 0 0 .44-1.31l.05-2.47v-13.54l-2.08.87z" class="cjd-fill" fill="#8089a2"></path>
      </svg>