<svg viewBox="0 0 46.29 50.51" xmlns="http://www.w3.org/2000/svg">
         <path d="m21.77 48.71a12 12 0 0 0 -6.2-2.28 5.68 5.68 0 0 0 -2.91.74l-2.34 1.62-3.13-3-5-5 1.8-3v-.05a13 13 0 0 1 4.91-4.45h.06.12v-1.7c-1-.92-3.35-3.32-3.92-3.93a5.34 5.34 0 0 1 -1.83-4.25 6.66 6.66 0 0 1 1.82-4.83c.17-.19.36-.35.55-.55l-5.7-5.72.33-3v-.02a10.66 10.66 0 0 1 3-6 9 9 0 0 1 6.56-2.61 10.11 10.11 0 0 1 3.6.66 8.7 8.7 0 0 1 3.43 2.3 6 6 0 0 0 .75.72v-3.09h5.33l2.1 2.67 2.66-1.8 3.12-2.14.57.56.67.67.94.94 1.06 1a3.4 3.4 0 0 0 1.68.83h.12l1.7-.85 2.38 2.04 4.43 4.5 1.34 1.17-1.43 2a11.43 11.43 0 0 1 -2.62 2.66l-.1.06h-.11l-.15.08v20.72l2.87 2.85 2.08 2.18-6.73 8.94-3-1.12a6.93 6.93 0 0 1 -2.49-1.77l-2.82-2.81c-.35.25-.69.51-1 .77-1 .75-1.9 1.52-2.73 2.28l-3 2.83z" class="cjd-border" fill="#525a6f"></path>
         <path d="m40.24 36.86v-21.86l.75-.43h.06a10.48 10.48 0 0 0 2.35-2.39l.81-1.18-.59-.52-4.43-4.48-1.75-1.52-1 .53a1.48 1.48 0 0 1 -.59.12 4.28 4.28 0 0 1 -2.47-1.13l-1.12-1-.95-1-.56-.56-2.31 1.6-3.15 2.15h-.61l-2.2-2.81h-3.71v4.74c-.16-.12-2.51-2.52-2.69-2.68a7.34 7.34 0 0 0 -3-2 8.82 8.82 0 0 0 -3.2-.6 7.92 7.92 0 0 0 -5.72 2.26 9.52 9.52 0 0 0 -2.7 5.38l-.27 2.4 5 5h2.71l.71-1.35a2.64 2.64 0 0 1 .63-.74v2.9h-.18a5.33 5.33 0 0 0 -4 1.63 5.58 5.58 0 0 0 -1.51 4 4.23 4.23 0 0 0 1.45 3.51c.17.21 4.13 4.17 4.26 4.28v2.82l-.77.35a11.94 11.94 0 0 0 -4.49 4.08l-1.38 2.24 5 5 1.81 1.7 1.61-1.12a6.87 6.87 0 0 1 3.52-.91 13 13 0 0 1 6.82 2.47l2 1.3 2.35-2.21c.86-.79 1.8-1.57 2.8-2.34.58-.46 1.2-.92 1.84-1.37.05 0 3.52 3.51 3.53 3.53a5.91 5.91 0 0 0 2.1 1.52l2.13.8 5.65-7.48-1.37-1.49z" class="cjd-stroke" fill="#fff"></path>
         <path d="m2.59 9.65a8.39 8.39 0 0 1 2.41-4.75 6.8 6.8 0 0 1 4.88-1.9 7.72 7.72 0 0 1 2.8.52c2.69 1 4.19 3.37 4.52 7.1l.08 1.8v21.7l2.6 1v-31.65h1.45v5.37l1.32-.65c.62-.33 1.61-.94 3-1.85l3.43-2.34 1.53-1 .82.82 1.21 1.11q2.47 2 4.23 1.16l.39-.2.4.35-.2.27a9 9 0 0 1 -2.08 2.13l-1.26.74v23.87l.05.87c.18 1.15 1 1.78 2.5 1.88h.84.32l.47.5-4.55 6-1.31-.49a4.68 4.68 0 0 1 -1.71-1.22 9.79 9.79 0 0 1 -2.05-4l-.32-1.51-1.61 1.07c-1 .69-2 1.4-2.94 2.12s-2 1.59-2.87 2.4l-1.71 1.73-1.23-.82a14.1 14.1 0 0 0 -7.44-2.64 7.94 7.94 0 0 0 -4.13 1.09l-.89.61-.47-.44.83-1.4a10.73 10.73 0 0 1 4-3.69l1.41-.64v-10.4h-.81l-1.17.07a1.7 1.7 0 0 0 -1.6 1.74v.42l-.67-.27a3 3 0 0 1 -1.48-2.85 4.41 4.41 0 0 1 1.2-3.23 4.23 4.23 0 0 1 3.28-1.27h1.23v-5.37-1.58q-.35-4-3.9-4a5 5 0 0 0 -1.49.25 3.85 3.85 0 0 0 -2.3 1.82l-.4.74h-.74zm18.75 7.08 1.11.15a13.59 13.59 0 0 0 2.1.12 11 11 0 0 0 2.45-.2l1.23-.27v-7l-1.28-.61a7.9 7.9 0 0 1 -1.31-1l-4.28 2.62v6.16zm0 8.58 1.08-.17a21.37 21.37 0 0 1 2.33-.2 23.22 23.22 0 0 1 2.32.2l1.14.17v-7.22l-1.21.27a11.16 11.16 0 0 1 -2.39.2 13.66 13.66 0 0 1 -2.11-.13l-1.14-.14v7zm0 10.61 2.07 1.34 4.8-3.39v-7l-1-.17a22.93 22.93 0 0 0 -2.47-.2 18.62 18.62 0 0 0 -2.25.17l-1.11.2v9.05z" class="cjd-fill" fill="#8089a2"></path>
      </svg>