<svg viewBox="0 0 45.27 50.51" xmlns="http://www.w3.org/2000/svg">
         <path d="m21.46 48.13a9.25 9.25 0 0 0 -5.8-2.36 7.6 7.6 0 0 0 -1.75.21 5.77 5.77 0 0 0 -1.24.44l-2.21 1.2-2.68-2.35-5.78-5.77 2.68-3a12.63 12.63 0 0 1 1.72-1.63 14.75 14.75 0 0 1 2.21-1.55h.09.11l.19-.14v-14.7h-3.3l-5.7-5.68.24-2.54a11.47 11.47 0 0 1 .92-3.42 10.31 10.31 0 0 1 2.26-3.35 9.41 9.41 0 0 1 6.46-2.7h.12a10.07 10.07 0 0 1 6 2.09c.19.15.78.68 1.38 1.28v-2.76h5.45l2.04 2.6c.58-.44 1.19-.93 1.83-1.44l3.16-2.56.84.88.41.4c1.36 1.32 2.9 2.79 3.16 3a3.7 3.7 0 0 0 1.62.77h.16l1.8-.67 1 1.15 4.51 4.41 1.94 2.34-1.63 2.18a9.94 9.94 0 0 1 -2.3 2h-.06v22.54 1.32a1.91 1.91 0 0 0 .2.74l2.24 4.64-5.26-1a15.19 15.19 0 0 0 -1.78-.11 15.62 15.62 0 0 0 -9.74 3.73l-2.68 2.19z" class="cjd-border" fill="#525a6f"></path>
         <path d="m38 6.3-.48-.58-1.2.45h-.39a4.66 4.66 0 0 1 -2.28-1c-.24-.16-3.29-3.12-3.29-3.12l-.54-.57-2.35 1.9c-.85.68-1.65 1.3-2.41 1.86h-.55l-2.25-2.74h-3.8v4.41c-.23-.27-2.82-2.85-3.21-3.16a8.91 8.91 0 0 0 -5.25-1.84 8.26 8.26 0 0 0 -5.79 2.39 9.15 9.15 0 0 0 -2 3 10 10 0 0 0 -.83 3.08l-.19 2 5 5h2.86l.5-1.51a2.69 2.69 0 0 1 .52-.95v19l-.86.4h-.05a13.89 13.89 0 0 0 -2 1.44 11.19 11.19 0 0 0 -1.57 1.44l-2 2.25 5 5 2.06 1.81 1.54-.84a6.36 6.36 0 0 1 1.51-.54 9.16 9.16 0 0 1 2-.23 10.33 10.33 0 0 1 6.54 2.63l2 1.75 1.95-1.59a16.74 16.74 0 0 1 10.45-4 16.36 16.36 0 0 1 2 .12l3.09.57-1.26-2.62a3.14 3.14 0 0 1 -.31-1.21l-.16-1.3v-23.13l.63-.35a8.74 8.74 0 0 0 2-1.72l1.08-1.44-1.34-1.6z" class="cjd-stroke" fill="#fff"></path>
         <path d="m2.5 10.48a8.65 8.65 0 0 1 .74-2.73 8 8 0 0 1 1.76-2.63 6.81 6.81 0 0 1 4.94-2.05 7.35 7.35 0 0 1 4.6 1.58 6.36 6.36 0 0 1 2.46 4.6c.07.69.1 1.47.1 2.34v22.51l1.28.29 1.31.44v-31.17h1.45v5.57l2.27-1.41c1.36-.88 2.94-2.05 4.75-3.49l1.55-1.26 1.4 1.53a11.4 11.4 0 0 0 1.89 1.55 5.58 5.58 0 0 0 3 1.18h.61l.59-.22.25.3-.58.59a7.44 7.44 0 0 1 -1.77 1.55l-1.18.66v23.79 1.35a4.21 4.21 0 0 0 .44 1.65l.3.61-.94-.17q-7-.91-13.29 4.09l-1.21 1-1.28-1.13q-4.61-3.77-9.53-2.64a7.87 7.87 0 0 0 -1.77.64l-.87.47-.61-.54 1.23-1.4a9.8 9.8 0 0 1 1.43-1.31 12.51 12.51 0 0 1 1.89-1.32l1.46-.69v-21.47l-.05-1.92c-.12-2.12-1.41-3.22-3.89-3.22a3.48 3.48 0 0 0 -3.75 2.47l-.24.74h-.81zm25.5 5.84v-5.76l-1.54-1.14-1.46-1.23-3.91 2.71v5.42l.89.22a12.26 12.26 0 0 0 2.6.17 11.44 11.44 0 0 0 2.05-.09zm-6.91 10.32 1.13-.2a17.78 17.78 0 0 1 2.32-.22 11.18 11.18 0 0 1 2.34.29l1.15.35v-9l-1.3.2a18.38 18.38 0 0 1 -2.44.19 9.93 9.93 0 0 1 -2.36-.25l-.84-.17zm0 8.84 2.91 2.16 2.21-.78 1.79-.55v-7.9l-1.27-.41a13.47 13.47 0 0 0 -2.41-.27 12.1 12.1 0 0 0 -2.32.27l-.93.2v7.29z" class="cjd-fill" fill="#8089a2"></path>
      </svg>