<svg viewBox="0 0 53.38 50.51" xmlns="http://www.w3.org/2000/svg">
         <path d="m16 47a7.69 7.69 0 0 0 -1.11-.79 4.08 4.08 0 0 0 -2-.47 3.44 3.44 0 0 0 -2 .55l-2.27 1.9-8.18-8.19 1.69-2.56v-.05a15.85 15.85 0 0 1 4.62-4.13h.06.06v-1.81c-1-.91-3.27-3.24-3.85-3.86a5.08 5.08 0 0 1 -1.78-4.27 6.45 6.45 0 0 1 .31-2.19 5.93 5.93 0 0 1 3.1-3.85l-4.65-4.69.06-2.9v-.07c.39-4.3 2.49-7.19 6.07-8.36a8.7 8.7 0 0 1 2.79-.45 8.21 8.21 0 0 1 5.32 1.92 7.38 7.38 0 0 1 .82.76l.23.21v-2.89h5.28l1.43 1.86 1.2-.67 3-1.82 1.11 1.33a21.39 21.39 0 0 0 1.83 2v-2.7h5.28l1.39 1.78.87-.59 2.45-2 3.62 3.68a1.55 1.55 0 0 0 .7.18 1.42 1.42 0 0 0 .48-.08l1.9-.6 7.34 7.63-1.4 1.93a9.41 9.41 0 0 1 -1.36 1.4l-.49.36v23.43 1.44a1.39 1.39 0 0 0 .12.68l3.37 4.27-6.1-.24-2.31-.08a14.48 14.48 0 0 0 -7.49 2 7.22 7.22 0 0 0 -1.65 1.23l-2.55 3.09-4.9-5a5.69 5.69 0 0 0 -2.71-.8h-.05a4.81 4.81 0 0 0 -4 2.29l-2.24 3.67z" class="cjd-border" fill="#525a6f"></path>
         <path d="m49.35 13.58a9.15 9.15 0 0 0 1.5-1.48l.84-1.16-6.19-6.49-1.24.4a2.69 2.69 0 0 1 -.82.13 2.62 2.62 0 0 1 -1.38-.41l-3.06-3.07-1.65 1.35-1.64 1.22h-.13l-1.68-2.17h-3.64v3.83c-1.32-.56-3.8-3.54-3.8-3.54l-.46-.59-2.23 1.32c-.72.42-1.38.81-2 1.15h-.09l-1.68-2.17h-3.63v4.5c-.15-.17-1.93-1.95-2.13-2.13a6.54 6.54 0 0 0 -.71-.68 7.13 7.13 0 0 0 -4.61-1.66 7.79 7.79 0 0 0 -2.44.39c-3.17 1-5 3.53-5.31 7.42v2.37l4.93 4.93h1.9v.69h-.22a4.88 4.88 0 0 0 -5.13 3.7 5.76 5.76 0 0 0 -.27 1.85 4 4 0 0 0 1.42 3.49c.2.23 4.06 4.1 4.2 4.23v2.88l-.62.34a15 15 0 0 0 -4.3 3.83l-1.21 1.82 1.89 1.89 4.93 4.92 1.55-1.26a4.5 4.5 0 0 1 2.63-.77 5.11 5.11 0 0 1 2.52.61 8.07 8.07 0 0 1 1.33 1l2.5 2.5 1.52-2.49a5.91 5.91 0 0 1 4.9-2.79h.08a6.84 6.84 0 0 1 3.37 1l4.14 4.21 1.77-2.17a8.56 8.56 0 0 1 1.91-1.45 15.67 15.67 0 0 1 8.09-2.2l2.28.1 3.69.14-1.87-2.37a2.22 2.22 0 0 1 -.35-1.36v-25.38z" class="cjd-stroke" fill="#fff"></path>
         <path d="m2.29 9.85q.46-5.13 4.54-6.46a6.45 6.45 0 0 1 2.09-.34 6 6 0 0 1 3.91 1.41 5.9 5.9 0 0 1 2 3.66l.13.71 2.54-1.26v-4.52h1.4v3.71l1.82-.87c1-.5 2.21-1.17 3.62-2l1.38-.82.63.78a8.64 8.64 0 0 0 3.91 3.08l1.1.19v-4h1.43v3.64l1.38-.51a11.39 11.39 0 0 0 2-1.11l1.83-1.41.85-.68.27.31 1.2 1.24a4 4 0 0 0 4.27 1.31l.54-.17.24.29-.32.44a7.64 7.64 0 0 1 -1.31 1.29l-1 .78v24.46 1.45a3.28 3.28 0 0 0 .61 2l.36.46h-1.26l-2.31-.09a16.7 16.7 0 0 0 -8.69 2.35 9.56 9.56 0 0 0 -2.19 1.68l-.94 1.15-.92-1.17a12.19 12.19 0 0 0 -1.8-1.65 8.35 8.35 0 0 0 -4.78-1.77 7 7 0 0 0 -5.93 3.28l-.8 1.31-.9-.93a10.15 10.15 0 0 0 -2.19-1.72 6.19 6.19 0 0 0 -3.06-.75 5.62 5.62 0 0 0 -3.3 1l-.8.65-.53-.53.65-1a13.74 13.74 0 0 1 4-3.54l1.17-.66v-9.86h-1.45c-1.33 0-2 .46-1.92 1.43l.14.42-.9-.34c-1-.42-1.5-1.38-1.48-2.87a4.37 4.37 0 0 1 .22-1.53 3.8 3.8 0 0 1 4-2.94h1.37v-6.77-1.39a2.61 2.61 0 0 0 -2.91-2.67 2.91 2.91 0 0 0 -2.67 1.6l-.39.88-.2.58h-.68zm12.63.46v24.29l2.55 1.4v-26.9zm4 6.1.92.21a4.08 4.08 0 0 0 1.17.13 9 9 0 0 0 1.26-.15l.75-.19v-6.88l-.73-.39a6.59 6.59 0 0 1 -1.4-.87l-.59-.53-1.38.63v8zm0 1.53v8.16l.8-.25a7.49 7.49 0 0 1 1.28-.17 7.47 7.47 0 0 1 1.27.17l.77.25v-8.16l-.58.17a5.66 5.66 0 0 1 -1.34.17 5.07 5.07 0 0 1 -1.31-.15zm0 9.69v8.69l1.08-.56c.71-.32 1.37-.6 2-.82l1-.32v-7l-.73-.25a8.38 8.38 0 0 0 -1.45-.17 5.19 5.19 0 0 0 -1.56.25zm9.89-18.15v25.12l1.29.63 1.26.82v-27.2zm4-1.21v8.14l.63.12a4.77 4.77 0 0 0 1.22.09 5.11 5.11 0 0 0 1.6-.24l.65-.27v-6.58l-1.53-.87-1.45-.9zm0 17.83.8-.25a7 7 0 0 1 1.26-.14 6.66 6.66 0 0 1 1.36.17l.68.22v-8.45l-.65.26a5 5 0 0 1 -1.36.25l-1.24-.1-.85-.12zm0 1.53v9.27l2-.68 2.13-.46v-8.13l-.43-.15a7 7 0 0 0 -1.73-.24 5.59 5.59 0 0 0 -1.33.17z" class="cjd-fill" fill="#8089a2"></path>
      </svg>