<svg viewBox="0 0 44.24 50.51" xmlns="http://www.w3.org/2000/svg">
         <path d="m14.8 48.53a7.26 7.26 0 0 0 -3.1-.94 2.14 2.14 0 0 0 -1.47.51l-1.32 1.26-3.32-.74-5.59-5.62.91-2.72a12.29 12.29 0 0 1 3.72-5.48 9.44 9.44 0 0 1 5.93-2h.1l.76.06.77-1.71-.75.09-5.81-5.82 2.37-5.08.4-1h-1.18l-5.54-5.48.06-2.63a10.58 10.58 0 0 1 .6-3 10.08 10.08 0 0 1 3.17-4.93 8.38 8.38 0 0 1 5.41-1.79h.08a9.1 9.1 0 0 1 6.67 3.14l4.33 4.35 1.67-3.89 1.95-5.11 3.49 3a4 4 0 0 0 2.19.78h.3a2.55 2.55 0 0 0 1.59-.44l1.73-1.8 2.88 1.78 5.46 5.45-.92 2.77v.05a10.63 10.63 0 0 1 -.92 1.85 9.55 9.55 0 0 1 -5 4.27l4.18 4.29-2.94 5.41-2 3.82-2.5-.46 1.29 2.72v.09l1.87-.77 2.28 1.89 5.57 5.57-2.06 3.03c-.65 1-1.27 1.93-1.85 2.89l-1.94 3.32-2.51-.18h-.08a9.59 9.59 0 0 1 -5.4-2.84l-4-4-.87-.87a14.37 14.37 0 0 1 -2.4-3.05l-.26-.43c-.22.54-.43 1-.6 1.48l-2.2 5.54-2 5.35zm-1.53-31.8v-.1-.05a2.66 2.66 0 0 0 -.5.09z" class="cjd-border" fill="#525a6f"></path>
         <path d="m37.92 35.48-1.72-1.43-1.37.56a3.06 3.06 0 0 1 -.91.2l-.44-.89-1.55-3.27-.54-1.31 1.11.13 2.58.48 1.6-3.1 2.55-4.69-4.88-4.89-3.83.51.5-1h.06a8.81 8.81 0 0 0 2.21.28h.23a7.91 7.91 0 0 0 6.93-4.18 11.85 11.85 0 0 0 .84-1.67l.71-2.14-4.89-4.88-2-1.25-1.17 1.21a3.52 3.52 0 0 1 -2.34.72h-.36a5 5 0 0 1 -2.81-1l-2.32-2-1.39 3.69-1.72 4.07-.59 1.42c-.21-.25-.42-.5-.64-.74l-4.89-4.9a8.06 8.06 0 0 0 -5.88-2.82h-.05a7.34 7.34 0 0 0 -4.74 1.56 9.08 9.08 0 0 0 -2.82 4.43 10 10 0 0 0 -.54 2.71l-.05 2.14 4.88 4.88h2.32l-1 2.5-2 4.38 4.88 4.88 2.12-.28-.8 1.75-1.1 2.46-1.48-.12a8.26 8.26 0 0 0 -5.25 1.77 11.2 11.2 0 0 0 -3.36 5l-.68 2 4.88 4.88 2.42.54.92-.88a3.25 3.25 0 0 1 2.2-.79 8.23 8.23 0 0 1 3.65 1.08l2.07 1.29 1.53-4.01 2.19-5.57c.39-1 .9-2.21 1.52-3.66.42.87.86 1.69 1.32 2.45a12.86 12.86 0 0 0 2.22 2.82l4.88 4.88a8.58 8.58 0 0 0 4.79 2.55l1.78.12 1.59-2.72c.6-1 1.23-2 1.89-3l1.61-2.32zm-26.92-18.76c.27-.53.83-1.22 2.48-1.27h.4l.34.68.88 1.87-2.71-.29-1.69-.28z" class="cjd-stroke" fill="#fff"></path>
         <path d="m3 41c1.5-4 4-6 7.59-6l2.21.19 1.44-3.19 2.48-5.41 1.49-3.45-2.72.05c-1.35.06-2.77.18-4.26.34l-2.43.31 1.2-2.59 1.1-2.6 1.16.2 2.94.31 1.75.19-1.7-3.68q-2.25-4.54-4.62-5.73a4.54 4.54 0 0 0 -2.05-.48 3.64 3.64 0 0 0 -3.47 1.92l-.38.94h-.8v-1a8.51 8.51 0 0 1 .48-2.41c1.15-3.46 3.33-5.2 6.59-5.18a6.92 6.92 0 0 1 5 2.46 19.76 19.76 0 0 1 2.29 3.05c.58 1 1.16 2 1.73 3.2l1.58 3.16.9-1.95 1.5-3.59 1.75-4.06.84-2.24 1.15 1a6.24 6.24 0 0 0 3.45 1.24 4.8 4.8 0 0 0 3.51-1l.58-.6.51.31-.41 1.19a9.44 9.44 0 0 1 -.75 1.49 6.81 6.81 0 0 1 -6 3.66 7.67 7.67 0 0 1 -2.12-.24l-.94-.24-1.42 3-1.64 3.66.87 2.16 2.17-.07c1.65-.05 3-.13 4.09-.26l2.75-.36-1.52 2.79-1.27 2.34-1.81-.33-3-.37 1.21 3.09 1.56 3.29q2.46 5.08 4.74 6a3.29 3.29 0 0 0 1.55.36 4.06 4.06 0 0 0 1.34-.26l.77-.32.44.37-1 1.49c-.67 1-1.31 2-1.92 3l-1.26 2.14-1.06-.07a7.45 7.45 0 0 1 -4.16-2.22 12 12 0 0 1 -2-2.59 26.9 26.9 0 0 1 -1.49-2.84l-1.18-2.57-1.49-3.63-1.52-4q-2.79 6.33-4.07 9.5l-2.19 5.59-1.06 2.86-1-.6q-4.59-2.38-7.15-.15l-.5.49-.65-.15z" class="cjd-fill" fill="#8089a2"></path>
      </svg>