<svg viewBox="0 0 34.22 50.51" xmlns="http://www.w3.org/2000/svg">
         <path d="m24.87 50.51a6.16 6.16 0 0 1 -1.46-.16l-1.56-.35-.62-.74a8.79 8.79 0 0 1 -4.23 1.2h-.25a6.86 6.86 0 0 1 -3.16-.84 5.77 5.77 0 0 1 -1.66-1.31l-3.69-3.67a5.59 5.59 0 0 1 -1.45-1.94 5.21 5.21 0 0 1 -.57-2.5 5.69 5.69 0 0 1 1.87-4.2c-.6-.61-1.36-1.41-1.57-1.69a9.87 9.87 0 0 1 -1.58-5.11v-1.55-1.79c-.52-.52-1.67-1.65-2.48-2.47a5.22 5.22 0 0 1 -1.36-4 6.9 6.9 0 0 1 .13-1.63 4.55 4.55 0 0 1 2.44-3.56l-3.67-3.58v-2.12a7.27 7.27 0 0 1 2.8-6.27 6.69 6.69 0 0 1 4.29-1.48 6.06 6.06 0 0 1 4.6 2.08 4.39 4.39 0 0 0 .39.36v-2.45h4.57l1.57 2 1.98-1.56 1.45-1.18 4.08 4.17a.71.71 0 0 0 .29.06.32.32 0 0 0 .13 0l1.9-.88 6.17 6.87-2.21 3v18.21 1.93.28a8.13 8.13 0 0 1 -3.5 6.47c.62.61.88.88 1 1a5.22 5.22 0 0 1 1.79 3.89v.1a5.2 5.2 0 0 1 -2.19 4.11 6.36 6.36 0 0 1 -4 1.28z" class="cjd-border" fill="#525a6f"></path>
         <path d="m27.81 4.51-1.27.58a1.19 1.19 0 0 1 -.54.11 2.1 2.1 0 0 1 -.83-.2l-3.59-3.7-.76.63c-1.09.88-2 1.6-2.69 2.14l-1.89-2.39h-3.16v3.81l-2-2a5.18 5.18 0 0 0 -3.96-1.81 5.7 5.7 0 0 0 -3.71 1.32 6.34 6.34 0 0 0 -2.41 5.48v1.72l4.27 4.27h.57v.2a3.53 3.53 0 0 0 -3.69 3.26 6.28 6.28 0 0 0 -.15 1.45 4.38 4.38 0 0 0 1.08 3.32l2.75 2.76v2.17l.06 1.51a8.85 8.85 0 0 0 1.42 4.64c.26.37 2.08 2.21 2.22 2.33a5 5 0 0 0 -2.34 4.11 4.24 4.24 0 0 0 .47 2.06 4.55 4.55 0 0 0 1.24 1.65c.14.16 3.57 3.59 3.72 3.73a4.82 4.82 0 0 0 1.38 1.11 5.87 5.87 0 0 0 2.71.73h.29a8.39 8.39 0 0 0 4.44-1.5l.94 1.11 1.24.27a5.51 5.51 0 0 0 1.25.13h.2a5.56 5.56 0 0 0 3.46-1.09 4.21 4.21 0 0 0 1.8-3.37 4.24 4.24 0 0 0 -1.53-3.2c-.14-.16-1.91-1.91-1.92-1.92a5.8 5.8 0 0 0 1-.55 7.21 7.21 0 0 0 3.12-5.78l.07-2.18v-18.53l1.93-2.63z" class="cjd-stroke" fill="#fff"></path>
         <path d="m1.91 8.48a5.56 5.56 0 0 1 2.09-4.73 5 5 0 0 1 3.11-1.08q4.25.08 4.64 6l.07 1 2.18-1.47v-5.53h1.25v4.63l2.75-1.91q1.16-.87 3.43-2.71l.54.69a11.1 11.1 0 0 0 1.17 1.37 5.41 5.41 0 0 0 1.27.92 2.66 2.66 0 0 0 2.52.34l.51-.23.17.27-.17.29-.55.78-.63.76-.38.4v18.86l-.08 2.14a6.24 6.24 0 0 1 -2.69 5q-1.53 1.05-5.66 1.49a30.71 30.71 0 0 0 -3.53.57 6.56 6.56 0 0 0 -2.21.88c-.91.61-1.36 1.22-1.34 1.85a.9.9 0 0 0 .4.79 1.32 1.32 0 0 0 .88.31 4.07 4.07 0 0 0 1.74-.44l2-1a24.08 24.08 0 0 1 2.61-1.2 6.7 6.7 0 0 1 2.44-.47 5.46 5.46 0 0 1 3.11 1 3.35 3.35 0 0 1 1.56 2.78 3.31 3.31 0 0 1 -1.43 2.62 4.57 4.57 0 0 1 -2.89.89 4.74 4.74 0 0 1 -1.22-.11l-.48-.1v-1.36l.93.13.88.08a2.36 2.36 0 0 0 1.3-.29 1.32 1.32 0 0 0 .7-1.14c0-.74-.42-1.1-1.31-1.09a6.62 6.62 0 0 0 -3.45 1.54l-1.47 1a7.39 7.39 0 0 1 -4.06 1.33 4.86 4.86 0 0 1 -2.39-.61 3.7 3.7 0 0 1 -1.68-1.79 3.22 3.22 0 0 1 -.38-1.62c0-1.72 1.08-3.08 3.17-4.06l1.45-.65-1.57-.32c-2.69-.61-4.15-2.66-4.36-6.14l-.06-1.47v-6.98h-.88-.86a1 1 0 0 0 -.93.94v.57l-.38-.2a3.59 3.59 0 0 1 -.74-2.63 5.28 5.28 0 0 1 .1-1.26 2.57 2.57 0 0 1 2.8-2.46h.9v-5.28-1c-.16-1.62-.8-2.45-1.9-2.45a2.17 2.17 0 0 0 -2.1 1.71l-.17.61h-.69zm9.91 2.84v18.68a7.42 7.42 0 0 0 .08 1.45 2.79 2.79 0 0 0 1.51 2.41l.61.28v-24.47zm3.44-2.49v5.87l.61.17a8.25 8.25 0 0 0 2.21.23 9.23 9.23 0 0 0 2.36-.27l.42-.13v-5.63l-.86-.24a4.68 4.68 0 0 1 -1.71-1.15l-.61-.61zm0 7.2v7.35l1.12-.16 1.49-.09a16.91 16.91 0 0 1 1.94.11l1.05.14v-7.38l-1 .25a8 8 0 0 1 -1.87.14 7.16 7.16 0 0 1 -1.81-.14zm0 8.68v9.67l1.48.09a4.05 4.05 0 0 0 3.26-1.31c.56-.6.84-1.75.86-3.45v-5l-.8-.11c-.8-.08-1.52-.13-2.15-.14a14.29 14.29 0 0 0 -1.83.12z" class="cjd-fill" fill="#8089a2"></path>
      </svg>