<svg viewBox="0 0 41.16 50.51" xmlns="http://www.w3.org/2000/svg">
         <path d="m29.19 48.76a29.07 29.07 0 0 0 -4.12-1.09 22.31 22.31 0 0 0 -4.07-.42 21.49 21.49 0 0 0 -3.4.29c-.93.16-2 .4-3.32.71s-2.15.57-2.91.83l-3.76 1.4-.86-1.28-4.64-4.41-2.11-3.32 2.4-2.23a21.33 21.33 0 0 0 1.86-2.24 41.07 41.07 0 0 0 3.37-5.52l.66-1.34-5.22-4.35 2.62-5.62 1.58-3.87-.71-.6-5.89-5.7 3.52-4c.95-1.08 1.73-2 2.31-2.85l2.21-3.15 3.22 1.58a19.34 19.34 0 0 0 5.94 1.42h.13a15.4 15.4 0 0 0 2 .13h.29a22.69 22.69 0 0 0 7.22-1.37l4.16-1.7.79 1.33 4.65 4.4 2.12 3.55-2.74 2.33a22.83 22.83 0 0 0 -3.27 5.06l4 3.87.15.15 2.78-.43-2.45 4.15c-.73 1.24-1.26 2.19-1.59 2.83l-1.76 4-4.05-.69c-1.16-.19-2.11-.31-2.81-.37l-.81 1.63-.68 1.13c.41 0 .81.1 1.21.16l2.76.52 1.39-1.68 3.85 2.67 4.38 4.58 1.57 1.09-1.59 1.92c-1.32 1.59-2.31 2.81-2.93 3.63l-3.23 4.64z" class="cjd-border" fill="#525a6f"></path>
         <path d="m34.46 35.52-2.87-2-1.08 1.36-.61-.11-2.73-.52a23.63 23.63 0 0 0 -3-.31q.8-1.29 1.5-2.64l1.1-2.3h.8c.73.06 1.71.19 2.92.38l3.17.55 1.42-3.19c.34-.66.89-1.64 1.64-2.92l1.22-2.07-.94.25-.56-.56-4.62-4.44a25.57 25.57 0 0 1 3.89-6.13l2-1.73-1.49-2.63-4.66-4.4-.38-.63-3.33 1.35a23.84 23.84 0 0 1 -7.62 1.44h-.3a18 18 0 0 1 -2.13-.14 20.29 20.29 0 0 1 -6.33-1.51l-2.39-1.17-1.65 2.33c-.6.84-1.43 1.82-2.43 2.93l-2.75 3.18 5.08 5 2.76 2.32 1.2-1.41.17.07a17.32 17.32 0 0 0 4.58.81l-.15.29-.53 1.03h-2.08a9.44 9.44 0 0 1 -2.54-.36l-2.47-.79-1.53 3.78-2.26 4.85 5.24 4.34-1.07 2.18a41.56 41.56 0 0 1 -3.47 5.69 22.94 22.94 0 0 1 -2 2.39l-1.72 1.6 1.54 2.38 4.64 4.41.39.62 2.91-1.09c.79-.27 1.81-.56 3-.86s2.45-.57 3.41-.73a22.55 22.55 0 0 1 3.58-.3 22.79 22.79 0 0 1 4.33.44 28.93 28.93 0 0 1 4.32 1.14l3.42 1.41 2.72-3.91c.63-.83 1.63-2.07 3-3.69l.79-1-.65-.45z" class="cjd-stroke" fill="#fff"></path>
         <path d="m4 40.88a23.6 23.6 0 0 0 2.1-2.53 43.93 43.93 0 0 0 3.57-5.85l2.08-4.22 1.49-3.15 1-2-3 .27-3.08.35-1.74.25 1.36-2.92 1.14-2.81 1.49.48a11.4 11.4 0 0 0 2.85.39h2.81l.84-1.71a25.94 25.94 0 0 1 1.66-2.93 29.92 29.92 0 0 1 4.59-5.5l2.11-1.84-2.27 1.08a23.61 23.61 0 0 1 -6.92 2.08 22.9 22.9 0 0 1 -3.6.2 17.64 17.64 0 0 1 -5.73-.79l-.85-.33-1 1.17-1-.82 2-2.28a38.09 38.09 0 0 0 2.45-3l1.09-1.57 1.56.75a21.33 21.33 0 0 0 6.69 1.61 16.63 16.63 0 0 0 2.58.15 24.9 24.9 0 0 0 8-1.51l2.45-1 .55.92-1.36 1.18q-2.19 2.16-5.26 8.76l-1.49 3.5-.79 1.93h1.63c1.15-.05 2.37-.16 3.68-.34l3-.48c-.78 1.33-1.34 2.33-1.69 3l-.99 2.32-2.31-.4c-1.26-.19-2.27-.33-3-.39l-1.56-.08-1.46 2.93a38.2 38.2 0 0 1 -2.88 4.69 32.53 32.53 0 0 1 -2.55 3.2 38.54 38.54 0 0 1 -2.86 2.73l-2.61 2.23 2.88-1.17a34 34 0 0 1 11.35-2.38 24.55 24.55 0 0 1 3.91.32l2.73.53 1.29.24.85-1.06 1 .67q-2.05 2.47-3 3.74l-2.21 3.18-2.57-1.07a28.63 28.63 0 0 0 -4.52-1.2 24.16 24.16 0 0 0 -4.53-.46 23.69 23.69 0 0 0 -3.77.32c-1 .17-2.16.41-3.5.74s-2.3.62-3.13.9l-2.06.77-.52-.82z" class="cjd-fill" fill="#8089a2"></path>
      </svg>