<svg viewBox="0 0 51.8 52" xmlns="http://www.w3.org/2000/svg">
         <path d="m26.3 52v-11.7h-.9v6.53l-5.16 5.17h-20.24v-14.2h3.2l7.63-19.1h-.73v-13.61l5.1-5.09h26.8v14.2h-1.12l7.63 19.1h3.29v13.53l-5.16 5.17z" class="cjd-border" fill="#525a6f"></path>
         <path d="m50.7 34.4h-2.96l-8.54-21.3h1.7v-12h-25.23l-4.47 4.46v12.04h1.31l-8.54 21.3h-2.87v12h18.67l4.53-4.54v-7.16h3.1v11.7h18.77l4.53-4.54z" class="cjd-stroke" fill="#8089a2"></path>
         <path d="m39.7 2.18v9.7h-2.17l9.47 23.6h2.58v9.7h-16.58v-9.7h1.39l-.62-1.91h-11.37l-.67 1.91h1.39v9.7h-16.47v-9.7h2.59l9.44-23.6h-1.86v-9.7zm-14.36 23.13h5.48l-2.74-6.82z" class="cjd-fill" fill="#f9fbfe"></path>
      </svg>