<svg viewBox="0 0 42.4 52" xmlns="http://www.w3.org/2000/svg">
         <path d="m0 52v-14.2h2.5v-19.1h-2.5v-13.61l5.1-5.09h29.14l8.16 8.14v12.85l-1.9 1.89 1.9 1.9v14.47l-12.66 12.75z" class="cjd-border" fill="#525a6f"></path>
         <path d="m41.3 8.61-7.53-7.51h-28.2l-4.47 4.46v12h2.5v21.34h-2.5v12h28.17l12-12.11v-13.54l-2.37-2.37 2.37-2.36z" class="cjd-stroke" fill="#8089a2"></path>
         <path d="m40.16 25.72v12.6l-6.86 6.86h-26.64v-9.7h2.58v-23.6h-2.58v-9.71h26.64l6.86 6.91v11l-2.84 2.83zm-11.82-12.46-1.34-1.38h-5.94v6.2h5.94l1.39-1.39zm0 15.87-1.34-1.35h-5.94v7.7h5.94l1.39-1.34z" class="cjd-fill" fill="#f9fbfe"></path>
      </svg>