<svg viewBox="0 0 41.7 52" xmlns="http://www.w3.org/2000/svg">
         <path d="m8.16 52-8.16-8.23v-31.12l12.66-12.65h20.83l8.21 8.13v12.2l-5.16 5.17h-15.64v-6.79l-.08-.01h-.02v14.47l.06.13h4.06l.48-.49v-6.01h16.3v12.46l-12.71 12.74z" class="cjd-border" fill="#525a6f"></path>
         <path d="m36.07 24.4 4.53-4.54v-11.26l-7.58-7.5h-19.89l-12.03 12.02v30.18l7.53 7.6h19.89l12.08-12.11v-10.89h-14.1v5.38l-1.1 1.12h-4.99l-.71-.74v-16.06h1.57l.73.63v6.17z" class="cjd-stroke" fill="#8089a2"></path>
         <path d="m39.42 18.7h-11.83v-5.44l-1.34-1.38h-6.25l-1.39 1.39v20.87l1.39 1.34h6.3l1.34-1.35v-5.13h11.78v9.35l-6.87 6.86h-18.95l-6.87-6.89v-29.23l6.87-6.91h18.95l6.87 6.89z" class="cjd-fill" fill="#f9fbfe"></path>
      </svg>