<svg viewBox="0 0 40.6 52" xmlns="http://www.w3.org/2000/svg">
         <path d="m0 52v-14.2h2.6v-19.1h-2.6v-13.61l5.1-5.09h35.5v15.13l-5.16 5.17h-.64v11.3h5.8v15.23l-5.16 5.17z" class="cjd-border" fill="#525a6f"></path>
         <path d="m33.7 31.4v-12.2h1.27l4.53-4.54v-13.56h-33.93l-4.47 4.46v12.04h2.6v21.3h-2.6v12h33.87l4.53-4.54v-13.66h-10.3v-1.3z" class="cjd-stroke" fill="#8089a2"></path>
         <path d="m21.09 35.48h7.53v-1.71h9.71v11.41h-31.65v-9.7h2.58v-23.6h-2.58v-9.71h31.65v11.36h-9.71v-1.65h-7.53v6.92h1.75v-1.65h9.66v13.06h-9.66v-1.7h-1.75z" class="cjd-fill" fill="#f9fbfe"></path>
      </svg>