<svg viewBox="0 0 40.7 52" xmlns="http://www.w3.org/2000/svg">
         <path d="m0 52v-14.2h2.6v-19.1h-2.6v-13.61l5.1-5.09h35.6v15.13l-5.16 5.17h-.74v11.53l-5.16 5.17h-1.24v9.83l-5.16 5.17z" class="cjd-border" fill="#525a6f"></path>
         <path d="m39.6 1.1h-34.03l-4.47 4.46v12.04h2.6v21.3h-2.6v12h21.67l4.53-4.54v-10.46h1.87l4.53-4.54v-12.16h1.37l4.53-4.54z" class="cjd-stroke" fill="#8089a2"></path>
         <path d="m22.91 28.51h-1.75v7h4.95v9.7h-19.36v-9.7h2.58v-23.63h-2.58v-9.71h31.65v11.36h-9.7v-1.65h-7.54v6.92h1.75v-1.65h9.66v13.06h-9.66z" class="cjd-fill" fill="#f9fbfe"></path>
      </svg>