<svg viewBox="0 0 41.6 52" xmlns="http://www.w3.org/2000/svg">
         <path d="m8.08 52-8.08-8.18v-31.11l12.58-12.71h20.83l8.19 8.19v31.12l-12.69 12.69zm12.72-28.4v-4.87h-.1v4.9z" class="cjd-border" fill="#525a6f"></path>
         <path d="m40.5 8.66-7.56-7.56h-19.89l-11.95 12.08v30.17l7.45 7.55h19.89l12.06-12.06z" class="cjd-stroke" fill="#8089a2"></path>
         <path d="m39.34 21.33v17l-6.87 6.87h-18.95l-6.87-6.82v-29.24l6.87-6.91h19l6.87 6.9v9.57h-11.88v-5.38l-1.34-1.38h-6.3l-1.39 1.39v20.86l1.39 1.34h6.3l1.34-1.34v-4h-3.25v-8.85h15.08z" class="cjd-fill" fill="#f9fbfe"></path>
      </svg>