<svg viewBox="0 0 46.2 52" xmlns="http://www.w3.org/2000/svg">
         <path d="m0 52v-14.2h2.6v-19.1h-2.6v-13.61l5.1-5.09h41.1v14.2h-2.6v19.1h2.6v13.53l-5.16 5.17z" class="cjd-border" fill="#525a6f"></path>
         <path d="m45.1 13.1v-12h-19.2v4.5h-1v-4.5h-19.33l-4.47 4.46v12h2.6v21.34h-2.6v12h19.3v-4.5h1v4.5h19.17l4.53-4.54v-12h-2.6v-21.26zm-21.2 21.3h-1.6v-.3h1.6z" class="cjd-stroke" fill="#8089a2"></path>
         <path d="m29.54 35.53v-7.12h-8.42v7.12h2.58v9.71h-17v-9.71h2.6v-23.59h-2.58v-9.71h17v9.71h-2.6v5.88h8.42v-5.88h-2.54v-9.71h17v9.71h-2.64v23.59h2.58v9.71h-16.94v-9.71z" class="cjd-fill" fill="#f9fbfe"></path>
      </svg>