<svg viewBox="0 0 48.8 52" xmlns="http://www.w3.org/2000/svg">
         <path d="m0 52v-14.2h2.5v-19.1h-2.5v-13.61l5.1-5.09h43.7v13.53l-5.16 5.17h-4.25l-4.89 4.92 9.7 9.68h4.6v13.53l-5.16 5.17z" class="cjd-border" fill="#525a6f"></path>
         <path d="m43.17 17.6 4.53-4.54v-11.96h-22.7v4.5h-.2v-4.5h-19.23l-4.47 4.46v12.04h2.5v21.3h-2.5v12h19.2v-4.5h.2v4.5h22.67l4.53-4.54v-11.96h-3.97l-10.84-10.78 6.03-6.02z" class="cjd-stroke" fill="#8089a2"></path>
         <path d="m21.06 35.53h2.58v9.71h-17v-9.71h2.6v-23.59h-2.59v-9.71h17v9.71h-2.59v6.06l6.14-6.09h-1.13v-9.68h20.44v9.71h-3.51l-11.72 11.67 12 11.92h3.25v9.71h-20.46v-9.71h1.19l-4.19-4.13-2 2.07v2.06z" class="cjd-fill" fill="#f9fbfe"></path>
      </svg>