<svg viewBox="0 0 56.5 52" xmlns="http://www.w3.org/2000/svg">
         <path d="m30.6 52v-7.85l-.99-1.35-3.63 5.96-.78-1.26h-3.8v4.5h-21.4v-14.2h2.5v-19.1h-2.5v-13.61l5.1-5.09h16.68l7.77 12.94 4.83-8.03 4.93-4.91h17.19v14.2h-2.6v19.1h2.6v14.16l-4.53 4.54z" class="cjd-border" fill="#525a6f"></path>
         <path d="m55.4 13.1v-12h-15.62l-4.5 4.48-5.73 9.56-8.42-14h-15.56l-4.47 4.42v12h2.5v21.34h-2.5v12h19.2v-4.5h4.5v-1.8l1.18 2 3.61-6 .9 1.45 1.21-2v10.85h19.57l4.13-4.14v-12.36h-2.6v-21.3z" class="cjd-stroke" fill="#8089a2"></path>
         <path d="m30.46 39.88-9.4-15.54v11.15h2.58v9.71h-17v-9.71h2.59v-23.6h-2.58v-9.7h13.84l10 16.62 10-16.62h13.77v9.7h-2.58v23.6h2.58v9.71h-17v-9.71h2.58v-11.15z" class="cjd-fill" fill="#f9fbfe"></path>
      </svg>