<svg viewBox="0 0 49.2 52" xmlns="http://www.w3.org/2000/svg">
         <path d="m26.87 52-2.31-3.82-3.82 3.82h-20.74v-14.2h2.6v-19.1h-2.6v-13.61l5.1-5.09h16.85l2.51 4.17 3.81-4.17h20.93v14.2h-2.6v19.1h2.6v13.53l-5.16 5.17z" class="cjd-border" fill="#525a6f"></path>
         <path d="m48.1 13.1v-12h-19.33l-4.5 4.92-2.96-4.92h-15.74l-4.47 4.46v12.04h2.6v21.3h-2.6v12h19.17l4.53-4.54v-.04l2.71 4.58h16.06l4.53-4.54v-11.96h-2.6v-21.3z" class="cjd-stroke" fill="#8089a2"></path>
         <path d="m32.65 45.2-11.57-19.26v9.55h2.58v9.71h-17v-9.71h2.6v-23.59h-2.58v-9.71h14l11.81 19.72v-10h-2.58v-9.72h17v9.71h-2.59v23.59h2.58v9.71z" class="cjd-fill" fill="#f9fbfe"></path>
      </svg>