<svg viewBox="0 0 41.7 52" xmlns="http://www.w3.org/2000/svg">
         <path d="m8.15 52-8.15-8.22v-31.12l12.64-12.66h20.84l8.22 8.16v31.12l-12.7 12.72zm12.75-18.79v-14.48h-.1v14.45z" class="cjd-border" fill="#525a6f"></path>
         <path d="m40.6 8.63-7.6-7.53h-19.89l-12 12v30.21l7.51 7.59h19.88l12.1-12.09zm-19.35 9 .75.64v16.13h-1.61l-.69-.73v-16.07z" class="cjd-stroke" fill="#8089a2"></path>
         <path d="m6.72 9.1 6.87-6.91h18.94l6.87 6.91v29.24l-6.87 6.86h-18.94l-6.87-6.86zm20.86 4.19-1.34-1.4h-6.3l-1.4 1.4v20.86l1.4 1.34h6.3l1.34-1.34z" class="cjd-fill" fill="#f9fbfe"></path>
      </svg>