<svg viewBox="0 0 42.5 52" xmlns="http://www.w3.org/2000/svg">
         <path d="m0 52v-14.2h2.6v-19.1h-2.6v-13.61l5.1-5.09h29.16l8.24 8.15v14.82l-12.74 12.73h-3.86v11.13l-5.16 5.17z" class="cjd-border" fill="#525a6f"></path>
         <path d="m41.4 8.63-7.61-7.53h-28.22l-4.47 4.46v12h2.6v21.34h-2.6v12h19.17l4.53-4.54v-11.76h4.49l12.11-12.1z" class="cjd-stroke" fill="#8089a2"></path>
         <path d="m33.32 28.88h-12.24v6.61h2.59v9.71h-17v-9.71h2.59v-23.59h-2.58v-9.71h26.64l6.87 6.9v12.91zm-12.24-9.7h5.92l1.39-1.34v-4.56l-1.39-1.38h-5.92z" class="cjd-fill" fill="#f9fbfe"></path>
      </svg>