<svg viewBox="0 0 47.1 52" xmlns="http://www.w3.org/2000/svg">
         <path d="m8.09 52-8.09-8.23v-31.11l12.59-12.66h20.83l8.18 8.16v23.81l5.5 5.42-9.73 9.74-4.54 4.53-1.8-1.78-2.11 2.12z" class="cjd-border" fill="#525a6f"></path>
         <path d="m45.51 37.4-5-5v-23.77l-7.51-7.53h-19.94l-12 12v30.21l7.5 7.59h19.89l2.55-2.61 1.8 1.78 4.5-4.5zm-24.31-19.8.7.64v5.82l-2.2 2.24v-8.7z" class="cjd-stroke" fill="#8089a2"></path>
         <path d="m6.67 9.1 6.86-6.91h18.95l6.87 6.91v23.82l4.54 4.48-6.56 6.6-1.8-1.81-3.05 3.01h-18.95l-6.86-6.86zm20.85 4.19-1.34-1.4h-6.3l-1.39 1.4v20.86l1.39 1.34h6.3l1.34-1.34-7-7.06 6.48-6.54.51.52v-7.78z" class="cjd-fill" fill="#f9fbfe"></path>
      </svg>