<svg viewBox="0 0 45.1 52" xmlns="http://www.w3.org/2000/svg">
         <path d="m21.7 52v-1.1l-.65 1.1h-21.05v-14.2h2.6v-19.1h-2.6v-13.61l5.1-5.09h29.19l8.21 8.15v12.85l-1.88 1.88 1.88 1.85v8.57h2.6v13.53l-5.16 5.17z" class="cjd-border" fill="#525a6f"></path>
         <path d="m44 34.4h-2.6v-9.2l-2.4-2.31 2.36-2.36v-11.91l-7.54-7.52h-28.25l-4.47 4.46v12h2.6v21.34h-2.6v12h19.27l2.43-4.54v4.54h16.67l4.53-4.54v-12z" class="cjd-stroke" fill="#8089a2"></path>
         <path d="m21.11 35.49h2.58v9.71h-17v-9.71h2.6v-23.59h-2.58v-9.71h26.64l6.87 6.9v11l-2.84 2.83 2.84 2.79v9.81h2.58v9.68h-14.41v-16l-1.39-1.4h-5.89zm0-17.4h5.89l1.39-1.38v-3.43l-1.39-1.38h-5.89z" class="cjd-fill" fill="#f9fbfe"></path>
      </svg>