<svg viewBox="0 0 46.8 52" xmlns="http://www.w3.org/2000/svg">
         <path d="m10.71 52-8.11-8.16v-25.14h-2.6v-13.61l5.1-5.09h41.7v14.2h-2.6v25.09l-12.66 12.71z" class="cjd-border" fill="#525a6f"></path>
         <path d="m26.47 1.1-1.57 4.46v-4.46h-19.33l-4.47 4.46v12h2.6v25.81l7.48 7.53h19.89l12-12.08v-25.72h2.6v-12zm-3.47 33.3-.66-.67v-16.13h2.2v16.8z" class="cjd-stroke" fill="#8089a2"></path>
         <path d="m42 38.36-6.9 6.89h-19l-6.82-6.85v-26.4h-2.58v-9.75h17v9.75h-2.59v22.21l1.39 1.34h6.3l1.34-1.34v-22.21h-2.58v-9.75h17v9.75h-2.56z" class="cjd-fill" fill="#f9fbfe"></path>
      </svg>