<svg viewBox="0 0 50.8 52" xmlns="http://www.w3.org/2000/svg">
         <path d="m9.4 52v-14.2h.93l-6.34-19.1h-3.99v-13.61l5.1-5.09h21.2v2.78l2.79-2.78h21.71v13.53l-5.16 5.17h-.85l-4.87 14.6h1.38v13.53l-5.16 5.17z" class="cjd-border" fill="#525a6f"></path>
         <path d="m29.57 1.1-4.37 4.46v-4.46h-19.63l-4.47 4.46v12h3.71l7.09 21.34h-1.4v12h25.17l4.53-4.54v-12h-1.86l5.66-16.76h1.19l4.53-4.54v-11.96z" class="cjd-stroke" fill="#8089a2"></path>
         <path d="m32.12 12h-1.39v-9.76h17.81v9.76h-3.87l-7.9 23.6h2.23v9.7h-22.88v-9.7h1.88l-7.87-23.6h-3.46v-9.76h17.33v9.76h-1.43l4.8 14.35z" class="cjd-fill" fill="#f9fbfe"></path>
      </svg>