<svg viewBox="0 0 56.1 52" xmlns="http://www.w3.org/2000/svg">
         <path d="m27.26 52-.07-2.95-2.95 2.95h-24.24v-13.61l5.1-5.09h4.67l5.07-5.07-9.57-9.53h-5.27v-13.61l5.1-5.09h24.3v2.87l3.01-2.87h23.69v13.53l-5.16 5.17h-4.09l-5.05 5.07 9.54 9.53h4.76v13.53l-5.16 5.17z" class="cjd-border" fill="#525a6f"></path>
         <path d="m50.47 17.6 4.53-4.54v-11.96h-22.13l-4.57 4.46v-4.46h-22.73l-4.47 4.46v12.04h4.64l10.71 10.63-6.21 6.17h-4.67l-4.47 4.46v12.04h22.67l4.5-4.5.1 4.5h22.1l4.53-4.54v-11.96h-4.12l-10.69-10.62 6.19-6.18z" class="cjd-stroke" fill="#8089a2"></path>
         <path d="m30.58 30.38-5.16 5.17h1.7v9.7h-20.44v-9.7h4l11.87-11.8-11.84-11.75h-4v-9.76h20.41v9.76h-1.7l5.16 5.16 5.16-5.16h-1.74v-9.76h19.82v9.76h-3.41l-11.83 11.77 11.83 11.78h3.41v9.7h-19.82v-9.7h1.75z" class="cjd-fill" fill="#f9fbfe"></path>
      </svg>