<svg viewBox="0 0 56.1 52" xmlns="http://www.w3.org/2000/svg">
         <path d="m15.3 52v-14.2h2.7v-6.54l-12.75-12.56h-5.25v-13.61l5.1-5.09h24.28l.06 2.96 2.96-2.96h23.7v13.53l-5.16 5.17h-4.12l-8.12 8.09v6.51h2.6v13.53l-5.16 5.17z" class="cjd-border" fill="#525a6f"></path>
         <path d="m32.87 1.1-4.5 4.5-.1-4.5h-22.7l-4.47 4.46v12.04h4.61l13.39 13.19v8.11h-2.7v12h19.27l4.53-4.54v-11.96h-2.6v-8.08l8.75-8.72h4.12l4.53-4.54v-11.96z" class="cjd-stroke" fill="#8089a2"></path>
         <path d="m36.45 25.84v9.66h2.55v9.71h-17v-9.71h2.63v-9.68l-14-13.91h-4v-9.71h20.5v9.71h-1.73l5.16 5.16 5.16-5.16h-1.72v-9.71h19.79v9.71h-3.41z" class="cjd-fill" fill="#f9fbfe"></path>
      </svg>