<svg xmlns="http://www.w3.org/2000/svg" viewBox="0 0 46.35 27.04">
  <title>australia</title>
  <g id="Layer_2" data-name="Layer 2">
    <g id="Layer_1-2" data-name="Layer 1">
      <g id="australia">
        <rect width="46.35" height="27.04" style="fill: #180087"/>
        <polygon points="12.19 16.57 12.9 18.76 15.05 17.95 13.78 19.87 15.76 21.04 13.47 21.24 13.78 23.52 12.19 21.86 10.61 23.52 10.93 21.24 8.63 21.04 10.61 19.87 9.33 17.95 11.49 18.76 12.19 16.57" style="fill: #fff"/>
        <polygon points="36.58 20.52 36.92 21.56 37.95 21.18 37.34 22.09 38.28 22.65 37.19 22.74 37.34 23.83 36.58 23.03 35.83 23.83 35.98 22.74 34.89 22.65 35.83 22.09 35.22 21.18 36.25 21.56 36.58 20.52" style="fill: #fff"/>
        <polygon points="30.49 10.86 30.82 11.91 31.85 11.52 31.24 12.44 32.18 12.99 31.09 13.09 31.24 14.18 30.49 13.38 29.73 14.18 29.88 13.09 28.79 12.99 29.73 12.44 29.13 11.52 30.15 11.91 30.49 10.86" style="fill: #fff"/>
        <polygon points="36.58 4.26 36.92 5.3 37.95 4.92 37.34 5.83 38.28 6.39 37.19 6.49 37.34 7.57 36.58 6.78 35.83 7.57 35.98 6.49 34.89 6.39 35.83 5.83 35.22 4.92 36.25 5.3 36.58 4.26" style="fill: #fff"/>
        <polygon points="42.01 9.24 42.34 10.28 43.37 9.89 42.76 10.81 43.7 11.36 42.61 11.46 42.76 12.55 42.01 11.75 41.25 12.55 41.4 11.46 40.31 11.36 41.25 10.81 40.65 9.89 41.67 10.28 42.01 9.24" style="fill: #fff"/>
        <polygon points="39.02 14.13 39.29 14.78 39.99 14.83 39.45 15.28 39.62 15.97 39.02 15.6 38.43 15.97 38.59 15.28 38.06 14.83 38.76 14.78 39.02 14.13" style="fill: #fff"/>
        <polygon points="10.16 0 10.16 4.07 0 4.07 0 8.13 10.16 8.13 10.16 12.2 14.22 12.2 14.22 8.13 24.39 8.13 24.39 4.07 14.22 4.07 14.22 0 10.16 0" style="fill: #fff"/>
        <polygon points="0 0 0 1.36 21.66 12.2 24.39 12.2 24.39 10.83 2.73 0 0 0" style="fill: #fff"/>
        <polygon points="21.66 0 0 10.83 0 12.2 2.73 12.2 24.39 1.36 24.39 0 21.66 0" style="fill: #fff"/>
        <polygon points="10.97 0 10.97 4.88 0 4.88 0 7.32 10.97 7.32 10.97 12.2 13.41 12.2 13.41 7.32 24.39 7.32 24.39 4.88 13.41 4.88 13.41 0 10.97 0" style="fill: #ea0020"/>
        <path d="M0,0V.91L6.31,4.07H8.13ZM22.57,0,14.44,4.07h1.82L24.39,0Z" style="fill: #ea0020"/>
        <path d="M8.13,8.13,0,12.2H1.82L10,8.13Zm8.13,0,8.13,4.07v-.91L18.08,8.13Z" style="fill: #ea0020"/>
        <rect width="46.35" height="27.04" style="fill: none"/>
      </g>
    </g>
  </g>
</svg>
