<svg xmlns="http://www.w3.org/2000/svg" viewBox="0 0 46.35 27.04">
  <title>canada</title>
  <g id="Layer_2" data-name="Layer 2">
    <g id="Layer_1-2" data-name="Layer 1">
      <g id="canada">
        <rect width="10.9" height="27.04" style="fill: #ea0020"/>
        <rect x="35.45" width="10.9" height="27.04" style="fill: #ea0020"/>
        <rect x="10.9" width="24.54" height="27.04" style="fill: #fff"/>
        <path d="M23.18,3.51,21.57,6.63c-.18.34-.51.31-.84.12l-1.16-.63.87,4.8c.18.88-.41.88-.7.5l-2-2.37-.33,1.2a.38.38,0,0,1-.45.29L14.36,10,15,12.53c.15.57.26.8-.14,1l-.92.45,4.43,3.74a.62.62,0,0,1,.19.63l-.38,1.32,4.41-.53c.13,0,.36.12.36.28l-.21,4.85h.75l-.12-4.84c0-.16.2-.29.33-.29l4.42.53-.39-1.32a.64.64,0,0,1,.2-.63l4.42-3.74-.92-.45c-.4-.15-.29-.38-.14-1L32,10l-2.57.56a.38.38,0,0,1-.45-.28l-.33-1.2-2,2.37c-.29.38-.88.38-.69-.5l.86-4.8-1.16.63c-.33.18-.66.22-.84-.12Z" style="fill: #ea0020"/>
      </g>
    </g>
  </g>
</svg>
