<svg xmlns="http://www.w3.org/2000/svg" viewBox="0 0 46.35 27.04">
  <title>india</title>
  <g id="Layer_2" data-name="Layer 2">
    <g id="Layer_1-2" data-name="Layer 1">
      <g id="india">
        <rect width="46.35" height="9.02" style="fill: #f0953e"/>
        <rect y="18.03" width="46.35" height="9.01" style="fill: #3b8916"/>
        <path d="M23.18,9.47a4.06,4.06,0,1,0,4.05,4,4.05,4.05,0,0,0-4.05-4m0,.39-.1,2,.11,1.16.1-1.16-.1-2,.31,0h0a.18.18,0,0,0,.17.18.17.17,0,0,0,.16-.15,1.63,1.63,0,0,1,.3.07l-.63,1.94-.2,1.15L23.7,12l.43-2,.29.09s0,0,0,.06a.17.17,0,0,0,.17.17.16.16,0,0,0,.15-.1l.27.14-1.1,1.71-.5,1.07.68-1L25,10.36l.26.15a.17.17,0,0,0,0,.11.18.18,0,0,0,.17.17.15.15,0,0,0,.13-.07l.23.21-1.51,1.36-.75.9.9-.74,1.37-1.52c.07.08.14.15.2.23a.16.16,0,0,0-.06.13.18.18,0,0,0,.17.17.17.17,0,0,0,.1,0c.06.08.11.17.16.25l-1.81.93-1,.68,1.06-.48,1.72-1.12.15.29a.18.18,0,0,0-.11.16.17.17,0,0,0,.17.16h.06l.09.28-2,.43-1.1.4,1.15-.19,1.94-.62a2.06,2.06,0,0,1,.07.29.15.15,0,0,0-.14.16.16.16,0,0,0,.17.17h0c0,.1,0,.21,0,.3l-2-.09-1.17.1,1.17.11,2-.11c0,.11,0,.21,0,.31h0a.17.17,0,0,0-.17.17.18.18,0,0,0,.14.17,2.46,2.46,0,0,1-.07.29L26,14.24l-1.25-.4-1.15-.2h0l1.1.41,2,.42-.09.29h-.06a.16.16,0,0,0-.17.17.17.17,0,0,0,0,.07h0a.15.15,0,0,0,.05.06h0c0,.09-.09.18-.14.27l-1.71-1.11h0l-1.06-.48h0l.55.39.4.28h0l1.81.92a1.78,1.78,0,0,1-.17.27.14.14,0,0,0-.09,0,.16.16,0,0,0-.17.16.14.14,0,0,0,.06.13,2.09,2.09,0,0,1-.2.22L24.4,14.59l-.9-.74.75.9,1.51,1.36a1.37,1.37,0,0,1-.22.2.19.19,0,0,0-.1,0,.17.17,0,0,0-.17.16.17.17,0,0,0,0,.08l-.27.17-.93-1.81-.67-1h0L23.89,15,25,16.7l-.27.14a.14.14,0,0,0-.15-.1.17.17,0,0,0-.17.16s0,.05,0,.07l-.29.08-.43-2L23.29,14h0l.2,1.15.63,1.94a1.59,1.59,0,0,1-.3.06.17.17,0,0,0-.16-.14.17.17,0,0,0-.17.17v0h-.31l.1-2L23.18,14l-.11,1.16.1,2h-.31v0a.17.17,0,0,0-.17-.17.17.17,0,0,0-.16.14,1.36,1.36,0,0,1-.29-.06l.62-1.94.2-1.15-.41,1.09-.43,2L21.93,17a.17.17,0,0,0,0-.07.16.16,0,0,0-.16-.16.18.18,0,0,0-.16.1l-.27-.14L22.46,15l.48-1.06-.67.95-.93,1.82-.26-.17a.12.12,0,0,0,0-.09.17.17,0,0,0-.16-.18.16.16,0,0,0-.13.07,2.29,2.29,0,0,1-.23-.21l1.52-1.36.74-.9h0l-.9.74L20.59,16.1a2.13,2.13,0,0,1-.21-.22.2.2,0,0,0,.06-.13.16.16,0,0,0-.17-.16l-.1,0a1.64,1.64,0,0,1-.16-.26l1.82-.93.94-.66-1.06.48L20,15.35a2.24,2.24,0,0,1-.13-.27.15.15,0,0,0,.1-.15.16.16,0,0,0-.17-.17h-.07q0-.13-.09-.3l2-.42,1.09-.41-1.15.2-1.94.62a2.21,2.21,0,0,1-.07-.3.16.16,0,0,0,.15-.16.18.18,0,0,0-.17-.17h0c0-.09,0-.2,0-.31l2,.11,1.17-.11-1.17-.1-2,.09c0-.09,0-.2,0-.3h0a.17.17,0,1,0,0-.33,2.06,2.06,0,0,1,.07-.29l1.94.62,1.15.19L21.64,13l-2-.43.09-.29h.07a.17.17,0,0,0,.16-.17.15.15,0,0,0-.1-.15c.05-.09.09-.19.14-.28l1.71,1.12,1.07.48-1-.68L20,11.69c0-.09.11-.18.17-.27a.12.12,0,0,0,.1,0,.17.17,0,0,0,.16-.17.18.18,0,0,0-.06-.13,2.09,2.09,0,0,1,.2-.22L22,12.45l.9.75-.74-.9-1.52-1.37.23-.2a.16.16,0,0,0,.13.06.17.17,0,0,0,.17-.17.18.18,0,0,0,0-.1l.26-.16.93,1.81.67.95-.48-1.06-1.11-1.7.27-.15a.15.15,0,0,0,.15.11.17.17,0,0,0,.17-.16s0-.06,0-.07l.29-.1.44,2,.4,1.1-.2-1.15L22.24,10l.29-.07a.19.19,0,0,0,.17.15.18.18,0,0,0,.17-.18h0a1.51,1.51,0,0,1,.3,0" style="fill: #16007e"/>
        <path d="M23.18,12.92a.6.6,0,0,1,.61.6.61.61,0,0,1-1.22,0,.6.6,0,0,1,.61-.6" style="fill: #fff"/>
        <path d="M23.18,13.06a.46.46,0,0,1,.47.46.47.47,0,0,1-.47.47.47.47,0,1,1,0-.93" style="fill: #16007e"/>
      </g>
    </g>
  </g>
</svg>
