<svg xmlns="http://www.w3.org/2000/svg" viewBox="0 0 46.35 27.04">
  <title>newzeland</title>
  <g id="Layer_2" data-name="Layer 2">
    <g id="Layer_1-2" data-name="Layer 1">
      <g id="newzeland">
        <rect width="46.35" height="27.04" style="fill: #1a237b"/>
        <g>
          <polygon points="23.18 0 15.45 3.86 13.72 3.86 21.45 0 20.59 0 13.52 3.54 13.52 0 12.75 0 12.75 3.92 12.75 4.35 12.75 4.64 13.9 4.64 15.63 4.64 16.22 4.64 16.5 4.64 23.19 4.64 23.19 3.86 18.04 3.86 23.19 1.29 23.19 1.16 23.19 0.86 23.19 0 23.18 0" style="fill: #fff"/>
          <polygon points="9.66 0 9.66 3.54 2.59 0 0 0 7.73 3.86 6 3.86 0 0.87 0 1.3 5.13 3.86 0 3.86 0 4.64 6.68 4.64 7.54 4.64 9.27 4.64 10.43 4.64 10.43 4.35 10.43 4.06 10.43 3.92 10.43 0 9.66 0" style="fill: #fff"/>
          <polygon points="15.63 6.96 13.9 6.96 12.75 6.96 12.75 7.24 12.75 7.53 12.75 7.67 12.75 11.67 13.52 11.67 13.52 8.06 20.74 11.67 21.01 11.67 21.6 11.67 23.19 11.67 23.19 11.59 15.45 7.73 17.18 7.73 23.19 10.73 23.19 10.3 18.04 7.73 23.19 7.73 23.19 6.96 16.5 6.96 15.63 6.96" style="fill: #fff"/>
          <polygon points="9.27 6.96 7.54 6.96 6.95 6.96 6.68 6.96 0 6.96 0 7.73 5.13 7.73 0 10.29 0 11.59 7.73 7.73 9.45 7.73 1.57 11.67 2.44 11.67 9.66 8.06 9.66 11.67 10.43 11.67 10.43 7.67 10.43 7.24 10.43 6.96 9.27 6.96" style="fill: #fff"/>
          <polygon points="7.73 7.73 0 11.59 0 11.67 1.57 11.67 9.45 7.73 7.73 7.73" style="fill: #bd0034"/>
          <polygon points="0 0.87 6 3.86 7.73 3.86 0 0 0 0.87" style="fill: #bd0034"/>
          <polygon points="23.18 0 21.45 0 13.72 3.86 15.45 3.86 23.18 0" style="fill: #bd0034"/>
          <polygon points="15.45 7.73 23.19 11.59 23.19 10.73 17.18 7.73 15.45 7.73" style="fill: #bd0034"/>
          <polygon points="10.43 0 10.43 3.92 10.43 4.06 10.43 4.35 10.43 4.64 9.27 4.64 7.54 4.64 6.68 4.64 0 4.64 0 6.96 6.68 6.96 6.95 6.96 7.54 6.96 9.27 6.96 10.43 6.96 10.43 7.24 10.43 7.67 10.43 11.67 11.59 11.67 12.75 11.67 12.75 7.67 12.75 7.53 12.75 7.24 12.75 6.96 13.9 6.96 15.63 6.96 16.5 6.96 23.19 6.96 23.19 5.8 23.19 4.64 16.5 4.64 16.22 4.64 15.63 4.64 13.9 4.64 12.75 4.64 12.75 4.35 12.75 3.92 12.75 0 10.43 0" style="fill: #bd0034"/>
        </g>
        <g>
          <polygon points="32.18 7.89 33.43 7.89 33.83 6.69 34.22 7.89 35.47 7.89 34.45 8.63 34.84 9.83 33.83 9.09 32.8 9.83 33.2 8.63 32.18 7.89" style="fill: #fff"/>
          <polygon points="32.73 8.07 33.57 8.07 33.83 7.28 34.08 8.07 34.91 8.07 34.24 8.56 34.5 9.36 33.83 8.87 33.15 9.36 33.41 8.56 32.73 8.07" style="fill: #bd0034"/>
          <polygon points="27.14 12.96 28.39 12.96 28.79 11.76 29.18 12.96 30.43 12.96 29.42 13.7 29.8 14.9 28.79 14.16 27.77 14.9 28.16 13.7 27.14 12.96" style="fill: #fff"/>
          <polygon points="27.7 13.14 28.53 13.14 28.79 12.35 29.04 13.14 29.88 13.14 29.2 13.63 29.46 14.43 28.79 13.93 28.11 14.43 28.37 13.63 27.7 13.14" style="fill: #bd0034"/>
          <polygon points="36.67 11.71 37.8 11.71 38.15 10.64 38.49 11.71 39.61 11.71 38.7 12.36 39.05 13.43 38.15 12.77 37.24 13.43 37.58 12.36 36.67 11.71" style="fill: #fff"/>
          <polygon points="37.17 11.87 37.92 11.87 38.15 11.16 38.37 11.87 39.12 11.87 38.52 12.3 38.74 13.01 38.15 12.57 37.54 13.01 37.77 12.3 37.17 11.87" style="fill: #bd0034"/>
          <polygon points="31.99 20.92 33.39 20.92 33.83 19.59 34.26 20.92 35.66 20.92 34.52 21.74 34.95 23.07 33.83 22.25 32.7 23.07 33.13 21.74 31.99 20.92" style="fill: #fff"/>
          <polygon points="32.61 21.12 33.54 21.12 33.83 20.24 34.11 21.12 35.03 21.12 34.29 21.66 34.58 22.55 33.83 22 33.08 22.55 33.37 21.66 32.61 21.12" style="fill: #bd0034"/>
        </g>
      </g>
    </g>
  </g>
</svg>
