<svg xmlns="http://www.w3.org/2000/svg" viewBox="0 0 46.35 27.04">
  <title>saudia</title>
  <g id="Layer_2" data-name="Layer 2">
    <g id="Layer_1-2" data-name="Layer 1">
      <g id="saudia">
        <rect width="46.35" height="27.04" style="fill: #3d9635"/>
        <g>
          <path d="M13.12,7.67c0,.63-.1,1.74.43,1.86s.29-1.1.53-1.31c0-.11.13-.11.13,0v1a.49.49,0,0,0,.37.48c.17,0,.28,0,.35.16,0,.56.05,1.13.08,1.7,0,0,.4.12.42-1a9.92,9.92,0,0,1,0-1.28c0-.12.16-.13.27-.06s.24.26.51.2.64-.3.64-.61A2.51,2.51,0,0,0,16.62,8c0-.06-.08-.19-.06-.24.08.11.18.1.21,0a.87.87,0,0,0-.35-.54c-.14-.12-.35-.1-.42.17a1.39,1.39,0,0,0,.33.94,1,1,0,0,1,.08.48.25.25,0,0,1-.33-.07s-.32-.24-.32-.29a1.17,1.17,0,0,0,0-.76,1,1,0,0,0-.21-.41c-.08-.09-.19-.09-.24,0a1.38,1.38,0,0,0,0,1c.07.22.18.36.13.36s-.14.09-.2,0a3.29,3.29,0,0,1-.11-.93c0-.24-.06-.76-.22-.89a.17.17,0,0,0-.3.06,4.07,4.07,0,0,0,0,.7,8.62,8.62,0,0,1,.2,1.13c0,.54-.31.23-.3,0a2.26,2.26,0,0,0,0-1c0-.14-.11-.17-.24-.14s-.37.27-.44.75c0,0-.06.24-.09.46s-.2.42-.31,0-.16-1.13-.32-.94" style="fill: #fff"/>
          <path d="M14.88,10.26l-1.69.81A1.73,1.73,0,0,1,14.53,10c.35,0,.26.13.35.27" style="fill: #fff"/>
          <path d="M17,6.68s-.07,0-.11,0a.3.3,0,0,0-.22.39c.16,1,.26,1.75.43,2.74,0,.11-.08.27-.2.25s-.27-.44-.63-.42a.71.71,0,0,0-.61.57,1.53,1.53,0,0,0,0,.64.53.53,0,0,0,.61.15c.16-.06.29-.22.35-.18h0c0,.06,0,.58-.76,1-.46.21-.83.26-1-.12s0-1.13-.29-.93c-.9,2.3,2.08,2.63,2.41.1,0-.07.09-.14.14-.12a.1.1,0,0,1,0,.09c-.07,2.28-2.3,2.43-2.68,1.72a2.3,2.3,0,0,1-.13-.77c0-.14,0-.22-.09-.25s-.22.11-.24.42a2.54,2.54,0,0,0,0,.55c.12,1.81,3,1,3.46-.46a5.36,5.36,0,0,0,.08-1.43h0a.54.54,0,0,0,.78-.07.14.14,0,0,1,.2,0,.46.46,0,0,0,.69-.19,6,6,0,0,0,.1-.86.77.77,0,0,0-.31.13l0,0a2,2,0,0,1,0,.24v0l0,0a.1.1,0,0,1-.15-.07c-.07-.3-.35-.35-.52.13-.12.1-.33.12-.35,0,0-.33-.1-.37-.37-.22-.08-.65-.17-1.26-.25-1.91.11,0,.21.08.31,0a3.77,3.77,0,0,0-.47-1.1h0l0,0h0a0,0,0,0,1,0,0h0m-.8,3.55a.15.15,0,0,1,.16.1.18.18,0,0,1,0,.17h0s-.1,0-.15,0a.15.15,0,0,1-.14-.07c0-.06,0-.12.06-.17h0l.1,0" style="fill: #fff"/>
          <path d="M19,6.63l-.2,0a.4.4,0,0,0-.06.52c.11,0,.22.17.15.23-.32.33-1.16.91-1.2,1h0a2.15,2.15,0,0,0,.62,0h0a9.72,9.72,0,0,0,1-1l-.12-.1q-.07-.06,0-.12a.35.35,0,0,0,0-.52.63.63,0,0,0-.26,0m0,.3s.11.05.14.11,0,.14,0,.16-.12,0-.15-.11,0-.15,0-.16h0" style="fill: #fff"/>
          <path d="M13.25,11.89a1.66,1.66,0,0,0-.17,1.49.36.36,0,0,0,.36.11c.2-.08.29-.49.24-.63s-.12-.13-.19,0c-.14.28-.2.08-.21-.08a4,4,0,0,1,0-.8c0-.22,0-.16-.07-.06" style="fill: #fff"/>
          <path d="M26.83,11.08c-.31-.67-.73-1.32-.87-1.57s-1.16-1.73-1.31-1.9c-.33-.4.54.16-.11-.62l-.47-.4c-.1-.07-.35-.2-.39,0a1,1,0,0,0,0,.47,1.37,1.37,0,0,0,.26.4A29.06,29.06,0,0,1,26.8,12c.14-.06.11-.84,0-.95" style="fill: #fff"/>
          <path d="M25.48,13.29c-.06.06.15.36.42.35a1.55,1.55,0,0,0,1.23-1,1.76,1.76,0,0,0,.28-.75,16.61,16.61,0,0,0-.31-3.82,1,1,0,0,1,0-.27s.13,0,.19-.08-.21-.74-.37-1-.08-.19-.18,0a1.46,1.46,0,0,0-.15.73c.21,1.5.28,2.82.42,4.32a.63.63,0,0,1-.1.44,4.19,4.19,0,0,1-1.44,1" style="fill: #fff"/>
          <path d="M31.63,13.28c-.33.19-.33.41-.06.41A1.62,1.62,0,0,0,32.93,13a2.07,2.07,0,0,0,.22-.84,19.36,19.36,0,0,0-.24-4.13,1.59,1.59,0,0,1,0-.39c0-.07.18,0,.23-.07s-.38-.68-.55-.93-.07-.19-.17,0a1.19,1.19,0,0,0-.09.72,40.73,40.73,0,0,1,.46,4.66,1.19,1.19,0,0,1-.1.38,3.09,3.09,0,0,1-.44.53c-.15.11-.47.22-.57.3" style="fill: #fff"/>
          <path d="M31.87,11.82c0-.39,0-.72,0-1s-.15-1.36-.19-1.58-.09-.58-.15-.86a2.49,2.49,0,0,1-.06-.48c0-.08.13,0,.18-.09a2.93,2.93,0,0,0-.43-1.19c-.06-.12-.17-.08-.31.1s-.08.39,0,.65a23.92,23.92,0,0,1,.52,5.12c0,.13.48-.42.47-.67" style="fill: #fff"/>
          <path d="M29.46,9.7c-.2,0-.64-.4-.76-.63a.47.47,0,0,1,0-.34c.08-.05.2-.11.28-.05s.1.13.08.14.16,0,.17,0,0-.12,0-.21a.24.24,0,0,1,.42-.12.94.94,0,0,1,.12.42c0,.07-.12,0-.18,0S29.5,9,29.5,9a6.5,6.5,0,0,0,0,.66" style="fill: #fff"/>
          <path d="M25.67,12.24a16.15,16.15,0,0,0,0-1.89c0-.72-.14-2.12-.19-2.35-.07-.44.18.05.14-.21A2.8,2.8,0,0,0,25,6.65c-.1-.13-.09-.15-.24,0a1.38,1.38,0,0,0,0,.88,16.54,16.54,0,0,1,.39,2.57,24.75,24.75,0,0,1,0,2.73c.15,0,.4-.26.49-.63" style="fill: #fff"/>
          <path d="M32.57,11.4c-.36-.61-.9-1.32-1.05-1.56s-1.38-2-1.54-2.22c-.45-.47.21-.07-.08-.44a3.16,3.16,0,0,0-.54-.52c-.1-.07-.17-.2-.21,0a3.94,3.94,0,0,0,0,.59.71.71,0,0,0,.18.37,34,34,0,0,1,3.25,4.72c.14-.06.09-.85,0-1" style="fill: #fff"/>
          <path d="M28.19,18.59h0a.3.3,0,0,0-.1.56c-3.39,0-8.58-.06-9.69-.06-.63,0-2.6-.07-2.63-.07a2,2,0,0,0,1.83.75H28a.67.67,0,0,0,.13.72h0c.13,0,.19-.07.24-.13a12.7,12.7,0,0,0,1.52,0h0c.07.11.15.21.29.2s.44-.08.45-.58c0,0,0-.86-.59-.8l-.51,0c-.43,0-.75,0-1.23-.08,0-.05.12-.28,0-.36a.21.21,0,0,0-.12,0h0v0h0a.88.88,0,0,1-.05-.15h0m.23,1.21h0c.49,0,.95,0,1.45,0a.18.18,0,0,1,0,.25h-.44v0c0-.12-.32-.11-.38,0h0v0a4.56,4.56,0,0,1-.64,0,.19.19,0,0,1,0-.26" style="fill: #fff"/>
          <path d="M19.62,7.15c-.33.94.19,2,.55,1.88.26.1.42-.4.53-.94.07-.15.13-.16.16-.09,0,.72.06.89.24,1.1a.58.58,0,0,0,.78,0l.32-.31a.19.19,0,0,1,.27,0c.1.09.09.25.3.35A.62.62,0,0,0,23.41,9a3.39,3.39,0,0,1,.2-.34c.08-.11.22-.07.22,0s-.09.13,0,.24.13,0,.19,0c.21-.1.37-.56.37-.56,0-.17-.09-.15-.15-.11a1.63,1.63,0,0,0-.17.11c-.1,0-.3.08-.4-.07a6.52,6.52,0,0,1-.18-.63s-.13-.28,0-.31.2,0,.22-.06-.14-.42-.28-.57a.31.31,0,0,0-.46,0c-.11.1-.09.23-.12.34a.51.51,0,0,0,.11.45,1.36,1.36,0,0,1,.26.92.38.38,0,0,1-.34.17c-.09,0-.23,0-.31-.62a4,4,0,0,0-.16-1.31c-.07-.17-.12-.34-.28,0A.69.69,0,0,0,22,7.2a1.91,1.91,0,0,1,.1,1,1.54,1.54,0,0,1-.19.28.34.34,0,0,1-.41,0,.44.44,0,0,1-.24-.34,4.54,4.54,0,0,0,0-1.11A.2.2,0,0,0,20.88,7a2.49,2.49,0,0,0-.61,1.25c-.09.3-.2.22-.26.09s-.19-1.41-.39-1.2" style="fill: #fff"/>
          <path d="M20.73,9.1h0l-.11.09c-.1.11-.11.19-.1.4,0,0,.18.52.33.87A2.73,2.73,0,0,1,21,11.64a2.87,2.87,0,0,1-1.18,1.23.58.58,0,0,1-.5,0h0a.29.29,0,0,1-.13-.28h0a2.82,2.82,0,0,0,1.19-1.23,1.28,1.28,0,0,0,0-.88.88.88,0,0,0-.2-.41h0c.07,0,.24.09.27,0a1.23,1.23,0,0,0-.34-.62.29.29,0,0,0-.42,0c-.14.08-.17.37-.11.62s.29.22.44.59h0s.05.28,0,.39a4.22,4.22,0,0,1-.89.83h0v-.13a3.79,3.79,0,0,1,0-.41h0c-.25.17-.34.68-.39.83a12,12,0,0,0-1.8,1.23c-.22.34,1.52-.39,1.72-.48h0a.91.91,0,0,0,.15.32.92.92,0,0,0,.94.31,3,3,0,0,0,1.36-1.13c.05-.08.14-.14.21-.08a2.11,2.11,0,0,0,1.92,1c.22-.27.12-.4,0-.45s-.47-.19-.54-.37.06-.29.28-.4a9.55,9.55,0,0,0,1.77-.34,1.57,1.57,0,0,1,.2-.61c.05-.09.08-.1.1-.11h0L25,11H23.05l-.05,0h0l.06,0c.46-.06,1.28-.19,1.33-1a.67.67,0,0,0-.67-.75.69.69,0,0,0-.6.78c0,.1,0,.31-.07.33-.71.07-1.48.52-1.51.83h0a.17.17,0,0,1-.1-.19,3.71,3.71,0,0,0-.48-1.65.66.66,0,0,0-.18-.15h0m2.82.71a.28.28,0,0,1,.15,0c.08,0,.13.11.12.16h0s-.12,0-.21,0a.24.24,0,0,1-.12-.16h0v0h0l0,0m-1.79,1.63h0a4.65,4.65,0,0,0,.81.09c.22,0,.33.19.12.27s-.4.12-.4.42c0,.15,0,.23,0,.26h0c-.05,0-.12,0-.18-.07a1.1,1.1,0,0,1-.53-.79.2.2,0,0,1,.2-.21" style="fill: #fff"/>
          <path d="M15.55,7.16c.23.1.64.06.63-.3,0,0,0-.14,0-.16s-.17-.09-.2,0,0,.09,0,.12-.09,0-.09-.1a.15.15,0,0,0,0-.08l-.05,0s0,0,0,0a.24.24,0,0,0,0,.08s0,0,0,0,0,0-.05,0,0,0,0,0a.25.25,0,0,0,0-.09.05.05,0,0,0-.05,0c-.13,0-.14.14-.13.19s0,.26.15.33" style="fill: #fff"/>
          <path d="M22.07,9.92c.23.1.76,0,.63-.3a1,1,0,0,0,0-.17c0-.11-.16-.08-.19,0s0,.1,0,.12-.09,0-.09-.1a.19.19,0,0,0,0-.08l-.05,0s0,0-.05,0a.19.19,0,0,0,0,.08s0,.05,0,.06h-.05s0,0,0-.05a.25.25,0,0,0,0-.09L22,9.4c-.12,0-.12.14-.12.19s0,.26.15.33" style="fill: #fff"/>
          <path d="M25.88,8.78c.22.1.64.05.62-.3,0,0,0-.14,0-.17s-.17-.08-.2,0,0,.09,0,.11-.09,0-.08-.09a.25.25,0,0,0,0-.09h0s0,0-.05,0,0,0,0,.08,0,0-.05,0,0,0,0,0a0,0,0,0,1,0-.05.29.29,0,0,0,0-.09l0,0c-.12,0-.13.14-.12.19s0,.26.15.33" style="fill: #fff"/>
          <path d="M27.85,11.64A1.38,1.38,0,0,0,27.71,13a1.11,1.11,0,0,0,.48.54.34.34,0,0,0,.51-.05c.22-.24.23-.84.33-1a.2.2,0,0,1,.36-.08,1,1,0,0,0,.32.28.56.56,0,0,0,.72.05.81.81,0,0,0,.38-.47,16.73,16.73,0,0,0,0-2.73l-.22-1.13s0-.54-.05-.66,0-.07,0-.07.07.06.1.07.11-.08.08-.18l-.53-1s-.1-.09-.17,0A.42.42,0,0,0,30,6.9c0,.23.06.47.07.7l.21,1.19c.07.85.09,1.63.16,2.47,0,.36-.12.84-.23.88s-.16.1-.27,0a3,3,0,0,1-.39-.52.23.23,0,0,0-.38,0,5.13,5.13,0,0,0-.66,1.25c-.06.09-.21.16-.38,0a1.7,1.7,0,0,1-.23-1.23" style="fill: #fff"/>
          <path d="M26,6.7a.73.73,0,0,1,.29.68c0,.24-.14.51-.22.47s.05-.24,0-.46-.32-.41-.29-.49.11-.24.24-.2" style="fill: #fff"/>
          <path d="M28.49,11.89a6.54,6.54,0,0,0,0-1.07c0-.28-.33-2.6-.39-2.81-.07-.41.3-.06.26-.29s-.45-.74-.55-1c-.07-.11,0-.21-.18,0a2.28,2.28,0,0,0-.12,1,22.09,22.09,0,0,1,.61,4.88c.15,0,.33-.35.41-.7" style="fill: #fff"/>
          <path d="M31.89,7.27c.19.09.29.6.27.74s-.13.55-.2.51,0-.39,0-.5-.29-.44-.27-.53a.17.17,0,0,1,.22-.22" style="fill: #fff"/>
          <path d="M18.39,11c.17.06.27.43.25.54s-.12.4-.19.38,0-.29,0-.37-.25-.3-.25-.39.1-.18.21-.16" style="fill: #fff"/>
          <path d="M13.74,6.57c.26.08.28.45.26.57s-.13.41-.19.39,0-.3,0-.38-.25-.34-.23-.4.1-.21.2-.18" style="fill: #fff"/>
          <path d="M18.81,8.35a.46.46,0,0,0-.15.61.3.3,0,0,0,.32.1c.19,0,.3-.36.3-.36s0-.11-.22.09c-.1,0-.11,0-.13-.07a.45.45,0,0,1,0-.3c0-.1,0-.14-.15-.07" style="fill: #fff"/>
          <path d="M20.28,6.43a.74.74,0,0,0-.3.5c0,.13,0,.13.06.22s.13.08.25,0A.26.26,0,0,0,20.41,7c0-.15-.16.07-.18-.1s.08-.22.2-.37,0-.17-.15-.09" style="fill: #fff"/>
          <path d="M21.47,6.64a3,3,0,0,0-.08.58c0,.15.15.21.24,0a1.55,1.55,0,0,0,.13-.65c0-.22-.19-.21-.29,0" style="fill: #fff"/>
          <path d="M29,10.45,30,9.7c.11,0,.09.37,0,.37a4.18,4.18,0,0,1-1.09.76s-.1-.29,0-.38" style="fill: #fff"/>
          <path d="M29.91,10.44c.18.1.25.63.23.77s-.17.51-.24.48,0-.35,0-.47-.2-.45-.17-.53a.19.19,0,0,1,.21-.25" style="fill: #fff"/>
          <path d="M23.78,12.73a1.55,1.55,0,0,1,.29-.25.18.18,0,0,1,.2,0c0,.09-.06.19,0,.33s0,.11.14.09a.7.7,0,0,1,.48-.14c.13,0,.13.21,0,.21a3.19,3.19,0,0,0-.65.24.16.16,0,0,1-.19,0A.2.2,0,0,1,24,13c0-.11,0-.17-.12-.16s-.13.06-.17,0,0-.1,0-.13" style="fill: #fff"/>
          <path d="M31,13a.13.13,0,0,1,0,.2c-.07.07-.12.1-.2.17s-.05.15.05.18.64-.24.64-.25a.13.13,0,0,0,0-.15c0-.05-.13,0-.2,0s-.13,0-.08-.1a.8.8,0,0,0,.08-.16c0-.07,0-.11-.11-.15a1.22,1.22,0,0,0-.27,0c-.07,0-.09,0-.1.13s.08.11.15.16" style="fill: #fff"/>
        </g>
      </g>
    </g>
  </g>
</svg>
