<svg xmlns="http://www.w3.org/2000/svg" viewBox="0 0 46.35 27.05">
  <title>singapore</title>
  <g id="Layer_2" data-name="Layer 2">
    <g id="Layer_1-2" data-name="Layer 1">
      <g id="singapore">
        <rect width="46.35" height="13.52" style="fill: #da1841"/>
        <rect y="13.53" width="46.35" height="13.52" style="fill: #fff"/>
        <path d="M5.9,6.76A4.79,4.79,0,0,1,10.49,2a5.09,5.09,0,1,0,0,9.57A4.8,4.8,0,0,1,5.9,6.76Z" style="fill: #fff"/>
        <polygon points="9.46 6.88 8.77 6.36 8.07 6.88 8.34 6.03 7.65 5.5 8.5 5.51 8.77 4.65 9.03 5.51 9.88 5.5 9.19 6.03 9.46 6.88" style="fill: #fff"/>
        <polygon points="14.88 6.88 14.18 6.36 13.49 6.88 13.76 6.03 13.06 5.5 13.92 5.51 14.18 4.65 14.45 5.51 15.3 5.5 14.61 6.03 14.88 6.88" style="fill: #fff"/>
        <polygon points="12.17 4.88 11.48 4.34 10.79 4.88 11.05 4.02 10.36 3.5 11.21 3.5 11.48 2.64 11.74 3.5 12.6 3.49 11.9 4.02 12.17 4.88" style="fill: #fff"/>
        <polygon points="10.47 10.11 9.78 9.58 9.09 10.11 9.35 9.25 8.66 8.72 9.52 8.72 9.78 7.87 10.04 8.72 10.89 8.72 10.2 9.25 10.47 10.11" style="fill: #fff"/>
        <polygon points="13.86 10.11 13.17 9.58 12.48 10.11 12.75 9.25 12.05 8.72 12.91 8.72 13.17 7.87 13.43 8.72 14.29 8.72 13.59 9.25 13.86 10.11" style="fill: #fff"/>
      </g>
    </g>
  </g>
</svg>
