<svg xmlns="http://www.w3.org/2000/svg" viewBox="0 0 46.35 27.04">
  <title>turkey</title>
  <g id="Layer_2" data-name="Layer 2">
    <g id="Layer_1-2" data-name="Layer 1">
      <g id="turkey">
        <rect width="46.35" height="27.04" style="fill: #d00027"/>
        <g>
          <path d="M15.21,18.93a5.41,5.41,0,1,1,4-9,6.76,6.76,0,1,0,0,7.23A5.38,5.38,0,0,1,15.21,18.93Z" style="fill: #fff"/>
          <polygon points="19.23 13.52 22.45 14.57 22.97 12.95 19.23 13.52" style="fill: #fff"/>
          <polygon points="19.23 13.52 22.45 12.48 22.97 14.09 19.23 13.52" style="fill: #fff"/>
          <polygon points="21.57 10.3 21.57 13.69 23.26 13.69 21.57 10.3" style="fill: #fff"/>
          <polygon points="21.57 10.3 23.55 13.04 22.19 14.03 21.57 10.3" style="fill: #fff"/>
          <polygon points="21.57 16.74 23.55 14 22.19 13.01 21.57 16.74" style="fill: #fff"/>
          <polygon points="21.57 16.74 21.57 13.35 23.26 13.35 21.57 16.74" style="fill: #fff"/>
          <polygon points="25.35 11.54 22.14 12.58 22.66 14.18 25.35 11.54" style="fill: #fff"/>
          <polygon points="25.35 11.54 23.36 14.27 21.99 13.28 25.35 11.54" style="fill: #fff"/>
          <polygon points="25.35 15.51 23.36 12.78 21.99 13.77 25.35 15.51" style="fill: #fff"/>
          <polygon points="25.35 15.51 22.14 14.46 22.66 12.86 25.35 15.51" style="fill: #fff"/>
        </g>
      </g>
    </g>
  </g>
</svg>
