<svg xmlns="http://www.w3.org/2000/svg" viewBox="0 0 46.35 27.04">
  <title>uk</title>
  <g id="Layer_2" data-name="Layer 2">
    <g id="Layer_1-2" data-name="Layer 1">
      <g id="uk">
        <rect width="46.35" height="27.04" style="fill: #fff"/>
        <polygon points="31.04 9.78 46.35 1.2 46.35 0 45.3 0 27.83 9.78 31.04 9.78" style="fill: #bd0034"/>
        <polygon points="30.32 17.8 46.35 26.78 46.35 24.99 33.52 17.8 30.32 17.8" style="fill: #bd0034"/>
        <polygon points="0 2.06 13.72 9.78 16.93 9.78 0 0.26 0 2.06" style="fill: #bd0034"/>
        <polygon points="16.2 17.8 0 26.88 0 27.04 2.93 27.04 19.41 17.8 16.2 17.8" style="fill: #bd0034"/>
        <polygon points="43.18 0 26.95 0 26.95 9.09 43.18 0" style="fill: #1a237b"/>
        <polygon points="19.79 0 3.62 0 19.79 9.09 19.79 0" style="fill: #1a237b"/>
        <polygon points="46.35 9.78 46.35 3.57 35.34 9.78 46.35 9.78" style="fill: #1a237b"/>
        <polygon points="46.35 23.94 46.35 17.8 35.34 17.8 46.35 23.94" style="fill: #1a237b"/>
        <polygon points="4.54 27.04 19.79 27.04 19.79 18.49 4.54 27.04" style="fill: #1a237b"/>
        <polygon points="26.95 27.04 42.25 27.04 26.95 18.49 26.95 27.04" style="fill: #1a237b"/>
        <polygon points="0 17.8 0 24.22 11.39 17.8 0 17.8" style="fill: #1a237b"/>
        <polygon points="0 9.78 11.39 9.78 0 3.35 0 9.78" style="fill: #1a237b"/>
        <polygon points="21.22 0 21.22 11.38 0 11.38 0 16.2 21.22 16.2 21.22 27.04 25.52 27.04 25.52 16.2 46.35 16.2 46.35 11.38 25.52 11.38 25.52 0 21.22 0" style="fill: #bd0034"/>
        <rect width="46.35" height="27.04" style="fill: none"/>
      </g>
    </g>
  </g>
</svg>
