<svg xmlns="http://www.w3.org/2000/svg" viewBox="0 0 46.35 27.04">
  <title>usa</title>
  <g id="Layer_2" data-name="Layer 2">
    <g id="Layer_1-2" data-name="Layer 1">
      <g id="usa">
        <rect y="24.96" width="46.35" height="2.08" style="fill: #cb001c"/>
        <rect y="22.88" width="46.35" height="2.08" style="fill: #fff"/>
        <rect y="20.8" width="46.35" height="2.08" style="fill: #cb001c"/>
        <rect y="18.72" width="46.35" height="2.08" style="fill: #fff"/>
        <rect y="16.64" width="46.35" height="2.08" style="fill: #cb001c"/>
        <rect y="14.56" width="46.35" height="2.08" style="fill: #fff"/>
        <rect y="12.48" width="46.35" height="2.08" style="fill: #cb001c"/>
        <rect y="10.4" width="46.35" height="2.08" style="fill: #fff"/>
        <rect y="8.32" width="46.35" height="2.08" style="fill: #cb001c"/>
        <rect y="6.24" width="46.35" height="2.08" style="fill: #fff"/>
        <rect y="4.16" width="46.35" height="2.08" style="fill: #cb001c"/>
        <rect y="2.08" width="46.35" height="2.08" style="fill: #fff"/>
        <rect width="46.35" height="2.08" style="fill: #cb001c"/>
        <rect width="21.17" height="14.56" style="fill: #2a3560"/>
        <polygon points="1.91 1.6 2.09 2.16 2.67 2.16 2.2 2.5 2.38 3.05 1.91 2.71 1.44 3.05 1.63 2.5 1.16 2.16 1.73 2.16 1.91 1.6" style="fill: #fff"/>
        <polygon points="1.91 4.04 2.09 4.58 2.67 4.58 2.2 4.92 2.38 5.48 1.91 5.13 1.44 5.48 1.63 4.92 1.16 4.58 1.73 4.58 1.91 4.04" style="fill: #fff"/>
        <polygon points="1.91 6.47 2.09 7.01 2.67 7.01 2.2 7.36 2.38 7.91 1.91 7.57 1.44 7.91 1.63 7.36 1.16 7.01 1.73 7.01 1.91 6.47" style="fill: #fff"/>
        <polygon points="1.91 8.89 2.09 9.45 2.67 9.45 2.2 9.79 2.38 10.34 1.91 10 1.44 10.34 1.63 9.79 1.16 9.45 1.73 9.45 1.91 8.89" style="fill: #fff"/>
        <polygon points="1.91 11.32 2.09 11.88 2.67 11.88 2.2 12.21 2.38 12.77 1.91 12.43 1.44 12.77 1.63 12.21 1.16 11.88 1.73 11.88 1.91 11.32" style="fill: #fff"/>
        <polygon points="3.61 2.88 3.78 3.44 4.36 3.44 3.89 3.78 4.07 4.33 3.61 3.99 3.14 4.33 3.31 3.78 2.85 3.44 3.43 3.44 3.61 2.88" style="fill: #fff"/>
        <polygon points="3.61 5.32 3.78 5.87 4.36 5.87 3.89 6.21 4.07 6.75 3.61 6.42 3.14 6.75 3.31 6.21 2.85 5.87 3.43 5.87 3.61 5.32" style="fill: #fff"/>
        <polygon points="3.61 7.75 3.78 8.3 4.36 8.3 3.89 8.64 4.07 9.19 3.61 8.85 3.14 9.19 3.31 8.64 2.85 8.3 3.43 8.3 3.61 7.75" style="fill: #fff"/>
        <polygon points="3.61 10.18 3.78 10.73 4.36 10.73 3.89 11.07 4.07 11.62 3.61 11.27 3.14 11.62 3.31 11.07 2.85 10.73 3.43 10.73 3.61 10.18" style="fill: #fff"/>
        <polygon points="5.32 1.6 5.5 2.16 6.08 2.16 5.61 2.5 5.79 3.05 5.32 2.71 4.85 3.05 5.03 2.5 4.56 2.16 5.14 2.16 5.32 1.6" style="fill: #fff"/>
        <polygon points="5.32 4.04 5.5 4.58 6.08 4.58 5.61 4.92 5.79 5.48 5.32 5.13 4.85 5.48 5.03 4.92 4.56 4.58 5.14 4.58 5.32 4.04" style="fill: #fff"/>
        <polygon points="5.32 6.47 5.5 7.01 6.08 7.01 5.61 7.36 5.79 7.91 5.32 7.57 4.85 7.91 5.03 7.36 4.56 7.01 5.14 7.01 5.32 6.47" style="fill: #fff"/>
        <polygon points="5.32 8.89 5.5 9.45 6.08 9.45 5.61 9.79 5.79 10.34 5.32 10 4.85 10.34 5.03 9.79 4.56 9.45 5.14 9.45 5.32 8.89" style="fill: #fff"/>
        <polygon points="5.32 11.32 5.5 11.88 6.08 11.88 5.61 12.21 5.79 12.77 5.32 12.43 4.85 12.77 5.03 12.21 4.56 11.88 5.14 11.88 5.32 11.32" style="fill: #fff"/>
        <polygon points="7.01 2.88 7.19 3.44 7.77 3.44 7.3 3.78 7.48 4.33 7.01 3.99 6.54 4.33 6.72 3.78 6.25 3.44 6.83 3.44 7.01 2.88" style="fill: #fff"/>
        <polygon points="7.01 5.32 7.19 5.87 7.77 5.87 7.3 6.21 7.48 6.75 7.01 6.42 6.54 6.75 6.72 6.21 6.25 5.87 6.83 5.87 7.01 5.32" style="fill: #fff"/>
        <polygon points="7.01 7.75 7.19 8.3 7.77 8.3 7.3 8.64 7.48 9.19 7.01 8.85 6.54 9.19 6.72 8.64 6.25 8.3 6.83 8.3 7.01 7.75" style="fill: #fff"/>
        <polygon points="7.01 10.18 7.19 10.73 7.77 10.73 7.3 11.07 7.48 11.62 7.01 11.27 6.54 11.62 6.72 11.07 6.25 10.73 6.83 10.73 7.01 10.18" style="fill: #fff"/>
        <polygon points="8.72 1.6 8.91 2.16 9.48 2.16 9.01 2.5 9.2 3.05 8.72 2.71 8.26 3.05 8.43 2.5 7.97 2.16 8.55 2.16 8.72 1.6" style="fill: #fff"/>
        <polygon points="8.72 4.04 8.91 4.58 9.48 4.58 9.01 4.92 9.2 5.48 8.72 5.13 8.26 5.48 8.43 4.92 7.97 4.58 8.55 4.58 8.72 4.04" style="fill: #fff"/>
        <polygon points="8.72 6.47 8.91 7.01 9.48 7.01 9.01 7.36 9.2 7.91 8.72 7.57 8.26 7.91 8.43 7.36 7.97 7.01 8.55 7.01 8.72 6.47" style="fill: #fff"/>
        <polygon points="8.72 8.89 8.91 9.45 9.48 9.45 9.01 9.79 9.2 10.34 8.72 10 8.26 10.34 8.43 9.79 7.97 9.45 8.55 9.45 8.72 8.89" style="fill: #fff"/>
        <polygon points="8.72 11.32 8.91 11.88 9.48 11.88 9.01 12.21 9.2 12.77 8.72 12.43 8.26 12.77 8.43 12.21 7.97 11.88 8.55 11.88 8.72 11.32" style="fill: #fff"/>
        <polygon points="10.42 2.88 10.6 3.44 11.17 3.44 10.71 3.78 10.88 4.33 10.42 3.99 9.95 4.33 10.13 3.78 9.66 3.44 10.24 3.44 10.42 2.88" style="fill: #fff"/>
        <polygon points="10.42 5.32 10.6 5.87 11.17 5.87 10.71 6.21 10.88 6.75 10.42 6.42 9.95 6.75 10.13 6.21 9.66 5.87 10.24 5.87 10.42 5.32" style="fill: #fff"/>
        <polygon points="10.42 7.75 10.6 8.3 11.17 8.3 10.71 8.64 10.88 9.19 10.42 8.85 9.95 9.19 10.13 8.64 9.66 8.3 10.24 8.3 10.42 7.75" style="fill: #fff"/>
        <polygon points="10.42 10.18 10.6 10.73 11.17 10.73 10.71 11.07 10.88 11.62 10.42 11.27 9.95 11.62 10.13 11.07 9.66 10.73 10.24 10.73 10.42 10.18" style="fill: #fff"/>
        <polygon points="12.13 1.6 12.31 2.16 12.89 2.16 12.42 2.5 12.6 3.05 12.13 2.71 11.66 3.05 11.84 2.5 11.37 2.16 11.95 2.16 12.13 1.6" style="fill: #fff"/>
        <polygon points="12.13 4.04 12.31 4.58 12.89 4.58 12.42 4.92 12.6 5.48 12.13 5.13 11.66 5.48 11.84 4.92 11.37 4.58 11.95 4.58 12.13 4.04" style="fill: #fff"/>
        <polygon points="12.13 6.47 12.31 7.01 12.89 7.01 12.42 7.36 12.6 7.91 12.13 7.57 11.66 7.91 11.84 7.36 11.37 7.01 11.95 7.01 12.13 6.47" style="fill: #fff"/>
        <polygon points="12.13 8.89 12.31 9.45 12.89 9.45 12.42 9.79 12.6 10.34 12.13 10 11.66 10.34 11.84 9.79 11.37 9.45 11.95 9.45 12.13 8.89" style="fill: #fff"/>
        <polygon points="12.13 11.32 12.31 11.88 12.89 11.88 12.42 12.21 12.6 12.77 12.13 12.43 11.66 12.77 11.84 12.21 11.37 11.88 11.95 11.88 12.13 11.32" style="fill: #fff"/>
        <polygon points="13.82 2.88 14 3.44 14.58 3.44 14.11 3.78 14.29 4.33 13.82 3.99 13.36 4.33 13.54 3.78 13.07 3.44 13.65 3.44 13.82 2.88" style="fill: #fff"/>
        <polygon points="13.82 5.32 14 5.87 14.58 5.87 14.11 6.21 14.29 6.75 13.82 6.42 13.36 6.75 13.54 6.21 13.07 5.87 13.65 5.87 13.82 5.32" style="fill: #fff"/>
        <polygon points="13.82 7.75 14 8.3 14.58 8.3 14.11 8.64 14.29 9.19 13.82 8.85 13.36 9.19 13.54 8.64 13.07 8.3 13.65 8.3 13.82 7.75" style="fill: #fff"/>
        <polygon points="13.82 10.18 14 10.73 14.58 10.73 14.11 11.07 14.29 11.62 13.82 11.27 13.36 11.62 13.54 11.07 13.07 10.73 13.65 10.73 13.82 10.18" style="fill: #fff"/>
        <polygon points="15.54 1.6 15.72 2.16 16.3 2.16 15.83 2.5 16 3.05 15.54 2.71 15.07 3.05 15.25 2.5 14.78 2.16 15.36 2.16 15.54 1.6" style="fill: #fff"/>
        <polygon points="15.54 4.04 15.72 4.58 16.3 4.58 15.83 4.92 16 5.48 15.54 5.13 15.07 5.48 15.25 4.92 14.78 4.58 15.36 4.58 15.54 4.04" style="fill: #fff"/>
        <polygon points="15.54 6.47 15.72 7.01 16.3 7.01 15.83 7.36 16 7.91 15.54 7.57 15.07 7.91 15.25 7.36 14.78 7.01 15.36 7.01 15.54 6.47" style="fill: #fff"/>
        <polygon points="15.54 8.89 15.72 9.45 16.3 9.45 15.83 9.79 16 10.34 15.54 10 15.07 10.34 15.25 9.79 14.78 9.45 15.36 9.45 15.54 8.89" style="fill: #fff"/>
        <polygon points="15.54 11.32 15.72 11.88 16.3 11.88 15.83 12.21 16 12.77 15.54 12.43 15.07 12.77 15.25 12.21 14.78 11.88 15.36 11.88 15.54 11.32" style="fill: #fff"/>
        <polygon points="17.23 2.88 17.41 3.44 17.99 3.44 17.52 3.78 17.7 4.33 17.23 3.99 16.76 4.33 16.94 3.78 16.48 3.44 17.05 3.44 17.23 2.88" style="fill: #fff"/>
        <polygon points="17.23 5.32 17.41 5.87 17.99 5.87 17.52 6.21 17.7 6.75 17.23 6.42 16.76 6.75 16.94 6.21 16.48 5.87 17.05 5.87 17.23 5.32" style="fill: #fff"/>
        <polygon points="17.23 7.75 17.41 8.3 17.99 8.3 17.52 8.64 17.7 9.19 17.23 8.85 16.76 9.19 16.94 8.64 16.48 8.3 17.05 8.3 17.23 7.75" style="fill: #fff"/>
        <polygon points="17.23 10.18 17.41 10.73 17.99 10.73 17.52 11.07 17.7 11.62 17.23 11.27 16.76 11.62 16.94 11.07 16.48 10.73 17.05 10.73 17.23 10.18" style="fill: #fff"/>
        <polygon points="18.94 1.6 19.13 2.16 19.7 2.16 19.23 2.5 19.41 3.05 18.94 2.71 18.48 3.05 18.65 2.5 18.19 2.16 18.76 2.16 18.94 1.6" style="fill: #fff"/>
        <polygon points="18.94 4.04 19.13 4.58 19.7 4.58 19.23 4.92 19.41 5.48 18.94 5.13 18.48 5.48 18.65 4.92 18.19 4.58 18.76 4.58 18.94 4.04" style="fill: #fff"/>
        <polygon points="18.94 6.47 19.13 7.01 19.7 7.01 19.23 7.36 19.41 7.91 18.94 7.57 18.48 7.91 18.65 7.36 18.19 7.01 18.76 7.01 18.94 6.47" style="fill: #fff"/>
        <polygon points="18.94 8.89 19.13 9.45 19.7 9.45 19.23 9.79 19.41 10.34 18.94 10 18.48 10.34 18.65 9.79 18.19 9.45 18.76 9.45 18.94 8.89" style="fill: #fff"/>
        <polygon points="18.94 11.32 19.13 11.88 19.7 11.88 19.23 12.21 19.41 12.77 18.94 12.43 18.48 12.77 18.65 12.21 18.19 11.88 18.76 11.88 18.94 11.32" style="fill: #fff"/>
        <rect width="46.35" height="27.04" style="fill: none"/>
      </g>
    </g>
  </g>
</svg>
