<svg xmlns="http://www.w3.org/2000/svg" viewBox="0 0 46.35 27.04">
  <title>venezuela</title>
  <g id="Layer_2" data-name="Layer 2">
    <g id="Layer_1-2" data-name="Layer 1">
      <g id="venezuela">
        <rect width="46.35" height="9.01" style="fill: #eed12f"/>
        <rect y="9.01" width="46.35" height="9.01" style="fill: #242ea7"/>
        <rect y="18.03" width="46.35" height="9.01" style="fill: #bd0034"/>
        <g>
          <polygon points="21.98 10.53 21.52 9.66 21.38 10.63 20.41 10.81 21.3 11.24 21.16 12.22 21.84 11.51 22.74 11.94 22.27 11.07 22.96 10.36 21.98 10.53" style="fill: #fff"/>
          <polygon points="24.97 10.63 24.83 9.66 24.37 10.53 23.39 10.36 24.08 11.07 23.61 11.94 24.51 11.51 25.19 12.22 25.05 11.24 25.94 10.81 24.97 10.63" style="fill: #fff"/>
          <polygon points="19.6 11.86 20 10.96 19.14 11.45 18.41 10.79 18.61 11.76 17.75 12.25 18.74 12.36 18.95 13.32 19.35 12.42 20.33 12.52 19.6 11.86" style="fill: #fff"/>
          <polygon points="27.61 12.36 28.6 12.25 27.74 11.76 27.95 10.79 27.21 11.45 26.35 10.96 26.75 11.86 26.02 12.52 27 12.42 27.41 13.32 27.61 12.36" style="fill: #fff"/>
          <polygon points="17.36 13.52 17.43 12.53 16.79 13.29 15.87 12.91 16.39 13.76 15.76 14.51 16.72 14.27 17.24 15.12 17.31 14.13 18.27 13.89 17.36 13.52" style="fill: #fff"/>
          <polygon points="29.64 14.27 30.59 14.51 29.96 13.76 30.48 12.91 29.57 13.29 28.93 12.53 29 13.52 28.08 13.89 29.04 14.13 29.11 15.12 29.64 14.27" style="fill: #fff"/>
          <polygon points="15.81 15.84 15.54 14.89 15.2 15.82 14.21 15.79 14.99 16.4 14.65 17.33 15.47 16.77 16.25 17.38 15.98 16.43 16.8 15.88 15.81 15.84" style="fill: #fff"/>
          <polygon points="31.36 16.4 32.14 15.79 31.15 15.82 30.81 14.89 30.54 15.84 29.55 15.88 30.37 16.43 30.1 17.38 30.88 16.77 31.7 17.33 31.36 16.4" style="fill: #fff"/>
        </g>
      </g>
    </g>
  </g>
</svg>
