<svg xmlns="http://www.w3.org/2000/svg" viewBox="0 0 60 57.79">
  <title>1</title>
  <g id="Layer_2" data-name="Layer 2">
    <g id="Layer_1-2" data-name="Layer 1">
      <g id="_1" data-name="1">
        <path d="M26.4,50c-.5-.07-1.26-.18-1.8-.3-.51.51-1.77,1.74-4.93,4.76l-1.13,1.09-.27-8.63a6.3,6.3,0,0,0-2.35-.7c-.94.38-4.55,1.76-5.74,2.21L8.72,49l3.07-8.05c-.3-.38-.74-.95-1-1.39-1.52,0-6.68-.13-6.91-.14l-1.56,0L8.15,33c-.13-.49-.32-1.28-.41-1.86-.67-.28-2.28-1-6.3-2.76L0,27.76l7.42-3.32A19,19,0,0,1,7,21.32c-.4-.41-1.34-1.41-3.63-3.91l-1-1.1,2.71-.13-2.6-3.74,0-.09c0-.13-1-3,.83-4.66l0,0,6.79-4.61a5.61,5.61,0,0,1,3.17-.63,21.37,21.37,0,0,1,3.79.39C18.06,2.2,22,0,25.81,0a7.9,7.9,0,0,1,4.06,1,7.19,7.19,0,0,1,4-1A19.68,19.68,0,0,1,43,2.82l.09,0a12.23,12.23,0,0,1,3.12-.41,13.49,13.49,0,0,1,2.8.31l.15,0,.11.08c1.34,1,7.1,4.78,7.16,4.82s1.72,1.25,1.13,4.25l0,.15-.08.12c-1.07,1.48-2.2,3.13-2.82,4.12l3,.3-4.87,5.08c-.1.82-.27,2.15-.37,2.92L60,27.94l-7.82,3.47c-.14.95-.24,1.53-.32,1.88l5.83,6.06-8.56.2a13.28,13.28,0,0,1-1,1.64l3,7.92-7.5-2.9a7.49,7.49,0,0,0-1.9.67l-.29,8.66-6.19-5.9c-.47.11-1.22.28-1.8.36l-3.53,7.79Z" style="fill: #7e7e7e"/>
        <path d="M53.49,16.85l2.63.26-4,4.22s-.42,3.45-.47,3.65l6.66,3-6.73,3s-.36,2.47-.45,2.57l5,5.2-7.38.17A11.29,11.29,0,0,1,47.28,41l2.61,6.86-6.23-2.4a7.3,7.3,0,0,0-2.65,1L40.76,54l-5.34-5.09a16.47,16.47,0,0,1-2.47.47L29.9,56.07l-3-6.75a19.31,19.31,0,0,1-2.5-.44c-.16.23-5.19,5-5.19,5L19,46.49a6.35,6.35,0,0,0-3.14-1c-.29.15-5.88,2.27-5.88,2.27l2.66-7a19.43,19.43,0,0,1-1.42-2c-.17,0-7.29-.13-7.29-.13l5-5.46a19.11,19.11,0,0,1-.52-2.54c-.19,0-6.67-2.91-6.67-2.91l6.49-2.91a19.7,19.7,0,0,1-.5-3.8c-.19-.14-3.83-4.11-3.83-4.11l2.49-.12L3.1,12.12s-.86-2.58.63-3.9l6.76-4.59s1.46-1.1,6.7-.08c.48-.32,7.92-4.94,12.72-1.66,0,0,3.53-3.57,13,1.66a12.36,12.36,0,0,1,6-.18C50.22,4.34,56,8.2,56,8.2s1.34.94.84,3.53A59.23,59.23,0,0,0,53.49,16.85Z" style="fill: #2c2a2b"/>
        <polygon points="5.22 17.49 7.84 20.17 7.87 19.76 5.78 17.73 7.36 18.45 6.96 17.49 5.22 17.49" style="fill: #fff"/>
        <polygon points="9.27 27.67 8.63 25.38 3.21 27.7 9.04 30.26 9.1 29.79 3.72 27.73 9.27 27.67" style="fill: #fff"/>
        <path d="M9.61,33.51,5.18,38.06l6.39.08v-.46l-5.62.07,5-2S10,33.61,9.61,33.51Z" style="fill: #f6f6f6"/>
        <path d="M13.18,41l-2.24,5.71,4.87-1.93-.33-.38-4.13,1.9,3.17-3.21A20.68,20.68,0,0,0,13.18,41Z" style="fill: #fff"/>
        <path d="M19.67,46.22v6.43l4.62-4.46-.42-.33L19.94,52.1l2.12-5.19A16,16,0,0,0,19.67,46.22Z" style="fill: #fff"/>
        <path d="M27.32,48.76l2.58,5.93,2.55-5.9-.54-.1L29.9,54l0-5.49A10.13,10.13,0,0,0,27.32,48.76Z" style="fill: #fbfbfb"/>
        <path d="M35.67,48.19l4.57,4.45.11-6.41-.51,0,.23,5.91-2.22-5.22A10.39,10.39,0,0,0,35.67,48.19Z" style="fill: #fcfcfc"/>
        <path d="M43.92,44.94l5,2-2.33-6.07a11.82,11.82,0,0,1-1.36,2.38l3.18,3.16-4.28-1.85Z" style="fill: #fefefe"/>
        <polygon points="48.43 38.19 54.8 38.2 50.34 33.51 49.08 35.8 54.16 37.93 48.45 37.79 48.43 38.19" style="fill: #fcfefe"/>
        <polygon points="50.74 27.95 56.22 28.01 50.84 30.03 50.98 30.47 56.78 27.98 51.1 25.49 50.74 27.95" style="fill: #fcfefe"/>
        <polygon points="51.91 20.56 54.79 17.63 52.78 17.6 52.38 18.62 54.2 17.84 51.88 20.01 51.91 20.56" style="fill: #fcfcfc"/>
        <path d="M10.74,4.74S4.55,8.79,4.39,9s-.87,2.12-.3,2.8A32,32,0,0,1,8,17.61s3.22-4.95,3.56-9.85c0,0-1.14,4-2.21,5.08A21.83,21.83,0,0,0,11,6.69c.52-.05,3.57-.08,3.57-.08l1.83-2.26s-4.39-.46-5,0" style="fill: #7e7e7e"/>
        <path d="M49.21,4.86s6.19,4.05,6.35,4.26.86,2.11.29,2.79A31.73,31.73,0,0,0,52,17.73s-3.23-5-3.57-9.85c0,0,1.15,4,2.22,5.08A22.08,22.08,0,0,1,49,6.8c-.51,0-3.57-.07-3.57-.07L43.6,4.46s4.38-.45,5,0" style="fill: #7e7e7e"/>
        <path d="M51.06,19.67S48.7,10.41,42.3,4.4C41.6,4.1,34.18-.42,29.88,3c0,0-4.08-3.43-12.51,1.44A35.81,35.81,0,0,0,8.64,20s.21,5.53,2.48,9.57a28.77,28.77,0,0,1,6.23-11.26s-1.06-.41-1.23-2.87a3.68,3.68,0,0,0,2.12,2.11A10.79,10.79,0,0,1,21.08,16a7.45,7.45,0,0,1-4.73-1.83,5.29,5.29,0,0,1,2.58-2.81s2.53,2.74,5.16,2.83a5.2,5.2,0,0,0,1.8-1.92,3.33,3.33,0,0,1-.72,2.14,4.26,4.26,0,0,0,2.39-4.07,10.21,10.21,0,0,1-6-3.13,8.48,8.48,0,0,0-4.93,1.67S19.16,6.39,22,6.35c0,0,1.14,2,5.9,3.35l1.19-1.81s-.25,2-.73,2.44c0,.29,0,2.25-.85,3.11,0,0,.66.69,2.6.56a3.49,3.49,0,0,0,2.18-.64,5.09,5.09,0,0,1-.86-3.16,9.76,9.76,0,0,1-.65-2.33A9.14,9.14,0,0,0,32,9.64a11.24,11.24,0,0,0,5.91-3.3,9.08,9.08,0,0,1,5.27,2.48,7.92,7.92,0,0,0-4.89-1.58,11,11,0,0,1-6.09,3.08,4.44,4.44,0,0,0,2.55,4.08A3.05,3.05,0,0,1,34,12.46s1.2,2.09,2.47,1.68,1.89-.58,4.49-2.83a6.08,6.08,0,0,1,2.64,2.81,7.3,7.3,0,0,1-4.84,1.81s1.82.94,2.93,1.67a3.8,3.8,0,0,0,2-2,4.17,4.17,0,0,1-1.14,2.81s3.52,3,6.18,11.25C48.73,29.62,51.6,24.56,51.06,19.67Zm-39.83,8s-.39-2.85,2-7.68c0,0-2.11-4.73,1.36-8.33,0,0-2.41,5.13.52,8.2A24.66,24.66,0,0,0,11.23,27.7ZM23.72,4.05a11.44,11.44,0,0,0-3.38.44,7.39,7.39,0,0,1,3.88-1.25s1,1.69,4.41,4C28.63,7.28,24.79,5.65,23.72,4.05Zm12.54,0c-1.07,1.6-4.91,3.22-4.91,3.22,3.44-2.35,4.41-4,4.41-4a7.36,7.36,0,0,1,3.88,1.26A10.81,10.81,0,0,0,36.26,4.1ZM48.63,27.75a24.43,24.43,0,0,0-3.86-7.81c2.94-3.07.53-8.21.53-8.21,3.47,3.6,1.36,8.34,1.36,8.34C49,24.89,48.63,27.75,48.63,27.75Z" style="fill: #7e7e7e"/>
        <path d="M19.15,13.35a6.9,6.9,0,0,0,2.55,1.78C21.19,15.61,17.86,15.83,19.15,13.35Z" style="fill: #ededed"/>
        <path d="M40.62,13.33a6.9,6.9,0,0,1-2.55,1.78C38.58,15.59,41.91,15.81,40.62,13.33Z" style="fill: #ededed"/>
        <path d="M12.24,31a13.7,13.7,0,0,0,4.83,6.45s.22-6.8,2.9-11.19a9.79,9.79,0,0,1,.56-6.89s1.37,3.16,3.3,4.26c0,0,2.89-1.54,5.13-1.36.31-.18,1.84-1.8-.48-3,.17-.35.83-1.23,0-1.41C28,17.7,27.55,18,26.9,19a2.19,2.19,0,0,1-.71-1.35l.88-1A35.07,35.07,0,0,0,23,17.79s6.71-4.35,13.82-.05c0,0-3-.87-4.17-1l.92,1s-.26,1-.74,1.27c0,0-.53-1.49-1.63-1.18-.3.4-.35.66,0,1.4a1.75,1.75,0,0,0-.39,3,19.82,19.82,0,0,1,5.22,1.41s1.66-.66,3.33-4.26c0,0,1.41,2.19.66,7,0,0,2.41,2.76,2.76,11.06,0,0,2.42-.79,4.92-6.41,0,0-.53,8.56-4.92,13-1.36,1-4.78.92-4.78.92a10,10,0,0,0,5.09-.3s5.18-4.52,5.22-14.22c-.25-.79-2.1-7.72-6.84-12.23A24.4,24.4,0,0,0,30.06,14.8a22.66,22.66,0,0,0-11.25,3.25c-2.57,2.28-5,5.75-7.27,12.59.09,2,.48,9.17,5.13,14.09a10.49,10.49,0,0,0,5.53.17s-4.25-.09-5.13-.66A22.4,22.4,0,0,1,12.24,31Z" style="fill: #7e7e7e"/>
        <path d="M20.69,21.49A9.46,9.46,0,0,0,22.84,24a11.15,11.15,0,0,0-2.26,1.63A16.93,16.93,0,0,1,20.69,21.49Z" style="fill: #fff"/>
        <path d="M39.06,21.54A9.86,9.86,0,0,1,36.91,24a11.74,11.74,0,0,1,2.26,1.62A16.85,16.85,0,0,0,39.06,21.54Z" style="fill: #fff"/>
        <path d="M27.19,17.08a7.48,7.48,0,0,1,5.5,0A4.18,4.18,0,0,0,30,16.18,4.53,4.53,0,0,0,27.19,17.08Z" style="fill: #ececec"/>
        <path d="M39.09,26.6c-1.66-1.7-4.45-3.07-9-3.59,0,0-6.21.2-9.51,3.82-.87,2.09-1.55,4.92-1,10.36,0,0,1,5.27,4.18,7.84l1.5.18a4.5,4.5,0,0,1-1.67-.79,14.81,14.81,0,0,1-3.63-7.21,5.81,5.81,0,0,0,1.81,2.38A22.93,22.93,0,0,1,20.56,34S22.14,41.76,27,45.3c1.38.5,4.71,1,6.45-.55a19.58,19.58,0,0,0,5.73-10.67,20.75,20.75,0,0,1-1.14,5.51A5.11,5.11,0,0,0,40,37.33s-1.13,4.57-3.5,6.81a2.92,2.92,0,0,1-1.83,1,2.38,2.38,0,0,0,2.26-1s2-1.69,3.3-7C40.22,37.15,41.13,30.93,39.09,26.6ZM30,26a16.17,16.17,0,0,1,6.94,1.6s-3.38-1.14-13.74-.1A15.4,15.4,0,0,1,30,26Zm2.94,18.62c-2.43,1.24-5.78.1-5.78.1-1.54-.42-4.63-6.28-4.63-6.28C24.8,42.76,30,42.28,30,42.28c5.38.1,7.18-3.6,7.18-3.6A17.33,17.33,0,0,1,32.92,44.65Z" style="fill: #7e7e7e"/>
      </g>
    </g>
  </g>
</svg>
