<svg xmlns="http://www.w3.org/2000/svg" viewBox="0 0 60 33.6">
  <title>10</title>
  <g id="Layer_2" data-name="Layer 2">
    <g id="Layer_1-2" data-name="Layer 1">
      <g id="_10" data-name="10">
        <g>
          <path d="M59.06,8.32s-.19,5.12-4.65,6.33c0,0-1.13,3.64-2.77,5.17A2,2,0,0,1,52.71,21a2.7,2.7,0,0,0,.66-.89.53.53,0,0,1,.84,0s.49.34.6,1.61l.15.68-4.28,1.2-6.46.24L39.09,23,35.6,21.48l-3.18-1-3.7.62-2,.82-3.94,2.15L21,24.46l-2.56-.59-2.16-.82-3,.55H11.59L11,22.06l0-3.95,2-2.25,1.91-.59,2.29,0,3.29.6,4.34.4,2.43-.65L29.1,15l1.06-.85,3.9-2.5,3.69.14,4.11.89,3.42-.55,3.52-1.47,3.42-.6,2.19.56H57l1.44-1.43S58.62,8,59.06,8.32Z" style="fill: #00175a"/>
          <path d="M12.92,16.28s-2.44,1.46-1.4,5.38c0,0,.27-.09.38-.11s.55-2.93,2.24-2.77c1.17.1.4,1.81,1.45,2.54.3-.64.43-2.38,2-2.3a.9.9,0,0,1,.37.17c.44.3-.31,1.33,1.2,3.58,1.61-.81.9-2,1.24-2.47,0,0,1.56-1.6,2.63,2.95.55-.31,1.25-.68,1.25-.68a4.43,4.43,0,0,0,.89-3s-.07-1.11,1.13-.65a8.64,8.64,0,0,1,1.91,1.51,5.45,5.45,0,0,1,1.54-.5,2.54,2.54,0,0,0,1-2.46s0-1.2,1.42-.53c1.07.67,1.59,1.2,2.83,3.54l.4.17a3.39,3.39,0,0,0,1.9-2.42c.2-.59,1-.78,1.65.18.36.79.79,1.06.91,4.07,3-1,4-2.61,4.18-3-.53-.2-6.61-3.26-9.45-3.61a3.27,3.27,0,0,1-1.41.71c-.55,0-.84-.44-1-1-.1,0-1.35-.12-1.35-.12a4.9,4.9,0,0,1-1.66,2.85c-.29.22-1.39,1.11-1.83-.26.24-1-.08-1.7-.23-1.66s-.55.13-.59.21a4.78,4.78,0,0,1-2.81,3.16c-1.63.26-1.12-.81-1-1.17A8.44,8.44,0,0,0,23,17.12l-.46,0A6,6,0,0,1,19.31,19c-.55.1-1.12.18-1.08-.91a6.5,6.5,0,0,0,.65-2,10.14,10.14,0,0,0-1.84-.5,5.22,5.22,0,0,0-.71,2.6s-.55,1.14-2.17-.1A4.72,4.72,0,0,1,12.92,16.28Z" style="fill: #fb451f"/>
          <path d="M16.59,32.69c-6.34-.24-9.68-3-11.37-4.82A9,9,0,0,1,3,23.35,13.61,13.61,0,0,1,5.39,13.19a12.4,12.4,0,0,1,3.19-3,5.61,5.61,0,0,1,1-3.71l0-.06.3-.56a6,6,0,0,1,.32-3.23l0,0,0,0A5,5,0,0,1,14.91.07a8.3,8.3,0,0,1,.87,0,5.76,5.76,0,0,1,2.86,1.22h.95a12.42,12.42,0,0,1,5.56,1.37,52.71,52.71,0,0,1,7.53.74,36.42,36.42,0,0,0,5.4.56h.57a19.48,19.48,0,0,0,2.76-.38l1.11-.28A9.32,9.32,0,0,1,48.58.82l.5,0a3.62,3.62,0,0,1,1.14.27l.31-.18A5.73,5.73,0,0,1,53.39,0a3,3,0,0,1,2.88,2.07,1.53,1.53,0,0,0,.24.29,2.39,2.39,0,0,0,.82.49A5.77,5.77,0,0,1,59.18,4l0,0A2.52,2.52,0,0,1,60,5.9a3.61,3.61,0,0,1-1.08,2.35A4,4,0,0,1,56,9.66a2.67,2.67,0,0,1-.64-.07,11.19,11.19,0,0,0-1.9-.14c-.43,0-.82.56-1.14.6l0,.55h0a5.68,5.68,0,0,0-2.59.6,18.13,18.13,0,0,1-4.63,2,6.66,6.66,0,0,1-2.43.29,11,11,0,0,1-1.17-.13,51.38,51.38,0,0,1-5-1.28,3.19,3.19,0,0,0-.86-.12,5.72,5.72,0,0,0-1,.1H34.4a26.21,26.21,0,0,0-4.48,2.71,11.45,11.45,0,0,1-6.71,2.29A7.66,7.66,0,0,1,21.87,17a14.49,14.49,0,0,1-2.49-.7c-.45-.16-.88-.31-1.38-.44l-1.06-.22-.22-.05a5.19,5.19,0,0,0-1.07-.1A4.17,4.17,0,0,0,12,17.3a5.67,5.67,0,0,0-.46,4.33v0A8.42,8.42,0,0,1,14,21.31a8.82,8.82,0,0,1,1.95.2,5.89,5.89,0,0,1,1.78.79l.09.05.08.06a9.33,9.33,0,0,0,1.77,1.26l0,0h0a2.83,2.83,0,0,0,1.21.29,2.79,2.79,0,0,0,1.12-.24l.05,0h0c.44-.18,3.27-1.74,5.78-3.15l.05,0,0,0a8.21,8.21,0,0,1,3.45-.78,13.6,13.6,0,0,1,5.82,1.71,15.73,15.73,0,0,0,3.51,1.34,44.58,44.58,0,0,0,6,.45c4.46,0,6.49-.89,7.26-1.22l.22-.1a3.16,3.16,0,0,1,1.22-.32,1.39,1.39,0,0,1,1.17.59,2,2,0,0,1,0,1.88c-1.3,3.61-5.73,5.34-5.92,5.36l-.08,1.18h-.07c-1.22,0-2.07-1.22-2.9-1.27s-1.74-.69-3-.69c-.86,0-1.82-.27-2.93-.22l-.08-.14-.07-.08c-1.25-.1-2.27-.23-2.81-.31a92.29,92.29,0,0,1-10.33.52c-1.06,0-1.86.89-2.31.88a33,33,0,0,1-9.53,4.31h0Z" style="fill: #00175a"/>
          <path d="M58.34,4.93c-1.14-1.06-1.83-.85-2.69-1.69a3.09,3.09,0,0,1-.52-.67S54.54,0,51.16,2C52,3,52.85,4.08,53.44,4.3c0,0,1.71-.41,1.67.2-.36.25.54.57-.07.78A3,3,0,0,1,53.74,5a12,12,0,0,1-3.61-2.58A2.73,2.73,0,0,0,49,2.07s-2.91-.43-6,2.55a6.37,6.37,0,0,1-2.49,1.84c-.3.07-1.1.3-.48-.21a6.14,6.14,0,0,0,1.73-1.43,19,19,0,0,1-3,.42C34.61,5.4,30.47,4,24.82,4a10.55,10.55,0,0,0-5.25-1.37,15.21,15.21,0,0,0,3,2.59s.71.51,0,.42c0,0-.83,0-3.55-2.32-.41-.4-2-1.86-3.35-1.92-1.13-.14-3.34-.07-4.35,1.81a4.78,4.78,0,0,0,.32,4.05c.28.55.16.66-.06.49s-.46-.36-.92-.68c-.13.24-1.94,2.68,0,4.68.28.35-.1.38-.18.3a4.68,4.68,0,0,1-1.1-.9S3.09,14.4,4.2,23c0,0,1,7.17,12.43,7.59a19.52,19.52,0,0,0,9.22-3.42,97.17,97.17,0,0,0,13-.51c.42.07,1.52.18,2.89.29,5.16-.2,5.71.12,8.93.14,0,0,3.84-.46,4.9-3.39.38-1.06,0-.92-.82-.6s-4.41,2.3-14.17.94c-3.95-.75-7.32-4.55-12.06-2.36,0,0-5.46,3.07-6,3.24a3.89,3.89,0,0,1-3.37-.06,9.63,9.63,0,0,1-2.08-1.45,5.54,5.54,0,0,0-1.42-.65,8.11,8.11,0,0,0-4,.2,4.94,4.94,0,0,0-1.93,1.36C8.57,25.5,7.9,25,7.8,23.68a6.22,6.22,0,0,1-.86-4.12,7.32,7.32,0,0,1,1.93-3.18c.79-.84.61-.08.45.16a22.36,22.36,0,0,0-1.5,2.95c-.25,1.87.62,2.49,1,3.79,0,0,1.27-1,1.48-1.25a6.91,6.91,0,0,1,.57-5.38c1.56-2.51,4.58-2.57,6-2.26l1.31.28c1.37.33,2.12.81,3.82,1.12a9.55,9.55,0,0,0,7.1-2s3.91-2.75,5-2.92a5.81,5.81,0,0,1,2.51,0s4,1.13,4.82,1.21a6.51,6.51,0,0,0,3.07-.29,30.4,30.4,0,0,0,4.44-2.23,12.1,12.1,0,0,1,3.16-1.31,14.06,14.06,0,0,1,3.42.11,2.56,2.56,0,0,0,2.38-1S59.46,6,58.34,4.93Zm-36,2.52a3.89,3.89,0,0,1-1.23.33,6.34,6.34,0,0,1-5.81,2.66c-1.26-.17-.71-.44-.51-.46a3.88,3.88,0,0,0,2.53-.62s-3.6.27-2.37-4.83a3.5,3.5,0,0,0-1.27.39c-.47.19-.32-.3,0-.53s1.72-1.6,3-.3S18.09,6.17,20.34,7c0,0,.41.25,2,0C22.35,7,22.87,7,22.35,7.45ZM51.28,6.33A4.72,4.72,0,0,1,49.69,6c-.45-.17-1-.73-1.45-.83-.16,0-1.48,1.54-2.42,1.31-1.09-.7.89-1.83,1.59-2.11,0,0,1.11-.22,1.46.16a3.31,3.31,0,0,0,2.32,1.36S52.19,6.18,51.28,6.33Z" style="fill: #008337"/>
          <path d="M15.8,5.26s-1.13,2.37.68,3.25a2.57,2.57,0,0,0,3.22-.76s-1.16-.6-1.31-.7a1.85,1.85,0,0,1-1.56.8c-.55-.28.57-.53.54-1.49A4.87,4.87,0,0,0,15.8,5.26Z" style="fill: #feffff"/>
          <path d="M56.37,9.67a3.06,3.06,0,0,0,1.84-.76c.16.7-1.53,4.17-3,4.74-1,.4-.7-.17-.53-.41A8.19,8.19,0,0,0,56.37,9.67Z" style="fill: #fff"/>
          <path d="M53.34,9.44a11.63,11.63,0,0,1,2.24.21c.21.17-1.46,4.13-3.22,5.3,0,0-.76.47-.52-.25A11.93,11.93,0,0,0,53.34,9.44Z" style="fill: #fff"/>
          <path d="M48.32,11.42s3.51-2.08,4.16-1.93a8.63,8.63,0,0,1-3.26,6.73s-1.28,1.09-1.07-.33A18.67,18.67,0,0,0,48.32,11.42Z" style="fill: #fff"/>
          <path d="M43,13.4a7.71,7.71,0,0,0,3.6-1.11,7.28,7.28,0,0,1-2.24,4.19c-.23.17-1.06.94-1.17-.09A7,7,0,0,0,43,13.4Z" style="fill: #fff"/>
          <path d="M37.76,12.47s2.84.75,3.35.84a4,4,0,0,1-2.52,2.6c-.16.05-1.11.4-.87-.51A8.19,8.19,0,0,0,37.76,12.47Z" style="fill: #fff"/>
          <path d="M32.16,13.33a16,16,0,0,1,2-1.14,4.41,4.41,0,0,1,1.41-.2,4.12,4.12,0,0,1-1.76,3.68c-.19.11-.8.44-.79-.18A2.45,2.45,0,0,0,32.16,13.33Z" style="fill: #fff"/>
          <path d="M27.82,16.06a14.45,14.45,0,0,0,2.49-1.51A4.32,4.32,0,0,1,28.79,18c-.08.06-.66.48-.72-.07A2.93,2.93,0,0,0,27.82,16.06Z" style="fill: #fff"/>
          <path d="M23.62,17.1a11.37,11.37,0,0,0,2.29-.34,4.54,4.54,0,0,1-2,2.4c-.15.07-.79.3-.66-.25A5.44,5.44,0,0,0,23.62,17.1Z" style="fill: #fff"/>
          <path d="M19.56,16.37a17.69,17.69,0,0,0,2.23.62,5.44,5.44,0,0,1-2.24,1.46c-.18.05-1,.29-.76-.36A6.62,6.62,0,0,0,19.56,16.37Z" style="fill: #fff"/>
          <path d="M13.57,15.91a4.87,4.87,0,0,1,2.79-.37,4.26,4.26,0,0,0-.56,2.36s0,.58-.91.14A3.24,3.24,0,0,1,13.57,15.91Z" style="fill: #fff"/>
          <path d="M14.88,21.36a7.82,7.82,0,0,0-2.33.07,3.86,3.86,0,0,1,1.08-2s.46-.44.7.11A15.83,15.83,0,0,0,14.88,21.36Z" style="fill: #fff"/>
          <path d="M18.59,23a6.18,6.18,0,0,0-2.43-1.41A4,4,0,0,1,17,19.67c.54-.47.51.18.5.25A7,7,0,0,0,18.59,23Z" style="fill: #fff"/>
          <path d="M22.45,23.57a2.87,2.87,0,0,1-3.05,0c1.52-1,1.53-2.12,1.48-2.4s.14-.75.59-.3A4.24,4.24,0,0,1,22.45,23.57Z" style="fill: #fff"/>
          <path d="M27.61,20.73,25.3,22a5.56,5.56,0,0,0,.44-2.35s-.08-.6.43-.22A7.21,7.21,0,0,1,27.61,20.73Z" style="fill: #fff"/>
          <path d="M34.16,20.16a9,9,0,0,0-3.31-.41,2.8,2.8,0,0,0,.57-2.06c0-.32.06-.49.49-.25A9.86,9.86,0,0,1,34.16,20.16Z" style="fill: #fff"/>
          <path d="M39.08,22.26s-2-.91-2.9-1.32a3.16,3.16,0,0,0,1.63-2.09s.25-.64.56-.07A8,8,0,0,1,39.08,22.26Z" style="fill: #fff"/>
          <path d="M45.07,23.18s-2.67-.12-3.79-.34c3-1.31,3-2.48,3.24-2.73s.42-.46.61,0A19.6,19.6,0,0,1,45.07,23.18Z" style="fill: #fff"/>
          <path d="M45.94,20.05A9.66,9.66,0,0,1,46,22.47a5.39,5.39,0,0,0,2.08-1.8" style="fill: #fb451f"/>
          <path d="M50,23.06a31.58,31.58,0,0,1-3.69.17A10.63,10.63,0,0,0,48.74,21c.75-1.09,0,0,0,0a9,9,0,0,0,.58-.9c.36-.49.64,0,.66.21S50,22.41,50,23.06Z" style="fill: #fff"/>
          <path d="M52,22.69a13.19,13.19,0,0,1-1.38.27,9.83,9.83,0,0,0,.09-1.41c.47-.41.5-.94.77-.93,0,0,.53-.16.61.72A5.93,5.93,0,0,1,52,22.69Z" style="fill: #fff"/>
          <path d="M54.26,21.92s-.43.2-1.61.61a5,5,0,0,0,.12-.69,2.52,2.52,0,0,0,.83-1.15c.18-.33.38-.16.47,0A3.46,3.46,0,0,1,54.26,21.92Z" style="fill: #fff"/>
        </g>
        <path d="M6.44,11.18C6.38,11.11,5,9.43,5.53,7.82,5.92,6.74,7.05,6,8.9,5.7l1.73-.31L8.91,6.78A8,8,0,0,0,7.48,9.7V10L6.24,11.7Z" style="fill: #00175a"/>
        <path d="M3.21,14.92c-.06-.19-.11-.37-.17-.53-.42-1.27-.72-2.19-.24-3s1.61-1.06,3.26-1.29L6.77,10l.48,1.25A8.9,8.9,0,0,0,4.49,15l-.71,1.69Z" style="fill: #00175a"/>
        <path d="M6.16,10.81C2.47,11.3,3,12,3.87,14.71a9.28,9.28,0,0,1,3-4Z" style="fill: #008337"/>
        <path d="M8.12,9.7A6.5,6.5,0,0,1,9,6.37C4,7.26,7,10.73,7,10.73Z" style="fill: #008439"/>
        <path d="M2.21,21.35C.66,20.3-.08,19.2,0,18.1s1-2,2.59-2.81l.07,0,2.52-1.32L3.87,16c-.05.12-.5,1.24-.59,4.77l0,1.25Z" style="fill: #00175a"/>
        <path d="M3,15.85c-.22.14-4.85,1.92-.41,4.94.1-4.06.66-5.07.66-5.07Z" style="fill: #008337"/>
      </g>
    </g>
  </g>
</svg>
