<svg xmlns="http://www.w3.org/2000/svg" viewBox="0 0 60 60">
  <title>11</title>
  <g id="Layer_2" data-name="Layer 2">
    <g id="Layer_1-2" data-name="Layer 1">
      <g id="_11" data-name="11">
        <circle cx="30" cy="30" r="30" style="fill: #7f7f7f"/>
        <path d="M13.55,26.31a3.09,3.09,0,0,0,.53-1.26,4.08,4.08,0,0,1,1.16-2.52,1.15,1.15,0,0,1,1.58-.24c.17.1.32.22.52.36-.32-1-1-1.31-1.75-.81s-1.54,1.09-2.3,1.66c-.32.24-.31.47,0,.75s.37.3.53.47a.45.45,0,0,1,0,.71A.81.81,0,0,0,13.55,26.31Zm5-2.95A1.48,1.48,0,0,0,17.6,23,1,1,0,0,0,18.54,23.36ZM31.07,51.93H29.65c0-.17-.35-.07-.32-.34a3,3,0,0,1,1.16-1.49.76.76,0,0,0,.62-.77,1,1,0,0,1,.28-.6,3.1,3.1,0,0,1,.68-.51,7.82,7.82,0,0,0,1.81-1.43,2,2,0,0,0,.61-1.44,7.44,7.44,0,0,1,.06-1.49c0-.2.12-.43,0-.62a8.48,8.48,0,0,0-2.74-3.37,3.59,3.59,0,0,1-1-.79c-.26-.31-.46-.25-.68,0a3.65,3.65,0,0,0-.26.32,5.59,5.59,0,0,0-.71,2.94,1.12,1.12,0,0,0,.14.46,1,1,0,0,1-.58,1.49,9.22,9.22,0,0,0-2.58,1.53c-.36.27-.71.54-.7,1.07,0,.17-.11.43-.29.4s-.19,0-.24.07c-.25.5-.76.51-1.22.72.07-.2.14-.34.18-.49s.06-.27-.08-.33-.21.06-.3.16a1.44,1.44,0,0,0-.47,1.07c0,.37-.2.53-.55.61a9.45,9.45,0,0,1-2.59.24c-.43,0-.47-.06-.21-.4a4.46,4.46,0,0,1,2.08-1.85A.72.72,0,0,0,22,47c.34-.27.33-.34-.07-.51a1.59,1.59,0,0,1,1.25-.84,3.2,3.2,0,0,0,1.57-.72,12.62,12.62,0,0,0,1.73-1.54,3.15,3.15,0,0,0,.4-2.56,8,8,0,0,1-.91-3,2.56,2.56,0,0,1,.67-2.35,1.6,1.6,0,0,0,.37-.76c.07-.22,0-.32-.2-.41a20.88,20.88,0,0,1-3-1.58,8.55,8.55,0,0,1-2.81-2.64,21.58,21.58,0,0,1-1.75-3.5.41.41,0,0,0-.43-.31,1.49,1.49,0,0,1-1.17-.39,1.06,1.06,0,0,0-1.72.17c-.53.77-1,1.56-1.52,2.35-.21.33-.12.55.24.71a2.4,2.4,0,0,0,.8.14c.45.05.51.17.28.54a.46.46,0,0,0-.08.38c.08.45.41.38.72.36.74,0,.74,0,1,.68a.25.25,0,0,0,0,.07,5.49,5.49,0,0,1,.1,2.76c0,.13,0,.39-.29.22-.75-.46-1.56-.86-1.87-1.78-.08-.23-.29-.44-.5-.37-.37.13-.51-.08-.7-.37,0,.26,0,.45,0,.65a.33.33,0,0,1-.21-.19,13.26,13.26,0,0,0-1.06-1.78,1.41,1.41,0,0,1-.21-.56,2.55,2.55,0,0,0-.32-1,2,2,0,0,1,0-1.53c0-.09.1-.25,0-.26-.34,0-.3-.33-.43-.55-.09.21-.16.38-.25.57a1.19,1.19,0,0,1-.17-.68,2.78,2.78,0,0,0-.15-.95,2.66,2.66,0,0,1,.8-3c.45-.41.91-.81,1.34-1.24a3.79,3.79,0,0,0,1-1.07,3.88,3.88,0,0,1,2-1.89,1.09,1.09,0,0,1,1.48.38,3.11,3.11,0,0,1,.51,1c.12.39.45.54.76.72.12.06.18,0,.23-.11A3.17,3.17,0,0,1,20.67,19a.84.84,0,0,0,.34-.28,4.18,4.18,0,0,1,3-2,7,7,0,0,0,2.31-.81,1.56,1.56,0,0,0,.8-1.07c0-.07.08-.19,0-.21-.27-.07-.48-.34-.78-.27a7.28,7.28,0,0,0-1.45.49,1.8,1.8,0,0,0-.67.56,2.7,2.7,0,0,1-1.18.8c-.1,0-.24,0-.36,0-.32,0-.59-.19-.88-.2a.64.64,0,0,1-.63-.42,3.8,3.8,0,0,0-.38-.68.57.57,0,0,1,.06-.78,13.1,13.1,0,0,1,1.32-1.26,1,1,0,0,0,.29-.29,7.06,7.06,0,0,1,.93-1.26c.08-.09.19-.16.18-.31a1.12,1.12,0,0,1,.69-1.06L25,9.55c-.69-.53-.84-.49-1.38.28a.71.71,0,0,1,.76-1.05c.39,0,.4,0,.24-.37A6.62,6.62,0,0,1,24,7c0-.1-.11-.22,0-.29s.18.08.26.15l.48.52A1.43,1.43,0,0,1,25.69,6h.15c0,.17-.11.23-.2.33a.92.92,0,0,0-.28.84c.72-.89,1.43-1.18,2.17-.88l-.1.05c-.6.23-.6.23-.32.79l.13.3c.53-.82,1.08-1.17,1.58-1-.25.17-.51.32-.5.7l.16-.07a2.4,2.4,0,0,1,2.89.11.58.58,0,0,0,.53.07,1.61,1.61,0,0,1,1.64.57c.12.16.19.14.34,0a1.5,1.5,0,0,1,1.8,0,1,1,0,0,0,1.27.1,6.7,6.7,0,0,0,.6-.45A1.26,1.26,0,0,1,36.1,8.72,7.8,7.8,0,0,1,35,8.43c-.51-.09-.81.16-.82.71a1.42,1.42,0,0,1,1.85.17c.14.14.25.31.38.46s.36.54.65.37.21-.53.06-.83l0,0a1,1,0,0,1,.59.88c0,.37-.23.53-.54.62a4.55,4.55,0,0,1-1.17.1,9.28,9.28,0,0,1,.91.4A1.83,1.83,0,0,1,38,13.34c-.09.66,0,.83.72.94a1.15,1.15,0,0,1,1,.77.64.64,0,0,1-.14.76.73.73,0,0,1-.75.12.26.26,0,0,1,.12-.09c.12-.06.29-.1.28-.26s-.15-.21-.27-.27a2.4,2.4,0,0,0-1-.24c-.15,0-.22,0-.23.21a2.28,2.28,0,0,0,.34,1.42A.88.88,0,0,0,39.4,17c.19-.13.36-.3.58-.48a2.88,2.88,0,0,1-.5,1.14,1.3,1.3,0,0,1-1,.39l.14.26a1.25,1.25,0,0,1-.07,1.81c-.07.09-.26.17-.08.34s.32.28.56.13a.84.84,0,0,0,.29-.38,2.86,2.86,0,0,0,.19-1.1,1.75,1.75,0,0,1-.22,2.13.74.74,0,0,1-1.06-.11,4.23,4.23,0,0,0-.34-.4.94.94,0,0,0-.93-.25A1.31,1.31,0,0,1,37.73,22a.56.56,0,0,0,.4.64.91.91,0,0,1,.54,1.15.94.94,0,0,1-1.16.42,3.64,3.64,0,0,0,.46-.3c.31-.25.27-.52-.09-.68a1.16,1.16,0,0,0-.84,0c-.63.21-.75.13-.81-.51,0-.46-.37-.73-.79-.59a1.07,1.07,0,0,1-1.37-.33A4.06,4.06,0,0,1,34,23.39c-.13.71.24,1.06.94,1l.14,0c-.32.46-.53.49-1.25.21,0,.16.06.3.08.44a2.63,2.63,0,0,1,.06.48.82.82,0,0,1-.34.79.84.84,0,0,1-.88-.12.8.8,0,0,0,.7-1c0-.57-.41-1-.92-1-.69,0-1.38.2-2-.38a20.44,20.44,0,0,0,1.05,2.32,5.55,5.55,0,0,0,2.57,2.45,6.37,6.37,0,0,1,3.71,3.82c.1.29.19.31.45.17A4.25,4.25,0,0,1,44,34a6.08,6.08,0,0,1,.71,5,3,3,0,0,0-.06,2.32c-.41-.22-.41-.22-.6-1.12a2.67,2.67,0,0,0-.46,3.28,2.07,2.07,0,0,1-.54,2.86,2.44,2.44,0,0,0-.54.66,1.54,1.54,0,0,0,.7,2,1.29,1.29,0,0,0,1.83-.6c.14-.24.24-.51.37-.79,0,.33,0,.63,0,.92,0,1-.48,1.47-1.52,1.57,0,0-.07,0-.06.06a1.5,1.5,0,0,0,2,.07,3.42,3.42,0,0,0,.68-.74l.42-.59a3.23,3.23,0,0,1-.43,1.29,2,2,0,0,1-1.95,1.15,4.05,4.05,0,0,1-.92-.1.58.58,0,0,0-.43,0,.92.92,0,0,1-1-.08,4,4,0,0,0-1.43-.65A1.81,1.81,0,0,1,39.43,48a.86.86,0,0,0,.06-.57c-.47.68-.79.73-1.36.21.08,0,.15,0,.22,0,.41.07.59-.14.47-.53a1.84,1.84,0,0,0-.22-.47,3.45,3.45,0,0,1-.43-.91,4,4,0,0,1,.35-2.86.44.44,0,0,0,0-.5,1.92,1.92,0,0,1-.2-1.88c.09-.22.18-.43.26-.65l.05,0h0s0,0,0,.05c-.22,0-.35.13-.5.25-.33.31-.21.73-.26,1.15a2.08,2.08,0,0,1,.15-2.86c-.26-.15-.34.23-.56.17A3,3,0,0,1,38.66,37c.21-.14.2-.23.07-.43a1.43,1.43,0,0,1-.12-1.34l.23.34c.17.2.35.47.64.26s.21-.48.09-.75a.77.77,0,0,0-.34-.33,2.92,2.92,0,0,0-.83-.23c-.25-.06-.33,0-.39.27a6.35,6.35,0,0,1-1.23,2.53,4.66,4.66,0,0,0-.75,1.2,1.72,1.72,0,0,0-.14,1.09,7.21,7.21,0,0,0,.58,1.61,1.86,1.86,0,0,0,.83.88.7.7,0,0,1,.39.9,2.91,2.91,0,0,1-.47,1,27.51,27.51,0,0,0-1.56,2.68,3.89,3.89,0,0,0-.52,2,1,1,0,0,1-.45.86,6,6,0,0,0-.61.42c-.1.1-.18.1-.23-.07-.1-.36-.25-.39-.51-.11a.75.75,0,0,0-.22.42c-.15,1.13-.95,1.51-1.93,1.67C31.13,51.87,31.09,51.87,31.07,51.93Z" style="fill: #fff;fill-rule: evenodd"/>
      </g>
    </g>
  </g>
</svg>
