<svg xmlns="http://www.w3.org/2000/svg" viewBox="0 0 60 56.54">
  <title>12</title>
  <g id="Layer_2" data-name="Layer 2">
    <g id="Layer_1-2" data-name="Layer 1">
      <g id="_12" data-name="12">
        <path d="M29.64,27.71s-.87,1.52-4,2c-1.58.33-5.94.76-7.63-.66A11.63,11.63,0,0,0,8,32.52s-1.79-2.16-6.3-2.67c0,0-2.74-4.36-1.26-8.18a11.56,11.56,0,0,1,3-3.35s8.86-6.07,9.39-6.47l.54-.39h0s1.75-1.33,1.93-1.93c0,0,.6-1.67,4.37-3.32,0,0,.52-1.47-.15-4.7A11,11,0,0,1,23.25,4.6,16.1,16.1,0,0,0,22.17,0a27.39,27.39,0,0,1,6,3.82s9.89-2.29,21.74,5a20.66,20.66,0,0,0-6.11-.33A27.23,27.23,0,0,1,60,22.84a19.7,19.7,0,0,0-5.18-3.35,22.68,22.68,0,0,1,3.3,6.45c3,8.17-2.5,30-27.28,30.6C30.84,56.54,47.24,42.87,29.64,27.71Z" style="fill: #161e24"/>
        <path d="M38,51.37c11.59-10-3.36-22.25-3.36-22.25S45.57,40.35,38,51.37Z" style="fill: #fff"/>
        <path d="M40.41,15.3a23.8,23.8,0,0,1,14.3,10.1c-1.8-5.48-5.13-7.73-8.63-9.95a36.32,36.32,0,0,0-14.66-4.94,32.94,32.94,0,0,1,19,5.2C43.75,9.24,34.23,8.5,34.23,8.5l4.6-1.2c-3-1.76-9.13-1-9.13-1,.64,4-.59,6-.59,6A8.91,8.91,0,0,0,25,4.19c.08,5.67,2.66,6,2.66,6,.7.07.76.18.76.18a4.12,4.12,0,0,1-4.94-2.94c-5,.4-6.7,3.05-6.7,3.05C15.26,12.93,9.93,16,9.93,16c-.41.24-4.6,3.29-4.6,3.29-2.64,2.05-2.93,3.8-2.93,3.8a8.53,8.53,0,0,0,1.89-1,2.63,2.63,0,0,0,.94-1.84A3.12,3.12,0,0,1,5.13,22a4.69,4.69,0,0,1-.78,1.17,6.78,6.78,0,0,1-1.07.92,4.66,4.66,0,0,0-.65,1c-.41,1,.9,2.56.9,2.56a13.13,13.13,0,0,1,8.92-3.33C6.53,26.23,6.33,29,6.33,29a4.73,4.73,0,0,1,1.46.72,27,27,0,0,1,8.92-3.42,10.83,10.83,0,0,1-1.4-4.57c4.27-3.11,10-2.45,10-2.45-6.44.5-8,3.22-8,3.22.55,3.57,2.63,4.71,5,4.62,3.2-.12,6.8-1,7.54-4.27,1.38-3.36,0-8.64,0-8.64a10.86,10.86,0,0,1,2.45,4.74C47,21.55,50.5,32,50.5,32c-5.18-9.41-18-10.4-18-10.4a7.44,7.44,0,0,1-.69,2.8A24.61,24.61,0,0,1,44.09,34.94c4.24,7,1.15,12.41,1.15,12.41C68.84,32.67,40.41,15.3,40.41,15.3ZM11.94,19a18.84,18.84,0,0,1,5.52-4.38c.25-.16-1.92-.29-1.92-.29a11.34,11.34,0,0,1,7.14-3.76A9,9,0,0,0,19,12.72c3,.31,4,1.3,4,1.3C15.37,16.4,11.94,19,11.94,19Z" style="fill: #fff"/>
        <path d="M29.7,10.56s7.45-.5,16.45,4.95c0,0-1.28-.52-5.75-.18,0,0,9.15,5.06,13,13.72,2,4.48,1.93,9.58-3.16,14.49,0,0-.43-13.84-18.4-19.19a11.58,11.58,0,0,0,.64-2.79s12.12.72,18,10.35c0,0-3.12-10.1-18.21-13l-.22-.81s7.8.45,16,6.74c0,0-6.79-7.45-17-9a5.32,5.32,0,0,0-1.17-1.64,19.37,19.37,0,0,1,.6,3.84s-.55,4.62-3.31,6.62a8.79,8.79,0,0,1-8.47,1,6,6,0,0,1-1.32-3.27s1.69-2.61,8-3.14a13.92,13.92,0,0,0-10.1,2.49,12,12,0,0,0,.66,2.91,10,10,0,0,0-6.8,2.52,12.41,12.41,0,0,1,7.6-.88,23.34,23.34,0,0,0-8.9,3.44,3.59,3.59,0,0,0-1.55-.8s.43-2.86,6.14-4.64A13,13,0,0,0,3.5,27.66a10.66,10.66,0,0,1-1-1.72,2.39,2.39,0,0,1,.79-1.79H3.28a5.61,5.61,0,0,0,2-1.38,21.83,21.83,0,0,0,1.69-2.61A8.71,8.71,0,0,1,10,17.92c1.34-.55,3-1,4.77-1.63A26.27,26.27,0,0,0,12,19s2.16-.93,5.14-1.86A10.65,10.65,0,0,0,22,15.86a2.93,2.93,0,0,0,1.12-1.95A7.89,7.89,0,0,0,19,12.73a7,7,0,0,1,3.38-2.07,13.07,13.07,0,0,1,3.5-.41s2.06.66,2.48.05c0,0-3.27.51-3.44-6.1,0,0,4.19,2.14,4.17,8.08A6.34,6.34,0,0,0,29.7,10.56Z" style="fill: #7f7f7f"/>
      </g>
    </g>
  </g>
</svg>
