<svg xmlns="http://www.w3.org/2000/svg" viewBox="0 0 60 46.49">
  <title>13</title>
  <g id="Layer_2" data-name="Layer 2">
    <g id="Layer_1-2" data-name="Layer 1">
      <g id="_13" data-name="13">
        <path d="M38.65,29.82c3.31,1,6.55,2,9.79,3-1.23.41-2.49.66-3.8,1A10.56,10.56,0,0,0,46,34.1l2.55.38,2,.24,2.07.26c.56.07,1.13.12,1.69.18l1.68.21,1.22.13,1.85.2.78.08a.34.34,0,0,1,.24,0,.53.53,0,0,1-.24.23,25.52,25.52,0,0,1-2.36,1.43c-1.19.66-2.42,1.25-3.66,1.83q-1.27.6-2.58,1.14c-.06,0-.14,0-.19.14.51.34,1,.67,1.58,1a2.13,2.13,0,0,1-.53.22c-2.28.79-4.58,1.52-6.91,2.15-2,.54-4.07,1-6.13,1.41-1,.19-1.93.34-2.91.48-.81.12-1.63.22-2.45.31-.55.06-1.09.1-1.64.14a43.47,43.47,0,0,1-4.84.14c-.86,0-1.71-.06-2.56-.13s-2-.2-3-.36A31.2,31.2,0,0,1,17.42,45a26.64,26.64,0,0,1-4.8-1.94,17.22,17.22,0,0,1-4.45-3.27.78.78,0,0,1-.23-.54c0-.84-.1-1.69-.14-2.53l-.06-1.25c0-.5-.07-1-.07-1.5a.51.51,0,0,0-.1-.29,17.67,17.67,0,0,1-2.1-4.38,21.6,21.6,0,0,1-.82-3.26c0-.08,0-.16-.06-.26a.69.69,0,0,0-.21.33A8.63,8.63,0,0,0,3.87,28c-.13.72-.22,1.45-.31,2.18-.06.42-.09.85-.13,1.27-.06.68-.11,1.37-.16,2.05,0,.24,0,.49,0,.73a.51.51,0,0,1-.06.31.42.42,0,0,1-.14-.18,21.75,21.75,0,0,1-2.27-5,17.62,17.62,0,0,1-.65-3,15.28,15.28,0,0,1,.54-6.3,17,17,0,0,1,2.18-4.62A16.75,16.75,0,0,1,5.2,12.6l.17-.18a.51.51,0,0,0,0-.09c-1.81.82-3.56,1.72-5.34,2.6a.35.35,0,0,1,0-.29,21.65,21.65,0,0,1,2.22-4.27A17.11,17.11,0,0,1,4.93,7.26a16.54,16.54,0,0,1,6.24-3.62A16.24,16.24,0,0,1,14.41,3c.45,0,.91,0,1.37-.11,0-.1-.13-.13-.2-.16-1.1-.56-2.19-1.12-3.3-1.64L11.49.66c0-.11.09-.1.15-.12a10,10,0,0,1,2-.42,28.23,28.23,0,0,1,3.9-.1c.69,0,1.37.08,2.06.14l1.3.13c.64.08,1.29.15,1.93.25s1.54.24,2.3.37c.42.07.85.13,1.26.23a2.07,2.07,0,0,0,.86,0,10.77,10.77,0,0,1,5.23.57,7.4,7.4,0,0,1,1.31.61.21.21,0,0,1,.11.1,1.76,1.76,0,0,1-.37.23c-.33.17-.66.35-1,.55l-.18.13c-.06.06-.15.11-.13.2s.12.06.18.08l.52.22c1.16.56,2.3,1.17,3.44,1.77l.08.07a.63.63,0,0,1-.31.1,7.54,7.54,0,0,0-2.82,1.36c-.41.31-.41.31,0,.67C34,8.41,34.57,9,35.2,9.65c1.1,1.06,2.17,2.15,3.25,3.22.25.25.25.25-.08.38l-1,.4a.8.8,0,0,0,.29.34l1,.92,2,1.91,2.53,2.35a3,3,0,0,0,.53.4,12.34,12.34,0,0,1,2,1.54,3.94,3.94,0,0,1,.92,1.25,1.35,1.35,0,0,1-.42,1.76.32.32,0,0,0-.13.37c.08.37.13.73.21,1.09a.52.52,0,0,1-.08.42c-.63.87-1.24,1.74-1.86,2.61-.08.11-.13.12-.24.05-.32-.23-.65-.44-1-.66a.37.37,0,0,0-.39,0l-4,1.79S38.74,29.77,38.65,29.82Zm18.66,6.74-.05-.05L54,36.05c-1.3-.18-2.61-.37-3.91-.57l-3.74-.6c-1.5-.25-3-.51-4.49-.85a6.73,6.73,0,0,1-1.09-.29c0-.06.07-.07.12-.08l1.89-.34c.77-.15,1.55-.3,2.31-.5a.5.5,0,0,0,.28-.12.72.72,0,0,0-.35-.17c-.81-.22-1.61-.45-2.42-.66-2.68-.72-5.36-1.47-8-2.41a30.21,30.21,0,0,1-4.18-1.79,10.59,10.59,0,0,1-1.71-1.1c-.08-.06-.16-.11-.17-.23l-.15-1a.56.56,0,0,1,.31,0c.61,0,1.21,0,1.82,0,1,0,1.93.08,2.89.18a1.91,1.91,0,0,1,1.1.47c1.09.93,2.2,1.84,3.3,2.75a.26.26,0,0,0,.34.07l3.71-1.67c.06,0,.15,0,.18-.15-.26-.31-.54-.61-.8-.94a1,1,0,0,0-.5-.32,5.78,5.78,0,0,1-2.49-1.32A1.55,1.55,0,0,1,38,24a.36.36,0,0,1,.3-.56.81.81,0,0,1,.22,0,7,7,0,0,1,1.36.3,1.93,1.93,0,0,1,.83.48q1.55,1.47,3.11,2.92c.17.16.18.16.32,0l1.11-1.36a.42.42,0,0,0,.11-.35c0-.47,0-.93-.08-1.39a.38.38,0,0,1,.12-.33,2,2,0,0,0,.34-.47.67.67,0,0,0,0-.71,4.14,4.14,0,0,0-1.16-1.27l-2.13-1.43a3.26,3.26,0,0,1-.4-.34c-1.6-1.66-3.19-3.33-4.83-4.95A20.81,20.81,0,0,0,35.47,13c.45-.2.93-.27,1.38-.47,0-.06-.09-.08-.13-.12L35,10.68,31.39,7.2c-.19-.19-.19-.19,0-.38a3.23,3.23,0,0,1,.77-.54A8.77,8.77,0,0,1,34,5.59a.76.76,0,0,0,.3-.13,8.71,8.71,0,0,0-1.43-.72c-.48-.21-1-.38-1.46-.55s-1-.29-1.54-.42L32,2.58c-.05-.08-.11-.08-.16-.1a11,11,0,0,0-4.75-.55,3.18,3.18,0,0,1-1-.07A49.57,49.57,0,0,0,20.89,1c-1-.12-2-.21-3.06-.25S15.64.7,14.54.74c-.29,0-.59.05-.89.07.84.38,1.68.73,2.49,1.13a13.12,13.12,0,0,1,2.41,1.44A21.29,21.29,0,0,0,8.82,6a18.67,18.67,0,0,0-7.18,7,.34.34,0,0,0,.26-.07l1.41-.67a25.85,25.85,0,0,1,4.07-1.51,7.05,7.05,0,0,1,1.36-.24c0,.07,0,.09-.08.12-.47.36-.93.74-1.37,1.14a20.47,20.47,0,0,0-5,6.8,15.47,15.47,0,0,0-1.28,8,17.29,17.29,0,0,0,1.31,5,.29.29,0,0,0,.11.19c0-.5.07-1,.12-1.46A20.85,20.85,0,0,1,3.45,26a11,11,0,0,1,1.21-2.68,1,1,0,0,1,.23-.3s0,0,0,.05a26.93,26.93,0,0,0,.68,3.56,22.39,22.39,0,0,0,2.83,6.72.87.87,0,0,1,.12.34c.07.75.16,1.5.22,2.25.09,1,.21,1.9.25,2.86a.77.77,0,0,0,.2.47,10.12,10.12,0,0,0,1.24,1.12,21.76,21.76,0,0,0,5.86,3.13,34.39,34.39,0,0,0,10.53,1.94c1.26,0,2.53,0,3.79,0s2.65-.18,4-.34,2.91-.42,4.35-.7a79,79,0,0,0,10.78-3,.49.49,0,0,0,.24-.12c-.42-.32-.85-.59-1.26-.9a.36.36,0,0,1,.18-.11c1.75-.63,3.5-1.3,5.21-2a32.24,32.24,0,0,0,3-1.45C57.15,36.68,57.26,36.65,57.31,36.56ZM30.41,26.3c.83.81,4.76,2.45,5.64,2.36a.4.4,0,0,0-.16-.18l-2-1.64a1,1,0,0,0-.45-.2l-.61-.07c-.54-.07-1.08-.15-1.62-.2A3.25,3.25,0,0,0,30.41,26.3Zm-24.95-14h0Z" style="fill: #a7a8ab;fill-rule: evenodd"/>
        <path d="M57.31,36.56c-.05.09-.16.12-.24.17a31,31,0,0,1-3,1.45c-1.71.74-3.46,1.41-5.21,2a.36.36,0,0,0-.18.11c.41.31.84.58,1.26.9a.49.49,0,0,1-.24.12,79,79,0,0,1-10.78,3c-1.44.28-2.89.52-4.35.7s-2.64.27-4,.34-2.53.07-3.79,0a34.39,34.39,0,0,1-10.53-1.94,21.76,21.76,0,0,1-5.86-3.13,10.12,10.12,0,0,1-1.24-1.12.77.77,0,0,1-.2-.47c0-1-.16-1.91-.25-2.86-.06-.75-.15-1.5-.22-2.25a.73.73,0,0,0-.12-.34,22.49,22.49,0,0,1-2.83-6.72A26.93,26.93,0,0,1,4.93,23s0,0,0-.05a.86.86,0,0,0-.23.3A11,11,0,0,0,3.45,26a20.85,20.85,0,0,0-.86,4.34c0,.48-.09,1-.12,1.46a.29.29,0,0,1-.11-.19,17.29,17.29,0,0,1-1.31-5,15.47,15.47,0,0,1,1.28-8,20.47,20.47,0,0,1,5-6.8c.44-.4.9-.78,1.37-1.14,0,0,.09-.05.08-.12a7.05,7.05,0,0,0-1.36.24,25.48,25.48,0,0,0-4.07,1.51l-1.41.67a.34.34,0,0,1-.26.07A18.67,18.67,0,0,1,8.82,6a21.29,21.29,0,0,1,9.73-2.61,13.12,13.12,0,0,0-2.41-1.44c-.81-.4-1.65-.75-2.49-1.13.3,0,.6-.06.89-.07,1.1,0,2.2,0,3.29,0s2,.13,3.06.25a49.57,49.57,0,0,1,5.16.86,3.18,3.18,0,0,0,1,.07,11,11,0,0,1,4.75.55c.05,0,.11,0,.16.1L29.89,3.77c.53.13,1,.26,1.54.42s1,.34,1.46.55a8.71,8.71,0,0,1,1.43.72.76.76,0,0,1-.3.13,8.77,8.77,0,0,0-1.85.69,3.23,3.23,0,0,0-.77.54c-.2.19-.2.19,0,.38L35,10.68l1.74,1.68s.1.06.13.12c-.46.2-.93.27-1.38.47a20.81,20.81,0,0,1,1.74,1.62c1.64,1.62,3.23,3.29,4.83,4.95a2.57,2.57,0,0,0,.4.34c.72.47,1.42.95,2.13,1.43a4.14,4.14,0,0,1,1.16,1.27.67.67,0,0,1,0,.71,2,2,0,0,1-.34.47.38.38,0,0,0-.12.33c0,.46,0,.92.08,1.39a.42.42,0,0,1-.11.35l-1.11,1.36c-.14.17-.15.17-.32,0q-1.56-1.45-3.11-2.92a1.93,1.93,0,0,0-.83-.48,7,7,0,0,0-1.36-.3.81.81,0,0,0-.22,0A.36.36,0,0,0,38,24a1.55,1.55,0,0,0,.31.36,5.78,5.78,0,0,0,2.49,1.32,1,1,0,0,1,.5.32c.26.33.54.63.8.94,0,.11-.12.12-.18.15L38.21,28.8a.26.26,0,0,1-.34-.07c-1.1-.91-2.21-1.82-3.3-2.75a1.91,1.91,0,0,0-1.1-.47c-1-.1-1.93-.15-2.89-.18-.61,0-1.21,0-1.82,0a.56.56,0,0,0-.31,0l.15,1c0,.12.09.17.17.23a10.59,10.59,0,0,0,1.71,1.1,30.21,30.21,0,0,0,4.18,1.79c2.61.94,5.29,1.69,8,2.41l2.42.66a.72.72,0,0,1,.35.17.5.5,0,0,1-.28.12c-.76.2-1.54.35-2.31.5l-1.89.34c-.05,0-.1,0-.12.08a6.73,6.73,0,0,0,1.09.29c1.49.34,3,.6,4.49.85l3.74.6c1.3.2,2.61.39,3.91.57l3.23.46Zm-25.7-28s0,.05,0,0l0,0a9.62,9.62,0,0,0-.84-1C30.22,7,29.66,6.42,29.1,5.8l-.89-1c-.07-.07-.13-.11-.2,0a5.19,5.19,0,0,0-.62.93c-.11.25-.1.28.13.42l3.84,2.33C31.44,8.55,31.51,8.63,31.61,8.6ZM19.49,42.93s0,0,0,0h0a0,0,0,0,0,0,0,1.82,1.82,0,0,0-.26-.45,20.84,20.84,0,0,1-3-9.41A14.56,14.56,0,0,1,16.34,30a.6.6,0,0,1,.08.28,23.58,23.58,0,0,0,.69,3.32,20,20,0,0,0,2.28,5.36,11.83,11.83,0,0,0,3.4,3.64,6.47,6.47,0,0,0,2.29,1.06,12.44,12.44,0,0,0,1.82.25,26.17,26.17,0,0,0,3.65-.07h.13c.62-.06,1.23-.11,1.83-.18,1.27-.16,2.52-.37,3.78-.59,3-.56,6.06-1.24,9-2,.1,0,.21,0,.28-.12a.4.4,0,0,0-.2-.09A42.78,42.78,0,0,1,41.09,39a41,41,0,0,1-9.47-6.13,25.31,25.31,0,0,1-5.82-7.24.27.27,0,0,0-.3-.18c-.54,0-1.08,0-1.62.07a.38.38,0,0,1-.38-.2l-3-4.61c-.31-.46-.58-.93-.92-1.36,0-.11-.13-.13-.21-.17l-.84-.37c-.13-.06-.16-.12-.12-.26.15-.59.28-1.19.42-1.78,0,0,0-.1.08-.1a2.2,2.2,0,0,1,.17.25q2.33,3.42,4.64,6.86a.52.52,0,0,0,.45.25l3.82.15c2.12.09,4.25.19,6.38.27a.7.7,0,0,1,.51.22l3,2.92c.17.16.17.16.37.06l1.85-.91c.06,0,.14,0,.18-.14L40,26.46l-1.81-.81a.54.54,0,0,1-.27-.18,12,12,0,0,1-1.28-2.15,2,2,0,0,1-.17-.59c0-.36.09-.49.45-.52a3.3,3.3,0,0,1,.83.09,20.36,20.36,0,0,1,3,1,.74.74,0,0,1,.27.19L43.75,26c.06,0,.1.12.18.15s0,0,0-.05c.16-.31.31-.63.48-.94a.53.53,0,0,0,0-.35c-.06-.35-.11-.7-.17-1.05a.32.32,0,0,1,.12-.33.78.78,0,0,0,.08-1.29,3.76,3.76,0,0,0-.72-.6,10.52,10.52,0,0,0-1.64-.91.93.93,0,0,1-.32-.21q-3.9-3.87-7.79-7.75s-.13-.08-.12-.18l1.33-.39a.88.88,0,0,0-.23-.21c-.57-.44-1.14-.86-1.7-1.31a28.91,28.91,0,0,0-3.1-2.14c-1.12-.66-2.19-1.42-3.37-2a.38.38,0,0,1-.21-.27,1.09,1.09,0,0,1,0-.44,1.69,1.69,0,0,1,.4-.76A4.84,4.84,0,0,1,28,4.16,13.27,13.27,0,0,1,30.5,2.74c.07,0,.17,0,.2-.14l-.08,0a7.89,7.89,0,0,0-3.8.24A8.39,8.39,0,0,0,24,4.34a.42.42,0,0,0-.17.38,18.58,18.58,0,0,0,0,2.11.2.2,0,0,1-.15.25l-.57.24a19.54,19.54,0,0,0-7.88,5.9,21.71,21.71,0,0,0-4,8.2,30,30,0,0,0-.91,6,43.42,43.42,0,0,0,.08,5.35c.12,1.51.31,3,.56,4.51a1.86,1.86,0,0,0,.71,1.48,11.65,11.65,0,0,0,2.37,1.89,19.74,19.74,0,0,0,5.11,2.18A.88.88,0,0,0,19.49,42.93ZM12.62,9.13a.15.15,0,0,1-.09.11,24.15,24.15,0,0,0-5.84,4.82,19.3,19.3,0,0,0-3.1,4.71A16.31,16.31,0,0,0,2.1,26.55c0,.05,0,.13.08.16.09-.47.18-.93.31-1.38a10,10,0,0,1,1.36-3.1,4.47,4.47,0,0,1,1.71-1.52c.22-.11.26-.09.26.15,0,.64.11,1.26.19,1.89a25.16,25.16,0,0,0,.71,3.43A16.2,16.2,0,0,0,8.3,30c0,.07.07.17.19.21l0-.64c0-.86,0-1.72.1-2.59A26.69,26.69,0,0,1,8.92,24,27.25,27.25,0,0,1,10.29,19a21.59,21.59,0,0,1,3.48-6.12,18.6,18.6,0,0,1,4-3.64,20.37,20.37,0,0,1,4.51-2.29c.26-.09.26-.09.26-.35,0-.69.07-1.39.05-2.09a.39.39,0,0,1,.25-.4c.79-.41,1.56-.84,2.34-1.26a.51.51,0,0,0,.25-.19c-1.43-.59-7-1.3-7.88-1a.73.73,0,0,0,.23.16A17.79,17.79,0,0,1,19.59,3a6.36,6.36,0,0,1,1,.88,1,1,0,0,1,.3.51,4.75,4.75,0,0,0-.51,0,18.43,18.43,0,0,0-3.56.16,20.4,20.4,0,0,0-3.63.86A21.87,21.87,0,0,0,9.65,6.91,23.39,23.39,0,0,0,5.42,10a.21.21,0,0,0,.19,0c1-.29,2-.54,3-.73A13.79,13.79,0,0,1,11.85,9,3.58,3.58,0,0,1,12.62,9.13ZM28.89,28.58c0,.05,0,.08,0,.09l.17.18a40.6,40.6,0,0,0,4.49,4,43.91,43.91,0,0,0,6.11,4,36.59,36.59,0,0,0,6.61,2.79.64.64,0,0,0,.41,0c1.15-.35,2.29-.7,3.43-1.07s2.26-.75,3.35-1.23A2.23,2.23,0,0,0,54,37c0-.08-.1-.06-.15-.07-.74,0-1.47-.1-2.2-.16l-3.15-.33c-1.08-.13-2.15-.28-3.23-.46a38.69,38.69,0,0,1-5.08-1.11,12,12,0,0,1-2.62-1.09c-.08,0-.18-.08-.22-.21l3.74-1a.39.39,0,0,0-.2-.09c-.75-.15-1.49-.32-2.23-.49-1.43-.34-2.84-.73-4.24-1.16a32.58,32.58,0,0,1-4.19-1.6C29.8,29.08,29.36,28.84,28.89,28.58ZM32.65,5.52c0-.12-.16-.14-.25-.18a9.15,9.15,0,0,0-2.17-.69,2.5,2.5,0,0,0-1,0c-.1,0-.22,0-.29.17l.11.08a7.63,7.63,0,0,1,1.43,1.52c.07.12.14.07.23,0A11.18,11.18,0,0,1,32.65,5.52Z" style="fill: #252122;fill-rule: evenodd"/>
        <path d="M30.41,26.3a3.25,3.25,0,0,1,.83.07c.54.05,1.08.13,1.62.2l.61.07a.82.82,0,0,1,.44.21c.66.54,1.32,1.08,2,1.63.07.05.14.09.16.18C35.17,28.75,31.24,27.11,30.41,26.3Z" style="fill: #fefefe;fill-rule: evenodd"/>
        <polygon points="5.46 12.32 5.46 12.3 5.47 12.31 5.46 12.32" style="fill: #fff;fill-rule: evenodd"/>
        <path d="M30.55,43.8a26.17,26.17,0,0,1-3.65.07,12.26,12.26,0,0,1-1.82-.25,6.47,6.47,0,0,1-2.29-1.06,11.83,11.83,0,0,1-3.4-3.64,20,20,0,0,1-2.28-5.36,23.58,23.58,0,0,1-.69-3.32.6.6,0,0,0-.08-.28,14.58,14.58,0,0,0-.11,3.09,20.84,20.84,0,0,0,3,9.41,1.66,1.66,0,0,1,.26.45l0,0a.88.88,0,0,1-.32-.07,19.74,19.74,0,0,1-5.11-2.18,11.72,11.72,0,0,1-2.37-1.89A1.89,1.89,0,0,1,11,37.3c-.25-1.49-.44-3-.56-4.51a41.51,41.51,0,0,1-.08-5.35,30.61,30.61,0,0,1,.9-6,21.66,21.66,0,0,1,4-8.2,19.66,19.66,0,0,1,7.88-5.91l.57-.23a.2.2,0,0,0,.15-.25c-.08-.7,0-1.41-.05-2.12A.48.48,0,0,1,24,4.33a8.55,8.55,0,0,1,2.84-1.51,7.77,7.77,0,0,1,3.8-.24l.08,0c0,.1-.13.1-.2.13A13.88,13.88,0,0,0,28,4.16a4.84,4.84,0,0,0-.88.81,1.69,1.69,0,0,0-.4.76,1.09,1.09,0,0,0,0,.44.38.38,0,0,0,.21.27c1.17.59,2.25,1.34,3.37,2a27.41,27.41,0,0,1,3.09,2.14c.57.45,1.14.87,1.71,1.31a.73.73,0,0,1,.23.21L34,12.5c0,.1.07.14.11.18l7.8,7.75a.85.85,0,0,0,.32.21,11.35,11.35,0,0,1,1.64.9,3.82,3.82,0,0,1,.72.61.79.79,0,0,1-.08,1.29.3.3,0,0,0-.12.33c.06.35.11.7.17,1.05a.51.51,0,0,1-.06.34c-.16.32-.31.64-.47.95,0,0,0,0,0,.05a.54.54,0,0,1-.18-.15l-2.69-2.56a.74.74,0,0,0-.27-.19,19.27,19.27,0,0,0-3-1,3.3,3.3,0,0,0-.83-.09c-.36,0-.48.16-.45.52a1.94,1.94,0,0,0,.17.58,12,12,0,0,0,1.28,2.16.54.54,0,0,0,.27.18l1.81.81.29.14c0,.09-.12.1-.18.14l-1.85.91c-.2.1-.2.1-.37-.07l-3-2.92a.74.74,0,0,0-.51-.21L28,24.18,24.13,24a.52.52,0,0,1-.45-.25Q21.37,20.35,19,16.92a2.2,2.2,0,0,0-.17-.25c-.07,0-.07,0-.08.09-.14.6-.27,1.2-.42,1.79,0,.14,0,.2.12.25l.84.38c.08,0,.17.06.21.16a.25.25,0,0,0,0,.17c.05.33.1.66.14,1,.14,1.06.32,2.12.53,3.17a59.44,59.44,0,0,0,1.63,6.47,38.47,38.47,0,0,0,3.07,7.28,20,20,0,0,0,3.66,4.81,9.89,9.89,0,0,0,2,1.5S30.54,43.78,30.55,43.8Zm-1-34.47s.05,0,0,.08.08,0,.11.08l1.52,1.62s.07.06,0,.14l-1.38,0,.19.15,3.16,2.5L35,15.28s0,0,0,0a.55.55,0,0,0,.38.25.83.83,0,0,0-.31-.33l0,0L34.87,15l-2.65-2.82c-.06-.07-.14-.12-.17-.23.45-.08.9-.1,1.39-.2l-1.39-.89c-.71-.47-1.43-.93-2.15-1.39-.08-.05-.15-.16-.27-.09s0-.06-.05-.07h0Zm5.89,6.3s-.07-.1-.09,0,.07.06.11.07,0,.05.06,0l0,0Zm7.71,6.54-1.3.84a2,2,0,0,0,1.54.91A1.33,1.33,0,0,1,43,23.1,2.79,2.79,0,0,1,43.19,22.17Z" style="fill: #fefefe;fill-rule: evenodd"/>
        <path d="M30.55,43.8a.49.49,0,0,0,0-.07,10,10,0,0,1-2-1.5,20,20,0,0,1-3.66-4.81,38.43,38.43,0,0,1-3.06-7.28,57.65,57.65,0,0,1-1.64-6.46c-.2-1.06-.39-2.12-.53-3.18,0-.33-.09-.66-.14-1a.25.25,0,0,1,0-.17c.34.43.62.91.92,1.37Q22,23,23.5,25.32a.38.38,0,0,0,.38.2c.54,0,1.08-.05,1.62-.08a.3.3,0,0,1,.3.18,25,25,0,0,0,5.82,7.24A40.69,40.69,0,0,0,41.09,39a40.52,40.52,0,0,0,4.32,1.79.47.47,0,0,1,.2.1c-.07.1-.18.09-.27.12q-4.48,1.18-9.05,2c-1.26.22-2.51.43-3.77.59l-1.83.18Z" style="fill: #a7a9ac;fill-rule: evenodd"/>
        <path d="M12.62,9.13A3.45,3.45,0,0,0,11.84,9a13.26,13.26,0,0,0-3.26.31c-1,.19-2,.44-3,.73a.25.25,0,0,1-.19,0A23,23,0,0,1,9.65,6.91a21.49,21.49,0,0,1,3.53-1.58,20.42,20.42,0,0,1,3.63-.87,19.15,19.15,0,0,1,3.55-.15,4.92,4.92,0,0,1,.52,0,1,1,0,0,0-.3-.51,7.07,7.07,0,0,0-1-.89,18.18,18.18,0,0,0-1.82-1.17.73.73,0,0,1-.23-.16c.86-.3,6.44.4,7.88,1a.55.55,0,0,1-.26.19c-.77.42-1.55.85-2.33,1.25a.41.41,0,0,0-.25.41c0,.7,0,1.39-.05,2.09,0,.26,0,.26-.26.35A19.94,19.94,0,0,0,17.75,9.2a18.6,18.6,0,0,0-4,3.64A21.59,21.59,0,0,0,10.29,19,27.85,27.85,0,0,0,8.91,24c-.17,1-.28,2-.36,2.95s-.1,1.73-.09,2.59l0,.64c-.12,0-.14-.14-.19-.22a16.13,16.13,0,0,1-1.58-3.82A25.3,25.3,0,0,1,6,22.74c-.08-.62-.17-1.25-.19-1.88,0-.24,0-.26-.26-.16a4.5,4.5,0,0,0-1.71,1.53,10.21,10.21,0,0,0-1.37,3.09c-.12.46-.22.92-.3,1.39-.11,0-.07-.11-.08-.16a16.39,16.39,0,0,1,1.48-7.78,19.25,19.25,0,0,1,3.11-4.71,24,24,0,0,1,5.84-4.83A.12.12,0,0,0,12.62,9.13Z" style="fill: #0276bf;fill-rule: evenodd"/>
        <path d="M28.89,28.58c.47.26.91.5,1.36.72a32.58,32.58,0,0,0,4.19,1.6c1.4.44,2.82.82,4.24,1.16.74.17,1.48.35,2.23.49a.36.36,0,0,1,.2.09l-3.74,1c0,.12.14.15.22.2a12,12,0,0,0,2.62,1.09A40.41,40.41,0,0,0,45.29,36c1.08.17,2.15.32,3.23.45l3.15.33c.73.06,1.46.13,2.2.17.05,0,.11,0,.15.06a2.23,2.23,0,0,1-.54.31c-1.09.48-2.22.85-3.35,1.23s-2.28.72-3.43,1.07a.64.64,0,0,1-.41,0,36.59,36.59,0,0,1-6.61-2.79,43.91,43.91,0,0,1-6.11-4,40.6,40.6,0,0,1-4.49-4l-.17-.18S28.9,28.63,28.89,28.58Z" style="fill: #0276bf;fill-rule: evenodd"/>
        <path d="M31.61,8.6c-.1,0-.17,0-.25-.09L27.52,6.18c-.23-.14-.24-.17-.13-.42A5.19,5.19,0,0,1,28,4.83c.08-.09.13-.06.2,0l.89,1c.56.61,1.12,1.21,1.67,1.83a9.62,9.62,0,0,1,.84,1Z" style="fill: #0276bf;fill-rule: evenodd"/>
        <path d="M32.65,5.52a11.18,11.18,0,0,0-2,.9c-.09,0-.16.09-.23,0A7.63,7.63,0,0,0,29,4.87l-.11-.08c.07-.13.19-.14.29-.17a2.5,2.5,0,0,1,1,0,9.15,9.15,0,0,1,2.17.69C32.49,5.38,32.6,5.4,32.65,5.52Z" style="fill: #a7a8ab;fill-rule: evenodd"/>
        <path d="M31.61,8.6l0,0s0,0,0,0Z" style="fill: #0276bf;fill-rule: evenodd"/>
        <path d="M19.51,42.91a0,0,0,0,1,0,0h0s0,0,0,0Z" style="fill: #fefefe;fill-rule: evenodd"/>
        <path d="M29.63,9.41c.12-.07.19,0,.27.08l2.15,1.39,1.39.9c-.49.1-.94.11-1.39.2a.48.48,0,0,0,.17.22c.88,1,1.77,1.89,2.65,2.83l.17.19-.06.06-1.71-1.34-3.16-2.5-.19-.15,1.38,0c0-.08,0-.1,0-.14L29.74,9.49s-.06-.08-.11-.08Z" style="fill: #252122;fill-rule: evenodd"/>
        <path d="M43.19,22.17a2.79,2.79,0,0,0-.18.93,1.33,1.33,0,0,0,.42.82A2,2,0,0,1,41.89,23Z" style="fill: #252122;fill-rule: evenodd"/>
        <path d="M35.08,15.24a.83.83,0,0,1,.31.33.55.55,0,0,1-.38-.25A.08.08,0,0,0,35.08,15.24Z" style="fill: #a7a8ab;fill-rule: evenodd"/>
        <path d="M35.5,15.7s-.09,0-.11-.07h.09l0,0Z" style="fill: #a7a9ac;fill-rule: evenodd"/>
        <polygon points="29.59 9.34 29.58 9.32 29.58 9.34 29.59 9.34" style="fill: #252122;fill-rule: evenodd"/>
        <path d="M29.58,9.34s.07,0,.05.07h0s0-.07,0-.07Z" style="fill: #252122;fill-rule: evenodd"/>
        <path d="M35.08,15.24a.08.08,0,0,1-.07.08s0,0,0,0l.06-.06A0,0,0,0,1,35.08,15.24Z" style="fill: #252122;fill-rule: evenodd"/>
        <path d="M35.48,15.63h-.09C35.41,15.53,35.44,15.59,35.48,15.63Z" style="fill: #a7a8ab;fill-rule: evenodd"/>
        <path d="M35.52,15.68l0,0s0,0-.06,0Z" style="fill: #a7a9ac;fill-rule: evenodd"/>
      </g>
    </g>
  </g>
</svg>
