<svg xmlns="http://www.w3.org/2000/svg" viewBox="0 0 60 45.6">
  <title>14</title>
  <g id="Layer_2" data-name="Layer 2">
    <g id="Layer_1-2" data-name="Layer 1">
      <g id="_14" data-name="14">
        <path d="M24.57,15.42l.52.14c.08,0,.14,0,.14-.1a4.82,4.82,0,0,1,1.62-3.13,1.74,1.74,0,0,0,.58-1.18,3.92,3.92,0,0,1,.62-1.84A.25.25,0,0,0,28,9a5.48,5.48,0,0,1-.54-1.24c-.06-.19,0-.25.18-.27A11.48,11.48,0,0,0,29.3,7.2,3.18,3.18,0,0,0,31.12,6,6.54,6.54,0,0,1,35,3.58a9.13,9.13,0,0,1,1.92-.19,4.23,4.23,0,0,0-1.19-.7,6.14,6.14,0,0,1,1.84-.78,6,6,0,0,1,1.25-.24c.17,0,.23-.08.23-.25A6.16,6.16,0,0,1,39.19.21c.05-.22.11-.27.32-.13a30.66,30.66,0,0,0,3.65,2.19,19.63,19.63,0,0,0,3,1,3.2,3.2,0,0,1,1.94,1.29,2,2,0,0,0,1,.82,2.88,2.88,0,0,1,1.67,1.76.45.45,0,0,0,.3.27,13.84,13.84,0,0,1,4.74,3.25c.18.18.12.23-.05.33a4.75,4.75,0,0,0-1.45,1.34,2.34,2.34,0,0,0-.22.55,7.56,7.56,0,0,1-.62,1.24c.15,0,.23-.08.32-.12a2.28,2.28,0,0,1,2.51.22.48.48,0,0,0,.34.08,3.68,3.68,0,0,1,2.56.91,2.1,2.1,0,0,1,.63,2.58.42.42,0,0,0,0,.22,2.06,2.06,0,0,1-.91,1.82.72.72,0,0,0-.19.2,2.41,2.41,0,0,1-2.9,1.27,2.39,2.39,0,0,0-1-.06,3.62,3.62,0,0,1-2-.2c-.16-.05-.24,0-.32.11s-.36.53-.56.79-.08.2,0,.29a5.55,5.55,0,0,0,1.93,1l1.27.38a2,2,0,0,1,1,.7.33.33,0,0,0,.33.14A3.33,3.33,0,0,1,60,27.4a2.11,2.11,0,0,1-.6,1.74.88.88,0,0,0-.18.29,2,2,0,0,1-1.63,1.47c-.09,0-.13.08-.19.12a2.31,2.31,0,0,1-2.55.26.72.72,0,0,0-.38-.1,3.58,3.58,0,0,1-3.11-1.45.57.57,0,0,0-.3-.19,7.38,7.38,0,0,0-1.68-.28,14.12,14.12,0,0,1-4.82-1.2.36.36,0,0,0-.27,0,11.64,11.64,0,0,1-2.49.39c-.15,0-.19-.07-.23-.18a3.81,3.81,0,0,0-.63-1,.3.3,0,0,0-.45-.08,25.57,25.57,0,0,1-2.86,1.45A6.24,6.24,0,0,1,36,29c-.17,0-.23.1-.26.26a9.19,9.19,0,0,1-.37,1.46,3.53,3.53,0,0,1-2,2.16l-.25.11c.2.11.39.2.56.31a2.91,2.91,0,0,1,1.52,2.39,2.06,2.06,0,0,1-.81,1.71.73.73,0,0,0-.22.24,2,2,0,0,1-1.79,1.17,9.39,9.39,0,0,0-2,.23,2.55,2.55,0,0,1-2-.44,1.21,1.21,0,0,0-.81-.16c-.87.08-1.75.15-2.64.15a2.41,2.41,0,0,1-2.46-1.53c-1.27.88-2.74,1.38-4,2.26-.36.24-.36.61,0,.81a2.39,2.39,0,0,1,.4,4,1.14,1.14,0,0,0-.18.25,1.88,1.88,0,0,1-1.69,1,9,9,0,0,0-1.37.18,2.71,2.71,0,0,1-2.91-3c.12-1.12.09-2.25.14-3.38a.59.59,0,0,0-.1-.29,2.26,2.26,0,0,1,.4-3l0,0a3.84,3.84,0,0,0,1.49-3.33c0-.76.1-1.51.17-2.27a.28.28,0,0,0-.24-.34,7.18,7.18,0,0,1-1.14-.43,7,7,0,0,1-4.14-5,20.13,20.13,0,0,0-.52-2,3.31,3.31,0,0,0-1.2-1.72.39.39,0,0,0-.3-.09,3.11,3.11,0,0,1-2.61-.76,6,6,0,0,1-1-1.08,2.6,2.6,0,0,0-1.21-.86,9.72,9.72,0,0,0-2.32-.51c-.07,0-.14,0-.21-.05a8.63,8.63,0,0,1,1-.92A9.24,9.24,0,0,1,5.5,14.39a3.32,3.32,0,0,1,3.83,2.25.45.45,0,0,0,.23.26,7.5,7.5,0,0,1,4,5.06,7.69,7.69,0,0,0,.49,1.47,3.7,3.7,0,0,0,2.68,1.94c.12,0,.17,0,.24-.1L18.3,24A4.19,4.19,0,0,1,20.23,23a5.48,5.48,0,0,0,2.5-1.36,4.46,4.46,0,0,0,1-1.22,8.55,8.55,0,0,1,1.36-2c.1-.1.08-.18,0-.29a6.33,6.33,0,0,1-.6-2.38A.48.48,0,0,1,24.57,15.42ZM1.44,17l.85.14a2.86,2.86,0,0,1,2.07,1.21,3.93,3.93,0,0,0,.5.58,2.46,2.46,0,0,0,2.61.81.47.47,0,0,1,.37.08,3.91,3.91,0,0,1,1.7,2.11c.3.83.45,1.7.68,2.55a6,6,0,0,0,3.55,4.21,12.21,12.21,0,0,0,1.76.61c.19.05.28.1.23.33a4.66,4.66,0,0,0-.08.76c-.06.95-.08,1.91-.18,2.86a3.65,3.65,0,0,1-1.49,3,1.21,1.21,0,0,0-.16.16,1.43,1.43,0,0,0-.34,2.09,1.58,1.58,0,0,1,.19.85c0,1-.07,2-.11,2.95a5.53,5.53,0,0,0,0,.91,1.81,1.81,0,0,0,2.52,1.43,1.31,1.31,0,0,1,.59-.05A1.14,1.14,0,0,0,18,44.07a1.74,1.74,0,0,1,.59-.7A.67.67,0,0,0,18.8,43a1.57,1.57,0,0,0-1.1-2.22.34.34,0,0,1-.3-.34c-.12-1.18,0-1.37,1-2h0c.86-.54,1.79-1,2.69-1.42a3.63,3.63,0,0,0,1.57-1.51c.33-.6.64-1.21,1-1.81,0-.08.06-.23.17-.19a1.15,1.15,0,0,1,.62.38c.12.19,0,.35-.16.5a5.35,5.35,0,0,0-1,1.49,1.43,1.43,0,0,0,1,1.9,1.58,1.58,0,0,0,.57.08l2.29-.14a2.56,2.56,0,0,1,1.77.29A1.91,1.91,0,0,0,31,38a.34.34,0,0,1,.24,0,5.69,5.69,0,0,0,.71.07c.75,0,1.21-.14,1.51-.86a.67.67,0,0,1,.28-.34,1.2,1.2,0,0,0,.59-1.4,2.25,2.25,0,0,0-3.1-1.51,2,2,0,0,1-1.56.16c-.06,0-.17,0-.19-.09s.08-.12.14-.17a5.38,5.38,0,0,1,2.05-1.17A6,6,0,0,0,33.33,32a2,2,0,0,0,.84-.74,5.77,5.77,0,0,0,.73-2.63c0-.21,0-.29.27-.31a7.23,7.23,0,0,0,2.7-.73l2.61-1.39a.35.35,0,0,1,.43,0A3.12,3.12,0,0,1,42,27.39c.12.27.3.29.54.25a7.23,7.23,0,0,0,1.69-.48.45.45,0,0,1,.42,0,11.13,11.13,0,0,0,4.41,1.21,9.89,9.89,0,0,1,2.29.39.94.94,0,0,1,.66.47,2.25,2.25,0,0,0,.36.4,2.75,2.75,0,0,0,2,.67,1.62,1.62,0,0,1,.8.18A1.38,1.38,0,0,0,57,30.22a.46.46,0,0,1,.27-.13A1.22,1.22,0,0,0,58.44,29a.46.46,0,0,1,.17-.35,1.45,1.45,0,0,0,.25-2.07,2.55,2.55,0,0,0-2.8-1.2c-.21.06-.31,0-.41-.19a1.72,1.72,0,0,0-1.21-.9,7.46,7.46,0,0,1-3.64-1.83c-.09-.09-.22-.16-.1-.33.5-.66,1-1.34,1.49-2a.26.26,0,0,1,.41-.06,2.34,2.34,0,0,0,1.86.42,3.38,3.38,0,0,1,1.55.09,1.47,1.47,0,0,0,1.49-.33,2.39,2.39,0,0,0,.47-.67.63.63,0,0,1,.29-.33A1.14,1.14,0,0,0,58.88,18a.61.61,0,0,1,.09-.42,1.08,1.08,0,0,0-.1-1.39,2.68,2.68,0,0,0-1.14-.82,3.51,3.51,0,0,0-1.4-.15.63.63,0,0,1-.5-.19,1.31,1.31,0,0,0-1.39-.33,3,3,0,0,0-.87.52c-.11.08-.22.16-.36.09a4.68,4.68,0,0,0-1.52-.35c-.07,0-.16,0-.18-.1s.06-.15.14-.2a4.3,4.3,0,0,0,.45-.29,3.48,3.48,0,0,0,1.18-1.83,2.52,2.52,0,0,1,.77-1.07c.13-.11.25-.23.39-.33s.19-.23,0-.4a11.07,11.07,0,0,0-3.8-2.5,1.15,1.15,0,0,1-.73-.77,1.85,1.85,0,0,0-.52-.8,4.67,4.67,0,0,0-1.48-.82.47.47,0,0,1-.3-.31,1.49,1.49,0,0,0-.45-.71,3.21,3.21,0,0,0-1.31-.7,17.13,17.13,0,0,1-4.39-1.85c-.44-.31-.9-.6-1.34-.91-.17-.13-.26-.11-.28.11s-.07.43-.07.65-.06.33-.3.31a3.08,3.08,0,0,0-.91.06,4.36,4.36,0,0,0-1.09.24,4.31,4.31,0,0,1,.93.75s.18.14,0,.19c-.47.2-.82.62-1.41.59a6.09,6.09,0,0,0-5.42,2.44A3.09,3.09,0,0,1,30,7.75,6,6,0,0,1,28.75,8c-.18,0-.23.08-.17.25A3.16,3.16,0,0,0,29,9a.28.28,0,0,1,0,.38,4.45,4.45,0,0,0-.8,2.54.61.61,0,0,1-.22.49,7.23,7.23,0,0,0-1.69,2.19,2.1,2.1,0,0,0-.16,1.63c.1.29.09.3-.24.27s-.29,0-.26.26A2.59,2.59,0,0,0,26.11,18a.3.3,0,0,1,0,.44,16.6,16.6,0,0,0-1.63,2.4,3.79,3.79,0,0,1-.74,1,6.9,6.9,0,0,1-3.44,2,2.73,2.73,0,0,0-1.26.7c-.59.52-1.13,1.09-1.69,1.64a.34.34,0,0,1-.31.16,5.07,5.07,0,0,1-3-1.43,6.14,6.14,0,0,1-1.32-2.71A6.57,6.57,0,0,0,9,17.54a.65.65,0,0,1-.38-.47,2.31,2.31,0,0,0-2.45-1.93,6.7,6.7,0,0,0-3.34,1A15.62,15.62,0,0,0,1.44,17Z" style="fill: #afb5ba;fill-rule: evenodd"/>
        <path d="M1.44,17a15.62,15.62,0,0,1,1.34-.85,6.82,6.82,0,0,1,3.34-1,2.3,2.3,0,0,1,2.45,1.92.61.61,0,0,0,.38.47,6.57,6.57,0,0,1,3.77,4.6A6.09,6.09,0,0,0,14,24.85a5,5,0,0,0,3,1.43c.15,0,.23-.07.31-.15.56-.56,1.11-1.13,1.7-1.65a2.77,2.77,0,0,1,1.25-.69,7.05,7.05,0,0,0,3.44-2,3.94,3.94,0,0,0,.75-1A16.19,16.19,0,0,1,26.1,18.4a.3.3,0,0,0,0-.44,2.74,2.74,0,0,1-.48-1.23c0-.22.05-.29.27-.27s.33,0,.23-.27a2.12,2.12,0,0,1,.16-1.62A7.4,7.4,0,0,1,28,12.37a.64.64,0,0,0,.23-.49A4.41,4.41,0,0,1,29,9.35.28.28,0,0,0,29,9a3.13,3.13,0,0,1-.39-.72c-.07-.17,0-.24.16-.26A5.86,5.86,0,0,0,30,7.76a3.17,3.17,0,0,0,1.64-1.07,6.14,6.14,0,0,1,5.42-2.44c.59,0,.94-.38,1.41-.58.13-.06,0-.14,0-.2a4.59,4.59,0,0,0-.93-.74,4.39,4.39,0,0,1,1.09-.25,4,4,0,0,1,.91-.06c.24,0,.31-.08.31-.31a4.62,4.62,0,0,1,.06-.64c0-.23.11-.24.29-.11.44.31.89.6,1.34.91a17.27,17.27,0,0,0,4.38,1.85,3.15,3.15,0,0,1,1.31.7,1.59,1.59,0,0,1,.46.71.45.45,0,0,0,.29.31,4.8,4.8,0,0,1,1.49.81,2,2,0,0,1,.51.8,1.12,1.12,0,0,0,.74.77,11.27,11.27,0,0,1,3.79,2.5c.17.18.18.27,0,.41a4,4,0,0,0-.39.33,2.39,2.39,0,0,0-.76,1.06,3.54,3.54,0,0,1-1.19,1.84l-.45.29c-.08,0-.16.08-.13.19s.1.1.17.1a4.45,4.45,0,0,1,1.52.36c.15.07.25,0,.36-.09a3.09,3.09,0,0,1,.87-.52,1.3,1.3,0,0,1,1.39.32.64.64,0,0,0,.5.2,3.49,3.49,0,0,1,1.4.15,2.66,2.66,0,0,1,1.14.81,1.08,1.08,0,0,1,.1,1.39.64.64,0,0,0-.09.43,1.14,1.14,0,0,1-.62,1.26.57.57,0,0,0-.29.32,2.24,2.24,0,0,1-.47.68,1.48,1.48,0,0,1-1.48.33,3.3,3.3,0,0,0-1.56-.1,2.31,2.31,0,0,1-1.86-.41.25.25,0,0,0-.41.06l-1.49,2c-.12.16,0,.23.1.32a7.56,7.56,0,0,0,3.64,1.84,1.69,1.69,0,0,1,1.21.9.31.31,0,0,0,.41.19,2.53,2.53,0,0,1,2.81,1.2,1.46,1.46,0,0,1-.26,2.07.49.49,0,0,0-.17.34,1.22,1.22,0,0,1-1.19,1.1.41.41,0,0,0-.27.13,1.38,1.38,0,0,1-1.8.29,1.66,1.66,0,0,0-.81-.19,2.79,2.79,0,0,1-2-.66,1.69,1.69,0,0,1-.35-.41,1,1,0,0,0-.67-.47,9.89,9.89,0,0,0-2.29-.39,11,11,0,0,1-4.41-1.2.42.42,0,0,0-.42,0,7.59,7.59,0,0,1-1.69.48.42.42,0,0,1-.54-.26,3.07,3.07,0,0,0-1.08-1.21.35.35,0,0,0-.44,0l-2.61,1.39a7,7,0,0,1-2.7.72c-.23,0-.27.11-.27.32a5.79,5.79,0,0,1-.72,2.63,2.18,2.18,0,0,1-.85.74,6.16,6.16,0,0,1-1.67.7,5.4,5.4,0,0,0-2.05,1.18c-.06,0-.15.09-.13.17s.12.07.19.09A2,2,0,0,0,31.22,34a2.26,2.26,0,0,1,3.11,1.51,1.22,1.22,0,0,1-.6,1.4.63.63,0,0,0-.28.34c-.29.72-.76.84-1.51.85a5.83,5.83,0,0,1-.71-.06A.4.4,0,0,0,31,38a1.87,1.87,0,0,1-2.08,0,2.61,2.61,0,0,0-1.77-.29c-.76.06-1.53.1-2.29.15a1.73,1.73,0,0,1-.56-.08,1.42,1.42,0,0,1-1-1.91,5.24,5.24,0,0,1,1-1.49c.12-.15.28-.31.16-.5a1,1,0,0,0-.62-.37c-.11,0-.13.11-.17.18-.32.61-.63,1.21-1,1.81A3.58,3.58,0,0,1,21.09,37c-.9.47-1.83.89-2.69,1.42l0,0c-1,.63-1.1.82-1,2a.35.35,0,0,0,.3.35A1.56,1.56,0,0,1,18.8,43a.66.66,0,0,1-.26.4,1.74,1.74,0,0,0-.59.7,1.12,1.12,0,0,1-1.23.5,1.4,1.4,0,0,0-.58.05,1.82,1.82,0,0,1-2.53-1.43,4.59,4.59,0,0,1,0-.91c0-1,.06-2,.1-2.95a1.64,1.64,0,0,0-.18-.84,1.44,1.44,0,0,1,.33-2.1.83.83,0,0,1,.17-.15,3.69,3.69,0,0,0,1.48-3c.11-.95.12-1.91.18-2.87a4.9,4.9,0,0,1,.08-.76c.05-.22,0-.27-.22-.32a13.74,13.74,0,0,1-1.77-.62,6,6,0,0,1-3.55-4.21c-.23-.84-.38-1.72-.68-2.55a4,4,0,0,0-1.69-2.1.44.44,0,0,0-.37-.08,2.5,2.5,0,0,1-2.62-.81,4.52,4.52,0,0,1-.5-.58,2.86,2.86,0,0,0-2.07-1.21ZM32.81,6.75a1.79,1.79,0,0,1,1,0,16.05,16.05,0,0,0-2.65,1.34,2.27,2.27,0,0,1-.85.26l-.62.08a1.32,1.32,0,0,0,.72.55,4,4,0,0,0-1.09,1.62s0,.06,0,.06,0,0,0,0a2,2,0,0,1,.51-.24c.22,0,.45-.05.6.15a.55.55,0,0,1,0,.59,1.65,1.65,0,0,1-.6.71,14.26,14.26,0,0,0-1.5,1.3A5.76,5.76,0,0,0,27,15a2,2,0,0,0-.21.71,3,3,0,0,1,.46-.1.38.38,0,0,1,.45.52,1,1,0,0,1-.29.45,2.84,2.84,0,0,1-.67.48c-.25.14-.25.19,0,.34a2.47,2.47,0,0,0,1,.26c0,.12-.09.17-.15.23a15.22,15.22,0,0,0-2.34,3.23,6.44,6.44,0,0,1-1.51,1.78,6.35,6.35,0,0,1-3,1.62,2.78,2.78,0,0,0-1.3.71A11.94,11.94,0,0,0,18,26.68a1,1,0,0,1-1.12.42,5.51,5.51,0,0,1-3.94-2.32,7.43,7.43,0,0,1-1-2.4,5.52,5.52,0,0,0-2.86-3.83c-.26-.13-.5-.3-.77-.43a.67.67,0,0,1-.43-.53A2.14,2.14,0,0,0,7.63,17a2,2,0,0,0-2.72-.84c0,.07.14.05.21.06a2.63,2.63,0,0,1,1.09.38c.16.12.37.24.29.52h0a.59.59,0,0,0-.3-.24,3.2,3.2,0,0,0-2.83,0,2.19,2.19,0,0,1,1.45,1.1,3.14,3.14,0,0,0,1.41,1,1.21,1.21,0,0,0,1,0,.64.64,0,0,1,.79.09c.22.16.45.31.68.46A3.78,3.78,0,0,1,10,21.05,15,15,0,0,1,11,24a5.1,5.1,0,0,0,3.2,4,11.73,11.73,0,0,0,2.4.75c.2,0,.27.09.19.31a4.85,4.85,0,0,0-.22,1.37c-.1,1.11-.07,2.23-.23,3.34a4.34,4.34,0,0,1-1.65,3.09,2.73,2.73,0,0,0-.25.23c-.41.38-.44.52-.17,1a2.4,2.4,0,0,1,.33,1.33c0,.6,0,1.19-.06,1.79s0,1.15-.07,1.73a1,1,0,0,0,.51.92A1,1,0,0,0,16,43.74a.45.45,0,0,1,.43-.07c.65.18.86,0,1-.62,0-.12.05-.15.17-.16a.55.55,0,0,0,.41-.16.83.83,0,0,0-.3-1.08,2.88,2.88,0,0,0-.82-.19c-.13,0-.23,0-.25-.21a17.42,17.42,0,0,1-.1-2,1,1,0,0,1,.36-.77,9,9,0,0,1,1-.67,25.15,25.15,0,0,1,2.85-1.53,2.68,2.68,0,0,0,1.23-1.17c.45-.83.89-1.67,1.3-2.52a8.44,8.44,0,0,1,3.34-3.73c.09-.06.17-.15.33-.1l-.38.36A8.31,8.31,0,0,0,25,30.82s0,.06,0,.06,0,0,.05,0a.41.41,0,0,0,.11-.07A15.17,15.17,0,0,1,31,27.92a2.1,2.1,0,0,1,.8-.13s0,0-.05,0a25.53,25.53,0,0,0-5,2.54,11.5,11.5,0,0,0-2.45,2.06c-.15.17-.2.26.07.36a2.18,2.18,0,0,1,.7.42.87.87,0,0,1,.19,1.24c-.12.19-.26.36-.39.53s-.46.58-.65.89c-.35.57-.12,1,.54,1.07a12.36,12.36,0,0,0,2.19-.1,3.24,3.24,0,0,1,2.49.45,1,1,0,0,0,1.34-.12.29.29,0,0,1,.32-.07,3.51,3.51,0,0,0,1.07.1c.37,0,.54-.13.56-.47s.14-.4.41-.49c.42-.14.5-.39.3-.8a1.37,1.37,0,0,0-1.92-.7L31,35a1.49,1.49,0,0,1-.91.09c-.6-.12-1.19-.26-1.79-.35-.28,0-.28-.15-.16-.37a5,5,0,0,1,2.74-2.27,16.59,16.59,0,0,0,1.92-.75,1.41,1.41,0,0,0,.72-.66,3.62,3.62,0,0,0,.36-2.82c-.07-.22,0-.27.21-.28a11.47,11.47,0,0,0,2.34-.32,15.47,15.47,0,0,0,2.73-1.29.88.88,0,0,0,.36-.24A7.38,7.38,0,0,0,36.87,25a23.24,23.24,0,0,0-2.77-.11,14.42,14.42,0,0,1,5.78,0,3.89,3.89,0,0,1,2.66,1.77c.09.14.19.08.3.06a7.38,7.38,0,0,0,2.27-.92,21.55,21.55,0,0,0,2.53-1.88,16,16,0,0,0,3-3c.31-.45.63-.89,1-1.33a1.19,1.19,0,0,1,1-.48.24.24,0,0,1,.21.05,1.89,1.89,0,0,0,2,.47,2,2,0,0,1,1.09,0c.9.27,1.16.13,1.48-.75a.36.36,0,0,1,.26-.26c.47-.16.56-.32.38-.78-.1-.26-.1-.42.16-.58a.33.33,0,0,0,.11-.53,1.72,1.72,0,0,0-1.37-.7l-1.19,0a.31.31,0,0,1-.28-.18.62.62,0,0,0-1-.2c-.15.12-.3.24-.46.35a1,1,0,0,1-1.08.1,2.33,2.33,0,0,0-1.68-.25c-.15,0-.31.11-.46.16v-.79c0-.06,0-.17,0-.18-.24-.07-.14-.27-.16-.42a4.86,4.86,0,0,1,0-.54c-.11,0-.13.14-.19.21a2.26,2.26,0,0,1-.67.6.71.71,0,0,1-1.06-.35,2.29,2.29,0,0,1-.16-1,.35.35,0,0,1,.24-.37,5.33,5.33,0,0,1,2.23-.45c.13,0,.18,0,.22.17a1.71,1.71,0,0,1-.1,1S51,14,51,14l.05,0a1,1,0,0,0,.43-.22,2.6,2.6,0,0,0,1-1.43,2.11,2.11,0,0,1,1-1.33s0,0,0-.05l-.12-.11A10.18,10.18,0,0,0,50.25,9a1.71,1.71,0,0,1-1-1.1A1.43,1.43,0,0,0,48.34,7L47,6.36c-.07,0-.17,0-.15-.16a1,1,0,0,0-.68-1.06,8.81,8.81,0,0,0-1.25-.44,11.61,11.61,0,0,1-4.26-2.05s0,0-.08,0a1.54,1.54,0,0,0,.28.86A7.59,7.59,0,0,0,39,3.24,4.14,4.14,0,0,1,40,4.06a4.16,4.16,0,0,0-1.48.56,1.62,1.62,0,0,1,1,.45,2.52,2.52,0,0,1-1,.1c-.73,0-1.46-.09-2.19-.07a5,5,0,0,0-3.61,1.6s-.07,0,0,.08S32.79,6.78,32.81,6.75ZM45.35,26.61l.19.09a11.32,11.32,0,0,0,3.52.84,9.89,9.89,0,0,1,3.18.68.42.42,0,0,1,.28.24,1.6,1.6,0,0,0,1.19,1,3.76,3.76,0,0,0,1.16,0,.6.6,0,0,1,.41.12c.62.47,1,.33,1.28-.4l0-.07.36.1c.4.1.62,0,.68-.46a2,2,0,0,0,0-.42c0-.15,0-.2.18-.24.49-.1.64-.43.39-.87-.5-.85-1.06-1.25-2-1-.64.16-.92,0-1.27-.58a1.05,1.05,0,0,0-.69-.54,8.17,8.17,0,0,1-4-2c-.17-.16-.26-.16-.42,0a19.37,19.37,0,0,1-4.24,3.36C45.49,26.47,45.39,26.5,45.35,26.61Z" style="fill: #fbfcfd;fill-rule: evenodd"/>
        <path d="M6.5,17.07c.08-.28-.13-.4-.29-.52a2.68,2.68,0,0,0-1.09-.38c-.07,0-.16,0-.21-.06A2,2,0,0,1,7.63,17a2,2,0,0,1,.23.64.67.67,0,0,0,.43.53c.27.13.51.3.77.43a5.5,5.5,0,0,1,2.86,3.83,7.66,7.66,0,0,0,1,2.4,5.51,5.51,0,0,0,3.94,2.32A1,1,0,0,0,18,26.68a11.94,11.94,0,0,1,1.49-1.44,2.87,2.87,0,0,1,1.3-.71,6.35,6.35,0,0,0,3-1.62,6.44,6.44,0,0,0,1.51-1.78,15.22,15.22,0,0,1,2.34-3.23c.06-.06.14-.11.15-.23a2.47,2.47,0,0,1-1-.26c-.24-.15-.24-.2,0-.34a2.84,2.84,0,0,0,.67-.48,1,1,0,0,0,.29-.45.38.38,0,0,0-.45-.52,3,3,0,0,0-.46.1A2,2,0,0,1,27,15a5.76,5.76,0,0,1,1.32-1.84,14.26,14.26,0,0,1,1.5-1.3,1.65,1.65,0,0,0,.6-.71.55.55,0,0,0,0-.59c-.15-.2-.38-.18-.6-.15a2,2,0,0,0-.51.24l0,0A3.85,3.85,0,0,1,30.38,9a1.28,1.28,0,0,1-.71-.56l.61-.08a2.27,2.27,0,0,0,.85-.26,16.05,16.05,0,0,1,2.65-1.34,1.79,1.79,0,0,0-1,0l-.05,0a5,5,0,0,1,3.61-1.61c.73,0,1.46,0,2.18.08a2.9,2.9,0,0,0,1-.1,1.53,1.53,0,0,0-1-.45A4.18,4.18,0,0,1,40,4.05,4.14,4.14,0,0,0,39,3.23a7.59,7.59,0,0,1,1.93.26,1.52,1.52,0,0,1-.28-.86h.08a11.3,11.3,0,0,0,4.26,2.05,8.11,8.11,0,0,1,1.25.45,1,1,0,0,1,.68,1.05c0,.14.08.13.15.17.44.19.88.4,1.32.58a1.48,1.48,0,0,1,.86.92,1.75,1.75,0,0,0,1,1.11,10,10,0,0,1,3.13,1.86l.12.11s0,.05,0,.06a2,2,0,0,0-1,1.33,2.69,2.69,0,0,1-1,1.43,1.08,1.08,0,0,1-.43.21l0,0a1.74,1.74,0,0,0,.1-1.06.21.21,0,0,0-.22-.17,5.23,5.23,0,0,0-2.24.46.34.34,0,0,0-.23.36,2.24,2.24,0,0,0,.16,1,.7.7,0,0,0,1.06.35,2.13,2.13,0,0,0,.67-.6c.06-.07.08-.17.19-.21a4.86,4.86,0,0,0,0,.54c0,.15-.08.35.16.42,0,0,0,.12,0,.19V16l.46-.15a2.33,2.33,0,0,1,1.68.24,1,1,0,0,0,1.08-.1l.46-.34a.63.63,0,0,1,1,.19.28.28,0,0,0,.28.18l1.19,0a1.76,1.76,0,0,1,1.37.71.33.33,0,0,1-.11.53c-.26.15-.26.31-.16.57.18.47.09.63-.38.79a.35.35,0,0,0-.26.25c-.32.88-.58,1-1.48.76a1.93,1.93,0,0,0-1.09-.05,1.89,1.89,0,0,1-2-.46.25.25,0,0,0-.21-.06,1.21,1.21,0,0,0-1,.48c-.33.44-.65.88-1,1.34a15.63,15.63,0,0,1-3,3,19.52,19.52,0,0,1-2.53,1.88,7.38,7.38,0,0,1-2.27.92c-.11,0-.21.08-.3-.06a3.84,3.84,0,0,0-2.66-1.76,14.07,14.07,0,0,0-5.78,0,21.32,21.32,0,0,1,2.77.11,7.38,7.38,0,0,1,2.67.73.77.77,0,0,1-.36.23,15.51,15.51,0,0,1-2.73,1.3,11.46,11.46,0,0,1-2.34.31c-.21,0-.28.06-.21.29a3.6,3.6,0,0,1-.36,2.81,1.41,1.41,0,0,1-.72.66,18.68,18.68,0,0,1-1.92.76,5,5,0,0,0-2.74,2.27c-.12.21-.12.31.16.36.6.1,1.19.24,1.79.35a1.49,1.49,0,0,0,.91-.09l.47-.2a1.35,1.35,0,0,1,1.92.7c.2.4.12.65-.3.79-.27.09-.39.2-.41.49s-.19.45-.56.48a3.23,3.23,0,0,1-1.07-.11.31.31,0,0,0-.32.07,1,1,0,0,1-1.34.13,3.25,3.25,0,0,0-2.49-.46,10.72,10.72,0,0,1-2.19.1c-.66,0-.89-.5-.54-1.07.19-.31.43-.59.65-.89s.27-.34.39-.52A.9.9,0,0,0,25,33.2a2.18,2.18,0,0,0-.7-.42c-.27-.09-.22-.18-.07-.35a11.55,11.55,0,0,1,2.45-2.07,25.49,25.49,0,0,1,5-2.53s0,0,.05,0a2.1,2.1,0,0,0-.8.13,15.46,15.46,0,0,0-5.82,2.86l-.11.08-.05,0a8.58,8.58,0,0,1,1.5-1.74l.38-.36c-.16-.05-.24.05-.33.1a8.47,8.47,0,0,0-3.34,3.74c-.41.85-.85,1.68-1.3,2.52a2.68,2.68,0,0,1-1.23,1.17,25.08,25.08,0,0,0-2.85,1.52,7.84,7.84,0,0,0-1,.68.94.94,0,0,0-.36.76,17.48,17.48,0,0,0,.1,2c0,.17.12.19.25.2a3.26,3.26,0,0,1,.82.19A.83.83,0,0,1,18,42.72a.49.49,0,0,1-.41.16c-.11,0-.15,0-.16.17-.11.66-.32.8-1,.61a.47.47,0,0,0-.44.07,1,1,0,0,1-1.07.08,1,1,0,0,1-.51-.92c0-.58.05-1.16.07-1.74s0-1.19.06-1.78A2.38,2.38,0,0,0,14.24,38c-.27-.49-.24-.63.17-1a2.62,2.62,0,0,1,.25-.22,4.34,4.34,0,0,0,1.65-3.09c.16-1.11.13-2.24.23-3.35A4.9,4.9,0,0,1,16.76,29c.08-.21,0-.26-.19-.31a11.71,11.71,0,0,1-2.4-.74A5.13,5.13,0,0,1,11,24,14.73,14.73,0,0,0,10,21.05a3.78,3.78,0,0,0-1.29-1.59L8.07,19a.63.63,0,0,0-.79-.1,1.17,1.17,0,0,1-1,0,3.16,3.16,0,0,1-1.41-1,2.22,2.22,0,0,0-1.45-1.1,3.26,3.26,0,0,1,2.83,0c.11.07.24.12.3.25l0,0s0,0,0,0S6.51,17.05,6.5,17.07Zm35.85-3.23,0,0v0h0a1.47,1.47,0,0,0-.51-.67,5.57,5.57,0,0,0-7.19-.78.6.6,0,0,0-.27.26l1-.27a7.7,7.7,0,0,1,4.9.26A15.75,15.75,0,0,1,42.35,13.84ZM37.08,16.6a.33.33,0,0,0,.26,0,8.75,8.75,0,0,1,3.49-.24,4.57,4.57,0,0,1,1.9.61,1.9,1.9,0,0,1,1,1.66,2,2,0,0,1-.21.79c1.18-.07,5.28-2,5.84-2.72a6.83,6.83,0,0,0-1.9-.67,1.06,1.06,0,0,0-1,.38,2.18,2.18,0,0,0-.46,1.12c0,.09,0,.18-.12.23a5.6,5.6,0,0,1-1.28.47c-.09,0-.16,0-.16-.11A1.9,1.9,0,0,0,43,16.33,7.26,7.26,0,0,0,37.08,16.6ZM29,16.72a4.44,4.44,0,0,0,1.64.36A6.83,6.83,0,0,0,34.49,16c.52-.31,1-.65,1.56-.92a7.19,7.19,0,0,1,4.28-.76l-.21-.1a6.43,6.43,0,0,0-5,.38l-1.61.84A10.32,10.32,0,0,1,29,16.72ZM48.82,9.11a2.31,2.31,0,0,0-2.27-.17,3.6,3.6,0,0,1,2,1C48.42,9.52,48.71,9.36,48.82,9.11Z" style="fill: #0176b6;fill-rule: evenodd"/>
        <path d="M45.35,26.61c0-.11.14-.14.22-.18a19.37,19.37,0,0,0,4.24-3.36c.16-.16.25-.17.42,0a8.13,8.13,0,0,0,4,2,1.06,1.06,0,0,1,.7.55c.34.57.62.73,1.26.57a1.65,1.65,0,0,1,2,1c.26.43.1.76-.38.86-.16,0-.2.1-.19.24a2.07,2.07,0,0,1,0,.43c-.06.41-.28.55-.68.45-.12,0-.23-.07-.35-.1a.25.25,0,0,0,0,.07c-.23.73-.65.87-1.27.41a.57.57,0,0,0-.42-.13,3.78,3.78,0,0,1-1.16,0,1.6,1.6,0,0,1-1.19-1,.41.41,0,0,0-.28-.25,10.45,10.45,0,0,0-3.17-.68,11.24,11.24,0,0,1-3.52-.83Z" style="fill: #0176b6;fill-rule: evenodd"/>
        <path d="M32.81,6.75s-.07,0-.09,0,0,0,0-.07Z" style="fill: #0176b6;fill-rule: evenodd"/>
        <path d="M29.33,10.66s0,.06,0,0,0,0,0-.06Z" style="fill: #0176b6;fill-rule: evenodd"/>
        <path d="M51.06,14,51,14s0,0,0-.06Z" style="fill: #0176b6;fill-rule: evenodd"/>
        <path d="M25.07,30.85s0,0-.05,0,0-.05,0-.07Z" style="fill: #0176b6;fill-rule: evenodd"/>
        <path d="M37.08,16.6A7.26,7.26,0,0,1,43,16.33a1.89,1.89,0,0,1,1.36,1.77c0,.14.07.14.17.12a5.7,5.7,0,0,0,1.27-.47.26.26,0,0,0,.12-.23,2.18,2.18,0,0,1,.46-1.12,1.06,1.06,0,0,1,1-.38,6.83,6.83,0,0,1,1.9.67c-.56.74-4.66,2.65-5.84,2.72a2,2,0,0,0,.21-.79,1.88,1.88,0,0,0-1-1.66,4.57,4.57,0,0,0-1.9-.61,8.75,8.75,0,0,0-3.49.24A.33.33,0,0,1,37.08,16.6Z" style="fill: #f9fbfd;fill-rule: evenodd"/>
        <path d="M29,16.72a10.32,10.32,0,0,0,4.55-1.31l1.61-.84a6.43,6.43,0,0,1,5-.38l.21.1a7.19,7.19,0,0,0-4.28.76c-.54.27-1,.61-1.56.92a6.83,6.83,0,0,1-3.85,1.11A4.44,4.44,0,0,1,29,16.72Z" style="fill: #f9fbfd;fill-rule: evenodd"/>
        <path d="M42.35,13.84a15.75,15.75,0,0,0-2.12-1.19,7.66,7.66,0,0,0-4.91-.26l-1,.26a.63.63,0,0,1,.27-.25,5.57,5.57,0,0,1,7.19.78,1.47,1.47,0,0,1,.51.67Z" style="fill: #f9fbfd;fill-rule: evenodd"/>
        <path d="M48.82,9.11c-.11.25-.4.41-.3.82a3.6,3.6,0,0,0-2-1A2.31,2.31,0,0,1,48.82,9.11Z" style="fill: #f9fbfd;fill-rule: evenodd"/>
        <path d="M42.34,13.85h0v0l0,0Z" style="fill: #f9fbfd;fill-rule: evenodd"/>
        <path d="M6.5,17.07l0,0s0,0,0,0l0,0Z" style="fill: #fbfcfd;fill-rule: evenodd"/>
      </g>
    </g>
  </g>
</svg>
