<svg xmlns="http://www.w3.org/2000/svg" viewBox="0 0 53.23 60">
  <title>15</title>
  <g id="Layer_2" data-name="Layer 2">
    <g id="Layer_1-2" data-name="Layer 1">
      <g id="_15" data-name="15">
        <path d="M46.61,26.46s10.6,5.72,5,16.88a20.88,20.88,0,0,0-2.84.76s-5.52,5.52-16,2.71c0,0-6.35-.1-4.29,13.19L6.81,43.77s-4.4-2.31-4.22-11L0,33s2.64-5.5,4.17-7l-1.76-.48A20.51,20.51,0,0,1,8.77,19.7s-1-6-.73-8.62l2.14,2.19A21,21,0,0,1,12.56,0s1.77,5.39,13.92,12.51c4.29,2.51,12.14,4.12,17.14,8C45.68,22.74,46.86,24.79,46.61,26.46Z"/>
        <path d="M40.16,37.81a2.6,2.6,0,0,0-1.64,2.42s1.89-.44,2-.42A5.13,5.13,0,0,0,40.16,37.81Z" style="fill: #fff"/>
        <path d="M43,39.36s-.39-2.16-.62-2.19-1.6,0-1.6,0a3.84,3.84,0,0,1,.59,2.16C42,39.38,43,39.36,43,39.36Z" style="fill: #fff"/>
        <path d="M43.35,37.19s1.89-.42,1.58,2.19l-1.38,0A7,7,0,0,0,43.35,37.19Z" style="fill: #fff"/>
        <path d="M45.73,38s1.37.44,1.46,1.61l-1.41-.23Z" style="fill: #eaeaea"/>
        <path d="M40.58,40.54l0,1.78a2.5,2.5,0,0,1-1.84-1.24Z" style="fill: #eaeaea"/>
        <polygon points="41.4 40.31 42.79 40.33 42.6 42.32 41 42.3 41.4 40.31" style="fill: #eaeaea"/>
        <path d="M45,40.29a1.54,1.54,0,0,1-1.83,1.8,18,18,0,0,0,.45-1.81Z" style="fill: #eaeaea"/>
        <path d="M45.35,41.48a8,8,0,0,0,.45-1.22l1.41.62Z" style="fill: #eaeaea"/>
        <path d="M49.94,41.38a10.18,10.18,0,0,0-3.42-12.16S40.29,25,37.29,33.63c0,0-7.27.2-5.76,7.45,0,0,1,5,6.77,4.62,0,0,5.33,0,8.58-3.35,0,0-10,4-10.12-2,0,0,.08-6,6.31-5A9.41,9.41,0,0,1,49.94,41.38Z" style="fill: #f7ba0e"/>
        <path d="M38.17,28.22s2.68-2.39,5.7-2c0,0,.6-4.35-6.58-6.86a80.92,80.92,0,0,1-15.93-7.21,46.49,46.49,0,0,1-9-7S9.87,12.51,13.77,18a5.12,5.12,0,0,1-3.59-1.74s-.66,6.18,9.74,9.45c0,0-6.43-.15-10.37-4.32L5.48,24.92l1.63.56-4.37,6,2.41.05S3.82,38,7.36,41.21c1,.65,18,13.29,18,13.29s-.13-6,3.66-8.7c0,0-2.13.26-5-2.46,0,0,3.77-.1,4.4-1.08,0,0-3.52-.63-4.77-2.51,0,0,3.57,0,4.2-.81a3.4,3.4,0,0,0,0-.83,7,7,0,0,1-3.47-2.28s4.07.07,4.22-.93c0,0-7.23-2.21-3.16-9.93a4.08,4.08,0,0,1,2.89-1.6s1.48-.08.3-1.41a15.23,15.23,0,0,0-3.57-2.31s3.39-.83,7.24,2.48c0,0,7.59,6.69,6.35,1.11C38.69,23.24,41.43,24.93,38.17,28.22Z" style="fill: #f90f0e"/>
        <path d="M31.46,25.35s-2.64,1.94-.55,3.87c0,0,1.91,2.26,4.59-.5,0,0,.71.7.35,1.13,0,0-3,4.24-6.75.22a4,4,0,0,1,1.23-5.49C30.7,24.36,31.42,25.18,31.46,25.35Z" style="fill: #fff"/>
        <ellipse cx="34.07" cy="27.59" rx="0.33" ry="0.84" transform="translate(-9.62 31.24) rotate(-43.78)" style="fill: #fff"/>
      </g>
    </g>
  </g>
</svg>
