<svg xmlns="http://www.w3.org/2000/svg" viewBox="0 0 60 53.19">
  <title>16</title>
  <g id="Layer_2" data-name="Layer 2">
    <g id="Layer_1-2" data-name="Layer 1">
      <g id="_16" data-name="16">
        <path d="M24.63,0c1.75.92,3.51,1.55,5.11,2.51A8.37,8.37,0,0,0,33,3.29,26.38,26.38,0,0,1,38.14,4.4,8.74,8.74,0,0,1,41.3,6.2a4.59,4.59,0,0,1,1.46,2.45,1.54,1.54,0,0,0,.76,1A8.89,8.89,0,0,1,46.32,13a1.43,1.43,0,0,0,.63.68,6.4,6.4,0,0,1,2.78,3c.12.26.23.41.56.32,2.93-.73,5,.62,6.47,3A20.74,20.74,0,0,1,60,29.24,8.43,8.43,0,0,1,54.72,38a17.56,17.56,0,0,1-1.8.46,6.65,6.65,0,0,0-3.72,2.47,24.48,24.48,0,0,1-5.7,5.79,3.61,3.61,0,0,1-.65.39,8.45,8.45,0,0,0-3.08,2.38A7.57,7.57,0,0,1,34,52.35a45,45,0,0,0-5.75.74,10.06,10.06,0,0,1-5.91-1,8.56,8.56,0,0,1-1.15-.63,26.82,26.82,0,0,0-5.42-2.95,9.4,9.4,0,0,1-4.35-3.74,2.53,2.53,0,0,0-.89-.83,10.73,10.73,0,0,1-4.3-4.55c-.94-1.85-1.93-3.67-2.91-5.49a1.43,1.43,0,0,1-.17-1.05A12.43,12.43,0,0,1,4.1,29.7a7.86,7.86,0,0,0,.83-3,18.15,18.15,0,0,1,1.68-6c.09-.23.34-.46-.05-.7-2.82-1.71-4.27-4.41-5.37-7.39S.07,6.48,0,3.37C0,3,.09,3,.4,3.09c.85.29,1.72.52,2.56.85a15.26,15.26,0,0,0,8.57.52,49.21,49.21,0,0,1,9-1.1,13.48,13.48,0,0,1,3.23.33c.34.09.47,0,.51-.36C24.33,2.25,24.49,1.18,24.63,0ZM35.69,40.09h0c.13,0,.16,0,.15-.15h0c.11,0,.15,0,.15-.14h0c.19,0,.23-.12.29-.25,1.42-1.6,2.52-3.43,3.8-5.13a19.37,19.37,0,0,1-1.46,4c-.09.14-.19.26-.27.4a30.76,30.76,0,0,1-7.55,8.44,6.71,6.71,0,0,1-3.37,1.47,26.74,26.74,0,0,1-3.2.26,2.52,2.52,0,0,0,1,.62,6.17,6.17,0,0,0,5.21-.13c1.36-.13,2.71-.26,4-.51a4.47,4.47,0,0,0,4-1.62c.49-.61,1.1-1.12,1.63-1.69a2.4,2.4,0,0,1,.76-.58A15.13,15.13,0,0,0,45.08,42c1.3-1.35,2.53-2.75,3.82-4.09a8.68,8.68,0,0,1,4.7-2.61,4.31,4.31,0,0,0,3.84-4.21,14.23,14.23,0,0,0-1.65-7.52,11.54,11.54,0,0,0-1.73-3c-1.7-1.89-3.35-1.63-4.31.72-.4,1-.77,2-1.23,3-.24.32-.48.66-.74,1-1.22,1.54-2,3.15-.7,5.14a3.21,3.21,0,0,1-1.71-4.68c.31-.61.71-1.17,1.09-1.79a5.73,5.73,0,0,0-2.27.36,7.69,7.69,0,0,1,1-1.61,10.36,10.36,0,0,0-4.28.7,5.76,5.76,0,0,1,2.17-2.1,9.48,9.48,0,0,0-4.51,1,3.43,3.43,0,0,1,1.25-2.1,8.55,8.55,0,0,1,2-.85,20,20,0,0,1-3-3.48A21.92,21.92,0,0,0,37,13.65a11.9,11.9,0,0,0-9.64-4.09.77.77,0,0,1-.77-.42,6.06,6.06,0,0,0-3-2.41,10.56,10.56,0,0,0-3.23-.66,27.29,27.29,0,0,0-6.92.75C10.2,7.45,7,7.9,3.73,6.93c-.14,0-.16.05-.14.14A12.72,12.72,0,0,0,4.26,10a10.94,10.94,0,0,0,4.17,6.79,7.58,7.58,0,0,0,6,1.56c.92-.2,1.83-.47,2.74-.7.09.13,0,.22-.08.3a6.7,6.7,0,0,1-6.61,2.62c-.26,0-.5-.17-.57.21A14,14,0,0,0,8.32,28,30.28,30.28,0,0,0,6.4,30.94c-.1.19-.3.37-.14.62A5.69,5.69,0,0,0,7,32.84c.57,1.49,1.43,2.83,2.21,4.41a9.33,9.33,0,0,1,3-6.7c3.53-3.35,7.84-4.48,12.59-4.21a4.47,4.47,0,0,1,1.85.42,20.46,20.46,0,0,0-4.52.88c-.11,0-.24,0-.29.14h0c-.12,0-.26,0-.29.14h0c-.18-.1-.36,0-.53.05a14.6,14.6,0,0,0-5.7,3.66A8.43,8.43,0,0,0,16.94,45a12.56,12.56,0,0,0,8.67,1.53c4.06-.58,7.14-2.9,9.78-5.89.1-.1.28-.21.16-.41h0C35.68,40.28,35.71,40.22,35.69,40.09ZM45.77,20.32a3.11,3.11,0,0,0,1.54.52l-.8-2.59.1-.09,1.46,1.32a6.11,6.11,0,0,0-2.62-4.06,2.72,2.72,0,0,1-.81-.91c-.94-1.68-2.07-3.17-4-3.73-.3-.08-.26-.27-.25-.48a2.94,2.94,0,0,0-1.83-3A15.69,15.69,0,0,0,34,6.07c-2.16-.38-4.43-.33-6.31-1.75-.18-.14-.2.07-.19.21a6.86,6.86,0,0,0,.1,2.78c0,.23.17.27.37.28a16.49,16.49,0,0,1,3.7.65,16.43,16.43,0,0,1,5.09,2.67,29.08,29.08,0,0,1,3.79,4.71,20.53,20.53,0,0,0,1.87,2.47A8.14,8.14,0,0,0,45.77,20.32Z" style="fill: #042c5d;fill-rule: evenodd"/>
        <path d="M39.84,20.24a3.44,3.44,0,0,0-1.26,2.09,9.36,9.36,0,0,1,4.51-1,5.62,5.62,0,0,0-2.17,2.1,10.57,10.57,0,0,1,4.28-.71,8.13,8.13,0,0,0-1,1.61,6,6,0,0,1,2.28-.36c-.39.63-.79,1.18-1.1,1.79a3.21,3.21,0,0,0,1.71,4.68c-1.3-2-.52-3.6.71-5.14.25-.32.49-.65.74-1,.6.29.79-.28,1-.57.61-.69,1-1.54,1.68-2.18s.83-.49,1.37,0a5.67,5.67,0,0,1,1.18,1.61c1.3,2.4,2.46,4.85,2.36,7.68a3.12,3.12,0,0,1-2,3,8.52,8.52,0,0,1-1.86.5,7.28,7.28,0,0,0-4.83,2.91,21.08,21.08,0,0,1-2.95,3.1,3.53,3.53,0,0,1-1.27.88,6.42,6.42,0,0,0,.69-3.71c-.18.06-.2.21-.25.32a25.42,25.42,0,0,1-6.1,8.61c-.19.19-.37.44-.7.3a3.85,3.85,0,0,0,.3-.27.83.83,0,0,0,.19-1,.49.49,0,0,0-.6-.23.88.88,0,0,0-.69.77c-.08.6.27.77.79.75.08.46-.33.6-.59.82-.6.5-1.23,1-1.85,1.45-1.34.25-2.7.39-4,.52a15.77,15.77,0,0,0,5.48-5.44,20.3,20.3,0,0,0,2.72-5.62,19.84,19.84,0,0,0,1.46-4c-1.29,1.7-2.38,3.54-3.8,5.13l-.29.26h0l-.15.14h0a.13.13,0,0,0-.14.14h0c-.09,0-.15,0-.14.15h0c-.26,0-.39.22-.57.35a19,19,0,0,1-9.62,4,11.19,11.19,0,0,1-7.11-1.47,5.92,5.92,0,0,1-2.78-3.29c-1-3.47-.06-6.38,2.34-8.94a24.58,24.58,0,0,1,3.77-3h0a.25.25,0,0,0,.29-.15h0a.31.31,0,0,0,.29-.14,21.05,21.05,0,0,1,4.52-.88,4.47,4.47,0,0,0-1.85-.42c-4.75-.26-9.07.87-12.59,4.22a9.28,9.28,0,0,0-3,6.7C8.45,35.68,7.58,34.34,7,32.85c2.71-6.45,7.82-9.6,14.55-10.53a12.8,12.8,0,0,0-7.25,1,16.22,16.22,0,0,0-4.38,2.95c0-.34-.11-.68-.15-1A20,20,0,0,1,10,20.79c.07-.39.3-.26.56-.22A6.69,6.69,0,0,0,17.12,18c.07-.08.17-.16.09-.29a2.57,2.57,0,0,0-.4-.08,14.65,14.65,0,0,1-6.35-1.9A19.25,19.25,0,0,1,4.26,10a12.65,12.65,0,0,1-.68-2.92c0-.09,0-.18.14-.14.14.32.46.44.73.59a9.89,9.89,0,0,0,6.24.83,46.18,46.18,0,0,1,8.55-.79c2.85.12,5.32,1,6.93,3.54a.58.58,0,0,0,.69.27,8.74,8.74,0,0,1,7.33,1.72,4.62,4.62,0,0,1,1.65,1.52l0,0A9.84,9.84,0,0,0,33,14c.25.22.39.37.55.49a52.62,52.62,0,0,1,5.87,5.09C39.62,19.74,39.88,19.9,39.84,20.24ZM48.4,33.69l-.2-.29c-.17-.19-.33-.39-.51-.57A32.08,32.08,0,0,0,36,25.51a6.43,6.43,0,0,0-6.2,1,28.06,28.06,0,0,0-5.91,6.06s0,.07,0,.15A61.2,61.2,0,0,1,48.4,33.69ZM6,9.2a9.12,9.12,0,0,0,4.59,3.16,15.19,15.19,0,0,0,4.08.65,14.8,14.8,0,0,1,5.14.9,3.73,3.73,0,0,1,1.77,1.28,2.36,2.36,0,0,1,.28,2.09c.13,0,.22,0,.26-.06,1.64-1.54,2.26-3.48-.29-4.92a7,7,0,0,0-.87-.42A14.43,14.43,0,0,0,15,11,16,16,0,0,1,6.4,9.29,2,2,0,0,0,6,9.2Zm21,6.25a.65.65,0,0,0,.27.51,3.89,3.89,0,0,1,1,2.11,3.13,3.13,0,0,0,3,2.81c1.69.28,3.27-.49,5-.4A15.24,15.24,0,0,0,27,15.45Zm24.63,7.37c0,2.36,0,4.69-2,6.44,1.66,1,2.68.69,2.84-.93A14.16,14.16,0,0,0,51.66,22.82Zm2.74,3.52v.41c0,1.88-.07,3.73-1.39,5.25-.11.13-.16.23,0,.32a1.8,1.8,0,0,0,1.43.34,1.13,1.13,0,0,0,.73-1.08A12.33,12.33,0,0,0,54.4,26.34ZM19.31,9.91c.39-.05.8-.16.82-.64s-.38-.67-.8-.66-.81.16-.8.66S18.9,9.85,19.31,9.91ZM9.11,31.15c0,.31.15.62.54.61a.87.87,0,0,0,.83-.87.58.58,0,0,0-.5-.71C9.59,30.12,9.13,30.62,9.11,31.15ZM40.4,41.59c0-.42-.14-.74-.58-.72a.83.83,0,0,0-.76.9c0,.35.15.67.55.66S40.34,42,40.4,41.59ZM20.13,25.27c.41-.05.82-.17.86-.64s-.36-.67-.78-.67-.81.17-.82.66S19.74,25.21,20.13,25.27Zm-6.08-15c.36-.05.74-.18.73-.68s-.37-.6-.77-.6-.81.17-.83.64S13.56,10.2,14.05,10.22ZM41.36,36.84c.07.35.19.7.62.67a.77.77,0,0,0,.71-.86c0-.41-.14-.76-.63-.71S41.43,36.39,41.36,36.84ZM24.23,12.3a.55.55,0,0,0,.63-.56.92.92,0,0,0-.91-.85.54.54,0,0,0-.59.54A.9.9,0,0,0,24.23,12.3Zm-10.16,15c.53,0,1-.42,1-.83a.54.54,0,0,0-.66-.52.86.86,0,0,0-.9.79C13.48,27.18,13.77,27.31,14.07,27.33Z" style="fill: #c3ccd3;fill-rule: evenodd"/>
        <path d="M36.89,46.69c.34.14.51-.11.71-.3a25.49,25.49,0,0,0,6.09-8.61c.05-.12.07-.27.25-.32a6.42,6.42,0,0,1-.69,3.71,3.43,3.43,0,0,0,1.27-.89,20.52,20.52,0,0,0,2.95-3.09,7.28,7.28,0,0,1,4.84-2.91,8.59,8.59,0,0,0,1.85-.5,3.12,3.12,0,0,0,2-3c.1-2.83-1.06-5.28-2.36-7.69a5.77,5.77,0,0,0-1.18-1.6c-.54-.48-.84-.49-1.37,0S50.18,23,49.57,23.72c-.26.29-.45.86-1,.57.46-1,.82-2,1.23-3,1-2.35,2.6-2.61,4.31-.71a11.78,11.78,0,0,1,1.73,3,14.17,14.17,0,0,1,1.64,7.53,4.3,4.3,0,0,1-3.84,4.2,8.66,8.66,0,0,0-4.69,2.61c-1.3,1.34-2.53,2.75-3.82,4.09a15.27,15.27,0,0,1-4.29,3.1,2.4,2.4,0,0,0-.76.58c-.54.57-1.15,1.08-1.63,1.69a4.49,4.49,0,0,1-4,1.62c.62-.48,1.25-.95,1.85-1.45.26-.22.66-.36.59-.83Z" style="fill: #f9fafa;fill-rule: evenodd"/>
        <path d="M21.57,27.91a24,24,0,0,0-3.77,3c-2.4,2.56-3.38,5.47-2.34,8.93a5.9,5.9,0,0,0,2.78,3.3,11.18,11.18,0,0,0,7.11,1.46,18.87,18.87,0,0,0,9.62-4c.18-.14.31-.35.57-.35.12.2-.06.3-.15.41-2.65,3-5.72,5.3-9.79,5.89A12.53,12.53,0,0,1,16.94,45a8.44,8.44,0,0,1-1.61-13.37A14.41,14.41,0,0,1,21,28,.66.66,0,0,1,21.57,27.91Z" style="fill: #c21431;fill-rule: evenodd"/>
        <path d="M39.84,20.24c0-.34-.22-.5-.41-.68a52.52,52.52,0,0,0-5.86-5.09c-.16-.12-.3-.27-.55-.49a9.92,9.92,0,0,1,2.79.67l.16.09,0-.05-.18-.08c-.34-.72-1-1.06-1.64-1.51a8.74,8.74,0,0,0-7.33-1.72.58.58,0,0,1-.69-.28c-1.61-2.54-4.08-3.41-6.93-3.53a47.05,47.05,0,0,0-8.55.78,9.81,9.81,0,0,1-6.24-.82c-.27-.15-.59-.27-.73-.6,3.25,1,6.48.53,9.71-.1a27.22,27.22,0,0,1,6.91-.75,10.49,10.49,0,0,1,3.23.65,6.17,6.17,0,0,1,3,2.41.74.74,0,0,0,.77.42A12,12,0,0,1,37,13.65a20.58,20.58,0,0,1,1.82,2.25,19.31,19.31,0,0,0,3,3.48A8,8,0,0,0,39.84,20.24Z" style="fill: #f9fafa;fill-rule: evenodd"/>
        <path d="M36.77,10.91a16.32,16.32,0,0,0-5.09-2.67c.11,0,.22-.11.32-.09a40.73,40.73,0,0,1,4.35,1c.82.24,1.63.51,2.48.79a1.83,1.83,0,0,0-1-1.38,9.66,9.66,0,0,0-4.14-1.36c-2.3-.37-4.59-.7-6.22-2.64,0-.14,0-.35.2-.21C29.58,5.74,31.86,5.69,34,6.07a15.72,15.72,0,0,1,4.5,1.26,3,3,0,0,1,1.84,3c0,.2-.06.39.24.47,2,.56,3.1,2.06,4,3.73a2.74,2.74,0,0,0,.8.92,6.07,6.07,0,0,1,2.62,4.05l-1.46-1.32-.09.09c.26.85.51,1.69.79,2.59a3,3,0,0,1-1.53-.52c-.36-.77-.71-1.54-1.08-2.3-.14-.27-.16-.63-.52-.76a1.46,1.46,0,0,0-.64-1.34,3.29,3.29,0,0,0-1.67-2.4c0-1-.64-1.49-1.45-1.14A9.68,9.68,0,0,0,36.77,10.91Z" style="fill: #f9fafa;fill-rule: evenodd"/>
        <path d="M38.59,38.43a20.3,20.3,0,0,1-2.72,5.62,15.85,15.85,0,0,1-5.48,5.44,6.17,6.17,0,0,1-5.21.12,2.52,2.52,0,0,1-1-.62,29.05,29.05,0,0,0,3.2-.25,6.74,6.74,0,0,0,3.36-1.48,30.79,30.79,0,0,0,7.56-8.44C38.4,38.69,38.5,38.56,38.59,38.43Z" style="fill: #c21431;fill-rule: evenodd"/>
        <path d="M4.26,10a19.25,19.25,0,0,0,6.2,5.68,14.65,14.65,0,0,0,6.35,1.9c.14,0,.27.05.4.07-.91.24-1.82.51-2.74.7a7.57,7.57,0,0,1-6.05-1.56A11,11,0,0,1,4.26,10Z" style="fill: #c21431;fill-rule: evenodd"/>
        <path d="M9.94,26.25a16.22,16.22,0,0,1,4.38-2.95,12.7,12.7,0,0,1,7.25-1C14.84,23.25,9.73,26.4,7,32.85a5.55,5.55,0,0,1-.76-1.28c-.16-.26,0-.44.14-.63A29.51,29.51,0,0,1,8.32,28Z" style="fill: #f9fafa;fill-rule: evenodd"/>
        <path d="M36.77,10.91a9.57,9.57,0,0,1,3.64,1.47c0,1,.64,1.47,1.46,1.14a3.29,3.29,0,0,1,1.67,2.4c-.32,0-.61,0-.65.44a1.16,1.16,0,0,0,.53,1.06c.3.22.55.12.76-.16.36.13.38.49.52.76.37.76.72,1.53,1.07,2.3a8.21,8.21,0,0,1-3.34-2.22,20.38,20.38,0,0,1-1.87-2.48A29.08,29.08,0,0,0,36.77,10.91Z" style="fill: #c3ccd3;fill-rule: evenodd"/>
        <path d="M27.51,4.53c1.63,1.94,3.92,2.27,6.22,2.64a9.66,9.66,0,0,1,4.14,1.36,1.86,1.86,0,0,1,1,1.38c-.85-.28-1.66-.55-2.48-.79a43.32,43.32,0,0,0-4.35-1c-.1,0-.21.06-.32.09A16.49,16.49,0,0,0,28,7.59c-.2,0-.34,0-.37-.28A7,7,0,0,1,27.51,4.53Z" style="fill: #c3ccd3;fill-rule: evenodd"/>
        <path d="M9.94,26.25,8.31,28A14.07,14.07,0,0,1,10,20.79a20,20,0,0,0-.16,4.44C9.83,25.57,9.89,25.91,9.94,26.25Z" style="fill: #c21431;fill-rule: evenodd"/>
        <path d="M36,39.83l.29-.26C36.19,39.7,36.14,39.84,36,39.83Z" style="fill: #c21431;fill-rule: evenodd"/>
        <path d="M22.13,27.64a.31.31,0,0,1-.29.14C21.89,27.64,22,27.65,22.13,27.64Z" style="fill: #c21431;fill-rule: evenodd"/>
        <path d="M21.85,27.77a.25.25,0,0,1-.29.15C21.59,27.73,21.72,27.76,21.85,27.77Z" style="fill: #c21431;fill-rule: evenodd"/>
        <path d="M35.82,40l.15-.14C36,39.92,35.93,40,35.82,40Z" style="fill: #c21431;fill-rule: evenodd"/>
        <path d="M35.68,40.1c0-.1.06-.14.15-.15S35.81,40.13,35.68,40.1Z" style="fill: #c21431;fill-rule: evenodd"/>
        <path d="M35.54,40.23c0-.1.05-.14.15-.14S35.68,40.28,35.54,40.23Z" style="fill: #c21431;fill-rule: evenodd"/>
        <path d="M48.4,33.69a61.2,61.2,0,0,0-24.47-.95c0-.08,0-.13,0-.15a27.84,27.84,0,0,1,5.91-6.06,6.43,6.43,0,0,1,6.2-1,32.08,32.08,0,0,1,11.67,7.32c.18.18.34.38.5.57S48.3,33.55,48.4,33.69ZM36.54,29.36a1.35,1.35,0,0,1-.89,0c-1.53-.21-3.07-.26-4.61-.35-1.31-.08-1.89.76-2.68,1.65a55.08,55.08,0,0,1,14.58.25,50.42,50.42,0,0,0-6.61-3.32,6.58,6.58,0,0,0-3.19-.32A3.1,3.1,0,0,0,31.5,28,28.7,28.7,0,0,1,36.54,29.36Z" style="fill: #052d5e;fill-rule: evenodd"/>
        <path d="M6,9.2a2,2,0,0,1,.36.09A16,16,0,0,0,15,11a14.4,14.4,0,0,1,6,.93,7.1,7.1,0,0,1,.88.42c2.54,1.44,1.93,3.38.28,4.92,0,0-.13,0-.26.06a2.36,2.36,0,0,0-.28-2.09,3.82,3.82,0,0,0-1.76-1.28,15.09,15.09,0,0,0-5.15-.9,14.8,14.8,0,0,1-4.08-.65A9.12,9.12,0,0,1,6,9.2Z" style="fill: #052d5e;fill-rule: evenodd"/>
        <path d="M27,15.45a15.24,15.24,0,0,1,9.25,5c-1.75-.09-3.33.68-5,.41a3.15,3.15,0,0,1-3-2.81,3.82,3.82,0,0,0-1-2.12C27.18,15.83,27,15.72,27,15.45Zm6,4.34c-1.41,0-2.47-.44-2.86-1.93-.08-.32-.49-.22-.74-.18s-.15.34-.13.52a1.66,1.66,0,0,0,.48,1A2.85,2.85,0,0,0,33.05,19.79ZM31.43,18a.4.4,0,0,0-.43.43.44.44,0,0,0,.47.48.43.43,0,0,0,.48-.46C32,18.05,31.64,18.07,31.43,18Z" style="fill: #052d5e;fill-rule: evenodd"/>
        <path d="M51.66,22.82a14.16,14.16,0,0,1,.87,5.51c-.16,1.62-1.18,2-2.84.93C51.62,27.51,51.63,25.18,51.66,22.82Z" style="fill: #052d5e;fill-rule: evenodd"/>
        <path d="M54.4,26.34a12.33,12.33,0,0,1,.78,5.24,1.13,1.13,0,0,1-.73,1.08A1.8,1.8,0,0,1,53,32.32c-.17-.09-.13-.19,0-.32,1.32-1.52,1.42-3.37,1.39-5.25Z" style="fill: #052d5e;fill-rule: evenodd"/>
        <path d="M19.31,9.91c-.41-.07-.78-.18-.78-.64s.39-.66.8-.66.82.17.8.66S19.7,9.86,19.31,9.91Z" style="fill: #052d5e;fill-rule: evenodd"/>
        <path d="M9.11,31.15c0-.53.48-1,.87-1a.57.57,0,0,1,.5.71.88.88,0,0,1-.83.87C9.26,31.77,9.12,31.46,9.11,31.15Z" style="fill: #052d5e;fill-rule: evenodd"/>
        <path d="M40.4,41.59c-.06.45-.27.82-.79.84s-.56-.31-.55-.66a.83.83,0,0,1,.76-.9C40.26,40.85,40.4,41.17,40.4,41.59Z" style="fill: #052d5e;fill-rule: evenodd"/>
        <path d="M20.13,25.27c-.39-.06-.76-.19-.74-.65s.41-.66.82-.66.82.17.78.67S20.54,25.23,20.13,25.27Z" style="fill: #052d5e;fill-rule: evenodd"/>
        <path d="M36.88,46.69c-.52,0-.87-.14-.79-.74a.91.91,0,0,1,.69-.78.5.5,0,0,1,.6.23.82.82,0,0,1-.19,1,2.62,2.62,0,0,1-.3.28Z" style="fill: #052d5e;fill-rule: evenodd"/>
        <path d="M14.05,10.22c-.49,0-.88-.16-.87-.64s.41-.64.83-.64.76.14.77.6S14.41,10.17,14.05,10.22Z" style="fill: #052d5e;fill-rule: evenodd"/>
        <path d="M41.36,36.84c.07-.45.19-.85.7-.9s.64.3.63.71a.77.77,0,0,1-.71.86C41.55,37.54,41.43,37.19,41.36,36.84Z" style="fill: #052d5e;fill-rule: evenodd"/>
        <path d="M24.23,12.3a.9.9,0,0,1-.87-.87.54.54,0,0,1,.59-.54.92.92,0,0,1,.91.85A.55.55,0,0,1,24.23,12.3Z" style="fill: #052d5e;fill-rule: evenodd"/>
        <path d="M14.07,27.33c-.3,0-.59-.15-.56-.57a.86.86,0,0,1,.9-.78.54.54,0,0,1,.66.52C15.09,26.91,14.6,27.33,14.07,27.33Z" style="fill: #052d5e;fill-rule: evenodd"/>
        <path d="M35.83,14.61l.18.08,0,.05-.16-.09Z" style="fill: #c3ccd3;fill-rule: evenodd"/>
        <path d="M41.87,13.52c-.82.33-1.42-.14-1.46-1.14C41.23,12,41.83,12.5,41.87,13.52Z" style="fill: #052d5e;fill-rule: evenodd"/>
        <path d="M44.18,17.26c-.21.28-.46.38-.76.15a1.11,1.11,0,0,1-.52-1.05c0-.4.32-.46.64-.44A1.46,1.46,0,0,1,44.18,17.26Z" style="fill: #052d5e;fill-rule: evenodd"/>
        <path d="M36.54,29.36a28.7,28.7,0,0,0-5-1.4,3.13,3.13,0,0,1,1.64-.68,6.58,6.58,0,0,1,3.19.32,50.42,50.42,0,0,1,6.61,3.32,55.07,55.07,0,0,0-14.58-.25c.79-.89,1.37-1.73,2.68-1.65,1.55.09,3.08.14,4.62.35A1.33,1.33,0,0,0,36.54,29.36Z" style="fill: #f9fafa;fill-rule: evenodd"/>
        <path d="M33.05,19.79a2.85,2.85,0,0,1-3.25-.61,1.66,1.66,0,0,1-.48-1c0-.18-.17-.46.13-.52s.66-.14.74.18C30.58,19.35,31.64,19.8,33.05,19.79Z" style="fill: #c3ccd3;fill-rule: evenodd"/>
        <path d="M31.43,18c.21.11.53.09.52.45a.48.48,0,0,1-.95,0A.4.4,0,0,1,31.43,18Z" style="fill: #f9fafa;fill-rule: evenodd"/>
      </g>
    </g>
  </g>
</svg>
