<svg xmlns="http://www.w3.org/2000/svg" viewBox="0 0 60 49.07">
  <title>17</title>
  <g id="Layer_2" data-name="Layer 2">
    <g id="Layer_1-2" data-name="Layer 1">
      <g id="_17" data-name="17">
        <path d="M0,39.53a32,32,0,0,1,14.75-4.76A24.77,24.77,0,0,0,12,37.42s22.36-6.63,25.15,11.65c0,0,4.08-4,5.19-6.3,0,0,.34,2.79.42,3.27,0,0,4.26-5.43,4.4-6.61.1.58.29,2.47.29,2.47s4.76-3.24,5.37-7.63a6.9,6.9,0,0,0,1-4.68,27.37,27.37,0,0,1-2.12,3l-.58-.79a7.88,7.88,0,0,0,.21-2.74,10.33,10.33,0,0,1-1,1.21s-.81-2.81-.49-3.88c0,0,0-1.2,2.11-3.27a7.54,7.54,0,0,1-.3,2s1.32-.4,2.66-3a2.14,2.14,0,0,1,1.52-.46,13,13,0,0,1-1.17,3.79A9,9,0,0,0,58.28,21s.43.26,1.21-2.41A1.57,1.57,0,0,1,60,18a.9.9,0,0,0-.26-.87,15.75,15.75,0,0,0-5.34-3.54.61.61,0,0,1-.14-.18A3.56,3.56,0,0,0,53.41,12,35.18,35.18,0,0,0,50.29,10S50.94,3,36,0l1.19,1.54a22.21,22.21,0,0,0-14.59,0,11.35,11.35,0,0,1,2.58.88s-14,.17-21,20c0,0,3.76-2.13,4.13-2.15C8.32,20.25,1.29,29.21,0,39.53Z" style="fill: #050202"/>
        <path d="M38.07,45.72a13.49,13.49,0,0,0-8.87-9.64c-3.28-1-8.4-1.14-14.16-.4l2-1.69s-5.4-.81-15.24,3.58A39.37,39.37,0,0,1,12.16,17.8L5.94,20.3S11.32,3.76,27.4,2.81a7,7,0,0,0-2.81-1.33s7.3-2.29,13.8,1.08a6.19,6.19,0,0,0-1-1.79A17.91,17.91,0,0,1,47.69,6.11a6.45,6.45,0,0,1,.74,3.62,2.86,2.86,0,0,0-1.3.07,1.36,1.36,0,0,1-.33-.27,6.57,6.57,0,0,0-2.48-3.19s.85,1.56.46,2.53c0,0-1.6-.32-3.07-.5,0,0-1.58-1.52-5.23-1.89,0,0,1.51,1.21,1.49,2C38,8.48,31.28,5.74,25,8a12.29,12.29,0,0,1,4.91.78s-2.72.47-3.24,1a9,9,0,0,1,4.16.93s-.25,2.23,2.4,4.45c0,0,.62.59.41-.37a3.57,3.57,0,0,0-.79-1.28,2.16,2.16,0,0,1-.29-.71s-.31-1.09,1-.66c0,0,3,2,1.74,4.73-.84,1.11-1.76,1.59-2.39,2.5,0,0,1.86,0,2.14.4a24.28,24.28,0,0,0-10.67,3.27s5.83-.88,9,.12a8.72,8.72,0,0,0-2.86,1.72,11.75,11.75,0,0,1,3.65-.3,7.52,7.52,0,0,0,.26,1.43S32,28,32,28.87c0,0,4.29,0,6.61,1.74,0,0-.83.21-.81.61,0,0,5-.18,5.39,6.18a10.4,10.4,0,0,1-.37,4.46,6.44,6.44,0,0,0-.37-2S39.81,44.56,38.07,45.72Z" style="fill: #7f7f7f"/>
        <path d="M42.85,11.77v0a1.21,1.21,0,0,0-.47,1,1.23,1.23,0,0,0,2.41.35Z" style="fill: #fff"/>
        <path d="M42.77,11.65a1.14,1.14,0,0,0,.53,2.14,1.15,1.15,0,0,0,1.13-1Z" style="fill: #f7ba0e"/>
        <circle cx="42.75" cy="12.23" r="0.22" style="fill: #f9f9f9"/>
        <circle cx="43.3" cy="12.78" r="0.35" style="fill: #020202"/>
        <path d="M59,18.24l-.76,2S56.85,20,57.44,19A1.39,1.39,0,0,1,59,18.24Z" style="fill: #fefefe"/>
        <path d="M50.84,20.37a8.71,8.71,0,0,1,4.52-.23c.75.15,2.19.38,2.4.81a8.52,8.52,0,0,1-2.49,3.79A9.22,9.22,0,0,0,56.14,21l-1.36-.23s-.33,0-.42.37A14.39,14.39,0,0,1,52,24.54c.09-.34.67-2.8.67-3.14a.88.88,0,0,0-.26-.8C52.12,20.56,51.36,20.46,50.84,20.37Z" style="fill: #fff"/>
        <path d="M47.3,31.5s0-.13.87.78A.86.86,0,0,0,49,32.1a8.35,8.35,0,0,0,2-2.22,9.18,9.18,0,0,1-.8,3.09c0,.16,0,.28.09.32s.89.21,1.1,0l.22-.18a15.27,15.27,0,0,0,2-2.66,7.18,7.18,0,0,1-1.4,3.75,11.07,11.07,0,0,1-3.63-.67A3.31,3.31,0,0,1,47.3,31.5Z" style="fill: none"/>
        <path d="M37,8.93s-4.74-2.29-5.95.47c0,0-1.21,3,2.08,5.72,0,0,.95.83.48-.5,0,0-1.74-2.15-1.28-3.57l-.4.08s.12-1.81,2.11-1.06C34,10.07,36.28,10.73,37,8.93Z" style="fill: #ababab"/>
        <path d="M31.05,10.71c.41-3.1,3.87-1.56,3.87-1.56,1.65.43,2.08-.22,2.08-.22-6.57-2.8-6.17,1.8-6.17,1.8" style="fill: #fff"/>
        <path d="M58.44,16.64A25.18,25.18,0,0,0,52,13l1,0c0-.88-1.56-1.56-2.22-2-2.34-1.69-3.68-1.12-3.68-1.12-3.33-1.39-5.75-1.72-7.52-1.41A7.78,7.78,0,0,0,36,12.22c-.45.88-.13,2.46-.31,3.58a2.47,2.47,0,0,1-.53,1.3c-.52.6-2.28,2.32-2.28,2.32,1.44-.74,4.46-.32,4.46-.32a4.72,4.72,0,0,0-2.22,2,18.61,18.61,0,0,0-.17,5.8,8.26,8.26,0,0,0-2.81,1.9c6.67-.23,9.9,2.71,11.47,5.52,2,2.94,1.46,4.87,1.46,4.87A6.41,6.41,0,0,0,47.52,37a8.08,8.08,0,0,1,.42,3.61c3.62-2.88,3.83-5.4,3.83-5.4a8.71,8.71,0,0,1-4-.95C45.59,31.85,45,28,45.24,24.93a14.56,14.56,0,0,1,2.95-4.7c-2.25-3.06-1.55-4.15-.12-5.4a7.18,7.18,0,0,1,3.45-.36,7.07,7.07,0,0,0-3.21.76c-1.54,1.2-.83,2.62,0,3.57a3,3,0,0,0,1.24,1.11,10.87,10.87,0,0,1,6.25-.42c1,.1,1-1.4,1-1.4-2.67-2.29-4.08-2.32-4.08-2.32A15.35,15.35,0,0,1,58.44,16.64Zm-13-3.3a2.16,2.16,0,0,1-2.12,1.1,9.08,9.08,0,0,1-3-1.23l1.34.13a3.52,3.52,0,0,1,.36-1.75,17.18,17.18,0,0,0-2.86,0A12.7,12.7,0,0,1,43,10.79a8.33,8.33,0,0,1,2,1.39c.82,1,3.56.62,3.56.62A4.89,4.89,0,0,1,45.43,13.34Z" style="fill: #ababab"/>
        <path d="M37.87,9.61s1.29-1.89,5.14-1A10.19,10.19,0,0,1,48.79,11s1.09.7-.18.49A7.85,7.85,0,0,1,45,10.31,8.28,8.28,0,0,0,37.87,9.61Z" style="fill: #f9fbfe"/>
        <path d="M47.41,16.57s4.3-.37,5.69.51a22.68,22.68,0,0,0-5.64.32S47.21,16.8,47.41,16.57Z" style="fill: #0470bd"/>
        <path d="M47.83,18.17s4-.75,5.44-.05a14.59,14.59,0,0,0-4.9.86C48.32,18.86,47.83,18.17,47.83,18.17Z" style="fill: #0570c3"/>
        <path d="M48,19.73s-3.52,2.91-4.45,5.92c0,0-.09.82-1.81,2.15a2.33,2.33,0,0,0,1.91-.26S47.17,34.41,45,37.63a8.88,8.88,0,0,1,.13,1.62A11.5,11.5,0,0,0,47.57,37,7.87,7.87,0,0,1,48,40.61a9,9,0,0,0,3.82-5.44s-3.09-.09-4.16-1.08c0,0-1.46-.83-2.46-6.7,0,0-1.11-2.67,3.09-7.23A3.63,3.63,0,0,0,48,19.73Z" style="fill: #fff"/>
        <path d="M38.67,42.17s-1.58-12-21.1-7.83a13,13,0,0,1,3.12-1.75,40.83,40.83,0,0,0-17.35,3.3S5.2,23.6,18.09,14.68c0,0-7.65,1.89-10.71,4.32,0,0,5.31-16,22.9-15.81,0,0-2.57-1.57-4-1.65,0,0,5.86-1.29,13.83,2.11a7,7,0,0,0-1.4-2.07s8.67,2.21,8,6.88c0,0-1.3-3.3-4.42-3.65,0,0,1.12,1.65.7,2.32,0,0-2.77-3.06-10.82-2.46,0,0,2.67,1.19,3.34,2.25,0,0-13-3.94-23,6.46,0,0,6.89-3.27,12.51-2.35a13.46,13.46,0,0,0-3.2,1.4s6.32-.56,8.5,1.83c0,0-8.15,1.05-11.38,4.81,0,0,7-3.09,13.24-1.3-2.74.35,0,.14,0,.14s-10.85.21-23.07,12.15c0,0,9.62-6.32,20-5.48a21.85,21.85,0,0,0-4.22,3.09s4-1.19,4.82-1c0,0-4.64,2.67-5.38,4.29,0,0,7.8-2.53,12.65.14a3.52,3.52,0,0,0-1.69,1S41,30.2,42,38.94a9.78,9.78,0,0,0-1.89-3S40.39,40,38.67,42.17Z" style="fill: #ababab"/>
        <path d="M37.83,12.92l2.53.29s.55.34,1.24.67c1.24.6,2.88,1,3.83-.54A3.78,3.78,0,0,0,48,13a10.47,10.47,0,0,1-3.91,2.25,2.68,2.68,0,0,1,.92,2c-.36,1-1.56,2.45-4.5,4.55,0,0,2.54-3.55,2.65-4.36,0,0,.49-1.56-1.69-2.63C41.46,14.82,38.6,13.19,37.83,12.92Z" style="fill: #fff"/>
        <path d="M48.7,12.71s3-1,7.42,3.29c0,0-3.66-.29-3.33-.23A7.29,7.29,0,0,1,56,17.44a5.73,5.73,0,0,0,.8.64,3.79,3.79,0,0,1-.15,1s-.06.38-.66.38A15.24,15.24,0,0,0,53,19.32a13.89,13.89,0,0,0-3.42.59,2.34,2.34,0,0,1-.62-.24,8.67,8.67,0,0,1-1.55-2.27c-.22-.78,0-1.64,1.23-2.41a8.78,8.78,0,0,1,3-.49S49.34,13,48.7,12.71Z" style="fill: #f9f9f9"/>
      </g>
    </g>
  </g>
</svg>
