<svg xmlns="http://www.w3.org/2000/svg" viewBox="0 0 54.32 60">
  <title>18</title>
  <g id="Layer_2" data-name="Layer 2">
    <g id="Layer_1-2" data-name="Layer 1">
      <g id="_18" data-name="18">
        <path d="M12.1,20.86,6.76,8.73S6.19,4,17.28.64c1.18-.19,9.57-2.32,14.37,2.45L32.14,15a6.41,6.41,0,0,1,5,4.94A18,18,0,0,1,46.94,15c1.11-.05,4.45-.51,4.16,3.05a10.5,10.5,0,0,1-1.47,4.22s0,1,0,1.13c.27,1.15,2.94,6.67.45,9.74,0,0,6.85,7.57,3.1,13.74-.3.49-1.62,3.7-9.36,5.61a17.88,17.88,0,0,1-14,7.5c-.89,0-8.52,1-12.11-8.42a17,17,0,0,1-1.51-1.43c-.38-.1-3.94-.72-6.74,5.05-.43.65-1.4,3.4-5.34,1.62-.62-.46-2.44-1.17-1.78-5.6,0-.28-4.1-10.45,0-16.36a5.86,5.86,0,0,0,0-.59c-.5-.41-4-3.63-1.42-5.68,0,0,.94-1.16,7.58-1.44C8.54,26.93,8.28,24.1,12.1,20.86Z" style="fill: #221e20"/>
        <path d="M12.87,20.13s4.9-8.56,18.51-6c0-.76-.06-3.93-.06-3.93S19.86,6.8,10.67,14.52C11.08,15.55,12.87,20.13,12.87,20.13Z" style="fill: #0048c4"/>
        <g>
          <polygon points="14.24 12.88 15.19 14.07 16.55 13.65 15.72 14.86 16.61 16.14 15.23 15.67 14.3 16.78 14.24 15.33 12.89 14.88 14.32 14.44 14.24 12.88" style="fill: #fffdf7"/>
          <polygon points="19.32 10.9 20.25 12.05 21.63 11.59 20.8 12.84 21.65 13.99 20.19 13.57 19.38 14.66 19.38 13.24 17.94 12.78 19.34 12.29 19.32 10.9" style="fill: #fefdff"/>
          <polygon points="24.78 12.96 25.83 13.53 25.23 12.39 26 11.34 24.9 11.61 24.32 10.49 24.21 11.87 23.12 12.07 24.09 12.58 24.01 13.85 24.78 12.96" style="fill: #fefdff"/>
          <polygon points="29.51 10.47 29.59 11.54 30.79 11.61 29.74 12.25 29.8 13.67 29.07 12.86 28.02 13.53 28.64 12.31 27.8 11.42 28.95 11.46 29.51 10.47" style="fill: #fff"/>
        </g>
        <path d="M10.72,14.69,8.38,8.82S7.9,8,9,7.2c1.05-1,3.81-3.87,10.29-5.54,0,0,7.06-1.43,11.7,2.37,0,.79.3,6.48.3,6.48A22.5,22.5,0,0,0,10.72,14.69Z" style="fill: #fbffff"/>
        <g>
          <path d="M14.2,3.49l2.05,7.84a25.9,25.9,0,0,1,4.28-1.26L18.24,2S14.72,2.86,14.2,3.49Z" style="fill: #e41231"/>
          <path d="M23.27,1.4l1,8.25a34.89,34.89,0,0,1,4.87.3c0-.15-.16-7.26-.16-7.26A13,13,0,0,0,23.27,1.4Z" style="fill: #e70d2e"/>
          <path d="M8.39,8.85C7.66,7.34,10.7,5.72,10.7,5.72s2.65,6.7,2.76,7a31.41,31.41,0,0,0-2.74,1.95Z" style="fill: #ed0a2c"/>
        </g>
        <path d="M9.64,26.31s6.77-7.79,12.57-9.44c1.78-.48,7.5-2.4,13.7,3.18,0,0-1.75-8-14.53-4C20.41,16.47,12.93,19.54,9.64,26.31Z" style="fill: #fffeff"/>
        <path d="M21.66,35.36S22,33,23,32.92s1.46,2.22,1.26,2.2A1.8,1.8,0,0,0,21.66,35.36Z" style="fill: #fff"/>
        <circle cx="22.78" cy="36.51" r="0.51" style="fill: #fff"/>
        <path d="M30.55,34.79s.36-2.34,1.29-2.44,1.46,2.23,1.25,2.2A1.79,1.79,0,0,0,30.55,34.79Z" style="fill: #fff"/>
        <circle cx="31.66" cy="35.94" r="0.51" style="fill: #fff"/>
        <g>
          <path d="M15.33,27.09s5-9.81,15.05-4.69a3.79,3.79,0,0,1,2.35,2.7s-1.94-2.35-3.88-2l1.48,1.35S27.44,22.29,27,23.37c2.26.81,1.78,1.73,1.78,1.73a12.35,12.35,0,0,0-3.62-2.38l1.41,1.54s-1.81-1.81-3.89-1.32c0,0,1.3.59,1.51,1.4,0,0-2.42-1.37-4-1.08l1.43.95a4.1,4.1,0,0,0-2.94.08L20.4,25a4.23,4.23,0,0,0-3.1.87l1.3.59A6.77,6.77,0,0,0,15.33,27.09Z" style="fill: #813c85"/>
          <path d="M36.15,27.69s5.37-8.12,7.88-5.13c0,0-4.72-1.19-6.09,6.61,0,0,4.69-3.51,6.66-.08a5.55,5.55,0,0,0-6.48,1.05c.54.73.73,1,.73,1s4.43-.86,5.67,1.76,0,.11,0,.11-3.29-2-4.8-.71a16.81,16.81,0,0,1,4.1,4.21A8.34,8.34,0,0,0,41,35a13.05,13.05,0,0,1-.7,3.83c-.24,1.87-.05,4.54-.48,5.59s-1.11,2.83-1.62,3.77c-.6,1.51-.11,2.62,1.13,1.59s2.78-2.29,3-3.18c-.29-.73-1.8-5.1.14-5.64,1.4-.62,3.1-.59,5.66,2.76,1.7,3.1-1,4.5-1.51,4.82,0,0-.21.73-.81,2.19,0,0,5.6.51,7.06-6.57.63-2.6-.1-6.1-3.82-10.72,0,0-.25-.16.11-1,0,0,2.74-3.42-.78-9.47.38-.75,1.67-2.81,1.61-4.57,0,0,.51-3.48-4.16-2.45-7.49,2.67-12.38,9.09-12.38,9.09Z" style="fill: #813c85"/>
          <path d="M47,44.62c-.3-.35-1.68-2.18-2.19-2.75-.67-.32-2.87-1.47-2.63,1.77.64,1.44,1.16,1.43,1,1.94s-1.87,7.67-11.29,7A7.86,7.86,0,0,0,29,54.87s-.31-2,2.63-3.44c0,0-2.77-1.39-5.73,1.34,0,0-.26-.77,1.23-2.12.62-.56,2.22-.84,2.95-2-5-3-6.07,1.53-6.36,2.31,0,0-1.11-5,5.71-4.45,0,0-1.12-3.74-6-4,0,0,3.75-2.38,7.75,3.25a5.45,5.45,0,0,0,.26-3.5s1.12.58,1.42,4.12c0,0,3.59-.39,4.41-6,0,0,.21-.52.66,0a6,6,0,0,1,1.16,1.92,11.53,11.53,0,0,0,0-6.11S37.79,33,36,37.64c0,0-.34-2.77,1.51-4.1,0,0-2.89-10.17-7.79-7.95,0,0,.4.33.56,1.7,0,0-5-4.86-9-2.15,0,0-1.08.68-2.21,4.88l-.93.6s.05-1.36-.77-1.67c-.62,0-.9,2.42-.86,2.8C16.36,31.31,15.12,27,5,27.93c0,0-5.46.66-3.59,3.1.62.85,2,1.68,1.84,3.38,0,0-4.18,4.56-.26,15.08,0,0-1.17,6,2.55,6.57,1.74.07,2.2-.18,5.42-5.64a4.55,4.55,0,0,1,2.69-1.76s-4.15-3.38.34-8.19a17.18,17.18,0,0,0-4.77,3.36s.55-1.95,3.84-4c1.6-1.49-.08-2-1-1.7a14.56,14.56,0,0,0-3.64,2.39s.06-3.62,4.63-3.28c0,0-1.11-1.57-5.74-.6,0,0,.16-1.12,4-.79,3.43.34,2.1-1.54,1.75-1.86,0,0-1.35-1.8-5.92-1.78,0,0,5.37-3.29,8.61,3A5.22,5.22,0,0,1,16,37.64c-.13,1.6-2.45,3.91-2.12,7.85a6,6,0,0,0,4.05,4s1.4-1.8-1.91-5.57a7,7,0,0,1-.17-1.09s3.43,4.1,3.34-1.26a16.38,16.38,0,0,0,1.32,4.53s-5,8.46,4.73,12.21c0,0,12.24,3.91,19.82-11.2C45,47.1,49,47.91,47,44.62ZM31.85,31.92c1,0,1.85,1.19,1.85,2.67s-.83,2.67-1.85,2.67S30,36.06,30,34.59,30.83,31.92,31.85,31.92ZM21,35.1c0-1.47.83-2.67,1.85-2.67s1.85,1.2,1.85,2.67-.83,2.67-1.85,2.67S21,36.58,21,35.1Zm10.41,5.67a10.81,10.81,0,0,0-8.17-.92C27.23,36.15,31.43,40.77,31.43,40.77Zm13.71,4.87c-.41-.31-2.71-1.8-1.64-2.74,0,0,.87-.66,1.5,1.6l.42-.2S47.2,46.73,45.14,45.64Z" style="fill: #813c85"/>
        </g>
      </g>
    </g>
  </g>
</svg>
