<svg xmlns="http://www.w3.org/2000/svg" viewBox="0 0 38.58 60">
  <title>19</title>
  <g id="Layer_2" data-name="Layer 2">
    <g id="Layer_1-2" data-name="Layer 1">
      <g id="_19" data-name="19">
        <path d="M19.46,60a3.13,3.13,0,0,1-2-3.29,2.38,2.38,0,0,1,.37-1.32A1.59,1.59,0,0,0,18,53.62a5.76,5.76,0,0,1-.54-3.92,18.72,18.72,0,0,0-.12-5.54,3.34,3.34,0,0,0-.71-1.45,3.76,3.76,0,0,1,.13-4.8,1.4,1.4,0,0,0,.31-1.13,25.22,25.22,0,0,1,.41-9.16,10.34,10.34,0,0,1,2.16-4.25c.54-.61,1-1.26,1.6-1.85a10.6,10.6,0,0,0,2.84-5.24c.55,1.09,1,2,.27,3.12-.29.43-.07.9.17,1.31a4.12,4.12,0,0,1,.55,1.77,1.76,1.76,0,0,0,2.06,1.71c.36,0,.7-.14,1.05-.17s.52-.21.68.06-.05.47-.15.69a2.75,2.75,0,0,1-.24.41,10.73,10.73,0,0,1-1.81,1.26,2.23,2.23,0,0,0,2-.68c.52-.47,1-.94,1.56-1.44.36.4.63.83.14,1.4-.28.32,0,.47.24.62a5.55,5.55,0,0,0,2.08.68c-2.31,2.25-4.51,4.47-4.35,7.94.82-.76.85-1.92,1.41-2.81a9.33,9.33,0,0,1,1.9-2.54,1.85,1.85,0,0,1-.34,1.61,4.84,4.84,0,0,0-.55,2.16,5.79,5.79,0,0,0,1,4.35,5.39,5.39,0,0,1,.41,1c-.9-.49-1.63-.85-2.32-1.28a.69.69,0,0,0-.94,0c-.35.28-.21.56-.06.85a1,1,0,0,1,.11.31c.05,1.62,1.21,2,2.48,2.08.73.07.93.35.93,1.06a8.68,8.68,0,0,0,.3,3c.23.66.52,1,1.22.83.39-.07.79-.08,1.27-.12-.46,1-1,1.8-1.38,2.74a3.32,3.32,0,0,0-.18,2.15,2.23,2.23,0,0,1-.4,2.07A1.78,1.78,0,0,0,32.87,54a4.42,4.42,0,0,1-.22,2.33,2.15,2.15,0,0,1-2.06,1.21,2.41,2.41,0,0,1-2.17-3c.24-1,1.33-1.63,1.43-2.58a4.67,4.67,0,0,1,1-2.74c.44.31.11.68.06,1s0,.56.31.65.41-.19.48-.42a10.72,10.72,0,0,0,.49-2.62c0-.23.13-.55-.21-.7-.48.29-.19,1-.79,1.26a1.41,1.41,0,0,1,.05-1A1.42,1.42,0,0,0,31.17,46,2.4,2.4,0,0,1,31,44.3a4,4,0,0,0-.05-1.69c-.29-1.5-.37-1.56-1.88-1.59-.13,0-.3,0-.4,0-1.72-1-3.58-.15-5.35-.42-.74-.12-1.12.13-1.19.86.28.31.36-.21.6-.13a13,13,0,0,0,1,3.33.6.6,0,0,1,.06.47c-.39,1.11.15,2,.59,2.93.67,1.39.56,1.9-.46,2.35a2,2,0,0,1-2.65-1.18c.05-1.58.56-3.14.22-4.75-.06-.26.08-.54.07-.81,0-.48.44-.8.4-1.44-.58.68-1.25,1.15-1.21,2,.08,1.66.18,3.32.27,5A9.66,9.66,0,0,1,21,54c-.31,0-.48-.25-.59-.56a1.52,1.52,0,0,1-.15-.71c.38-3-.41-6-.37-9a1.47,1.47,0,0,1,.41-1.09,3.13,3.13,0,0,0,.93-2.12,1.52,1.52,0,0,1,1.07-1.62c.59-.22.67-.55.37-1.12a4.62,4.62,0,0,0-2.39-2.12c-.37-.15-.74-.25-1.06.1a1.64,1.64,0,0,0-.44,1.35c0,.35.42.28.66.36.44.14,1.19,0,1.25.5s-.69.32-1.07.47c-2.32.9-2.76,3.21-.92,5,.29.28.66.62-.09.81-.26.07-.16.32-.16.49.06,1.76.12,3.53.19,5.3a1.27,1.27,0,0,0,.14.54A2.88,2.88,0,0,1,19,52.91a1.62,1.62,0,0,0,.18,1.49,1.46,1.46,0,0,1,.26,1c-.1.66.27.74.77.63a2.28,2.28,0,0,0,.9-.34c.7-.58.85-.15,1,.45.61,2.08.42,2.34-1.36,3.84Zm5.21-21.29a3,3,0,0,0,1.53-.59.88.88,0,0,0,.44-.9,18.54,18.54,0,0,0-2.32-8.73c-.21-.36-.4-1.16-.75-.95s.09.88.31,1.27A15.1,15.1,0,0,1,25.72,35C25.82,36.33,26.31,37.81,24.67,38.71Zm-6.32-5c0-.92-.05-1.73,0-2.53A14,14,0,0,1,20.16,25c.17-.29.69-.61.37-.85s-.61.28-.81.55c-1.75,2.39-2.06,5.19-2.2,8C17.5,33.11,17.72,33.47,18.35,33.69ZM22,57.23a2.42,2.42,0,0,0-.11-.59c-.1-.27-.14-.78-.57-.58s-1.17.16-1.1.87a9,9,0,0,0,.48,1.89c.13.42.43.48.72.12A2.59,2.59,0,0,0,22,57.23ZM32.17,52.8c-.17.89-.76.73-1.31.61a4.3,4.3,0,0,1-.75-.29.34.34,0,0,0-.49.13.35.35,0,0,0,.15.49,8.3,8.3,0,0,0,1.06.57,1.32,1.32,0,0,0,1.53-.11C32.76,53.79,32.35,53.31,32.17,52.8Zm-8.57-4a5.17,5.17,0,0,0-1.47-.26c-.12,0-.29,0-.34.12s.12.3.28.33A2.49,2.49,0,0,0,23.6,48.8Z" style="fill: #191919;fill-rule: evenodd"/>
        <path d="M0,28.28a11.92,11.92,0,0,0,5.13-.62l.29-.15A12.11,12.11,0,0,0,10,24.13c.12-.11.37-.25.23-.37s-.3.1-.4.25a37.28,37.28,0,0,1-4.56,3c-.13,0-.29.11-.37,0s.07-.23.18-.3c.78-.46,1.48-1,2.21-1.54A16.89,16.89,0,0,0,10.44,22a10.42,10.42,0,0,1,5.39-3.9,9.26,9.26,0,0,1,2.34-.29,2.79,2.79,0,0,1,2.63,1.3c.68,1,.65,1.57-.49,2.15-2.48,1.25-3.64,3.51-4.53,5.94A16.16,16.16,0,0,0,15.52,30a6,6,0,0,1-1.78,3.84,2.85,2.85,0,0,1-.33.25,3.53,3.53,0,0,1-.45.18c1-1.49,1.92-2.86,1.65-4.75A7.23,7.23,0,0,0,13,32.28a6.79,6.79,0,0,1-1.89,3.64,4.31,4.31,0,0,1-2.61,1.24c1.27-.91,2.63-1.74,2.91-3.53a4.31,4.31,0,0,0-1.82,1.74,4.11,4.11,0,0,1-3.4,1.77c0-.39.26-.33.44-.38A4.58,4.58,0,0,0,9,35.28c.1-.11.26-.25.16-.42s-.28,0-.43,0a10.33,10.33,0,0,1-3.8,0,6,6,0,0,1-1.5-.62,1,1,0,0,1,.87,0,7.6,7.6,0,0,0,5.36-.57,1.29,1.29,0,0,0,.76-1.12c-.42,0-.72.24-1.05.38a5.11,5.11,0,0,1-4,.13,16.39,16.39,0,0,0-2.88-.51A2.39,2.39,0,0,1,1.29,32c.38-.27.68,0,.92.13A1.15,1.15,0,0,0,3.33,32c.28-.22-.13-.55-.23-.84A.89.89,0,0,0,3,30.84c-.08-.12-.3-.24-.1-.39s.34,0,.46.19a4.57,4.57,0,0,0,1,1,1.1,1.1,0,0,0,1.23.1,13.25,13.25,0,0,0,5.59-5.86.8.8,0,0,0,0-.79C8.08,28.37,4.45,29.85,0,28.45ZM6.9,32.1c2.09.31,4.33-1.5,4.2-3.37A18.41,18.41,0,0,1,6.9,32.1Zm6.38-4.39c1-1.39,1.29-3,.82-3.93A5.48,5.48,0,0,0,13.28,27.71Z" style="fill: #191919;fill-rule: evenodd"/>
        <path d="M38.58,16.51A29.59,29.59,0,0,0,36.75,19a1.46,1.46,0,0,1-1.45.79,2.88,2.88,0,0,0,1.39-2.22c-.24.32-.47.64-.72.95a2.32,2.32,0,0,1-1,.75l-.12-.14c1.53-2.32,1.43-5.39-.24-6.66a2.78,2.78,0,0,0,.34,1.25c.46,1,.16,2.09.29,3.13,0,.12,0,.39-.22.33s-.09-.23-.06-.38a3.38,3.38,0,0,0-.36-1.72c-.77,1.11-1.42,2.23-2.83,2.6,0-.38.29-.55.43-.78.94-1.49,1.46-3,.58-4.75a2,2,0,0,1,.1-1.58,3.35,3.35,0,0,0-.38-3.31,2.23,2.23,0,0,1,.11-2.65c.4-.65.76-1.31.19-2.13a8.17,8.17,0,0,1-.46,2.09A6.3,6.3,0,0,0,29.7,5.65a28.92,28.92,0,0,0-3.17,2.43A3.92,3.92,0,0,1,25,9c-.15,0-.78.46-.44-.33.08-.17-.13-.17-.27-.15l-.56.1a4.61,4.61,0,0,1-4-.85c-.85-.63-1.66-1.38-2.9-1.22.31-.49.72-.39,1.06-.35.64.08.83-.16.75-.76a.86.86,0,0,1,.14-.75c.29.36.24.85.56,1.16s.42.32.61,0a2.91,2.91,0,0,1,3.12-1.47c.87.09,1.09-.3,1.15-1a7.65,7.65,0,0,1,.54-2.14c.2-.52.65-.75.91-1.17h.49a8,8,0,0,0,.22,1.76c0,.24.15.41.43.4a3.36,3.36,0,0,1,2,.54.33.33,0,0,0,.38,0c.17-.13.08-.29,0-.44S29,2,29.13,1.85A1.7,1.7,0,0,1,30.47,3.1a7.72,7.72,0,0,0,1.8-1.95c.14-.2.3-.4.59-.35s.29.3.32.5a14.58,14.58,0,0,1,.37,2.43c.05,1.78.15,1.48,1.45,1.85a2.49,2.49,0,0,1,2.07,2.3,1.8,1.8,0,0,0,.38.8,3.4,3.4,0,0,1,.15,3.53A3.53,3.53,0,0,0,36.89,10c-.34-.39-.86-.93-1.27-.67s0,.9.21,1.28c.88,1.52,1.83,3,2.75,4.48ZM25.34,1.91a2.56,2.56,0,0,0-.26.19c-.51.64-.09,1.48-.36,2.1-.42,1,.31.66.65.7a2.44,2.44,0,0,0,1.28-.11c1-.41,1.16-1.35.28-2.16-.16.37.09.69.1,1,0,.62-.35,1-1,.9a1,1,0,0,1-.91-1.08C25.18,3,25.28,2.48,25.34,1.91Zm-.58,5.83c1.59-.86,2.71-2.55,4.68-2.74C27.72,4.55,25.68,5.84,24.76,7.74Zm9.38-1.06,2.53,1.06C36.25,6.64,35.57,6.36,34.14,6.68ZM22.08,5.47c-.47,0-1.36.61-1.34.9s.24.24.42.21a1.61,1.61,0,0,0,1.24-.91C22.5,5.45,22.24,5.47,22.08,5.47Z" style="fill: #191919;fill-rule: evenodd"/>
        <path d="M15.88,13.25c-.74.07-.81.72-1.2,1.18a2.07,2.07,0,0,1,.52-2.26,7.29,7.29,0,0,1,4.6-2c1.21-.17,2.47-.09,3.64-.92a3,3,0,0,0,.34,2c.32.61-.05,1.28-.14,1.92A3.29,3.29,0,0,0,23.77,15a.69.69,0,0,1-.24.91,3.35,3.35,0,0,1-4.65.26c.63,0,1.16.1,1.69.09a2.45,2.45,0,0,0,1.53-.69c-.88-.14-1.76.61-2.57-.22.48-.25.93,0,1.33-.17a3.3,3.3,0,0,0,1.82-1.88c.14-.28.1-.53-.35-.4-.92.26-1.85.45-2.76.72a2.1,2.1,0,0,0-1.44,1.55c-.13.46-.23.94-.35,1.45-.7-.86-.44-1.76-.25-2.7a2.94,2.94,0,0,0-1.34,2.85c-.29,0-.13-.23-.22-.33s-.09-.38-.29-.3-.33.15-.19.44a.93.93,0,0,1,0,.86,3,3,0,0,1-.38-2.06C15.21,14.61,15.76,14.05,15.88,13.25Zm2.87-1.72c3.26.25,3.68.21,4.08-.4C21.53,11.42,20.15,10.61,18.75,11.53Z" style="fill: #191919;fill-rule: evenodd"/>
        <path d="M35.85,44.41c-.28-1-.8-1.87-.35-3,.57-1.49.06-3-.27-4.54a3,3,0,0,1,.2-1.89,11.92,11.92,0,0,0,.6-6.48,25.1,25.1,0,0,0-2.14-6.38A10.27,10.27,0,0,1,33,18.24c0-.38-.06-.77.34-1,.33.12.22.42.24.63a11.82,11.82,0,0,0,1.34,4.42,19.33,19.33,0,0,1,1.91,5.06,15.08,15.08,0,0,1,0,6.88,10.08,10.08,0,0,0-.19,3.15,13.85,13.85,0,0,1-.25,5.17,1.54,1.54,0,0,0,0,.64A1.2,1.2,0,0,1,35.85,44.41Z" style="fill: #191919;fill-rule: evenodd"/>
        <path d="M30.73,43.22a8.13,8.13,0,0,1-.81,3.33,2,2,0,0,0-.19,1.71,3.88,3.88,0,0,1-.16,2.33c-.17.61-1.36,1-2.13.7a1.33,1.33,0,0,1-1-1.67,4.23,4.23,0,0,1,1.22-2.42,1.14,1.14,0,0,0,.22-1.43,1.42,1.42,0,0,1,.17-1.52,3.72,3.72,0,0,0,.69-2.15c0-.24-.19-.68.29-.7s.95-.18,1.23.37A3.15,3.15,0,0,1,30.73,43.22Zm-1.5,6.32c-.59-.11-1.19-.17-1.78-.29C27.94,49.91,28.56,49.84,29.23,49.54Zm-1-2.45c-.19.31-.46.51-.3.85a.28.28,0,0,0,.2,0C28.33,47.71,28.52,47.48,28.21,47.09Z" style="fill: #191919;fill-rule: evenodd"/>
        <path d="M26.77,19.4a1.85,1.85,0,0,0-1.14-1.28c-.41-.13-.32-.45,0-.67a1.12,1.12,0,0,0,.5-1.05c-.12-1.21-.26-2.42-.42-3.85-.79,1.16-.48,2.28-.58,3.5a4.87,4.87,0,0,1-.63-4.18.58.58,0,0,0-.08-.54,6.32,6.32,0,0,1-.33-.56A1.42,1.42,0,0,1,24,9.43c.16-.29.44,0,.63.1.57.29.64.51.44,1.37.88-1.06,1.25-.13,1.74.3a1.14,1.14,0,0,1,.5.88c0,1.77,0,3.54.05,5.31C27.39,18.08,26.91,18.57,26.77,19.4Z" style="fill: #191919;fill-rule: evenodd"/>
        <path d="M27.4,22.48c-1.42,0-1.82-.31-2.15-1.47a2.66,2.66,0,0,0-.33-.56A1.48,1.48,0,0,1,24.86,19a.46.46,0,0,1,.2-.23c.05,0,.21.1.22.17,0,.52.5.75.78,1.1s.31.78.87.27c.27-.25.67,0,.73.45s.14.93.78.94a.23.23,0,0,1,.24.26.34.34,0,0,1-.27.36Z" style="fill: #191919;fill-rule: evenodd"/>
        <path d="M30.32,20.71c-.09-.7.05-1.39-.47-2-.18-.2,0-.37.1-.51a3.84,3.84,0,0,0,.66-2.71c0-.18,0-.45.07-.55a10.61,10.61,0,0,0,1.7-2.65C31.87,15.17,30.85,17.88,30.32,20.71Z" style="fill: #191919;fill-rule: evenodd"/>
        <path d="M31.39,11.52c.2.09.47.14.48.23.05.26-.22.36-.4.44a1.19,1.19,0,0,1-1.1,0c-.35-.21-.22-.58-.17-.89A1.56,1.56,0,0,1,30.79,10c.39,0,.11.59.56.64a1,1,0,0,1,.7-1.16c.51-.17.67,0,.59.5A2.37,2.37,0,0,1,31.39,11.52Z" style="fill: #191919;fill-rule: evenodd"/>
        <path d="M29.06,9a10.79,10.79,0,0,1-.3,2.34c0,.14,0,.37-.24.34a.36.36,0,0,1-.31-.42,4.42,4.42,0,0,0-.44-2.83c-.14-.33.46-1.33.8-1.46s.35.12.37.33Z" style="fill: #191919;fill-rule: evenodd"/>
        <path d="M21,49.22c-.1-1.66-.2-3.32-.28-5,0-.89.63-1.36,1.21-2,.05.64-.4,1-.4,1.44,0,.27-.13.56-.07.81.34,1.61-.16,3.17-.22,4.76Z" style="fill: #eaeaea;fill-rule: evenodd"/>
        <path d="M5.23,27a37.28,37.28,0,0,0,4.56-3l.17.12a12.11,12.11,0,0,1-4.54,3.38Z" style="fill: #eaeaea;fill-rule: evenodd"/>
        <path d="M31.24,48.37c.59-.21.3-1,.78-1.26.34.15.22.47.21.7a10.72,10.72,0,0,1-.49,2.62c-.07.23-.15.51-.48.42s-.36-.34-.31-.65.38-.7-.06-1C30.78,48.83,31.24,48.7,31.24,48.37Z" style="fill: #eaeaea;fill-rule: evenodd"/>
        <path d="M29.68,20.08a5.54,5.54,0,0,1-.18.67.77.77,0,0,1-.76.51.59.59,0,0,1-.59-.56c0-.33,0-.64.36-.8.22-.09.46-.19.41-.52,0-.17-.09-.41.19-.44s.36.21.42.4A5.09,5.09,0,0,1,29.68,20.08Z" style="fill: #191919;fill-rule: evenodd"/>
        <path d="M27.35,23.61a3.35,3.35,0,0,1-1.4-.22c-.21-.12-.36-.28-.28-.52s.3-.12.49-.08a4.44,4.44,0,0,0,1.92,0c.23-.05.6-.21.65.22s-.21.53-.55.56S27.59,23.6,27.35,23.61Z" style="fill: #191919;fill-rule: evenodd"/>
        <path d="M20,40.1a.73.73,0,0,1,.59,1,2.14,2.14,0,0,1-1,1.42c-.06,0-.21,0-.28-.09s-.09-.24,0-.36A4.34,4.34,0,0,0,20,40.1Z" style="fill: #191919;fill-rule: evenodd"/>
        <path d="M34,45a.45.45,0,0,1-.52-.43,4.7,4.7,0,0,1,1.35-.88.33.33,0,0,1,.27.42A1.33,1.33,0,0,1,34,45Z" style="fill: #191919;fill-rule: evenodd"/>
        <path d="M28.63,25.76a2.22,2.22,0,0,1-2,.68,10.73,10.73,0,0,0,1.81-1.26Z" style="fill: #eaeaea;fill-rule: evenodd"/>
        <path d="M32.29,4.54a8.08,8.08,0,0,0,.46-2.09c.57.82.21,1.48-.19,2.13Z" style="fill: #eaeaea;fill-rule: evenodd"/>
        <path d="M34.92,19.24c-.08.06-.19.14-.26.05s0-.16.13-.19Z" style="fill: #191919;fill-rule: evenodd"/>
        <path d="M4.66,27a.31.31,0,0,1,0,.1s0,0,0,.05a.54.54,0,0,1,0-.11Z" style="fill: #191919;fill-rule: evenodd"/>
        <path d="M24.67,38.71c1.64-.9,1.15-2.38,1-3.7a15.1,15.1,0,0,0-1.84-6.2c-.23-.4-.7-1-.31-1.27s.54.59.75.95a18.51,18.51,0,0,1,2.32,8.73.88.88,0,0,1-.44.9A3,3,0,0,1,24.67,38.71Z" style="fill: #eaeaea;fill-rule: evenodd"/>
        <path d="M18.35,33.69c-.63-.22-.85-.58-.83-1,.14-2.84.45-5.64,2.2-8,.2-.27.44-.84.81-.55s-.2.56-.37.85a14,14,0,0,0-1.8,6.19C18.3,32,18.35,32.78,18.35,33.69Z" style="fill: #eaeaea;fill-rule: evenodd"/>
        <path d="M22,57.23a2.59,2.59,0,0,1-.58,1.71c-.29.36-.59.3-.72-.12a9,9,0,0,1-.48-1.89c-.07-.71.68-.69,1.1-.87s.47.31.57.58A2.42,2.42,0,0,1,22,57.23Z" style="fill: #eaeaea;fill-rule: evenodd"/>
        <path d="M32.17,52.8c.18.51.59,1,.19,1.4a1.32,1.32,0,0,1-1.53.11,7.87,7.87,0,0,1-1.07-.57.36.36,0,1,1,.35-.62,4.3,4.3,0,0,0,.75.29C31.41,53.54,32,53.69,32.17,52.8Z" style="fill: #eaeaea;fill-rule: evenodd"/>
        <path d="M23.6,48.8a2.49,2.49,0,0,1-1.53.19c-.15,0-.33-.12-.28-.33s.22-.12.34-.12A5.17,5.17,0,0,1,23.6,48.8Z" style="fill: #eaeaea;fill-rule: evenodd"/>
        <path d="M6.9,32.1a18.41,18.41,0,0,0,4.2-3.37C11.24,30.6,9,32.41,6.9,32.1Z" style="fill: #eaeaea;fill-rule: evenodd"/>
        <path d="M13.28,27.71a5.48,5.48,0,0,1,.82-3.93C14.57,24.69,14.24,26.32,13.28,27.71Z" style="fill: #eaeaea;fill-rule: evenodd"/>
        <path d="M9.79,24c.1-.15.26-.38.4-.25s-.11.26-.23.37Z" style="fill: #eaeaea;fill-rule: evenodd"/>
        <path d="M25.34,1.91c-.06.57-.16,1.07-.17,1.56a1,1,0,0,0,.91,1.08c.6.1,1-.28,1-.9,0-.33-.26-.65-.1-1,.88.81.74,1.75-.28,2.16a2.44,2.44,0,0,1-1.28.11c-.34,0-1.07.27-.65-.7.27-.62-.15-1.45.36-2.1A2.56,2.56,0,0,1,25.34,1.91Z" style="fill: #eaeaea;fill-rule: evenodd"/>
        <path d="M24.76,7.74c.92-1.9,3-3.19,4.68-2.74C27.47,5.19,26.35,6.88,24.76,7.74Z" style="fill: #eaeaea;fill-rule: evenodd"/>
        <path d="M34.14,6.68c1.43-.32,2.11,0,2.53,1.06Z" style="fill: #eaeaea;fill-rule: evenodd"/>
        <path d="M22.08,5.47c.16,0,.42,0,.32.2a1.61,1.61,0,0,1-1.24.91c-.18,0-.41.07-.42-.21S21.61,5.5,22.08,5.47Z" style="fill: #eaeaea;fill-rule: evenodd"/>
        <path d="M18.75,11.53c1.4-.92,2.78-.11,4.08-.4C22.43,11.74,22,11.78,18.75,11.53Z" style="fill: #eaeaea;fill-rule: evenodd"/>
        <path d="M29.23,49.54c-.67.3-1.29.37-1.78-.29C28,49.37,28.64,49.43,29.23,49.54Z" style="fill: #eaeaea;fill-rule: evenodd"/>
        <path d="M28.21,47.09c.31.39.12.62-.1.84a.28.28,0,0,1-.2,0C27.75,47.6,28,47.4,28.21,47.09Z" style="fill: #eaeaea;fill-rule: evenodd"/>
      </g>
    </g>
  </g>
</svg>
