<svg xmlns="http://www.w3.org/2000/svg" viewBox="0 0 60 38.47">
  <title>2</title>
  <g id="Layer_2" data-name="Layer 2">
    <g id="Layer_1-2" data-name="Layer 1">
      <g id="_2" data-name="2">
        <path d="M43,26.33c-1.39,0-5,0-5.24-.07l-.5-.06-2-.27A3,3,0,0,1,33.49,25a4.17,4.17,0,0,0-.38-.34,2.37,2.37,0,0,1-.86-1.53,2.22,2.22,0,0,0-.09-.37L32,22.36l-3.14-.89-.11-.09a7.06,7.06,0,0,1-1.35-1.45c-.23-.4-.35-1.41-.3-5.41,0-.1,0-.2,0-.27s-.25-.38-.35-.55l-.22-.34A6,6,0,0,1,26,11.71a.85.85,0,0,1,.22-.66,1.27,1.27,0,0,1,.56-.35c-.05-.42-.08-.79-.08-.89a6.5,6.5,0,0,1,.29-1.29c.13-.49.27-1,.32-1.31a3.82,3.82,0,0,1,1.2-1.72l.06,0,1-.55.13,0s.46,0,.94,0A4,4,0,0,1,31.73,5a1.08,1.08,0,0,1,.72.54.91.91,0,0,1,.1.54l.17.14.25.21V6.7a9.65,9.65,0,0,1-.21,1.69,4.71,4.71,0,0,1-.13.51l-.28,1.92.64.54c.43.35.76.66.71,1.11a.69.69,0,0,1-.3.51,1.11,1.11,0,0,1-.41.62,1.34,1.34,0,0,0-.06.12l.06.09a.9.9,0,0,1,.14.2c0,.06.1.24.22.53l.47,1.15-.08.3c.14.39.4.8.59.82s1,.08,1.08.71a.7.7,0,0,1-.1.44,1.77,1.77,0,0,1,0,.68l.06.1a6.74,6.74,0,0,1,.49.9c.12.26.18.43.22.53l.28.37a7,7,0,0,0,1.33.22h0a3.46,3.46,0,0,0,1.06-.13.91.91,0,0,1,.41-.08,4,4,0,0,1,1.23.29l.07,0,.16,0,.61-.07.48-.05.9-.1a15.6,15.6,0,0,0,2.44-.51A3.05,3.05,0,0,1,46,20l.46,0c.42-.08,1-.22,1.26-.29a.58.58,0,0,0,.18-.08,3.47,3.47,0,0,1,.8-.3,2.09,2.09,0,0,1,.55-.09.76.76,0,0,1,.39.1,3.2,3.2,0,0,1,.46.06l.27,0a.72.72,0,0,1,.65.5c.18.56-.38,1.07-.5,1.16l-.1.09-.2.16-.29.34a1.56,1.56,0,0,1-.7.51l0,0a1,1,0,0,1-.27.23l-.52.44,0,0,0,0-.27.17a.67.67,0,0,1,.13.41c0,.38-.19.51-.91,1a8.63,8.63,0,0,1-.88.59,7.75,7.75,0,0,0-.84.88c-.21.26-.42.26-1.12.28Z" style="fill: #060709;fill-rule: evenodd"/>
        <path d="M0,30.93a7.58,7.58,0,0,0,1.19-3.11,27.44,27.44,0,0,0,1-3.5c.11-.85.86-1.3,1.6-1.66.56-.27,1.14-.5,1.68-.79a1.66,1.66,0,0,0,1-1.42,1.89,1.89,0,0,1,.38-1.05c1-1.31,1.83-2.79,3.49-3.53A1.23,1.23,0,0,0,9,15.65a2.64,2.64,0,0,1-2.49-1.27c-.28-.57-.18-.82.4-1.07a9.62,9.62,0,0,1,2.65-.6,2.93,2.93,0,0,1,2.86,1.19,1,1,0,0,0,1.19.4,13.11,13.11,0,0,0,7.68-4.55,15.46,15.46,0,0,1,8.09-5.08c.54-.14.74-.29.44-.81a1.86,1.86,0,0,1-.1-.25c-.47-1.41-.44-1.46,1-1.61A1.84,1.84,0,0,0,32.43.9,3.32,3.32,0,0,1,33.2,0h1.06c.16.23.43.19.64.28a2.57,2.57,0,0,1,1.65,1.45c.14.46.4.52.79.49,1.08-.06,2.17-.13,3.26-.18a.8.8,0,0,0,.74-.43A2.3,2.3,0,0,1,44.75,1,6.61,6.61,0,0,1,46,2.3a3.84,3.84,0,0,0,1.77,1.46c.24.08.33.19.13.41a4.87,4.87,0,0,1-.33.43c-.47.43-.24.58.23.76a3.74,3.74,0,0,1,2.32,2,1.27,1.27,0,0,1-.42,1.71c-.44.3-.27.49-.06.76l-.15.46c-.47,0-.52.31-.56.66,0,.17,0,.49-.3.34-.7-.3-1.37-.65-2.19-1l2-.71L46.9,8.64c-.12-.07-.26-.13-.37,0a3.12,3.12,0,0,1-2.11.61c.14.29.36.28.54.35s.41,0,.35.28-.28.25-.49.21l-.58-.14a.3.3,0,0,0-.37.2c-.16.43.59,1.5,1,1.33s.76.05,1,.39c-.07.12-.13.24-.19.37-.24-.2-.45-.28-.57.12a1.41,1.41,0,0,0,.11,1.43,1.25,1.25,0,0,0,1.3.22c.45-.1.66-.33.24-.73L47,13a11.69,11.69,0,0,1,2.71.07,2.08,2.08,0,0,0,1.36-.19c.49-.27.55-.6.17-1s-.54-.52-.81-.78l.44-.22,1.39.55c0,.11.39.27,0,.31-.73-.13-.11.35-.23.51l-.16.07.17.06a1.27,1.27,0,0,1-.09.58c-.06.26-.14.54.13.72a1.13,1.13,0,0,0,1.07.08c.33-.11.14-.42.19-.63a.44.44,0,0,1,.38-.24c.12.62.64.93,1,1.33a2.81,2.81,0,0,1-.41,4.46,1,1,0,0,0,0,1.83c.4.25.78.51,1.18.75a.63.63,0,0,1,.35.52A8.2,8.2,0,0,0,57,25.31a10.29,10.29,0,0,1,1.25,7.25.86.86,0,0,0,.32.93A5.06,5.06,0,0,1,60,35.33V36.4c-.32.47-.56,1.1-1.26,1a1.15,1.15,0,0,0-1.12.39,2,2,0,0,1-2.68.34,3.85,3.85,0,0,0-3.14-.65c-1,.25-1.57-.45-2-1.2a1.81,1.81,0,0,1,0-2.18.86.86,0,0,0,.21-.8,1,1,0,0,1,.37-1.17c.49-.48.44-.79-.09-1.26-.33-.3-.68-.58-1-.86a8.65,8.65,0,0,1-2.4-2.46c-.22-.41-.41-.15-.55,0a16.5,16.5,0,0,1-2.53,2,10.5,10.5,0,0,1-7.12,2.55c-.65,0-1.21,0-1.12.87a.51.51,0,0,1-.09.25,13.72,13.72,0,0,1-2.59,1.93,4.51,4.51,0,0,0-2.68.35,1.82,1.82,0,0,0-1.17.8c-.14.23-.28.46-.43.68a2,2,0,0,1-2.1.92c-1.54-.23-3.09-.4-4.63-.57a8.79,8.79,0,0,1-3.95-1.47,3.17,3.17,0,0,1-1.22-1.69c-.8-2.36-1.48-4.75-2.19-7.13-.09-.26-.1-.6-.55-.36a10.13,10.13,0,0,1-4.83,1.07,1.75,1.75,0,0,0-1.61,1.06.84.84,0,0,0,.28,1.26,3.24,3.24,0,0,0,1.85.51c1.61,0,2.28,1,2.77,2.32a1.25,1.25,0,0,1-.47,1.65c-1.45.81-2.95,1.48-4.67.82a1.26,1.26,0,0,0-.77-.1,4.87,4.87,0,0,1-3-.39,9.11,9.11,0,0,1-3.42-3Zm47.33-8.68c.5.31.8.15.93-.4l.16-.22c.65-.06,1-.6,1.45-.94.13-.09.19-.31,0-.38-.33-.12-.69-.4-1,.06l-.35,0a.64.64,0,0,0-.55.38h0l-1.19.26h-.66l-.4,0c-.23,0-.48-.08-.67.12l-.26,0a.26.26,0,0,0-.28.1h-.26l-.17.11-.37,0-1.07.13a5,5,0,0,0-1.33.13h-.27a.32.32,0,0,0-.52,0l-.53.16c0-.14-.1-.28-.14-.42.73-.19.85-.72.81-1.38a5.1,5.1,0,0,0-.42-1.86,9.79,9.79,0,0,1-.33-7.12c.27-.84.56-1,1.37-.69a6,6,0,0,1,1.39.89c.53.38,1,.92,1.69,1,0,.06.06.09.11,0a.46.46,0,0,1-.07-.07A6.65,6.65,0,0,0,42,9.51c-1.52-.89-3.09-.33-3.2,1.55a4.17,4.17,0,0,1-.19,1.11c-.13.38-.16.87-.77,1,.11-.72.21-1.37.3-2,0-.34,0-.7-.34-.85s-.56.14-.75.4a13.85,13.85,0,0,1-2.35,2.43,3.68,3.68,0,0,0-1.22,1.2,3.37,3.37,0,0,0-.1,3.39,1.22,1.22,0,0,0-.93.28,4.11,4.11,0,0,0-.58-1.19l.17-.16a.23.23,0,0,0,.23-.12c.51-.27.4-.75.4-1.19s-.33-.38-.62-.43-.36-.22-.46-.43l-.38-.75.12-.27c.28,0,.42-.31.7-.24a1.11,1.11,0,0,1-.09.31c-.17.32-.39.66,0,.93s.58-.16.78-.4a32.22,32.22,0,0,1,3-3.26,4.62,4.62,0,0,0,1.33-1.91,1.15,1.15,0,0,0-.26-1.45A3.29,3.29,0,0,1,36.52,7a1.23,1.23,0,0,1-.35-1.33,2.84,2.84,0,0,1,2-1.62,1.3,1.3,0,0,1,1.26.15,33.22,33.22,0,0,0,3.78,2.69h0l.2-.11V7c0,.12,0,.19.13.2h0a2.54,2.54,0,0,0,.59,1.3.75.75,0,0,0,1.13.26c.48-.24.66-.53.42-1.06a6.1,6.1,0,0,1-.23-.89l.24,0a4.14,4.14,0,0,0,1.77,1.65A1.23,1.23,0,0,0,49,8.09a1.14,1.14,0,0,0-.5-1.38c-1-.63-2-1.36-3-2-2.26-1.35-4.7-2.4-7.44-1.8a2.08,2.08,0,0,1-2.67-1.42c-.5-1.12-1.34-1.16-2.19-.28a4.13,4.13,0,0,1-2.56,1.64c-.38,0-.21.24-.1.41a3.44,3.44,0,0,0,1.51,1.26,1,1,0,0,0,1.47-.44c.16-.24.3-.5.48-.72s.39-.44.73-.31.5.2.53.45-.25.45-.47.58a1.17,1.17,0,0,0-.62,1.46c.18.58-.09.59-.52.54l-2-.24c-.06,1.4.9,1,1.79.91L32.19,8.42c-1.09,1.37-1.08,2.14.07,3.46l.12.16c.58.64.52.87-.36,1.19,0-.2,0-.39,0-.58s0-.14,0-.22c.08-.46-.32-.68-.52-1a10.21,10.21,0,0,1-.55-1.7c0-.09,0-.17,0-.26A4,4,0,0,0,32,7.7s-.05-.07-.08-.1c0-.34-.54-.45-.42-.83.18-.55-.27-.67-.56-.87a.76.76,0,0,0-1,0,.53.53,0,0,1,0,.12l-.67.13c.06-.61-.16-.74-.74-.5s-1.37.51-2,.86A19.9,19.9,0,0,0,21,11.19,9.27,9.27,0,0,1,17.06,14c-1.34.48-2.69.93-4,1.4-2.48.87-4.67,2.14-5.6,4.8a4.66,4.66,0,0,1-2.84,3A3.09,3.09,0,0,0,2.67,26c0,.17-.06.35-.08.52a15.12,15.12,0,0,1-1.16,3.33,2.13,2.13,0,0,0-.11,1.93,5.9,5.9,0,0,0,3.45,2.86,1,1,0,0,0,1.36-1.2c-.1-.59.17-.59.57-.49a1.26,1.26,0,0,1,.79.67c.15.25.28.51.45.74a.91.91,0,0,0,1.6,0c.48-.6.17-1.12-.19-1.67a1.71,1.71,0,0,1,1.43.46c.18.12.33.4.56.26s.18-.49.12-.74a2,2,0,0,0-1.64-1.38,17.31,17.31,0,0,1-2.55-.74c-.3-.14-.64-.24-.8-.57a2.32,2.32,0,0,1,1.44-2.7,31,31,0,0,0,4.95-1c1.1-.33,1.28-.66,1.09-1.8a5.46,5.46,0,0,1,.47-3.31,10.09,10.09,0,0,1,4.49-4.3c.5-.28.94-.49.88-1.21a2,2,0,0,1,.49-1.15,15.77,15.77,0,0,1,1.75-2,.37.37,0,0,1,.58,0c.21.2,0,.35-.13.49A8.51,8.51,0,0,0,21,15.34c-.05.14-.29.4.11.43s.61.05.59.46a.63.63,0,0,1-.57.62c-2.12.54-3.6,2-5.14,3.44a2.61,2.61,0,0,0-1,2.18c.15,1.59.33,3.17.61,4.75.26,1.42.69,2.8,1,4.2a3.73,3.73,0,0,0,2.05,2.25c.43.24.7.39.12.77-.33.21-.34.46,0,.73a6.41,6.41,0,0,0,1.51,1.08,2.06,2.06,0,0,0,1.16.25,6.54,6.54,0,0,1,2.57.13,10.61,10.61,0,0,0,2.57.35c.68,0,1-.5,1.22-1.06a1,1,0,0,0-.26-1.32c-.21-.17-.74-.32-.52-.61s.65,0,1,.17c.1.05.17.14.27.2s.4.36.59,0,.22-.6-.19-.77-.71-.26-1-.43-.86-.37-.94-.87a.61.61,0,0,0-.75-.56,6.54,6.54,0,0,1-1.5.18c-.72-.12-.9.25-1.05.79-.05.16,0,.47-.25.46s-.28-.27-.32-.47c-.12-.63.1-1.3-.14-1.9-.57-1.42-.14-2.79.2-4.16a4.24,4.24,0,0,1,.62-1.39,1.62,1.62,0,0,1,2.64-.52,5.87,5.87,0,0,0,.67.43c.7.38,2,.39,2.39-.12a13.42,13.42,0,0,0,1.72-2.44c.07-.15,0-.48.32-.38s.5.23.47.56A3.55,3.55,0,0,1,29.36,26,4.23,4.23,0,0,1,26,25.63c-1.5-.67-2.15.47-2.28,1.58,0,.35.07.5.46.55a7.25,7.25,0,0,1,2.07.47,39,39,0,0,0,7.05,2.39,11.73,11.73,0,0,0,4.92.52,15,15,0,0,0,6.4-3.26,8.11,8.11,0,0,0,2.68-3.65c.08-.21.19-.4.25-.61s.49-.63.26-.89-.57.11-.88.11h-.13v-.46l.13-.13Zm9,10.35c1.12-.05,1.09-.05,1.33-1.12a5.24,5.24,0,0,0-.31-2.93,62.83,62.83,0,0,1-2.23-5.91,3.06,3.06,0,0,0-1.7-2c-.15-.08-.35-.24-.45,0-.27.66-.82.45-1.26.39a2.49,2.49,0,0,0-2.8,1.51c-.44,1-.85,2.1-1.31,3.13a1.1,1.1,0,0,0,.07,1.12,21.15,21.15,0,0,0,2.49,3,4.51,4.51,0,0,0,4.27,1.69c.17,0,.48-.1.49.18s-.28.29-.5.3c-.62.05-1.24.08-1.86.14a2.08,2.08,0,0,0-1.53.7c-.11.14-.29.4,0,.48.69.17.31.42.1.7a5.7,5.7,0,0,0-.58.81,1.16,1.16,0,0,0,.26,1.51,1.24,1.24,0,0,0,1.59.17,3,3,0,0,0,1-1c.14-.2.2-.55.57-.45a.84.84,0,0,1,.64.62,5.9,5.9,0,0,1,.09.72,1.2,1.2,0,0,0,1.36,1.22,1.59,1.59,0,0,0,1.58-1.49.81.81,0,0,0-.21-.54c-.13-.16-.46-.29-.31-.51s.48-.1.74,0,.47.35.55.68c0,.17-.14.54.23.46a.59.59,0,0,0,.51-.73,1.22,1.22,0,0,0-.33-.48A11.47,11.47,0,0,0,56.33,32.6ZM46,14.5a2.69,2.69,0,0,0-2.25,1.12,4.37,4.37,0,0,1-2.21,1.62c-.38.08-.36.33-.25.61a5.58,5.58,0,0,1,.34,2.29c-.07,1-.05,1.06,1,.91l.32-.07a15.76,15.76,0,0,1,3.62-.47,2.16,2.16,0,0,0,1.59-.57,1.22,1.22,0,0,1,1.24-.3c.79.28,1.19-.18,1.62-.67.27-.32.31-.53-.13-.76a8.47,8.47,0,0,1-1.39-.9,4.44,4.44,0,0,0-3.41-1.2c-.19,0-.52.12-.55-.18s.25-.35.46-.41a1.63,1.63,0,0,1,.66-.06c.57.07,1.13.23,1.7.27a2.22,2.22,0,0,1,1.7.91,2.92,2.92,0,0,0,2.48,1,2.09,2.09,0,0,0,1.94-1.08,1,1,0,0,0-.24-1.52,1.11,1.11,0,0,0-1.63,0c-.15.13-.3.23-.48.15a1.65,1.65,0,0,0-1.52.24,1.63,1.63,0,0,1-1.56,0A6.62,6.62,0,0,0,46,14.5Zm-21.63,14c-.88,0-1.14.25-1,1a6,6,0,0,0,.18.84c.12.5.35.78.94.59a4.08,4.08,0,0,1,1.05-.13c.63,0,1.36-.07,1.74.44a9.48,9.48,0,0,0,1.75,1.61,1.64,1.64,0,0,1,.79,1.32c0,.28.16.33.39.31a.88.88,0,0,0,.82-.45.8.8,0,0,0-.12-.93c-.32-.46-.86-.69-1.22-1.12-.11-.13-.29-.29,0-.37a1.93,1.93,0,0,1,2.1,1.69c0,.67.11.77.77.67a1,1,0,0,0,.79-.64c.17-.41-.13-.66-.38-.9s-.49-.33-.37-.57.51-.17.79-.14a.79.79,0,0,1,.58.5c.07.14,0,.44.25.39s.22-.34.23-.55a.5.5,0,0,0-.43-.58l-1.53-.45c-2-.6-4.11-.91-6-2A4.41,4.41,0,0,0,24.33,28.51Zm18.93-20,.14-.15A5.9,5.9,0,0,0,41.46,6.6a7.13,7.13,0,0,1-2.07-1.54A1,1,0,0,0,38,4.86c-1.18.65-1.32,1.43-.47,2.48a1.66,1.66,0,0,0,.16.21c.42.38.56.77.16,1.26-.11.14-.25.37,0,.53a.75.75,0,0,0,.93,0c.28-.19.45-.39.21-.76a1.45,1.45,0,0,1-.13-1.46.6.6,0,0,0-.05-.62c-.22-.34,0-.38.28-.37a2.17,2.17,0,0,1,1,.42Zm1.23,5.32c-.41-.18-.71-.31-1-.46a.43.43,0,0,0-.69.23c-.21.48-.5.43-.88.19a1.07,1.07,0,0,0-1.48.54,1.41,1.41,0,0,0,0,1.22,3.57,3.57,0,0,0,2-.11A9.27,9.27,0,0,1,44.49,13.88ZM43.2,1.19c-.51,0-1.2.78-1,1.16s1.37.78,1.73.51.62-.09.77.31a2.17,2.17,0,0,0,.69,1,.93.93,0,0,0,1,.16c.12,0,.29-.11.32-.21s-.15-.24-.27-.32a8,8,0,0,1-2.27-2A1.35,1.35,0,0,0,43.2,1.19ZM9.43,13.46a2,2,0,0,0-1.1.17c-.26.15-.73.13-.61.63a.72.72,0,0,0,.92.56,2.48,2.48,0,0,1,2.07.3,1,1,0,0,0,1.09-.27c.21-.28-.22-.56-.46-.76A2.83,2.83,0,0,0,9.43,13.46ZM44.1,13.2l.12-.16a8.78,8.78,0,0,0-1.74-1.22,2.1,2.1,0,0,0-1.2-.34.79.79,0,0,0-.85.68,9.46,9.46,0,0,0,0,1.41c.5-.79,1-.86,1.62-.2.19.2.37.11.46-.1a.59.59,0,0,1,.95-.32A5.26,5.26,0,0,0,44.1,13.2ZM39.67,7a2.87,2.87,0,0,0-.15.44c-.08.44-.17.93.24,1.22s.93.12,1.37-.12c.26-.14.37-.3,0-.51C40.68,7.74,40.2,7.4,39.67,7ZM51.51,19.79c.65.3,1.15.12,1.32-.48.06-.21.13-.43-.15-.57a.48.48,0,0,0-.69.17C51.82,19.2,51.67,19.5,51.51,19.79Zm-2.24-5.66c.14.29.41.27.67.28s.34,0,.33-.2-.24-.42-.49-.42A.47.47,0,0,0,49.27,14.13ZM47.83,14c.28,0,.54.35.84.1.06-.05,0-.26-.09-.35C48.26,13.45,48.06,13.73,47.83,14Zm3.3-.23c-.15,0-.33,0-.35.21s.14.25.31.25a.32.32,0,0,0,.32-.27C51.42,13.76,51.27,13.73,51.13,13.73ZM43.51,8.62l0,0h0Z" style="fill: #060709;fill-rule: evenodd"/>
        <path d="M46.81,22.84h.13c.31,0,.69-.33.88-.11s-.16.59-.25.89-.18.41-.26.62a7.94,7.94,0,0,1-2.68,3.64,14.75,14.75,0,0,1-6.39,3.26,11.75,11.75,0,0,1-4.93-.51,40.65,40.65,0,0,1-7-2.39,6.93,6.93,0,0,0-2.07-.47c-.38-.05-.49-.2-.46-.55.13-1.12.78-2.25,2.28-1.58a4.23,4.23,0,0,0,3.34.39,3.55,3.55,0,0,0,2.34-3.25c0-.34-.22-.49-.47-.57s-.25.23-.32.39A14.26,14.26,0,0,1,29.19,25c-.37.5-1.7.49-2.4.12-.23-.13-.45-.29-.67-.43a1.62,1.62,0,0,0-2.64.52,4.45,4.45,0,0,0-.62,1.39c-.34,1.37-.77,2.73-.2,4.16.25.6,0,1.27.14,1.9,0,.19.12.45.32.46s.21-.29.25-.46c.16-.53.33-.91,1.05-.79a7.28,7.28,0,0,0,1.51-.17.6.6,0,0,1,.74.56c.08.49.55.67.94.87s.7.29,1,.43.35.46.19.76-.4.14-.59,0a2.69,2.69,0,0,0-.27-.2c-.32-.15-.76-.45-1-.17s.31.43.52.61a1,1,0,0,1,.26,1.32c-.23.56-.53,1-1.22,1.06A10.62,10.62,0,0,1,24,36.62a6.74,6.74,0,0,0-2.57-.12,2.06,2.06,0,0,1-1.16-.26,6.37,6.37,0,0,1-1.51-1.07c-.33-.27-.32-.52,0-.74.58-.37.31-.52-.12-.76a3.75,3.75,0,0,1-2-2.26c-.34-1.4-.77-2.77-1-4.2s-.46-3.16-.61-4.74a2.62,2.62,0,0,1,1-2.18c1.54-1.4,3-2.9,5.14-3.44a.64.64,0,0,0,.57-.63c0-.41-.28-.43-.59-.45s-.16-.3-.1-.43A8.48,8.48,0,0,1,22.47,13c.12-.15.35-.3.13-.5a.37.37,0,0,0-.58,0,18.53,18.53,0,0,0-1.75,2,2,2,0,0,0-.49,1.15c.06.71-.38.92-.88,1.2a10.22,10.22,0,0,0-4.49,4.31,5.44,5.44,0,0,0-.47,3.3c.19,1.15,0,1.47-1.09,1.81a32.16,32.16,0,0,1-4.95,1A2.32,2.32,0,0,0,6.46,30c.16.33.5.43.8.57a18.58,18.58,0,0,0,2.55.73,2,2,0,0,1,1.64,1.39c.06.24.15.57-.11.73s-.39-.14-.57-.25a1.68,1.68,0,0,0-1.43-.46c.37.55.67,1.07.19,1.67a.91.91,0,0,1-1.59,0,5,5,0,0,1-.45-.74A1.3,1.3,0,0,0,6.7,33c-.41-.1-.68-.1-.58.49a1,1,0,0,1-1.35,1.19,5.91,5.91,0,0,1-3.46-2.85,2.19,2.19,0,0,1,.11-1.94,15,15,0,0,0,1.16-3.32c0-.18.06-.35.08-.53a3.09,3.09,0,0,1,1.93-2.86,4.69,4.69,0,0,0,2.83-3c.93-2.67,3.12-3.93,5.61-4.81,1.34-.47,2.68-.91,4-1.39a9.21,9.21,0,0,0,3.89-2.81,19.77,19.77,0,0,1,5.48-4.7,21,21,0,0,1,2-.87c.58-.23.8-.1.74.51l-.06.27A29.18,29.18,0,0,0,28.28,11c0,.33-.23.39-.46.47s-.41,0-.44.23.25.26.4.37c.31.25.75.35.81.88a11.49,11.49,0,0,0,1,3.23c.34.8.49,1.5-.26,2.13,0,0,0,.08,0,.18.93-.29,1.36.32,1.8,1a11.37,11.37,0,0,0,2.37,2.76,1.43,1.43,0,0,1,.67,1.45c0,.14-.08.34.08.42s.33-.07.47-.16c.31-.19.55-.55,1-.41a12.65,12.65,0,0,0,5.61,0c.39.37.79.73,1.19,1.09.1.15.2.36.39.32s.21-.3.26-.49a3.07,3.07,0,0,0,.07-.53c0-.5.26-.63.75-.68A11.7,11.7,0,0,0,46.81,22.84Z" style="fill: #7e7e7e;fill-rule: evenodd"/>
        <path d="M56.33,32.6A11.39,11.39,0,0,1,58.8,35a1.28,1.28,0,0,1,.34.49.59.59,0,0,1-.52.73c-.36.08-.19-.29-.23-.46-.07-.33-.19-.6-.54-.68s-.58-.2-.75,0,.19.35.32.5a.86.86,0,0,1,.21.55,1.6,1.6,0,0,1-1.58,1.49,1.2,1.2,0,0,1-1.36-1.22,5.67,5.67,0,0,0-.09-.72.84.84,0,0,0-.64-.62c-.38-.1-.43.24-.57.45a3.24,3.24,0,0,1-1,1,1.27,1.27,0,0,1-1.6-.17,1.16,1.16,0,0,1-.26-1.51,7.91,7.91,0,0,1,.58-.81c.22-.28.59-.53-.1-.7-.3-.08-.13-.34,0-.48a2,2,0,0,1,1.53-.7c.62-.06,1.24-.09,1.85-.14.22,0,.52,0,.51-.3s-.32-.21-.49-.18a4.53,4.53,0,0,1-4.28-1.69,22.58,22.58,0,0,1-2.49-3,1.12,1.12,0,0,1-.07-1.12c.47-1,.88-2.09,1.32-3.13A2.5,2.5,0,0,1,51.71,21c.44.07,1,.28,1.25-.38.1-.24.31-.08.45,0a3,3,0,0,1,1.7,2,62.9,62.9,0,0,0,2.24,5.91,5.14,5.14,0,0,1,.3,2.93C57.42,32.55,57.45,32.55,56.33,32.6Z" style="fill: #7f7f7f;fill-rule: evenodd"/>
        <path d="M45.51,6.81a4.31,4.31,0,0,0,.23.89c.23.53,0,.82-.42,1.06a.76.76,0,0,1-1.14-.26,2.61,2.61,0,0,1-.58-1.3c.28,0,.48.2.72.29.49.17.68,0,.73-.52-.59.16-.59.16-1.59-.16a1.18,1.18,0,0,1-.19.11h0a32.36,32.36,0,0,1-3.78-2.69,1.3,1.3,0,0,0-1.26-.15A2.86,2.86,0,0,0,36.16,5.7,1.25,1.25,0,0,0,36.52,7a2.58,2.58,0,0,0,.33.41,1.16,1.16,0,0,1,.26,1.45,4.62,4.62,0,0,1-1.33,1.91,32.32,32.32,0,0,0-3,3.26c-.19.24-.36.65-.78.4s-.21-.61,0-.92a1.68,1.68,0,0,0,.09-.32h0c.87-.31.94-.54.36-1.19l-.13-.15c-1.15-1.32-1.16-2.09-.06-3.47l1.29-1.63c-.9.07-1.86.5-1.79-.9.64.07,1.31.14,2,.23.42.06.69,0,.51-.53a1.18,1.18,0,0,1,.62-1.46c.22-.13.52-.27.48-.58s-.3-.37-.53-.45-.56.07-.74.3-.31.49-.47.72a1,1,0,0,1-1.48.45A3.5,3.5,0,0,1,30.55,3.3c-.11-.17-.28-.37.1-.41a4.15,4.15,0,0,0,2.57-1.65c.85-.87,1.68-.83,2.19.29a2.06,2.06,0,0,0,2.66,1.41c2.74-.59,5.18.45,7.45,1.81,1,.6,2,1.33,3,2A1.15,1.15,0,0,1,49,8.09a1.23,1.23,0,0,1-1.5.35,4.06,4.06,0,0,1-1.76-1.65l-.2-.31C45.43,6.57,45.47,6.69,45.51,6.81Zm2.92.53c-.79.1-1.29-.49-2-.56C47.22,7.66,47.61,7.77,48.43,7.34Z" style="fill: #7f7f7f;fill-rule: evenodd"/>
        <path d="M44.38,12.29c-.72-.06-1.16-.6-1.69-1a6.32,6.32,0,0,0-1.39-.89c-.81-.31-1.1-.15-1.36.69a9.74,9.74,0,0,0,.32,7.12,5.1,5.1,0,0,1,.42,1.86c0,.66-.08,1.19-.81,1.38a1.86,1.86,0,0,0-.8.27l-.8.16-.27,0-.53,0-.36-.06a4.12,4.12,0,0,1-1.68-1.11c-.21-.26-.29-.61-.61-.76,0,0,0-.08,0-.1l-.42-1c-.09-.22-.39-.44.05-.62.13,0,.12-.24,0-.36a.29.29,0,0,0-.36-.1.73.73,0,0,1-.5.11l-.23-.15a3.39,3.39,0,0,1,.1-3.39,3.78,3.78,0,0,1,1.22-1.2A13.85,13.85,0,0,0,37,10.7c.19-.26.38-.54.75-.4s.38.51.34.85c-.09.65-.19,1.3-.3,2,.61-.13.64-.62.77-1a4.1,4.1,0,0,0,.19-1.11c.11-1.88,1.68-2.44,3.2-1.55a6.71,6.71,0,0,1,2.43,2.74Zm-9.14,3a2.3,2.3,0,0,0,1.19-.55,2,2,0,0,0,.5-2.13c-.06-.11-.1-.26-.25-.27s-.18.17-.22.28A22,22,0,0,1,35.24,15.25Zm3.17,2.3a.27.27,0,0,0,.23-.3c0-.19-.2-.22-.36-.2s-.25.09-.23.25S38.19,17.56,38.41,17.55ZM37.16,20.4c.16,0,.3-.11.25-.3a.3.3,0,0,0-.36-.21.23.23,0,0,0-.23.27C36.84,20.36,37,20.4,37.16,20.4Zm.51-2a.26.26,0,0,0-.26-.25.28.28,0,0,0-.3.28c0,.17.11.22.25.23A.27.27,0,0,0,37.67,18.41Zm-.85-1.53c.09,0,.22-.07.24-.23a.27.27,0,0,0-.22-.33.24.24,0,0,0-.27.21C36.53,16.71,36.61,16.82,36.82,16.88Zm-1.67,0a.3.3,0,0,0-.2-.29c-.16,0-.26,0-.28.2a.23.23,0,0,0,.19.29C35,17.08,35.13,17,35.15,16.85Z" style="fill: #7f7f7f;fill-rule: evenodd"/>
        <path d="M46,14.5a6.55,6.55,0,0,1,3,.95,1.65,1.65,0,0,0,1.57,0,1.62,1.62,0,0,1,1.52-.23c.18.08.33,0,.47-.15a1.11,1.11,0,0,1,1.64,0,1,1,0,0,1,.24,1.53,2.12,2.12,0,0,1-1.94,1.08A2.9,2.9,0,0,1,50,16.64a2.24,2.24,0,0,0-1.7-.91c-.57,0-1.13-.2-1.7-.27a1.63,1.63,0,0,0-.66.06c-.21.06-.49.17-.47.41s.37.21.55.19a4.42,4.42,0,0,1,3.42,1.19,8.07,8.07,0,0,0,1.39.9c.44.23.4.44.13.76-.43.49-.83,1-1.63.67a1.21,1.21,0,0,0-1.23.3,2.12,2.12,0,0,1-1.59.57,15.69,15.69,0,0,0-3.62.47c-.11,0-.22.06-.32.07-1.06.15-1.08.13-1-.91a5.58,5.58,0,0,0-.34-2.29c-.11-.28-.13-.53.25-.6a4.48,4.48,0,0,0,2.21-1.62A2.67,2.67,0,0,1,46,14.5Z" style="fill: #7f7f7f;fill-rule: evenodd"/>
        <path d="M24.33,28.51a4.32,4.32,0,0,1,2.12.6c1.87,1.05,4,1.36,6,2,.51.16,1,.32,1.53.46a.49.49,0,0,1,.43.57c0,.21.05.5-.23.55s-.18-.25-.25-.39a.81.81,0,0,0-.58-.5c-.28,0-.65-.15-.79.15s.19.39.37.56.55.49.38.91a1,1,0,0,1-.79.63c-.66.1-.78,0-.77-.67a1.94,1.94,0,0,0-2.1-1.69c-.33.08-.15.24,0,.38.35.42.9.65,1.22,1.11a.8.8,0,0,1,.12.93.91.91,0,0,1-.82.46c-.24,0-.39,0-.39-.32a1.65,1.65,0,0,0-.79-1.32,9.45,9.45,0,0,1-1.75-1.6c-.38-.52-1.11-.49-1.74-.45A4.08,4.08,0,0,0,24.4,31c-.59.19-.82-.08-.94-.59a7.35,7.35,0,0,1-.19-.84C23.19,28.76,23.45,28.49,24.33,28.51Z" style="fill: #7e7e7e;fill-rule: evenodd"/>
        <path d="M45.89,11.84c-.27-.34-.49-.63-1-.39s-1.15-.9-1-1.33a.29.29,0,0,1,.37-.2l.58.14c.21,0,.44,0,.5-.21s-.2-.23-.36-.28-.4-.06-.54-.35a3.12,3.12,0,0,0,2.11-.61c.12-.1.25,0,.37,0l1.49.87-2,.71c.82.4,1.5.75,2.19,1,.33.15.28-.17.3-.34,0-.35.09-.67.56-.66a3.27,3.27,0,0,0,1,.85c.27.26.55.51.81.78s.32.73-.17,1a2.07,2.07,0,0,1-1.36.18A12.2,12.2,0,0,0,47,13c.11-.69-.25-.94-.88-1C46.05,12,46,11.91,45.89,11.84Z" style="fill: #7f7f7f;fill-rule: evenodd"/>
        <path d="M43.26,8.56l-3.19-2a2.17,2.17,0,0,0-1-.42c-.25,0-.49,0-.28.37a.6.6,0,0,1,.05.62,1.45,1.45,0,0,0,.13,1.46c.24.37.07.57-.21.76a.75.75,0,0,1-.93,0c-.22-.16-.08-.39,0-.53.4-.49.26-.88-.16-1.26a1.66,1.66,0,0,1-.16-.21c-.85-1-.7-1.83.47-2.48a1,1,0,0,1,1.41.2,6.92,6.92,0,0,0,2.07,1.53A6,6,0,0,1,43.4,8.41Z" style="fill: #7f7f7f;fill-rule: evenodd"/>
        <path d="M44.49,13.88a9.27,9.27,0,0,0-2,1.61,3.58,3.58,0,0,1-2,.11,1.45,1.45,0,0,1,0-1.22,1.08,1.08,0,0,1,1.48-.54c.39.24.68.29.89-.19a.43.43,0,0,1,.69-.23C43.78,13.57,44.08,13.7,44.49,13.88Z" style="fill: #f2f0ed;fill-rule: evenodd"/>
        <path d="M43.2,1.19a1.35,1.35,0,0,1,1,.56,8,8,0,0,0,2.27,2c.12.08.33.14.27.33s-.2.15-.32.21a.93.93,0,0,1-1-.17,2.11,2.11,0,0,1-.69-1c-.15-.4-.26-.7-.77-.31s-1.55-.13-1.73-.51S42.69,1.18,43.2,1.19Z" style="fill: #7f7f7f;fill-rule: evenodd"/>
        <path d="M9.43,13.46a2.83,2.83,0,0,1,1.91.63c.24.19.67.48.46.76a1,1,0,0,1-1.09.27,2.48,2.48,0,0,0-2.07-.3.72.72,0,0,1-.92-.56c-.12-.5.35-.48.61-.63A2,2,0,0,1,9.43,13.46Z" style="fill: #a3a29f;fill-rule: evenodd"/>
        <path d="M44.1,13.2a5.26,5.26,0,0,1-.66-.25.59.59,0,0,0-.95.32c-.09.21-.27.3-.46.1-.62-.66-1.12-.59-1.62.2a9.46,9.46,0,0,1,0-1.41.79.79,0,0,1,.85-.68,2.12,2.12,0,0,1,1.2.34A8.78,8.78,0,0,1,44.22,13Z" style="fill: #f2f0ed;fill-rule: evenodd"/>
        <path d="M31.86,16.82A3.93,3.93,0,0,1,32.44,18c-.31.56-.85.09-1.24.28l-1.32-.06.94-1.1C31.16,17,31.31,16.22,31.86,16.82Z" style="fill: #f2f0ed;fill-rule: evenodd"/>
        <path d="M46.78,13.25c.42.4.22.62-.24.73a1.25,1.25,0,0,1-1.3-.22,1.4,1.4,0,0,1-.1-1.44c.11-.39.32-.31.56-.11Z" style="fill: #f2f0ed;fill-rule: evenodd"/>
        <path d="M52,12.27c.12-.16-.49-.64.23-.52a2.27,2.27,0,0,1,1.08,1.4c0,.21.15.52-.18.63A1.18,1.18,0,0,1,52,13.7c-.26-.18-.18-.46-.13-.72A1.27,1.27,0,0,0,52,12.4S52,12.31,52,12.27Z" style="fill: #f2f0ed;fill-rule: evenodd"/>
        <path d="M39.67,7c.53.36,1,.7,1.51,1,.32.21.21.38,0,.51-.44.24-.92.45-1.37.13s-.32-.79-.24-1.23A2.87,2.87,0,0,1,39.67,7Z" style="fill: #f2f0ed;fill-rule: evenodd"/>
        <path d="M51.51,19.79c.16-.3.31-.59.48-.88a.47.47,0,0,1,.69-.17c.28.14.21.36.15.57C52.66,19.91,52.16,20.09,51.51,19.79Z" style="fill: #f2f0ed;fill-rule: evenodd"/>
        <path d="M46.78,13.25l-1.08-1c.06-.13.12-.25.19-.37.08.07.16.19.25.2.62,0,1,.29.87,1Z" style="fill: #060709;fill-rule: evenodd"/>
        <path d="M53.29,13.15a2.27,2.27,0,0,0-1.08-1.4c.44,0,.06-.19,0-.3.89.08,1.14.78,1.41,1.46A.45.45,0,0,0,53.29,13.15Z" style="fill: #060709;fill-rule: evenodd"/>
        <path d="M50.43,11.12a3.27,3.27,0,0,1-1-.85l.15-.45,1.25,1.08Z" style="fill: #060709;fill-rule: evenodd"/>
        <path d="M43.46,6.81c1,.32,1,.32,1.59.16,0,.48-.24.69-.73.52-.24-.09-.44-.3-.72-.29h0c0-.11-.05-.16-.14-.21Z" style="fill: #060709;fill-rule: evenodd"/>
        <path d="M49.27,14.13a.47.47,0,0,1,.51-.34c.25,0,.49.11.49.42s-.19.2-.33.2S49.41,14.42,49.27,14.13Z" style="fill: #f2f0ed;fill-rule: evenodd"/>
        <path d="M47.83,14c.23-.23.43-.51.75-.25.11.09.15.3.09.35C48.37,14.31,48.11,14,47.83,14Z" style="fill: #f2f0ed;fill-rule: evenodd"/>
        <path d="M51.13,13.73c.14,0,.29,0,.28.19a.33.33,0,0,1-.33.27c-.16,0-.33-.06-.3-.25S51,13.74,51.13,13.73Z" style="fill: #f2f0ed;fill-rule: evenodd"/>
        <path d="M45.51,6.81c0-.12-.09-.24.05-.33.06.1.12.21.19.31Z" style="fill: #47423e;fill-rule: evenodd"/>
        <path d="M52,12.27s0,.09,0,.13l-.16-.06Z" style="fill: #060709;fill-rule: evenodd"/>
        <path d="M43.46,7c.09,0,.16.09.14.2S43.42,7.12,43.46,7Z" style="fill: #060709;fill-rule: evenodd"/>
        <path d="M43.26,6.92h0Z" style="fill: #47423e;fill-rule: evenodd"/>
        <polygon points="43.51 8.63 43.5 8.59 43.53 8.6 43.51 8.63" style="fill: #060709;fill-rule: evenodd"/>
        <path d="M44.42,12.25a.46.46,0,0,0,.07.07c-.05.06-.09,0-.11,0Z" style="fill: #a4a4a2;fill-rule: evenodd"/>
        <path d="M48.43,7.34c-.82.43-1.21.32-2-.56C47.14,6.85,47.64,7.44,48.43,7.34Z" style="fill: #060709;fill-rule: evenodd"/>
        <path d="M35.24,15.25a22,22,0,0,0,1.22-2.67c0-.11,0-.3.22-.28s.2.16.25.27a2,2,0,0,1-.5,2.13A2.3,2.3,0,0,1,35.24,15.25Z" style="fill: #060709;fill-rule: evenodd"/>
        <path d="M38.41,17.55c-.22,0-.34-.06-.36-.25s.08-.23.23-.25.32,0,.35.2S38.53,17.52,38.41,17.55Z" style="fill: #060709;fill-rule: evenodd"/>
        <path d="M37.16,20.4c-.18,0-.32,0-.33-.24a.22.22,0,0,1,.22-.27.3.3,0,0,1,.36.21C37.46,20.29,37.32,20.37,37.16,20.4Z" style="fill: #060709;fill-rule: evenodd"/>
        <path d="M37.67,18.41a.27.27,0,0,1-.31.26c-.14,0-.26-.06-.25-.23s.11-.29.3-.28A.26.26,0,0,1,37.67,18.41Z" style="fill: #060709;fill-rule: evenodd"/>
        <path d="M36.82,16.88c-.21-.06-.29-.17-.25-.35a.24.24,0,0,1,.27-.21.27.27,0,0,1,.22.33C37,16.81,36.91,16.84,36.82,16.88Z" style="fill: #060709;fill-rule: evenodd"/>
        <path d="M35.15,16.85c0,.19-.14.23-.29.2a.23.23,0,0,1-.19-.29.21.21,0,0,1,.28-.2A.3.3,0,0,1,35.15,16.85Z" style="fill: #060709;fill-rule: evenodd"/>
        <path d="M42.53,24.41a3.61,3.61,0,0,0-1.12-1.08c0-.29-.35-.39-.39-.66a1.69,1.69,0,0,1,2.12-.27c-.11.59-.21,1.18-.31,1.76C42.8,24.34,42.74,24.46,42.53,24.41Z" style="fill: #f2f0ed;fill-rule: evenodd"/>
        <path d="M29.39,11.27c.93-.25,1-.18,1.17.86-.22.38-.2,1-.95.78a5.87,5.87,0,0,0-1.23-.73c-.16-.06-.37-.11-.36-.32s.22-.17.35-.23A3.76,3.76,0,0,1,29.39,11.27Z" style="fill: #f2f0ed;fill-rule: evenodd"/>
        <path d="M34.8,21.46a7,7,0,0,1,1.45.95c-.14.35-.52.47-.74.74l-.91.5A11.82,11.82,0,0,1,34.49,22C34.57,21.81,34.38,21.45,34.8,21.46Z" style="fill: #f2f0ed;fill-rule: evenodd"/>
        <path d="M29.17,6.13a31,31,0,0,0-1,5.14" style="fill: none"/>
      </g>
    </g>
  </g>
</svg>
