<svg xmlns="http://www.w3.org/2000/svg" viewBox="0 0 40.72 60">
  <title>20</title>
  <g id="Layer_2" data-name="Layer 2">
    <g id="Layer_1-2" data-name="Layer 1">
      <g id="_20" data-name="20">
        <path d="M28.17,52.71c-.34.76-.62,1.43-1,2.06A10.42,10.42,0,0,1,20.55,60a.9.9,0,0,1-.46,0,10.59,10.59,0,0,1-7.2-6.47l-.33-.76a12.53,12.53,0,0,0-.38,1.88,7.66,7.66,0,0,1-2.39-1.28A12.4,12.4,0,0,1,6,49c-.1-.21-.18-.12-.28,0a5,5,0,0,0-1,1.18,12.76,12.76,0,0,1-1.73-2.51A19.52,19.52,0,0,1,.82,35.42,15,15,0,0,1,1.73,32a.57.57,0,0,0-.05-.6A9.82,9.82,0,0,1,.05,27.23a5.62,5.62,0,0,1,4.69-6.38,8.18,8.18,0,0,1,4,.29.72.72,0,0,0,.52,0,26.05,26.05,0,0,1,10.53-2.4,26.18,26.18,0,0,1,11.69,2.4.7.7,0,0,0,.55,0,7.75,7.75,0,0,1,5.12.06,5.58,5.58,0,0,1,3.52,6,9.76,9.76,0,0,1-1.54,4,.82.82,0,0,0-.09.85,17.62,17.62,0,0,1,1,7.4,18.35,18.35,0,0,1-3.54,10c-.44.59-.43.59-.88,0-.23-.27-.46-.67-.77-.68s-.34.5-.51.76a12.9,12.9,0,0,1-5.22,4.74l-.21.09c-.44.17-.45.17-.49-.3A8.07,8.07,0,0,0,28.17,52.71ZM17.64,31.2A4.65,4.65,0,0,1,17,32.83c-.73,1.18-1.64,2.22-2.46,3.32A5.8,5.8,0,0,0,13.22,40,3.05,3.05,0,0,0,15,42.81a.41.41,0,0,0,.4,0,8.55,8.55,0,0,1,3.37-.73.33.33,0,0,0,.28-.08,2.37,2.37,0,0,0,0-2.64.44.44,0,0,0-.54-.08.39.39,0,0,0-.17.47c0,.13.15.21.13.36A2.09,2.09,0,0,1,16,38.48a4.08,4.08,0,0,1,0-1.35,8.77,8.77,0,0,1,1-2.94c.11.21,0,.34,0,.49a4.45,4.45,0,0,0-.23,1.45c0,.46.27.61.71.52a16.59,16.59,0,0,1,5.4-.1c.87.1,1,0,1-.88,0-.1,0-.21,0-.31a21.31,21.31,0,0,0-.46-2.73c-.1-.45-.19-.91-.28-1.37a1.6,1.6,0,0,0,2.12-.07l.43-.28,1.34-1a.77.77,0,0,1,.68-.16,1.35,1.35,0,0,0-.48.47c-.09.17-.19.36-.06.54s.33.07.5,0a8.29,8.29,0,0,1,3.76-.27A3.38,3.38,0,0,0,30,32.17,2.43,2.43,0,0,1,27.67,34a2.19,2.19,0,0,0,1.58.36,4.45,4.45,0,0,0,2.06-1c.82-.68,1.62-1.39,2.45-2.06A2.42,2.42,0,0,1,35,30.61c.31,0,.36-.11.28-.4a19.66,19.66,0,0,0-.68-2.05,7.44,7.44,0,0,1,2.33,1.75,5.61,5.61,0,0,0,1.3-3.43,2.9,2.9,0,0,0-2-3.09,5.77,5.77,0,0,0-4.37.34.42.42,0,0,1-.42,0l-1.38-.63a22.23,22.23,0,0,0-8.42-1.94.58.58,0,0,0-.59.32,9,9,0,0,0-.69,1.35,9,9,0,0,0-.74-1.42.47.47,0,0,0-.47-.25,26,26,0,0,0-4.56.59,25.88,25.88,0,0,0-5.27,2c-.13.06-.24.13-.4.05a6,6,0,0,0-3.63-.58,3,3,0,0,0-2.78,2.87,5.41,5.41,0,0,0,1.28,3.85C5.15,29,5.67,28.7,6.05,28.73c-.26.39-.54.76-.77,1.16a15.47,15.47,0,0,0-1.81,6.36,20.21,20.21,0,0,0,.53,7,13.5,13.5,0,0,0,1,2.84,15.18,15.18,0,0,1,2.2-1.41,15.78,15.78,0,0,0,1.17,2.76,9.65,9.65,0,0,0,2.26,3c1,.83,1.86.54,2.16-.75A9,9,0,0,0,13,47a9,9,0,0,0-.39-2.08,3.13,3.13,0,0,1,.87,1,9.92,9.92,0,0,1,1,2.71c.31,1.35.52,2.73.93,4.06A7.16,7.16,0,0,0,18.6,57a3,3,0,0,0,3.32.11,7.31,7.31,0,0,0,3.48-4.36,19.43,19.43,0,0,0,.72-5c0-.5.09-1,.14-1.54A8.31,8.31,0,0,0,25,50.21a12.59,12.59,0,0,1-.46,2.64,3.2,3.2,0,0,1-2.08,2.25,6.35,6.35,0,0,1-3.61.18,3.41,3.41,0,0,1-2.75-2.6,29.78,29.78,0,0,1-.61-3.1A11.11,11.11,0,0,0,13,43.46a5.54,5.54,0,0,1-.2-7.33.09.09,0,0,0,0-.14c-.18,0-.38.13-.58.17s-.37.15-.59,0a9.51,9.51,0,0,0,2.46-1.88c-.62.16-1.16.49-1.79.61a3,3,0,0,1-1.82,0,6.47,6.47,0,0,0,2.6-1,2,2,0,0,1-2-1.16c-.47-.82-.75-1.78-1.74-2.29a8.52,8.52,0,0,1,3.84.29c.15,0,.3.12.43,0s.06-.32,0-.48-.32-.36-.48-.57a1.26,1.26,0,0,1,.91.37c.41.3.8.62,1.21.92C16,31.53,16.75,32,17.64,31.2Zm6.86,3.1a.17.17,0,0,0,0,.17A9.59,9.59,0,0,1,24.92,38a2.21,2.21,0,0,1-2.49,2.12c-.13,0-.34.05-.19-.21s.18-.52-.14-.66-.52.06-.65.33a2.34,2.34,0,0,0,0,2.17.52.52,0,0,0,.52.32,7.13,7.13,0,0,1,2.85.55,1.2,1.2,0,0,0,1.44-.21,2.54,2.54,0,0,0,.72-.81,4.53,4.53,0,0,0-.21-4.53,20.11,20.11,0,0,0-2.13-2.74A.15.15,0,0,0,24.5,34.3Zm-6.78,2.76a2.32,2.32,0,0,1,1.49.37,3.32,3.32,0,0,1,.76,1c.1.18.17.4.42.4s.3-.22.38-.39A2,2,0,0,1,22.9,37.1L23,37A19.56,19.56,0,0,0,17.72,37.06Zm5.81,10.45c.18-.43.39-.84.54-1.28a12.64,12.64,0,0,0,.4-1.46.91.91,0,0,0-1-1.21c-.18,0-.26,0-.22.24A25.32,25.32,0,0,1,23.53,47.51Zm-6.93,0c0-.47,0-.91,0-1.34a15,15,0,0,1,.2-2.32c0-.11.1-.26-.12-.29a.94.94,0,0,0-1.09,1.08A9.46,9.46,0,0,0,16.6,47.51Zm5.25-2.67c.13-.41.22-.73.33-1.05s0-.33-.21-.36c-.37,0-.74,0-1.11-.12-.17,0-.28.06-.24.28A4.43,4.43,0,0,0,21,44.73a9.87,9.87,0,0,0,.43-1.22A4.71,4.71,0,0,0,21.85,44.84Zm1.24,6.3c-.16,1.06-.45,2.08-.7,3.17a1.63,1.63,0,0,0,.91-1.59A6.53,6.53,0,0,0,23.09,51.14Zm-4.9,3.18c-.27-1.12-.55-2.16-.7-3.24a8.55,8.55,0,0,0-.22,1.74A1.65,1.65,0,0,0,18.19,54.32ZM17.33,45a4.19,4.19,0,0,0,.36-1.21c0-.16,0-.33-.2-.3s-.53,0-.51.31A2.55,2.55,0,0,0,17.33,45Zm5.39,0a3.68,3.68,0,0,0,.35-1.24c0-.34-.29-.29-.49-.32s-.25.12-.22.3A4.64,4.64,0,0,0,22.72,45.08Zm-4.51-.27a3.28,3.28,0,0,0,.35-1c0-.11.14-.25,0-.34a.61.61,0,0,0-.56,0c-.17.07-.12.2-.1.33A3.89,3.89,0,0,0,18.21,44.81Zm1.85-.14a3.87,3.87,0,0,0,.36-1.09c0-.1,0-.21-.09-.26a.8.8,0,0,0-.53,0c-.14,0-.11.16-.1.25A4.29,4.29,0,0,0,20.06,44.67Zm-1.31,8.41a3.6,3.6,0,0,0-.35,1.07.35.35,0,0,0,.22.4c.13.07.31.14.4.08s.05-.28,0-.43C18.94,53.86,18.86,53.51,18.75,53.08Zm3.18.05a6.27,6.27,0,0,0-.35,1.3c0,.09,0,.18.11.21a.47.47,0,0,0,.57-.48A4.11,4.11,0,0,0,21.93,53.13Zm-2.39.16a2.89,2.89,0,0,0-.31,1.19c0,.29.25.25.43.27s.26-.1.22-.3A4.7,4.7,0,0,0,19.54,53.29Zm.82,0A4.66,4.66,0,0,0,20,54.52c0,.1,0,.2.11.25a.64.64,0,0,0,.49,0c.14-.06.09-.16.08-.26A6.11,6.11,0,0,0,20.36,53.33Zm-1.2-8.72a2.6,2.6,0,0,0,.33-.93c0-.11.15-.25,0-.34a.75.75,0,0,0-.57,0c-.2.07-.08.22-.06.33A2.71,2.71,0,0,0,19.16,44.61Zm2,8.69a3.77,3.77,0,0,0-.31,1.17c0,.09-.08.21.05.27a.64.64,0,0,0,.49,0c.13-.05.14-.13.12-.24A4.93,4.93,0,0,0,21.14,53.3Z" style="fill: #92562e;fill-rule: evenodd"/>
        <path d="M13.32,4.07c.38.59.72,1.12,1.07,1.64a6.53,6.53,0,0,0,1.7,1.81A1.54,1.54,0,0,0,18.48,7a10.13,10.13,0,0,0,1.15-3c.34-1.31.5-2.65.74-4a34.54,34.54,0,0,0,.89,4.64,8.54,8.54,0,0,0,.85,2.13,3.93,3.93,0,0,0,.41.57,1.42,1.42,0,0,0,2,.28,7.65,7.65,0,0,0,2.19-2.41c.23-.34.44-.7.67-1.07.14.14.09.29.09.42A10.84,10.84,0,0,0,28,8.09c.53,1.44,1.45,1.71,2.73.81a13.52,13.52,0,0,0,2.75-2.8c.07-.07.1-.18.27-.21-.26.66-.5,1.3-.75,1.94-.6,1.55-1.17,3.11-1.69,4.69-.09.27-.2.33-.47.26A45.12,45.12,0,0,0,24,11.62a40.12,40.12,0,0,0-5.8-.11,38,38,0,0,0-7.5,1.09l-.23.05c-.89.18-.89.18-1.18-.7C8.6,10,7.88,8.11,7.12,6.22c0-.06-.1-.12,0-.17s.18,0,.24.12a19.55,19.55,0,0,0,1.77,2,5.78,5.78,0,0,0,1.41,1,1.4,1.4,0,0,0,2.09-.72,8.06,8.06,0,0,0,.61-2.64C13.27,5.26,13.28,4.7,13.32,4.07Z" style="fill: #f7ba0e;fill-rule: evenodd"/>
        <path d="M20.36,12.58a38.49,38.49,0,0,1,9.74,1.25c.76.21.76.21.52.94-.43,1.3-.88,2.61-1.3,3.92-.08.24-.17.29-.41.21a23.35,23.35,0,0,0-4.68-1c-.94-.11-1.88-.17-2.83-.2a34.13,34.13,0,0,0-6,.35,19.6,19.6,0,0,0-3.37.78c-.35.12-.52.09-.64-.31C11,17.14,10.5,15.76,10,14.39c-.08-.25-.07-.34.22-.43a33.7,33.7,0,0,1,6.23-1.16C17.77,12.68,19.06,12.58,20.36,12.58Z" style="fill: #f7ba0e;fill-rule: evenodd"/>
        <path d="M17.64,31.2c-.89.79-1.64.33-2.38-.19-.41-.3-.8-.63-1.21-.93a1.29,1.29,0,0,0-.91-.36c.16.21.39.34.48.57s.13.32,0,.48-.28.07-.43,0a8.55,8.55,0,0,0-3.85-.29c1,.51,1.28,1.47,1.74,2.29a2.07,2.07,0,0,0,2,1.16,6.52,6.52,0,0,1-2.59,1,3,3,0,0,0,1.82,0c.63-.12,1.17-.45,1.79-.61a9.26,9.26,0,0,1-2.46,1.87c.22.12.41,0,.59,0a3.86,3.86,0,0,0,.58-.17c.07.06.05.11,0,.15A5.54,5.54,0,0,0,13,43.46a11.08,11.08,0,0,1,2.5,6.12,29.6,29.6,0,0,0,.61,3.09,3.41,3.41,0,0,0,2.75,2.61,6.26,6.26,0,0,0,3.61-.19,3.17,3.17,0,0,0,2.08-2.24A12.57,12.57,0,0,0,25,50.2a8.3,8.3,0,0,1,1.25-3.93c-.05.55-.11,1-.14,1.54a19.88,19.88,0,0,1-.72,5,7.31,7.31,0,0,1-3.48,4.36A3,3,0,0,1,18.6,57a7.12,7.12,0,0,1-3.28-4.28c-.41-1.33-.62-2.71-.93-4.06a9.92,9.92,0,0,0-1-2.71,3.25,3.25,0,0,0-.87-1A9,9,0,0,1,13,47a8.69,8.69,0,0,1-.13,2.64c-.29,1.29-1.11,1.58-2.15.75a9.5,9.5,0,0,1-2.26-3,15.78,15.78,0,0,1-1.17-2.76,15.18,15.18,0,0,0-2.2,1.41,13.7,13.7,0,0,1-1-2.84,20.21,20.21,0,0,1-.53-7,15.47,15.47,0,0,1,1.81-6.36c.23-.4.51-.77.77-1.16-.38,0-.9.24-2.26,1.18a5.39,5.39,0,0,1-1.28-3.86,3,3,0,0,1,2.77-2.86,6,6,0,0,1,3.64.58.38.38,0,0,0,.39-.05,26.18,26.18,0,0,1,5.28-2,25.87,25.87,0,0,1,4.56-.59.46.46,0,0,1,.47.25,10,10,0,0,1,.74,1.42,9,9,0,0,1,.69-1.35.58.58,0,0,1,.59-.32,22.23,22.23,0,0,1,8.42,1.94l1.38.63a.42.42,0,0,0,.42,0,5.77,5.77,0,0,1,4.37-.34,2.9,2.9,0,0,1,2,3.09,5.61,5.61,0,0,1-1.3,3.43,7.29,7.29,0,0,0-2.33-1.75,20.32,20.32,0,0,1,.68,2c.07.3,0,.38-.28.41a2.42,2.42,0,0,0-1.24.61c-.83.67-1.63,1.38-2.45,2.05a4.47,4.47,0,0,1-2.06,1.06A2.19,2.19,0,0,1,27.67,34,2.43,2.43,0,0,0,30,32.17a3.38,3.38,0,0,1,1.39-1.66,8.29,8.29,0,0,0-3.76.27c-.17,0-.35.18-.5,0s0-.37.06-.55a1.42,1.42,0,0,1,.48-.46.77.77,0,0,0-.68.16c-.46.33-.9.68-1.34,1l-.43.28a1.6,1.6,0,0,1-2.12.07c.09.46.18.92.28,1.37a21,21,0,0,1,.46,2.73c0,.1,0,.21,0,.31,0,.92-.1,1-1,.88a16.59,16.59,0,0,0-5.4.1c-.45.09-.67-.06-.71-.52A4.55,4.55,0,0,1,17,34.67c0-.14.14-.27,0-.48a8.79,8.79,0,0,0-1,2.93,4.14,4.14,0,0,0,0,1.36,2.09,2.09,0,0,0,2.56,1.65c0-.15-.11-.23-.13-.36a.39.39,0,0,1,.17-.47.44.44,0,0,1,.54.08,2.37,2.37,0,0,1,0,2.64.33.33,0,0,1-.28.08,8.47,8.47,0,0,0-3.37.73.41.41,0,0,1-.4,0A3.05,3.05,0,0,1,13.22,40a5.75,5.75,0,0,1,1.28-3.87C15.32,35,16.23,34,17,32.83A4.65,4.65,0,0,0,17.64,31.2ZM7.48,25.27a2.66,2.66,0,0,0-2.57-.16,1.12,1.12,0,0,0-.54,1.09,3.47,3.47,0,0,0,.56,1.56A6.36,6.36,0,0,1,7.48,25.27Zm28.3,2.49a3.29,3.29,0,0,0,.53-1.27A1.26,1.26,0,0,0,36,25.21a2.56,2.56,0,0,0-2.71.07A6.19,6.19,0,0,1,35.78,27.76Z" style="fill: #fdfdfd;fill-rule: evenodd"/>
        <path d="M24.5,34.3a.15.15,0,0,1,.18.07,19.28,19.28,0,0,1,2.12,2.74A4.51,4.51,0,0,1,27,41.64a2.54,2.54,0,0,1-.72.81,1.2,1.2,0,0,1-1.44.21A7.14,7.14,0,0,0,22,42.11a.52.52,0,0,1-.51-.32,2.34,2.34,0,0,1,0-2.17c.13-.27.32-.47.64-.33s.28.41.14.66.07.21.19.22A2.21,2.21,0,0,0,24.91,38a9.2,9.2,0,0,0-.41-3.57A.2.2,0,0,1,24.5,34.3Z" style="fill: #fdfdfd;fill-rule: evenodd"/>
        <path d="M17.72,37.06A20,20,0,0,1,23,37l-.12.11a2,2,0,0,0-2.13,1.36c-.08.17-.15.39-.38.39s-.32-.22-.42-.41a3.4,3.4,0,0,0-.76-1A2.32,2.32,0,0,0,17.72,37.06Z" style="fill: #fdfdfd;fill-rule: evenodd"/>
        <path d="M23.53,47.51a25.32,25.32,0,0,0-.25-3.71c0-.21,0-.25.22-.24a.91.91,0,0,1,1,1.21,12.64,12.64,0,0,1-.4,1.46C23.92,46.66,23.71,47.08,23.53,47.51Z" style="fill: #f2f2f2;fill-rule: evenodd"/>
        <path d="M16.6,47.51a9.46,9.46,0,0,1-1-2.87.94.94,0,0,1,1.09-1.08c.22,0,.14.18.12.29a15,15,0,0,0-.2,2.32C16.59,46.6,16.6,47,16.6,47.51Z" style="fill: #fdfdfd;fill-rule: evenodd"/>
        <path d="M21.85,44.84a4.71,4.71,0,0,1-.44-1.33A10.48,10.48,0,0,1,21,44.73a4.49,4.49,0,0,1-.36-1.13c0-.23.07-.32.24-.29.37.08.74.07,1.11.12q.32,0,.21.36C22.07,44.1,22,44.43,21.85,44.84Z" style="fill: #f2f2f2;fill-rule: evenodd"/>
        <path d="M23.09,51.14a6.53,6.53,0,0,1,.21,1.58,1.62,1.62,0,0,1-.91,1.59C22.64,53.22,22.93,52.2,23.09,51.14Z" style="fill: #f2f2f2;fill-rule: evenodd"/>
        <path d="M18.19,54.32a1.65,1.65,0,0,1-.92-1.5,8.55,8.55,0,0,1,.22-1.74C17.64,52.16,17.92,53.2,18.19,54.32Z" style="fill: #f2f2f2;fill-rule: evenodd"/>
        <path d="M17.33,45a2.55,2.55,0,0,1-.35-1.2c0-.31.3-.29.51-.31s.23.14.2.3A4.53,4.53,0,0,1,17.33,45Z" style="fill: #f2f2f2;fill-rule: evenodd"/>
        <path d="M22.72,45.08a4.64,4.64,0,0,1-.36-1.26c0-.18,0-.34.22-.3s.52,0,.49.32A3.68,3.68,0,0,1,22.72,45.08Z" style="fill: #f2f2f2;fill-rule: evenodd"/>
        <path d="M18.21,44.81a3.89,3.89,0,0,1-.32-1c0-.13-.07-.26.1-.33a.61.61,0,0,1,.56,0c.15.09,0,.23,0,.34A3.28,3.28,0,0,1,18.21,44.81Z" style="fill: #f2f2f2;fill-rule: evenodd"/>
        <path d="M20.06,44.67a3.9,3.9,0,0,1-.35-1.1c0-.09-.05-.21.09-.25a.8.8,0,0,1,.53,0c.14,0,.11.16.09.26A3.87,3.87,0,0,1,20.06,44.67Z" style="fill: #f2f2f2;fill-rule: evenodd"/>
        <path d="M18.75,53.08c.11.43.19.78.28,1.12,0,.15.14.33,0,.43s-.27,0-.4-.08a.35.35,0,0,1-.22-.4A3.6,3.6,0,0,1,18.75,53.08Z" style="fill: #f2f2f2;fill-rule: evenodd"/>
        <path d="M21.93,53.13a4.18,4.18,0,0,1,.33,1,.47.47,0,0,1-.57.49c-.12,0-.12-.12-.1-.21A5.67,5.67,0,0,1,21.93,53.13Z" style="fill: #f2f2f2;fill-rule: evenodd"/>
        <path d="M19.54,53.29a4.7,4.7,0,0,1,.34,1.16c0,.2,0,.31-.22.3s-.44,0-.43-.27A2.89,2.89,0,0,1,19.54,53.29Z" style="fill: #f2f2f2;fill-rule: evenodd"/>
        <path d="M20.36,53.33a6.11,6.11,0,0,1,.34,1.18c0,.1.06.2-.08.26a.64.64,0,0,1-.49,0c-.15-.05-.13-.15-.11-.25A4.66,4.66,0,0,1,20.36,53.33Z" style="fill: #f2f2f2;fill-rule: evenodd"/>
        <path d="M19.16,44.61a2.71,2.71,0,0,1-.32-.93c0-.11-.14-.26.06-.33a.71.71,0,0,1,.57,0c.17.09,0,.23,0,.34A2.6,2.6,0,0,1,19.16,44.61Z" style="fill: #f2f2f2;fill-rule: evenodd"/>
        <path d="M21.14,53.3a4.93,4.93,0,0,1,.35,1.16c0,.11,0,.19-.12.24a.64.64,0,0,1-.49,0c-.13-.06-.06-.18-.05-.27A3.77,3.77,0,0,1,21.14,53.3Z" style="fill: #f2f2f2;fill-rule: evenodd"/>
        <path d="M7.48,25.27a6.36,6.36,0,0,0-2.55,2.49,3.47,3.47,0,0,1-.56-1.56,1.12,1.12,0,0,1,.54-1.09A2.66,2.66,0,0,1,7.48,25.27Z" style="fill: #92562e;fill-rule: evenodd"/>
        <path d="M35.78,27.76a6.19,6.19,0,0,0-2.54-2.48A2.56,2.56,0,0,1,36,25.21a1.26,1.26,0,0,1,.36,1.28A3.29,3.29,0,0,1,35.78,27.76Z" style="fill: #92562e;fill-rule: evenodd"/>
      </g>
    </g>
  </g>
</svg>
