<svg xmlns="http://www.w3.org/2000/svg" viewBox="0 0 48.03 60">
  <title>21</title>
  <g id="Layer_2" data-name="Layer 2">
    <g id="Layer_1-2" data-name="Layer 1">
      <g id="_21" data-name="21">
        <path d="M24,60c-3.9,0-6.56-4.43-7.43-5.89l-.15-.25a36.62,36.62,0,0,1-8.71-9.24c0,.12,0,.23-.07.32l-.35,1.72-.83-1.54c-.21-.39-5.23-9.73-6.44-16.28l0-.26.15-.22.29-.43a34.31,34.31,0,0,1,3.93-5.11l-.28-.13-.58-.29.29-.57a25.07,25.07,0,0,1,2.3-3.72,36.19,36.19,0,0,1,1.36-6.49C8.5,8.21,10.53,3.5,14.28.47l.47-.38.4.44a1.53,1.53,0,0,0,.13.13A16.26,16.26,0,0,1,19.9,9.13c1,0,3.41-.1,5.47-.1,1.27,0,2.21,0,2.86.07A18.05,18.05,0,0,1,33,.51L33.49,0l.45.53.16.16a27.19,27.19,0,0,1,8,17.74c.18.31.6,1,1,1.55a19.54,19.54,0,0,1,1.24,2l.23.65-.66.18-.14,0c1.16,1.53,3.76,5,4.09,5.47l.17.25-.09.29c-.16.56-4.1,13.77-6.49,16.33l-.86.92-.23-1.24c0-.08,0-.19,0-.3-1.62,2.34-5.19,7.13-8.45,9C29.37,57.86,26.73,60,24,60Z" style="fill: #a3adb5"/>
        <path d="M19.39,9.78s7.58-.27,9.37,0c0,0,.41-4.31,4.71-8.86a27,27,0,0,1,8,17.68c.26.49,2.17,3.37,2.25,3.59-.42.11-1,.32-1,.32s4.2,5.56,4.61,6.16c0,0-4,13.59-6.35,16.07-.09-.48-.33-1.85-.33-1.85s-5,7.86-9.26,10.25c-7.88,13.53-14,.8-14.49.25A35.87,35.87,0,0,1,7.47,42.94c-.12.63-.34,1.45-.42,1.88,0,0-5.17-9.57-6.38-16.1.49-.69,3.11-4.85,4.88-6.08-.72-.34-.91-.39-1.18-.53a23.17,23.17,0,0,1,2.34-3.73s1-11.74,8-17.42A15.59,15.59,0,0,1,19.39,9.78Z" style="fill: #0c223e"/>
        <path d="M29.43,11.92S31,5.44,33.74,3.7c.4.26,5,3.64,6.08,13.45,0,0-4-10.13-6-11.52a8.7,8.7,0,0,0-1,4,17.91,17.91,0,0,1,2,4.18l-.9-.19a17.7,17.7,0,0,1,.92,3.63,30.53,30.53,0,0,0-6-4.69c1.07-.06,1.66-.14,1.66-.14S30.57,12.24,29.43,11.92Z" style="fill: #fdfffd"/>
        <path d="M18.85,11.92s-1.56-6.48-4.3-8.22C14.15,4,9.5,7.34,8.46,17.15c0,0,4-10.13,6-11.52a8.65,8.65,0,0,1,1,4,18.18,18.18,0,0,0-2,4.18l.91-.19a18.19,18.19,0,0,0-.93,3.63,30.47,30.47,0,0,1,6-4.69c-1.08-.06-1.67-.14-1.67-.14S17.71,12.24,18.85,11.92Z" style="fill: #fdfffd"/>
        <path d="M43.79,29.91s-1.36,6.72-3.2,9.85c-.12-.24-.69-1.68-.69-1.68s-2,5.15-5.21,7.1a14.34,14.34,0,0,1,1.9-5.64c-.18.13-3,1.74-6.23,9.85-1.23,5-7.79,11.31-12.26.73,0,0-1-5.29-6.52-10.64.35.91,1.61,4.68,1.93,5.63a18.36,18.36,0,0,1-5.19-6.87l-.76,1.52s-3.2-9.28-3.17-10c.82-.09,3.39-.31,3.39-.31l-2.09-1.3,2.06-1.9,3.64.88s1,4,2.28,5c-.1-.41-1.17-5.83-.67-6s4-1.7,4-2.78a2,2,0,0,1-.5,0l1.45-2.49s2.6,1.2,3.32,2.43c0,.55.31,6.19-1.16,6.72-.17-.26-1.31-3.11-3.3-4.4,0,.08.47,1.21.47,1.21l-2.83-.24a6.65,6.65,0,0,0,3.73,3.8c.13,1.95.3,4.1.3,4.1s1.92-3.48,4.12-4.39c0-.63.86-13.39,1.5-13.16.46,0,1.33,6.13,1.73,13.16a18.73,18.73,0,0,1,4,4.2c.08-.53.27-3.89.27-3.89s3.45-1,3.62-3.75c-.85,0-2.56.12-2.66.12s.38-1.18.38-1.18A11.27,11.27,0,0,0,28.14,30c-1-.44-1.5-6.12-1.29-6.65.6-.55,2.83-2.74,3.34-2.49a25.42,25.42,0,0,1,1.58,2.43l-.69.17s.67,1.6,4.2,2.68a37.1,37.1,0,0,1-.74,6.14,10.49,10.49,0,0,0,2.26-5,13,13,0,0,1,3.63-.95l2.11,1.92-2,1.35Z" style="fill: #fffeff"/>
        <path d="M20.9,39.54a4.47,4.47,0,0,1,6.5.13c0,1-.48,3.82-3,4.74,0,0,1,2.63,4.49.28C30.47,43.15,31.5,39,32.83,39a45.36,45.36,0,0,0-3.59,9.17c.11,1.39-5,11.14-9.9,1.43,0,0-2.6-9.05-3.95-10.56,0,0,.3-.16.72.26s1.91,4.3,3.46,5.59c.41.53,3.63,1.48,4.21-.52-.25-.24-3.06-.77-2.88-4.9" style="fill: #0e203d"/>
        <path d="M21.83,40s2.26-2,4.43-.08c.2.38-.14.42-.29.32a3.06,3.06,0,0,0-3.84.06C22,40.47,21.72,40.3,21.83,40Z" style="fill: #fff"/>
        <path d="M21.79,47s.32,2.64,2.41,2.7a2.69,2.69,0,0,0,2.17-2.78c-1.48-.45-2.13,1.43-2.26,1.45S23.31,46.57,21.79,47Z" style="fill: #d22331"/>
        <path d="M20.9,47.2s-.53,1.44,1,3.49a1.51,1.51,0,0,1,.62-.4,1.65,1.65,0,0,0,3.18.06s.32,0,.53.51,1.52-2.28,1.08-3.74c0,0,3.1,4.52-3.27,5.64C23.5,52.72,18.09,51.32,20.9,47.2Z" style="fill: #dedee5"/>
        <path d="M17.42,27.84s1.52.43,1.19.84a1.28,1.28,0,0,1-2.3-1.1l.66.07s-.07.92.62.9C17.84,28.22,17.45,28,17.42,27.84Z" style="fill: #aacae1"/>
        <path d="M30.91,27.87s-1.52.44-1.19.84a1.28,1.28,0,0,0,2.3-1.1l-.66.07s.07.92-.62.9C30.49,28.25,30.88,28,30.91,27.87Z" style="fill: #aacae1"/>
      </g>
    </g>
  </g>
</svg>
