<svg xmlns="http://www.w3.org/2000/svg" viewBox="0 0 39.3 60">
  <title>22</title>
  <g id="Layer_2" data-name="Layer 2">
    <g id="Layer_1-2" data-name="Layer 1">
      <g id="_22" data-name="22">
        <path d="M23.07,53.33c.16-1,.33-1.92.5-2.91l-2.24,1.15c-1.39.72-2.78,1.43-4.15,2.17-.31.17-.43.07-.56-.18a5,5,0,0,1,.07-4.84c.06-.11.13-.21.21-.34-.67-.22-1.33-.42-2-.66a17.86,17.86,0,0,1-6-3.34,6,6,0,0,1-2.23-5.25,10.27,10.27,0,0,1,.75-3,12,12,0,0,1,5.33-5.76A23.3,23.3,0,0,1,20,27.75c.79-.15,1.59-.29,2.39-.38,0-.17-.18-.15-.27-.18a45.14,45.14,0,0,1-9-4.35A28.65,28.65,0,0,1,2.18,11.09,20.66,20.66,0,0,1,0,2.79C0,2.53,0,2.28,0,2a.86.86,0,0,1,.46.14,46.32,46.32,0,0,1,13.41,9,88.54,88.54,0,0,1,9.77,11.16c1.11,1.48,2.19,3,3.29,4.46.08.1.12.24.28.31a3.08,3.08,0,0,0,0-1,29.22,29.22,0,0,1,0-6.74A25.16,25.16,0,0,1,30.91,8.86,33.16,33.16,0,0,1,39.16,0a.25.25,0,0,1,.09,0c.07.05,0,.11,0,.17,0,2.73,0,5.46,0,8.18a40.53,40.53,0,0,1-1.53,9.79,27,27,0,0,1-4,8.74,13.12,13.12,0,0,1-2.14,2.39c-.13.11-.3.2-.05.39a8.88,8.88,0,0,1,3.26,5.75,22.63,22.63,0,0,1,0,7.16c-.33,2.43-.88,4.81-1.42,7.19a.41.41,0,0,1-.31.34q-4.89,1.57-9.77,3.19ZM13.22,34.87a2.3,2.3,0,0,0,2.26,2.35,2.42,2.42,0,0,0,2.45-2.28,2.5,2.5,0,0,0-2.39-2.47A2.39,2.39,0,0,0,13.22,34.87Z" style="fill: #010101;fill-rule: evenodd"/>
        <path d="M12.51,58.44V52a6.61,6.61,0,0,1,1,.62c1.11.72,2.21,1.45,3.31,2.18a.41.41,0,0,0,.49,0c1.42-.74,2.84-1.46,4.26-2.19l.55-.28c-.35,2.57-.69,5.08-1.05,7.65L20,59.15c-.88-.71-1.77-1.4-2.61-2.14a.85.85,0,0,0-1.06-.15C15.08,57.41,13.81,57.91,12.51,58.44Z" style="fill: #020202;fill-rule: evenodd"/>
        <path d="M33.34,52c0,.53-.07.9-.08,1.26s-.11.3-.32.36q-5,1.45-10,2.94c-.28.08-.36.07-.3-.25s.15-.87.19-1.3a.35.35,0,0,1,.31-.37l6.76-1.91L33,51.84C33.36,51.73,33.36,51.74,33.34,52Z" style="fill: #020202;fill-rule: evenodd"/>
        <path d="M13.22,34.87a2.39,2.39,0,0,1,2.32-2.4,2.5,2.5,0,0,1,2.39,2.47,2.41,2.41,0,0,1-2.45,2.28A2.3,2.3,0,0,1,13.22,34.87Z" style="fill: #fefefe;fill-rule: evenodd"/>
      </g>
    </g>
  </g>
</svg>
