<svg xmlns="http://www.w3.org/2000/svg" viewBox="0 0 60 43.67">
  <title>23</title>
  <g id="Layer_2" data-name="Layer 2">
    <g id="Layer_1-2" data-name="Layer 1">
      <g id="_23" data-name="23">
        <path d="M47.5,6.09,45,15.75a6.32,6.32,0,0,1,1.43.47s1.38-.14,4.57-3.42c0,0,5.92-6.14,8.85-11.49a32.57,32.57,0,0,1-6,21.9s2.28,3.4-.75,7.47c0,0,1.07,3-2.71,3.16,0,0,.71,2.54-1,3.67a2.46,2.46,0,0,1-2.77.49c-.07.31-.55,3.06-5.17,2.68a8.72,8.72,0,0,1-3.8-1.88S20.65,41,19.81,37.74a19.16,19.16,0,0,0-5.47,4.76c-.44.56-1.35,2.16-3.54.29a53.42,53.42,0,0,1-7.88-9S.06,30.16,0,28.31l0-1.84A28,28,0,0,1,2.46,14c1.66-3.39,4.8-7.48,9-7.95L18.92,6s-.34-2.53,3.62-3.85A63.69,63.69,0,0,1,29.36,0,12,12,0,0,0,27,7.74s6.23,6,12.58,6l.85.34Z"/>
        <polyline points="41.28 14.69 45.17 10.46 43.88 15.38 41.28 14.8" style="fill: #bf1718"/>
        <path d="M50,30s1.43.27,1.94.34c2.54-4,1-6.13,1-6.13-4.15-1.77-5.66-2.29-7.44-4.15a3,3,0,0,1-.07-3c-.82-.24-1.64-.59-2.15-.74a9.27,9.27,0,0,1-3-.92,2.62,2.62,0,0,0-1.06-.55C33.74,14.92,27,9.29,27,9.29c0,.16.2,1.74.2,1.74A2.17,2.17,0,0,1,27,13.45c-1,1.53-4.76-.55-4.76-.55-.25-.21-7.76-.55-7.76-.55l6.39-.23a6.42,6.42,0,0,1-2.19-5,60.5,60.5,0,0,0-7.87.21C.08,11.49,1.19,26.79,1.24,28.35c.46,2.9,9.34,14,11.51,14.25,1.26-2.23,5.11-5.06,5.91-5.5.49-3.47-1.58-8.31-2.25-9.64s-1.66-.59-2.33-.52c-1.14.08-7.29,2.5-7.29,2.5L22.2,22.79s-3.66,2-4.57,2.59c-1.55,1.56,2.72,10.92,3.22,12s3.2,1,3.2,1A98.05,98.05,0,0,0,38,37.71c7.45,5,8-1.56,8-1.56,3.18,2.91,4-1.36,3-2.86-.15-.23-5.85-2.63-5.85-2.63a3.2,3.2,0,0,0-1.66-.17C36.93,32,36,31.69,36,31.69c-1.62,0-1.3-2.94-1.3-2.94l6.17-.11s8.14,4,8.79,4.27c3.62-.33,2.06-2.12,2.06-2.12ZM42.4,34.83A6,6,0,0,0,36,34.45c-1.2.51-6,2.88-6.84-2.19,0,0-.56-3.34,1.6-5a5.85,5.85,0,0,1,3.46-.4s-3.18,0-4.11,2a3.92,3.92,0,0,0,.72,4.92s1.15,1,2.21.63C33,34.47,39.81,31.67,42.4,34.83Zm-5-13.95a29.3,29.3,0,0,1-8.23.55L35,20.27l-5.38-.11s-1.81-1.5-.19-2.73c0,0-4.5-1.76-3.19-2.53a6.5,6.5,0,0,1,2.54-1.11s-1.9,1.05-1,1.61C29.21,16.77,38.87,20.12,37.42,20.88Zm3,4.19s-.75-.8.32-1.77a5.39,5.39,0,0,1,2.67-.72s-3.49,1.06-2.5,1.75a9.82,9.82,0,0,0,3.72,1.31S41.33,26,40.4,25.07Zm2.68-.66a.47.47,0,0,1,0-.73s2.06-1,3.51-.34A13.21,13.21,0,0,1,48.42,26,16,16,0,0,0,43.08,24.41Z" style="fill: #bf1718"/>
        <path d="M31.83,18.67a1,1,0,0,1,.65-.11c.28.1.94.33,1,.61s.1.55-.09.55a5.72,5.72,0,0,1-1.22-.09,2.17,2.17,0,0,1-.2-.51l.83.05A3.2,3.2,0,0,0,31.83,18.67Z" style="fill: #ba1613"/>
        <path d="M30.67,17.53s-2.62.74-.54,2a12.24,12.24,0,0,0,1.71.08c0-.08-.15-.53-.08-.53s1,.1,1,.06a4.56,4.56,0,0,0-.92-.52.81.81,0,0,1,.49-.21A4.9,4.9,0,0,0,30.67,17.53Z" style="fill: #fff"/>
        <path d="M58.71,5.24s.11,10.21-6.18,17.61a61.33,61.33,0,0,1-5.72-3.13,2.08,2.08,0,0,1-.11-2.52C49.26,17.2,56.92,8.55,58.71,5.24Z" style="fill: #bf1718"/>
        <path d="M26.83,1.85a23.09,23.09,0,0,0-6,2.44c-3.28,6.4,3.47,8.34,3.47,8.34,2.63,1.07,1.6-1.06,1.6-1.06C25.12,4.48,26.83,1.85,26.83,1.85Zm-3.3,2.52s-.87,5,.88,7.08C24.41,11.45,18.39,8.22,23.53,4.37Z" style="fill: #bf1718"/>
        <path d="M35.38,29.31l2.12-.07a3.75,3.75,0,0,0,.24,1.64S34.71,31.72,35.38,29.31Z" style="fill: #f9f9f9"/>
        <path d="M38.12,29.23l2-.1a2.9,2.9,0,0,0,.18,1.28L38,30.76Z" style="fill: #f9f9f9"/>
        <polygon points="40.63 29.16 42.08 30.05 40.63 30.31 40.63 29.16" style="fill: #f9f9f9"/>
      </g>
    </g>
  </g>
</svg>
