<svg xmlns="http://www.w3.org/2000/svg" viewBox="0 0 49.25 60">
  <title>24</title>
  <g id="Layer_2" data-name="Layer 2">
    <g id="Layer_1-2" data-name="Layer 1">
      <g id="_24" data-name="24">
        <g>
          <path d="M47.84,31.92s-4,5.55-8.42,8.36l2.43.77s-5.24,7-13.55,8.41V11.92a8.46,8.46,0,0,0,3.22-6.81S31.6,0,25.1,0c0,0-7,0-6,6.75a9.62,9.62,0,0,0,3.38,5.35V49.46S14.94,48.58,9,41l2.37-.63a48.8,48.8,0,0,1-8.41-8.44S2.62,39.31,4.36,44.5l1.79-1.74A35.13,35.13,0,0,0,25.41,60a33.65,33.65,0,0,0,19.2-17.34l1.79,1.82S48.35,39.8,47.84,31.92ZM27.75,6.84S27,9.55,25.3,9.59h0c-.16,0-1.58-.08-2.45-2.86a2.63,2.63,0,0,1,.24-2,2.6,2.6,0,0,1,2.08-.92h.1a3,3,0,0,1,2.25.86A2.54,2.54,0,0,1,27.75,6.84Z" style="fill: #00170c"/>
          <path d="M26.38,13.18S33.64,8.34,40.09,7c.56-.1,1.75-.29,1.07.84a9.56,9.56,0,0,0-1.57,5l.33,5.8a9.67,9.67,0,0,1,2.57,3s5.7.55,6.21.66c0,0,1.07.28.22.72a40.47,40.47,0,0,1-5.44,1.36s1.7,6.33-4.39,12.36a12,12,0,0,1-2.25,5.71s-1,1.9-1.09.14c0,0,0-2.19-.58-2.5a29.81,29.81,0,0,1-6.85,3.36c0,.21-.06-9.15-.06-9.15l2.47-1a3.84,3.84,0,0,0-2.41-3.92,19.19,19.19,0,0,0-5.75-1A25.22,25.22,0,0,1,18.25,28a44.35,44.35,0,0,1-8.47.71,25.94,25.94,0,0,0-2.64.27c-.5.12-2.64.71-1.14-.95a15.18,15.18,0,0,1,4.58-2.53S2.79,22,1.16,14.53c0,0-1.82-4.4-.9-7.42.29-.65.63-2.47,3.56-1.5a106.38,106.38,0,0,0,18.71,7S24.2,12.91,26.38,13.18Z" style="fill: #00170c"/>
          <path d="M12.86,33.57s8.83,6,2.66,17.26a11.52,11.52,0,0,0,3.2-2.46s2.56-3.1,3.82-3.55V40.29s-.87.39-1.72-.82c0,0-2.74-4.77-5.76-5.35A14.09,14.09,0,0,0,12.86,33.57Z" style="fill: #00170c"/>
        </g>
        <g>
          <g>
            <circle cx="11.7" cy="12.39" r="0.13" style="fill: #fffffb"/>
            <circle cx="12.51" cy="11.74" r="0.25" style="fill: #fffffb"/>
          </g>
          <polygon points="2.33 13.08 2.21 14.09 2.7 13.96 2.33 13.08" style="fill: #fffdff"/>
          <polygon points="3.37 12.97 3.1 13.88 3.53 13.89 3.37 12.97" style="fill: #fff"/>
          <polygon points="4.45 13.93 4.45 12.97 4.04 13.87 4.45 13.93" style="fill: #efeee9"/>
          <polygon points="5.38 13.2 5.37 14.02 4.92 13.96 5.38 13.2" style="fill: #efeee9"/>
          <polygon points="6.53 13.43 6.48 14.28 6.05 14.12 6.53 13.43" style="fill: #f0f0f7"/>
          <polygon points="7.58 13.88 7.57 14.56 7.14 14.38 7.58 13.88" style="fill: #fff1ff"/>
          <polygon points="8.7 14.3 8.61 14.92 8.24 14.71 8.7 14.3" style="fill: #f9faf6"/>
          <polygon points="9.67 14.77 9.59 15.29 9.17 15.03 9.67 14.77" style="fill: #f2f2f0"/>
          <polygon points="10.62 15.2 10.57 15.67 10.22 15.43 10.62 15.2" style="fill: #f2f2f0"/>
          <polygon points="11.44 15.81 11.44 16.05 11.23 15.96 11.44 15.81" style="fill: #f2f2f0"/>
          <polygon points="11.09 15.19 11.06 15.53 11.27 15.43 11.09 15.19" style="fill: #f2f2f0"/>
          <polygon points="10.23 14.52 10.05 15.1 10.6 14.82 10.23 14.52" style="fill: #f2f2f0"/>
          <polygon points="9.38 13.88 9.18 14.59 9.8 14.24 9.38 13.88" style="fill: #f2f2f0"/>
          <polygon points="8.41 13.24 8.2 14.04 8.94 13.58 8.41 13.24" style="fill: #f9faf6"/>
          <polygon points="7.42 12.63 7.16 13.48 7.97 12.99 7.42 12.63" style="fill: #f9faf6"/>
          <path d="M6.35,12.06l-.26.82.81-.53S6.43,12.08,6.35,12.06Z" style="fill: #f9faf6"/>
          <path d="M5.13,11.51l-.08.85.62-.63A5.81,5.81,0,0,0,5.13,11.51Z" style="fill: #f9faf6"/>
          <polygon points="4.02 11.14 4.04 12.03 4.54 11.27 4.02 11.14" style="fill: #f9faf6"/>
          <polygon points="3.4 11 3.14 11.91 2.85 10.99 3.4 11" style="fill: #f9faf6"/>
          <path d="M2.23,11.11,2.17,12s-.4-.59-.31-.67A1.59,1.59,0,0,1,2.23,11.11Z" style="fill: #f9faf6"/>
          <path d="M1.66,12l.22,1S1.41,12.8,1.66,12Z" style="fill: #f9faf6"/>
        </g>
        <path d="M2.1,14.09l.23-1.21.37,1H3l.35-1.23.25,1.18H4l.48-1,.1,1.08.34,0,.5-.92.07,1,.6.1.54-.86,0,1,.58.14.47-.64v.83l.64.09.46-.47,0,.7.41.16.6-.38,0,.62.53.16.45-.34v.51l.46.27.33-.19,0,.36,1.07.51a11.17,11.17,0,0,0-1.27-1.14l-.28.18v-.45l-.4-.34-.58.35.15-.67-.3-.22-.82.51.22-.94-.37-.24-.81.52.2-1L8,13l-.88.58.27-.94-.43-.27-.89.58.27-.9-.61-.31L5,12.48l.06-1-.51-.15L4,12.21v-1.1l-.5-.1-.33,1.1L2.82,11l-.57,0v1.09l-.39-.61a.17.17,0,0,0-.23.17c0,.13.28,1.45.28,1.45l-.19-.05A4.37,4.37,0,0,0,2.1,14.09Z" style="fill: #8e1005"/>
        <g>
          <path d="M5.92,28.67s1-1.41,5.24-2.92c0,0,5.58,1.95,5.07,2C16.23,27.77,7.25,28.31,5.92,28.67Z" style="fill: #52b9dd"/>
          <path d="M26.89,13.38s6.83-4.81,14-6.07c0,0-2.25,1.41-1.66,8.44,0,0,.54,2.33-1.74,1.28A29.62,29.62,0,0,0,26.89,13.38Z" style="fill: #52b9dd"/>
          <g>
            <path d="M14.24,34.25s6.85,5.53,2.37,15.45a29.53,29.53,0,0,0,2.29-2,17.56,17.56,0,0,1,2.76-3.19,5.77,5.77,0,0,0,.85-1.93c0-.58,0-1.5,0-1.5s0-.47-.86-.45c0,0-.37.33-2.71-3.15C18.93,37.51,16.9,34.68,14.24,34.25Z" style="fill: #52b9dd"/>
            <path d="M47.33,22.51c-18.29-2.07-26.5,1.58-26.5,1.58,4.3.95,6.68,1.64,6.68,1.64-1.23-.17-6.6-1.13-6.6-1.13-.91-.22-1.72-.71.73-1.28,7.72-2.72,20.29-1.75,20.29-1.75-3.41-5.71-15.34-7.79-15.34-7.79-2.7-.46-5.77-1.28-5.77-1.28-1.89-.38-7.06-2.22-7.06-2.22-2.88-.9-10-4.22-10-4.22C-.11,4.41.43,9.9.43,9.9c.61-.74.71.07.71.07-1.47-.06.48,4.36.48,4.36C-.56,8,6.1,11.42,6.1,11.42c5,2.15,9.05,7.32,9.05,7.32-9.27-6.12-13.53-4-13.53-4C4.49,24.76,17.1,27.32,17.1,27.32a63.28,63.28,0,0,0,7.91.83,8.16,8.16,0,0,1,3.38.83c6,3,.37,8.54.37,8.54a1.59,1.59,0,0,0-.46.93s0,2.32,0,3.38,1.88.36,2.16.29A17,17,0,0,0,34.33,40a.43.43,0,0,0,.06-.71L36,38.18l-.84,1.15a4.07,4.07,0,0,1,1,3.33c2.74-3.48,2.51-6.37,2.51-6.37a2.38,2.38,0,0,1-1.1.54,22.65,22.65,0,0,0,2.84-3.3,7.53,7.53,0,0,1-1.23,2.15l0,.43C44.64,30.33,43,24.58,43,24.58c-6.62,1.64-7.93,4.91-7.93,4.91a6.2,6.2,0,0,0-1.84-1.89,3,3,0,0,1,1.87,1C37.94,24.45,47.38,23,47.38,23,49.24,22.63,47.76,22.61,47.33,22.51ZM4.59,10.16s-.34-.9.49-.59a1.16,1.16,0,0,1,.76,1S5.17,9.55,4.59,10.16Zm8.15,1.32c.34,1.08-.24,1.35-.24,1.35,1,.21.82.73.82.73A3.86,3.86,0,0,0,12,13c-1.23-.34-1.2-1.06-1.2-1.06l.51.43a7.42,7.42,0,0,1,.09-.91c-1.43.28-1.58-.8-1.58-.8a1.88,1.88,0,0,0,.7.38c.13,0,2.54,0,2.54,0a1.43,1.43,0,0,1,1.24,1.11A2.41,2.41,0,0,0,12.74,11.48Zm9,11.47a8.94,8.94,0,0,0-1-6.19A5,5,0,0,1,21.74,23Zm-1-.34a9.26,9.26,0,0,0-1-6.22C22.85,19.64,20.74,22.61,20.74,22.61Zm-1.91-.8a9,9,0,0,0-1.06-6.28A5.09,5.09,0,0,1,18.83,21.81Zm0-5.77c3.17,3.28.89,6.11.89,6.11A8.67,8.67,0,0,0,18.79,16Z" style="fill: #52b9dd"/>
          </g>
        </g>
        <g>
          <path d="M22.76,11.76l.17.13v.75c.62.12,1.9.35,3.45.54,0,0,.56-.38,1.51-.94v-.53l.17-.13a8.09,8.09,0,0,0,3.05-6.45v0A4.81,4.81,0,0,0,29.78,2,6.34,6.34,0,0,0,25.1.41s-3,0-4.58,1.9a5.24,5.24,0,0,0-1,4.37A9.29,9.29,0,0,0,22.76,11.76ZM25.1,3.37s3.94-.22,3,3.56c0,0-.81,3-2.83,3.07,0,0-1.85.18-2.89-3.15C22.42,6.85,21.44,3.63,25.1,3.37Z" style="fill: #727272"/>
          <path d="M40.36,40.15l2.17.68-.35.46c-.22.29-5.44,7.11-13.81,8.58l-.48.08V29.25a22.41,22.41,0,0,0-5-.81V49.92l-.46-.05c-.32,0-7.83-1-13.83-8.63l-.38-.49,2.18-.58a51.23,51.23,0,0,1-7.13-7.06A40.64,40.64,0,0,0,4.55,43.74l1.74-1.69.24.55a35,35,0,0,0,18.89,17A33.67,33.67,0,0,0,44.24,42.48l.25-.53.41.42,1.34,1.35a31.68,31.68,0,0,0,1.25-10.66A37,37,0,0,1,40.36,40.15Z" style="fill: #727272"/>
        </g>
      </g>
    </g>
  </g>
</svg>
