<svg xmlns="http://www.w3.org/2000/svg" viewBox="0 0 60 60">
  <title>25</title>
  <g id="Layer_2" data-name="Layer 2">
    <g id="Layer_1-2" data-name="Layer 1">
      <g id="_25" data-name="25">
        <circle cx="30" cy="30" r="30" style="fill: #f60000"/>
        <path d="M29.86,11.58A19.08,19.08,0,0,0,23.27,13a32.84,32.84,0,0,0-3.84-9.84c-4.8,10.07-3.38,15.28-3.38,15.28l-13.52,11L14.9,38.78c1.15,9.82,9.42,15.61,14.9,16.95a.49.49,0,0,0,.17,0c5.48-1.34,13.76-7.13,14.91-16.95l12.36-9.35-13.51-11s1.42-5.21-3.38-15.28A32.55,32.55,0,0,0,36.51,13a16,16,0,0,0-6.6-1.42" style="fill: #000003"/>
        <g>
          <path d="M28.21,42.3c-4.5-1.76-4.52-3.56-4.52-3.56l2.93,0c-2-12.79-10-18.59-10-18.59L5.4,29.36,29.09,47.25Zm-13-13s7.28-2.56,8.46,6.77C23.71,36,16.23,37.84,15.25,29.25Z" style="fill: #e3ac01"/>
          <path d="M30.6,47.17,54.29,29.29,43.06,20.12s-8,5.8-10,18.59l2.93,0s0,1.8-4.52,3.55ZM36,35.94c1.19-9.33,8.46-6.77,8.46-6.77C43.47,37.77,36,35.94,36,35.94Z" style="fill: #e3ac01"/>
        </g>
      </g>
    </g>
  </g>
</svg>
