<svg xmlns="http://www.w3.org/2000/svg" viewBox="0 0 59.64 60">
  <title>26</title>
  <g id="Layer_2" data-name="Layer 2">
    <g id="Layer_1-2" data-name="Layer 1">
      <g id="_26" data-name="26">
        <path d="M59.62,26.87l-2.06-1.06A29.81,29.81,0,0,1,58.69,40a17.73,17.73,0,0,0-2-2.71,52.07,52.07,0,0,1-.77,6.37A28.82,28.82,0,0,1,54,49.79a33.38,33.38,0,0,0-1.57-4.23,27.25,27.25,0,0,1-4.5,8.09c-.2-.76-.37-1.47-.57-2.17a10.42,10.42,0,0,0-1.36-3,3.88,3.88,0,0,0-1.4-1.3,2.12,2.12,0,0,0-2.86.85,10.21,10.21,0,0,0-.63,1.39,6.24,6.24,0,0,1-1.61,2.41.44.44,0,0,0-.19.37c-.06,3.61-2.17,5.54-5.4,6.56a30.83,30.83,0,0,0-3.38,1.07,1.6,1.6,0,0,1-1.4,0c-1.29-.49-2.63-.85-3.94-1.28a8.74,8.74,0,0,1-2-1,6.05,6.05,0,0,1-2.79-5.16.84.84,0,0,0-.31-.68,5.85,5.85,0,0,1-1.48-2.25A14,14,0,0,0,18,48.17a2.17,2.17,0,0,0-3.4-.7,5.59,5.59,0,0,0-1.54,2,17.36,17.36,0,0,0-1.31,4.17,27.32,27.32,0,0,1-4.53-8.11A29.7,29.7,0,0,0,5.68,49.8,35.27,35.27,0,0,1,3,37.33,16,16,0,0,0,1,40a27.07,27.07,0,0,1-.32-7.16,30,30,0,0,1,1.44-7.06L0,26.89a31.64,31.64,0,0,1,1.54-4.83,20.56,20.56,0,0,1,6.18-8.22A.66.66,0,0,0,8,12.92,19.44,19.44,0,0,1,7.74.25c.08-.27.15-.31.43-.18a49.7,49.7,0,0,0,5.26,2.37,7.2,7.2,0,0,0,4.88.31c.9-.32,1.74-.79,2.66-1.06a17.37,17.37,0,0,1,8.32-.33,7.69,7.69,0,0,0,2.35-.21,16.26,16.26,0,0,1,9,1.31,6.83,6.83,0,0,0,5.25.08A39.56,39.56,0,0,0,51.37.13c.36-.18.49-.17.61.26a19.49,19.49,0,0,1-.36,12.75c-.12.29,0,.41.18.57,4.27,3.35,6.63,7.84,7.84,13C59.65,26.77,59.63,26.8,59.62,26.87Z" style="fill: #111f41;fill-rule: evenodd"/>
        <path d="M16.05,29.55a4.47,4.47,0,0,1-1.93-2.76,9.29,9.29,0,0,1,.38-6.13,2.19,2.19,0,0,1,.17-.29A7.06,7.06,0,0,0,16,24.53,5.44,5.44,0,0,0,17.05,26,5.71,5.71,0,0,0,16.05,29.55Z" style="fill: #fafafb;fill-rule: evenodd"/>
        <g>
          <path d="M20.19,25.09a19.24,19.24,0,0,1,2.17-.78,8.69,8.69,0,0,0-.89,0c-.34,0-.34-.14-.23-.38a2.83,2.83,0,0,1,2.33-1.68c.32-.05.65-.06,1-.1a1.76,1.76,0,0,0-1.17-.35c-1.84-.1-3.6.89-3.92,2.48,0,.18-.15.23-.3.28A4.78,4.78,0,0,0,17.05,26,5.44,5.44,0,0,1,16,24.53a13.2,13.2,0,0,1-.3-2.73A3.56,3.56,0,0,1,17,18.9c.14.14.28.29.42.42a5.78,5.78,0,0,0,2.35,1.5l.63-.25a4.82,4.82,0,0,1,5.76,1.23,6.79,6.79,0,0,1,1.12,1.89c0-1.77-.41-3.34-2.14-4.34a10,10,0,0,1,2.13.15,2.71,2.71,0,0,0-1.64-1.32,7.5,7.5,0,0,1,1.55-3.1,7.12,7.12,0,0,0-2,1c-.24.16-.34.14-.46-.13A7.26,7.26,0,0,0,23,13.6a5.63,5.63,0,0,1,2.71-2,9.79,9.79,0,0,0-5,.82,6.81,6.81,0,0,0-2.71-.48s-.15,0-.09.11h0c-.18-.11-.31,0-.44.11a3.73,3.73,0,0,0-1.88,4.48.71.71,0,0,1,0,.62,7,7,0,0,0-.87,3.16c-.06.1-.13.19-.18.29a9.29,9.29,0,0,0-.37,6.13A4.42,4.42,0,0,0,16,29.55a5.72,5.72,0,0,0,.56,2.07c-1.45-.29-2.43.13-2.74,1.75a28.78,28.78,0,0,1-1.27-4.95c-.66.89-1.26,1.72-1.95,2.64a16.05,16.05,0,0,1,1.3-8.4c-.76.47-1.43.89-2.1,1.29-.16.1-.29.28-.52.23h0a18.27,18.27,0,0,1,1-3.16,29.61,29.61,0,0,1,1.87-3.84c.08-.14.24-.25.16-.44h0c.11,0,.09,0,.09-.1l.39-.67-.75.34A22.45,22.45,0,0,0,7.71,19.2,27.19,27.19,0,0,0,4.07,23a3.78,3.78,0,0,1,.61-1.48A20,20,0,0,1,10.13,15,29,29,0,0,0,17,7.56a1.57,1.57,0,0,0,.32-.66c-.15-.05-.21.06-.29.13a38.46,38.46,0,0,1-3.16,2.53.51.51,0,0,1-.74,0c-.6-.49-1.22-1-1.84-1.41-.28-.2-.24-.35,0-.58a2.52,2.52,0,0,0,.58-.72.54.54,0,0,0-.1-.16,10.59,10.59,0,0,1-2.54-4,41.54,41.54,0,0,0,4.39,2,9.24,9.24,0,0,0,4.35.66,4.12,4.12,0,0,0,1.58-.54,11.16,11.16,0,0,1,7.31-1.31c.83.1,1.66.23,2.5.34a9.37,9.37,0,0,0,2.58-.33,13.55,13.55,0,0,1,5.74.12c.15.05.33,0,.45.23A23.63,23.63,0,0,0,34.33,4a14.16,14.16,0,0,0-4.2,1.1,1,1,0,0,1-.71,0,11,11,0,0,0-5.8-.33l-.57.17-.73.31c2.6,0,5.12-.25,7.16,1.56a15.59,15.59,0,0,0-6.89-.43,6.1,6.1,0,0,0-2,.69l1,0a14.69,14.69,0,0,1,5.47.65,4.32,4.32,0,0,1,2.3,1.54c.06.08.14.14.11.29a12.11,12.11,0,0,0-9.78.24c.25,0,.49-.06.74-.07a17.88,17.88,0,0,1,6.51.61,6.82,6.82,0,0,1,1.54.68c.29.17.4.27,0,.5a5.33,5.33,0,0,0-1.86,1.8c.21,0,.31-.12.43-.2,2.36-1.48,3.09-1.48,5.43,0l.51.35a3.63,3.63,0,0,0-1-1.24c-.37-.32-.77-.6-1.24-1,2.88-1.69,6-1.65,9.1-1.51a12.3,12.3,0,0,0-9.74-.16,3.08,3.08,0,0,1,1.5-1.42,10.49,10.49,0,0,1,4-1A26.1,26.1,0,0,1,39,7a9.8,9.8,0,0,0-4.27-.85,15.51,15.51,0,0,0-4.35.7,1.37,1.37,0,0,1,.72-.56,11.15,11.15,0,0,1,8.61-.41A3.43,3.43,0,0,1,42.2,9.64a5.32,5.32,0,0,1-.43,1.62c-.08.2-.18.39-.26.59a9.24,9.24,0,0,0-2.66.53,9.94,9.94,0,0,0-5.06-.84c1.78,1,2.24,1.3,2.77,2.09a6,6,0,0,0-1.68,2.17c-.18.4-.32.4-.65.17a7.46,7.46,0,0,0-2-1,6.74,6.74,0,0,1,1.66,3.19,2.67,2.67,0,0,0-1.62,1.32,9.3,9.3,0,0,1,2.09-.16c-1.57,1.14-2.05,2.11-2.14,4.35.15-.06.16-.2.2-.32a4.92,4.92,0,0,1,6.78-2.78,1.56,1.56,0,0,0,.59.22,6.14,6.14,0,0,0,2.74-1.94,3.24,3.24,0,0,1,1.24,2.48,9.9,9.9,0,0,1,0,1.54,5.71,5.71,0,0,1-.29,1.47c.3,0,.34-.22.42-.37a8.66,8.66,0,0,0,.92-2.85,12.59,12.59,0,0,0-.36-5.82c-.14-.45-.35-.88-.53-1.31,1.05.19,3.5,4.76,3.7,7l-1.47-1.17-.06-.06s0,0,0,.05,0,0,.08,0a12.4,12.4,0,0,0,.43,1.8,14.78,14.78,0,0,1,.25,4.44l-.94-1a10.72,10.72,0,0,1-1.68,5.26,12.38,12.38,0,0,0-.13-1.91,4.9,4.9,0,0,0-3.63-3.91c-.21-.06-.41-.08-.5-.38a3.34,3.34,0,0,0-2.9-2.28,3.31,3.31,0,0,0-2.24.29,10.18,10.18,0,0,1,1.6.19,2.75,2.75,0,0,1,1.79,1.45c.18.34.2.56-.29.53a1.87,1.87,0,0,0-.65.1,10.86,10.86,0,0,1,2.17.73,11.84,11.84,0,0,1-4.27,2.77,5,5,0,0,0-.27-4A13.21,13.21,0,0,1,34.79,26a4.11,4.11,0,0,1-.72,1.66c-.16.19-.28.2-.47,0s-.5-.83-.91-.84-.74.32-1.09.53a3.19,3.19,0,0,1-3.53,0c-.11-.07-.24-.12-.35-.18-.84-.44-.84-.44-1.5.28-.44.48-.44.48-.81-.09a4.22,4.22,0,0,1-.63-2.1c0-.43,0-.86-.05-1.28a4.78,4.78,0,0,0-.25,3.95c-.7-.37-1.41-.71-2.1-1.1A6.67,6.67,0,0,1,20.19,25.09Z" style="fill: #f94e02;fill-rule: evenodd"/>
          <path d="M29.84,44.66a7.4,7.4,0,0,0,.26-2c.06-.27.14-.34.39-.26a4.88,4.88,0,0,1,1.65.88.37.37,0,0,1,.13.47,4.59,4.59,0,0,1-1.12,1.9,1.72,1.72,0,0,1-2.62,0,5,5,0,0,1-1.36-3.05c0-.21,0-.34.28-.36.54,0,1.08-.08,1.63-.08.31,0,.49,0,.48.43s.06.85.08,1.28A1.56,1.56,0,0,0,29.84,44.66Z" style="fill: #9d0525;fill-rule: evenodd"/>
          <path d="M47.47,5.73a2.22,2.22,0,0,0-.34,1c-.09.4-.19.51-.58.23a18.3,18.3,0,0,0-4.13-2.24c.21,0,.42,0,.63,0a9.83,9.83,0,0,0,5.17-1L50,2.83a.77.77,0,0,1,.51-.15C50,4.24,49.26,5.49,47.47,5.73Z" style="fill: #f94e02;fill-rule: evenodd"/>
          <path d="M55.15,22.12a22,22,0,0,0-1.64-2.36c-1.28-1.54-2.81-2.84-4.21-4.25a31.16,31.16,0,0,1-2.79-3.07.12.12,0,0,1,.18,0c1.88,1.86,4,3.4,5.82,5.37a16.09,16.09,0,0,1,2.57,3.8C55.14,21.75,55.27,21.89,55.15,22.12Z" style="fill: #f94e02;fill-rule: evenodd"/>
        </g>
        <path d="M42.56,18.88a6.35,6.35,0,0,1-2.74,1.94.39.39,0,0,0,0-.15c-.32-.76,0-1.23.69-1.55.08,0,.14-.13.22-.18.25-.15.31-.56.65-.54A2,2,0,0,1,42.56,18.88Z" style="fill: #fafafb;fill-rule: evenodd"/>
        <path d="M54.61,32.67s-.06,0-.07,0c0-.22.07-.41.09-.61h0C54.62,32.24,54.73,32.47,54.61,32.67Z" style="fill: #f4d163;fill-rule: evenodd"/>
        <path d="M9.63,25.57l0-.06a.08.08,0,0,1,0,0Z" style="fill: #fdfdfd;fill-rule: evenodd"/>
        <path d="M4.08,23,4,23.12C4,23.06,4,23,4.08,23Z" style="fill: #f94e02;fill-rule: evenodd"/>
        <path d="M9.33,24.18l0,.05v0l0,0Z" style="fill: #f94e02;fill-rule: evenodd"/>
        <path d="M25.58,56l.05,0h-.1Z" style="fill: #fdfdfd;fill-rule: evenodd"/>
        <path d="M16,24.53a6.76,6.76,0,0,1-.44-7.32.74.74,0,0,0,0-.62,3.74,3.74,0,0,1,1.87-4.49c.14-.06.27-.21.45-.1-.12.21-.25.42-.36.64a3.41,3.41,0,0,0-.28,2.71c2-1.08,3.65-.54,5.22.76A9.43,9.43,0,0,1,24,17.87c.11.14.19.3.43.25a3.31,3.31,0,0,1,1.13.05,2.8,2.8,0,0,1,1.65,1.33,9.43,9.43,0,0,0-2.14-.15c1.73,1,2.13,2.57,2.14,4.34a6.56,6.56,0,0,0-1.12-1.89,4.81,4.81,0,0,0-5.75-1.23l-.64.24A1.35,1.35,0,0,0,18.88,19a.64.64,0,0,1-.25-.24c-.3-.51-.72-.41-1.14-.22a1.28,1.28,0,0,0-.54.34,3.55,3.55,0,0,0-1.27,2.9A13.2,13.2,0,0,0,16,24.53Zm4.16-7.25c.1,0,.19,0,.29.06A.51.51,0,0,0,21,17c.12-.3-.1-.41-.31-.51s-.38-.18-.57-.27a.82.82,0,0,0-1.07.2,1,1,0,0,0-.28,1.08A2.53,2.53,0,0,0,20,18.88a2.58,2.58,0,0,0,2.79-.19c.11-.1.33-.18.14-.39a6.35,6.35,0,0,0-.92-.87c-.26.65-.58.91-1.05.86S20.21,17.9,20.14,17.28Z" style="fill: #111f41;fill-rule: evenodd"/>
        <path d="M38.86,12.37a5.13,5.13,0,0,1,1.33.92,4.77,4.77,0,0,0-2.94,1.18c-.24-.29-.46-.57-.68-.85-.53-.78-1-1.13-2.77-2.08A10,10,0,0,1,38.86,12.37Z" style="fill: #111f41;fill-rule: evenodd"/>
        <path d="M23,13.59c-.22.29-.4.71-.68.8s-.54-.35-.83-.52a6.17,6.17,0,0,0-2.12-.58,5.16,5.16,0,0,1,1.32-.92,9.79,9.79,0,0,1,5-.81A5.72,5.72,0,0,0,23,13.59Z" style="fill: #111f41;fill-rule: evenodd"/>
        <path d="M46.18,19.82s0,0-.07,0a.06.06,0,0,1,0,0l.06.06Z" style="fill: #111f41;fill-rule: evenodd"/>
        <path d="M18,11.9c0,.06,0,.1-.1.1S17.9,11.92,18,11.9Z" style="fill: #111f41;fill-rule: evenodd"/>
        <path d="M12.39,16.75c0-.07,0-.09.1-.1S12.5,16.79,12.39,16.75Z" style="fill: #111f41;fill-rule: evenodd"/>
        <g>
          <path d="M39.36,16.22a.82.82,0,0,1,1,.15.94.94,0,0,1,.34,1.06A2.47,2.47,0,0,1,39,19.1a2.44,2.44,0,0,1-2.33-.47c-.13-.1-.21-.2,0-.36s.56-.59.87-.92c.27.74.61,1,1.12.92s.74-.41.74-1C39.91,16.8,39.91,16.46,39.36,16.22Z" style="fill: #f4d163;fill-rule: evenodd"/>
          <path d="M20.14,17.28c.07.62.35.95.82,1s.79-.21,1.05-.86a6.35,6.35,0,0,1,.92.87c.19.21,0,.29-.14.39a2.58,2.58,0,0,1-2.79.19,2.53,2.53,0,0,1-1.21-1.38,1,1,0,0,1,.28-1.08.82.82,0,0,1,1.07-.2C19.6,16.5,19.6,16.77,20.14,17.28Z" style="fill: #f4d163;fill-rule: evenodd"/>
        </g>
        <g>
          <path d="M4.07,23A27.26,27.26,0,0,1,7.72,19.2a21.73,21.73,0,0,1,4.41-2.88l.75-.34-.39.67c-.06,0-.1,0-.09.1h0A10.84,10.84,0,0,0,11,18.51,24.82,24.82,0,0,0,7.1,27.16c0,.13,0,.26-.08.48a11.48,11.48,0,0,1,2.61-2.07h0a4.53,4.53,0,0,1-.19,1.15,23.42,23.42,0,0,0,.45,7.42.57.57,0,0,0,.07.12,20,20,0,0,1,1.89-2.71A17.88,17.88,0,0,0,15,39.13c.1-.23,0-.4,0-.58L14.93,38a6.07,6.07,0,0,1,.14-2.4,1.3,1.3,0,0,1,2.17-.82,5.38,5.38,0,0,1,1.9,2.3,10.11,10.11,0,0,1,1,4.65c0,.16,0,.32,0,.56.34-.22.66-.39.94-.61s.38-.12.54.11a5.77,5.77,0,0,1,.9,3c.05,1,.05,2,.11,3a3.31,3.31,0,0,0,1,2.29,11.75,11.75,0,0,0,1.76,1.44.51.51,0,0,0,.05-.44c-.13-.55.11-.78.63-.94a11.48,11.48,0,0,1,8.64.77A4.32,4.32,0,0,1,36.18,52a1.9,1.9,0,0,1,0,2.61A6.36,6.36,0,0,1,34,56.2a4.36,4.36,0,0,0,.06-2.6c-.22.15-.18.4-.23.58a3.63,3.63,0,0,1-2,2.42L30,57.43a.4.4,0,0,1-.37,0c-.5-.25-1-.48-1.52-.71a4.05,4.05,0,0,1-2.22-2.52l-.09-.28c0-.09-.05-.19-.11-.39A5.92,5.92,0,0,0,25.58,56l-.06.05A4.06,4.06,0,0,1,23,51.16a.29.29,0,0,0-.15-.39,5.49,5.49,0,0,1-2.58-3.44c-.6-2.41-3.35-3.26-5.25-2.68a5.89,5.89,0,0,0-3.46,3.12c-.14.26-.26.53-.38.8-1.12-1.18-2.57-5.38-3.25-9a17.23,17.23,0,0,0-1.68,3.32A38.2,38.2,0,0,1,5,31.8a19,19,0,0,0-1.81,2c0-4,.63-7.73,3-11a5.38,5.38,0,0,0-2,.41c-.1,0-.25.19-.19-.09L4.08,23Z" style="fill: #fdfdfd;fill-rule: evenodd"/>
          <path d="M20.19,25.09a6.6,6.6,0,0,0,2.2,1.72c.68.39,1.4.73,2.1,1.09a3.84,3.84,0,0,0,1.65,1.44,5.51,5.51,0,0,1,3.13,4.56c0,.18,0,.27-.19.27a9,9,0,0,0-2.74.77,5.22,5.22,0,0,1-4.53-.16l-.24-.16a12.85,12.85,0,0,0,4-.9,5,5,0,0,0-1.17,0,9.13,9.13,0,0,1-4.05-.46A4.48,4.48,0,0,1,18,31.35a17.69,17.69,0,0,0,5.58.74c-.05-.23-.23-.18-.37-.2a13.71,13.71,0,0,1-3.56-1,4.41,4.41,0,0,1-1.49-1,2.07,2.07,0,0,1-.35-2.38,8.49,8.49,0,0,0,4.61,2.38c-.13-.25-.32-.25-.46-.32a7.27,7.27,0,0,1-2.3-1.42A1.73,1.73,0,0,1,20.19,25.09Z" style="fill: #fafafb;fill-rule: evenodd"/>
          <path d="M35.2,27.87a11.93,11.93,0,0,0,4.27-2.77A1.69,1.69,0,0,1,40.18,28a7.82,7.82,0,0,1-3,1.8c1,.15,3-.81,4.68-2.26a2,2,0,0,1-.37,2.39,6.65,6.65,0,0,1-3.14,1.58,13.31,13.31,0,0,1-2.18.41c-.12,0-.24,0-.26.18a17.52,17.52,0,0,0,5.71-.73,2.63,2.63,0,0,1-.77,1,6.44,6.44,0,0,1-4.13,1.41c-.86,0-1.71-.12-2.69-.09a12.48,12.48,0,0,0,4.07.92,4.61,4.61,0,0,1-2.21.76A6,6,0,0,1,33.43,35a9.59,9.59,0,0,0-2.88-.81c-.21,0-.17-.12-.15-.26a5.46,5.46,0,0,1,3.08-4.54A3.64,3.64,0,0,0,35.2,27.87Z" style="fill: #fafafb;fill-rule: evenodd"/>
          <path d="M54.61,32.67a16.53,16.53,0,0,1-.13,2.81,74.24,74.24,0,0,1-1,7.47,19.7,19.7,0,0,0-1.66-3.31,23.37,23.37,0,0,1-3.18,9c-.18-.11-.2-.28-.27-.43a6.81,6.81,0,0,0-4-3.52,3.61,3.61,0,0,0-4.64,1.79,5,5,0,0,1-.09-.54,21.1,21.1,0,0,1,.27-4.49c0-.29.18-.37.45-.42,3.11-.52,5.52.72,7.52,3,.18.21.34.43.55.68a24.51,24.51,0,0,0,2.77-7.5,21.13,21.13,0,0,1,2,3.2,56.28,56.28,0,0,0,1.28-7.76S54.56,32.71,54.61,32.67Z" style="fill: #fafafb;fill-rule: evenodd"/>
          <path d="M33.92,18.18A6.75,6.75,0,0,0,32.26,15a7.15,7.15,0,0,1,2,1c.33.24.47.24.65-.16a6.06,6.06,0,0,1,1.68-2.18c.22.28.44.56.68.85a4.77,4.77,0,0,1,2.94-1.18,5.13,5.13,0,0,0-1.33-.92,9.59,9.59,0,0,1,2.66-.53,4,4,0,0,1,.91,3,.91.91,0,0,1-.16.47,4.12,4.12,0,0,0-4.86.51,8.4,8.4,0,0,0-1.86,2,.63.63,0,0,1-.65.31A4.67,4.67,0,0,0,33.92,18.18Z" style="fill: #fafafb;fill-rule: evenodd"/>
          <path d="M48.46,19.73A10.78,10.78,0,0,1,50,25.51l-1-.67a14.17,14.17,0,0,1-.59,5.5l-1.06-.85a9.24,9.24,0,0,1-2.24,3.11,10,10,0,0,0,1.73-4.79l1,1.1a16.88,16.88,0,0,0,.25-3.12c0-1-.12-2-.22-3.09l1.35.92A37.6,37.6,0,0,0,48.46,19.73Z" style="fill: #fafafb;fill-rule: evenodd"/>
          <path d="M9.2,2.68a10.73,10.73,0,0,0,2.55,4,.83.83,0,0,1,.09.16A3.18,3.18,0,0,1,9.53,5.7a9.67,9.67,0,0,0,.29,2.09A8.39,8.39,0,0,0,11.18,11c.19.25.1.34-.11.48-.81.53-.82.54-1.21-.35a13.59,13.59,0,0,1-1-6.93A3.48,3.48,0,0,1,9.2,2.68Z" style="fill: #fafafb;fill-rule: evenodd"/>
          <path d="M24.05,42.42a10.49,10.49,0,0,1-1.62-5.59.54.54,0,0,1,.52-.58,2.6,2.6,0,0,1,1.75.33c.17.09.27.19.18.43a13.29,13.29,0,0,0-.79,5.23S24.08,42.32,24.05,42.42Z" style="fill: #fafafb;fill-rule: evenodd"/>
          <path d="M35.56,42.39a12.82,12.82,0,0,0-.84-5.52c-.16-.42,0-.52.31-.6a2.52,2.52,0,0,1,1.22,0,1.14,1.14,0,0,1,1,1.37,11,11,0,0,1-1.48,4.6C35.7,42.32,35.67,42.42,35.56,42.39Z" style="fill: #fafafb;fill-rule: evenodd"/>
          <path d="M32.86,38a2.6,2.6,0,0,1-.66-1c-.1-.23-.2-.34-.41-.12s-.43.23-.63,0-.33-.16-.5,0-.38.26-.58,0l0,0c-.35-.36-.52.38-.85.14s-.49-.41-.77,0A.26.26,0,0,1,28,37c-.3-.34-.42-.15-.56.16a1.91,1.91,0,0,1-.61.83,3.64,3.64,0,0,1-.2-1.45c.07-.58.28-.74.86-.66a17.91,17.91,0,0,0,1.92.22,15,15,0,0,0,2.76-.2c.69-.11.91.07.94.77A3.71,3.71,0,0,1,32.86,38Z" style="fill: #fafafb;fill-rule: evenodd"/>
          <path d="M47.47,5.73c1.79-.24,2.55-1.49,3-3.05a13.13,13.13,0,0,1-.47,8s-.07.06-.18.17c.08-.43.16-.77.2-1.11a12.1,12.1,0,0,0,0-3.4c0-.27-.08-.36-.39-.28A3.11,3.11,0,0,1,47.47,5.73Z" style="fill: #fafafb;fill-rule: evenodd"/>
          <path d="M25.54,43.66c.16.61.28,1.11.43,1.61A6.2,6.2,0,0,0,27,47.42a1.13,1.13,0,0,1,0,1.26.87.87,0,0,1-.87.55,1,1,0,0,1-.86-.77A7.41,7.41,0,0,1,25.54,43.66Z" style="fill: #fafafb;fill-rule: evenodd"/>
          <path d="M34.15,43.74A7.73,7.73,0,0,1,34.49,48a2.4,2.4,0,0,1-.28.79.88.88,0,0,1-1.59,0,1.21,1.21,0,0,1,.08-1.39A7.57,7.57,0,0,0,34,44.15.61.61,0,0,1,34.15,43.74Z" style="fill: #fafafb;fill-rule: evenodd"/>
          <path d="M31.09,48.26a9.69,9.69,0,0,0-2.69,0c-.18,0-.38.07-.44-.18a.65.65,0,0,1,.25-.65c.19-.19.35-.07.46.07s.36.24.54,0a2.3,2.3,0,0,1,1.32.09c.13.16.21.2.38,0s.26-.39.52-.18a.62.62,0,0,1,.28.69C31.6,48.42,31.32,48.22,31.09,48.26Z" style="fill: #fafafb;fill-rule: evenodd"/>
          <path d="M39.36,16.22c.55.24.55.58,0,1.06a.71.71,0,0,1-.57,0,.52.52,0,0,1-.31-.42c0-.2.12-.25.25-.32Z" style="fill: #fafafb;fill-rule: evenodd"/>
          <path d="M25.58,18.18a3.08,3.08,0,0,0-1.13-.06c-.24.05-.32-.11-.43-.25a9.43,9.43,0,0,0-1.58-1.76c-1.57-1.3-3.26-1.84-5.22-.76a3.41,3.41,0,0,1,.28-2.71c.11-.22.24-.43.36-.64h0c.07,0,.09,0,.1-.1a6.9,6.9,0,0,1,2.7.47,5.16,5.16,0,0,0-1.32.92,6,6,0,0,1,2.12.58c.3.17.63.59.83.52s.46-.51.68-.8a7.27,7.27,0,0,1,1.73,2.32c.12.27.23.29.46.13a7.12,7.12,0,0,1,2-1A7.62,7.62,0,0,0,25.58,18.18Z" style="fill: #fafafb;fill-rule: evenodd"/>
          <path d="M17,18.9a1.28,1.28,0,0,1,.54-.34c.42-.19.84-.29,1.14.22a.64.64,0,0,0,.25.24,1.35,1.35,0,0,1,.84,1.79,5.72,5.72,0,0,1-2.35-1.49Z" style="fill: #fafafb;fill-rule: evenodd"/>
          <path d="M20.14,17.28c-.54-.51-.54-.78,0-1.06.19.09.39.17.57.27s.43.21.31.51a.51.51,0,0,1-.59.34Z" style="fill: #fafafb;fill-rule: evenodd"/>
        </g>
      </g>
    </g>
  </g>
</svg>
