<svg xmlns="http://www.w3.org/2000/svg" viewBox="0 0 58.11 60">
  <title>27</title>
  <g id="Layer_2" data-name="Layer 2">
    <g id="Layer_1-2" data-name="Layer 1">
      <g id="_27" data-name="27">
        <path d="M2.07,19.82a22.07,22.07,0,0,1,3.62-5.46c.65-.73,1.31-1.46,2-2.13a.75.75,0,0,0,.08-1.17c-.56-.75-1.15-1.48-1.67-2.26a6.45,6.45,0,0,1-1-5.56C5.58,1.47,6.76,1,8.45,1.65A14.32,14.32,0,0,1,12.25,4c.74.57,1.47,1.16,2.2,1.74a.65.65,0,0,0,.85.1,23.48,23.48,0,0,1,9.48-2.44c1.5-.12,3-.05,4.49-.06.11,0,.23-.05.27,0l-.8.94c.57,0,1.08.07,1.58.08a15.07,15.07,0,0,1,2.51.19.69.69,0,0,0,.71-.23,23.69,23.69,0,0,1,2.94-2.9,9.17,9.17,0,0,1,1.67-1c2-.85,3.56-.39,4.62,1.53a8.78,8.78,0,0,1,.72,7.62c-.12.32,0,.4.21.54,1.94,1.43,3.94,2.79,5.8,4.32a20.64,20.64,0,0,1,6.4,9.08A38.92,38.92,0,0,1,58,34.74c.1,1.69.1,3.38.11,5.07,0,.35-.08.47-.48.47a14.26,14.26,0,0,0-6.36,1.24c-.51.25-.53.44-.18.86.59.69,1.12,1.43,1.74,2.25a18.47,18.47,0,0,0-3.35.37,14.76,14.76,0,0,0-3.18,1c-.34.15-.37.3-.17.58.32.47.62,1,1,1.51a22.2,22.2,0,0,0-3.35-.33A12.22,12.22,0,0,0,35.9,49.9,5.38,5.38,0,0,0,33.78,56a6.25,6.25,0,0,1-.86-.43c-.48-.33-.77-.21-1.08.27a8.82,8.82,0,0,1-3,2.77A11.52,11.52,0,0,1,22.9,60a10.18,10.18,0,0,1-5.4-1.29,8.7,8.7,0,0,1-2.33-2c-.2-.25-.17-.35.07-.54a5.81,5.81,0,0,0,1.08-1c-.83-.44-1.63-.89-2.46-1.28-.38-.19-.33-.3-.07-.54A16.46,16.46,0,0,1,15,52.15a1.07,1.07,0,0,0,.35-1.28,7.18,7.18,0,0,0-3.14-4.43,2.28,2.28,0,0,0-3,.33c-.16.15-.25.3-.49.06A47.25,47.25,0,0,1,2.27,39.4,12,12,0,0,1,.35,29.61,18.67,18.67,0,0,1,2.8,24.45c.51-.84,1.09-1.63,1.58-2.48.69-1.18.27-2-1.1-2.15C2.89,19.78,2.49,19.82,2.07,19.82Z" style="fill: #060405;fill-rule: evenodd"/>
        <g>
          <path d="M33.77,7.07a12.06,12.06,0,0,0,3.49-1.26c.2-.1.4-.22.59-.33l.1.11a11.48,11.48,0,0,1-2,4c-.05.07-.16.12-.09.24a.31.31,0,0,0,.26.09h1.38c.31,0,.4.06.29.4a4.44,4.44,0,0,1-1,1.8c-.26.28-.35.38.08.61a14.11,14.11,0,0,1,3.32,2.36c.11.11.25.2.24.37a31.44,31.44,0,0,1,1.33,3.37,19.63,19.63,0,0,1,.94,7.41A16.49,16.49,0,0,1,38.42,36a2.11,2.11,0,0,0-.18.25c1.35-.47,2.46-1.18,3.75-1.71a10.65,10.65,0,0,1-1.92,3.87,13.74,13.74,0,0,1-7.86,5c-.16.05-.35.16-.48,0s0-.31,0-.48c.51-1.54,1.3-3,1.94-4.45A14.18,14.18,0,0,0,35.12,32a6.3,6.3,0,0,0-1.95-4.55,1.92,1.92,0,0,1,.17-.13,5.88,5.88,0,0,0,3.32-4.29,10.71,10.71,0,0,0,.1-4.68c-.53-2.54-1.67-4.57-4.37-5.33a11.94,11.94,0,0,0,0-1.47A2.85,2.85,0,0,0,29.9,9.15a14.5,14.5,0,0,0-4.11,0,30.91,30.91,0,0,1-3.72.2,13.65,13.65,0,0,0-4.63.63,10.28,10.28,0,0,0-5.56,4.78c-.12.19-.14.44-.43.59a17.52,17.52,0,0,1,2.15-4.28,9,9,0,0,1,3.24-3.24,13.78,13.78,0,0,1,4.08-1.39,11.1,11.1,0,0,1,1.81-.25c.27,0,.44,0,.21.34s-.42.62-.69,1C25.67,6.71,29,5.87,32.52,6.5l-1,1.78c.82-.28,1.35-.9,2.09-1.12l.13-.1Z" style="fill: #eb4614;fill-rule: evenodd"/>
          <path d="M9.19,33.35c.78-1.2,1.7-2.29,2.56-3.42.3-.4.62-.78.9-1.18a.81.81,0,0,1,.66-.38c.43,0,.63.16.52.59a19.4,19.4,0,0,0-.38,2.13,4.05,4.05,0,0,0,.27,1.85c.26-.72.51-1.45.77-2.18.4-1.13.81-2.25,1.21-3.38a1.45,1.45,0,0,1,1.82-1.07.5.5,0,0,0,.44-.08c-.36-.41-.72-.81-1.05-1.24a8.62,8.62,0,0,1-.75-1.14c-.77-1.48-.37-3.08,1.49-3.54-.61-.29-1-.3-2.3-.08A8.61,8.61,0,0,1,17,14.68a16.39,16.39,0,0,1,2.48-2.78,8.79,8.79,0,0,1,4.07-.5,9.82,9.82,0,0,1,1.51.22,13.73,13.73,0,0,1,1.55,4.76A9.92,9.92,0,0,1,26,20.9a4.49,4.49,0,0,0-3.62-.65c.09.26.35.23.54.3a2,2,0,0,1,1.39,2.08c-.06.76-.67,1.14-1.17,1.55a32.16,32.16,0,0,0-2.47,2.1,8.54,8.54,0,0,1,1.71-.1c.62,0,.92.29,1,.93a7,7,0,0,1-.17,2.07c.65-.22,1.1-.7,1.74-.82.81-.16,1.09.05,1.09.88a8.92,8.92,0,0,1-.1,2,2,2,0,0,0,0,.4,19.13,19.13,0,0,1,3.39-2.09,1.92,1.92,0,0,1,2.14,0,2.26,2.26,0,0,1,.78,1.54,11.16,11.16,0,0,1-2.23,2.11,15,15,0,0,1-7,2.93A10.57,10.57,0,0,1,22,35.59a3.72,3.72,0,0,0-3.85,0,3.07,3.07,0,0,1-2.47.27,5.07,5.07,0,0,1-.85-.47c-1.34-.79-1.68-.74-2.65.37-.16-.09-.33-.17-.49-.27A7.69,7.69,0,0,1,9.19,33.35ZM23.5,18.57a1.53,1.53,0,0,0,1.67-1,2,2,0,0,0-.64-2c-1.09-.9-2.42-.83-3.7-.87A5.12,5.12,0,0,0,17.55,16a2.75,2.75,0,0,0-1.15,1.52.72.72,0,0,0,.27.71c.21.22.41.11.62,0l.62-.3a4,4,0,0,1,4.28.09A2,2,0,0,0,23.5,18.57Z" style="fill: #eb4614;fill-rule: evenodd"/>
          <path d="M8.43,41.42c-2.81-1.63-5-3.8-5.78-7.05-.71-2.94,1.06-8,3.3-9.57a23.2,23.2,0,0,0-1.19,8.14L6.38,31C5.57,34.83,6.72,38.16,8.43,41.42Z" style="fill: #eb4614;fill-rule: evenodd"/>
        </g>
        <path d="M8.42,37.45c-.1-.07-.22-.13-.21-.32a.43.43,0,0,1,.34.24Z" style="fill: #f5f5f3;fill-rule: evenodd"/>
        <path d="M8.64,41.53l-.07.08a.39.39,0,0,1-.08-.1s0,0,0-.07Z" style="fill: #060405;fill-rule: evenodd"/>
        <path d="M33.78,7.06l-.12.1C33.68,7.1,33.68,7,33.78,7.06Z" style="fill: #f7f9f7;fill-rule: evenodd"/>
        <path d="M37.85,5.48l.16-.1a.14.14,0,0,1-.06.21Z" style="fill: #eb4614;fill-rule: evenodd"/>
        <g>
          <path d="M33.77,7.07A15.44,15.44,0,0,1,36.86,4,11.19,11.19,0,0,1,39,2.67c1.15-.59,2.38,0,2.29,1.64a5.66,5.66,0,0,1-.62,2.1,8.07,8.07,0,0,0,.84-.34c.55-.3.47.11.44.39a6.42,6.42,0,0,1-1.28,3.39A8.08,8.08,0,0,1,39.68,11c-.33.31-.24.45.09.66a47.22,47.22,0,0,1,5.76,4.18,18.83,18.83,0,0,1,5.71,7.22,25.73,25.73,0,0,1,1.66,7A37.78,37.78,0,0,1,53,36.4c0,.23-.08.46-.08.69s-.11.37-.39.45A22.79,22.79,0,0,0,45.35,41c-.35.25-.34.39,0,.68.53.52,1,1.09,1.59,1.72-.73,0-1.37,0-2,0a16.64,16.64,0,0,0-9.39,3.11,8.38,8.38,0,0,0-3,4.68c-.06.2-.11.4-.19.72l-1-1.63c-.31,1-.57,2-.94,2.91a6.16,6.16,0,0,1-5.32,4,16.15,16.15,0,0,1-2.41.11c-.46,0-.55-.17-.32-.55.12-.2.21-.41.35-.69-.65.33-1.21.62-1.78.89-.26.13-.54.23-.77-.08s.06-.46.18-.65a12.13,12.13,0,0,1,.78-1c-.75.23-1.36.4-2,.61s-.71-.29-.94-.6a.72.72,0,0,1,0-1c.19-.22.42-.15.64-.1a19.94,19.94,0,0,0,6.12.22c3.21-.3,4.65-1.94,5.5-5.19.17-.67.22-1.38.34-2.15l1.3,2.09a11.2,11.2,0,0,1,4.49-5.2c1.37-.92,2.8-1.72,4.2-2.59a16,16,0,0,0,7.67-11.63,5.15,5.15,0,0,0,.1-1.22l-2.06,1.22A20,20,0,0,0,46.23,26a17.94,17.94,0,0,0-5.32-10.26c-.15-.14-.29-.33-.54-.27,0-.18-.13-.27-.23-.38a14.53,14.53,0,0,0-3.32-2.36c-.44-.23-.35-.32-.09-.6a4.48,4.48,0,0,0,1-1.81c.11-.34,0-.4-.29-.39H36.09c-.1,0-.19,0-.25-.09s0-.17.08-.23a11.61,11.61,0,0,0,2-4A.14.14,0,0,0,38,5.38l-.15.1c-.2.11-.39.23-.6.33A12.06,12.06,0,0,1,33.77,7.07Z" style="fill: #fff;fill-rule: evenodd"/>
          <path d="M26,20.9a9.9,9.9,0,0,0,.54-4.52A13.8,13.8,0,0,0,25,11.62c2.9.67,4,2.9,3.62,5.91a14.13,14.13,0,0,1-.36,1.81,14.54,14.54,0,0,0,4.1-6.29c2.7.76,3.84,2.79,4.37,5.33a10.71,10.71,0,0,1-.1,4.68,5.88,5.88,0,0,1-3.32,4.29,1.92,1.92,0,0,0-.17.13,4.51,4.51,0,0,0-1.63-.7,6.37,6.37,0,0,0,4.17-5.27,8.17,8.17,0,0,0-1-5.9,13.7,13.7,0,0,1-.89,2.88,7,7,0,0,1-5.06,4l-.34.06a4.08,4.08,0,0,1-1.17.19c-.46-.07-.29-.62-.48-.93A8.7,8.7,0,0,0,26,20.9Z" style="fill: #fff;fill-rule: evenodd"/>
          <path d="M23.1,36.14a15,15,0,0,0,7-2.93A11.16,11.16,0,0,0,32.3,31.1c.31.69-.08,1.22-.46,1.71a17.53,17.53,0,0,1-3.57,3.31,18.35,18.35,0,0,1-3.39,1.94c-.09,0-.27,0-.2.19s.19.06.3,0a18.07,18.07,0,0,0,8-3.84,13.12,13.12,0,0,1-4.83,4.32,20.69,20.69,0,0,1-6.17,2.16,19.2,19.2,0,0,0,3.79-.1,32.51,32.51,0,0,0,3.63-.76,6.49,6.49,0,0,1-2.51,1.27,19.25,19.25,0,0,1-5.93.89A5.65,5.65,0,0,1,19.45,42c-.45-.13-.48-.4-.4-.79a7.1,7.1,0,0,1,3.18-4.32C22.53,36.64,22.91,36.5,23.1,36.14Z" style="fill: #fff;fill-rule: evenodd"/>
          <path d="M9.19,33.35a7.59,7.59,0,0,0,2.48,2.17c.16.11.33.19.49.28a8,8,0,0,0,1.46,2.64,19.16,19.16,0,0,0,3.3,3.44,2.54,2.54,0,0,1-2.19.39,8.75,8.75,0,0,1-4.08-1.75c.43.08.86.17,1.29.23a2.49,2.49,0,0,0,1.33.12,11.91,11.91,0,0,1-4.85-3.41l.13-.09a9.37,9.37,0,0,0,3.91,1.44A11.92,11.92,0,0,1,9.06,36,1.68,1.68,0,0,1,9.19,33.35Z" style="fill: #fff;fill-rule: evenodd"/>
          <path d="M19.45,11.9A16.46,16.46,0,0,0,17,14.69a8.57,8.57,0,0,0-1.62,5.54c-.63.37-.63.37-.87-.26a5.5,5.5,0,0,1,.57-5.13A7.28,7.28,0,0,1,19.45,11.9Z" style="fill: #fff;fill-rule: evenodd"/>
          <path d="M17.79,49.41a8.28,8.28,0,0,0,2.57,1.7c.21-.2-.1-.35,0-.58a5.21,5.21,0,0,0,3.88-.06c.26-.08.39,0,.4.19,0,.49.3.34.55.23a2.9,2.9,0,0,0,1.52-2.15,3.15,3.15,0,0,1,.06,2.41.89.89,0,0,1-1,.62,24.64,24.64,0,0,0-6.36.26.63.63,0,0,1-.53-.15A2.94,2.94,0,0,1,17.79,49.41Z" style="fill: #fff;fill-rule: evenodd"/>
          <path d="M11.68,10.53C11.19,8.25,10.58,7.34,9,6.61l1.38-.33L8.64,3.76A4.49,4.49,0,0,1,11.68,10.53Z" style="fill: #fff;fill-rule: evenodd"/>
          <path d="M15.61,43.41a34.9,34.9,0,0,0,6.71-.1s.05,0,.05.09c.09,1.44.09,1.44-1.22.85-.15-.06-.32-.23-.48-.09-.56.5-1.12.19-1.66,0a.94.94,0,0,0-1,.06c-.15.11-.36.26-.52.11-.48-.41-.74-.08-1,.24s-.29.28-.4-.07A11.09,11.09,0,0,0,15.61,43.41Z" style="fill: #fff;fill-rule: evenodd"/>
          <path d="M25.93,42.61a5.71,5.71,0,0,1-.27,2.48,1.65,1.65,0,0,1-.16.36c-.21.35-.47.79-.88.71s-.25-.58-.28-.91A9,9,0,0,0,24,43.46c-.11-.33,0-.42.3-.48C24.82,42.88,25.36,42.74,25.93,42.61Z" style="fill: #fff;fill-rule: evenodd"/>
          <path d="M13,42.83c.63.15,1.16.3,1.7.4.23.05.33.12.32.37a7,7,0,0,0,.34,2.13c0,.17.11.37,0,.48s-.35,0-.54,0a2.19,2.19,0,0,1-.79-.72A5.3,5.3,0,0,1,13,42.83Z" style="fill: #fff;fill-rule: evenodd"/>
          <path d="M28.45,26.16A2,2,0,0,1,27,25.43a.37.37,0,0,1,0-.59c.23-.18.33,0,.45.16a1.1,1.1,0,0,0,1.33.4,1.14,1.14,0,0,0,.79-1.15c0-.63.46-.38.72-.43s.26.26.24.45A2,2,0,0,1,28.45,26.16Z" style="fill: #fff;fill-rule: evenodd"/>
          <path d="M10.49,24.36c0-.24-.07-.62.32-.57s.82,0,.65.64a1,1,0,0,0,.6,1.14,1.09,1.09,0,0,0,1.33-.15c.2-.19.36-.37.59-.06s0,.46-.22.61a1.94,1.94,0,0,1-2.1.22A2,2,0,0,1,10.49,24.36Z" style="fill: #fff;fill-rule: evenodd"/>
          <path d="M12.24,24.76c-.14-.05-.26-.11-.25-.28s.13-.26.31-.24a.23.23,0,0,1,.2.29A.24.24,0,0,1,12.24,24.76Z" style="fill: #fff;fill-rule: evenodd"/>
          <path d="M29,24.28a.27.27,0,0,1-.23.28.25.25,0,0,1-.3-.25.26.26,0,0,1,.25-.27C28.9,24,29,24.15,29,24.28Z" style="fill: #fff;fill-rule: evenodd"/>
        </g>
      </g>
    </g>
  </g>
</svg>
