<svg xmlns="http://www.w3.org/2000/svg" viewBox="0 0 56.21 60">
  <title>28</title>
  <g id="Layer_2" data-name="Layer 2">
    <g id="Layer_1-2" data-name="Layer 1">
      <g id="_28" data-name="28">
        <path d="M4,22.12a20.61,20.61,0,0,1,1.45-7.49.73.73,0,0,0-.2-1,17,17,0,0,1-5-8.22A8.24,8.24,0,0,1,.15,1.72c.09-.42.17-.49.58-.24A20.39,20.39,0,0,0,9,4.45a28,28,0,0,0,4.2,0,1.47,1.47,0,0,0,.73-.32q13.71-8.34,27.45-.06a2.14,2.14,0,0,0,.88.3,19.84,19.84,0,0,0,13.26-3c.42-.26.47-.11.54.24a9.3,9.3,0,0,1-.51,5.06,17.76,17.76,0,0,1-5.16,7.45.74.74,0,0,0-.23.95C51.8,20,52,24.84,49.84,29.6A15.23,15.23,0,0,1,44,36.21a10.4,10.4,0,0,0-2.12,1.85,17.67,17.67,0,0,0-4.83,10.26,45.45,45.45,0,0,1-.68,4.92c-.1.51-.23,1-.37,1.52a6.47,6.47,0,0,1-5.47,5,15.74,15.74,0,0,1-6.66-.16,6.28,6.28,0,0,1-4.59-4.23,23.16,23.16,0,0,1-1.13-6.16,18.49,18.49,0,0,0-6.31-12.51c-.94-.88-2.1-1.53-3-2.44A16.22,16.22,0,0,1,4,22.12Zm20.5,4.07c0,.23,0,.46,0,.69-.08,1-.17,2-.23,3-.08,1.37-.16,2.75-.21,4.13a1.85,1.85,0,0,0,1.94,2,1.52,1.52,0,0,0-.16-.41,7.25,7.25,0,0,1-1-4.19c-.07-1.52-.12-3-.18-4.56,0-.27,0-.53,0-.8v-.93a3.72,3.72,0,0,0-.17.54A4,4,0,0,0,24.5,26.19Zm4.92,27.28c-.05-.07-.09,0-.13,0-.34-.61-.95.23-1.33-.24-.06-.07-.27,0-.34.19s0,0,0,.06c-.36-.38-.75-.18-1.14-.07-.44-.4-1,.15-1.45-.13-.07,0-.17.19-.2.34s.09.37-.11.55a5.15,5.15,0,0,1-1.29-3.84A2.43,2.43,0,0,0,22.88,52c-.06,1.9,0,1.93,1.76,2.41a4.73,4.73,0,0,0,1.83.19,2.87,2.87,0,0,0,1.13,0,5.11,5.11,0,0,0,1.7-.06c.05.05.09.05.12,0a1.39,1.39,0,0,0,.7-.07c.24,0,.49-.09.72-.16,1.18-.35,1.31-.52,1.34-1.74a5.36,5.36,0,0,0-.24-1.78c-.05-.18,0-.43-.38-.47a5.59,5.59,0,0,1-.2,2.08,2.79,2.79,0,0,1-1.14,1.74c0-.31.15-.68-.23-.88A.41.41,0,0,0,29.42,53.47Zm.67-9.38c-.05-.05-.09-.09-.16,0a1.41,1.41,0,0,0-1.11-.23c0-.06-.09-.11-.15,0-.32-.46-.77-.55-1.06-.21-.72-.4-1.26-.07-1.26.76v.5a.54.54,0,0,0,.41.56.52.52,0,0,0,.59-.24c.07-.09.08-.24.26-.2.34.62.65.63,1,0l.19,0c.38.6.68.6,1.07,0l.18,0a.51.51,0,0,0,.66.42c.34-.08.41-.35.41-.67C31.17,43.93,31,43.83,30.09,44.09ZM18.24,24.47a.72.72,0,0,0-.72.72c-1,.16-1.72-.37-1.57-1.29.12-.71-.4-.45-.69-.55s-.49.1-.53.43a2.39,2.39,0,0,0,1.61,2.54,2.35,2.35,0,0,0,2.85-1.1c.09-.17.32-.44,0-.54S18.66,24.07,18.24,24.47ZM39,24.23a.74.74,0,0,0-.52.82,1.21,1.21,0,0,1-1.8-.53c-.34-.51-.59.05-.88.09s-.31.24-.18.5A2.41,2.41,0,0,0,40.21,24c0-.69-.08-.68-.76-.64S39.06,23.9,39,24.23ZM20.55,49.75c-.09-.31,0-.69-.48-1,.11.38.19.66.28,1,.13.8.26,1.61.41,2.41a9,9,0,0,0,.67,2.21,4,4,0,0,0,2.72,2.32,13.57,13.57,0,0,0,6.52.07A4.15,4.15,0,0,0,33.77,54a22.77,22.77,0,0,0,.89-4.17c0-.06,0-.17-.11-.19s-.14.28-.19.43c-.27.83-.5,1.68-.81,2.5a4.49,4.49,0,0,1-3.14,2.83,12,12,0,0,1-4.42.27,5.11,5.11,0,0,1-4.87-4.09C21,51,20.74,50.37,20.55,49.75ZM32.66,52.9c.23,0,.27-.18.34-.32a16.9,16.9,0,0,0,1-2.95c.46-1.72.75-3.47,1.1-5.21.09-.5-.19-.68-.56-.7s-.18.33-.18.5a7.35,7.35,0,0,1-1.73,4.61.76.76,0,0,1-1,.22c-.38-.21-.32-.58-.15-.93A5.19,5.19,0,0,0,32,45.87a2.83,2.83,0,0,0-.31-1.56,5.36,5.36,0,0,0-.06.69.88.88,0,0,1-.81.89,7.44,7.44,0,0,1-1.7,0,10.33,10.33,0,0,0-1.76,0,10.3,10.3,0,0,0-1.84,0c-.29.07-.66,0-1,0a.91.91,0,0,1-1.09-.71,7.72,7.72,0,0,1-.16-1c-.09.38-.16.59-.19.81a5.32,5.32,0,0,0,.44,3.12c.17.34.28.71-.1.95a.77.77,0,0,1-1.06-.22,6,6,0,0,1-.38-.5,7.13,7.13,0,0,1-1.28-4.69c-.36.2-.91,0-.8.65A41.81,41.81,0,0,0,21.78,52a2.51,2.51,0,0,0,.54,1,7.28,7.28,0,0,1,.4-2.62.7.7,0,0,1,.82-.52c.42.08.47.4.44.77a4.15,4.15,0,0,0,.31,2c.05.14.1.41.29.31A5,5,0,0,1,27,52.76a10.49,10.49,0,0,1,3.4.16c.2.06.24-.13.29-.26a4,4,0,0,0,.32-1.89c0-.42-.06-.86.45-1s.75.25.89.69A6.79,6.79,0,0,1,32.66,52.9Zm0-16a7.27,7.27,0,0,1-10.17,0,2.22,2.22,0,0,0,1.61,3.34.4.4,0,0,1,.27.12,10.61,10.61,0,0,0,1.9,1.81,8.3,8.3,0,0,1-5.63,0,4.53,4.53,0,0,1-3.06-2.91c-.27-.75-.5-1.51-.74-2.27a6.24,6.24,0,0,0-.87-2,1.82,1.82,0,0,0-2.05-.81,1.91,1.91,0,0,1,.7.22,3.79,3.79,0,0,1,1.72,2.31c.33,1,.57,2,.89,2.94A5.2,5.2,0,0,0,21,43.19c1.92.52,3.84.76,5.55-.64a.23.23,0,0,1,.33,0c.4.29.8.46,1.24.07.11-.1.23,0,.34,0a5.33,5.33,0,0,0,4.37.8,5.58,5.58,0,0,0,4.82-3.76c.28-.81.49-1.65.75-2.46.43-1.37,1-2.67,2.59-3.15a2,2,0,0,0-2.08.92,4.23,4.23,0,0,0-.59,1.23c-.29.9-.58,1.8-.88,2.69a4.86,4.86,0,0,1-3.72,3.37,11.07,11.07,0,0,1-1.61.28,6.29,6.29,0,0,1-3.3-.39,10.9,10.9,0,0,0,1.92-1.78.43.43,0,0,1,.3-.18A2.22,2.22,0,0,0,32.61,36.87Zm2-28.23a7,7,0,0,0-4.46,1.5,9.28,9.28,0,0,0-2.62,4.06C26,10,23.3,8.51,20.14,8.73A17.27,17.27,0,0,1,23.42,10a5.51,5.51,0,0,1,2.83,3.28,23.63,23.63,0,0,1,.87,3.53c.13.85.24,1.7.38,2.65a1.57,1.57,0,0,0,.2-.83c.14-1.27.41-2.51.65-3.77A6.83,6.83,0,0,1,33.43,9.2c.32-.09.64-.2,1-.31C34.47,8.86,34.6,8.87,34.62,8.64ZM12.62,20A23,23,0,0,0,19.32,23a4.17,4.17,0,0,0,3.64-.9,2.23,2.23,0,0,0,.92-1.81c-.19,0-.23.15-.31.23a5,5,0,0,1-5.29,1.58,30.48,30.48,0,0,1-5-1.9C13.12,20.07,12.94,19.87,12.62,20ZM31,20.26c0,.15,0,.3.06.43A3.7,3.7,0,0,0,35,23a18.52,18.52,0,0,0,7.12-2.95s0-.06,0-.1c-.23,0-.39.13-.57.21a27.26,27.26,0,0,1-5.17,1.93,5,5,0,0,1-4.82-1.43C31.39,20.55,31.31,20.3,31,20.26Zm-8.15,16a5.91,5.91,0,0,0,9.13.1A9,9,0,0,1,22.86,36.28ZM46.1,8.22c.6.87.61.88,1.52.51a7.12,7.12,0,0,0,.74-.35,29.24,29.24,0,0,0,5.29-3.9c.05,0,.05-.11-.06-.17C51.29,5.92,49,7.66,46.1,8.22ZM31.88,48.54c.14.12.22.1.29.05a6.82,6.82,0,0,0,1.68-4.71c0-.18-.09-.25-.29-.21-.35.09-.7.14-1.05.2s-.26.12-.2.34A6,6,0,0,1,31.88,48.54Zm-8.72.05a8.19,8.19,0,0,1-.56-1.74,6.17,6.17,0,0,1,0-1.87c.15-1,.14-1-.95-1.15-.35,0-.42,0-.43.37a6.7,6.7,0,0,0,1.52,4.23A.38.38,0,0,0,23.16,48.59ZM9.39,8.08A19.24,19.24,0,0,1,3.82,5.16C3.62,5,3.44,4.77,3.1,5a26.65,26.65,0,0,0,5,3.53C8.84,8.89,8.85,8.88,9.39,8.08ZM35.92,28.4a1.91,1.91,0,0,0-.44,0c-2,.82-3.81,1.81-3.85,4.37a4.12,4.12,0,0,1-.13.47c0,.1,0,.24.07.28s.22-.07.25-.19c.1-.32.2-.64.29-1a4.43,4.43,0,0,1,2-2.75C34.69,29.28,35.22,28.88,35.92,28.4Zm-17.07-.13a22.19,22.19,0,0,1,2.93,2c.91.8,1.08,2,1.52,3.18A4.75,4.75,0,0,0,18.85,28.27ZM25,45c.23.24.38.59.81.43s.37-.55.37-.9c0-.12,0-.25,0-.37,0-.33-.07-.49-.42-.36a5,5,0,0,1-1.53.24c-.14,0-.36,0-.36.15,0,.41-.2.87.21,1.17S24.8,45.31,25,45ZM19.61,30.4a8.19,8.19,0,0,1,2.76,4.53C22.69,33.1,21.4,30.65,19.61,30.4Zm15.45.19c-1.54.31-2.73,2.62-2.39,4.34A9.11,9.11,0,0,1,35.06,30.59Zm-21-5.24A4.94,4.94,0,0,1,14,23.48c.07-.31-.17-.29-.34-.27-.35.05-.74-.15-1,.18,0,0,0,.12.06.17A6.11,6.11,0,0,0,14.11,25.35Zm26.64,0a6,6,0,0,0,1.66-2.12c-.4,0-.69,0-1-.05-.46-.06-.57.11-.5.55A3,3,0,0,1,40.75,25.37Zm-7,.35a4.86,4.86,0,0,0,2,.9c-.17-.33-.47-.57-.59-.88-.25-.67-.6-.64-1.07-.26A3.13,3.13,0,0,1,33.73,25.72Zm-12.5,0c-.35-.2-.6-.33-.85-.49s-.29-.08-.38.12a4.42,4.42,0,0,1-1,1.35A5.59,5.59,0,0,0,21.23,25.71ZM35.28,46.89l.15,0c.1-.43.21-.85.31-1.28l-.07,0Z" style="fill: #020202;fill-rule: evenodd"/>
        <path d="M32.66,52.9a6.79,6.79,0,0,0-.27-2.39c-.14-.45-.39-.79-.88-.7s-.5.53-.46.95a4,4,0,0,1-.32,1.9c-.05.12-.09.32-.29.25a10.49,10.49,0,0,0-3.4-.15,5,5,0,0,0-2.45.16c-.2.1-.25-.18-.3-.31a4.27,4.27,0,0,1-.31-2c0-.37,0-.69-.44-.78a.71.71,0,0,0-.82.53,7.26,7.26,0,0,0-.4,2.61,2.71,2.71,0,0,1-.54-.94,40.91,40.91,0,0,1-1.87-7.73c-.11-.62.43-.45.79-.64A7.13,7.13,0,0,0,22,48.32a6,6,0,0,0,.38.5.78.78,0,0,0,1.06.22c.38-.24.27-.61.1-1A5.29,5.29,0,0,1,23.08,45c0-.22.1-.44.19-.82a9,9,0,0,0,.16,1,.91.91,0,0,0,1.09.72c.36-.06.73.05,1,0a9.45,9.45,0,0,1,1.84,0,10.34,10.34,0,0,1,1.76,0,7.44,7.44,0,0,0,1.7,0,.89.89,0,0,0,.82-.89,4.15,4.15,0,0,1,.05-.69A2.78,2.78,0,0,1,32,45.87a5.11,5.11,0,0,1-.52,2.24c-.17.36-.23.72.15.94a.76.76,0,0,0,1-.22,7.35,7.35,0,0,0,1.73-4.61c0-.18-.22-.53.18-.51s.65.2.56.7c-.35,1.75-.64,3.5-1.1,5.22a16.9,16.9,0,0,1-1,2.95C32.93,52.72,32.89,52.89,32.66,52.9Z" style="fill: #cc3036;fill-rule: evenodd"/>
        <path d="M32.61,36.87A2.22,2.22,0,0,1,31,40.22a.47.47,0,0,0-.31.18,10.49,10.49,0,0,1-1.91,1.78,6.29,6.29,0,0,0,3.3.39,11.07,11.07,0,0,0,1.61-.28,4.86,4.86,0,0,0,3.72-3.37c.3-.89.59-1.79.88-2.69A4.23,4.23,0,0,1,38.87,35,2,2,0,0,1,41,34.08c-1.64.48-2.16,1.78-2.59,3.15-.26.81-.48,1.65-.75,2.46a5.58,5.58,0,0,1-4.82,3.76,5.36,5.36,0,0,1-4.38-.8c-.11-.08-.22-.14-.33,0-.44.39-.84.22-1.24-.07a.23.23,0,0,0-.33,0c-1.71,1.4-3.63,1.16-5.55.64a5.2,5.2,0,0,1-3.78-3.6c-.32-1-.56-2-.89-2.94a3.79,3.79,0,0,0-1.72-2.31,1.91,1.91,0,0,0-.7-.22,1.82,1.82,0,0,1,2.05.81,6.47,6.47,0,0,1,.87,2c.24.76.47,1.52.74,2.27a4.51,4.51,0,0,0,3.06,2.91,8.3,8.3,0,0,0,5.63,0,10.61,10.61,0,0,1-1.9-1.81.4.4,0,0,0-.27-.12,2.22,2.22,0,0,1-1.61-3.34,7.27,7.27,0,0,0,10.17,0Zm-.2.84a8.67,8.67,0,0,1-4.51,1.74c-.28,0-.29.18-.29.38,0,.67,0,1.34,0,2s.21.52.59.3a6.49,6.49,0,0,0,2.18-2.21c.2-.3.33-.75.85-.36.14.1.37,0,.53-.13A1.5,1.5,0,0,0,32.41,37.71Z" style="fill: #f0f0f0;fill-rule: evenodd"/>
        <path d="M20.55,49.75c.19.61.41,1.23.58,1.85A5.09,5.09,0,0,0,26,55.69a12.17,12.17,0,0,0,4.42-.27,4.49,4.49,0,0,0,3.14-2.83c.31-.82.54-1.67.81-2.5,0-.15,0-.34.19-.43s.12.13.11.19A22.94,22.94,0,0,1,33.77,54a4.14,4.14,0,0,1-3.1,2.73,13.44,13.44,0,0,1-6.52-.06,4,4,0,0,1-2.72-2.32,9.09,9.09,0,0,1-.67-2.21c-.15-.81-.28-1.61-.41-2.41Z" style="fill: #f0f0f0;fill-rule: evenodd"/>
        <path d="M34.62,8.64c0,.23-.15.22-.24.25-.31.11-.63.22-1,.31a6.83,6.83,0,0,0-5.08,5.63c-.24,1.26-.51,2.5-.65,3.77a1.67,1.67,0,0,1-.2.83c-.14-.95-.25-1.8-.38-2.65a23.63,23.63,0,0,0-.87-3.53A5.51,5.51,0,0,0,23.42,10a16,16,0,0,0-3.28-1.24C23.3,8.51,26,10,27.54,14.2a9.28,9.28,0,0,1,2.62-4.06A7,7,0,0,1,34.62,8.64Z" style="fill: #f0f0f0;fill-rule: evenodd"/>
        <path d="M12.62,20c.32-.16.5,0,.69.13a29.64,29.64,0,0,0,5,1.91,5,5,0,0,0,5.29-1.58c.08-.08.11-.23.31-.23A2.23,2.23,0,0,1,23,22.07a4.17,4.17,0,0,1-3.64.9A23,23,0,0,1,12.62,20Z" style="fill: #e9eaea;fill-rule: evenodd"/>
        <path d="M31,20.26c.3,0,.38.29.54.44a5,5,0,0,0,4.82,1.43,27.26,27.26,0,0,0,5.17-1.93c.18-.08.34-.24.57-.21,0,0,0,.09,0,.1A18.63,18.63,0,0,1,35,23a3.68,3.68,0,0,1-3.93-2.35A2.76,2.76,0,0,1,31,20.26Z" style="fill: #e9eaea;fill-rule: evenodd"/>
        <path d="M22.86,36.28a9,9,0,0,0,9.13.1A5.92,5.92,0,0,1,22.86,36.28Z" style="fill: #f0f0f0;fill-rule: evenodd"/>
        <path d="M24.64,26.89c.06,1.52.11,3,.18,4.56a7.25,7.25,0,0,0,1,4.19,1.52,1.52,0,0,1,.16.41,1.85,1.85,0,0,1-1.94-2c.05-1.38.13-2.76.21-4.13.06-1,.15-2,.23-3Z" style="fill: #f0f0f0;fill-rule: evenodd"/>
        <path d="M39,24.23c0-.33-.34-.83.43-.87s.74-.05.76.64a2.41,2.41,0,0,1-4.57,1.11c-.12-.26-.13-.46.18-.5s.54-.6.88-.09a1.21,1.21,0,0,0,1.8.53c.2.34.45.55.86.35a.56.56,0,0,0,.29-.74C39.56,24.36,39.28,24.3,39,24.23Z" style="fill: #f2e632;fill-rule: evenodd"/>
        <path d="M18.24,24.47c.42-.4.69.11,1,.22s0,.36,0,.53a2.35,2.35,0,0,1-2.85,1.1,2.39,2.39,0,0,1-1.61-2.54c0-.33.12-.59.53-.43s.8-.16.69.55c-.15.92.56,1.45,1.57,1.29.18.36.41.63.86.45a.55.55,0,0,0,.32-.71C18.65,24.67,18.44,24.58,18.24,24.47Z" style="fill: #f2e632;fill-rule: evenodd"/>
        <path d="M26.47,54.62a5.15,5.15,0,0,1-1.83-.19c-1.77-.48-1.82-.51-1.76-2.41a2.45,2.45,0,0,1,.53-1.69,5.12,5.12,0,0,0,1.29,3.84c.2-.17.08-.37.11-.54s.13-.38.2-.34c.48.28,1-.27,1.45.13C26.46,53.82,26.47,54.22,26.47,54.62Z" style="fill: #f0f0f0;fill-rule: evenodd"/>
        <path d="M46.1,8.22c2.92-.56,5.19-2.3,7.49-3.91.11.06.11.13.06.17a29.24,29.24,0,0,1-5.29,3.9,7.12,7.12,0,0,1-.74.35C46.71,9.1,46.7,9.09,46.1,8.22Z" style="fill: #e9eaea;fill-rule: evenodd"/>
        <path d="M31.88,48.54a6,6,0,0,0,.43-4.33c-.06-.21,0-.31.2-.34s.7-.11,1.05-.19c.2,0,.25,0,.29.2a6.82,6.82,0,0,1-1.68,4.71C32.1,48.64,32,48.66,31.88,48.54Z" style="fill: #f0f0f0;fill-rule: evenodd"/>
        <path d="M23.16,48.59a.38.38,0,0,1-.46-.16,6.64,6.64,0,0,1-1.51-4.23c0-.33.07-.41.42-.37,1.09.13,1.1.11.95,1.15a6.17,6.17,0,0,0,0,1.87A8.19,8.19,0,0,0,23.16,48.59Z" style="fill: #f0f0f0;fill-rule: evenodd"/>
        <path d="M9.39,8.08c-.54.8-.55.81-1.33.41A26.65,26.65,0,0,1,3.1,5c.34-.19.52.06.72.2A19.24,19.24,0,0,0,9.39,8.08Z" style="fill: #e9eaea;fill-rule: evenodd"/>
        <path d="M35.92,28.4c-.7.48-1.23.88-1.79,1.22a4.43,4.43,0,0,0-2,2.75c-.09.32-.19.64-.29,1,0,.13-.09.26-.25.19s-.09-.18-.07-.28a4.12,4.12,0,0,0,.13-.47c0-2.56,1.84-3.55,3.85-4.37A1.88,1.88,0,0,1,35.92,28.4Z" style="fill: #e9eaea;fill-rule: evenodd"/>
        <path d="M30.22,54.15a2.79,2.79,0,0,0,1.14-1.74,5.59,5.59,0,0,0,.2-2.08c.34,0,.33.29.38.46a5.41,5.41,0,0,1,.24,1.79c0,1.21-.16,1.39-1.34,1.74-.23.07-.48.1-.72.15C30.12,54.35,30.1,54.23,30.22,54.15Z" style="fill: #e9eaea;fill-rule: evenodd"/>
        <path d="M18.85,28.27a4.75,4.75,0,0,1,4.45,5.21c-.44-1.18-.61-2.38-1.52-3.18A22.19,22.19,0,0,0,18.85,28.27Z" style="fill: #e9eaea;fill-rule: evenodd"/>
        <path d="M25,45c-.22.35-.48.66-.91.36s-.23-.77-.21-1.17c0-.19.22-.15.36-.15a5,5,0,0,0,1.53-.24c.35-.13.45,0,.42.36,0,.12,0,.25,0,.37,0,.35.07.73-.37.9S25.25,45.2,25,45Z" style="fill: #e9eaea;fill-rule: evenodd"/>
        <path d="M19.61,30.4c1.79.25,3.08,2.7,2.76,4.53A8.19,8.19,0,0,0,19.61,30.4Z" style="fill: #e9eaea;fill-rule: evenodd"/>
        <path d="M35.06,30.59a9.11,9.11,0,0,0-2.39,4.34C32.33,33.21,33.52,30.9,35.06,30.59Z" style="fill: #e9eaea;fill-rule: evenodd"/>
        <path d="M27.61,45c-.18,0-.19.11-.26.2a.52.52,0,0,1-.59.24.54.54,0,0,1-.41-.56v-.5c0-.83.54-1.16,1.26-.76A1.74,1.74,0,0,1,27.61,45Z" style="fill: #e9eaea;fill-rule: evenodd"/>
        <path d="M29.3,54.57a4.86,4.86,0,0,1-1.7.07V53.49s0,0,0-.06.28-.26.34-.19c.38.47,1-.37,1.33.24Z" style="fill: #f0f0f0;fill-rule: evenodd"/>
        <path d="M14.11,25.35a6.11,6.11,0,0,1-1.42-1.79s-.08-.15-.06-.17c.29-.33.68-.13,1-.18.17,0,.41,0,.34.27A4.94,4.94,0,0,0,14.11,25.35Z" style="fill: #f0f0f0;fill-rule: evenodd"/>
        <path d="M40.75,25.37a3,3,0,0,0,.19-1.62c-.07-.44,0-.61.5-.55.28,0,.57,0,1,.05A6,6,0,0,1,40.75,25.37Z" style="fill: #e9eaea;fill-rule: evenodd"/>
        <path d="M27.61,45a1.74,1.74,0,0,0,0-1.38c.29-.34.74-.25,1.06.21,0,.4,0,.8,0,1.2C28.26,45.59,28,45.59,27.61,45Z" style="fill: #f0f0f0;fill-rule: evenodd"/>
        <path d="M29.91,45c-.39.58-.69.58-1.07,0,0-.39,0-.78,0-1.17a1.41,1.41,0,0,1,1.11.23A3,3,0,0,0,29.91,45Z" style="fill: #f0f0f0;fill-rule: evenodd"/>
        <path d="M30.09,44.09c.92-.26,1.08-.16,1.07.64,0,.32-.07.59-.41.67a.52.52,0,0,1-.66-.41Z" style="fill: #f0f0f0;fill-rule: evenodd"/>
        <path d="M33.73,25.72a3.13,3.13,0,0,0,.34-.24c.47-.38.82-.41,1.07.26.12.31.42.55.59.88A4.86,4.86,0,0,1,33.73,25.72Z" style="fill: #e9eaea;fill-rule: evenodd"/>
        <path d="M27.6,53.49v1.15a2.87,2.87,0,0,1-1.13,0c0-.4,0-.8,0-1.2C26.85,53.31,27.24,53.11,27.6,53.49Z" style="fill: #e9eaea;fill-rule: evenodd"/>
        <path d="M21.23,25.71a5.59,5.59,0,0,1-2.26,1,4.42,4.42,0,0,0,1-1.35c.09-.2.19-.24.38-.12S20.88,25.51,21.23,25.71Z" style="fill: #e9eaea;fill-rule: evenodd"/>
        <path d="M39,24.23c.26.07.54.13.63.43a.56.56,0,0,1-.29.74c-.41.2-.66,0-.86-.35A.74.74,0,0,1,39,24.23Z" style="fill: #f0f0f0;fill-rule: evenodd"/>
        <path d="M18.24,24.47c.19.11.41.2.46.46a.55.55,0,0,1-.32.71c-.45.18-.68-.1-.86-.45A.72.72,0,0,1,18.24,24.47Z" style="fill: #fdfdfd;fill-rule: evenodd"/>
        <path d="M30.22,54.15c-.12.08-.1.2-.11.32a1.25,1.25,0,0,1-.69.08V53.47a.41.41,0,0,1,.57-.2C30.37,53.47,30.2,53.84,30.22,54.15Z" style="fill: #f0f0f0;fill-rule: evenodd"/>
        <path d="M28.82,43.82c0,.39,0,.78,0,1.17h-.19c0-.4,0-.8,0-1.2C28.73,43.71,28.78,43.76,28.82,43.82Z" style="fill: #cc3036;fill-rule: evenodd"/>
        <path d="M29.42,53.47v1.08c0,.08-.07.08-.12,0,0-.36,0-.73,0-1.09C29.33,53.42,29.37,53.41,29.42,53.47Z" style="fill: #cc3036;fill-rule: evenodd"/>
        <path d="M35.28,46.89l.39-1.26.07,0c-.1.43-.21.85-.31,1.28Z" style="fill: #cc3036;fill-rule: evenodd"/>
        <path d="M30.09,44.09V45h-.18a3,3,0,0,1,0-1C30,44,30,44,30.09,44.09Z" style="fill: #cc3036;fill-rule: evenodd"/>
        <path d="M20.55,49.75h-.2c-.09-.29-.17-.57-.28-1C20.51,49.06,20.46,49.44,20.55,49.75Z" style="fill: #e9eaea;fill-rule: evenodd"/>
        <path d="M24.5,26.19a4,4,0,0,1,0-.49,3.72,3.72,0,0,1,.17-.54v.93C24.63,26.15,24.6,26.24,24.5,26.19Z" style="fill: #cc3036;fill-rule: evenodd"/>
        <path d="M24.5,26.19c.1,0,.13,0,.18-.1,0,.27,0,.53,0,.8h-.15C24.49,26.65,24.5,26.42,24.5,26.19Z" style="fill: #e9eaea;fill-rule: evenodd"/>
        <path d="M32.41,37.71a1.5,1.5,0,0,1-.66,1.73c-.16.1-.39.23-.53.13-.52-.39-.64.06-.85.36a6.61,6.61,0,0,1-2.18,2.22c-.38.21-.63.32-.59-.31s0-1.34,0-2c0-.2,0-.36.29-.38A8.67,8.67,0,0,0,32.41,37.71Z" style="fill: #020202;fill-rule: evenodd"/>
      </g>
    </g>
  </g>
</svg>
