<svg xmlns="http://www.w3.org/2000/svg" viewBox="0 0 60 43.26">
  <title>29</title>
  <g id="Layer_2" data-name="Layer 2">
    <g id="Layer_1-2" data-name="Layer 1">
      <g id="_29" data-name="29">
        <path d="M58,14.38c-1.83.29-3.64.62-5.43,1.06-.85.21-1.7.45-2.53.74-.12,0-.23.06-.16.23s0,.32.26.3c1.47-.11,2.93-.16,4.39-.16a27.62,27.62,0,0,1,5.22.37A.56.56,0,0,1,60,17c-.15,0-.25,0-.35,0a41.63,41.63,0,0,0-8.42.39c-.29,0-.59.1-.89.12s-.33.09-.29.37c.07.45,0,.45.5.5a31.92,31.92,0,0,1,5.39,1.06c.33.09.64.21,1,.32a.41.41,0,0,1,.11.06c-.11.07-.21,0-.3,0-2.09-.35-4.18-.69-6.29-.86-.24,0-.32,0-.31.28A7.5,7.5,0,0,1,49.8,22a3.81,3.81,0,0,1-3.39,2.74.32.32,0,0,0-.29.23c-.22.56-.45,1.12-.67,1.67a2.87,2.87,0,0,1-.59.94c-.38.38-.71.31-.9-.2a3.52,3.52,0,0,1-.17-1.07,6.68,6.68,0,0,0-.17-1.09c0-.16-.09-.22-.27-.19a18.53,18.53,0,0,1-2,.21c-.1,0-.17,0-.19.14a34.3,34.3,0,0,0-1,7.54l0,.06.43-.53.22-.22c.26-.22.45-.19.56.14a4.72,4.72,0,0,1,.09,3.06,2.2,2.2,0,0,1-.88,1.16c-.09.06-.13.09,0,.19A3,3,0,0,1,41.36,39a6.12,6.12,0,0,1-.1.86,2.72,2.72,0,0,1-1.12,1.8,7.21,7.21,0,0,1-4.42,1.58,10.12,10.12,0,0,1-4-.65,7.19,7.19,0,0,1-3.22-2.7,11.23,11.23,0,0,1-1.24-2.18,1.15,1.15,0,0,0-2-.17,23.7,23.7,0,0,1-2.1,2.69,12.89,12.89,0,0,1-2.12,2,4,4,0,0,1-.49.3,1.21,1.21,0,0,1-1.23,0,73.23,73.23,0,0,1-9.85-6.17,31.05,31.05,0,0,1-6.49-6.41,14.36,14.36,0,0,1-2.82-6.6,16,16,0,0,1,.4-6c.33-1.25.73-2.49,1-3.77.05-.25.07-.5.1-.76s.12-.43.45-.46a3,3,0,0,1,.84.06,12.73,12.73,0,0,0,1.36.16c-.22-.22-.41-.4-.58-.59A11.82,11.82,0,0,1,1.57,9.09a3.21,3.21,0,0,1-.33-1.8A1.29,1.29,0,0,1,2.53,6a7.48,7.48,0,0,1,.82,0c1.86,0,3.72,0,5.58-.15A14,14,0,0,0,15.32,4a26,26,0,0,1,8.13-3A44.82,44.82,0,0,1,29.19.05a14.4,14.4,0,0,1,7.45,1.33c.62.3,1.26.57,1.89.88A6.4,6.4,0,0,0,40,2.62c.61.12,1.2.29,1.79.46a4,4,0,0,1,1.29.73,16,16,0,0,1,4,4.4,13.19,13.19,0,0,1,.79,1.21,5.59,5.59,0,0,1,.46,3.81c-.09.38-.1.64.32.86a2.06,2.06,0,0,1,.86,1.15c.06.14.11.19.28.15a40.86,40.86,0,0,1,6.87-1L58,14.29S58,14.35,58,14.38ZM44.82,6.92l.06.06s0,0,0,.07l0,0,0-.06,0-.06a.13.13,0,0,0-.06-.11,9,9,0,0,0-2.17-2.23A5.65,5.65,0,0,0,41,3.78a1,1,0,0,0-.57,0c-.07,0-.15.05-.15.13s.09.08.14.1a10.54,10.54,0,0,1,1.35.66,17.49,17.49,0,0,1,3,2.18A.71.71,0,0,0,44.82,6.92ZM2.73,9.52v0h0l0,0a.41.41,0,0,0,.2.33A.67.67,0,0,0,3,10a17,17,0,0,0,4.05,4,8.33,8.33,0,0,0,3.4,1.57A2.51,2.51,0,0,0,13,14.74c.28-.33.28-.37-.07-.63a4.33,4.33,0,0,0-2.66-.73,6.07,6.07,0,0,1-1,0A11.25,11.25,0,0,1,4,10.73c-.35-.29-.68-.61-1-.92A.48.48,0,0,0,2.73,9.52Zm45.53,5.19,0,0s0,0,0-.05a3.6,3.6,0,0,0-3.35-1A12,12,0,0,1,48.26,14.71Zm-24,2.54-1.47.06v0h1.47c1.4,0,2.79.07,4.18.16,1.17.08,2.33.18,3.5.31.93.1,1.87.19,2.8.37a.22.22,0,0,0,.25-.09A.24.24,0,0,0,35,17.8a.59.59,0,0,0-.38-.18,44.49,44.49,0,0,0-5-.41C27.79,17.16,26,17.16,24.28,17.25Zm21.6-1.59s-.06,0-.08-.06a2.74,2.74,0,0,0-3.1-.9,1.48,1.48,0,0,0-.66.36l.05,0h.23a3.57,3.57,0,0,1,3,1.33c.35.4.47.46,1,.27a6.44,6.44,0,0,1,.74-.25.75.75,0,0,1,.87.29c.23.34.23.34.61.18l.24-.1c.14-.06.17-.15.12-.3a1.81,1.81,0,0,0-.52-.84,3.17,3.17,0,0,0-2.61-.73c-.15,0-.11.09-.07.17a1.52,1.52,0,0,1,.21.57ZM25.6,34.83l0,.06h0l0-.05a.37.37,0,0,0-.07-.25,4.81,4.81,0,0,0-1.47-1.87c-.64-.54-1.32-1-1.93-1.6a9.71,9.71,0,0,1-2.62-4.49c-.18-.62-.32-1.26-.46-1.9a15.45,15.45,0,0,0,.31,3.39,6.59,6.59,0,0,0,3.09,4.59c.36.22.72.44,1.1.63A7.37,7.37,0,0,1,25.6,34.83ZM23,13.82l.2,0A9.81,9.81,0,0,1,26,13.33a28.32,28.32,0,0,1,4.22.29,20.35,20.35,0,0,0,3.4.28,2.19,2.19,0,0,0,.83-.16,9.44,9.44,0,0,1-1.3-.17c-1.09-.23-2.13-.63-3.19-1a8.78,8.78,0,0,0-3.37-.52A5.6,5.6,0,0,0,23,13.8l0,0S23,13.84,23,13.82Zm6.4,25.76s0,0-.05,0l0,0a1.43,1.43,0,0,0,.12.21,6.65,6.65,0,0,0,2.41,1.93,7.65,7.65,0,0,0,7.9-.85,3.14,3.14,0,0,0,1.07-1.56s-.08,0-.09,0a5.28,5.28,0,0,1-2,1.28,10.18,10.18,0,0,1-4.67.65,9.31,9.31,0,0,1-3.88-1.2C30,39.94,29.72,39.75,29.43,39.58ZM8.5,33.82a0,0,0,0,1,0,0h0l0,0c0,.07,0,.11.08.16a22,22,0,0,0,2.2,2,34.36,34.36,0,0,0,4.46,3,33,33,0,0,0,4,2,1.58,1.58,0,0,0,1.62-.17,19,19,0,0,0,3.07-2.73c.11-.12.19-.25.29-.38-.37.15-.72.28-1.08.39a9,9,0,0,1-3.35.31A16.39,16.39,0,0,1,16,37.64a24.2,24.2,0,0,1-6.42-3.08ZM20.65,9.43l-.9.9a21.53,21.53,0,0,0-3.94,4.88,9,9,0,0,0-1.27,4.71,12.52,12.52,0,0,0,.35,2.59,19.25,19.25,0,0,0,3.38,7,1.67,1.67,0,0,0,.41.44l0-.14a22.08,22.08,0,0,1-2-7.91,16.06,16.06,0,0,1,.47-5,25.51,25.51,0,0,1,1.94-4.68c.49-1,1.06-1.87,1.6-2.8,0,0,.06-.06,0-.08S20.67,9.41,20.65,9.43ZM12.93,35.27s.07,0,.09,0,0-.06,0-.07a1.07,1.07,0,0,0-.16-.14,30.27,30.27,0,0,1-5.15-5,15.69,15.69,0,0,1-3.49-7.94,11.66,11.66,0,0,1,.63-5.33,10,10,0,0,1,.81-1.72c0-.08.16-.18,0-.24a5.48,5.48,0,0,0-2-.48.71.71,0,0,0-.7.45,17.63,17.63,0,0,0-1.5,5A11.21,11.21,0,0,0,1.89,25a13.44,13.44,0,0,0,3.8,5.48A37,37,0,0,0,12.93,35.27ZM37.2,31.39c0-.11,0-.22-.05-.34A6.35,6.35,0,0,0,36,28.24a1.51,1.51,0,0,0-1.23-.62c-1,0-1.92,0-2.88.11-.14,0-.16.08-.18.2a9.07,9.07,0,0,0,.13,2.55A6.31,6.31,0,0,0,33,33.3a.25.25,0,0,0,.38.09,6.59,6.59,0,0,0,.72-.44c.34-.26.68-.53,1-.77s.44-.11.5.24a4.38,4.38,0,0,1,0,1.49c-.05.29,0,.29.24.26a14.22,14.22,0,0,1,2.35-.05,1.8,1.8,0,0,0,.76,0,1.19,1.19,0,0,0,.73-.78,6.93,6.93,0,0,0,.09-2.08,4.47,4.47,0,0,0-.59-2,2.18,2.18,0,0,0-2.29-1A3,3,0,0,1,37.2,31.39ZM17.73,4.2A23.36,23.36,0,0,1,3.29,6.83,17.18,17.18,0,0,0,6,7.8a11.9,11.9,0,0,0,5,.31,10.89,10.89,0,0,0,5.23-2.44A14.92,14.92,0,0,0,17.73,4.2ZM2.25,7.55c.16.19.33.37.49.55a12.09,12.09,0,0,0,2.35,2.28,8,8,0,0,0,6.07,1.18,10.83,10.83,0,0,0,6.28-3.44,2,2,0,0,0,.38-.51.57.57,0,0,0-.34.16,18.8,18.8,0,0,1-4.8,2.36,10.09,10.09,0,0,1-4.36.43A8.91,8.91,0,0,1,4,8.7,9.13,9.13,0,0,0,2.25,7.55ZM28,28.65c0-.44.06-.89.1-1.33A8.06,8.06,0,0,1,29,24.17a4,4,0,0,1,4.1-2.06l.78.11a5.25,5.25,0,0,0-1.52-.87,3.65,3.65,0,0,0-2-.21,3.39,3.39,0,0,0-2.44,2.36A7.21,7.21,0,0,0,27.57,27,5.88,5.88,0,0,0,28,28.65Zm8.73-18.51L36,9.62A28,28,0,0,0,33.17,7.7,5.19,5.19,0,0,0,30.24,7a5.31,5.31,0,0,0-2.78,1.11s-.08,0-.05.11a7.37,7.37,0,0,1,2.39,0,14.57,14.57,0,0,1,3.42,1c.82.32,1.61.7,2.46.95A1.66,1.66,0,0,0,36.72,10.14Zm.53,7.05c.14-.08.24-.15.34-.22a1.61,1.61,0,0,1,2,0,4,4,0,0,0,1.35.65c.3.09.6.18.9.29a3.92,3.92,0,0,1,1.79,1.17c.09.11.15.34.26.28s0-.28,0-.43,0,0,0-.06a3.36,3.36,0,0,0-2.09-2.38,2.9,2.9,0,0,1-1.43-.87.87.87,0,0,0-.93-.36l-.42.06A2.31,2.31,0,0,0,37.25,17.19Zm-2.5,4.3.1,0a12.78,12.78,0,0,0,3.77.87,9.29,9.29,0,0,0,4.08-.51,2.51,2.51,0,0,0,1.41-1.09,1,1,0,0,0,.15-.72,4.33,4.33,0,0,1-1.42.72,17.15,17.15,0,0,1-4.55.72A29.87,29.87,0,0,1,34.75,21.49Zm-5.57,7.75a28.07,28.07,0,0,0-.34,5,7.31,7.31,0,0,0,.37,2.28,1.73,1.73,0,0,0,1.1,1.16,2.16,2.16,0,0,0,1.33,0c.72-.21,1.38-.57,2.12-.75a2.67,2.67,0,0,0-.69,0,4.65,4.65,0,0,1-1.18,0,2.13,2.13,0,0,1-2-1.6,13.83,13.83,0,0,1-.51-2.7c-.09-.91-.16-1.82-.17-2.74C29.24,29.68,29.21,29.5,29.18,29.24ZM26.28,1.39a10.27,10.27,0,0,0,2.64.33c.88,0,1.77-.07,2.65,0a10.93,10.93,0,0,1,4.21,1,36.11,36.11,0,0,1,3.71,2.15l.74.46A.55.55,0,0,0,40,4.93a25.36,25.36,0,0,0-3.74-2.58A10.2,10.2,0,0,0,31,1a15.9,15.9,0,0,0-2.19.12ZM45.6,13.14l0-.08a3.5,3.5,0,0,0-.3-.24,12.85,12.85,0,0,0-2.41-1.19.7.7,0,0,1-.31-.18,4,4,0,0,0-4.41-.89c-.06,0-.13,0-.15.13a9.4,9.4,0,0,1,3.37.72,5,5,0,0,0-2.38.7,8.72,8.72,0,0,1,2.88.15,5,5,0,0,0-1.25.61A13.88,13.88,0,0,1,45.6,13.14Zm-13.4-1a3.39,3.39,0,0,0,1.72-.37,1.55,1.55,0,0,0,.67-.67c.06-.11.07-.19-.08-.26-.34-.16-.67-.35-1-.54a.2.2,0,0,0-.3.06,3,3,0,0,1-1,.76c-.13.06-.18.05-.19-.11a6.94,6.94,0,0,0-.19-1.28c0-.07,0-.15-.11-.2a1.6,1.6,0,0,0-1.65.28.54.54,0,0,0-.17.4,1.6,1.6,0,0,0,.68,1.41A2.92,2.92,0,0,0,32.2,12.18Zm4.54,12.24a14.35,14.35,0,0,1-.11,1.85,2.75,2.75,0,0,0,0,.5c0,.1,0,.22.11.27s.19,0,.26-.1.36-.37.53-.56a6,6,0,0,0,1.38-3c0-.19,0-.25-.21-.27-.61-.05-1.23-.11-1.84-.2-.24,0-.22.05-.21.23C36.68,23.56,36.7,24,36.74,24.42Zm-1.47,8.26s0-.13-.06-.17-.17.06-.24.12a1,1,0,0,0-.14.15,4.94,4.94,0,0,1-2.16,1.56.65.65,0,0,0-.49.69,1.41,1.41,0,0,0,.27.82,1,1,0,0,0,1.71,0A5.17,5.17,0,0,0,35.27,32.68ZM46,23.61c0-.12,0-.23-.16-.25A3.61,3.61,0,0,1,44.7,23c-.12-.06-.16,0-.2.08a3.54,3.54,0,0,1-.61,1.11c-.08.1,0,.18,0,.29a4.2,4.2,0,0,1,.34,1.75,3,3,0,0,0,0,.6c0,.16,0,.39.2.43s.28-.18.36-.33a12.24,12.24,0,0,0,1.09-2.74C46,24,46,23.79,46,23.61Zm-.81-.93a4.79,4.79,0,0,0,1.66.59A2,2,0,0,0,49.22,22a7.5,7.5,0,0,0,.34-3.36,3.29,3.29,0,0,0-.11-1,10.4,10.4,0,0,1-.6,2.89,3,3,0,0,1-2.27,2A10.72,10.72,0,0,1,45.19,22.68ZM46,17a4.48,4.48,0,0,1-.4.69c-.09.11-.14.32-.3.29s-.11-.24-.17-.36,0,0,0,0c-.58-1.58-1.84-2-3.46-1.67l.13,0a5.15,5.15,0,0,1,2.38,1.47,2,2,0,0,1,.62,1.72c0,.13-.09.27.05.36s.26,0,.37-.12a.53.53,0,0,0,.13-.13,4,4,0,0,1,1-1,10,10,0,0,1,1.38-1,3.26,3.26,0,0,0-1.84.68A2.94,2.94,0,0,0,46,17Zm-4,6.47c.32.32.57.39.83.2s.21-.09.32.05.33.27.56,0a2.65,2.65,0,0,0,.37-.57c.21-.44.2-.42-.19-.69a.55.55,0,0,0-.58-.06,11,11,0,0,1-3.64.69c-.39,0-.39,0-.47.39a0,0,0,0,0,0,0,.37.37,0,0,0,.52.42,2,2,0,0,0,.33-.25c.37.36.61.32,1.05-.17C41.49,23.87,41.62,23.86,42,23.51Zm-.83,10.13a5.56,5.56,0,0,0,0-.58c0-.14,0-.33-.13-.37s-.22.13-.28.25a4.45,4.45,0,0,1-1.45,1.57.25.25,0,0,0-.14.21,2,2,0,0,1-.3.89c-.17.3-.14.38.2.49a1.46,1.46,0,0,0,1.91-1A3.93,3.93,0,0,0,41.17,33.64Zm-14.57-5,.06,0c-.1-.2-.19-.4-.28-.6a7.86,7.86,0,0,1-.81-2.88A3.93,3.93,0,0,1,26.93,22c.18-.17.37-.32.55-.48a4.2,4.2,0,0,0-1.16.58,3.17,3.17,0,0,0-1.46,3A6.92,6.92,0,0,0,26.6,28.68Zm7.12,8.79.18,0a10.1,10.1,0,0,1,3.33-.29,3.11,3.11,0,0,1,2.05,1,3.67,3.67,0,0,1,.54,1,1.79,1.79,0,0,0-1.1-2.31,4.56,4.56,0,0,0-2.34-.22A7.55,7.55,0,0,0,33.72,37.47ZM24.19,15.26a3.55,3.55,0,0,0,.47.06c1.58.09,3.15.26,4.72.49A30.6,30.6,0,0,1,35,17.08a2.29,2.29,0,0,0,.28.09c.12,0,.27.1.35-.05s0-.26-.14-.36a1.21,1.21,0,0,0-.47-.23c-.59-.17-1.19-.32-1.8-.44a40.54,40.54,0,0,0-4.68-.66C27.09,15.31,25.64,15.25,24.19,15.26Zm15.93-.84A4.71,4.71,0,0,0,36,13.87a3.49,3.49,0,0,0-1.81,1.68C36,14.25,38.05,14.3,40.12,14.42Zm8.65,5a5.3,5.3,0,0,0,.35-1.77c0-.08,0-.18,0-.22s-.14.05-.2.09a2.94,2.94,0,0,1-.55.3,7.66,7.66,0,0,0-2,1.28,5.71,5.71,0,0,0-.92,1c.13,0,.19,0,.26-.08a6.7,6.7,0,0,1,2-.82C48,19.11,48.44,19,48.77,19.42Zm-23.1.2h.21c1.17-.1,2.33-.21,3.5-.3,1.56-.12,3.11-.28,4.67-.29.19,0,.5,0,.5-.2s-.3-.2-.51-.21a35.54,35.54,0,0,0-5.74.45A16.83,16.83,0,0,0,25.67,19.62ZM37.32,34.47c-.23,0-.54,0-.85.08s-.48.1-.73.13a.75.75,0,0,0-.65.62c-.08.26,0,.36.26.32s.79-.14,1.2-.19a3,3,0,0,1,1.51,0,.35.35,0,0,0,.49-.19.94.94,0,0,0,.09-.44c0-.16-.06-.23-.22-.26A8.74,8.74,0,0,0,37.32,34.47ZM47.48,10.23A1.45,1.45,0,0,0,45.82,8.9a9.9,9.9,0,0,0-2.35.9.94.94,0,0,0,.62.2,7.15,7.15,0,0,0,1.66-.24A1.73,1.73,0,0,1,47.48,10.23ZM31.39,9c-1.79-.84-4.75-.32-5.39,1A10.86,10.86,0,0,1,31.39,9ZM44.6,11a5.25,5.25,0,0,0,1.73,1.37.18.18,0,0,0,.23,0,1.2,1.2,0,0,0,0-1.7,2.28,2.28,0,0,1-.68,1.2c0-.37-.08-.71-.11-1.05,0-.16-.07-.18-.22-.11A2.14,2.14,0,0,1,44.6,11Zm-15.85-.72c-.06.2-.13.4-.19.6a.55.55,0,0,0,.21.65,2.63,2.63,0,0,0,1.07.43A5.07,5.07,0,0,1,28.75,10.24Zm18.79,1.41c-.14.3-.25.54-.38.77-.24.4-.23.4.1.73.15.15.21.11.27-.06A2.92,2.92,0,0,0,47.54,11.65ZM45.7,13.13h0ZM26,10h0ZM17.9,7.52h0ZM18.71,30h0v0Z" style="fill: #010101;fill-rule: evenodd"/>
        <path d="M58,14.38s0-.06,0-.09a1.14,1.14,0,0,1,.45,0A.75.75,0,0,1,58,14.38Z" style="fill: #525252;fill-rule: evenodd"/>
        <path d="M12.93,35.27a37,37,0,0,1-7.24-4.84A13.44,13.44,0,0,1,1.89,25a11.21,11.21,0,0,1-.51-5.14,17.63,17.63,0,0,1,1.5-5,.71.71,0,0,1,.7-.45,5.44,5.44,0,0,1,2,.48c.18.06.07.16,0,.24a10,10,0,0,0-.81,1.72,11.79,11.79,0,0,0-.63,5.33,15.69,15.69,0,0,0,3.49,7.94,30,30,0,0,0,5.16,5l.15.14Z" style="fill: #6f6f6f;fill-rule: evenodd"/>
        <path d="M37.2,31.39a3,3,0,0,0-.35-3.09,2.18,2.18,0,0,1,2.29,1,4.47,4.47,0,0,1,.59,2,6.93,6.93,0,0,1-.09,2.08,1.19,1.19,0,0,1-.73.78,1.8,1.8,0,0,1-.76,0,14.22,14.22,0,0,0-2.35.05c-.28,0-.29,0-.24-.26a4.38,4.38,0,0,0,0-1.49c-.06-.35-.2-.44-.5-.24s-.69.51-1,.77a6.59,6.59,0,0,1-.72.44A.25.25,0,0,1,33,33.3a6.31,6.31,0,0,1-1.12-2.82,9.07,9.07,0,0,1-.13-2.55c0-.12,0-.19.18-.2,1-.07,1.92-.13,2.88-.11a1.51,1.51,0,0,1,1.23.62,6.4,6.4,0,0,1,1.13,2.81C37.17,31.17,37.18,31.28,37.2,31.39Zm-.74-.48,0,0c-.08-.33-.15-.67-.24-1a4.88,4.88,0,0,0-.23-.64c-.43-.95-1-1.26-2.34-.95C35.13,28.65,35.77,29.81,36.46,30.91Z" style="fill: #525252;fill-rule: evenodd"/>
        <path d="M20.69,9.47c-.54.93-1.11,1.84-1.6,2.8A24.83,24.83,0,0,0,17.15,17a16.06,16.06,0,0,0-.47,5,22.08,22.08,0,0,0,2,7.91,1.19,1.19,0,0,0,0,.14,1.55,1.55,0,0,1-.41-.45,19,19,0,0,1-3.38-7,12.52,12.52,0,0,1-.35-2.59,9.07,9.07,0,0,1,1.26-4.71,22.38,22.38,0,0,1,3.94-4.89l.91-.89Z" style="fill: #6f6f6f;fill-rule: evenodd"/>
        <path d="M8.5,33.82l1.08.75A24.17,24.17,0,0,0,16,37.64a17,17,0,0,0,3.79.74,9.22,9.22,0,0,0,3.35-.32c.36-.11.71-.24,1.08-.38-.1.12-.18.25-.29.37a19,19,0,0,1-3.07,2.74,1.6,1.6,0,0,1-1.62.16,33,33,0,0,1-4-2,35.33,35.33,0,0,1-4.46-3,22.13,22.13,0,0,1-2.2-2s-.09-.09-.08-.16Z" style="fill: #525252;fill-rule: evenodd"/>
        <path d="M17.73,4.2a14.92,14.92,0,0,1-1.51,1.47A10.89,10.89,0,0,1,11,8.11,12.06,12.06,0,0,1,6,7.8a17.18,17.18,0,0,1-2.7-1A23.35,23.35,0,0,0,17.73,4.2Z" style="fill: #6f6f6f;fill-rule: evenodd"/>
        <path d="M2.25,7.55A9.13,9.13,0,0,1,4,8.7a8.91,8.91,0,0,0,4.32,1.86,10.09,10.09,0,0,0,4.36-.43,18.8,18.8,0,0,0,4.8-2.36.64.64,0,0,1,.34-.17,1.89,1.89,0,0,1-.38.52,10.83,10.83,0,0,1-6.28,3.44,8,8,0,0,1-6.07-1.18A12.39,12.39,0,0,1,2.74,8.1C2.58,7.92,2.41,7.74,2.25,7.55Z" style="fill: #525252;fill-rule: evenodd"/>
        <path d="M3,9.81c.33.31.66.63,1,.93a11.23,11.23,0,0,0,5.29,2.61,5.06,5.06,0,0,0,1,0,4.33,4.33,0,0,1,2.66.73c.35.26.35.3.07.63a2.49,2.49,0,0,1-2.5.77A8.42,8.42,0,0,1,7,14a17.24,17.24,0,0,1-4-4,.45.45,0,0,1-.06-.12Z" style="fill: #525252;fill-rule: evenodd"/>
        <path d="M28,28.65A5.88,5.88,0,0,1,27.57,27a7.21,7.21,0,0,1,.31-3.54,3.39,3.39,0,0,1,2.44-2.36,3.65,3.65,0,0,1,2,.21,5,5,0,0,1,1.52.87l-.78-.11A4,4,0,0,0,29,24.17a7.9,7.9,0,0,0-.91,3.15C28.05,27.76,28,28.21,28,28.65Z" style="fill: #525252;fill-rule: evenodd"/>
        <path d="M29.43,39.58c.29.17.56.36.85.53a9.3,9.3,0,0,0,3.88,1.19,10.18,10.18,0,0,0,4.67-.65,5.28,5.28,0,0,0,2-1.28l.09,0a3.16,3.16,0,0,1-1.07,1.55,7.22,7.22,0,0,1-3.66,1.52,7.14,7.14,0,0,1-4.24-.67,6.55,6.55,0,0,1-2.41-1.93,2.12,2.12,0,0,1-.12-.2Z" style="fill: #525252;fill-rule: evenodd"/>
        <path d="M36.72,10.14a1.66,1.66,0,0,1-1,0c-.85-.25-1.64-.63-2.46-.95a14.57,14.57,0,0,0-3.42-1,7.37,7.37,0,0,0-2.39,0c0-.06,0-.08.05-.11A5.31,5.31,0,0,1,30.24,7a5.19,5.19,0,0,1,2.93.74A28,28,0,0,1,36,9.62Z" style="fill: #6f6f6f;fill-rule: evenodd"/>
        <path d="M23,13.8a5.6,5.6,0,0,1,3.55-1.7,8.81,8.81,0,0,1,3.37.52c1.06.32,2.1.72,3.19,1a9.44,9.44,0,0,0,1.3.17,2.19,2.19,0,0,1-.83.16,20.43,20.43,0,0,1-3.4-.28A28.32,28.32,0,0,0,26,13.33a9.81,9.81,0,0,0-2.73.45l-.2,0Z" style="fill: #6c6c6c;fill-rule: evenodd"/>
        <path d="M37.25,17.19A2.31,2.31,0,0,1,39,15.35l.42-.07a.9.9,0,0,1,.93.37,3,3,0,0,0,1.42.87,3.36,3.36,0,0,1,2.1,2.38.43.43,0,0,0,0,.05c0,.16.12.37,0,.44s-.18-.18-.26-.28a3.92,3.92,0,0,0-1.79-1.17c-.3-.11-.6-.2-.91-.29A4.06,4.06,0,0,1,39.58,17a1.59,1.59,0,0,0-2,0Z" style="fill: #6f6f6f;fill-rule: evenodd"/>
        <path d="M25.6,34.83a7.37,7.37,0,0,0-2.05-1.5c-.38-.19-.74-.41-1.11-.63a6.58,6.58,0,0,1-3.08-4.59,15.36,15.36,0,0,1-.31-3.38c.14.63.28,1.27.46,1.89a9.71,9.71,0,0,0,2.62,4.49c.61.57,1.29,1.06,1.93,1.6a4.81,4.81,0,0,1,1.47,1.87c0,.08.09.15.07.25Z" style="fill: #525252;fill-rule: evenodd"/>
        <path d="M34.75,21.49a32.16,32.16,0,0,0,3.54,0,17.58,17.58,0,0,0,4.55-.73,4.33,4.33,0,0,0,1.42-.72,1,1,0,0,1-.15.72,2.51,2.51,0,0,1-1.41,1.09,9.32,9.32,0,0,1-4.09.51,12.77,12.77,0,0,1-3.76-.86Z" style="fill: #525252;fill-rule: evenodd"/>
        <path d="M29.18,29.24c0,.26.06.44.07.62,0,.92.08,1.83.17,2.74a13.73,13.73,0,0,0,.51,2.69,2.13,2.13,0,0,0,2,1.61,4.65,4.65,0,0,0,1.18,0,2.57,2.57,0,0,1,.68,0c-.73.18-1.39.54-2.12.75a2.13,2.13,0,0,1-1.32,0,1.73,1.73,0,0,1-1.1-1.16,7.36,7.36,0,0,1-.37-2.28A28.07,28.07,0,0,1,29.18,29.24Z" style="fill: #525252;fill-rule: evenodd"/>
        <path d="M26.28,1.39,28.8,1.1A15.9,15.9,0,0,1,31,1a10.2,10.2,0,0,1,5.25,1.37A25.36,25.36,0,0,1,40,4.93a.53.53,0,0,1,.25.37l-.75-.46a34.93,34.93,0,0,0-3.7-2.15,10.8,10.8,0,0,0-4.21-1c-.89,0-1.77.05-2.65,0A10.27,10.27,0,0,1,26.28,1.39Z" style="fill: #6c6c6c;fill-rule: evenodd"/>
        <path d="M45.88,15.66a1.41,1.41,0,0,0-.21-.56c0-.09-.08-.16.07-.18a3.17,3.17,0,0,1,2.61.73,1.91,1.91,0,0,1,.53.84c0,.15,0,.24-.13.3l-.24.1c-.38.16-.38.16-.61-.18a.75.75,0,0,0-.87-.29,5,5,0,0,0-.74.26c-.51.18-.64.12-1-.28a3.57,3.57,0,0,0-3-1.33h-.23l-.05,0a1.48,1.48,0,0,1,.66-.36,2.73,2.73,0,0,1,3.1.9s.06,0,.08.06a.14.14,0,0,1,0,.07l0,0Z" style="fill: #6c6c6c;fill-rule: evenodd"/>
        <path d="M45.6,13.14a14.16,14.16,0,0,0-4.94-.27,5.19,5.19,0,0,1,1.25-.61A8.65,8.65,0,0,0,39,12.11a5,5,0,0,1,2.38-.7A9.41,9.41,0,0,0,38,10.69c0-.1.1-.11.15-.13a4,4,0,0,1,4.41.89.73.73,0,0,0,.32.18,12.48,12.48,0,0,1,2.4,1.19,3.65,3.65,0,0,1,.31.24Z" style="fill: #6c6c6c;fill-rule: evenodd"/>
        <path d="M32.2,12.18a2.92,2.92,0,0,1-1.63-.52,1.6,1.6,0,0,1-.68-1.41.54.54,0,0,1,.17-.4,1.58,1.58,0,0,1,1.65-.28c.09,0,.09.13.11.2A6.94,6.94,0,0,1,32,11.05c0,.16.06.17.19.11a3,3,0,0,0,1-.76.2.2,0,0,1,.3-.06c.33.19.66.38,1,.54.15.07.14.14.08.26a1.55,1.55,0,0,1-.67.67A3.39,3.39,0,0,1,32.2,12.18Zm.33-.51a2.07,2.07,0,0,0,1.34-.29c.35-.22.35-.23,0-.44l-.15-.11c-.06,0-.11-.05-.15,0A3,3,0,0,1,32.53,11.67Z" style="fill: #f9f9f9;fill-rule: evenodd"/>
        <path d="M36.74,24.42c0-.43-.06-.86-.11-1.29,0-.18,0-.27.21-.23.61.09,1.23.15,1.84.2.22,0,.25.08.22.27a6.1,6.1,0,0,1-1.39,3c-.17.19-.35.38-.53.56s-.15.14-.26.1-.11-.17-.11-.27a2.75,2.75,0,0,1,0-.5A12.76,12.76,0,0,0,36.74,24.42Z" style="fill: #f9f9f9;fill-rule: evenodd"/>
        <path d="M35.27,32.68a5.17,5.17,0,0,1-1.11,3.17,1,1,0,0,1-1.71,0,1.41,1.41,0,0,1-.27-.82.65.65,0,0,1,.49-.69,4.94,4.94,0,0,0,2.16-1.56,1,1,0,0,1,.14-.15c.07-.06.14-.17.24-.12S35.27,32.66,35.27,32.68Z" style="fill: #f9f9f9;fill-rule: evenodd"/>
        <path d="M46,23.61c0,.18,0,.36-.09.54a12.24,12.24,0,0,1-1.09,2.74c-.08.15-.17.37-.36.33s-.17-.27-.2-.43a4,4,0,0,1,0-.6,4.28,4.28,0,0,0-.34-1.76c0-.1-.06-.18,0-.28A3.65,3.65,0,0,0,44.5,23c0-.12.08-.14.2-.08a3.61,3.61,0,0,0,1.14.4C46,23.38,46,23.49,46,23.61Z" style="fill: #f9f9f9;fill-rule: evenodd"/>
        <path d="M45.19,22.68a9.22,9.22,0,0,0,1.39-.14,3,3,0,0,0,2.27-2,10.4,10.4,0,0,0,.6-2.89,3.29,3.29,0,0,1,.11,1A7.5,7.5,0,0,1,49.22,22a2,2,0,0,1-2.37,1.29A4.59,4.59,0,0,1,45.19,22.68Z" style="fill: #525252;fill-rule: evenodd"/>
        <path d="M46,17a2.71,2.71,0,0,1-.14,1,3.26,3.26,0,0,1,1.84-.68,10,10,0,0,0-1.38,1,4.38,4.38,0,0,0-1,1,.86.86,0,0,1-.13.14c-.11.07-.22.21-.37.11s-.07-.23-.05-.36a2,2,0,0,0-.62-1.72A5.18,5.18,0,0,0,41.76,16l-.13,0c1.62-.33,2.88.09,3.46,1.67,0,0,0,0,0,0s0,.34.17.36.21-.18.3-.29A4.48,4.48,0,0,0,46,17Z" style="fill: #525252;fill-rule: evenodd"/>
        <path d="M42,23.51c-.38.35-.51.36-.91,0-.44.49-.68.53-1.05.17a1.31,1.31,0,0,1-.33.25.37.37,0,0,1-.52-.42,0,0,0,0,1,0,0c.08-.38.08-.38.47-.39a11,11,0,0,0,3.64-.69.58.58,0,0,1,.58.06c.39.27.4.26.19.69a2.43,2.43,0,0,1-.37.57c-.23.26-.36.27-.56,0s-.17-.16-.32-.06S42.32,23.83,42,23.51Z" style="fill: #f9f9f9;fill-rule: evenodd"/>
        <path d="M41.17,33.64a3.93,3.93,0,0,1-.2,1.48,1.45,1.45,0,0,1-1.91,1c-.34-.11-.37-.19-.2-.49a2,2,0,0,0,.3-.89.25.25,0,0,1,.14-.21,4.45,4.45,0,0,0,1.45-1.57c.06-.12.14-.28.28-.25s.12.23.13.37A5.56,5.56,0,0,1,41.17,33.64Z" style="fill: #f9f9f9;fill-rule: evenodd"/>
        <path d="M26.6,28.68a6.92,6.92,0,0,1-1.74-3.6,3.15,3.15,0,0,1,1.46-3,4.07,4.07,0,0,1,1.16-.58c-.18.16-.37.31-.55.48a3.93,3.93,0,0,0-1.36,3.22,8,8,0,0,0,.8,2.88l.28.6Z" style="fill: #6c6c6c;fill-rule: evenodd"/>
        <path d="M24.28,17.25c1.76-.09,3.51-.09,5.26,0a44.49,44.49,0,0,1,5,.41.68.68,0,0,1,.38.18.24.24,0,0,1,.06.29.21.21,0,0,1-.25.09c-.93-.18-1.87-.27-2.8-.37-1.17-.13-2.34-.22-3.5-.3-1.39-.1-2.78-.15-4.18-.17Z" style="fill: #6c6c6c;fill-rule: evenodd"/>
        <path d="M33.72,37.47a7.55,7.55,0,0,1,2.66-.9,4.55,4.55,0,0,1,2.34.22,1.79,1.79,0,0,1,1.1,2.31,3.67,3.67,0,0,0-.54-1,3.09,3.09,0,0,0-2.05-1,10.1,10.1,0,0,0-3.33.29Z" style="fill: #6c6c6c;fill-rule: evenodd"/>
        <path d="M24.19,15.26c1.45,0,2.9.05,4.34.17a40.54,40.54,0,0,1,4.68.66c.61.12,1.21.27,1.8.44a1.21,1.21,0,0,1,.47.23c.1.1.23.2.14.36s-.23.09-.35.05a2.29,2.29,0,0,1-.28-.09,30.6,30.6,0,0,0-5.61-1.27c-1.57-.23-3.14-.4-4.72-.49A3.55,3.55,0,0,1,24.19,15.26Z" style="fill: #6c6c6c;fill-rule: evenodd"/>
        <path d="M40.12,14.42c-2.07-.12-4.13-.17-6,1.13A3.49,3.49,0,0,1,36,13.87,4.71,4.71,0,0,1,40.12,14.42Z" style="fill: #6c6c6c;fill-rule: evenodd"/>
        <path d="M48.77,19.42c-.33-.42-.74-.31-1.12-.24a7,7,0,0,0-2,.81c-.08,0-.14.12-.26.09a5.71,5.71,0,0,1,.92-1,7.66,7.66,0,0,1,2-1.28,3.65,3.65,0,0,0,.55-.3c.06,0,.11-.15.2-.1s0,.15,0,.23A5.3,5.3,0,0,1,48.77,19.42Z" style="fill: #6c6c6c;fill-rule: evenodd"/>
        <path d="M25.67,19.62a16.83,16.83,0,0,1,2.63-.55A35.54,35.54,0,0,1,34,18.62c.2,0,.51,0,.51.21s-.31.2-.5.2c-1.56,0-3.12.17-4.67.29-1.17.09-2.34.2-3.5.3Z" style="fill: #6c6c6c;fill-rule: evenodd"/>
        <path d="M37.32,34.47a8.74,8.74,0,0,1,1.1.09c.16,0,.23.1.22.26a.94.94,0,0,1-.09.44.35.35,0,0,1-.49.19,3,3,0,0,0-1.51,0c-.41,0-.8.14-1.2.19s-.34-.06-.26-.32a.74.74,0,0,1,.65-.62c.25,0,.49-.1.73-.13S37.09,34.49,37.32,34.47Z" style="fill: #f9f9f9;fill-rule: evenodd"/>
        <path d="M47.48,10.23a1.73,1.73,0,0,0-1.73-.47,7.15,7.15,0,0,1-1.66.24,1,1,0,0,1-.63-.2,10.14,10.14,0,0,1,2.36-.9A1.45,1.45,0,0,1,47.48,10.23Z" style="fill: #6c6c6c;fill-rule: evenodd"/>
        <path d="M44.75,6.84a17.55,17.55,0,0,0-3-2.19A10.54,10.54,0,0,0,40.39,4s-.14,0-.14-.1.08-.1.15-.12a.93.93,0,0,1,.57,0,5.65,5.65,0,0,1,1.64.79,8.89,8.89,0,0,1,2.17,2.24Z" style="fill: #6c6c6c;fill-rule: evenodd"/>
        <path d="M31.39,9A10.86,10.86,0,0,0,26,10C26.64,8.69,29.6,8.17,31.39,9Z" style="fill: #525252;fill-rule: evenodd"/>
        <path d="M44.6,11a2.14,2.14,0,0,0,.91-.31c.15-.07.21-.05.22.11,0,.34.07.68.11,1.05a2.28,2.28,0,0,0,.68-1.2,1.2,1.2,0,0,1,0,1.7.2.2,0,0,1-.23,0A5.12,5.12,0,0,1,44.6,11Zm1.87,1.21a1,1,0,0,0,.12-1.07,1.3,1.3,0,0,1-.17.41C46.23,11.74,46.31,11.93,46.47,12.17Z" style="fill: #f9f9f9;fill-rule: evenodd"/>
        <path d="M48.26,14.71a12,12,0,0,0-3.32-1,3.59,3.59,0,0,1,3.35,1Z" style="fill: #6c6c6c;fill-rule: evenodd"/>
        <path d="M28.75,10.24a5.07,5.07,0,0,0,1.09,1.68,2.49,2.49,0,0,1-1.07-.43.55.55,0,0,1-.21-.65C28.62,10.64,28.69,10.44,28.75,10.24Z" style="fill: #6c6c6c;fill-rule: evenodd"/>
        <path d="M47.54,11.65a2.92,2.92,0,0,1,0,1.44c-.06.18-.12.21-.27.06-.33-.33-.34-.33-.1-.73C47.29,12.19,47.4,12,47.54,11.65Z" style="fill: #6c6c6c;fill-rule: evenodd"/>
        <path d="M24.28,17.25v.09H22.81v0Z" style="fill: #525252;fill-rule: evenodd"/>
        <path d="M2.73,9.52A.53.53,0,0,1,3,9.81l0,0a.43.43,0,0,1-.2-.32Z" style="fill: #525252;fill-rule: evenodd"/>
        <path d="M20.65,9.43s0-.07.07,0,0,.06,0,.08Z" style="fill: #6f6f6f;fill-rule: evenodd"/>
        <path d="M25.6,34.83a.1.1,0,0,1,0,.05h0a.14.14,0,0,0,0-.06Z" style="fill: #525252;fill-rule: evenodd"/>
        <path d="M13,35.22s.08,0,0,.07-.06,0-.09,0Z" style="fill: #6f6f6f;fill-rule: evenodd"/>
        <path d="M44.88,7l0,.06,0,0a.19.19,0,0,1,0-.07Z" style="fill: #6c6c6c;fill-rule: evenodd"/>
        <path d="M44.82,6.92l-.07-.08,0,0a.1.1,0,0,1,.06.1Z" style="fill: #6c6c6c;fill-rule: evenodd"/>
        <path d="M23,13.82s0,0-.06,0l0,0Z" style="fill: #6c6c6c;fill-rule: evenodd"/>
        <polygon points="45.7 13.13 45.7 13.15 45.69 13.14 45.7 13.13" style="fill: #6c6c6c;fill-rule: evenodd"/>
        <polygon points="25.97 9.97 25.95 9.97 25.95 9.96 25.97 9.97" style="fill: #525252;fill-rule: evenodd"/>
        <polygon points="17.9 7.52 17.9 7.54 17.89 7.53 17.9 7.52" style="fill: #525252;fill-rule: evenodd"/>
        <polygon points="18.71 30.03 18.69 30.04 18.69 30.02 18.71 30.03" style="fill: #6f6f6f;fill-rule: evenodd"/>
        <path d="M2.73,9.51l0,0h0v0Z" style="fill: #525252;fill-rule: evenodd"/>
        <path d="M8.5,33.82l0,0h0a0,0,0,0,0,0,0Z" style="fill: #525252;fill-rule: evenodd"/>
        <path d="M44.84,6.91l0,.06h0l0-.06Z" style="fill: #6c6c6c;fill-rule: evenodd"/>
        <path d="M48.29,14.69s0,0,0,.05l0,0Z" style="fill: #6c6c6c;fill-rule: evenodd"/>
        <path d="M29.4,39.6l0,0s0,0,.05,0Z" style="fill: #525252;fill-rule: evenodd"/>
        <path d="M36.46,30.91c-.69-1.1-1.33-2.26-2.76-2.63,1.33-.31,1.91,0,2.34.95a4.88,4.88,0,0,1,.23.64c.09.33.16.67.24,1Z" style="fill: #f9f9f9;fill-rule: evenodd"/>
        <path d="M45.88,15.66l0,.05,0,0a.14.14,0,0,0,0-.07Z" style="fill: #010101;fill-rule: evenodd"/>
        <path d="M32.53,11.67a2.88,2.88,0,0,0,1-.82c0-.07.1-.06.16,0l.15.11c.34.21.34.22,0,.44A2.07,2.07,0,0,1,32.53,11.67Z" style="fill: #6f6f6f;fill-rule: evenodd"/>
        <path d="M46.47,12.17c-.16-.24-.24-.43,0-.66a1.3,1.3,0,0,0,.17-.41A1,1,0,0,1,46.47,12.17Z" style="fill: #6f6f6f;fill-rule: evenodd"/>
      </g>
    </g>
  </g>
</svg>
