<svg xmlns="http://www.w3.org/2000/svg" viewBox="0 0 60 48.2">
  <title>3</title>
  <g id="Layer_2" data-name="Layer 2">
    <g id="Layer_1-2" data-name="Layer 1">
      <g id="_3" data-name="3">
        <path d="M9.07,7.64a6.16,6.16,0,0,1-3-2.5C5.27,3.72,5.67,3,7.25,3c.68,0,1.35-.1,2-.15a2.49,2.49,0,0,0,2.29-1.45A2.3,2.3,0,0,1,14.34.05c2.17.3,4,1.13,5,3.12C20.63,5.68,22.82,5.24,24.9,5a11.42,11.42,0,0,1,5.53.6c.41.17.88.48,1.22-.26,1.06-2.31,3.24-2.93,5.5-1.61A6.28,6.28,0,0,1,38.62,5a18.4,18.4,0,0,0,4.29,3.77c1,.57.91,1.1,0,1.75-.26.18-.75.19-.66.7a1.07,1.07,0,0,0,.88.82A15.77,15.77,0,0,1,47,13.56c.21.13.43.25.63.4A3,3,0,0,1,49.15,17c-.23,1.21-1.07,1.74-2.44,1.84,1.09.84,1.7,1.78,3.2,1.6,1.83-.22,3.11,1.06,3.47,2.91.08.38.16.75.26,1.26A3.09,3.09,0,0,0,54,22.4c0-.23-.22-.51.08-.67s.47.05.68.18A5.52,5.52,0,0,1,57.14,26a1.38,1.38,0,0,0,1,1.3A2.78,2.78,0,0,1,60,30a3.48,3.48,0,0,1-2.45,4,1.79,1.79,0,0,0-1.2,1.33,5.35,5.35,0,0,1-5.2,4.21c-2.06,0-4,.76-6.12.53-.11,0-.25,0-.31,0-1.94,1.67-4.41,1.7-6.72,2-2,.27-3.47,1.33-5.14,2.12-.48.23-.36.65-.31,1a6.23,6.23,0,0,1,.05,2.11c-.17.9-.68,1.13-1.44.61a9.26,9.26,0,0,1-2-2,1.6,1.6,0,0,0-1.41-.7c-2.13-.06-4.28.41-6.39-.25-.77-.24-1.58-.37-2.34-.65a1.37,1.37,0,0,0-1.73.57,4.33,4.33,0,0,1-.59.62c-.75.63-1.39.46-1.32-.48.14-1.74-.81-2.38-2.2-3a13.82,13.82,0,0,1-6.32-6,1.36,1.36,0,0,0-1.47-.89,3.42,3.42,0,0,1-1-.11c-.36-.08-.71-.23-.78-.64a.72.72,0,0,1,.5-.74c.75-.37.74-.8.37-1.5a17.59,17.59,0,0,1-1.88-7.6,1.82,1.82,0,0,0-1.31-1.89C.73,22.47,0,22.39,0,21.75s.6-.89,1.06-1.08a2.88,2.88,0,0,0,1.77-2.6,14.41,14.41,0,0,1,2.74-6.61.69.69,0,0,0-.05-1.08A6.38,6.38,0,0,1,4.44,8.94c-.36-.67,0-1.12.73-1a7.36,7.36,0,0,1,1.65.4A1.79,1.79,0,0,0,9.07,7.64Zm7,33.87-.12.84a.86.86,0,0,0,0,.67c.06.54.13,1.07.2,1.74a7.68,7.68,0,0,0,2.26-2.58c.21-.41.75-.8.22-1.3s-1-1-1.73-.9-.8.71-.79,1.32C16.07,41.37,16.06,41.44,16,41.51ZM5.42,34.1c1.17.09,2.33-.16,3.49,0,.49.07,1.1,0,1.21-.59a2.08,2.08,0,0,0-.59-1.95,1,1,0,0,0-1.36-.05,9.81,9.81,0,0,0-2.7,2.18C5.24,33.8,5.08,33.92,5.42,34.1Zm50.24-5.69c-.47-.37.09-.43.21-.58a3.2,3.2,0,0,0-1.12-4.3c.51,1.24-.22,2.16-.61,3.17-.64,1.68-.54,1.82,1.17,1.81-.31.49-.92.44-1.37.76l.45.32c.22.15.58.25.42.61s-.47.3-.75.25a4.53,4.53,0,0,1-.82-.23,11.89,11.89,0,0,0-4-.92,48.09,48.09,0,0,1-6.37-.22,10.49,10.49,0,0,0-9.67,3.13c-1.73,1.69-3.61,2.6-6.08,1.19a12.15,12.15,0,0,0,1.21,3.85A5.17,5.17,0,0,1,29,40.53c-.26,1.39-.19,1.53,1.28,1.62a4.58,4.58,0,0,0,1.48-.06A37.73,37.73,0,0,1,39.35,41c2.25-.15,4.53-.71,5.67-3.12a.65.65,0,0,1,.82-.42c0,.57-.73,1-.35,1.4s1.14.17,1.73.08a3.23,3.23,0,0,0,1.35-.6,24.28,24.28,0,0,0,3.24-2.75c.15-.16.44-.29.22-.68-2.54.26-4.81-.79-7.1-1.73a11.12,11.12,0,0,0-6-.83c-1.34.19-2.66.45-4,.66-.22,0-.54.17-.66-.12s.19-.5.41-.64A8.41,8.41,0,0,1,39.94,31a43.34,43.34,0,0,1,11,2.52c2.64,1,4.88-.29,7.22-1.12a1.27,1.27,0,0,0,.41-.33c.91-.86.53-1.92.38-2.9-.1-.72-.79-.95-1.41-1.13S56.28,28.31,55.66,28.41Zm-31.6-8.57a3.55,3.55,0,0,0-1.92.6,65.34,65.34,0,0,0-6.08,4.1A23.75,23.75,0,0,0,12,28.4a2.88,2.88,0,0,0-.85,2.66,23.06,23.06,0,0,0,3.29,7.22,1.89,1.89,0,0,0,1.47.73,5.79,5.79,0,0,1,3.54,1.79,4.56,4.56,0,0,0,3.09,1.48,24.37,24.37,0,0,0,3.08.07A2.52,2.52,0,0,0,27.8,38.7a27.39,27.39,0,0,1-1.72-4.46c-1-4.09-1.09-8.14.72-12.07.18-.41.14-.55,0-.52-.7.12-.4-.32-.33-.56A1.6,1.6,0,0,1,28.86,20a17.68,17.68,0,0,1,3.29,2.14A23.5,23.5,0,0,0,37,25.37c1.11.45,1.08.47,1.07-.76,0-.56-.4-1.41.24-1.63s1.16.54,1.62,1a1.31,1.31,0,0,1,.24.34,2.83,2.83,0,0,0,3.18,2.15c1.69-.06,2.51-.21,3.29-1.68a3.29,3.29,0,0,0,2.21.9,12.79,12.79,0,0,1,3,.11c.55.12.72-.26.76-.76a3.64,3.64,0,0,0-3.71-3.57c-1.48,0-1.46,0-1.68,1.42a1.82,1.82,0,0,1-1.09,1.47c-.57.21-.89-.32-1.2-.69a3.67,3.67,0,0,0-2.25-1.09c-.66-.13-1.33-.25-2-.39-.31-.07-.69-.11-.73-.51s.36-.55.68-.69a6,6,0,0,0,2.13-1c-1.56-.19-2.8.75-4.26.79.22-.5.64-.64,1-.88,1.77-1.29,1.85-3,.25-4.54-1.4-1.31-3-2.35-4.45-3.62-.25-.22-.86-.42-.53-.85s.8-.14,1.17.12a8.36,8.36,0,0,1,.76.57,29.71,29.71,0,0,1,2.47,2.15c.14.16.37.58.66.34s-.08-.46-.18-.7c-.3-.66-.9-1.21-.9-2.11a4.05,4.05,0,0,1,1.73,2.17c1.2,2.45,2.76,4.47,5.86,4.41.65,0,1.46.08,1.73-.71a2,2,0,0,0-.64-2.32A12.61,12.61,0,0,0,43,12.72c-.81-.21-2,.23-2.17-1.2,0-.07-.16-.13-.24-.2a12,12,0,0,0-3.59-2c-2.69-.88-5.37-1.8-8.06-2.71a2.07,2.07,0,0,0-1.44-.09A14.71,14.71,0,0,1,30.35,8c.23.17.46.42.26.72s-.51.19-.75,0a5,5,0,0,1-.94-.7,10.61,10.61,0,0,0-3-1.93c-1.15-.56-2.71-.21-4,.26-.12,0-.28.18-.29.29-.08,1-.54.43-.83.16a23.68,23.68,0,0,1-2.69-3.29,6.08,6.08,0,0,0-3.71-2.29A1.43,1.43,0,0,0,12.52,2a7.81,7.81,0,0,1-3,2.83c.21-.53.22-.84-.41-.82a9.2,9.2,0,0,1-1.47-.17c-.27,0-.59-.17-.79.09s0,.54.11.8a4.06,4.06,0,0,0,3.36,2.13c2.12.32,4.24.41,5.46-1.93.1-.19.24-.37.5-.3s.23.26.23.44c0,.47.3.68.67.85a1.19,1.19,0,0,1,.77.82.62.62,0,0,1-.09.49c-.15.16-.33,0-.45-.12-.77-.8-1.46-.88-2.13.13a1.29,1.29,0,0,1-.62.4c-.45.18-.55.45-.38.91a3.47,3.47,0,0,1-.39,2.73,1.25,1.25,0,0,1-.32-.88c-.07-.37,0-.87-.4-1A1.15,1.15,0,0,0,12,9.9a2.57,2.57,0,0,0-.52.67,64.89,64.89,0,0,1-3.8,6.88,1.81,1.81,0,0,0-.34,1.42c.39,1.25.48,2.64,1.88,3.37a4.94,4.94,0,0,1,1.28,1.26,1.67,1.67,0,0,1,.4,1.85A5.33,5.33,0,0,0,9.3,23.43c-.25-.16-.49-.5-.83-.3s-.22.57-.18.87a17.78,17.78,0,0,0,1.49,4.54c.14.32.22.75.73.86a12.6,12.6,0,0,1,5-5.74c1.61-1,3.16-2.15,4.73-3.25.38-.26.91-.5,1-.95a4.54,4.54,0,0,1,1.45-2.41c.5-.54.41-.89-.2-1.24a5.51,5.51,0,0,1-2-2c-.95-1.61-.55-3.16.31-4.64a3,3,0,0,1,3.49-1.39,16.21,16.21,0,0,1,8.56,4.64C34.43,14,36,15.52,37.61,17c1.07.95,1.23.87,2.06-.24a1.12,1.12,0,0,1-.13,1.53,1.26,1.26,0,0,1-1.62.39,12.37,12.37,0,0,1-2.63-1.59c-2.25-1.68-4.51-3.33-6.76-5a8,8,0,0,0-4.63-1.67,1.92,1.92,0,0,0-2,2.62,5.42,5.42,0,0,0,2,2.51c.93.77.91,1,0,1.8-.54.51-1.32.77-1.73,1.65a8.53,8.53,0,0,1,2.55-.1c.72.12,1-.46.65-1.13a3.53,3.53,0,0,1-.08-3.27c.12-.29.6-.52.2-.9s-.65-.05-1,.13c-.15.09-.34.2-.49.08s-.12-.39-.08-.59A1.47,1.47,0,0,1,25.38,12a4.5,4.5,0,0,1,2.52.69c3.62,1.89,6.16,5.34,10,6.88a.73.73,0,0,1,.37.83c-.09.39-.46.24-.72.22a4.17,4.17,0,0,0-1.88.25c-.24.11-.64.09-.63.46s.39.35.62.49a12.59,12.59,0,0,0,2.72.67,4,4,0,0,1-1.31.36,10.19,10.19,0,0,1-5.64-2.18,18.5,18.5,0,0,0-2.8-1.92,1.83,1.83,0,0,0-2.09.16,6.39,6.39,0,0,0-2.37,3.56c-.29,1.06-.56,2.12-.85,3.18-.12.44-.46.7-.88.54s-.15-.55-.05-.82C23.09,23.58,23.26,21.68,24.06,19.84Zm2.69,8a3.22,3.22,0,0,1,.76-2.08c.39-.62.76-.68,1.13,0s.64,1.11.95,1.66.56.46.88.05a16.62,16.62,0,0,1,1.34-1.65c.52-.49,1.05-.55,1.4.29.26.61.14,1.65.94,1.72s1-.94,1.51-1.39c.38-.31.34-.55-.12-.77a9.87,9.87,0,0,1-2.21-1.26.57.57,0,0,0-.77,0c-.71.53-1.15.19-1.52-.47-.78-1.35-1-1.36-1.88,0-.39.6-.68.62-1.11.08-.59-.75-1-.47-1.27.27a10,10,0,0,0-.37,5.24c.25,1.66,1.33,2.13,2.75,1.21.48-.3.71-.31,1.1.12.93,1,1.09,1,2.2.14a11.79,11.79,0,0,1,3.89-2.33,1.48,1.48,0,0,0,1.21-1.3c0-.32.41-.7,0-.95s-.78,0-1.07.39a9.9,9.9,0,0,1-1.76,1.84c-.55.41-.91.36-1.31-.21-1-1.49-1.05-1.48-2.22-.11-.94,1.1-1.19,1.09-2-.1-.32-.46-.52-1.16-1-1.36C27.55,26.64,27.52,27.78,26.75,27.88ZM36.59,6.4c.46,0,.51.32.56.49.49,1.59,1.94,2.17,3.1,3.06a1.7,1.7,0,0,0,1.32.29c.38-.07.87-.11.94-.55s-.41-.53-.72-.66A5.84,5.84,0,0,1,38.55,6.1,3.72,3.72,0,0,0,34.94,4a2.25,2.25,0,0,0-2.51,1.8c-.17.56,0,.88.52,1,.91.27,1.82.58,2.74.82.31.08.7.44,1,.09a.91.91,0,0,0-.1-1C36.52,6.65,36.57,6.53,36.59,6.4ZM25.93,15.88c.11,1.47.11,1.45,1.67,1.38a2,2,0,0,1,1,.16c.91.58,1.34.52,1.81-.62.28-.71.14-.92-.33-1.22-.77-.49-1.56-1-2.35-1.44-1.25-.72-1.82-.38-1.86,1.1C25.89,15.46,25.92,15.67,25.93,15.88ZM49.65,38.5A4.64,4.64,0,0,0,55,36c.22-.52.79-1.27.31-1.61s-1.37,0-1.81.51A50.81,50.81,0,0,1,49.65,38.5ZM1.5,21.44a10.5,10.5,0,0,0,4,1.36c1,.05,1.17-.76,1.22-1.52s-.41-1.13-1.2-1.08A9.67,9.67,0,0,0,1.5,21.44ZM5.58,8.94A13.82,13.82,0,0,0,8,12c.5.46,1.13.68,1.63-.08s.51-1.33-.31-1.8A8.68,8.68,0,0,0,5.58,8.94ZM39,24c-.3,1.32-.54,2.42-.79,3.5-.07.3-.4.58-.1.88s.55,0,.81-.06A8.38,8.38,0,0,0,40,28a.66.66,0,0,0,.45-.93A10.65,10.65,0,0,0,39,24ZM31.6,45.85a5.86,5.86,0,0,0-.45-2.37c-.32-.86-1-.38-1.53-.24a.65.65,0,0,0-.42,1.07c.42.63.89,1.23,1.37,1.83.21.26.47.68.82.57S31.54,46.09,31.6,45.85ZM51.35,26.71a1.76,1.76,0,0,0-.34,0c-.62.1-1,.35-1.09,1.07s.6.59,1,.7a9,9,0,0,1,.93.24c.88.36,1.08-.18,1.13-.85C53.06,26.87,52.35,26.7,51.35,26.71Zm-5.5,1.52c.54-.05.95-.12,1.37-.13a12.74,12.74,0,0,1,1.38.06c.4,0,.51-.19.47-.51s.24-.64-.28-.77A3,3,0,0,0,45.85,28.23Zm-2.55.12a5,5,0,0,0,1.6-.16c.2-.08.4-.2.33-.46a.37.37,0,0,0-.51-.25,3.12,3.12,0,0,1-2.17-.08.55.55,0,0,0-.8.45c-.1.6.4.42.72.46Zm-1.71-9.88c.08.29-.22.84.42.73.37-.06,1-.06,1-.59a1,1,0,0,0-.89-1C41.48,17.57,41.72,18.15,41.59,18.47Zm-8.94-.83c-.07-.28-.22-.56-.6-.55a.83.83,0,0,0-.88.74.54.54,0,0,0,.61.67C32.25,18.47,32.53,18.17,32.65,17.64Zm10.61,2.19a13.92,13.92,0,0,1,3,.18C45.23,19.33,45.23,19.33,43.26,19.83Zm1.63,1.29a1.81,1.81,0,0,1,.83,1.07c.06.23.13.54.47.39A.53.53,0,0,0,46.5,22C46.33,21.23,45.86,20.92,44.89,21.12Z" style="fill: #101115;fill-rule: evenodd"/>
        <path d="M24.06,19.84c-.8,1.84-1,3.74-1.65,5.5-.11.26-.4.64.05.81s.75-.1.88-.54c.29-1.06.56-2.12.85-3.18a6.29,6.29,0,0,1,2.37-3.55,1.79,1.79,0,0,1,2.08-.16,16.81,16.81,0,0,1,2.81,1.92,10.34,10.34,0,0,0,5.64,2.18,4.32,4.32,0,0,0,1.31-.37,12,12,0,0,1-2.72-.66c-.23-.14-.61-.17-.62-.5s.38-.35.63-.45a4,4,0,0,1,1.88-.25c.26,0,.62.17.71-.23a.7.7,0,0,0-.36-.82c-3.86-1.54-6.41-5-10-6.88a4.43,4.43,0,0,0-2.52-.7A1.47,1.47,0,0,0,24,13.21c0,.21-.11.45.08.6s.33,0,.49-.09.59-.48,1-.13-.08.61-.21.9a3.56,3.56,0,0,0,.09,3.27c.35.67.07,1.26-.66,1.14a8.8,8.8,0,0,0-2.54.09c.41-.87,1.19-1.13,1.73-1.64.9-.85.92-1,0-1.8a5.61,5.61,0,0,1-2-2.51,1.92,1.92,0,0,1,2-2.62,8,8,0,0,1,4.63,1.66l6.76,5a12.34,12.34,0,0,0,2.62,1.6,1.28,1.28,0,0,0,1.63-.39,1.14,1.14,0,0,0,.13-1.54c-.84,1.12-1,1.19-2.06.24-1.64-1.46-3.19-3-4.79-4.52a16.18,16.18,0,0,0-8.56-4.64,3,3,0,0,0-3.49,1.39c-.86,1.48-1.26,3-.32,4.63a5.53,5.53,0,0,0,2.05,2c.61.35.7.7.2,1.25a4.54,4.54,0,0,0-1.45,2.41c-.06.44-.6.68-1,.94-1.57,1.1-3.12,2.22-4.73,3.25a12.57,12.57,0,0,0-5,5.75c-.51-.11-.59-.54-.74-.87A18.08,18.08,0,0,1,8.29,24c0-.31-.17-.68.18-.88s.58.14.83.31a5.24,5.24,0,0,1,1.56,1.92,1.68,1.68,0,0,0-.4-1.85,5,5,0,0,0-1.28-1.27c-1.41-.72-1.49-2.12-1.88-3.37a1.75,1.75,0,0,1,.34-1.41,64.06,64.06,0,0,0,3.8-6.89A2.71,2.71,0,0,1,12,9.9a1.19,1.19,0,0,1,1.22-.49c.44.15.33.65.39,1a1.32,1.32,0,0,0,.33.89,3.44,3.44,0,0,0,.38-2.73c-.16-.47-.06-.73.39-.92a1.27,1.27,0,0,0,.62-.39c.67-1,1.36-.93,2.13-.14.12.12.3.28.45.12A.66.66,0,0,0,18,6.77,1.19,1.19,0,0,0,17.18,6c-.37-.17-.68-.37-.68-.85,0-.17,0-.37-.22-.43a.42.42,0,0,0-.5.29C14.56,7.3,12.44,7.21,10.32,6.9A4.08,4.08,0,0,1,7,4.76c-.12-.25-.32-.53-.12-.79s.52-.13.8-.09A9.18,9.18,0,0,0,9.11,4c.63,0,.62.29.41.83a8,8,0,0,0,3-2.83,1.42,1.42,0,0,1,1.85-.75,6.12,6.12,0,0,1,3.71,2.28,23,23,0,0,0,2.69,3.29c.29.27.74.9.83-.16,0-.1.17-.24.29-.28,1.33-.47,2.89-.83,4-.26a10.39,10.39,0,0,1,3,1.93,5.75,5.75,0,0,0,.93.69c.25.16.56.28.76,0s0-.56-.26-.72a15.36,15.36,0,0,0-2.83-1.54A2.07,2.07,0,0,1,29,6.58c2.69.91,5.36,1.83,8.06,2.72a11.81,11.81,0,0,1,3.59,2c.08.06.23.12.23.2.17,1.42,1.37,1,2.18,1.19a12.65,12.65,0,0,1,4.35,2.15A2,2,0,0,1,48,17.19c-.27.8-1.08.7-1.74.72-3.09.06-4.65-2-5.85-4.42a4,4,0,0,0-1.73-2.16c0,.89.6,1.44.9,2.11.1.23.51.44.18.7s-.52-.19-.66-.34a29.47,29.47,0,0,0-2.47-2.15,9.11,9.11,0,0,0-.77-.58c-.37-.25-.9-.45-1.16-.11s.27.62.53.85c1.43,1.26,3,2.3,4.45,3.62,1.59,1.49,1.52,3.24-.25,4.53-.33.24-.75.38-1,.89,1.46,0,2.7-1,4.25-.8a5.85,5.85,0,0,1-2.12,1c-.33.14-.73.23-.68.69s.42.44.72.51l2,.4a3.61,3.61,0,0,1,2.25,1.09c.31.37.64.9,1.2.68a1.75,1.75,0,0,0,1.09-1.47c.23-1.42.21-1.42,1.69-1.42a3.64,3.64,0,0,1,3.71,3.57c0,.5-.21.89-.76.76a13.43,13.43,0,0,0-3-.11,3.28,3.28,0,0,1-2.2-.9c-.78,1.48-1.6,1.62-3.29,1.68a2.82,2.82,0,0,1-3.18-2.14,1.21,1.21,0,0,0-.24-.35c-.46-.49-1-1.24-1.62-1s-.24,1.06-.24,1.63c0,1.23,0,1.21-1.07.75a23.17,23.17,0,0,1-4.86-3.22A18.39,18.39,0,0,0,28.85,20a1.6,1.6,0,0,0-2.41,1.08c-.07.25-.38.69.33.57.16,0,.21.1,0,.51-1.8,3.93-1.71,8-.72,12.08A27.69,27.69,0,0,0,27.8,38.7a2.52,2.52,0,0,1-2.21,3.65,24.33,24.33,0,0,1-3.08-.06,4.66,4.66,0,0,1-3.1-1.49A5.81,5.81,0,0,0,15.88,39a1.83,1.83,0,0,1-1.47-.73,22.88,22.88,0,0,1-3.29-7.21A2.84,2.84,0,0,1,12,28.41a23.08,23.08,0,0,1,4.09-3.87,63.94,63.94,0,0,1,6.08-4.09A3.48,3.48,0,0,1,24.06,19.84ZM16.71,30.1c0,.25-.15.7.26.78s.47-.38.59-.65c.19-.45.32-.93.49-1.4a19.69,19.69,0,0,1,4-6.67c.21-.23.8-.38.51-.77s-.73-.06-1.05.16a4.36,4.36,0,0,0-.77.72A24.64,24.64,0,0,0,17.2,27.9,5.57,5.57,0,0,0,16.71,30.1Zm.64-18.68a2.59,2.59,0,0,0,.22,2.76,1.68,1.68,0,0,1-.16,2.34c.88-.43,1-.54,1-1C18.29,14.09,17.46,12.86,17.35,11.42Zm32.42,11a.45.45,0,0,0-.5.44.54.54,0,0,0,.55.63.44.44,0,0,0,.51-.42A.61.61,0,0,0,49.77,22.38Zm-6.83,1.78c-.06-.31-.23-.52-.56-.48a.51.51,0,0,0,.06,1A.48.48,0,0,0,42.94,24.16Zm8.19-.08c.22,0,.38-.22.45-.51a.28.28,0,0,0-.26-.37.59.59,0,0,0-.64.56C50.66,23.93,50.8,24.08,51.13,24.08Z" style="fill: #7f7f7f;fill-rule: evenodd"/>
        <path d="M55.66,28.41c.62-.1,1.15-.61,1.83-.4s1.31.41,1.41,1.12c.14,1,.52,2.05-.38,2.91a1.39,1.39,0,0,1-.41.33c-2.34.83-4.58,2.09-7.23,1.12A43.61,43.61,0,0,0,39.94,31a8.46,8.46,0,0,0-5.27,1.29c-.23.14-.57.28-.42.64s.45.15.67.12c1.33-.22,2.65-.47,4-.67a11.25,11.25,0,0,1,6,.83c2.28.95,4.55,2,7.09,1.74.23.39-.06.52-.21.68a24.21,24.21,0,0,1-3.24,2.74,3,3,0,0,1-1.35.6c-.59.1-1.31.35-1.73-.08s.39-.82.34-1.39a.63.63,0,0,0-.81.42c-1.15,2.41-3.42,3-5.67,3.12a37.93,37.93,0,0,0-7.65,1.09,4.85,4.85,0,0,1-1.48.06c-1.46-.09-1.54-.23-1.27-1.62a5.16,5.16,0,0,0-.64-3.28,12.48,12.48,0,0,1-1.22-3.86c2.47,1.42,4.35.51,6.08-1.18a10.5,10.5,0,0,1,9.68-3.13,49.76,49.76,0,0,0,6.36.22,11.93,11.93,0,0,1,4,.91,4.69,4.69,0,0,0,.81.24c.29.05.62.06.75-.25s-.19-.46-.42-.61l-.44-.32c.45-.32,1.06-.27,1.37-.76Z" style="fill: #7f7f7f;fill-rule: evenodd"/>
        <path d="M26.75,27.88c.77-.1.8-1.24,1.46-.95.44.19.64.9,1,1.36.8,1.19,1,1.2,2,.1,1.16-1.37,1.18-1.38,2.22.11.4.57.76.62,1.31.21a9.9,9.9,0,0,0,1.76-1.84c.29-.36.61-.66,1.07-.4s.09.64,0,1a1.48,1.48,0,0,1-1.21,1.3,11.53,11.53,0,0,0-3.89,2.33c-1.11.86-1.27.88-2.2-.14-.39-.43-.62-.42-1.1-.12-1.42.92-2.51.45-2.75-1.21a9.85,9.85,0,0,1,.37-5.24c.29-.74.68-1,1.27-.27.43.54.72.52,1.11-.08.9-1.36,1.1-1.35,1.87,0,.38.65.82,1,1.53.47a.57.57,0,0,1,.77,0,9.87,9.87,0,0,0,2.21,1.26c.46.21.5.46.12.77-.54.45-.83,1.44-1.51,1.38s-.68-1.1-.94-1.71c-.35-.84-.88-.78-1.4-.29a16.62,16.62,0,0,0-1.34,1.65c-.32.41-.6.43-.88-.05s-.65-1.1-.95-1.66-.74-.64-1.13,0A3.22,3.22,0,0,0,26.75,27.88Z" style="fill: #fdfdfd;fill-rule: evenodd"/>
        <path d="M36.59,6.4c0,.13-.07.25,0,.32a.91.91,0,0,1,.1,1c-.27.35-.65,0-1-.09-.93-.24-1.84-.55-2.75-.82-.56-.17-.69-.49-.51-1A2.24,2.24,0,0,1,35,4a3.72,3.72,0,0,1,3.6,2.14A5.84,5.84,0,0,0,41.79,9c.31.13.79.22.72.65s-.55.48-.94.55A1.63,1.63,0,0,1,40.26,10c-1.17-.89-2.62-1.47-3.11-3.06C37.1,6.72,37.06,6.37,36.59,6.4Z" style="fill: #7f7f7f;fill-rule: evenodd"/>
        <path d="M25.93,15.88c0-.21,0-.42,0-.64,0-1.48.61-1.82,1.86-1.1.79.46,1.58.95,2.35,1.44.47.3.61.51.33,1.22-.47,1.14-.9,1.2-1.81.62a2,2,0,0,0-1-.16C26,17.33,26,17.35,25.93,15.88Z" style="fill: #fdfdfd;fill-rule: evenodd"/>
        <path d="M49.65,38.5a50.81,50.81,0,0,0,3.87-3.65c.44-.47,1.31-.88,1.81-.51S55.24,35.43,55,36A4.64,4.64,0,0,1,49.65,38.5Z" style="fill: #c0c1c7;fill-rule: evenodd"/>
        <path d="M5.47,33.68A9.92,9.92,0,0,1,8.16,31.5a1,1,0,0,1,1.36.05,2.08,2.08,0,0,1,.6,1.95c-.11.61-.72.66-1.21.59-1.17-.15-2.32.1-3.49,0C5.44,34,5.45,33.82,5.47,33.68Z" style="fill: #fdfdfd;fill-rule: evenodd"/>
        <path d="M16.09,41.3c0-.61.13-1.2.79-1.32s1.25.44,1.73.9,0,.89-.22,1.3a7.68,7.68,0,0,1-2.26,2.58c-.07-.67-.14-1.2-.2-1.74.29,0,.62,0,.57-.39s-.34-.28-.58-.28l.12-.84C16.06,41.44,16.07,41.37,16.09,41.3Z" style="fill: #fdfdfd;fill-rule: evenodd"/>
        <path d="M55.66,28.41l-.35.1c-1.72,0-1.81-.13-1.17-1.81.39-1,1.12-1.93.61-3.17a3.2,3.2,0,0,1,1.12,4.3C55.75,28,55.19,28,55.66,28.41Z" style="fill: #fdfdfd;fill-rule: evenodd"/>
        <path d="M1.5,21.44a9.67,9.67,0,0,1,4-1.24c.79-.05,1.24.27,1.2,1.08s-.21,1.57-1.22,1.52A10.5,10.5,0,0,1,1.5,21.44Zm3.8,0a4,4,0,0,0-2.34,0A1.83,1.83,0,0,0,5.3,21.42Z" style="fill: #fdfdfd;fill-rule: evenodd"/>
        <path d="M5.58,8.94a8.68,8.68,0,0,1,3.73,1.17c.82.47.75,1.12.31,1.8S8.49,12.45,8,12A13.82,13.82,0,0,1,5.58,8.94Z" style="fill: #fdfdfd;fill-rule: evenodd"/>
        <path d="M39,24A10.65,10.65,0,0,1,40.47,27,.66.66,0,0,1,40,28a8.38,8.38,0,0,1-1.11.34c-.26.05-.56.29-.81.06s0-.58.1-.88C38.45,26.38,38.69,25.29,39,24Z" style="fill: #fdfdfd;fill-rule: evenodd"/>
        <path d="M31.6,45.85c-.06.24.19.73-.21.86s-.61-.31-.82-.57c-.48-.6-.95-1.2-1.37-1.83a.65.65,0,0,1,.42-1.07c.52-.14,1.21-.62,1.53.24A5.86,5.86,0,0,1,31.6,45.85Z" style="fill: #fdfdfd;fill-rule: evenodd"/>
        <path d="M51.35,26.71c1,0,1.71.16,1.65,1.2,0,.67-.25,1.21-1.13.85a9,9,0,0,0-.93-.24c-.42-.11-1.07.15-1-.7s.47-1,1.09-1.07Z" style="fill: #fdfdfd;fill-rule: evenodd"/>
        <path d="M45.85,28.23a3,3,0,0,1,2.94-1.35c.52.13.24.51.28.77s-.07.55-.47.51a12.74,12.74,0,0,0-1.38-.06C46.8,28.11,46.39,28.18,45.85,28.23Z" style="fill: #fdfdfd;fill-rule: evenodd"/>
        <path d="M43.3,28.35l-.83,0c-.32,0-.82.14-.72-.46a.55.55,0,0,1,.8-.45,3.12,3.12,0,0,0,2.17.08.37.37,0,0,1,.51.25c.07.26-.13.38-.33.46A5,5,0,0,1,43.3,28.35Z" style="fill: #fdfdfd;fill-rule: evenodd"/>
        <path d="M41.59,18.47c.13-.32-.11-.9.48-.89a1,1,0,0,1,.89,1c0,.53-.59.53-1,.59C41.37,19.31,41.67,18.76,41.59,18.47Z" style="fill: #c0c1c7;fill-rule: evenodd"/>
        <path d="M32.65,17.64c-.12.53-.4.83-.87.86a.54.54,0,0,1-.61-.66.83.83,0,0,1,.88-.75C32.43,17.08,32.58,17.36,32.65,17.64Z" style="fill: #fdfdfd;fill-rule: evenodd"/>
        <path d="M43.26,19.83c2-.5,2-.5,3,.18A13.92,13.92,0,0,0,43.26,19.83Z" style="fill: #c0c1c7;fill-rule: evenodd"/>
        <path d="M44.89,21.12c1-.2,1.44.11,1.61.85a.53.53,0,0,1-.31.61c-.34.15-.41-.16-.47-.39A1.81,1.81,0,0,0,44.89,21.12Z" style="fill: #c0c1c7;fill-rule: evenodd"/>
        <path d="M16.09,41.3c0,.07,0,.14-.05.21S16.07,41.37,16.09,41.3Z" style="fill: #c0c1c7;fill-rule: evenodd"/>
        <path d="M16.71,30.1a5.57,5.57,0,0,1,.49-2.2,24.34,24.34,0,0,1,3.56-5.63,3.76,3.76,0,0,1,.77-.72c.31-.22.77-.52,1-.16s-.3.54-.51.77a19.5,19.5,0,0,0-4,6.67c-.18.47-.31,1-.5,1.4-.12.27-.21.72-.59.65S16.75,30.35,16.71,30.1Z" style="fill: #101115;fill-rule: evenodd"/>
        <path d="M17.35,11.42c.11,1.44.94,2.67,1,4.09,0,.47-.11.58-1,1a1.68,1.68,0,0,0,.16-2.34A2.59,2.59,0,0,1,17.35,11.42Z" style="fill: #101115;fill-rule: evenodd"/>
        <path d="M49.77,22.38a.61.61,0,0,1,.56.65.44.44,0,0,1-.51.42.54.54,0,0,1-.55-.63A.45.45,0,0,1,49.77,22.38Z" style="fill: #101115;fill-rule: evenodd"/>
        <path d="M42.94,24.16c0,.32-.17.53-.5.53a.47.47,0,0,1-.5-.43.48.48,0,0,1,.44-.58C42.71,23.64,42.88,23.85,42.94,24.16Z" style="fill: #101115;fill-rule: evenodd"/>
        <path d="M51.13,24.08c-.33,0-.47-.15-.45-.32a.59.59,0,0,1,.64-.56.28.28,0,0,1,.26.37C51.51,23.86,51.35,24.07,51.13,24.08Z" style="fill: #101115;fill-rule: evenodd"/>
      </g>
    </g>
  </g>
</svg>
