<svg xmlns="http://www.w3.org/2000/svg" viewBox="0 0 60 56.32">
  <title>30</title>
  <g id="Layer_2" data-name="Layer 2">
    <g id="Layer_1-2" data-name="Layer 1">
      <g id="_30" data-name="30">
        <path d="M47.16,40.2,60,30.79S57.56,18.44,54.7,13.2c0,0,4.67-6.41,1.12-10,0,0-3.84-3.63-10,0,0,0-5-3.21-8.88-3.16-.69,0-6.27.92-7,1-.69-.12-6.27-1-7-1-3.87,0-8.88,3.16-8.88,3.16-6.14-3.63-10,0-10,0C.63,6.79,5.3,13.2,5.3,13.2,2.44,18.44,0,30.79,0,30.79L12.84,40.2,11,43,29.93,56.22v.1l.07,0,.07,0v-.1L49,43Z" style="fill: #f7851e"/>
        <path d="M30,54.48,13,42.61l1.8-2.77L1.63,30.16c.62-2.91,2.68-12.08,5-16.25L7,13.09l-.54-.75c0-.05-3.83-5.47-1.29-8.13A5.77,5.77,0,0,1,8.85,3a9,9,0,0,1,4.57,1.41l.77.46L15,4.39c.05,0,4.62-2.93,8-2.93H23c.45,0,3.28.44,6.74,1l.24,0,.24,0c3.46-.57,6.29-1,6.73-1h.08c3.38,0,8,2.9,8,2.93l.76.49.77-.46A9,9,0,0,1,51.15,3a5.76,5.76,0,0,1,3.64,1.2c2.55,2.66-1.24,8.08-1.28,8.13l-.54.75.44.82c2.28,4.17,4.35,13.34,5,16.25L45.18,39.84,47,42.61,30,54.48Z" style="fill: #082115"/>
        <path d="M22.71,19.2s-3.28-6.88,1.74-8.83A2.52,2.52,0,0,1,26.86,9a4.08,4.08,0,0,0-.63,2.27s5.24.38.63,3.59C26.86,14.87,22.43,13.51,22.71,19.2Z" style="fill: #f7851d"/>
        <path d="M37.51,19.2s3.28-6.88-1.75-8.83A2.5,2.5,0,0,0,33.36,9,4,4,0,0,1,34,11.28s-5.23.38-.62,3.59C33.36,14.87,37.79,13.51,37.51,19.2Z" style="fill: #f7851d"/>
        <path d="M25.6,15.52s-2.41,5.86,1.15,7.79c-.08-1.2,0-4.92,0-4.92l1.65,1.52.73-1.62,1,1.62,1.07-1.52.87,1.5,1.59-1.68v5.1s3.3-2,1.21-7.56l-1.44,1-1.07-.58-4.61,0-.91.58Z" style="fill: #fffeff"/>
        <ellipse cx="20.38" cy="10.02" rx="1.13" ry="0.8" style="fill: #fff"/>
        <path d="M16.33,34.34s3.8-7.47,2.3-14.73c0,0-1.43-6,2.58-9,0,0-4-1.05-5.41,0,0,0,.32-.56,1.43-3l5.86.77,2.3-1.78-.76,1.71a7.56,7.56,0,0,1,5.49-1.22V4.23S24.81,3.25,23,3a56.94,56.94,0,0,0-9.08,3.11C12.94,6,8,2.84,6.59,5.66c0,0-.24,2.55,1,4,0,0,.17-3.14,2.26-1.29a2.55,2.55,0,0,0,3.11.14C12.35,10,10.22,15,9.73,17.84l2-1.12A92.81,92.81,0,0,0,11,30.5Z" style="fill: #92562e"/>
        <path d="M8,20.84s-1.81,5-1.6,6.22l4.74,3.51s.25-13.21.63-13.83l-1.87.89a25.4,25.4,0,0,1,3-8.94s-3.9,1.67-7,13.55Z" style="fill: #f6851d"/>
        <ellipse cx="39.87" cy="10.02" rx="1.13" ry="0.8" style="fill: #fff"/>
        <path d="M43.92,34.34s-3.8-7.47-2.3-14.73c0,0,1.43-6-2.58-9,0,0,4-1.05,5.4,0,0,0-.31-.56-1.43-3l-5.86.77L34.85,6.6l.77,1.71a7.57,7.57,0,0,0-5.5-1.22V4.23s5.31-1,7.16-1.26a56.54,56.54,0,0,1,9.08,3.11c.94-.1,5.93-3.24,7.29-.42,0,0,.25,2.55-.94,4,0,0-.17-3.14-2.27-1.29a2.54,2.54,0,0,1-3.1.14C47.9,10,50,15,50.51,17.84l-1.95-1.12a91.94,91.94,0,0,1,.73,13.78Z" style="fill: #92562e"/>
        <path d="M52.29,20.84s1.82,5,1.61,6.22l-4.75,3.51s-.24-13.21-.63-13.83l1.88.89a25.31,25.31,0,0,0-3-8.94s3.9,1.67,7,13.55Z" style="fill: #f6851d"/>
        <path d="M23.83,33.92l1.38,5,1.37-.55.84.28h5.44l.66-.35,1.49.62a16.28,16.28,0,0,0,1.41-5s-2.34,3.21-4.12,1.6l-.84.77-1.34-.7L29,36.43l-1.12-.87S26,37.44,23.83,33.92Z" style="fill: #fefefe"/>
        <path d="M27,24.86l2.06-1.31.9,6.59,1.14-6.59,2.18,1.65s-.63-.76-.32,7.16c0,0,.34,1.81-2.88,1.56,0,0-2.88.46-2.77-1.5C27.35,32.42,27.61,25.69,27,24.86Z" style="fill: #bc1f31"/>
        <path d="M30,42.43c-8-2.88-8.54-4.23-8.65-4.39a56.59,56.59,0,0,1,.59-9.69,27.36,27.36,0,0,0-2.76,7.53c-.76,4.15,1.08,5.33,1.22,5.44.36.44,9.6,7,9.6,7s9.24-6.53,9.61-7c.13-.11,2-1.29,1.21-5.44a27.36,27.36,0,0,0-2.76-7.53A56.59,56.59,0,0,1,38.65,38C38.55,38.2,38,39.55,30,42.43Z" style="fill: #f6851e"/>
      </g>
    </g>
  </g>
</svg>
