<svg xmlns="http://www.w3.org/2000/svg" viewBox="0 0 50.33 60">
  <title>31</title>
  <g id="Layer_2" data-name="Layer 2">
    <g id="Layer_1-2" data-name="Layer 1">
      <g id="_31" data-name="31">
        <path d="M27.8,60a1.39,1.39,0,0,1-1.13-.61A2.54,2.54,0,0,1,26.59,57a1.66,1.66,0,0,1,.15-1.33,1.9,1.9,0,0,1,.16-1.62,2.47,2.47,0,0,1,0-1.89,4.91,4.91,0,0,1-1-3.14,6.32,6.32,0,0,1-2.62-5.78,7.49,7.49,0,0,1-1.92-2.94,5.92,5.92,0,0,1-.64,0A6.13,6.13,0,0,1,18,39.7c-.39.06-.93.11-1.63.17-3.18.27-9.11.77-13.48,3.78L0,45.64l1.81-3a28.58,28.58,0,0,1,4.31-5.1A41.09,41.09,0,0,1,19.47,29a25.14,25.14,0,0,1,.32-4.7,12.86,12.86,0,0,1-8.56-10.87,21,21,0,0,1,.6-7.74v0c.3-2.29.41-3.15,0-4.34h0a1,1,0,0,1,.09-1A.86.86,0,0,1,12.62,0a1.08,1.08,0,0,1,.6.2c.67.34,2.62,1.93,2.53,8.88.58,4.66,3.56,6.8,6,7.24H22A11.19,11.19,0,0,1,20.4,14v-.06a11.49,11.49,0,0,1-.79-4.71c0-.06.15-4.7-1.29-6.88v0a1.12,1.12,0,0,1-.11-1.14.83.83,0,0,1,.74-.42,1.28,1.28,0,0,1,.79.3,10.2,10.2,0,0,1,2.62,3.35,8,8,0,0,1,.84,2.54c.06.32.13.64.22,1A5.1,5.1,0,0,0,26,11.55c.07-.3.15-.71.25-1.25l.13-.67.67,0a28.57,28.57,0,0,1,11.39,3.7l0,0h0A19.22,19.22,0,0,1,47,25.47,4.41,4.41,0,0,0,48.1,25l1.11-1,.17,1.49a3.82,3.82,0,0,1-1.48,3.42,3.52,3.52,0,0,1,.1.95,1.89,1.89,0,0,0,0,.37v.07c0,.14.18.26.42.44a1.42,1.42,0,0,1,.75,1.4v0a4.54,4.54,0,0,1-.2.62,5.19,5.19,0,0,1,1.23,2.8v.48l-1.3.6c0,.31-.09.73-.18,1.13A2.44,2.44,0,0,1,50.29,40c.14,1.1-.08,2.48-1.17,2.78h0l-6.51.86a37,37,0,0,1-1.65,4.89l0,0v0C39.44,51.22,37.41,52.76,35,53l-2,.23a5.82,5.82,0,0,1-1.37,2.58l-.18.21a2.91,2.91,0,0,1-.82,1.59,2.45,2.45,0,0,1-1.39,1.67A2.51,2.51,0,0,1,27.9,60h-.1M33,49.92A9.35,9.35,0,0,1,33,53l1.37-1.29a6.94,6.94,0,0,0,2.46-6.37,22.16,22.16,0,0,0-3,1.61,6.28,6.28,0,0,1-.88,3" style="fill: #bbbdbf"/>
        <path d="M48.62,25.55a2.94,2.94,0,0,1-1.7,3c.51.77.21,1.37.37,1.88.18.85,1.28,1,1.17,1.55s-.35.86-.27,1a6,6,0,0,1,1.28,2.61l-1.25.59a8.21,8.21,0,0,1-.48,2.26A1.59,1.59,0,0,1,49.54,40s.23,1.73-.62,2l-7,.93a37.87,37.87,0,0,1-1.74,5.27c-1.06,2-2.73,3.79-5.28,4.07,3.44-3.22,2.76-6.21,2.59-8a25.56,25.56,0,0,0-4.36,2.33,5.52,5.52,0,0,1-.93,3.18c.74,4.11-1,5.24-1.5,6a2.07,2.07,0,0,1-.81,1.47,1.69,1.69,0,0,1-1.12,1.45,2.12,2.12,0,0,1-1,.57c-.41,0-1.09-.49-.48-2.12,0,0,.07-.12-.05-.38s.1-.72.24-1-.51-.71.23-1.68a1.89,1.89,0,0,1,0-2.12s-1.29-.89-1.17-3.34A5.74,5.74,0,0,1,24,43a6.65,6.65,0,0,1-2.12-3.56,4.58,4.58,0,0,1-3.77-.49c-1.62.38-9.92.18-15.65,4.12,0,0,5.25-8.7,17.78-13.48a21.72,21.72,0,0,1,.43-5.72A12.12,12.12,0,0,1,12,13.34a20.19,20.19,0,0,1,.59-7.48c.32-2.4.46-3.39,0-4.76-.15-.47.2-.35.28-.25S15.1,1.69,15,9.12c.64,5.38,4.23,7.55,6.64,8,0,0,2,0,2.17,0-.34-.6-1.32-.74-2.73-3.46a10.75,10.75,0,0,1-.73-4.4s.18-4.9-1.41-7.32c-.37-.63.17-.4.27-.3a9.43,9.43,0,0,1,2.43,3.12,11.84,11.84,0,0,1,1,3.34c.55,2.19,1.27,3.15,3.83,4.64A8.36,8.36,0,0,0,27,10.44a27.78,27.78,0,0,1,11,3.59,18.39,18.39,0,0,1,8.29,12.28v.09a6.92,6.92,0,0,0,2.25-.85" style="fill: #0b080c"/>
        <path d="M46.86,38.76s1.91-.2,2,1.08c.19.93,0,1.18-.24,1.19s-5.27-.33-5.64-.32a8.12,8.12,0,0,1,4.38-4.15,5.35,5.35,0,0,1-.53,2.2" style="fill: #eabd9d"/>
        <path d="M33.09,45.54a32.92,32.92,0,0,1,4.47-2.09,10.29,10.29,0,0,1,.15-2c-1.77,0-3.18,0-4.43-4.31a1.6,1.6,0,0,1-1.2-.61,1,1,0,0,1-.2.23,6.36,6.36,0,0,1,.58,6.25,14,14,0,0,1,.64,2.51" style="fill: #eabd9d"/>
        <path d="M42.19,42.16a40.9,40.9,0,0,1,5.27-.61c3.63-.26-4.93-.09-4.93-.09Z" style="fill: #eabd9d"/>
        <path d="M47.85,31.72c-.24-.19-.82-.19-1-1.11a4.48,4.48,0,0,0-.41-2c-1.18.31-2.24-.34-4.51-.38a7.93,7.93,0,0,0-1.86.49s-.28-.25,0-2c-.57,0-1.72.14-1.72.14S38,30.34,36.5,32.08c3.57.64,2.15,4.06,2,4.63a10.58,10.58,0,0,0-.3-2.45,3.57,3.57,0,0,0-2.36-1.13,20.05,20.05,0,0,1-2.85,2.69c.19.2.35.63,1.68.14-.22,1.14-.22,5.11,3.28,4.75a10,10,0,0,1,6.53-7.9c-.48-2.29,1.7-1.35,1.7-1.35s-1.57-.17-1.12,1.21a9.84,9.84,0,0,1,2.58,0c.52,0,.5-.77.26-1m-4.67-2.55c.07.09.42.43.41.57s0,1.5-.51,1.84a8.75,8.75,0,0,0-3.14,2.9l0,0S40,32.39,43,30.83c.2-1,.25-1.12.24-1.16-.29-.21-.15-.27-2.53-.52.66-.19,2.61-.8,3.51-.31-.58,0-1.07.23-1,.33" style="fill: #eabd9d"/>
        <path d="M35.71,23.12s.35,2.56-2.69,4.38c-.81.47-4.47,1.77-6.88-2.33A2.08,2.08,0,0,0,24.73,25a30.2,30.2,0,0,0-3.65.77c0,.17-.31,3.51-.06,3.42s5.91-1.76,6.05-1.49a4.4,4.4,0,0,0,4.8,2.46c3.62-.77,3.65-3.56,3.74-3.66.68-.11,6.53-.83,10.17-.16a11.13,11.13,0,0,0-1-3.2c-.35-.25-7.8-.45-9.12,0" style="fill: #4f3281"/>
        <path d="M40.67,27.57a.92.92,0,0,1,1-1c2.1-.11,3.51.33,4.5.25A4.51,4.51,0,0,0,48,26.4c-.51,2.76-4.13,1.37-5,1.23a5.68,5.68,0,0,1,1-.37c-2.43-.34-3.26.65-3.26.65Z" style="fill: #ffc449"/>
        <path d="M44.61,35.55A11.13,11.13,0,0,0,42,41.19s2.17-5,6.75-5.95a2.72,2.72,0,0,0-1.19-2,5.47,5.47,0,0,0-2.7.14,9.93,9.93,0,0,0-5,3.84,11.42,11.42,0,0,0-1.58,5.37c-.1,1.87.26,4.05-.43,6.69,0,0,.31-.05,1-3.14.35-1.52-.08-3.71,1.34-7.15a7.59,7.59,0,0,1,1.74-2.24,12.83,12.83,0,0,0-1.62,4.21c-.5,1.76-.34,4.73-1.14,7.73A7.2,7.2,0,0,0,40.38,46c.82-2.21.56-4.9,2.14-8.29a5.83,5.83,0,0,1,2.09-2.17" style="fill: #ffc449"/>
        <path d="M5.25,40.64s2-.84,3.13-1.13a29,29,0,0,1,10.14-7.33,49,49,0,0,1,8.34-3.32s-.19-.44-.39-.43a35.29,35.29,0,0,0-7.23,2.14,40.8,40.8,0,0,0-14,10.07" style="fill: #ffc449"/>
        <path d="M18.72,38.47s.73.2,3.21-2.14a16.55,16.55,0,0,1-.07,2.41,3.33,3.33,0,0,1-3.14-.27" style="fill: #ffc449"/>
        <path d="M9.48,39.24a25.1,25.1,0,0,1,3.82-3.51,33,33,0,0,1,7.84-4.12,15.6,15.6,0,0,0-3.52,2.84c.76-.46,3.59-2.3,5.6-3.35a67.54,67.54,0,0,1-6.52,5.39,23.78,23.78,0,0,0,3.74-2.09c1.15-.84,2.69-2.31,4.32-3.49a22.25,22.25,0,0,1,2.47-1.49,10.75,10.75,0,0,0,1.83,1.19,6.5,6.5,0,0,0-3.27,3.44,20.21,20.21,0,0,1,1.94-1.87c.67-.55,1.62-.9,2.15-1.34a8.62,8.62,0,0,0,1.71.18c-.44.43-3.67,2.43-4.11,2.74a7,7,0,0,0-2.92,5.57,12.55,12.55,0,0,1,1.25-3.15,6.73,6.73,0,0,1,2-1.92c.77-.54,2-1.06,3.52-2a13.54,13.54,0,0,0,2.23-1.85,5,5,0,0,0,2.7-3.2A11,11,0,0,0,37.53,27,10.43,10.43,0,0,1,36,31.43c-4.15,5.23-7.56,6.06-9.21,12.5a9.46,9.46,0,0,1,1.15-5.48c-.1.09-1.63,1.12-2,5.13a7.12,7.12,0,0,1-3.4-3.82,11.75,11.75,0,0,1,.15-5.17,10,10,0,0,1-6.82,3.82,34.81,34.81,0,0,0-6.44.83" style="fill: #ffc449"/>
        <path d="M31.17,37.33a25.33,25.33,0,0,0-2.44,3.22,13,13,0,0,0-1.22,4.05,25.15,25.15,0,0,1,2.32,1.57c.32-1.1,2.13-3.22,2.43-4.77a4.43,4.43,0,0,0-1.09-4.07" style="fill: #ffc449"/>
        <path d="M28.83,49.06a35.78,35.78,0,0,1-3-2,5.59,5.59,0,0,1-1.23-3.58s5,3,5,3.25-.68,2-.76,2.29" style="fill: #ffc449"/>
        <path d="M29.46,49.44a3.81,3.81,0,0,1,1.33,1c3.1-4.09,1.11-6.4,1.11-6.4-1.19,1.06-2.44,5.37-2.44,5.37" style="fill: #ffc449"/>
        <path d="M27.43,49.11s-.32,2,2.13,3.41c0,0,.77-1.25.91-1.54s-2.55-1.65-3.06-1.9" style="fill: #ffc449"/>
        <path d="M30.22,55.41a4.75,4.75,0,0,0,1.31-5,12.52,12.52,0,0,0-2.2,4s.24.07.89,1" style="fill: #ffc449"/>
        <path d="M28.42,52.36a1.21,1.21,0,0,0,.46,1.89c.49-1.32.46-1.27.46-1.27l-.92-.62" style="fill: #ffc449"/>
        <path d="M29.65,56.7a.82.82,0,0,0,0-1.35c-.82-.66-.63-.21-1.5-1.07a1,1,0,0,0,0,1.24c.11.15,1,.5,1.25.86s.19.32.19.32" style="fill: #ffc449"/>
        <path d="M28,55.84s1.52,1.07,1.29,1.74c-.24.36-.4.45-.51.44a.79.79,0,0,0-.35-.68,2.08,2.08,0,0,1-.7-.74.89.89,0,0,1,.27-.76" style="fill: #ffc449"/>
        <path d="M27.89,57.38s1,1.11.1,1.3c-.81-.09-.1-1.3-.1-1.3" style="fill: #ffc449"/>
        <path d="M21.18,25.14l2.62-.59s-2.21-.6-2.46-.6c0,0-.16,1.19-.16,1.19" style="fill: #ffc449"/>
        <path d="M24.27,17s1.42-2,2.63-3.78a6.61,6.61,0,0,0,.62-2c9.56.82,15.39,7,17,11.28a29.73,29.73,0,0,0-8.8,0c-.07-.36-.61-7.68-11.44-5.53" style="fill: #ffc449"/>
        <path d="M27.09,25.49a16.14,16.14,0,0,1,2.11.31c.17.05-.25-.26-1.68-.92-2.2-1.12-7.46-.92-11.18-4.2-2.86-2.76-4.69-7-3.34-13.39l.11,2.51a35.37,35.37,0,0,0,.46-3.94c-.07-.57.32,2.8.26,3.61a8.2,8.2,0,0,0,.31-2.06s.13,0,.14.37a11.05,11.05,0,0,0,1.56,6,8.83,8.83,0,0,0,3.89,3.4,6.36,6.36,0,0,0,2.28.55c1.65.2,6.25-1,8.84.08,2.74.87,4.85,2.87,3.9,6.48.12-.87.19-1.07,0-1.52a3.92,3.92,0,0,1-.39,1.51,3.57,3.57,0,0,0-1.19-3.87s3.42,5-2.46,6.44c0,0,.54.34,2.83-.54a4.44,4.44,0,0,1-6.5-.81" style="fill: #fff"/>
        <path d="M24.12,16a10.79,10.79,0,0,1-1.9-1.94c-1.57-2.63-1-4.36-1.17-6.06-.14-1-.21-1.63-.21-1.63s.34,1.26.48,1.82c0-.12-.18-1.89-.25-2.37,0-.09.55,1.82.61,2.29a14.85,14.85,0,0,0,0-1.66c.35.64.09,3.09,2.12,5.2a18.74,18.74,0,0,0,2.11,1.67" style="fill: #fff"/>
      </g>
    </g>
  </g>
</svg>
