<svg xmlns="http://www.w3.org/2000/svg" viewBox="0 0 46.74 60">
  <title>32</title>
  <g id="Layer_2" data-name="Layer 2">
    <g id="Layer_1-2" data-name="Layer 1">
      <g id="_32" data-name="32">
        <path d="M10.44,31.09s-1.94.31-5.06,3.23a3,3,0,0,1-1.73.89s-3.16,5.6-2.53,7.31c0,0,.89,2.1,4.12-.26.18-.12.5-.26.68-.07A8.41,8.41,0,0,1,4.68,44.5c-.95,1.13-2.09,2.11-2.29,3.31-.07.45-.12,1.8,1.26,1.92a7,7,0,0,0,3.2-.48A19.61,19.61,0,0,0,13.23,46c.65-.48,1.16-1.4,1.89-2a20.62,20.62,0,0,1,2.23,6s4.08,6,4.4,8.54c0,0,.35,1.51,1.56,1.44,0,0,1.51.27,2.61-3a22.32,22.32,0,0,0,2.94-5.37,11.25,11.25,0,0,0,3.39-5.13s3.51-2.21,3.39-7.64c0,0,.82-.56.82-7.44,0,0,13.79-7.27,9.43-16.12,0,0-2.34-5.34-10.91-1.36,0,0-1.77-8.37-2-8.72S28.08-2.61,25.91,1a3.68,3.68,0,0,0-2,1S23.17-.78,21.2.23c-.81.67-4.11,2.39-6.15,6.15l-1.47,8S1.85,9.82.2,17.72C.2,17.72-2.3,23.94,10.44,31.09Z" style="fill: #030707"/>
        <path d="M27.58,30.7c-3.1-2.81-4.66,0-4.66,0-4.55,0-4.56,1.28-4.56,1.28-1.62.16-1.27-.35-1.27-.35C16.11,31.4,15,33,15,33c-4.11-3.29-6.67.3-6.67.3-1.71,2.21-3,2.09-3,2.09-.27.48-2,5-2,5,4-2.57,6.66-1.69,6.66-1.69,2.16-3.53,3.72-2.7,3.72-2.7.95.17.48,1.3.48,1.3l0,.06c-.72,1.36-5.89,3.41-5.89,3.41C8,43.05,4.54,47.16,4.54,47.16c10.26-1,11.19-8.48,11.19-8.48a13.92,13.92,0,0,0,1.57,3.89C18.61,43.76,19.65,48,19.65,48a10.44,10.44,0,0,0,2.13,4.64,22.34,22.34,0,0,1,2.71,4.66l2.58-3.49C27.91,48.91,30.6,48,30.6,48c1.1-4,2.74-5,2.74-5,1.83-.26,2.31-9.28,2.31-9.28C29.68,33.28,27.58,30.7,27.58,30.7ZM12.1,41.47c-1.65,3-3.68,2.81-3.68,2.81.77-1.76,3.68-3.9,3.68-3.9-.73-.21-2.67,1.37-2.67,1.37l-.14-1.09c4.43-1.23,5.31-3,5.31-3C15.62,39.43,12.1,41.47,12.1,41.47Zm3.38-4A6.79,6.79,0,0,0,14,35.68c-2.55-.84-2.76.5-3.44,1.22a1.37,1.37,0,0,1-1.06.35c1.2-4.14,4.57-1.9,4.57-1.9l.32-1a5.08,5.08,0,0,0-5.48,1.56c1.47-4.57,5.87-1.83,5.87-1.83l.91-1a12.65,12.65,0,0,0,1,3.49C15.27,36.55,15.48,37.43,15.48,37.43Zm7.09-6.08h1.19v1.2s-1.22.56.5,2.8c0,0-1.62,0-1.69-.84Zm-5.06,5.21c1.23-4.66,4.18-4.47,4.18-4.47C22,33.18,21,33.6,20,34.5,18.76,35.54,17.51,36.56,17.51,36.56Zm7.41,6.35s-2.45,7.58-1.51,9.41c0,0-4.34-.93-.65-8.4a28.42,28.42,0,0,1,1.6-3.26A2.17,2.17,0,0,1,24.92,42.91Zm2-6.64V32.76S29.88,32.33,26.89,36.27Zm6.92,4.95c-.56.25-1.22,0-2.39-1.51-.63-1.41-1.63-3-1.4-3.13s1.9.67,2.49,2.78C33.11,40.87,34.13,40,33.81,41.22Zm.06-5.86H30.61V34.5h3.26s2.71-.52.68,1.77A4,4,0,0,1,33.87,35.36Z" style="fill: #f01928"/>
        <path d="M15.24,28.35s.24-2.22-.91-1.87C14.33,26.48,13.88,27.28,15.24,28.35Z" style="fill: #e5ce89"/>
        <path d="M35.85,28.85h-.92s0,2.52.92,2.92Z" style="fill: #e5ce89"/>
        <polygon points="16.44 29.45 15.64 29.88 15.64 31.66 16.44 31.14 16.44 29.45" style="fill: #e5ce89"/>
        <path d="M34.56,32.79V30.93H33.48l.07-1.05s1.42-1.71.56-2.71c0,0-3-4.07-3.11-1.91,0,0,1.53.24,1.83,2.49,0,0-2.85-3.3-5.36-.58a1.86,1.86,0,0,1-.88-1.3s4.13-.56,4.15-1.51a5.14,5.14,0,0,0-4.18-1.6l.05.56a19.38,19.38,0,0,0-3.11-.56l1.86,1.06-.68,0-1.88-.61,1.61,1-2.12.05s-1.37-1.45-2-1.45c-.42,0-3.35,1.18-3.81,2.23a2.05,2.05,0,0,0,.65,1.46v.79s-1.5.82,0,1.8l1.69,0s-2.36,2-1,2.67c0,0,.72-1.5,4.73-1.11A2,2,0,0,1,24.4,29s.33-1.37-.78-1c0,0,0,.83-1.05.83l0-.91h-.44s-.08.87-.38.87l-2.06.06L19.55,28h-.39v.76s-1.37.31-1.28-.34c0,0,.11-2.12,5.13-1.37,0,0-1.21-2.54-5.11-.37,0,0,.35-2.3,3.46-1.89,0,0,3.3.56,2.21,2.23,0,0,1.33.23,1.07,2h1.75V27.51h.18v1.56h.25s1.86,4.07,9,4v-.28Zm-3.63-4.18s-2.95.56-3.16-.42c0,0,1.33-2.83,4.1-.79a1.47,1.47,0,0,1,.51,1S30.72,26.79,30.93,28.61Z" style="fill: #e5ce89"/>
        <path d="M16,14.8s3-3.19,16.74-.52c0,0-.33,1.13-3.05.52,0,0-9.7-1.39-12,.61Z" style="fill: #fff"/>
        <path d="M23.63,19.62C18,19.34,12,15.47,12,15.47a9.68,9.68,0,0,0-10.5,2.09C3.31,11.33,9.53,13.16,17,16a21,21,0,0,0,6.64,1.59h0A35.64,35.64,0,0,0,30.31,16c7.47-2.81,13.68-4.64,15.55,1.59a9.68,9.68,0,0,0-10.5-2.09s-6,3.87-11.68,4.15Z" style="fill: #f4f7f8"/>
      </g>
    </g>
  </g>
</svg>
