<svg xmlns="http://www.w3.org/2000/svg" viewBox="0 0 50.69 60">
  <title>33</title>
  <g id="Layer_2" data-name="Layer 2">
    <g id="Layer_1-2" data-name="Layer 1">
      <g id="_33" data-name="33">
        <path d="M20.87,58.93A59.46,59.46,0,0,1,13,53.07c-.17-.21-.27-.33-.69-1.56-.86,1-2.32,2.51-4.82,5L5.6,58.36,4.14,56.07c-1-1.58-3.56-7-3.85-7.63L0,47.82l.12-.68A153.69,153.69,0,0,1,5.48,24.52a8.64,8.64,0,0,1-.37-2.59c-2-6.75.35-11.28,2.67-13.91a16,16,0,0,1,5.64-4.08l.14,0,.18-.11C17.25,1.67,22.53,1.05,23.12,1h0l.41-.11C26.32.09,32.21,0,33.15,0H35.5L45.6,0,42.73,3.61c-1,1.27-2,4.76-2.52,7.8,4.08,4.3,5.15,8.06,5.42,9.86,4,4,5.47,7.1,4.73,9.7a4.3,4.3,0,0,1-1.77,2.42,4.52,4.52,0,0,0,.11,1.41,4.28,4.28,0,0,1,2,3.24,4.11,4.11,0,0,1-.76,2.57,7.93,7.93,0,0,1-1.58,6.09c-1.43,1.69-3.67,2.54-6.64,2.54a22.7,22.7,0,0,1-5.47-.76A16.67,16.67,0,0,1,34,54l-.8,1.19L31.81,55a34.37,34.37,0,0,1-6.22-2.07c-.68,2.07-1.56,4.47-1.7,4.83L23.05,60Z" style="fill: #d3d3d3"/>
        <path d="M21.71,57.2a68.7,68.7,0,0,1-7.17-5.33s-.15-.19-2.15-6.46L11.9,49l0,0c-.39.88-5.15,5.57-5.69,6.1L6,55.33,5.76,55c-1-1.51-3.61-7.18-3.72-7.42l0-.07v-.09c2.44-14.17,5.15-21.93,5.54-23A6.15,6.15,0,0,1,7,21.66C5.18,15.6,7.2,11.59,9.22,9.3a14.14,14.14,0,0,1,4.9-3.57l.31-.12.06.32c.06.31.12.58.19.83-.07-.62-.08-1-.08-1.09V5.51l.13-.08c3.21-1.94,8.38-2.51,8.6-2.53l.28,0,.14,1.5.16-1.6.18,0C26.71,2,33,1.94,33.22,1.93h.29l-.13,3.44a22.17,22.17,0,0,1,1-3.26l.07-.17h7.15l-.36.45c-1.9,2.36-2.92,8.65-3.08,9.66,5.12,5,5.6,9.32,5.65,10.09,3.67,3.61,5.26,6.39,4.71,8.29a2.6,2.6,0,0,1-1.73,1.72c-.45,3.28.52,4,.53,4a2.64,2.64,0,0,1,1.46,2A2.53,2.53,0,0,1,47.93,40c.36,2.37,0,4.2-1,5.43s-2.8,1.87-5.17,1.87A23.71,23.71,0,0,1,34.66,46a15.29,15.29,0,0,1-2.23,7l-.1.15-.17,0a43.55,43.55,0,0,1-7.77-2.8c-.52,1.94-2.22,6.57-2.3,6.78l-.11.29Z"/>
        <path d="M7.85,24.42s-2.92,7.7-5.57,23.09c0,0,2.75,5.87,3.71,7.38,0,0,5.26-5.15,5.64-6l.65-4.7s2.34,7.35,2.48,7.52A69.24,69.24,0,0,0,21.83,57s2-5.4,2.37-7.08a46.66,46.66,0,0,0,8,2.92,15.33,15.33,0,0,0,2.2-7.18s15.08,5.7,13.22-5.7c0,0,2.24-1.82-.48-3.51,0,0-1.17-.75-.62-4.46,0,0,5.64-1.24-3-9.68,0,0-.05-4.63-5.67-10.11,0,0,1-7.29,3.16-9.93l-6.39,0A15.16,15.16,0,0,0,33.5,7.09l-.45,0,.17-4.9s-6.44,0-9,.77L24,5.25h-.38l-.21-2.08s-5.29.57-8.48,2.49a12.68,12.68,0,0,0,.6,3.53s-.67-.3-1.26-3.2c0,0-10.48,4.1-6.91,15.64A5.71,5.71,0,0,0,7.85,24.42Z" style="fill: #1e2d4e"/>
        <circle cx="10.91" cy="22.47" r="1.86" style="fill: #f01928"/>
        <path d="M4.25,41.82,5.38,41l-1,.24,1.76-7.81,1-.64-.61-.1,2-7.12H9l0,.1c.59,2-1.93,18.29-2,19v.06l-3.44,2Z" style="fill: #040000"/>
        <path d="M8.59,25.66l-1.9,6.87.81.14-1.22.8L4.59,41,6,40.66,4.38,41.9l-.64,4.49,3.14-1.81s2.63-16.91,2-18.92Z" style="fill: #fff"/>
        <path d="M7.85,45,9.67,32.78h.27l1.26,5.9-.59-.12.71.6c.09.07.21.17-.17,4.29-.18,2-.4,4-.4,4l0,.28Z" style="fill: #040300"/>
        <path d="M10.61,47.46s.87-8,.62-8.2l-1.12-.94.91.19L9.81,32.8,8,44.9Z" style="fill: #fff"/>
        <path d="M13.87,44.79l.79-1.4-1.05.67L11.49,35.5l.84-1-.85.21-1.39-8.9.88-.26,0,.13c1.16,3.42,6.93,20.53,6.86,21v0l0,0-2.43,3-.17.2Z" style="fill: #070005"/>
        <path d="M10.88,25.68s6.92,20.48,6.85,20.91l-2.43,3L14,44.81l1-1.84-1.35.87-2.06-8.31,1-1.31-1.1.28-1.35-8.64Z" style="fill: #fff"/>
        <path d="M18.87,46.21,12,25.47l1.07-.41,2.77,5.24v0c-.13,1.53,1.4,3,1.41,3.05.25.29,1.82,4.21,2.13,5l.06.14-.9.23,1.09.21,3.4,8.77Z" style="fill: #050007"/>
        <path d="M12.21,25.56,19,46.1l3.85,1.41-3.26-8.42L18,38.78l1.34-.34s-1.85-4.67-2.09-4.95c0,0-1.6-1.54-1.46-3.16l-2.69-5.1Z" style="fill: #fff"/>
        <path d="M13.59,19.84a3.86,3.86,0,0,1,.43,4.4c.3.66,2.06,3.71,2.06,3.71s3.64-5.61,8.29-.07c0,0-4.07,0-4.74,3.3,0,0-.57-2.18,2.57-3.92,0,0-2.89-2.22-5.25,1.51a3.87,3.87,0,0,0,.35,3.29,6.76,6.76,0,0,1,2.36,3.56c.66.64,1.37,1,2.06.66,0,0-1.84-1.86-.43-3a2,2,0,0,1,2.77.1c.56.57.83,1.56-.28,3.27a15.05,15.05,0,0,1,3.57,1.9c1.22.93,1.76,2.21,3.32,3.25a22.7,22.7,0,0,0,5.8,3s11.59,3.28,9.69-4.69l-4.77-.28s4.15-.36,5-.91c0,0,1.13-.76-.27-1.15a31.34,31.34,0,0,0-6.76.78,7.29,7.29,0,0,1-2.24,2.66s1.39-2.25,1.33-3.41c0,0,4.6-1.54,7.26-1a7.53,7.53,0,0,1-1-4.35s-4.16.87-3.32-5.13h.42s-.28,5.45,3.61,3.32a1.48,1.48,0,0,0,.94-2.45,37.81,37.81,0,0,0-4.44-5.31c-.07-.53-.09-1.95-.09-1.95l-1.24.25s0,3.51-3,3.62c0,0-.37-1.69-3.39-1.58,0,0,2.72-2,4.46-2.27,0,0-2.33-.87-5.68,1.63,0,0,2.27-2.5,4.26-2.68,0,0,4.77.39,3.94-1,0,0-2.52-5-4.71-5.75,0,0-11.66-3.44-22.89,6.71" style="fill: #f1cead"/>
        <path d="M38.35,28.09l0,1.52a19.75,19.75,0,0,1-7-.8c.1-.33.58-1.49.58-1.49A29,29,0,0,0,38.35,28.09Z" style="fill: #fff"/>
        <path d="M30.77,31.51s1.66,1.14,7,.93c0-.17,0-1.51,0-1.51s-5.18,0-6.42-.95Z" style="fill: #fff"/>
      </g>
    </g>
  </g>
</svg>
