<svg xmlns="http://www.w3.org/2000/svg" viewBox="0 0 43.57 60">
  <title>34</title>
  <g id="Layer_2" data-name="Layer 2">
    <g id="Layer_1-2" data-name="Layer 1">
      <g id="_34" data-name="34">
        <path d="M30.37,19.65l-1.5,1a4.5,4.5,0,0,1,2.67-2.16H30.47a14.85,14.85,0,0,1,1.42-2.08,4.15,4.15,0,0,1,1.75-.72A4.56,4.56,0,0,0,30.93,15a3,3,0,0,0,.33-.44,5.48,5.48,0,0,0-3.38.53,1.28,1.28,0,0,1,.34-.44s-.85.15-3.17,2.2c0-.14.4-1,.4-1A8.62,8.62,0,0,1,22,18.49a8.83,8.83,0,0,0,2.56-3.8c-.18.18-.8.68-.8.68s-.11-1.24,2.66-2.14C26.16,13.17,25,13,25,13s1.93-1,2.18-4.32a3.31,3.31,0,0,1-2.71,1.11,7.22,7.22,0,0,1,.78-.82s-.6-.07-2.8,1.71l.4-1.12s-.79,1.15-1.58,1.06a6.17,6.17,0,0,1,4-2.8H24l2.49-.94L23,6.61l1-.45a7.21,7.21,0,0,0-3.55,1l.22-.65A5.26,5.26,0,0,1,19,7.59L20.1,6.12l-.63.09a4.59,4.59,0,0,0,1-.9c.2-.33.86-1.72.86-1.72A5.8,5.8,0,0,1,18.09,5.1c-.15.07-1.11.65-1.11.65l-.37-.48-.92.78.05-.76-.57,0a3.62,3.62,0,0,0,.93-1.75A11.1,11.1,0,0,0,15.66,0a22.08,22.08,0,0,0-5.05,5.41,3.73,3.73,0,0,1,.16-.76S6,9.85,3.2,22H3.09V21.8s-.58.11-1.24-.95c0,0,.65.95.37,1.31,0,0-.5.52-.78-.82l-.11.41L1,21.64s1,.79.6,1.19c-.16.1-.49.1-.76-.71l-.07.22H.46v.27l-.46,0s1.27.55.51,1.5c.12.1,1.59,1,.28,1.88,0,0,1.32.54,0,.54,0,0,.44.26-.06,1.25,0,0,.68-.61.91-.26,0,.14.16.16-.47.66.09.11.17.05.17.05a5,5,0,0,0-.05,1.31s.28-1.56,1-1.31c0,.15-1,2-.24,2.92-.21.06-1.39.8-.6,1.41,0,.16-.14,1.62-.17,1.63a.43.43,0,0,0,.05.74c0,.26,0,.61,0,.61a1.13,1.13,0,0,0,.47.31,11.63,11.63,0,0,1-.37,1.57c-.51,1-1.29,1.65.07,2.49,0,0-1.73,3.22-1.33,5.46,0,0,.11.53,1,.6,1.32.22,2.3-.14,1.45,1.43l.5.61s-1.26,1.45,1,1.69a1,1,0,0,1,.56,1.68s.19,2.91,3.69,1.38a3.12,3.12,0,0,0,2.32-.69s1.36-.35,1,1.36c0,0-.17.37.48,1.63l-.31.41.52-.06.09.17a8.55,8.55,0,0,0-3.77,2l1,.07A9.42,9.42,0,0,0,6.2,59.63,15,15,0,0,0,9.46,60l1.87-1.33s-.89,1.12-1.09,1.33c0,0,1.5.12,3.28-1.94a2.68,2.68,0,0,1-.68,1.25A10.2,10.2,0,0,0,16,57.67a13.17,13.17,0,0,0,2.92-4,9.81,9.81,0,0,0,2.44-3.47,19.7,19.7,0,0,0-1.25,3.91l.53-.24a5.27,5.27,0,0,0-2,2.76,4.8,4.8,0,0,1-1.08,1.24,10.88,10.88,0,0,0,4-2.81,7.22,7.22,0,0,1-1.31,1.84l1.37-.3.83-1,.06.41A3.4,3.4,0,0,0,24,53.37c.15.17.05,1.29.05,1.29s3.5-2.44,5-9.47l.19.5s1.1-1.51.59-5.77c0,0,1.21,1.29,1.27,4.48l-.29-.73s.36,2.79-1.23,4.24c-.06.52-.27,1.42-.27,1.42l.94-.48a9.23,9.23,0,0,0-1,1.25l-.22,1.07.61-.51a5.85,5.85,0,0,1-1.35,2,9.13,9.13,0,0,0,4.39-3.34c0,.19.19.59.19.59a5.91,5.91,0,0,0,1.57-4.08c.17.32.35.76.35.76s2.44-3-1.37-6.62l.4.07-1.07-1.2s3.2.63,4.37,1.9a3.27,3.27,0,0,0,1.64,1V40.57s1.82,1.32,1.37,4.48a10.39,10.39,0,0,0,1.09-4.2,4.74,4.74,0,0,1,.44.92,5.25,5.25,0,0,0-2.15-5.48c.29,0,1.2-.08,1.2-.08a11.74,11.74,0,0,1-4.67-2.42l1.51.11s-.36-.75-4-1.5v-.12a7.19,7.19,0,0,1,3.08.35L36,32s2,.73,3.88,1.27c-.08-.2-.25-.66-.25-.66A6.57,6.57,0,0,1,43,35.5a4.12,4.12,0,0,0-.49-3.12c.13.07,1.08.8,1.08.8s-2.08-3.83-5.23-4.82a3.24,3.24,0,0,1,.59-.46l-2.25-.69,1-.65A6.09,6.09,0,0,1,34.49,26c.3-.07,1.1-.19,1.1-.19s-1.06-.63-5.39-.87l1.84-.8-.46-.25a13.29,13.29,0,0,0,3.1-.52L33.45,23V22.9a6.39,6.39,0,0,1,5.08,1.15,6.17,6.17,0,0,0-4.89-3.72.75.75,0,0,0,0-.11l.87-.08s-.64-1.14-4.31.05" style="fill: #030706"/>
        <path d="M27.12,36s5.14,3,5.86,3.89l-.12-.31.43.14S32.51,38.21,27.12,36Z" style="fill: #515151"/>
        <g>
          <path d="M10.92,59.66a6.54,6.54,0,0,0,1.44-1c1-1,1.83-2.18,1.69-.36,0,0,3.7-2.14,4.67-5.19A5.38,5.38,0,0,0,20.49,51c-.23.22-5.13,5.5-8.2,7C12,58.25,10.92,59.66,10.92,59.66Z" style="fill: #b5b5b5"/>
          <path d="M25.54,49.6a15.25,15.25,0,0,0,1.18-11.12,10.36,10.36,0,0,1,1.07.74s0-.93-2-2.11a10.67,10.67,0,0,1,3.63,2.75c.08.7.4,3.59-.42,4.69-.1-.46-.27-1-.27-1a18.38,18.38,0,0,1-2.68,7.81c0-.45,0-2.14,0-2.14Z" style="fill: #b5b5b5"/>
          <path d="M18.39,34.53s2.05,2.06,1.14,6c.25-.56.35-.9.73-1.69a4.28,4.28,0,0,0,.43,2.38L21.2,40a3.55,3.55,0,0,0,.66,3s.92-2.93.23-4.38A14.56,14.56,0,0,0,18.39,34.53Z" style="fill: #b5b5b5"/>
          <path d="M19.5,41.1s-.18,2.25-1,2.66a1,1,0,0,0,.8-.33,2.28,2.28,0,0,0-.25,2.34s0-1.07.68-1.25a4.66,4.66,0,0,0-.34,3.14c.2-.34.34-.56.34-.56a3.24,3.24,0,0,1-.35,2.26,5.72,5.72,0,0,1,.51-.4s-.87.95-.36,1.85C19.55,50.81,22.1,46.87,19.5,41.1Z" style="fill: #b5b5b5"/>
          <path d="M14.48,38l1,.23a14.49,14.49,0,0,1,2,3.61,5.46,5.46,0,0,1-.61-.71l-.12.37s-.18-.06-.19-.81c0-.2-.08-.64-.26-.61a1.13,1.13,0,0,0,0,1.14s-.57-.37-.35-1.63c-.11.1-.36.39-.36.39s.28-1.63-.56-.51c0,0-.26-.34-.12-.48s.62-.28.11-.33A.53.53,0,0,1,14.48,38Z" style="fill: #b5b5b5"/>
          <path d="M8.68,34a12.25,12.25,0,0,1-.24,3.32L9,36.56s-.24,2.86.55,3.74l.19-1.56a10.72,10.72,0,0,0,1.47,4.43c.17-.37.54-1,.54-1s-.35,2.24,2.34,4.26l.16-.85S14.11,48.4,19.08,49c-.4-.3-3.79-2.85-4.75-4.35a7.53,7.53,0,0,1-1.88-1.41l1.55.94A31.46,31.46,0,0,1,8.68,34Z" style="fill: #b5b5b5"/>
          <path d="M15.58,32.11a33.31,33.31,0,0,1,7.69,1l-.81-.28a6,6,0,0,1,3.08,1.12,2.34,2.34,0,0,0-.49-.11s6.8,2.63,8.32,4.63a35,35,0,0,0-7.91-3.69,4.72,4.72,0,0,0,.08.52L24.87,35l-.14.15a3,3,0,0,0-1.22-1.49,2.13,2.13,0,0,0-.38.36l-.37-.25,0,.93s-.71-.8-1-.84a2.51,2.51,0,0,1,.29.88s-1.72-.61-1.89-1.2l-.16.67a2.94,2.94,0,0,0-.71-1.41c-.1.1-.54.74-.54.74s0-.56-.29-.77a9.8,9.8,0,0,0-.15,1.06.74.74,0,0,0-.13-.35,1.14,1.14,0,0,1-.46-.84H16.57Z" style="fill: #b5b5b5"/>
          <path d="M21.7,30.18a33.57,33.57,0,0,0,10.11,1.15,9.82,9.82,0,0,0,.78-.64s-2-1-2.28-1.22l-5.54.66.78-.54A27,27,0,0,1,21.7,30.18Z" style="fill: #b5b5b5"/>
          <path d="M20.19,28.33a17.48,17.48,0,0,0,4-1A3.92,3.92,0,0,0,23.3,27s4-.57,4.4-1.34l-3.22.55s4.05-1.23,4.62-1.51c-.3-.13-1.7-.11-2.22-.49-.38.25-3.77,2.15-6.05,3.57.64-.16,1.7-.47,1.7-.47Z" style="fill: #b5b5b5"/>
          <path d="M17.12,25.27l-1.86.93a29.74,29.74,0,0,1,6.87-5.11l2-.05a4.74,4.74,0,0,1-1.84.92s.38.43,3,.25a5.48,5.48,0,0,1-3.65,1.58s-1.12-.25-7.12,3.64Z" style="fill: #b5b5b5"/>
          <path d="M17.86,20.51l-.68.35A16,16,0,0,0,10,26.76s1.1-3.62,6.54-8.48c0,0,.35.44,1.16.13a2.46,2.46,0,0,1,1.38,0A5,5,0,0,0,18,19.57l1-.11a11.6,11.6,0,0,0-1.66,1.05Z" style="fill: #b5b5b5"/>
          <path d="M9.74,22.52a9.23,9.23,0,0,1,1.67-2.7,10.25,10.25,0,0,0,1.63-2c-.13.28-.5,1.27-.5,1.27l2-1.7s.33-1.55-.89-1.81A27.84,27.84,0,0,0,7,25.86l.82-1,.57-1.24s.11,1.11.45,0l.73-1.84Z" style="fill: #b5b5b5"/>
          <path d="M11,15v1l1.31-1.76-1,.57-.07-.4s-.78.66-1.25,1a28.35,28.35,0,0,0-4,7s.32.06,1.51-2a1.55,1.55,0,0,1,.3.12L9.29,17l-.17,1.45A5.72,5.72,0,0,0,10.4,16.2S10.71,15.47,11,15Z" style="fill: #b5b5b5"/>
          <ellipse cx="11.7" cy="35.37" rx="0.15" ry="0.34" style="fill: #b5b5b5"/>
          <path d="M11.4,34.85a.68.68,0,0,1-.31.52c-.06,0-.08-.25-.05-.54s.11-.52.17-.51S11.43,34.56,11.4,34.85Z" style="fill: #b5b5b5"/>
          <path d="M10.73,33.51s-.46,1.42-.14,1.52c0,0,.35,0,.35-1.09C10.94,33.94,10.82,33.87,10.73,33.51Z" style="fill: #b5b5b5"/>
          <ellipse cx="10.28" cy="33.74" rx="0.93" ry="0.22" transform="translate(-24.71 38.13) rotate(-80.2)" style="fill: #b5b5b5"/>
          <path d="M9.53,34.05l-.09-.92s.21-.67.49-.47C9.93,32.66,10.15,32.83,9.53,34.05Z" style="fill: #b5b5b5"/>
          <path d="M9.18,32.45s.72,0,0,.6Z" style="fill: #b5b5b5"/>
        </g>
        <g>
          <path d="M18.86,51.74l-2.43.92s.12.84-1.16,1.2a7.8,7.8,0,0,0-2.42,1.29c.32.08,1.34.44,1.34.44A15.51,15.51,0,0,0,9.9,57.32l1,.5s-2.5.46-3.32,1.49c.52,0,.91,0,.91,0S12.83,58.29,18.86,51.74Z" style="fill: #fff"/>
          <path d="M20.83,35.89s.87.47,1.94,3.12a7.67,7.67,0,0,1,1.32,3.78A10.89,10.89,0,0,0,23,40.12a14,14,0,0,1,.42,5.58s-.18-4.62-.82-5.71c0,0-.66,5.11.87,7.5a3.33,3.33,0,0,1,.38-.42l.22.66a4,4,0,0,0,.72-3.47l.73,1S25.85,43,23.09,39a3.9,3.9,0,0,1,1.54,1.45A7.94,7.94,0,0,0,20.83,35.89Z" style="fill: #fff"/>
          <path d="M15.73,38.12s.18.29.48.71a8.37,8.37,0,0,1,1.42,2.7l.06-.76.43.5-.32-.88.52.11a1.46,1.46,0,0,0-.9-1.45,2.78,2.78,0,0,1,.44,0s-1.43-.56-1.46-1a3.57,3.57,0,0,0,.77.15l-.39-.47S15.75,37.92,15.73,38.12Z" style="fill: #fff"/>
          <path d="M9.72,34.34s.89,6.75,9.45,14.49A4.27,4.27,0,0,0,18,46.17c-.24-.09-.54-.1-1.93-1.65a19.07,19.07,0,0,1,1.87,1.12s-.1-.83-2.46-2.08a4.07,4.07,0,0,1-.87-.74,6.54,6.54,0,0,1,2.6,1.53,8.32,8.32,0,0,0-2.11-1.86,5.76,5.76,0,0,1-1.65-1.31c.3.14,2.69,1.36,2.69,1.36L13.51,40.6l1.78.59-.68-.4-2.26-1.11a3.41,3.41,0,0,1,2.47.75A3.27,3.27,0,0,0,12.23,39a1.57,1.57,0,0,1,1.34-.58s-.21-1.18-2.25-2.45A4.29,4.29,0,0,1,9.72,34.34Z" style="fill: #fff"/>
          <path d="M29,34.34a2.06,2.06,0,0,1,.74-.57c1.45-.54,1.91-.66,2.12-.72H30l1-.37a42.19,42.19,0,0,1-5.8-.44c-3.44-.51-4-1.5-9.47-1.39,0,0,.12.26.89.43.58.13,1.54.12,3.07.41a12.37,12.37,0,0,1,2.71.84,5.46,5.46,0,0,1,3.28,1.13c.36.08,3.83,1.1,3.94,1.19a1.43,1.43,0,0,0-.71-.52" style="fill: #fff"/>
          <path d="M27.4,29.4,30.27,29l1.42-1.3-1.83-.11A14.16,14.16,0,0,1,32.07,26s-3.14-.3-3.55.13c0,0,.16.34,1.62.3,0,0-3.8,1.48-5.51,1.48L26,28s-4.79,1.57-5.84,1.71c0,0,1.17.59,9.66-1.47Z" style="fill: #fff"/>
          <path d="M26.65,24.05s-8.2,4.57-9.87,4.2a28.57,28.57,0,0,1,5.55-2.49,29.67,29.67,0,0,0-4.92,1.53s3.73-2.45,5.43-2.88a10,10,0,0,0,4.22-1.67S26.45,23.89,26.65,24.05Z" style="fill: #fff"/>
          <path d="M20.8,20.77l.19-.71s-1.19.64-2.7,1.37c-2.63,1.14-4.88,2.49-6.29,5A5.88,5.88,0,0,1,16.07,24s-3.31,1.27-3.79,2.76a4.14,4.14,0,0,1,1.51-.51l-.9.7s.72.13,1.67-.8c.23-.2,5-4.2,7.26-5.33l.46-1.42A19.36,19.36,0,0,0,20.8,20.77Z" style="fill: #fff"/>
          <path d="M10.93,22.87l-.8.66a12,12,0,0,1,2.73-3.91l-.18.66,1.84-1.65v.44s.49-.55.81-.86L15.59,17s.26.51,1-.27l-.19,1.09a78.48,78.48,0,0,0-7.11,8.45c-.07-.13-.16-.32-.16-.32Z" style="fill: #fff"/>
          <path d="M7.83,22s1-2.51,1.13-2.6c.25-.08,1.17,0,2-2.72l.33.17a15.46,15.46,0,0,1,1.81-2.54,3.21,3.21,0,0,0,.17,1,17.46,17.46,0,0,0-1.6,2c-1.2,1.67-2.94,4.37-5.37,8l1.3-3.63Z" style="fill: #fff"/>
          <path d="M9.42,13.1v1.18l.68-.95s-.43,1.59-.56,1.8a65.05,65.05,0,0,0-4.39,7.48S9.13,14,9.42,13.1Z" style="fill: #fff"/>
          <path d="M4.45,20.82l1.09-2.05-.23,1.38s3.25-7.85,4.48-9c-.09.83-.16,1.6-.16,1.6l.56-1,.2-1.57a9.3,9.3,0,0,0-1.13.75L9.68,10l-1.25,1.3L9.68,8.55A40.43,40.43,0,0,0,4.45,20.82Z" style="fill: #fff"/>
          <path d="M10,7.09S6.7,9.94,4.27,19.72C4.27,19.72,8,8.67,10,7.09Z" style="fill: #fff"/>
          <path d="M5.77,50a4.71,4.71,0,0,1,2,.69,2.17,2.17,0,0,0-2,1.25s-.47-.35,0-1.15C5.79,50.39,5.77,50,5.77,50Z" style="fill: #fff"/>
          <path d="M6.47,48.78a.94.94,0,0,0-.69-.71c-.34,0-2-.16-2,.76.05.22.2.35.93.41.17-.15,0,0,0,0A1.62,1.62,0,0,1,6.47,48.78Z" style="fill: #fff"/>
          <path d="M7.83,48.1s0-.79-1.61-1.78a4.39,4.39,0,0,0-1.13-1.84,5.08,5.08,0,0,1,2,1.66,2.58,2.58,0,0,0-.37-.78c-.33-.49-.89-.92-.93-1.58a1,1,0,0,1-1.21-.65,1.15,1.15,0,0,0,1.18-.07l0-.4a.82.82,0,0,1-1.43-.21,1.62,1.62,0,0,1,0-.52s.74.32.93.1c0,0,1.25-1.49,2.05-1.63a.93.93,0,0,1-.36-1,1.75,1.75,0,0,0-1.14.24c-.53.45-.26,1.19-1.35,1.23l.2-.2a1.06,1.06,0,0,1-.94-.48s-.12.13-.52,0a.47.47,0,0,0,.66.36s0,.43-1.17.17a2.49,2.49,0,0,0-.35.28l.23-.8h.14A.24.24,0,0,0,2.4,40S.32,44.84,1.21,44.68c0,0,.32-.58,1.25-.22,0,0,.56.22.11-.45,0,0,1.48-.83,2.08.17,0,0,.39.71-.75,1.37a.83.83,0,0,0-.76-.3,1.31,1.31,0,0,1,.29,1.83.94.94,0,0,0,0,.2,1.46,1.46,0,0,1,.85,0,5.86,5.86,0,0,0,1.28.28c.65,0,1.07-.22.46-.7A3.65,3.65,0,0,1,7.83,48.1ZM6,40.17s.26.63-.71,1.53a.64.64,0,0,1-.71-.32S5.48,41.55,6,40.17Zm-3.06,3s.11-1.58.73-2c0,0-.1,1.5.52,2Z" style="fill: #fff"/>
          <path d="M3.84,39.43s.43-1,1.59-.26a5.86,5.86,0,0,0-1.59.28" style="fill: #fff"/>
          <path d="M5.31,39.56a1.15,1.15,0,0,1-.67.83s-.5.18-.43-.3c0,0,.34,0,.43-.14S5.11,39.51,5.31,39.56Z" style="fill: #fff"/>
          <path d="M4.34,36.39A6.16,6.16,0,0,1,7.58,38a2.92,2.92,0,0,0,.86,2.08S7,39.3,7.15,38.32c0,0-2.12-1.21-2.74-.72L5.1,37s-.66-.09-1.51,1.15a1.79,1.79,0,0,1-.51.44s-1.29-.24-.94.84a.81.81,0,0,1-.69-1.05A4.33,4.33,0,0,0,2.38,36a4.43,4.43,0,0,1,1.82-.39s0,.84-1.61,2.12A3.17,3.17,0,0,0,4.34,36.39Z" style="fill: #fff"/>
          <path d="M8.13,32.4s1-.18.23,1.23c0,.22,0,1.39,0,1.39L8,34.68s.06-1.45.1-1.63A3.08,3.08,0,0,0,8.13,32.4Z" style="fill: #fff"/>
          <path d="M2.32,34.34s-.22.3-.41-.07c0,0-.28-1.74.26-1.93,0,0,.25-.06.19.23S2.32,34.34,2.32,34.34Z" style="fill: #fff"/>
          <path d="M2.49,32.7a6.68,6.68,0,0,0,0,1.64c.07.09.32.13.44-.26a3.41,3.41,0,0,1,0-1.26s.24-.57-.13-.53C2.76,32.29,2.57,32.28,2.49,32.7Z" style="fill: #fff"/>
          <path d="M3.78,32.28a8.24,8.24,0,0,0,0,1.94s-.55.23-.58-.17c0,0-.23-1.29.22-1.77Z" style="fill: #fff"/>
          <path d="M4.31,34.14a14.49,14.49,0,0,1,.19-1.86s-.44-.11-.58.25C3.9,32.7,3.7,34.68,4.31,34.14Z" style="fill: #fff"/>
          <path d="M5.19,32.28s0,.51,0,1,0,1-.35,1c0,0-.15,0-.18-.14C4.55,33.55,4.5,32.28,5.19,32.28Z" style="fill: #fff"/>
          <path d="M5.89,33.33c-.08.59.24,1.12-.23,1.07s-.24-.48-.24-1.07,0-1,.24-1.07C6.18,32.34,5.88,32.7,5.89,33.33Z" style="fill: #fff"/>
          <path d="M6.51,33.47a2.4,2.4,0,0,1-.12,1.06c-.07,0-.28-.24-.28-1.06,0-1.07.21-1.07.28-1.07C6.71,32.45,6.51,32.88,6.51,33.47Z" style="fill: #fff"/>
          <path d="M7.19,33.47c0,.66,0,1.19-.14,1.19s-.45,0-.45-.74.26-1.66.71-1.52C7.41,32.43,7.19,32.8,7.19,33.47Z" style="fill: #fff"/>
          <path d="M7.75,33.52a3.9,3.9,0,0,1-.1,1.19c-.32.1-.36-.42-.36-1.08.13-1.08.46-1.23.52-1.23S8,32.85,7.75,33.52Z" style="fill: #fff"/>
        </g>
        <g>
          <path d="M25.72,49.93l-.08,2.3L24.5,53.74a2,2,0,0,0-.38-1.25c-.63.73-.64,2-1.36,2.76a4.32,4.32,0,0,0,0-.54,2.36,2.36,0,0,1-1.36,1.14,13.35,13.35,0,0,1,.66-1.16l-.4,0s3.3-4.41,3.52-4.54Z" style="fill: #cd212a"/>
          <path d="M33.43,40.52a13,13,0,0,1-.66,8,3.25,3.25,0,0,1,.25.59s.82-.77,1.23-3.9l.53.53A4.16,4.16,0,0,0,33.43,40.52Z" style="fill: #cd212a"/>
          <path d="M29.59,34.26a1.64,1.64,0,0,1,.68.75s1.58.54,3.79,1.48c2.57,1.09,5.7,2.25,6.51,6a9.13,9.13,0,0,0-.11-2.68,2,2,0,0,1,.5.27,8.55,8.55,0,0,0-4.25-4.23,2.77,2.77,0,0,1,.59,0s-2.8-1.51-2.73-2H35a4.32,4.32,0,0,0-2.52-.78A14.64,14.64,0,0,0,29.59,34.26Z" style="fill: #cd212a"/>
          <path d="M31.16,29.41s7.57-1,10.47,3.81a5.34,5.34,0,0,0-3.15-1.75l.23.49A34.07,34.07,0,0,0,35,31l.11.32-2.5-.14.74-.63A21.32,21.32,0,0,1,31.16,29.41Z" style="fill: #cd212a"/>
          <path d="M30.84,29s6.27-1.15,10.06,2.33a6.74,6.74,0,0,0-4.77-3.12l1.2-.13-1.63-.5.7-.44s-2.35.14-3.32-.78l.77-.23-1.07-.3a10.43,10.43,0,0,0-2.1,1.49,7.71,7.71,0,0,1,2,.08Z" style="fill: #cd212a"/>
          <path d="M27.34,24a4.43,4.43,0,0,0,2.21.44s.93-.33,1.64-.66l-.81-.55a14,14,0,0,0,2.39-.07,6.81,6.81,0,0,0-1.13-.37s1.1-1.19,4.58-.34C36.22,22.49,35,19.83,27.34,24Z" style="fill: #cd212a"/>
          <path d="M26.86,23.89a2.72,2.72,0,0,1,1-1.78,3.71,3.71,0,0,0-.14.48l2-1.55-.17.51s2.45-1.41,3.31-1.19a4.18,4.18,0,0,0-.77.35s2.49.08,3.42,1a5.37,5.37,0,0,0-2.27-.19A18.07,18.07,0,0,0,26.86,23.89Z" style="fill: #cd212a"/>
          <path d="M22.73,20.51a41.22,41.22,0,0,1,7.33-3.58A3.2,3.2,0,0,1,31.21,16s-1.34-.33-1.93.16l.11-.42a4.66,4.66,0,0,0-2.28.88v-.52a16.64,16.64,0,0,0-2.32,2.18l.2-.77A18,18,0,0,1,23.13,19Z" style="fill: #cd212a"/>
          <path d="M23.13,20.87l1.95-.09a6.55,6.55,0,0,1-1.5,1,11.23,11.23,0,0,0,2.63.11,1.19,1.19,0,0,0,.42-.8l-1.22.28a11.14,11.14,0,0,0,2.41-1.16,1.37,1.37,0,0,0,.46-.74l-.94-.07a3.66,3.66,0,0,0,1.39-.36,6.32,6.32,0,0,0,1.13-1.86A55.3,55.3,0,0,0,23.13,20.87Z" style="fill: #cd212a"/>
          <path d="M23,13.66h.89A2,2,0,0,0,22.59,16l.31-.22a6,6,0,0,1-2.33,2.43l.55.05a4.77,4.77,0,0,0-1,.69l-.41-.07.25-.07s-.49-.67.12-.81c0,0-.19-.42-1.93-.14a.88.88,0,0,1-.59-.2s3.67-3.41,6.55-5.76c.45-.38.86-.72,1.27-1.09A4.58,4.58,0,0,1,23,13.66Z" style="fill: #cd212a"/>
          <path d="M25.4,10.49s-4.52,3.56-8.35,6.92a2.91,2.91,0,0,1,.16-1A7.78,7.78,0,0,0,18,15.25l.24.25.39-.6.24.18a8.18,8.18,0,0,0,2.4-3.17c.09-.08.61-.38.61-.38l-.12.56L23.28,11l.14.28A10.74,10.74,0,0,0,25.4,10.49Z" style="fill: #cd212a"/>
          <path d="M21.34,8.14,23.06,8s-2,.87-.65.66c0,0-2.09,1.35-2.13,2.71-.15.49-.16,1-1.76,2.67l.31-1.1a4.17,4.17,0,0,0-1.09,1.72l-.21-1.34a5,5,0,0,1-1.24,2.5l.21-1.33s-.87.37-1.59,3.32a10.47,10.47,0,0,0-.15-1.87c-.13-.22-.18-.26-.73-.55a10.5,10.5,0,0,1,.83-.81l4.33-3.66A34.48,34.48,0,0,0,13.65,15s-.19-.18-.19-.9a31.1,31.1,0,0,1,3.18-2.46,5.07,5.07,0,0,0,.64-.58l.5-.66a3.63,3.63,0,0,1,2-1.47,3.82,3.82,0,0,1-.92,1.55,2.79,2.79,0,0,0,.82-.63c.67-.72,1.08-1.69,2-2Z" style="fill: #cd212a"/>
          <path d="M11.15,12.37,10.1,14.43a33.19,33.19,0,0,1,6-6s-3.69,3.66-5.77,6.21L12,13.1l-.52,1.12.95-.42a18.32,18.32,0,0,1,3.39-3,3.15,3.15,0,0,0-1.42.3,6.78,6.78,0,0,0,2.63-2,9.21,9.21,0,0,0-1.28.31S18.32,8,18.63,6.91l-.82-.08a3.12,3.12,0,0,0,1.86-1.14,2.9,2.9,0,0,1-1.76.46L16.34,7.24l.28-.7A6.3,6.3,0,0,1,15,7.79l.3-.56s-1.28.39-3.17,3.32l.11-.73a9.35,9.35,0,0,0-1.74,2.94Z" style="fill: #cd212a"/>
          <path d="M10.86,10.49,11,9.21l-.74.59.15-.7-.75.32a13.57,13.57,0,0,1,.46-1.55,40.29,40.29,0,0,1,4.79-5.65,5.36,5.36,0,0,1-1.51,4.64l1.51-1-.22,1a6.53,6.53,0,0,0-2.23,2l.07-.49S10.9,10.33,10.86,10.49Z" style="fill: #cd212a"/>
          <path d="M5,43.43a2.17,2.17,0,0,0,1.41-.57S6.11,44.19,5,43.43Z" style="fill: #cd212a"/>
          <path d="M4.56,42.2s-.08.82.92.52c0,0,1.63-.89,1.38-1.59a.9.9,0,0,0-.54.15c-.44.34-1,1-1.08,1A1.2,1.2,0,0,1,4.56,42.2Z" style="fill: #cd212a"/>
          <path d="M15.52,33.55s2.87.39,2.09,3c0,0-.61,1.65-3.34.8,0,0,1.85.09,2.27-1.3A2,2,0,0,0,15.52,33.55Z" style="fill: #cd212a"/>
          <path d="M14.79,34.53s.93.63,0,1.62C15.61,36.15,16.43,34.94,14.79,34.53Z" style="fill: #cd212a"/>
          <path d="M6.84,26.76a2.09,2.09,0,0,1,.6,1.7s.67-.15.58-.44A1.62,1.62,0,0,0,6.84,26.76Z" style="fill: #cd212a"/>
          <path d="M6.92,28.24s-1.19-.87-.42-1.37a4.49,4.49,0,0,1,.38,1A2,2,0,0,1,6.92,28.24Z" style="fill: #cd212a"/>
          <path d="M5.89,27.77s-1.62.05-2-1.2a3.16,3.16,0,0,0,2,.74Z" style="fill: #cd212a"/>
          <path d="M5.89,27.26a12.26,12.26,0,0,1-2.16-1.64c-.22-.38.08-.2.13-.14A7,7,0,0,0,6,26.81Z" style="fill: #cd212a"/>
          <path d="M2.46,29.15c-.34.76-.51,1.38-.22,1.62.41-.18.34-.66.68-1.42.61-1.12.5-1.44.38-1.49S2.8,28.38,2.46,29.15Z" style="fill: #cd212a"/>
          <path d="M3.18,29.3c-.43,1-.56,2,0,2a8.06,8.06,0,0,1,.51-1.77c.48-1.21,1.13-1.49.88-1.63C3.88,27.77,3.66,28.31,3.18,29.3Z" style="fill: #cd212a"/>
          <path d="M3.92,29.72c-.52,1.24,0,1.44.05,1.45.51.08.22-.67.53-1.54.28-1.05,1.64-1.91.59-1.6A4.07,4.07,0,0,0,3.92,29.72Z" style="fill: #cd212a"/>
          <path d="M4.87,29.5c-.35.76-.32,1.91.27,1.64.23-.11,0-.7.34-1.46s1.07-1.22.53-1.36C5.78,28.27,5.21,28.74,4.87,29.5Z" style="fill: #cd212a"/>
          <path d="M6.73,28.63a1.86,1.86,0,0,0,.86.22,2,2,0,0,0-.94.79c-.35.67-.12,1.54-.71,1.54C5.94,31.18,4.66,31.08,6.73,28.63Z" style="fill: #cd212a"/>
          <path d="M9.09,29a3.6,3.6,0,0,0-1.85,2.5,4.11,4.11,0,0,1-.64-.16S6.81,28.18,9.09,29Z" style="fill: #cd212a"/>
          <path d="M8.67,29.82a5.79,5.79,0,0,0-1,1.84c.33.12.7-.41,1.38-1.1.31-.5,1.51-1.06,1.47-1.23A1.26,1.26,0,0,0,8.67,29.82Z" style="fill: #cd212a"/>
          <path d="M9.84,30.48c-.63.52-1.24,1.15-1.18,1.23a.59.59,0,0,0,.55.12,9.09,9.09,0,0,0,1.12-.73c1.9-1.06,1-1.23.94-1.31a.59.59,0,0,0-.53,0A5.33,5.33,0,0,0,9.84,30.48Z" style="fill: #cd212a"/>
          <path d="M10.94,31.08c-.52.49-1.07.82-1,.86a.57.57,0,0,0,.4.17,2.87,2.87,0,0,0,1-.48c.16-.1.67-.27.82-.55s-.08-.55-.08-.56S11.67,30.4,10.94,31.08Z" style="fill: #cd212a"/>
        </g>
      </g>
    </g>
  </g>
</svg>
