<svg xmlns="http://www.w3.org/2000/svg" viewBox="0 0 49.86 60">
  <title>36</title>
  <g id="Layer_2" data-name="Layer 2">
    <g id="Layer_1-2" data-name="Layer 1">
      <g id="_36" data-name="36">
        <path d="M49.3,32.06l-6-2.63a21.64,21.64,0,0,1,1.19,2.91A32.29,32.29,0,0,1,44.19,42c-.22-.53-5.52-4.48-5.52-4.48a60,60,0,0,1-.73,10.13C36.72,50.16,32.05,60,32.05,60a69.23,69.23,0,0,0,.49-8.22,16.94,16.94,0,0,1-4.61,5.89,98.92,98.92,0,0,1,1.28-11.74l1.92-5.4L27,43.67l-2.1.08-2.09-.08-4.1-3.14,1.91,5.4a96.76,96.76,0,0,1,1.28,11.74,17,17,0,0,1-4.6-5.89A70.7,70.7,0,0,0,17.81,60s-4.66-9.84-5.89-12.39a60,60,0,0,1-.73-10.13S5.9,41.43,5.68,42a32.09,32.09,0,0,1-.28-9.62,22.76,22.76,0,0,1,1.2-2.91l-6,2.63S.73,31,.89,30c.23-2.57,1-7,5.55-8.89A54.23,54.23,0,0,0,0,20.61a21.41,21.41,0,0,1,5.59-6.1,8.19,8.19,0,0,1,2.73-.68S4.67,9.09,3.86,8.16c0,0,5.38-.45,8.61-.42a9.33,9.33,0,0,1,3,1.26,47.52,47.52,0,0,0-1.16-6.33,13.19,13.19,0,0,1,7.22,2.4s.37.45.63.81C22.3,5.65,24.93,0,24.93,0s2.64,5.65,2.73,5.88c.26-.36.63-.81.63-.81a13.17,13.17,0,0,1,7.22-2.4A46.25,46.25,0,0,0,34.34,9a9.33,9.33,0,0,1,3-1.26c3.23,0,8.62.42,8.62.42-.82.93-4.46,5.67-4.46,5.67a8.08,8.08,0,0,1,2.72.68,21.41,21.41,0,0,1,5.59,6.1,54.52,54.52,0,0,0-6.44.51C48,23,48.74,27.44,49,30,49.13,31,49.3,32.06,49.3,32.06Z" style="fill: #020202"/>
        <path d="M31.17,36.54l.08-2.7a6.17,6.17,0,0,0,2-2.2,13.93,13.93,0,0,1-.2-3.64,9,9,0,0,0-8.14-3.9A9,9,0,0,0,16.79,28a13.34,13.34,0,0,1-.2,3.64,6.14,6.14,0,0,0,2,2.2l.07,2.7s-.32-1.58-.34-1.92l-1.17-.84.57,5.09,5.07,3.84h4.23l5.07-3.84.56-5.09-1.17.84C31.49,35,31.17,36.54,31.17,36.54Zm-6.24-3.35A3,3,0,0,0,26,33.05c.49-.19.75-.49,1.09,0h-.22l-.28.32a1.06,1.06,0,0,0,1.15-.48l-.65-1.34s1.05.93,1.16,1.39c-.06.09-1.12,1.52-1.87.7a2.45,2.45,0,0,1-1.47.32,2.45,2.45,0,0,1-1.47-.32c-.75.82-1.8-.61-1.87-.7.11-.46,1.16-1.39,1.16-1.39l-.64,1.34a1.06,1.06,0,0,0,1.15.48L23,33h-.23c.35-.47.6-.17,1.09,0A3,3,0,0,0,24.93,33.19Zm-5.84-4.1a4.56,4.56,0,0,0,1.63.07s-2.72-.57-1.55-1.82a1.68,1.68,0,0,0-.92.29,3.44,3.44,0,0,1,1.53-1.92s2.48.42,3.51.52l.41-.86a4.3,4.3,0,0,1,.57,2L23,30l-.07-1.46-2,1.16A3.53,3.53,0,0,1,19.09,29.09Zm7.7,9.8a6.93,6.93,0,0,0-1.8-.22,7.08,7.08,0,0,0-1.9.24s0-.07,0-.11c0-.67.83-1.22,1.86-1.22s1.86.55,1.86,1.22C26.8,38.83,26.79,38.86,26.79,38.89ZM28.23,38a2.36,2.36,0,0,0,0-.26l-2.28-1.3-1,0-1,0-2.28,1.3a2.36,2.36,0,0,0,0,.26c-1-.46.05-1.24.05-1.24v.28A12.32,12.32,0,0,1,23.63,36c.26-.14,1.3.27,1.3.27s1-.41,1.3-.27a11.79,11.79,0,0,1,1.95,1.07v-.28S29.2,37.56,28.23,38Zm2.58-8.93a3.6,3.6,0,0,1-1.84.66l-2-1.17L26.9,30l-1.27-2.65a4.22,4.22,0,0,1,.57-2l.41.86c1-.1,3.51-.52,3.51-.52a3.38,3.38,0,0,1,1.52,1.93,1.6,1.6,0,0,0-.91-.3c1.17,1.25-1.55,1.82-1.55,1.82A4.56,4.56,0,0,0,30.81,29.09Z" style="fill: #e2e0e0"/>
        <g>
          <path d="M32.46,47v3A17.52,17.52,0,0,1,29,55.34s.59-7.75,1.14-9.38c0,0,2.39-4.23,3.28-5.69l-1,3.45V45.1l-2.85,8.58Z" style="fill: #fff"/>
          <path d="M33.35,55.35s0-10.76.09-11.64c0,0,2.17-7.65,2.41-8.51,0,0,.62-.09.82-.36A151.14,151.14,0,0,1,34,52.35s2.75-8.93,3.23-16c0-.49.14-1,.15-1.47l.28.5a47.92,47.92,0,0,1-.52,11.81S33.67,54.69,33.35,55.35Z" style="fill: #fff"/>
          <path d="M35.57,28.34c-.92,0-1.66,1.39-1.66,3.1s.74,3.11,1.66,3.11,1.66-1.39,1.66-3.11S36.49,28.34,35.57,28.34Zm.3,4.83c-.52,0-.93-.75-.93-1.68s.41-1.68.93-1.68.92.75.92,1.68S36.38,33.17,35.87,33.17Z" style="fill: #fff"/>
          <path d="M39,27a27.37,27.37,0,0,1,4.11,11.61,65.62,65.62,0,0,0-6.9-14.47,24.4,24.4,0,0,0,.16,3.74s2.4,1.33,1.34,5.3c0,0,.66,1.67,1.75,4L43.7,40a35.16,35.16,0,0,0,0-7.39A19.11,19.11,0,0,0,42.1,29,20.15,20.15,0,0,1,39,27Z" style="fill: #f9f9f9"/>
          <path d="M36.16,21.64a26.87,26.87,0,0,1,11.47,7.9S45.55,24,36.81,20.82c0,0,1.15-.32,4.34.45.43.08,1.11.05,1.62.16a7.5,7.5,0,0,1,1.19.75c1.3,1,3.1,2.48,4.48,8.52,0,0-5.49-2.38-6.68-2.78A9.31,9.31,0,0,1,36.16,21.64Z" style="fill: #fff"/>
          <path d="M34.54,18.33a29.94,29.94,0,0,1,11.59.12s-3.42-2.52-12-1.12a26.71,26.71,0,0,0,6.57-2.67s.42,0,1.15.12a4.86,4.86,0,0,1,2.9,1.35,22.67,22.67,0,0,1,3.35,3.6s-6.49.67-7,.59A22,22,0,0,1,34.54,18.33Z" style="fill: #fff"/>
          <path d="M41,9.82c-2.83.23-6.81,3.38-8.7,5-.67.58-1.08,1-1.08,1s.19-1.09.3-1.43a6.53,6.53,0,0,0,2.68-4.09,8.83,8.83,0,0,1,3.3-1.6,49,49,0,0,1,6.53.4S40.6,13.8,40,14c0,0-4.16,2.5-7.86,2.36C32.34,16.15,37.71,10.65,41,9.82Z" style="fill: #fff"/>
          <path d="M32.07,5.4a37.81,37.81,0,0,0-3.38,9.33s1.43-.57,2.21-.83a5.9,5.9,0,0,0,2.43-4,26.63,26.63,0,0,1,.92-6.16,41.73,41.73,0,0,0-5.33,1.88L28,7l.15.34.19,4.85-1.11,1,.6,1.16S29.31,8.29,32.07,5.4Z" style="fill: #fff"/>
          <path d="M17.43,47v3a17.44,17.44,0,0,0,3.46,5.35s-.6-7.75-1.14-9.38c0,0-2.4-4.23-3.29-5.69,0,0,.55,2,.95,3.45V45.1l2.85,8.58Z" style="fill: #fff"/>
          <path d="M16.55,55.35s0-10.76-.09-11.64c0,0-2.17-7.65-2.41-8.51,0,0-.62-.09-.82-.36a148.66,148.66,0,0,0,2.63,17.51s-2.75-8.93-3.23-16c0-.49-.15-1-.15-1.47l-.29.5a48.3,48.3,0,0,0,.53,11.81S16.22,54.69,16.55,55.35Z" style="fill: #fff"/>
          <path d="M12.67,31.44c0,1.72.74,3.11,1.66,3.11S16,33.16,16,31.44s-.74-3.1-1.65-3.1S12.67,29.73,12.67,31.44Zm.43,0c0-.93.42-1.68.93-1.68s.93.75.93,1.68-.42,1.68-.93,1.68S13.1,32.42,13.1,31.49Z" style="fill: #fff"/>
          <path d="M10.93,27a27.45,27.45,0,0,0-4.1,11.61A65.34,65.34,0,0,1,13.72,24.1a23.13,23.13,0,0,1-.16,3.74s-2.4,1.33-1.34,5.3c0,0-.65,1.67-1.75,4L6.19,40a35.94,35.94,0,0,1,0-7.39A19.11,19.11,0,0,1,7.79,29,19.64,19.64,0,0,0,10.93,27Z" style="fill: #f9f9f9"/>
          <path d="M13.73,21.64a26.87,26.87,0,0,0-11.47,7.9S4.34,24,13.09,20.82c0,0-1.15-.32-4.34.45-.44.08-1.12.05-1.62.16a7.5,7.5,0,0,0-1.19.75c-1.31,1-3.1,2.48-4.48,8.52,0,0,5.49-2.38,6.68-2.78A9.3,9.3,0,0,0,13.73,21.64Z" style="fill: #fff"/>
          <path d="M15.36,18.33a30,30,0,0,0-11.6.12s3.43-2.52,12-1.12a26.88,26.88,0,0,1-6.58-2.67s-.42,0-1.14.12a4.89,4.89,0,0,0-2.91,1.35,22.67,22.67,0,0,0-3.35,3.6s6.49.67,7,.59A22.19,22.19,0,0,0,15.36,18.33Z" style="fill: #fff"/>
          <path d="M8.94,9.82c2.82.23,6.8,3.38,8.69,5,.68.58,1.09,1,1.09,1s-.19-1.09-.31-1.43a6.5,6.5,0,0,1-2.67-4.09,8.83,8.83,0,0,0-3.3-1.6,49.06,49.06,0,0,0-6.54.4s3.4,4.72,4,4.94c0,0,4.16,2.5,7.87,2.36C17.56,16.15,12.18,10.65,8.94,9.82Z" style="fill: #fff"/>
          <path d="M17.82,5.4a37.56,37.56,0,0,1,3.39,9.33s-1.43-.57-2.21-.83a5.89,5.89,0,0,1-2.44-4,26.05,26.05,0,0,0-.92-6.16A41.77,41.77,0,0,1,21,5.58l1,1.43-.16.34-.19,4.85,1.11,1-.6,1.16S20.58,8.29,17.82,5.4Z" style="fill: #fff"/>
          <path d="M25.62,14a10.7,10.7,0,0,1,2-2.13s-.16-3.27-.23-4.38L25,1.88,22.48,7.5l-.18,4.42a13.65,13.65,0,0,1,2,2.11s.49-6.68.45-7.46A4,4,0,0,1,25,6.13l.2.44Z" style="fill: #fff"/>
          <path d="M27.3,27.59a3.23,3.23,0,0,1,3.14.24,2.05,2.05,0,0,0-2.65-1A1.17,1.17,0,0,0,27.3,27.59Z" style="fill: #f9f9f9"/>
          <path d="M22.59,27.59a3.21,3.21,0,0,0-3.13.24,2,2,0,0,1,2.65-1A1.13,1.13,0,0,1,22.59,27.59Z" style="fill: #f9f9f9"/>
          <polygon points="23.86 19.98 26.05 19.98 25.14 16.38 24.77 16.38 23.86 19.98" style="fill: #fff"/>
          <path d="M26,16.45a13.32,13.32,0,0,1,2.85.46,26.64,26.64,0,0,0-2.14,2.49S26.17,16.74,26,16.45Z" style="fill: #fff"/>
          <path d="M29.36,17.63l.46,3.26a9.42,9.42,0,0,0-2.63-.8S29,17.86,29.36,17.63Z" style="fill: #fff"/>
          <path d="M30.12,17.31a24.42,24.42,0,0,1,.53,3.34l1.82-1.95A9.58,9.58,0,0,0,30.12,17.31Z" style="fill: #fff"/>
          <polygon points="32.56 19.74 32.52 23.05 30.9 21.48 32.56 19.74" style="fill: #fff"/>
          <polygon points="33.35 19.74 33.4 23.05 35.02 21.48 33.35 19.74" style="fill: #fff"/>
          <polygon points="34.19 23.32 33.91 25.02 33.44 24.17 34.19 23.32" style="fill: #fff"/>
          <polygon points="35.08 22.49 35.66 24.08 34.73 25.1 35.08 22.49" style="fill: #fff"/>
          <path d="M35.66,25.26a3.13,3.13,0,0,1-.79,2.14l-.3-1Z" style="fill: #fafafa"/>
          <path d="M23.81,16.45a13.25,13.25,0,0,0-2.84.46,26.64,26.64,0,0,1,2.14,2.49S23.68,16.74,23.81,16.45Z" style="fill: #fff"/>
          <path d="M20.5,17.63,20,20.89a9.57,9.57,0,0,1,2.63-.8S20.83,17.86,20.5,17.63Z" style="fill: #fff"/>
          <path d="M19.74,17.31a24.42,24.42,0,0,0-.53,3.34L17.39,18.7A9.58,9.58,0,0,1,19.74,17.31Z" style="fill: #fff"/>
          <polygon points="17.29 19.74 17.34 23.05 18.96 21.48 17.29 19.74" style="fill: #fff"/>
          <polygon points="16.5 19.74 16.46 23.05 14.84 21.48 16.5 19.74" style="fill: #fff"/>
          <polygon points="15.67 23.32 15.95 25.02 16.42 24.17 15.67 23.32" style="fill: #fff"/>
          <polygon points="14.77 22.49 14.2 24.08 15.13 25.1 14.77 22.49" style="fill: #fff"/>
          <path d="M14.2,25.26A3.08,3.08,0,0,0,15,27.4l.29-1Z" style="fill: #fafafa"/>
          <path d="M33.27,27.15a6.6,6.6,0,0,0-1.9-2,11.53,11.53,0,0,0-12.81,0,8.57,8.57,0,0,0-2,2S17.74,22,25,21.94C25,21.94,31.49,21.52,33.27,27.15Z" style="fill: #fff"/>
          <path d="M27.11,30.25l1.63,2.16A17.63,17.63,0,0,0,31.54,30c-.16-.16-.54-.5-.54-.5s-1.77,1.08-2.06.94-1.48-.79-1.48-.79Z" style="fill: #fff"/>
          <path d="M22.74,30.25l-1.63,2.16A17.3,17.3,0,0,1,18.32,30c.15-.16.54-.5.54-.5s1.77,1.08,2.06.94l1.48-.79Z" style="fill: #fff"/>
        </g>
        <g>
          <path d="M32.22,45.89,29.76,48c-.41,2.87-.75,7.38-.75,7.38A17.52,17.52,0,0,0,32.46,50V47l-2.83,6.68Z" style="fill: #d41922"/>
          <path d="M36,44.8C35.06,49,34,52.35,34,52.35c.56-2.57,1-5.14,1.39-7.5l-2,1.19c0,3.43,0,9.31,0,9.31.31-.64,3.59-7.7,3.82-8.17Z" style="fill: #d41922"/>
          <path d="M41.8,33h0a33.29,33.29,0,0,1,1.27,5.56s-.73-2.28-2.07-5.38a8.68,8.68,0,0,0-1.73,3.63l.15.34L43.7,40a37,37,0,0,0,.11-6.32Z" style="fill: #d41922"/>
          <path d="M46.9,25.92h0a9.31,9.31,0,0,0-2.42-.57h0a12.49,12.49,0,0,1,3.15,4.19A22,22,0,0,0,43.9,25.9l-.07,2.84c2,.84,4.61,2,4.61,2A24.91,24.91,0,0,0,46.9,25.92Z" style="fill: #d41922"/>
          <path d="M42.87,17.26h0a9,9,0,0,1,3.27,1.19,20.94,20.94,0,0,0-3.2-.53,12.57,12.57,0,0,0,1.16,2.2c1.9-.17,4-.39,4-.39a22.6,22.6,0,0,0-3.18-3.45A5.78,5.78,0,0,0,42.87,17.26Z" style="fill: #d41922"/>
          <path d="M39.48,8.71l-.35,1.57h0A6.73,6.73,0,0,1,41,9.82a7.38,7.38,0,0,0-1.67.7l2.24,1.83C42.67,10.92,44,9.08,44,9.08A43.78,43.78,0,0,0,39.48,8.71Z" style="fill: #d41922"/>
          <path d="M30,5.11,30.87,7a10.61,10.61,0,0,1,1.2-1.55s-.36.63-.87,1.76l2.32.25a18.75,18.75,0,0,1,.73-3.71S31.57,4.48,30,5.11Z" style="fill: #d41922"/>
          <path d="M17.68,45.89,20.13,48c.41,2.87.76,7.38.76,7.38A17.44,17.44,0,0,1,17.43,50V47l2.83,6.68Z" style="fill: #d41922"/>
          <path d="M13.92,44.8c.91,4.22,1.94,7.55,1.94,7.55-.57-2.57-1-5.14-1.4-7.5L16.51,46c0,3.43,0,9.31,0,9.31-.32-.64-3.6-7.7-3.82-8.17Z" style="fill: #d41922"/>
          <path d="M8.1,33h0a31.42,31.42,0,0,0-1.27,5.56s.72-2.28,2.06-5.38a8.89,8.89,0,0,1,1.74,3.63c-.05.11-.1.23-.16.34L6.19,40a38.17,38.17,0,0,1-.11-6.32Z" style="fill: #d41922"/>
          <path d="M3,25.92H3a9.31,9.31,0,0,1,2.42-.57h0a12.49,12.49,0,0,0-3.15,4.19A22.79,22.79,0,0,1,6,25.9l.08,2.84c-2,.84-4.61,2-4.61,2A24.3,24.3,0,0,1,3,25.92Z" style="fill: #d41922"/>
          <path d="M7,17.26H7a9,9,0,0,0-3.27,1.19A21.07,21.07,0,0,1,7,17.92a14.3,14.3,0,0,1-1.16,2.2c-1.91-.17-4-.39-4-.39A23.12,23.12,0,0,1,5,16.28,5.67,5.67,0,0,1,7,17.26Z" style="fill: #d41922"/>
          <path d="M10.41,8.71l.35,1.57h0a6.66,6.66,0,0,0-1.82-.46,7.57,7.57,0,0,1,1.67.7L8.37,12.35C7.22,10.92,5.9,9.08,5.9,9.08A43.61,43.61,0,0,1,10.41,8.71Z" style="fill: #d41922"/>
          <path d="M19.94,5.11,19,7A10.66,10.66,0,0,0,17.82,5.4s.36.63.87,1.76l-2.31.25a18.76,18.76,0,0,0-.74-3.71S18.32,4.48,19.94,5.11Z" style="fill: #d41922"/>
          <path d="M24.7,7.46c0-.44,0-.75,0-.89A4,4,0,0,1,25,6.13l.2.44.06.89h0l1.57-1.33h0C26,4.39,25,1.88,25,1.88L23.08,6.12Z" style="fill: #d41922"/>
          <path d="M29.55,33.46l-.81-1.05a17.48,17.48,0,0,0,2.93-2.55c.11.11.6.89.44,1.1A14.09,14.09,0,0,1,29.55,33.46Z" style="fill: #d41922"/>
          <path d="M20.31,33.46l.8-1.05a17.61,17.61,0,0,1-2.92-2.55c-.12.11-.6.89-.45,1.1A13.89,13.89,0,0,0,20.31,33.46Z" style="fill: #d41922"/>
          <path d="M24.93,21.33c-7.19-.15-9.42,6.5-9.42,6.5,1.65-7.76,9.42-7.32,9.42-7.32s7.77-.44,9.42,7.32C34.35,27.83,32.12,21.18,24.93,21.33Z" style="fill: #cc141c"/>
        </g>
      </g>
    </g>
  </g>
</svg>
