<svg xmlns="http://www.w3.org/2000/svg" viewBox="0 0 53.84 60">
  <title>37</title>
  <g id="Layer_2" data-name="Layer 2">
    <g id="Layer_1-2" data-name="Layer 1">
      <g id="_37" data-name="37">
        <path d="M13.19,46.22a24.23,24.23,0,0,1-4.74,2.07c-2.58.41-4.56-1.93-4.56-1.93-1.59-1.23.79-4.3.79-4.3l-1-1c-.63-.67.1-1.7.1-1.7-1-.46-1.06-1.1-1.06-1.1a1.22,1.22,0,0,0,.87-1C.5,37.1,0,35.86,0,35.86c-.21-.56,1.75-5.27,1.75-5.27.12-.16.79-.17.79-.17A7.63,7.63,0,0,1,1.11,29c-.65-.5,1.09-4.34,1.09-4.34-1.62-.73-.14-1.84-.14-1.84A8.52,8.52,0,0,1,4.3,18.21c-.8-1.69,1.21-1.45,1.21-1.45,1.57-6.23,6.82-7,11.29-8.76a24.21,24.21,0,0,0,4.74-2.55L21.93,7c.27-2.93,2.15-3.52,3.32-4.65A5.14,5.14,0,0,0,26.45,0c1.74,2.18.44,6.22.44,6.22a26.52,26.52,0,0,0,5.68-5.11,14.52,14.52,0,0,1-.76,6.19C37.85,4.67,39,3.24,39,3.24A16.66,16.66,0,0,1,37.3,9.65C42.19,7.7,43,5.84,43,5.84c.92,5.82-3.89,10.09-3.89,10.09,4-.23,12.15-1.37,12.15-1.37-.53,1.41-4.94,5.34-4.94,5.34a55.08,55.08,0,0,0,6.64.79c-.52.83-4.7,3.75-4.7,3.75l5.56,1c-1.37,1.91-6.15,3.91-6.15,3.91A26.07,26.07,0,0,1,51.92,33a27.4,27.4,0,0,1-5.85.95c1.77,1.69,4,6.26,4,6.26-1.26-.53-8-2.17-8-2.17A35.14,35.14,0,0,1,49,46.92a36,36,0,0,1-6.95-1c1,1.78,3.09,6.17,3.09,6.17-7-1.23-8.86-3.55-8.86-3.55.84,1.5,1.5,7.92,1.5,7.92a24.9,24.9,0,0,1-6.62-4.39l.12,5.67c-3.81-2.68-4.52-4.18-4.85-4.85A38.41,38.41,0,0,1,24.8,60a19.34,19.34,0,0,1-4.67-8.52l-4.82-2.2-1.69-3.23Z"/>
        <circle cx="21.1" cy="30.7" r="4.01" style="fill: #f10000"/>
        <path d="M21.09,27.18a3.56,3.56,0,1,0,3.56,3.56A3.56,3.56,0,0,0,21.09,27.18Zm0,6.74a3.18,3.18,0,1,1,3.17-3.18A3.17,3.17,0,0,1,21.09,33.92Z" style="fill: #fff"/>
        <path d="M15,45.49s1.22,3.23,1.37,3.31,3.5,1.76,3.5,1.76l-.82-3.89.58-.62-.7,0,.14-1.91Z" style="fill: #eec29d"/>
        <path d="M19,42.72c-.24-1.77.74-7.69.74-7.69l-1.64-.73c-.65,2.84-3.84,3.53-3.84,3.53A12.2,12.2,0,0,1,12,42.52C12.84,40.7,14,37.4,14,37.4a4.25,4.25,0,0,0,3.14-4.53,4.4,4.4,0,0,1-.38-3.58,33.68,33.68,0,0,1-7.64-4.46l1.31,1.6A14.13,14.13,0,0,1,4.72,24a2.76,2.76,0,0,0-1.5.16l-1,2.76L4,25.08a9,9,0,0,0-2.31,3.51c.18.53,1.73,1.7,1.73,1.7a10.39,10.39,0,0,0-1.5,1.27,37.92,37.92,0,0,0-1.2,4,5.64,5.64,0,0,1,2.6-.86c-1.93.37-2.18,1.19-2.18,1.19.54,1.06,2.63.82,2.63.82a1.41,1.41,0,0,1-.09,1.65l.72.72A3.35,3.35,0,0,1,8,40.26c-3-1.46-3.72-.33-3.72-.33-.56,1.25,1.67,2,1.67,2l-.49,0c-2.16,3.17-.1,4.43-.1,4.43,2.75,2.42,6.84-.81,6.84-.81A4.82,4.82,0,0,1,10.41,45,14,14,0,0,0,19,42.72ZM6.86,35.25a1.82,1.82,0,0,1-2.39.87c-1.31.44-1.79.08-1.79.08.44-1.19,2.13-.3,2.13-.3.63.44,1.3-.45,1.3-.45.67-1.57-1-1.58-1-1.58-.63-.17-.25-.38-.25-.38,3.1-.1,3.29,3.95,3.31,4.45v0A14.12,14.12,0,0,0,6.86,35.25Zm.53-7.43c-1,.09-2.22,1.47-2.22,1.47a12.22,12.22,0,0,1,3.33-.07c-3.4,1.23-3.35,1.69-3.35,1.69-2.3.45-.71-.34-.71-.34,0-.82-.81-.78-1.4-1.21a3.3,3.3,0,0,1-.87-1,3.51,3.51,0,0,0,1.35,0,37.83,37.83,0,0,1,3.63-2A21.47,21.47,0,0,1,10.8,28,28.49,28.49,0,0,0,7.39,27.82Z" style="fill: #eec29d"/>
        <path d="M5.41,32.07s6.76,3.28,5.41,8.27a11.06,11.06,0,0,0,2.94-4.13S8.09,32.76,5.41,32.07Z" style="fill: #f10000"/>
        <path d="M5.56,31.7s6.42,2.06,8.92,3.75c0,0,.71-5.39-4.75-6.48l2.37,3.1Z" style="fill: #f10000"/>
        <polygon points="4.63 29.79 6.52 29.7 4.85 30.43 4.63 29.79" style="fill: #fff"/>
        <path d="M20.35,35.22,19.68,45.3,21,45.14,19.68,46.9l.56,2.6A14.36,14.36,0,0,0,23,46.75V45.26s-.1,1.64,1.12,1.87l2.28.41s-.18-4.55-.57-4.78-1.71-1.19-1.71-1.19l1.46.13A36.12,36.12,0,0,0,23,34.8l-1.22.41s1.38,5.84,1,9c0,0-1.28-9.06-1.4-9.06Z" style="fill: #fff"/>
        <path d="M23,47.09a97.55,97.55,0,0,1,1.38,11.78s-2.48-2.78-4.08-9A11.57,11.57,0,0,0,23,47.09Z" style="fill: #696969"/>
        <path d="M23.4,47.09l1.35,11a44.61,44.61,0,0,0,1.55-9.31A14.63,14.63,0,0,1,23.4,47.09Z" style="fill: #696969"/>
        <path d="M23.42,49.43l-2.36,2.93a20.31,20.31,0,0,0,3.35,6.51C24.09,54.47,23.71,51.35,23.42,49.43Z" style="fill: #f10000"/>
        <path d="M23.67,49.28l1.08,8.81a53.22,53.22,0,0,0,1.35-6.63Z" style="fill: #f10000"/>
        <polygon points="28.17 48.28 30.77 51.47 30.7 55.73 28.17 48.28" style="fill: #f10000"/>
        <path d="M30.65,56.59,27,46.18l-.13,1.87-1.28-.2,1.32.8-.46,3.48A22.59,22.59,0,0,0,30.65,56.59Z" style="fill: #f20000"/>
        <path d="M27.41,47.23l-.37-1-.13,1.87-1.28-.2,1.27.77A4.47,4.47,0,0,1,27.41,47.23Z" style="fill: #696969"/>
        <path d="M29.19,42.71l-4.94-8.8.53-.59S30,37.82,32,41l-1.62.57a11.06,11.06,0,0,0,2.12.37c0,.18,1.61,3.13,1.61,3.13l-3.56-.23-.73-1.22.59,1.27s-.1,2.64-1.18,3.78c0,0-1.6-1.68-1.51-2.21s.33-1.9.33-1.9l-1.21,1.1-.54-3-.77-.55.63.08s-1.86-6.31-2.82-7.52a.77.77,0,0,1,.71-.42C24.1,34.31,29,42.88,29.19,42.71Z" style="fill: #fff"/>
        <path d="M30.65,45.47l6,9.55a15.58,15.58,0,0,1-7.29-6.25S30.23,48.27,30.65,45.47Z" style="fill: #f10000"/>
        <path d="M30.88,45.2S35.8,53.15,37,54.85a34.59,34.59,0,0,0-2.69-9.59Z" style="fill: #f10000"/>
        <path d="M31.88,47.42l-1.23-2c-.42,2.8-1.27,3.3-1.27,3.3A17.44,17.44,0,0,0,31,51,13.56,13.56,0,0,0,31.88,47.42Z" style="fill: #696969"/>
        <path d="M35.31,47.82a25.51,25.51,0,0,0-1.05-2.56l-3.38-.07,1.21,2A13.48,13.48,0,0,0,35.31,47.82Z" style="fill: #696969"/>
        <path d="M32.62,37.87h2.31a27.26,27.26,0,0,1,3.53,3.9,5.09,5.09,0,0,1-3.51.61l-.18,2.55-2.15-3.41-.74-.05.51-.5-1.51-2.08,2.77,2.33s-7.94-7.79-8.66-8l.26-.8a48.2,48.2,0,0,1,8.45,4.8C33.42,37.31,32.62,37.87,32.62,37.87Z" style="fill: #fff"/>
        <path d="M35.45,42.69l8.44,8.06A51.51,51.51,0,0,0,38.68,42,4.82,4.82,0,0,1,35.45,42.69Z" style="fill: #f10000"/>
        <path d="M35.31,42.88,43.68,51s-8.07-1.85-8.63-5.25A6.65,6.65,0,0,1,35.31,42.88Z" style="fill: #f10000"/>
        <path d="M37,48.21l-.11-3.85-1.53-1.48A6.9,6.9,0,0,0,35,45.73,4.13,4.13,0,0,0,37,48.21Z" style="fill: #696969"/>
        <path d="M40.31,44.3c-.5-.76-1.05-1.55-1.63-2.33a4.82,4.82,0,0,1-3.23.72l1.69,1.61Z" style="fill: #696969"/>
        <polygon points="35.97 38.44 37.66 40.1 37.66 39.36 35.97 38.44" style="fill: #fff"/>
        <path d="M25.71,30.92A94.37,94.37,0,0,1,36,34.54l-1.06.9L36.9,35a29.48,29.48,0,0,1,4.2,3.1,5.59,5.59,0,0,1-3.32,1.08s-6-3.73-12.34-7.15Z" style="fill: #fff"/>
        <path d="M38.32,39.49l9.13,6.37a27.94,27.94,0,0,0-6.08-7.5A5.94,5.94,0,0,1,38.32,39.49Z" style="fill: #696969"/>
        <path d="M38,39.6l9.12,6.33s-3.75.07-5.82-1.16A28.44,28.44,0,0,0,38,40.55C38,40.23,38,39.6,38,39.6Z" style="fill: #696969"/>
        <path d="M43.49,40.35l-3.35.41,7.31,5.1A30.91,30.91,0,0,0,43.49,40.35Z" style="fill: #f10000"/>
        <path d="M40,41l.07,2c.82,1.09,1.29,1.86,1.29,1.86,2.07,1.22,5.82,1.15,5.82,1.15Z" style="fill: #f10000"/>
        <path d="M25.6,30.55s8.64,2.26,12.64,4.77v-.79s.95,2.48,3.38,2.37c0,0-.5-3.12-2.89-3.87a2.17,2.17,0,0,0,1.5,0c1.2-.81,2.79-2.17,0-1.88l-.7-.7v1l-6.25-.08,4,1.24S28.05,30.38,25.6,30.55Z" style="fill: #fff"/>
        <path d="M40.54,34A35.12,35.12,0,0,1,48.42,39s-4.71-1.59-6.49-2A21.91,21.91,0,0,0,40.54,34Z" style="fill: #696969"/>
        <path d="M40.22,33.47a53.37,53.37,0,0,1,8.14,5,23.32,23.32,0,0,0-6.27-6.81A3.48,3.48,0,0,1,40.22,33.47Z" style="fill: #696969"/>
        <path d="M42.35,34.88a5.51,5.51,0,0,1,1.44,2.66c2.06.63,4.63,1.5,4.63,1.5A31,31,0,0,0,42.35,34.88Z" style="fill: #f10000"/>
        <path d="M44.69,33.76a9.62,9.62,0,0,1-2.23.89,43.44,43.44,0,0,1,5.9,3.79A26.54,26.54,0,0,0,44.69,33.76Z" style="fill: #f10000"/>
        <path d="M40.73,27.39s7.32-.67,11.83-1.46c0,0-2.18,2.38-9.58,4.12A8.18,8.18,0,0,0,40.73,27.39Z" style="fill: #696969"/>
        <path d="M40.73,27.11l10.93-1.44a54.74,54.74,0,0,0-9.78-1.48A8.61,8.61,0,0,1,40.73,27.11Z" style="fill: #696969"/>
        <path d="M43,27.17l2.56,2.2c5.36-1.62,7-3.44,7-3.44C49.62,26.45,45.5,26.91,43,27.17Z" style="fill: #f10000"/>
        <path d="M44.73,24.48a8.63,8.63,0,0,1-2.08,2.37l9-1.18A44.46,44.46,0,0,0,44.73,24.48Z" style="fill: #f10000"/>
        <path d="M50.41,32.79l-5.3.35-2.46-2.31,4.13-1.25,3.51,2.8a33.12,33.12,0,0,0-6-1.38S49.58,32.16,50.41,32.79Z" style="fill: #f80000"/>
        <path d="M38.89,29.37l1.65,1.27,2.11-.59s-1.46-2.31-2.43-2.65c-.23,0-1.45.12-1.45.12a9.41,9.41,0,0,0,1.45-.42,10.17,10.17,0,0,0,1.48-2.91s-4.73.07-5.63.46c0,0-.25.56-.82,1.65V25s-6.38,1.83-10.53,3c.25.41.6,1.1.6,1.1a89.18,89.18,0,0,1,12.2-1.32S31,29,25.44,29.65c0,0,3.72,1.52,13.55,1.27Z" style="fill: #fff"/>
        <polygon points="37.62 23.12 39.18 23.78 38.18 23.88 37.62 23.12" style="fill: #696969"/>
        <path d="M39.9,23.82a65.46,65.46,0,0,1,7.17.37s3.44-2,3.9-2.66C51,21.52,39.94,23.55,39.9,23.82Z" style="fill: #f10000"/>
        <path d="M41.32,23l8.9-1.7s-5.11-.4-5.43-.54-1.3-.48-1.3-.48l.76.83Z" style="fill: #f10000"/>
        <path d="M41.79,23.31a7.79,7.79,0,0,0-1.89.51s1,0,2.61,0Z" style="fill: #696969"/>
        <path d="M36.73,22.5l1.05,1.38L36,24.19l-.54.87v-.8s-8.7,2.35-11,3.51l-.58-.66,9.49-5L23.11,26.78a83.41,83.41,0,0,1,9.14-7.53,8.66,8.66,0,0,1,.23,1.35,21.63,21.63,0,0,1,1.32-2.2,18.33,18.33,0,0,1,4.35-1.5A10,10,0,0,1,37.83,20a13.7,13.7,0,0,0-2.32,1.15s.92-.28,2.52-.91c0,0,3.23,1.45,3.29,1.88l-2,1.17A13.72,13.72,0,0,0,36.73,22.5Z" style="fill: #fff"/>
        <polygon points="21.09 24.56 25.6 23.44 22.7 26.17 21.09 24.56" style="fill: #fff"/>
        <path d="M19.92,23.73s7.32-3.81,9.47-5.79l-10,5.56-.33-.38s5.1-4.86,7.7-7l.49,1.41a13.48,13.48,0,0,1,.64-2.2c.17-.12,4.84-3,4.84-3l-.29,3.71-2.16,1.41,2.23-1.1,2.73.78-1.81.7-.73,1.6,0-1.22s-3.92,2.57-5.65,4.09a68.24,68.24,0,0,1-6.76,1.85Z" style="fill: #fff"/>
        <polygon points="17.26 21.83 20.7 20.77 18.49 22.86 17.26 21.83" style="fill: #fff"/>
        <path d="M23.37,12.66l5.2-3-.37,3.62-1.72,1.3,1.87-1.06,1,.27-1.86,1.4-.28,1.06-.08-.77a38.84,38.84,0,0,0-5.21,4.32,53,53,0,0,0-5.46,1.74L16,21.14s7.22-4.19,9-5.83c0,0-8.66,5-9.37,5.57l-.81-.5a92.56,92.56,0,0,1,7.63-6.82l.78,1.55Z" style="fill: #fff"/>
        <path d="M28.9,13.25s6.16-4.11,8.9-7.58c0,0-.92,4.23-2,4.72l-.34,2-.37-1.83-5.16,3Z" style="fill: #6b6b6b"/>
        <path d="M28.53,13.05s7.55-4.67,9.34-8.32a27.79,27.79,0,0,1-2.65,1.58C33,7.52,29.86,9,28.72,9.59Z" style="fill: #696969"/>
        <path d="M37.87,4.73C36.59,7.26,33,10,30.63,11.65l.78-3.41A56.22,56.22,0,0,0,37.87,4.73Z" style="fill: #f10000"/>
        <path d="M30.92,11.83l1.2.39L35,10.54l.38,1.83.34-2c1.11-.49,2-4.72,2-4.72A39.92,39.92,0,0,1,30.92,11.83Z" style="fill: #f10000"/>
        <path d="M33.05,16.12s7.46-4.7,9.42-8.32c0,0-1.06,6.84-6.76,9.26A13.35,13.35,0,0,0,33.05,16.12Z" style="fill: #696969"/>
        <path d="M32.86,15.76S39.72,12,42,7.8a28.85,28.85,0,0,1-5.8,3,11.28,11.28,0,0,1-.94,3s-.45-2.6-.65-2.52-1.58.86-1.58.86Z" style="fill: #696969"/>
        <path d="M38.52,15.24A14.17,14.17,0,0,0,42.47,7.8c-1.26,2.33-4.79,5.1-7.16,6.79Z" style="fill: #f10000"/>
        <path d="M36.22,10.83a11.28,11.28,0,0,1-.94,3s0-.27-.11-.63v1.13c2.21-1.48,5.42-3.92,6.85-6.54A28.85,28.85,0,0,1,36.22,10.83Z" style="fill: #f10000"/>
        <path d="M38.42,20.09s11.24-4.33,11.42-4.56a24.48,24.48,0,0,1-5.21,4.65l-2.36-.53,1.09,1.29-1.68,1S38.71,20.16,38.42,20.09Z" style="fill: #696969"/>
        <path d="M38.13,20l10.3-4.19s-9,.63-10,1.14Z" style="fill: #696969"/>
        <path d="M41.21,16.4a8.06,8.06,0,0,1-1,2.71l8.25-3.35S44.2,16.06,41.21,16.4Z" style="fill: #f10000"/>
        <path d="M40.55,19.26l1.86.55-.14-.16,2.36.52a24.3,24.3,0,0,0,5.21-4.64C49.71,15.7,43.82,18,40.55,19.26Z" style="fill: #f10000"/>
        <path d="M18,14.88,19.8,15s-4,3.74-5.38,5.31l-1.4-.9a37.73,37.73,0,0,1,3-3c.33-.08,2.7-.95,2.7-.95Z" style="fill: #fff"/>
        <polygon points="10.55 18.28 14.61 16.98 12.58 19.36 10.55 18.28" style="fill: #fff"/>
        <path d="M10.55,17.85l7.37-2.54-1.05-1,2.71.39a7.26,7.26,0,0,0,3.09-2l.26,1V12.58s3.44-1.89,3.36-2.3a4.85,4.85,0,0,0-1-.12,7.79,7.79,0,0,1-2.82,1.12,16,16,0,0,0,2.66-1.35c0-.15.07-2,.07-2a25,25,0,0,1-3.33,1.71C17.5,11.52,10.2,14.67,9,17.86l.55.11s3.14-3,11-5.94C20.48,12,12.89,16,10.55,17.85Z" style="fill: #fff"/>
        <path d="M25.33,9.86s5.32-3.39,6.59-7.32a23.18,23.18,0,0,1-6.39,5.14Z" style="fill: #696969"/>
        <path d="M25.61,10a17.21,17.21,0,0,0,6.48-7.09s.39,1.25-1.26,4.89l-3.89,2.32Z" style="fill: #696969"/>
        <path d="M19.44,9.49s6.85-4.12,7.21-7.44a5,5,0,0,1-2.8,6A8.85,8.85,0,0,1,19.44,9.49Z" style="fill: #696969"/>
        <polygon points="19.99 7.15 21.44 6.2 21.56 7.8 19.56 9.1 19.99 7.15" style="fill: #696969"/>
        <path d="M26.39,1.81a10.73,10.73,0,0,1-4.23,5.36L22.87,5A21.61,21.61,0,0,0,26.39,1.81Z" style="fill: #f10000"/>
        <path d="M28.06,6.08,27.81,8a13.52,13.52,0,0,0,4.11-5.43A22.2,22.2,0,0,1,28.06,6.08Z" style="fill: #f10000"/>
        <path d="M30.66,7.9l.17-.1c1.65-3.64,1.26-4.89,1.26-4.89A17,17,0,0,1,28,8.23Z" style="fill: #f10000"/>
        <path d="M26.65,2.05c-.23,2.1-3,4.53-5.1,6,.19.12.74.27,2.27,0l0,0A5,5,0,0,0,26.65,2.05Z" style="fill: #f10000"/>
        <path d="M6,16.83S6.84,12,13.42,10a37.37,37.37,0,0,0,6.26-2.59A3.29,3.29,0,0,1,18,10.21L19,9.7l1.43,0s-1.19.64-2.83,1.37c-3,1.34-7.47,3.53-9,6.57a2.59,2.59,0,0,1-.76-.36,17.34,17.34,0,0,1,8.06-6.48,14,14,0,0,0-8.61,6.43Z" style="fill: #fff"/>
        <polygon points="5.77 23.92 6.52 24.46 6.96 24.46 6.37 23.92 5.77 23.92" style="fill: #6c6c6c"/>
        <path d="M7.68,23.92A5.53,5.53,0,0,0,9,25.25L8.18,24Z" style="fill: #6c6c6c"/>
        <path d="M9,24.19s3.3,2.23,5.29,3.27c0,0-2.78-2.27-3.27-2.88Z" style="fill: #6c6c6c"/>
        <path d="M11.9,25a22.62,22.62,0,0,1,3.21,2.26A4.94,4.94,0,0,0,11.9,25Z" style="fill: #6c6c6c"/>
        <path d="M22.22,26.17a31.79,31.79,0,0,0-4.06-3.08c-8.19-5.41-12-5.75-12-5.75-1.7-.22-1.34.44-1.34.44a46,46,0,0,1,16.9,8.49Z" style="fill: #f10000"/>
        <path d="M17.38,28S11.11,21.54,3,23.85a2.69,2.69,0,0,1-.61.24c-.51-.1-.45-.89.65-.94,2.38-.59,8.77-1.41,14.63,4.62Z" style="fill: #f10000"/>
        <path d="M18.48,27a3.91,3.91,0,0,1,2.44-.81L19.57,25Z" style="fill: #f20000"/>
        <polygon points="16.86 26.33 17.84 27.46 19.32 24.89 18.09 24.09 16.86 26.33" style="fill: #f10000"/>
        <polygon points="15.48 25.25 16.58 26.15 17.8 23.83 16.64 23.16 15.48 25.25" style="fill: #f10000"/>
        <polygon points="13.95 24.33 15.11 25.15 16.33 23.05 15.01 22.28 13.95 24.33" style="fill: #f10000"/>
        <polygon points="12.46 23.71 13.65 24.19 14.71 22.09 13.59 21.43 12.46 23.71" style="fill: #f10000"/>
        <polygon points="10.99 23.16 12.19 23.6 13.22 21.31 12.1 20.86 10.99 23.16" style="fill: #f10000"/>
        <polygon points="9.53 22.74 10.55 20.14 11.82 20.72 10.78 23.04 9.53 22.74" style="fill: #f10000"/>
        <polygon points="7.93 22.5 9.13 19.46 10.36 20 9.32 22.64 7.93 22.5" style="fill: #f10000"/>
        <path d="M6.37,22.28,7.68,19l1.23.5a6,6,0,0,0-1.27,2.88C7.39,22.34,6.37,22.28,6.37,22.28Z" style="fill: #f10000"/>
        <path d="M4.32,22.34,6,18.46l1.31.4a20.37,20.37,0,0,0-1.4,3.42Z" style="fill: #f10000"/>
        <path d="M2.76,22.52a13.47,13.47,0,0,1,2-4.35l.9.29a20.44,20.44,0,0,0-1.75,3.95Z" style="fill: #f30001"/>
      </g>
    </g>
  </g>
</svg>
