<svg xmlns="http://www.w3.org/2000/svg" viewBox="0 0 49.54 61.12">
  <title>38</title>
  <g id="Layer_2" data-name="Layer 2">
    <g id="Layer_1-2" data-name="Layer 1">
      <g id="_38" data-name="38">
        <path d="M13.41,43.63s-2.74,9.88,1.19,16.82c0,0,4.93-4.75,6.33-15.46.12.54,1.63,6.64,6.81,9.73.25-1.19,1.07-4.8.92-6.41,0,0,4.05,3.7,7.75,2.38,0,0-.36-5.3-1.82-7.62.94.39,8.63,1.56,10.28-.46a63,63,0,0,0-3.82-5.73c.83-.27,6.89-2,8-4.61,0,0-4.1-2.11-6.1-3.05,0,0,3.9-1.26,4.51-2.66,0,0-1.53-1.71-6.39-3.59,0,0,5.37-4.2,5.45-5-.36-.07-4.62-1-7.25-1.78L42.51,12a43.44,43.44,0,0,0-7.1-1.36s2.85-4.47,2.86-4.82A28.6,28.6,0,0,0,30,5,18.51,18.51,0,0,0,32.5.45s-16.86.77-22.73,15a1.6,1.6,0,0,0-2.18.25c-.92.91-2.67,3.12-2.73,3.2a1.6,1.6,0,0,0,.31,2.42A22.29,22.29,0,0,0,3,24.19c-.23.46-.66.9.37,1.91,0,0-3,3.1-2.9,6.95,0,.06,0,2.2,2.64,1.92,0,0,.3,0,.06.23s-1,.84.59,2.25c0,0-.59,1.28.36,1.74,0,0,.74.51,0,1.85-.16.37-1.17,3.14,1.87,3.81A12.13,12.13,0,0,0,13.41,43.63Z" style="stroke: #fff;stroke-miterlimit: 10;stroke-width: 0.8396000266075134px"/>
        <g>
          <circle cx="20.38" cy="31.55" r="1.71" style="fill: #fefefe"/>
          <path d="M15.62,30.55c-3.14-4.44-9.44-8.89-9.44-8.89s-1.48,1.71-1.95,2.4a1.68,1.68,0,0,0,.3,2.17c-3.8,4.3-3,6.91-3,6.91a1.69,1.69,0,0,0,1,.86c.24,0,1.06-.31,1.45.26s-.24,1.46-.24,1.46a1.63,1.63,0,0,0,1.15,1.37c.56.15,2.77.52,2.77.52l-.37-.47a1.37,1.37,0,0,1,.94,1.63l-.36-.65a8,8,0,0,1-3.25-.68v.69c1.17,1.49.82,1.83.82,1.83-1.58,2.71.14,3.76.7,3.87,3.25.71,7.32-1.42,7.9-1.7a21.48,21.48,0,0,1,3-7A4.85,4.85,0,0,1,15.62,30.55Zm-8.2,4.26a14,14,0,0,0-1-1.54A1.32,1.32,0,0,1,5,34a.26.26,0,0,0-.22-.32c-1.38.13-1.2-.06-1.24-.19,0-.43,1.36-.28,1.54-.28s.27.33.27.33c.4-.05.58-.27.51-.58-.18-.85-1.62-.75-1.62-.75s2.07-2,4.1,3.19A6.7,6.7,0,0,0,9,36.67c.35.62.8,1.23,1.25,1.9C9.29,38.26,8.21,36.53,7.42,34.81Zm0-8.75A8,8,0,0,0,10,27.11l-2.65.38a4.36,4.36,0,0,0-.72,2.32,2.79,2.79,0,0,1,.23-2.62.72.72,0,0,0-.28-.54,1.37,1.37,0,0,1-.82-.3h.48A2.14,2.14,0,0,1,5,25.45c.15,0,.79.21.79.21,1.07,0,1.22-.32,2.14-.57,1.63-.58,3.12,1,3.12,1A5.13,5.13,0,0,0,7.41,26.06Zm5.36,11a5.15,5.15,0,0,1-1.4-2.76,13.79,13.79,0,0,0,2.37-3,4.37,4.37,0,0,1-1.51,3.4C12.44,35.47,12.77,37.05,12.77,37.05Z" style="fill: #f39d76"/>
          <path d="M17.9,27.39l.11-.06s-.53-1.07-1.44-2.57l-.94,3Z" style="fill: #fff"/>
          <path d="M16.21,24.18A34,34,0,0,0,13,19.77l-.56,4.37Z" style="fill: #fff"/>
          <path d="M12.69,19.48a14.74,14.74,0,0,0-3.87-3.16A15.77,15.77,0,0,0,8,20.72Z" style="fill: #fff"/>
          <path d="M30.77,1.79S14.5,3.61,10.56,16.71c0,0,4.41-10.87,19-14.26,0,0-1,.36-2.71,1-4.93,2-11.66,5.3-15.57,13.39a4.84,4.84,0,0,0,2.2-1.28s3.43-8,15-10.12C28.39,5.45,30.59,2.79,30.77,1.79Z" style="fill: #fff"/>
          <path d="M32.05,6a16.82,16.82,0,0,1,5,.42,10.42,10.42,0,0,1-3,4.14,20.23,20.23,0,0,0-18.25,8,6.85,6.85,0,0,1-2.4.41s5.19-8.06,18-11c1-.23,2.13-.53,3.11-.71a34.3,34.3,0,0,0-21.7,11.24S15.6,7.45,31.58,5.73V7.38Z" style="fill: #fff"/>
          <path d="M15.35,21a25.05,25.05,0,0,1,3.45-4.11c2.78-2.73,6.5-5.81,15.42-5.52l-.51,1.27,1.15-1.29a43.75,43.75,0,0,1,5.92,1.1,23.59,23.59,0,0,1-3.05,3.65c-.89-.13-2.26-.21-2.26-.21a7.43,7.43,0,0,1-3-1.59,2.64,2.64,0,0,0,1.26,1.48,21.71,21.71,0,0,0-15.3,6.14,8,8,0,0,1-2.78-.22A42.24,42.24,0,0,1,36.58,13c1-.13,2.06-.31,3-.4C39.62,12.61,26.16,12.51,15.35,21Z" style="fill: #fff"/>
          <path d="M17.9,23.92S23,14.49,38.56,17.18c-.08.39-.13.55-.13.55l.45-.48,1.14.23-.53,1.15,1-1s2.72.58,4.33.76c0,0-3.82,3.67-5.7,4,0,0-9.35-3.15-17.52,2.27a2.49,2.49,0,0,0-.67.63L18.17,25s8.32-5.76,24.43-6.11A55.19,55.19,0,0,0,17.9,23.92Z" style="fill: #fff"/>
          <path d="M20.38,26.64s10.51-9.84,25.4-.15c0,0-1.1,1.34-4.81,2.14a27.66,27.66,0,0,0-16.5.27,9.92,9.92,0,0,0-1.19-1.27s8-4,20.49-1.1a31.7,31.7,0,0,0-21.37.6,4.83,4.83,0,0,0-2-.44" style="fill: #fff"/>
          <path d="M24.81,29.59s10.35-4.39,22.28,2.82c0,0-2.6,2.51-8.14,3.45,0,0-5.17-3.8-9.43-3.64,0,0,7.61,0,15.32.47a166.91,166.91,0,0,0-19.62-1.25A4.23,4.23,0,0,0,24.81,29.59Z" style="fill: #fff"/>
          <path d="M25.11,32.65s11.74-1.18,18.15,9.41c0,0-5.25,1.44-9.65-.31a12.89,12.89,0,0,0-7.07-6.53A35.84,35.84,0,0,1,40.22,41s-3-4.09-15.53-7.19A3.92,3.92,0,0,0,25.11,32.65Z" style="fill: #fff"/>
          <path d="M23.6,35.22s7.75.55,10.77,10.6c.34,1.15.33,2.07.83,3.83a7.42,7.42,0,0,1-4-.74c-.79-.45-1.79-1.24-3-2,0,0-1.13-5.91-3.31-9.09a36.58,36.58,0,0,1,8.93,10.5S31.8,42.14,23.6,35.22Z" style="fill: #fff"/>
          <path d="M22.73,35.86s5.43,5.66,4.36,16.87a4,4,0,0,1-1.23-1,19.24,19.24,0,0,1-4.64-15.42h.28a97.46,97.46,0,0,1,4.91,14.55A65,65,0,0,0,22.26,36Z" style="fill: #fff"/>
          <path d="M19,36.2c-.5,3.31-2.05,11.67-2.95,16.53-.47,2.25-.94,3.72-.94,3.72,1.1-7.21,3.38-20.4,3.38-20.4l-.91-.56a5.72,5.72,0,0,0-.77,1.37c-5.76,13.88-1.92,21.68-1.92,21.68,4.86-8.65,5.24-15.36,5.06-19-.1-2-.22-3.14-.22-3.14Z" style="fill: #fff"/>
        </g>
        <g>
          <path d="M20.38,27.55a4,4,0,1,0,4,4A4,4,0,0,0,20.38,27.55Zm0,6.43a2.43,2.43,0,1,1,2.43-2.43A2.43,2.43,0,0,1,20.38,34Z" style="fill: #f1202c"/>
          <path d="M15.63,27.79l.94-3c-.11-.19-.23-.38-.36-.58l-3.82,0L13,19.77a3.58,3.58,0,0,0-.26-.29L8,20.72a15.77,15.77,0,0,1,.78-4.4h0a7,7,0,0,0-3.11,4c.82.21,7.23,5.32,10.14,9.53a4.63,4.63,0,0,1,2-2.45Z" style="fill: #f1202c"/>
          <path d="M23.7,3.68l-.43.91a32,32,0,0,1,6.25-2.14s-1.05.36-2.72,1c-1,.41-2.13.88-3.27,1.44A6.73,6.73,0,0,0,25.84,6a25.17,25.17,0,0,1,2.55-.59s2.2-2.66,2.38-3.66A31,31,0,0,0,23.7,3.68Z" style="fill: #f1202c"/>
          <path d="M32.05,6l-.47,1.34V5.73l-.77.09a23.34,23.34,0,0,0-.66,2.35,26.53,26.53,0,0,1,4.46-.8c-1,.18-2.12.48-3.11.71-.45.1-.89.21-1.33.33l0,.07a4.81,4.81,0,0,0,2,2,13.91,13.91,0,0,1,1.9.11,10.42,10.42,0,0,0,3-4.14A16.82,16.82,0,0,0,32.05,6Z" style="fill: #f1202c"/>
          <path d="M34.86,11.31l-1.15,1.3.51-1.28h-.46l-.91,2a38.81,38.81,0,0,1,6.77-.74c-1,.09-2.06.28-3,.4-1.31.16-2.58.37-3.79.63,0,0,.1.75,2.68,2.21,0,0,1.37.08,2.26.21a23.59,23.59,0,0,0,3.05-3.65A43.75,43.75,0,0,0,34.86,11.31Z" style="fill: #f1202c"/>
          <path d="M38.87,17.25l-.07.08L37.74,19h0a38.87,38.87,0,0,1,4.86-.05c-1.92,0-3.72.16-5.41.34l-.08,0a5.78,5.78,0,0,0,3.22,2.59,28.71,28.71,0,0,0,4.51-3.53c-1.61-.18-4.34-.76-4.34-.76l-1,1L40,17.48Z" style="fill: #f1202c"/>
          <g>
            <path d="M38.45,25.65h0Z" style="fill: #f1202c"/>
            <path d="M39.9,23.52a10.55,10.55,0,0,0-1.41,1.78,27,27,0,0,1,5.28,1.24,39.78,39.78,0,0,0-5.3-.88,7.65,7.65,0,0,0,1.58,2.71h0c.6.15.92.26.92.26,3.71-.79,4.81-2.14,4.81-2.14A28,28,0,0,0,39.9,23.52Z" style="fill: #f1202c"/>
          </g>
          <path d="M42.37,30.09a5.3,5.3,0,0,0-2.27,2.08h0c3,.27,4.74.51,4.74.51-1.61-.09-3.21-.16-4.74-.22v.06a5.56,5.56,0,0,0,1.55,2.69,14.23,14.23,0,0,0,5.44-2.81A30.18,30.18,0,0,0,42.37,30.09Z" style="fill: #f1202c"/>
          <path d="M40,38a5.5,5.5,0,0,0-3.08.49h0A11.77,11.77,0,0,1,40.22,41a29.49,29.49,0,0,0-3.58-2.22,7.53,7.53,0,0,0,.29,3.72,19.19,19.19,0,0,0,6.33-.47A19.74,19.74,0,0,0,40,38Z" style="fill: #f1202c"/>
          <path d="M34.37,45.82c0-.1-.06-.19-.1-.29a7.51,7.51,0,0,0-2.5-1.23h0a20.21,20.21,0,0,1,2.07,4,35.51,35.51,0,0,0-2.48-3.79c-.75,1-.82,3.09-.81,4l.07,0a6.62,6.62,0,0,0,.58.36,7.31,7.31,0,0,0,4,.74C34.7,47.89,34.71,47,34.37,45.82Z" style="fill: #f1202c"/>
          <path d="M25.46,46h0c.66,2.84.95,4.87.95,4.87-.43-1.71-.9-3.34-1.36-4.83l-1,3.32a19.17,19.17,0,0,0,1.77,2.36,3.94,3.94,0,0,0,1.23,1,29.18,29.18,0,0,0,.06-4.92Z" style="fill: #f1202c"/>
          <path d="M16.65,49.58h0c-.21,1.14-.4,2.21-.58,3.15-.47,2.25-.94,3.72-.94,3.72.31-2,.7-4.44,1.11-6.94L13.66,51.4a17.83,17.83,0,0,0,1.25,7.15A44.45,44.45,0,0,0,18,51.73Z" style="fill: #f1202c"/>
        </g>
      </g>
    </g>
  </g>
</svg>
