<svg xmlns="http://www.w3.org/2000/svg" viewBox="0 0 57.27 60">
  <title>39</title>
  <g id="Layer_2" data-name="Layer 2">
    <g id="Layer_1-2" data-name="Layer 1">
      <g id="_39" data-name="39">
        <path d="M26.27,58.18a2.37,2.37,0,0,1-.08-.59c0-.15,0-.45,0-.46l-.09-.05a8.44,8.44,0,0,1-.75.72,7.09,7.09,0,0,1-2.15,1.28l-.33.13a7.13,7.13,0,0,1-1.3.41,10.35,10.35,0,0,1-2,.2,14.37,14.37,0,0,1-1.56-.1,2.87,2.87,0,0,1-.6-.14l-1-.39L16.13,58A2,2,0,0,1,17,56.2c.06,0,.12-.1.17-.37l-1.06-.56a9.21,9.21,0,0,1-2.17-1.43c-.42-.39-.8-.82-1.18-1.24l-.18-.21c-.26-.29-.51-.61-.75-.93L11,50.4l-.16-.23c-.18-.24-.35-.49-.54-.72a9.25,9.25,0,0,0-.72-.81A2.57,2.57,0,0,0,9,48.22a4.6,4.6,0,0,0-1.92-.33A5,5,0,0,1,6,47.73l-.34-.08-.14,0A4,4,0,0,1,3.4,46.36a5.46,5.46,0,0,1-1.21-2,3.47,3.47,0,0,1,.18-2.89,2.91,2.91,0,0,1,.25-.42c-.19-.25-.35-.5-.51-.75A3,3,0,0,1,2,37.42l.09-.18L2,36.88a2,2,0,0,1-.1-1A4.38,4.38,0,0,1,.34,34.34,2.31,2.31,0,0,1,0,33.22a4.93,4.93,0,0,1,.34-2.37,4.66,4.66,0,0,0,.16-.49c.06-.21.12-.41.19-.6s.22-.53.34-.78l.14-.31c.15-.31.29-.62.44-.92l.75-1.43A6.7,6.7,0,0,1,3.64,24.7l.06-.07a4.25,4.25,0,0,1-.16-.89A3.3,3.3,0,0,1,4,22c.18-.35.38-.69.59-1l.5-.84c-.06-.16-.11-.33-.16-.49A2.34,2.34,0,0,1,5,18a3.83,3.83,0,0,1,1.88-2.1l.28-.46a2.58,2.58,0,0,1,.09-1.73A3.76,3.76,0,0,1,9.38,11.5l.24-.09a6.64,6.64,0,0,1,.64-1.86A7.57,7.57,0,0,1,12,7.37l.26-.26c.28-.26.55-.52.85-.75a10.72,10.72,0,0,1,1.5-1,4.52,4.52,0,0,1,2.06-.46h.45l.28-.14.75-.38L19,4.06l.2-.08,1.17-.46c.26-.11.53-.21.8-.3l1.14-.41,1.37-.46L24.87,2l1.43-.43.44-.13L29.6.66A2.48,2.48,0,0,1,30,.56l1-.15L32.79.12A8.26,8.26,0,0,1,34.1,0a5.39,5.39,0,0,1,1,.09l.12,0a4.49,4.49,0,0,1,1.23.36h.31c.34,0,.68,0,1,0s.66.08,1,.13l.33.06a5,5,0,0,1,.69.12l1.32.37.36.1.34.12.4.15c.33.12.67.25,1,.39.52.23,1,.47,1.53.73s.71.4,1.07.61l.36.22a2.07,2.07,0,0,1,1,1.4,2.07,2.07,0,0,1-.08,1l.11.08a9.19,9.19,0,0,1,.75.65l.29.26s.74.64.91.8l1.08,1,1.53,1.46.23.16.25.39,1.1,2-1.81.93,1.56,1.47,1.47,1.34.67.63,2.06,2-2,1.24a2.34,2.34,0,0,1-.25.15c.13.17.25.35.37.53.27.44.54.9.79,1.37a3.55,3.55,0,0,1,.34.88c.19.62.34,1.14.47,1.66a2,2,0,0,1-.34,1.74,2.07,2.07,0,0,1-1.66.78H54.6A12.79,12.79,0,0,1,55.39,29a7.59,7.59,0,0,1,.43,1.91,16.15,16.15,0,0,1,0,3.57,3.48,3.48,0,0,1-.24.89,2,2,0,0,1-1.74,1.27c0,.28.09.57.13.86.07.54.12,1.09.16,1.65l.06.64a3.21,3.21,0,0,1,0,.62,2,2,0,0,1-1.94,1.81h-.66a11.76,11.76,0,0,1,0,2.58l-.11,1.32a3.53,3.53,0,0,1-.13.68,2.47,2.47,0,0,1-.34.64l-1.1,1.46-1.5-1a1.87,1.87,0,0,1-.32-.25,10.37,10.37,0,0,1-.12,1.09,6.79,6.79,0,0,1-.55,1.7,12.72,12.72,0,0,1-.58,1.17l-.16.32a2.84,2.84,0,0,1-.44.61,2,2,0,0,1-1.49.68,2,2,0,0,1-1.44-.62c-.19-.18-.38-.36-.58-.53l-.3-.06c-.09.23-.19.43-.27.61l-.08.15a5.15,5.15,0,0,1-.51.9l-1,1.41c-.16.21-.32.4-.48.58a2,2,0,0,1-1.52.72,1.91,1.91,0,0,1-1.61-.9,9.23,9.23,0,0,1-.79,1.17c-.25.3-.52.59-.8.87l-.18.18a2,2,0,0,1-1.45.62,2,2,0,0,1-1.55-.73,2.59,2.59,0,0,1-.4-.65l0-.05a5.58,5.58,0,0,1-1.69,2l-.18.12a6,6,0,0,1-.52.36,2.23,2.23,0,0,1-.94.31l-1.8.36Z" style="fill-rule: evenodd"/>
        <g>
          <path d="M54.42,18.79l-.15.08c-.35.11-.71.21-1.05.33s-.53.24-.79.36l-.38.2c-.16.08-.2.19-.09.33a.69.69,0,0,0,.23.22A4.83,4.83,0,0,1,53.93,22c.26.42.51.84.74,1.27a2.58,2.58,0,0,1,.21.57c.15.51.3,1,.43,1.54,0,.2,0,.26-.25.26a14.72,14.72,0,0,0-1.76.05A9.47,9.47,0,0,0,52,26.1l-.36.14c-.16.06-.21.17-.1.3a3.85,3.85,0,0,0,.35.35,5.07,5.07,0,0,1,1.2,1.33,11.8,11.8,0,0,1,.73,1.52,5.5,5.5,0,0,1,.33,1.43,15.46,15.46,0,0,1,0,3.19,1.71,1.71,0,0,1-.13.44c-.07.17-.17.17-.31.05a8.17,8.17,0,0,0-.7-.5,5.07,5.07,0,0,0-.61-.32l-1-.37a.18.18,0,0,0-.16,0,.21.21,0,0,0,0,.16c0,.13.12.26.17.4.16.38.32.77.47,1.16a1,1,0,0,1,0,.16c.13.76.27,1.52.37,2.29s.15,1.48.22,2.23a1.31,1.31,0,0,1,0,.28c0,.14-.11.21-.22.12a1.22,1.22,0,0,0-.76-.23,6.83,6.83,0,0,0-1.75,0c-.35,0-.44.17-.31.51a8.54,8.54,0,0,1,.43,4c0,.45-.08.89-.12,1.34a2,2,0,0,1,0,.26,2,2,0,0,1-.12.19.7.7,0,0,1-.16-.13,4.9,4.9,0,0,0-1.33-1.07c-.46-.27-.93-.52-1.4-.77a5.55,5.55,0,0,0-.56-.24.83.83,0,0,0-.26,0c0,.07,0,.14,0,.21a5.52,5.52,0,0,1,.47,2,14,14,0,0,1-.14,1.94,5.36,5.36,0,0,1-.43,1.26c-.2.47-.45.92-.68,1.37a1.84,1.84,0,0,1-.17.22c-.11.12-.19.11-.31,0-.3-.31-.63-.59-1-.88a.58.58,0,0,0-.24-.1l-1.77-.29c-.65-.09-.7,0-.73.6a3.49,3.49,0,0,1-.46,1.36,3.7,3.7,0,0,1-.35.61c-.33.47-.68.93-1,1.39a5.63,5.63,0,0,1-.38.45c-.13.16-.2.15-.28,0a5.44,5.44,0,0,0-.86-1.4,2.74,2.74,0,0,0-1-.77l-.14-.08c-.23-.17-.38-.1-.43.19a9,9,0,0,1-.22,1.15,5,5,0,0,1-.45,1,7.52,7.52,0,0,1-.64,1c-.27.33-.57.63-.87.93a.18.18,0,0,1-.3,0,.42.42,0,0,1-.11-.18c-.13-.29-.22-.59-.36-.87a3.1,3.1,0,0,0-.94-1.12,4.46,4.46,0,0,0-.82-.47c-.36-.15-.53-.07-.57.28A5.67,5.67,0,0,1,30.26,56a3.83,3.83,0,0,1-1.18,1.44c-.2.14-.4.29-.61.42a.77.77,0,0,1-.28.06c0-.09,0-.19-.05-.28,0-.3,0-.6,0-.9a1.2,1.2,0,0,0-.76-1,3,3,0,0,1-1-.82,1.25,1.25,0,0,0-.23-.23c-.19-.14-.3-.12-.42.09a7.2,7.2,0,0,1-1.45,1.71,5.71,5.71,0,0,1-1.6,1,11.67,11.67,0,0,1-1.37.47,9.79,9.79,0,0,1-3,.07l-.19,0c-.1,0-.11-.11,0-.18a2.83,2.83,0,0,0,1-2.32.88.88,0,0,0-.47-.8A12.06,12.06,0,0,0,17.52,54a10.67,10.67,0,0,1-2.25-1.39c-.44-.42-.83-.88-1.23-1.33-.23-.26-.44-.53-.65-.81s-.49-.7-.74-1-.49-.7-.76-1a9.06,9.06,0,0,0-.88-1A4.16,4.16,0,0,0,10,46.68a6.14,6.14,0,0,0-2.7-.52,6.87,6.87,0,0,1-1-.18l-.21-.06a2.18,2.18,0,0,1-1.21-.75A3.52,3.52,0,0,1,4,43.85a1.66,1.66,0,0,1,.07-1.41,3.32,3.32,0,0,1,.85-1,.35.35,0,0,0,0-.51,8.35,8.35,0,0,1-1.13-1.44,1.16,1.16,0,0,1,0-1.18,2.28,2.28,0,0,1,.38-.5.61.61,0,0,0,0-.63c-.13-.27-.23-.55-.33-.82a.45.45,0,0,1,0-.23c0-.38.09-.75.12-1.13s-.05-.33-.32-.35A2.11,2.11,0,0,1,2,33.48a.73.73,0,0,1-.06-.3,3,3,0,0,1,.19-1.51c.17-.38.25-.81.4-1.21s.23-.52.35-.78.31-.68.48-1,.51-.95.75-1.43a6.18,6.18,0,0,1,1.15-1.4,2.3,2.3,0,0,1,.41-.35.49.49,0,0,0,.13-.82,1.7,1.7,0,0,1-.34-1,1.63,1.63,0,0,1,.25-.81c.22-.44.49-.85.74-1.27l.6-1a.59.59,0,0,0,0-.56,9,9,0,0,1-.31-.87.55.55,0,0,1,0-.36A2,2,0,0,1,8,17.57a1,1,0,0,0,.38-.31,2.88,2.88,0,0,0,.3-.47l.54-.86a.55.55,0,0,0,0-.64.81.81,0,0,1-.09-.8,2,2,0,0,1,1.1-1.21,1.42,1.42,0,0,1,1.05-.07A.19.19,0,0,0,11.5,13a1.25,1.25,0,0,0,0-.43A4,4,0,0,1,12,10.45a5.83,5.83,0,0,1,1.34-1.66,11.62,11.62,0,0,1,1-.89,9.21,9.21,0,0,1,1.23-.79,3.25,3.25,0,0,1,1.84-.24.55.55,0,0,0,.31,0c.46-.22.9-.46,1.36-.68.31-.15.63-.27.95-.4l1.14-.46L21.91,5,23,4.62c.44-.16.89-.31,1.33-.45s.79-.24,1.18-.36L27,3.37l.39-.11,1.84-.49.32-.08.71-.19a.49.49,0,0,1,.16,0c.95-.15,1.89-.29,2.83-.45A5,5,0,0,1,34.9,2,2.63,2.63,0,0,1,36,2.29a.67.67,0,0,0,.37.08c.49,0,1,0,1.46,0s.77.11,1.15.17a4.17,4.17,0,0,1,.51.09c.56.14,1.1.3,1.65.46l.21.07c.43.17.87.32,1.3.5s.95.43,1.4.68.91.52,1.37.79c.16.09.16.21.05.34l-.37.42a2.09,2.09,0,0,0-.27.39.28.28,0,0,0,.09.24c.44.33.91.62,1.34,1s.63.55.94.83l.9.78c.36.32.71.64,1.05,1l1.61,1.54s.06,0,.07.06.12.22.19.33l-.31.14c-.26.13-.53.24-.79.39a8,8,0,0,0-.79.49,1,1,0,0,0-.28.32.27.27,0,0,0,.05.24l1.57,1.46L52,16.51l1.48,1.34Zm-32-4.63.05,0c-.11-.4-.2-.81-.34-1.2a1,1,0,0,0-.36-.45,1.66,1.66,0,0,0-1-.34c-.44,0-.89.06-1.34.1-.18,0-.27,0-.31-.2a5.38,5.38,0,0,0-.27-.89,1.49,1.49,0,0,0-.51-.62,3.24,3.24,0,0,0-1-.33,1.7,1.7,0,0,1-.87-.5.63.63,0,0,1-.15-.32c0-.28,0-.57,0-.85s-.1-.34-.34-.27a3.62,3.62,0,0,0-.81.33,6.48,6.48,0,0,0-1.24,1,5.06,5.06,0,0,0-1.24,2.25,8.75,8.75,0,0,0-.2,1.63.56.56,0,0,0,.27.54,8.42,8.42,0,0,1,.87.6,17,17,0,0,1,1.5,1.31c.7.71,1.37,1.46,2,2.21.32.36.6.75.89,1.13s.71.94,1.06,1.42c.24.33.46.67.7,1s.46.67.68,1,.48.79.72,1.18.45.71.65,1.07c.33.59.64,1.18,1,1.77l.32.61c.15.29.32.57.45.86a.5.5,0,0,0,.47.35,4,4,0,0,1,1.69.25c.37.16.74.3,1.1.48a.63.63,0,0,0,.73-.05,3.36,3.36,0,0,1,.52-.39.46.46,0,0,0,.26-.48,2.71,2.71,0,0,1,0-.41,7.8,7.8,0,0,1,.32-1.85.47.47,0,0,0-.33-.68,1.4,1.4,0,0,1-.37-.17,5.07,5.07,0,0,1-.8-.73,1,1,0,0,1-.2-1.32c.09-.17.16-.34.24-.51s.05-.33-.2-.35l-.59-.06a1,1,0,0,1-.76-.76,3.57,3.57,0,0,1,.43-1.6,2.46,2.46,0,0,0,.14-.38c.05-.2,0-.29-.24-.3l-.2,0a1.68,1.68,0,0,1-1-.21,1.13,1.13,0,0,1-.47-.93c0-.43,0-.86.06-1.29s0-.41-.32-.43a2.76,2.76,0,0,1-.89-.26,1.41,1.41,0,0,1-.75-1.43C22.37,14.52,22.39,14.34,22.41,14.16ZM17.09,35c0-.22,0-.43,0-.65a3.76,3.76,0,0,0,0-.58c0-.06-.15-.16-.18-.15a6.4,6.4,0,0,0-.89.57,8.68,8.68,0,0,0-1,1.06,9.29,9.29,0,0,0-.72,1.12c-.14.25-.26.5-.38.76l-.45,1c-.18.4-.37.79-.57,1.18a.28.28,0,0,1-.23.12.32.32,0,0,1-.22-.16.7.7,0,0,1-.08-.29c-.05-.46-.08-.92-.13-1.38a2.8,2.8,0,0,0-.2-.93,6.18,6.18,0,0,0-.89-1.27A10.94,10.94,0,0,0,9,33.64c-.14-.1-.24-.06-.29.11s0,.2-.06.3a.65.65,0,0,1-.89.52,12.09,12.09,0,0,0-1.47-.35.75.75,0,0,0-1,.66,2.35,2.35,0,0,1-.14.45,3,3,0,0,0-.22,1.21c0,.33.12.42.45.4a6.94,6.94,0,0,1,2.9.38,2.92,2.92,0,0,0,1.39.21.56.56,0,0,1,.38.12A1.52,1.52,0,0,1,10.57,39a.61.61,0,0,1-.17.37c-.15.11-.3,0-.43-.11a5.69,5.69,0,0,0-1.54-.91,4.92,4.92,0,0,0-2-.37,1.78,1.78,0,0,0-1.1.32,1,1,0,0,0-.21,1.54c.41.4.8.82,1.19,1.24.2.21.16.39-.1.53a1.17,1.17,0,0,0-.27.15,4,4,0,0,0-.78,1,1.53,1.53,0,0,0,.23,1.51A2.11,2.11,0,0,0,7.06,45,8.66,8.66,0,0,0,9,45c1.15-.13,2.31-.13,3.45-.35a11.36,11.36,0,0,0,1.92-.34,4.71,4.71,0,0,0,.82-.38,3.53,3.53,0,0,0,1.14-1.42c.22-.39.41-.81.66-1.19.37-.58.77-1.13,1.17-1.68.18-.26.19-.4,0-.64a4.62,4.62,0,0,1-.65-1.34A7,7,0,0,1,17.09,35ZM11.6,27v0c-.5,0-1,0-1.48.07a.58.58,0,0,0-.49.88c.11.22.24.43.34.65a.5.5,0,0,1,.07.29c0,.07-.11.18-.17.18A1.56,1.56,0,0,1,9.3,29a2.36,2.36,0,0,1-1.11-1.18,9.28,9.28,0,0,1-.35-1.17,2.11,2.11,0,0,0-.09-.36A.41.41,0,0,0,7.18,26a4.33,4.33,0,0,0-2,1.65,6.42,6.42,0,0,0-.33.64c-.15.3-.31.6-.45.9L4,30.1c-.14.3-.28.61-.41.92l-.45,1A1.91,1.91,0,0,0,3,33.11c.07.56.45.54.8.39l.12-.07a2.62,2.62,0,0,1,1.42-.31A6.66,6.66,0,0,1,7,33.5c.37.16.68-.13.63-.54a1.55,1.55,0,0,0-.47-.81c-.14-.18-.15-.43,0-.47a.86.86,0,0,1,.87.13c.28.27.54.57.84.82a8.81,8.81,0,0,0,1.2.91,15.4,15.4,0,0,0,1.41.7,2.91,2.91,0,0,0,1.65.22,3.42,3.42,0,0,0,1.53-.68A11.74,11.74,0,0,0,16.77,32c.47-.49.92-1,1.38-1.48a.28.28,0,0,0,0-.41L18,29.87c-.45-.46-.9-.92-1.36-1.37-.69-.67-1.39-1.32-2.1-2L13,25.17a2.11,2.11,0,0,0-1.39-.65c-.57,0-1.13-.08-1.7-.11a1.15,1.15,0,0,0-1.11.43c-.17.26-.17.5.12.59a3.84,3.84,0,0,0,1.05.21,6.47,6.47,0,0,1,2,.4,5.15,5.15,0,0,1,.8.43c.11.07.24.17.17.35s-.23.2-.4.2ZM34.22,7.91H31.76a7.92,7.92,0,0,0-2.42.3l-1.22.37c-.28.09-.55.2-.81.31l-1,.42c-.53.22-1.07.42-1.6.65s-1.19.55-1.78.82a.29.29,0,0,0-.07.51l.19.1a1,1,0,0,1,.5.67,2,2,0,0,0,.16.47c.11.24.24.47.35.71a.55.55,0,0,0,.8.29,8.68,8.68,0,0,1,1.24-.44c.57-.15,1.16-.22,1.73-.38a8.09,8.09,0,0,1,2.35-.22,10.1,10.1,0,0,1,1.45.1c.65.11,1.29.32,1.95.4a9.58,9.58,0,0,0,2.51.12,5.43,5.43,0,0,0,1.48-.27A13,13,0,0,1,39,12.46l.13,0,.63-.2c.12,0,.25,0,.36-.07A2.65,2.65,0,0,1,41.19,12c.3,0,.61,0,.91,0a1.17,1.17,0,0,0,.52-.16c.48-.3.94-.65,1.43-.94.25-.15.32-.33.09-.58a7.33,7.33,0,0,0-1-.88c-.41-.29-.84-.55-1.27-.81-.2-.13-.4-.23-.61-.34s-.59-.32-.9-.46a1.81,1.81,0,0,0-.65-.2,8.17,8.17,0,0,0-1,.16,6.7,6.7,0,0,1-1.18.16C36.42,7.93,35.32,7.91,34.22,7.91Zm-3.42,13c-.37.07-.71.13-1.05.21s-.29.12-.29.41a2.67,2.67,0,0,1-.12.8c-.16.4-.39.77-.58,1.16a.3.3,0,0,0,.13.4,1,1,0,0,0,.3.11c.53.13,1.08.23,1.59.41a2.58,2.58,0,0,0,1.13.13,5.63,5.63,0,0,1,1.69,0,1.24,1.24,0,0,1,.39.1c.33.21.64.45,1,.65a11.56,11.56,0,0,0,1.19.66,7.23,7.23,0,0,0,1.11.37c.62.18,1.25.33,1.88.5a9.76,9.76,0,0,1,1.2.36,3,3,0,0,1,.89.56A17.23,17.23,0,0,0,43,29.3c.16.11.31.23.47.32s.52.3.79.44a9.88,9.88,0,0,0,1,.45,15,15,0,0,0,1.46.4,2,2,0,0,0,.77.07c.87-.16,1.74-.35,2.61-.53.46-.1.58-.38.36-.79a6.31,6.31,0,0,0-.42-.76c-.34-.5-.7-1-1.07-1.49-.22-.28-.47-.54-.72-.81a3.31,3.31,0,0,0-.62-.62,8.33,8.33,0,0,0-1.24-.6c-.34-.15-.69-.25-1-.37l-1.56-.51-.29-.1c-.45-.14-.89-.29-1.34-.41s-1-.25-1.52-.38l-1.15-.29c-.53-.14-1.05-.32-1.58-.43a4.43,4.43,0,0,1-1.94-1,1.5,1.5,0,0,0-1-.43c-.34,0-.68,0-1,0s-.66-.08-1-.13Zm-.12-7.33c-.88.11-1.73.21-2.57.33a5.12,5.12,0,0,0-.77.2c-.25.07-.5.12-.74.2-.39.12-.77.27-1.16.4-.22.08-.28.19-.13.39a3,3,0,0,1,.5,1.34,1.6,1.6,0,0,0,.37.64.45.45,0,0,0,.33.09c.52-.08,1-.19,1.58-.27s1-.14,1.48-.2c.28,0,.57,0,.86-.06a5.3,5.3,0,0,1,3.4.81,2.08,2.08,0,0,0,1,.36,15.6,15.6,0,0,0,1.93-.05c.64,0,1.28-.15,1.92-.18a1.69,1.69,0,0,1,.65.14c.37.12.73.27,1.1.38s.88.27,1.32.4l.95.29c.5.15,1,.31,1.49.45s1,.3,1.52.42a.53.53,0,0,0,.41,0,9.18,9.18,0,0,0,1-.72,9.84,9.84,0,0,0,.87-.84.44.44,0,0,0,0-.56l-.39-.4c-.42-.43-.83-.88-1.27-1.3-.63-.6-1.29-1.16-1.91-1.76a4,4,0,0,0-2.06-1,4.93,4.93,0,0,0-2.43.3,7,7,0,0,0-.89.27,9.34,9.34,0,0,1-2.49.6,5.66,5.66,0,0,1-1.23.05c-.68-.09-1.35-.28-2-.39C32.4,13.78,31.53,13.69,30.68,13.59Zm1.46,12v.06c-.38,0-.76,0-1.15,0s-.48.06-.54.42c-.09.54-.13,1.09-.17,1.64a.33.33,0,0,0,.2.23c.37.1.76.17,1.14.26s1,.25,1.5.4,1,.32,1.55.49c.33.11.67.22,1,.35s.66.29,1,.44.44.18.65.3a6.63,6.63,0,0,1,1.12.75c.43.41.75.92,1.15,1.35a5.5,5.5,0,0,0,.85.75c.35.25.72.45,1.09.67l.72.43,1.27.74c.33.21.65.43,1,.65L46,36.6c.27.19.53.42.81.61a2.43,2.43,0,0,0,2.11-.28.45.45,0,0,0,.09-.32A5.78,5.78,0,0,0,48.66,35c-.15-.33-.24-.69-.42-1a9.57,9.57,0,0,0-.79-1.1,1.7,1.7,0,0,0-1.27-.81A.49.49,0,0,1,46,32l-1.09-.41a7.5,7.5,0,0,1-.91-.42c-.57-.33-1.13-.68-1.68-1.06a11.79,11.79,0,0,1-1.31-1A4.87,4.87,0,0,0,39.16,28c-.73-.2-1.46-.42-2.2-.57a5.27,5.27,0,0,1-1.1-.44c-.47-.23-.91-.52-1.37-.78a4.72,4.72,0,0,1-.53-.33,1,1,0,0,0-.75-.23ZM45.48,41.14a.06.06,0,0,0,0,0h.76c.28,0,.36-.12.32-.39a5.72,5.72,0,0,1-.14-.81A6.77,6.77,0,0,0,46,38.31a1.44,1.44,0,0,0-.41-.62,7.12,7.12,0,0,0-.84-.6L42.9,35.83c-.55-.38-1.1-.77-1.66-1.13a8.33,8.33,0,0,1-1.4-1.11c-.57-.56-1.19-1.08-1.78-1.61a7.63,7.63,0,0,0-1.6-1q-.47-.24-1-.45t-1-.36l-1.32-.37-.83-.2c-.14,0-.29-.06-.43-.09l-1.32-.23a.71.71,0,0,0-.23.06c0,.09,0,.21.1.27s.3.26.45.4c.44.38.89.76,1.32,1.16s.9.85,1.32,1.31a14.34,14.34,0,0,1,1.17,1.41c.34.49.6,1,.91,1.54a2.71,2.71,0,0,0,1.06,1l.72.38c.47.23.94.45,1.39.7a3.71,3.71,0,0,1,1,.7c.45.51.8,1.09,1.21,1.63a4.26,4.26,0,0,0,.75.78c.34.26.76.43,1.12.67a1.26,1.26,0,0,0,1,.13ZM31.17,17.83v-.07l-2.77.37a.38.38,0,0,0-.34.51,1.83,1.83,0,0,1,0,.47c0,.21-.06.41-.1.62s0,.35.3.36l.3,0c.43-.06.86-.14,1.29-.17a6.75,6.75,0,0,1,1.27,0c.45.06.89.24,1.34.29.72.08,1.45.12,2.18.13a2.14,2.14,0,0,1,1.86,1,1.08,1.08,0,0,0,.41.41,7.44,7.44,0,0,0,1,.34,3.58,3.58,0,0,0,.45.09l2,.45h.06c.52.13,1,.26,1.55.41l1.27.41,1.29.36.12.06,1.2.44c.4.15.8.31,1.21.44a1,1,0,0,0,.54,0c.41-.11.8-.3,1.21-.4a6.89,6.89,0,0,0,1.52-.67.46.46,0,0,0,.11-.82c-.28-.24-.56-.48-.82-.74a3,3,0,0,0-1.54-.92c-.66-.12-1.34-.21-2-.33s-1.32-.21-2-.35a5.49,5.49,0,0,1-.94-.32l-.76-.32a9.08,9.08,0,0,0-1-.41,13.55,13.55,0,0,0-1.55-.4A9.83,9.83,0,0,0,38.12,19c-1,0-2,0-3,0a2.63,2.63,0,0,1-1.91-.67,1.73,1.73,0,0,0-1-.48A6.93,6.93,0,0,0,31.17,17.83ZM33.56,6.89V7H36c.15,0,.37,0,.44-.12A6.09,6.09,0,0,0,37,5.93a.17.17,0,0,0,0-.14,1.91,1.91,0,0,0-.37-.33c-.4-.24-.81-.47-1.23-.68S34.24,4.27,33.68,4a4.53,4.53,0,0,0-1.35-.38,1,1,0,0,1-.23-.08,2.14,2.14,0,0,0-1.3-.06c-.75.18-1.51.34-2.26.51l-.38.07-1.54.44-1.45.37-.11,0-1.32.46c-.39.13-.78.23-1.16.38-.61.23-1.22.47-1.82.73s-1,.44-1.5.68-1,.51-1.48.76a.35.35,0,0,0-.2.39c0,.17.15.22.3.23a2.42,2.42,0,0,1,.83.21,2.63,2.63,0,0,1,1.15,1.11.54.54,0,0,0,.68.29A9.44,9.44,0,0,1,21.59,10a1.56,1.56,0,0,0,.87-.23,1.12,1.12,0,0,1,.22-.09l.95-.4,1.13-.49.86-.35L26.82,8l1-.39a10.49,10.49,0,0,1,1.31-.42A11.34,11.34,0,0,1,30.66,7C31.63,7,32.6,6.93,33.56,6.89Zm8.62,39.44c.14,0,.23-.06.29-.3s.1-.38.16-.56c.12-.36.23-.72.36-1.07s.29-.8.45-1.19c.09-.23.08-.31-.14-.42s-.72-.33-1.06-.53a7,7,0,0,1-1-.71,15.46,15.46,0,0,1-1.91-2.21,2.77,2.77,0,0,0-.88-.82c-.28-.13-.54-.29-.82-.42s-.65-.24-1-.39A2,2,0,0,1,35.62,37c-.27-.43-.5-.9-.78-1.34a8.11,8.11,0,0,0-.74-1c-.29-.34-.62-.64-.94-1s-.86-.89-1.32-1.31-.76-.62-1.12-.95a7.28,7.28,0,0,0-1.39-.95.49.49,0,0,0-.27-.06s-.14,0-.15.08a.21.21,0,0,0,0,.19,7.93,7.93,0,0,1,.59.71,5.81,5.81,0,0,1,.69,1.36,5.43,5.43,0,0,1,.34,1.87,1,1,0,0,0,.36.84c.52.57,1.05,1.14,1.55,1.72a9.2,9.2,0,0,1,.84,1c.34.53.64,1.09,1,1.65.11.19.19.41.31.61a3,3,0,0,0,1,.9c.49.32,1,.63,1.46,1a14.21,14.21,0,0,1,1.51,1.39,11.8,11.8,0,0,1,1.26,1.65,1.65,1.65,0,0,0,1.13.75A12.06,12.06,0,0,0,42.18,46.33ZM29.69,39.38c0,.14.1.31.17.48s.27.65.41,1,.25.66.39,1,.18.44.28.66.27.57.4.86l.41.9a3.39,3.39,0,0,0,.29.53c.56.72,1.11,1.45,1.69,2.15a7.9,7.9,0,0,0,.94,1,2.91,2.91,0,0,0,1.41.62c.11,0,.22.08.33.11a7,7,0,0,0,.79.2.52.52,0,0,0,.39-.13,10.87,10.87,0,0,0,.61-1c.17-.32.31-.64.45-1a1,1,0,0,0,.07-.92,11.62,11.62,0,0,0-1-1.25,9.82,9.82,0,0,0-1.39-1.26c-.52-.4-1.09-.7-1.63-1a1.55,1.55,0,0,1-.47-.41,4.72,4.72,0,0,1-.47-.82,11.84,11.84,0,0,0-1.13-1.91A9.44,9.44,0,0,0,31,37.25c-.2-.17-.33-.14-.44.09-.26.58-.51,1.15-.76,1.73A1.53,1.53,0,0,0,29.69,39.38Zm-5.75,1.51a5.56,5.56,0,0,0,5.51-5.59,5.53,5.53,0,0,0-11.06,0A5.56,5.56,0,0,0,23.94,40.89Zm3.25.82a4.49,4.49,0,0,1,.19.44c.07.21.12.43.19.65.14.4.3.81.44,1.21s.24.8.37,1.2l.54,1.6L29,47l.46,1.32c.11.3.2.6.32.9a.34.34,0,0,0,.19.16l1.19.5,1.32.53a.46.46,0,0,0,.67-.22c.17-.38.34-.75.53-1.12a.64.64,0,0,0-.18-.94l-.82-.72a7.64,7.64,0,0,1-1.4-1.75,3.54,3.54,0,0,1-.34-.77c-.14-.39-.25-.79-.38-1.19a7.52,7.52,0,0,0-.27-.8c-.23-.51-.49-1-.74-1.51-.09-.19-.21-.36-.3-.55a.42.42,0,0,0-.71-.17c-.35.26-.72.5-1.07.76A2.66,2.66,0,0,0,27.19,41.71Zm-3.07,2.21h-.06c.05.41.06.83.15,1.23s.28,1,.43,1.49.24.77.38,1.15.19.47.29.7c.25.5.48,1,.75,1.49a2,2,0,0,0,.41.5c.32.27.66.52,1,.76a.37.37,0,0,0,.32,0,.86.86,0,0,0,.29-.31c.17-.26.32-.53.47-.8s.42-.68.22-1.12a2.85,2.85,0,0,1-.09-.44c-.12-.48-.24-1-.37-1.45-.07-.25-.16-.49-.25-.73l-.35-1c-.14-.37-.3-.75-.45-1.12s-.23-.62-.36-.92-.34-.78-.5-1.18a.35.35,0,0,0-.35-.27,2.15,2.15,0,0,0-.34.05l-1,.2c-.1,0-.25.06-.28.13a3.6,3.6,0,0,0-.31.85A3.35,3.35,0,0,0,24.12,43.92ZM20.9,54.68c.19-.28.43-.46.46-.78a3.37,3.37,0,0,0-.25-2.19c-.25-.43-.49-.87-.75-1.29s-.51-.71-.72-1.09a9.9,9.9,0,0,1-.59-1.23,8,8,0,0,1-.47-1.41,6.16,6.16,0,0,1-.06-2.1c0-.36.19-.68.26-1a3.46,3.46,0,0,1,.45-1,10.53,10.53,0,0,1,.86-1.16c.1-.12.12-.22,0-.34s-.3-.32-.46-.49-.43-.21-.54-.08a10.76,10.76,0,0,0-.89,1,7.68,7.68,0,0,0-.68,1.18A4.33,4.33,0,0,0,17.11,44a7.68,7.68,0,0,0,.16,2.82A9.06,9.06,0,0,0,18,48.64c.07.13.15.26.23.39s.29.52.45.76c.3.46.63.9.93,1.36s.46.78.67,1.18a3.8,3.8,0,0,1,.51,1.46c0,.2,0,.4,0,.6A1,1,0,0,0,20.9,54.68Zm4.42-3.17c0-.29-.09-.67-.16-1A3.62,3.62,0,0,0,25,50c-.13-.4-.23-.8-.39-1.17s-.46-.88-.69-1.32c-.12-.22-.23-.44-.34-.66s-.27-.59-.37-.89a9.05,9.05,0,0,1-.43-1.52,3.15,3.15,0,0,1,.12-1.69.27.27,0,0,0-.05-.19s-.12,0-.16,0a4.85,4.85,0,0,0-.57.54,2.24,2.24,0,0,0-.45,1.13,4.44,4.44,0,0,0,0,1.36A6.64,6.64,0,0,0,22.09,47c.2.53.45,1,.68,1.54s.51,1,.7,1.54a5.07,5.07,0,0,1,.37,2.18,3.69,3.69,0,0,1-.12.82,6.93,6.93,0,0,1-.41.93,6.05,6.05,0,0,1-.32.55c-.15.26-.32.5-.47.75s-.21.36-.31.55a.14.14,0,0,0,0,.13.17.17,0,0,0,.16,0,3.82,3.82,0,0,0,.54-.26,5.8,5.8,0,0,0,1.64-1.56,5.15,5.15,0,0,0,.67-1.63A7.16,7.16,0,0,0,25.32,51.51Zm-6.35,1-.34-.64-.33-.56c-.23-.42-.45-.84-.69-1.25s-.5-.87-.77-1.3a9.58,9.58,0,0,0-.65-.92,4.29,4.29,0,0,0-1.51-1.26,4.76,4.76,0,0,0-1.13-.4,5.44,5.44,0,0,0-1.21,0c-.11,0-.29.1-.3.18a.64.64,0,0,0,.11.4c.11.18.27.33.38.5.24.36.45.72.69,1.08s.69,1,1.06,1.52a2.35,2.35,0,0,0,1,.91c.2.08.39.22.59.32l1.45.76.75.39.67.29C18.79,52.59,18.86,52.56,19,52.55ZM16.54,26.91l.06-.07a.94.94,0,0,0-.11-.32c-.51-.66-1-1.32-1.55-2-.4-.47-.84-.9-1.27-1.34s-.68-.66-1-1-.79-.71-1.19-1-.59-.46-.89-.68l-.47-.32L8.9,19.52a.51.51,0,0,0-.3,0c-.14,0-.16.14-.06.24l.43.39,1,.91,1.41,1.3c.58.54,1.17,1.06,1.75,1.59l1.27,1.17L16,26.49C16.13,26.64,16.34,26.77,16.54,26.91ZM18.47,22l.05-.05c-.11-.14-.22-.27-.31-.41s-.21-.38-.33-.55c-.24-.32-.49-.63-.74-1s-.63-.84-1-1.24c-.51-.6-1-1.18-1.58-1.75a12.45,12.45,0,0,0-1.22-1.19,11.82,11.82,0,0,0-1.54-1.08,3.27,3.27,0,0,0-1-.31.38.38,0,0,0-.34.14.32.32,0,0,0,.19.39l.22.14,1.23,1c.52.41,1,.81,1.55,1.23s1,.93,1.54,1.4c.35.33.69.67,1,1s.41.43.61.65.56.57.84.87.42.47.64.7C18.36,22,18.42,22,18.47,22Zm-8,1.44a1.66,1.66,0,0,0,.24,0c.16,0,.2-.15.1-.27s-.35-.4-.55-.59a8,8,0,0,0-1.78-1.33c-.18-.1-.35-.13-.5.06L7,22.66a2,2,0,0,0-.27.47c0,.08,0,.23,0,.27a.35.35,0,0,0,.3,0,2.09,2.09,0,0,1,1.4-.26c.57,0,1.14.17,1.71.25Zm-.61-5a1.29,1.29,0,0,0,.21-.17c.27-.37.52-.75.77-1.12s.21-.43,0-.62a2.83,2.83,0,0,0-.59-.44.26.26,0,0,0-.24.06c-.3.44-.59.89-.85,1.35-.14.26-.1.44,0,.56s.18.15.28.21S9.76,18.42,9.9,18.49Zm3,2.48a1.93,1.93,0,0,0,.3-.27c.26-.37.49-.76.75-1.13a.37.37,0,0,0,0-.48,2.32,2.32,0,0,0-.48-.4c-.13-.08-.24,0-.33.11-.25.36-.52.71-.77,1.07a1.12,1.12,0,0,0-.16.33C12.16,20.49,12.55,20.93,12.89,21ZM12.62,18c0-.09,0-.16-.1-.2s-.29-.23-.44-.34a.23.23,0,0,0-.37.05c-.13.17-.26.35-.38.53s-.4.61-.59.92a.24.24,0,0,0,0,.2,1.37,1.37,0,0,0,.19.23c.3.32.47.35.72.11a1.7,1.7,0,0,0,.1-.14c.16-.25.33-.49.48-.74S12.5,18.23,12.62,18Zm2.85,2.71A1,1,0,0,0,15,20a.32.32,0,0,0-.44.14,11,11,0,0,1-.73,1c-.25.31-.26.5,0,.79l.13.11a.42.42,0,0,0,.65-.07c.26-.35.53-.68.79-1A.73.73,0,0,0,15.47,20.74ZM15,22.94c.07.1.1.18.16.25s.15.14.22.22a.39.39,0,0,0,.62,0c.21-.24.4-.5.62-.73.51-.5.31-.65,0-1.06a.35.35,0,0,0-.56,0c-.26.31-.54.6-.79.92A2.18,2.18,0,0,0,15,22.94Zm2.56,2.72a2,2,0,0,0,.16.36c.08.12.19.22.28.33a.2.2,0,0,0,.3,0c.34-.27.7-.53,1-.82a.37.37,0,0,0,0-.53,1.75,1.75,0,0,1-.18-.29.39.39,0,0,0-.65-.07c-.22.23-.47.44-.71.66A2.4,2.4,0,0,0,17.52,25.66Zm.67-2a.35.35,0,0,0,0-.13c-.18-.18-.35-.37-.55-.54,0,0-.18,0-.23.07-.28.3-.56.61-.83.92a.44.44,0,0,0,0,.66,4.11,4.11,0,0,0,.3.29.18.18,0,0,0,.3,0l1-1A1,1,0,0,0,18.19,23.68Zm1.1,4.3a1,1,0,0,0,.28-.11c.27-.25.54-.5.79-.76a.36.36,0,0,0,.05-.27,2.93,2.93,0,0,0-.21-.39.38.38,0,0,0-.55-.15l-.71.53a.44.44,0,0,0-.2.54,5,5,0,0,0,.37.53A.61.61,0,0,0,19.29,28Zm.9,1.41A5.09,5.09,0,0,0,21,29c.38-.26.37-.27.15-.69,0,0,0-.09,0-.14-.11-.26-.26-.33-.5-.17a8.12,8.12,0,0,0-.75.56.29.29,0,0,0-.06.23.65.65,0,0,0,.11.34A1.94,1.94,0,0,0,20.19,29.39Z" style="fill: #d5222a;fill-rule: evenodd"/>
          <path d="M24,30.76a4.58,4.58,0,0,1,0,9.16,4.58,4.58,0,1,1,0-9.16Zm2.74,4.56a2.79,2.79,0,1,0-5.58,0,2.79,2.79,0,1,0,5.58,0Z" style="fill: #e3b124;fill-rule: evenodd"/>
          <path d="M22.42,36.29a1.86,1.86,0,0,0,.19-.31,1.2,1.2,0,0,0,.16-.47c0-.09-.11-.2-.18-.28s-.15-.1-.21-.16c-.23-.2-.23-.3,0-.55s.26-.32.38-.5a.26.26,0,0,1,.4-.1l.09.06c.58.41.54.33.93-.17.18-.22.32-.25.54-.08a5.39,5.39,0,0,0,.54.4.23.23,0,0,1,.09.36l-.23.37c-.15.21-.15.3,0,.46s.22.18.34.26a.28.28,0,0,1,.09.39c-.18.27-.39.53-.6.79a.23.23,0,0,1-.2,0,2.51,2.51,0,0,1-.37-.27.36.36,0,0,0-.54.11c-.44.62-.36.52-.91.16a2.9,2.9,0,0,1-.29-.19A3.42,3.42,0,0,1,22.42,36.29Z" style="fill: #e3b124;fill-rule: evenodd"/>
        </g>
      </g>
    </g>
  </g>
</svg>
