<svg xmlns="http://www.w3.org/2000/svg" viewBox="0 0 60 55.07">
  <title>40</title>
  <g id="Layer_2" data-name="Layer 2">
    <g id="Layer_1-2" data-name="Layer 1">
      <g id="_40" data-name="40">
        <g>
          <path d="M38.24,46c-2.43-1.88-.79-3.13-.79-3.13l0,0c-2.41-.16-2.67.56-2.67.56-.4,1.37,1.09,3,1.09,3S33.42,50.23,32.18,52c-1.08-1.21-1.12-.33-1,.21s1,1.25,1.14,1.43-.63,1,.33,1.36c.76.14,1-.21,1.12-.47,4.38,1.74,6.62-1.11,7.16-1.82C43.49,49.19,42.74,47,42.15,46,41.11,47.88,38.24,46,38.24,46Zm-2.69,8,3.72-5.56s1.16-.35,1.13.65S40.47,53.88,35.55,54.07Z"/>
          <path d="M58.89,0,57.64,5.63C45.1,12.79,38.71,3.55,26.29,2.2a23.23,23.23,0,0,0-7.68.8C8.17,6.3,5.42,13,5.42,13a29.56,29.56,0,0,1,7.82-2.67c-2.63,3.25-5.53,2.4-5.53,2.4l.92,1.38L4.11,15.52c5.73,5.3,2,7.2,2,7.2C-5.13,29.05,2.57,38.38,2.57,38.38a11.09,11.09,0,0,1,8.36-8.19c8.16-1.21,14.78,5.65,23.79,6.89A43.57,43.57,0,0,0,42.09,37s-2.36,3.55-3.69,5.35h0l-.49.73c-1.09,1.24.22,2.06.69,2.53a3.43,3.43,0,0,0,2.57.68c.49,0,.58-.58.59-.73l-.05-.05S48.4,34.93,49,33.91a42.13,42.13,0,0,0,9.09-16.46l-.54-.62.86-.86C61.7,10.18,58.89,0,58.89,0Z"/>
        </g>
        <path d="M38.52,48.37a2.58,2.58,0,0,1-1.65-.43s-.21.43.64,1.34A5.73,5.73,0,0,1,36,49s0,.46.79,1.3c0,0-.27.2-1.43-.16,0,0-.06.36.65,1.21a4.32,4.32,0,0,1-1.44-.21s0,.32.64,1.22c0,0-.12.08-1.32-.2,0,0,0,.65,1,1.36a2.3,2.3,0,0,1-1.75-.88.3.3,0,0,1-.05-.41c.17-.21,3.31-5.15,3.31-5.15S38,48,38.52,48.37Z" style="fill: #b20032"/>
        <path d="M38.88,43.68a1.53,1.53,0,0,0,.94.91l5.58-8.43-1.63.47Z" style="fill: #bfc0c1"/>
        <path d="M2,34s4.46-10.27,20.12-2.56c0,0,17.17,8,23.12.62l-1,1.94s4.06-1.45,4.32-1.71A52.71,52.71,0,0,0,58,11.94a9.71,9.71,0,0,1-5-.68s4.74-.17,5.4-1.45a5.57,5.57,0,0,0,.34-3s-3.3,2.65-10.66,2.93c-9.61-.42-7.93-2-16.43-4.41a43.31,43.31,0,0,0-6.29-.9,7,7,0,0,1,2.31,1.64,4.83,4.83,0,0,0-4.35-.71s2.27.54,2.56,1.51c0,0-3.05-1.54-8.16-.45A9.13,9.13,0,0,1,22.5,4.92S17.39,3.24,8.83,10.29c0,0,5.09-2,6.31-1.39.26.94-1.93,4-5.71,4.8,0,0,.82.65.74,1.08A15.15,15.15,0,0,0,6.47,16s4.79,3.57.66,7.57c1.3,0,2.73.09,2.73.09s-3.12.44-4,1.41c4.08-.1,5,1.34,5.24,1.68-4.64-.05-6.95,1.83-7.47,2.62a5.36,5.36,0,0,1,4.05-3.2,6.32,6.32,0,0,0-4,.41C3.48,26.83.33,29.9,2,34Z" style="fill: #b20032"/>
        <path d="M26.85,13.36S26,7.33,36,7.62c0,0,7.93,2.47,4.06,8.53.68.11.51.17.51.17l-2.53,3-.51-.09,0,.37s-1,.49-1.06.7a8.21,8.21,0,0,1-1.33,2.27c-.44.26-1.49,1.08-1.49,1.08a61.5,61.5,0,0,0,6.4-2l.3.21v-.68S45.71,18.11,47.5,14c0,0,2.41,8.15-10.36,12.9-.44.92.84.6,1.89,1.28.4-.33,1.49-1.15,2,.54.3,1.62-.37,2.39-.94,2.5-.29.22-4.48,3.46-7.79-.81-.35,0-5.29,1.74-8.73-1.85-.25.1-5.51,2.41-7.26-1.91a1.1,1.1,0,0,1-.17-1.57c.7-.85,2.33-3,3.13-.94.4.1,2.26.34,2.47-.31a20.33,20.33,0,0,1-2.84-4.31,3.52,3.52,0,0,0,.55-.31L18.68,19S17,12.34,21.93,8.8c0,0-2.65,8.07,4.61,13.15l-.17-1s-.57-.11.48-2.56A5.2,5.2,0,0,1,26.27,16h.34l-.38-.38.17-2.33Z"/>
        <path d="M35.37,10.83s.34-.27,2.58-.31c-.64-.83-3.15-1.1-3.15-1.1l2-.1A8.06,8.06,0,0,0,29,10.88l.78-.21C27.66,12.45,28,13.76,28,13.76a3.33,3.33,0,0,1,1.74-1.84A6.86,6.86,0,0,0,28.13,15l-.89-.51s0,.47-.09,1.4,1,1.12,1.47,1.34a4.09,4.09,0,0,0,1.16,1.11l.56-.12.35.45.62-.11.58.35.59-.14a1.63,1.63,0,0,0,.77.25c.38-.26.47-.15.67.09,2.16,0,.78-1.35.78-1.35s2.53.63,3.41-.76a2.44,2.44,0,0,1,1.11-3C39.89,11.36,35.37,10.83,35.37,10.83Zm-5.83,4.11c-.87-.7,1.12-1.51,1.12-1.51l-1.12-.51a15.66,15.66,0,0,1,1.73,0,4,4,0,0,0,1.95,1.28.52.52,0,0,1-.41.19,7.26,7.26,0,0,1-.87.94C31.3,15.93,30.41,15.64,29.54,14.94Zm2.91,3.11.27-1.56L32,17.91l-.58-1,1.78-1.63.42,2.12Zm3.43-1.52c-.39,0-2,.27-1.77-1.86a1.09,1.09,0,0,1-.24-.33,5.14,5.14,0,0,0,2.8-.43l1.07.67-1,.05S38,16.33,35.88,16.53Z" style="fill: #fff"/>
        <path d="M33.07,19.94s.09-.76.48-.64.21.63.05.65S33.07,19.94,33.07,19.94Z" style="fill: #fff"/>
        <path d="M32.46,19s.61.91-.29.92c0,0-.76-.39.16-.9A.17.17,0,0,1,32.46,19Z" style="fill: #fff"/>
        <path d="M31.25,18.83s.6,1.16-.29.9c-.23-.05-.59-.33.15-.93C31.26,18.8,31.25,18.83,31.25,18.83Z" style="fill: #fff"/>
        <path d="M30.2,18.61s.47,1-.35.78c0,0-.6-.53.25-.8Z" style="fill: #fff"/>
        <path d="M28.89,18s-.21,1,.42.81A.57.57,0,0,0,29,18Z" style="fill: #fff"/>
        <path d="M32.85,21.45l.91,0v.35S32.88,23,30.35,22.9c0,0,.17.24,1.56.37,0,0-2.14,1.25-4.43-1.95a8.44,8.44,0,0,0,.54-2.6,7,7,0,0,1,.5,2.17.65.65,0,0,1,.89-.32c.47.07.23.71.14.83s.47-.51.7-.51.85.06.78.3A4.47,4.47,0,0,0,31,22l.59-.7.83.06.1.77S32.75,21.65,32.85,21.45Z" style="fill: #fff"/>
        <path d="M34.5,28.41c-.82-3.4-4.78-4.13-4.78-4.13C24.83,23.86,23,26,23,26a5.22,5.22,0,0,0,2.9,3.37v-1a7.89,7.89,0,0,0,2.85,1.21c.45,0,.3-.81.3-.81C32.19,29.92,34,28.77,34.5,28.41Zm-3.66-1.27.15-.61-.6-.17-.38.7-.61-.13.34-.8-.7-.22-.36.94-.64-.3.32-.63-.7-.09-.25.7-.59-.28.16-.48-.42,0,.49-.19.23-.46h.66l-.21.51.8.08.19-.57h.68l-.32.53.89.13.17-.43.55.11-.17.61.57.23.3-.65L32,26l-.32.47.49.34-.49-.07-.1.28Z" style="fill: #dd6009"/>
        <path d="M20.84,10.8a12.9,12.9,0,0,0,1.68,8.25,20.34,20.34,0,0,0,4.63,4.73l-1,.25a18.56,18.56,0,0,1-5.34-6.54s-.06,2.88,4.45,6.67l-1.06.34a12.39,12.39,0,0,1-4.76-6.67C19.28,16.47,18.9,13.21,20.84,10.8Z" style="fill: #fff"/>
        <path d="M32.58,24.86s10-1.3,14.33-8.81c.15-1.08.36,7.94-12.45,10.5a6.73,6.73,0,0,0-.61-.64A21,21,0,0,0,42.14,22a25.41,25.41,0,0,1-8.89,3.4l-.74-.55" style="fill: #fff"/>
        <path d="M23.55,24.33l-.74-.62-1.08,1.42-3.64-.32s.09-.08.19-.59c-.31-.49-.63.25-.87.7-1.43.42-.25.95-.25.95s0,.68,0,.93A4.42,4.42,0,0,0,23,28.05L22,26ZM21.33,27.9a4.6,4.6,0,0,0-1.75-.59A6.23,6.23,0,0,1,18,27.22a.55.55,0,0,1-.28-.54,9.44,9.44,0,0,1,.17-1l.36.57.51-.38.38.55.42-.55.37.53.4-.5.4.54a1.48,1.48,0,0,1,.8-.78,2.89,2.89,0,0,0,.3,2C22,27.91,21.71,28.16,21.33,27.9Z" style="fill: #fff"/>
        <path d="M40,29.58c0-.26.47-1.4-.17-1l-.31.62a25.1,25.1,0,0,0-3.28-1c0-.21,0-1.7,0-1.7l-1.06.24.27,2s-.15.74-2.28,1.44a3.73,3.73,0,0,0,3,1.69c2,0,2.92-.61,3.39-1.35C39.52,30.47,40.94,30.38,40,29.58Zm-2.15,1.65a9.47,9.47,0,0,0-3.54-.72l0-.32a2.75,2.75,0,0,0,1.61-1.61c.43.19.17,1,.17,1l.68-.28,0,.63.68-.36.17.56.59-.24,0,.53.74-.23A1.62,1.62,0,0,1,37.83,31.23Z" style="fill: #fff"/>
      </g>
    </g>
  </g>
</svg>
