<svg xmlns="http://www.w3.org/2000/svg" viewBox="0 0 60 40.01">
  <title>4</title>
  <g id="Layer_2" data-name="Layer 2">
    <g id="Layer_1-2" data-name="Layer 1">
      <g id="_4" data-name="4">
        <path d="M54.72,40a3.68,3.68,0,0,1-2.47-1,7.5,7.5,0,0,1-2.1.35,3,3,0,0,1-2-.64,2.9,2.9,0,0,1-1.05.19c-.84,0-2-.37-2.77-2.16A3.85,3.85,0,0,1,44.16,34l-1.08-.93a9.34,9.34,0,0,1-1.64.4,14.23,14.23,0,0,1-3.14,1l-1.42,1.73-.49.61-.54-2.17A7.78,7.78,0,0,1,34,34.29l-.27.05a9.05,9.05,0,0,1-1.19.16,1.44,1.44,0,0,1-1.31,1.07s-1.1.18-2.59.29c-.52,0-1.33.3-1.37.61h0v.07a2.55,2.55,0,0,1-2.59,2.09h-.26a10.47,10.47,0,0,1-2.21-.21h-.46a6.29,6.29,0,0,1-2.18-.26c-.13-.06-1.19-.54-1.69-.84a4.53,4.53,0,0,1-2.77-1c-1.44-1.16-2.2-3.16-2.25-5.93v0c0-.27.05-.56.08-.85s.09-.87.12-1.3a4.37,4.37,0,0,1-1.67,1.19,1.78,1.78,0,0,1,.66.58c.88,1.4,1.17,2.72.77,3.54s-1.63,2.72-5.33,3.67h0a5.93,5.93,0,0,1-.83.07,4,4,0,0,1-2.85-1.14s0,0,0,0h0A4.84,4.84,0,0,0,2,35h0l0,0c-2-1.1-2.41-3.19-1.17-5.75v0l0,0a10.31,10.31,0,0,0,1-1.63c0-.12,0-.38,0-.62a5.87,5.87,0,0,1,.17-1.82A2.36,2.36,0,0,1,3,23.9c1.52-.77,1.87-1.14,1.89-1.31s0-.13,0-.22A4.21,4.21,0,0,1,5.7,19.9a30.71,30.71,0,0,1,2.72-2.57A2.06,2.06,0,0,1,8.09,16a2.75,2.75,0,0,1-1.67-.81,3,3,0,0,1-.68-2.29l0-.33.35,0h0a1.62,1.62,0,0,1,.81.36,6.86,6.86,0,0,0,1-1.1H8a2.06,2.06,0,0,1,1.59-.76,2.82,2.82,0,0,1,1.64.58,5.07,5.07,0,0,1,1.47,2.06A6.61,6.61,0,0,1,16,12.82h.1A6.91,6.91,0,0,0,17.82,10h0a15.75,15.75,0,0,1,3-4.43A14.11,14.11,0,0,1,31.23,1.14,21.13,21.13,0,0,1,39.1,2.82l2-2.82.25.71s.54,1.52,1.11,3.17A13.15,13.15,0,0,1,45.41,5l3.53-2.11.67-.41-.28,2.79a4.27,4.27,0,0,1,2-.53,3.83,3.83,0,0,1,2.57,1,2.53,2.53,0,0,1,.69-.1A1.47,1.47,0,0,1,56.1,7a2.41,2.41,0,0,1-1.46,2.79h0a2.36,2.36,0,0,1-.58.07,1.81,1.81,0,0,1-.63-.11.35.35,0,0,0,0,.12,1.83,1.83,0,0,0,.06.19,4.27,4.27,0,0,1,.21,2l-.06.32h-.22a3.31,3.31,0,0,0,1,1.06A4.3,4.3,0,0,1,56,15.31v0A1.86,1.86,0,0,1,55.76,17a3.84,3.84,0,0,1,0,2,4.2,4.2,0,0,1,2,1.78,2.18,2.18,0,0,1,0,1.77c-.12,1.15.37,3.11,1.41,5.67,0,.07.06.15.09.23a5.56,5.56,0,0,1-.4,5.8c0,.64-.13,3.07-.74,3.87h0A4.67,4.67,0,0,1,54.72,40Z" style="fill: #7f7f7f"/>
        <path d="M41,.85s.58,1.62,1.18,3.37a12,12,0,0,1,3.25,1.23l3.72-2.22-.28,2.82a3.61,3.61,0,0,1,4.93.18s1.65-.69,1.92.84A2,2,0,0,1,54.5,9.42a1.43,1.43,0,0,1-1.24-.18A.93.93,0,0,0,53,10a4.26,4.26,0,0,1,.26,2,.82.82,0,0,1-.39-.17c-.05,1.63,2.16,2,2.77,3.61a1.46,1.46,0,0,1-.28,1.5,3.32,3.32,0,0,1-.07,2.3c.12,0,3.07,1.12,2.21,3.23,0,.32-.25,1.78,1.43,5.92a5.37,5.37,0,0,1-.33,5.76s-.06,3-.66,3.76l0,0c-.25.49-3,3.1-5.55.63,0,0-2.94,1.08-4.13-.33-.11.09-2.32,1.17-3.55-1.64a3.46,3.46,0,0,1,0-2.69l-1.46-1.28a10.11,10.11,0,0,1-1.82.46,14.41,14.41,0,0,1-3.26,1C38,34.26,36.58,36,36.58,36l-.42-1.68a8.15,8.15,0,0,1-2.1-.41,9.14,9.14,0,0,1-1.89.2c0,.14.2.86-1,1.09,0,0-1.06.17-2.55.29,0,0-1.61.15-1.73.94a2.14,2.14,0,0,1-2.25,1.84,10,10,0,0,1-2.4-.2,8.91,8.91,0,0,1-2.52-.22S18.39,37.23,18,37c0,0-4.62.33-4.74-6.56.12-1.28.39-3.06.1-3.28-.13.21-1.19,2.72-5.25,2.31l-.1.3a17,17,0,0,0,2.43-.18,1.69,1.69,0,0,1,1.29.65c.77,1.2,1.11,2.45.75,3.17-.16.38-1,2.4-5.07,3.45a3.78,3.78,0,0,1-3.4-1,5.09,5.09,0,0,0-1.93-1.22c-.52-.29-2.78-1.59-1-5.23A10.55,10.55,0,0,0,2.11,27.6a15.39,15.39,0,0,1,.16-2.39,2,2,0,0,1,.86-.95c.79-.4,2-1.05,2.11-1.61A4.37,4.37,0,0,1,6,20.18a21.92,21.92,0,0,1,3.06-2.81s-.71-.25-.54-1.69A2.3,2.3,0,0,1,6.13,13s.17,0,.8.43c0,0,.27,0,1.33-1.31A2,2,0,0,1,11,12a4.76,4.76,0,0,1,1.51,2.32,6.47,6.47,0,0,1,3.79-1.07,6.67,6.67,0,0,0,1.93-3.08S23.65-3.14,39.24,3.31Z"/>
        <path d="M45,20.51a8.17,8.17,0,0,0,2.21.56s-.71,1.83-1.31,2A6,6,0,0,1,45,20.51Z" style="fill: #fff"/>
        <path d="M50.65,20.15a5,5,0,0,0,2,.22S52,22,51.24,22.32A14.22,14.22,0,0,1,50.65,20.15Z" style="fill: #fff"/>
        <path d="M44.63,24.89a5.64,5.64,0,0,0,3-.34,1.94,1.94,0,0,1,.79.62s.13-.27-.39-.8a13.23,13.23,0,0,0,.87-1.91s.87.43.64,2.83c0,0-.36,1.2-1.08.94,0-.19.05-.73-.19-.66,0,.11-.66,1.46-1,.25-.08,0-.5.47-.6.47l-.72,0-.19-.4A3.76,3.76,0,0,1,44.28,27,2.55,2.55,0,0,1,44.63,24.89Z" style="fill: #fff"/>
        <path d="M40,15.1s-.6,1.28.2,2a4.26,4.26,0,0,1,.19-1.28S40.14,15.07,40,15.1Z" style="fill: #fbfbfb"/>
        <path d="M40.75,15.71A2.47,2.47,0,0,0,41,18s.36.37.37-.17a3.26,3.26,0,0,1-.05-1.25S40.93,15.7,40.75,15.71Z" style="fill: #fcfcfc"/>
        <path d="M41.78,16.79a1.61,1.61,0,0,0,.24,1.7c.12.1.47.33.55-.29C42.57,18.2,42.07,17.23,41.78,16.79Z" style="fill: #fcfcfc"/>
        <path d="M38.15,21.45S38,25,42.23,27.37a1.93,1.93,0,0,1-1-1.76s-1.3.21-1.25-1.05c0,0-.95.19-.61-1.22,0,0-1.22.35-.88-1.48Z" style="fill: #ea351b"/>
        <path d="M42.62,19.71s2.31.44,2.37,3.85a3.25,3.25,0,0,0-.68-1.27,4.47,4.47,0,0,1-1.44,1.27,1.2,1.2,0,0,0-1.06-1s.18-1.62-.88-1.44c0,0,0-1.39-1.33-.61a1.21,1.21,0,0,1,1.62-.94s1,.21,2.43,2A3.12,3.12,0,0,0,42.62,19.71Z" style="fill: #a82217"/>
        <path d="M44.24,23a4.48,4.48,0,0,1-.34,2.91s-.66,1.7-1.71.92c0,0-.77-.38-.47-1.58,0,0,.22-.68,1.72-1.57A2.06,2.06,0,0,0,44.24,23Z" style="fill: #fff"/>
        <path d="M40.56,21.59s.13,0,.19,0,.5-.39.57.22a8.61,8.61,0,0,1-.07,1s1.23-.09,1.09,1.33a2.4,2.4,0,0,0-.82.85s-1.51.75-1-1.17c0,0-.92.65-.87,0a3.4,3.4,0,0,1,.24-1.33s-1,1-1.09,0c0,0,.21-1.9,1.68-1.89A1.21,1.21,0,0,1,40.56,21.59Z" style="fill: #fff"/>
        <path d="M43.64,32.11,45,33.34,45.08,32A8.78,8.78,0,0,1,43.64,32.11Z" style="fill: #c9cbcc"/>
        <path d="M45.75,32.77A5.5,5.5,0,0,1,48.86,32a2.66,2.66,0,0,0,.79-1.18,2.71,2.71,0,0,1-2.1.15,9.57,9.57,0,0,1-1.71.85Z" style="fill: #d3d4d5"/>
        <path d="M41.23,31.3a5.52,5.52,0,0,0,1.43.76,11.3,11.3,0,0,1-3.37.53l.25-.35-1.11-.91h1.48a12.11,12.11,0,0,0,1.75.93S41.29,31.49,41.23,31.3Z" style="fill: red"/>
        <polygon points="36.91 34.47 38.63 32.35 37.56 31.55 36.19 31.71 36.91 34.47" style="fill: #fcfcfc"/>
        <path d="M34.78,33.36a2.33,2.33,0,0,0,.77-.6l.33.08.15.62Z" style="fill: #fcfcfc"/>
        <ellipse cx="50.48" cy="12.86" rx="0.13" ry="0.16" style="fill: #fcfcfc"/>
        <path d="M50.79,12.45a.72.72,0,0,1,.23.72s1-.13.37-1.15Z" style="fill: #fcfcfc"/>
        <circle cx="42.77" cy="12.68" r="0.22" style="fill: #e7e7e7"/>
        <path d="M42.53,11.51a13.12,13.12,0,0,0,2.58,1.62s-.22.53-1.68.42a.73.73,0,0,0,0-.94s-.3-.7-1.12-.13A1.8,1.8,0,0,1,42.53,11.51Z" style="fill: #fff"/>
        <polygon points="38.18 4.57 38.48 4.55 38.36 4.79 38.18 4.57" style="fill: #ff0301"/>
        <path d="M40.79,2.35l.93,2.71A8.91,8.91,0,0,0,39.78,5l-.56-.38Z" style="fill: #fcfcfc"/>
        <path d="M42.3,5A10.85,10.85,0,0,1,45,6a13.8,13.8,0,0,1-1.73-.09,3.74,3.74,0,0,0-.84-.6Z" style="fill: #fc0201"/>
        <path d="M48.32,4.6l-.18,1.85s-.59-.51-1.91,0L46,5.94Z" style="fill: #fcfcfc"/>
        <polygon points="27.97 7.3 30.66 8.25 30.19 9.44 28.72 9.91 27.97 7.3" style="fill: #fcfcfc"/>
        <polygon points="24.48 14.83 27.29 14.04 27.57 15.29 26.66 16.51 24.48 14.83" style="fill: #fcfcfc"/>
        <polygon points="24.83 23.77 26.57 21.47 27.59 22.27 27.6 23.81 24.83 23.77" style="fill: #fcfcfc"/>
        <polygon points="28.89 30.94 29.66 28.17 30.93 28.54 31.51 29.98 28.89 30.94" style="fill: #fcfcfc"/>
        <path d="M31.87,30.47a12.09,12.09,0,0,0,3.82,1.71,2.94,2.94,0,0,1-.12-.6s-2.17.05-3.73-2.62l.48,1.35Z" style="fill: #fd0201"/>
        <path d="M26.72,24.44a20.56,20.56,0,0,0,2.39,3.65l.2-.7,1.75.48A9,9,0,0,1,28.32,22l-.09,2.41Z" style="fill: #fe0100"/>
        <path d="M25.66,16.56a19.59,19.59,0,0,0,.16,4.88l.74-.88,1.65,1.29s-.92-3.88-.12-6.13L26.8,17.43l-1.19-.88" style="fill: #fe0100"/>
        <path d="M26.37,13.68l1.4-.37.5,1.75a13.38,13.38,0,0,1,3.78-6.27l-.13-2.14-1.31.95.85.36-.72,2-2.41.73-.17-.49A13.67,13.67,0,0,0,26.37,13.68Z" style="fill: #f80201"/>
        <path d="M32,9.51a12.42,12.42,0,0,0-3.52,11.57,2.56,2.56,0,0,0,.34-1.27S27.53,16.89,30.67,12A17.55,17.55,0,0,0,32,9.51Z" style="fill: #ff0202"/>
        <path d="M53.06,15.32a8.56,8.56,0,0,0-2.19-.24,7.57,7.57,0,0,0-3.87,1,.8.8,0,0,0-.27,1.12,1.32,1.32,0,0,0,.79-.25,1.85,1.85,0,0,1,2.37,1.6c0,.55,1.3.08,1.3.08.4-.12.47-1,.47-1,.43-.87,1.85-1.05,1.85-1.05C54.28,16.31,53.06,15.32,53.06,15.32Zm.38,1a2.88,2.88,0,0,0-2,1.19l0,.05v.05c0,.32-.15.7-.28.74h0a2.72,2.72,0,0,1-.79.18c-.13,0-.16,0-.16,0a2.07,2.07,0,0,0-2.06-1.9,2.74,2.74,0,0,0-.62.07h-.06l0,0a.84.84,0,0,1-.47.17.49.49,0,0,1,.25-.61v0a7.66,7.66,0,0,1,3.73-.95,8,8,0,0,1,2,.2c.34.28.62.64.59.77S53.48,16.34,53.44,16.35Z" style="fill: #6d4b25"/>
        <circle cx="51.17" cy="16.05" r="0.14" style="fill: #4a4a4a"/>
        <circle cx="51.57" cy="16.46" r="0.14" style="fill: #4a4a4a"/>
        <circle cx="52.12" cy="16.5" r="0.14" style="fill: #4a4a4a"/>
        <circle cx="52.53" cy="16.3" r="0.14" style="fill: #4a4a4a"/>
        <circle cx="50.28" cy="16.83" r="0.14" style="fill: #4a4a4a"/>
        <circle cx="49.93" cy="17.09" r="0.14" style="fill: #4a4a4a"/>
        <circle cx="49.44" cy="16.6" r="0.14" style="fill: #4a4a4a"/>
        <circle cx="50.38" cy="17.48" r="0.14" style="fill: #4a4a4a"/>
        <circle cx="50.56" cy="17.85" r="0.14" style="fill: #4a4a4a"/>
        <circle cx="50.86" cy="17.57" r="0.14" style="fill: #4a4a4a"/>
        <circle cx="50.72" cy="17.15" r="0.14" style="fill: #4a4a4a"/>
        <circle cx="51.04" cy="17.07" r="0.14" style="fill: #4a4a4a"/>
        <ellipse cx="48.45" cy="16.29" rx="0.7" ry="0.18" style="fill: #4a4a4a"/>
        <path d="M22.36,28.76s.77.64,1.05.92c0,0-1.28.11-1.47.33Z" style="fill: #fcfcfc"/>
        <g>
          <path d="M46,24.23s.8-1.78,1.8-.53C47.78,23.7,47.83,24.22,46,24.23Z" style="fill: #7f7f7f"/>
          <g>
            <path d="M48.08,32.78s-1,1.4-.15,4.92a1.77,1.77,0,0,1-2.2-.64,3,3,0,0,1-.41-2.65l.17.16v-.66S46,32.57,48.08,32.78Z" style="fill: #7f7f7f"/>
            <path d="M51.68,32.8s-.17-.41-1.84-.69a9.55,9.55,0,0,1,4.46-.25,6.59,6.59,0,0,0-4-.63,5.79,5.79,0,0,0,.23-1.16A22.29,22.29,0,0,0,53,26.89a4.46,4.46,0,0,0,1.46-3c.24-1.54-.82-3.94.3-4.28,0,0,2.73,1.12,2.2,2.68-.11-.29-.25-.85-.25-.85a13.78,13.78,0,0,0,1,5.52A6.18,6.18,0,0,1,57,25.68s-.62.93,1.27,3.52c0,0,1.66,1.87-.15,4.7a1.8,1.8,0,0,0-1.89-.78,3.18,3.18,0,0,1,1.31,3.82s-.32,2-3.17,2c0,0-.9-.06-1.08-.43a2.85,2.85,0,0,1-.67-.61c0-.28-.13-4.13.17-4.35a9.08,9.08,0,0,1,1.42-.8,2.22,2.22,0,0,0-2.17,1.11s0,3.91,0,4-3,1.29-3.7-.71c0,0-1-4.1.85-4.73A7.3,7.3,0,0,1,51.68,32.8Z" style="fill: #7f7f7f"/>
            <path d="M38.11,24.4s-.83,4.28,2.47,6.59l0-.87s3.92,3.84,8.64-1.51l.1.51a2.24,2.24,0,0,0,.51-1.62,6.61,6.61,0,0,1-2,.42l-2.62.53s-2.67.88-4.24.14C41,28.59,38.78,28,38.11,24.4Z" style="fill: #7f7f7f"/>
            <path d="M38.69,24.56s1,4.22,4.49,3.71c0,0,1.86-.44,2.63-.64a15.76,15.76,0,0,1,3.39-.31A1.1,1.1,0,0,0,50,25.48s-.06-.05-.06.14c0,0,.31,1-.68,1.11a5.35,5.35,0,0,1-1.55,0,6.23,6.23,0,0,0-1.62,0s-1.11.39-1.72.69a3.57,3.57,0,0,1-1.19.37,2.42,2.42,0,0,1-1.46-.22S40.87,27.5,38.69,24.56Z" style="fill: #7f7f7f"/>
            <path d="M47.82,21.1a4.14,4.14,0,0,0,1.63-.26l.06,1.67a2.41,2.41,0,0,0-.73-.84l-.6,1.44a2.6,2.6,0,0,1-.35-2" style="fill: #7f7f7f"/>
            <path d="M50,20.57s.88-.54.12,4.2a5.77,5.77,0,0,1-.1-2.52A5.11,5.11,0,0,0,50,20.57Z" style="fill: #7f7f7f"/>
            <path d="M53.13,24.61l-.3,1.74a3.49,3.49,0,0,0,1-3.22s-.57-2.19-.24-2.93l-.56.14a3.75,3.75,0,0,1-2.15,2.72,2.78,2.78,0,0,1-.23-.65s-.12,3.13-.1,3.41.22.92-.16,1.26a2.69,2.69,0,0,1-1.51,3,.75.75,0,0,0,0-.19s-.51.42-.53.46c.27.09,1.42.35,3.23-2.2A19.11,19.11,0,0,0,53.13,24.61Z" style="fill: #7f7f7f"/>
            <path d="M54.83,17.22c-.29-1.84-1.25-1.9-1.25-1.9C55,16.86,53.49,17,53.49,17c-1.4.31-1.5.78-1.5.78a1.76,1.76,0,0,0-.13.74,1.15,1.15,0,0,1-1.1.72h-.09c-1.13.23-1.15-.47-1.15-.47-.22-.91-.4-1-.4-1a1.34,1.34,0,0,0-1.33-.45,2.4,2.4,0,0,1-1.22.39c-1.22-1.26.62-2.14.62-2.14a17.67,17.67,0,0,0-1.8.53c1.11-1.12,3.7-1.29,3.7-1.29a11.23,11.23,0,0,0-2.82.47c2.81-1.27,4.06-.66,4.06-.66.6,0,1.37.07,1.89,0,2.33.29,2.65,1.54,2.65,1.54,0-.93-1.7-2.33-1.7-2.33a2.27,2.27,0,0,1-.83-2.25l-.66.3A1.59,1.59,0,0,1,52,13.31a4,4,0,0,1,2,1.51A8.71,8.71,0,0,0,50,13.71c-.65,0-1.25,0-1.79.06a3.69,3.69,0,0,0-1.29.28c-1.24.2-1.6,0-1.6,0a6.36,6.36,0,0,0,2-.55c1.53-.71,1-2.72,1-2.72a2.59,2.59,0,0,1,.12,2.39c2.55-.55,1.2-3.47,1.2-3.47a3.41,3.41,0,0,1,.69,1.46,4,4,0,0,1,.56-1.46,1,1,0,0,0-.09.58c.58-1.59,1.61-.48,1.61-.48-1.14-2.32-5.5-3-5.5-3a4.46,4.46,0,0,1,1,1c.11.25-.12.24-.2.14a4.07,4.07,0,0,0-3-1.42c2.67,1.33,3.27,3,3.27,3-4.59-4.6-8.27-3-8.27-3-.34,0-.23-.11-.23-.11.63-1,2.69-.6,2.69-.6-.93-.65-3.13-.1-3.13-.1a4.29,4.29,0,0,1,.65,2.21,8.7,8.7,0,0,0-2.07-3.19,3.31,3.31,0,0,0-4.16-.8,9.69,9.69,0,0,1,.91.51,2.86,2.86,0,0,1-1.26-.25,10.07,10.07,0,0,1-2.23-1.7,1.4,1.4,0,0,0-.83,1c-.27,2.13,2.18,2.61,2.18,2.61.38.06,2.83.13,2.83.13C37.25,6.5,36.73,8,36.73,8c-.36-1.46-2.18-1.34-2.18-1.34.42,1.35.75.32.75.32,1.39,1.1.79,1.77.79,1.77a.79.79,0,0,1-.74.07c-.91-1-1.23-1.12-1.23-1.12C34.36,9,34,9.07,34,9.07c-.07-2.23-1.35-2.37-1.35-2.37A13,13,0,0,0,33,10.41c.07.91-.47-.62-.47-.62-1.16,2.3-2.4,4.28-2.92,5.72a6.34,6.34,0,0,0-.31,3.67C29.84,18,31,15.27,31,15.27a10.92,10.92,0,0,1-1.31,3.87c-1.64,3.46.11,5.58.11,5.58.51.81,2.9,4.75,2.9,4.75a11.16,11.16,0,0,1-1-3.23,7.46,7.46,0,0,0,2.45,4.12c3.18,1.59,4.37-.18,4.37-.18-1.39-1.87-1.26-5.09-1.26-5.09.13-1.91.08-3.63.08-3.63-.13-3.49.27-4.15.27-4.15a30.32,30.32,0,0,0,0,3.14c.36-4.16,1.94-5.75,1.94-5.75a2.18,2.18,0,0,0-1.38-.12,2,2,0,0,1,.94-.69c-.63-.38-2,.17-2,.17,1.14-1.1,2.39-.7,3.54.26,1.62,1.93,1.78,3.29,2.5,4.13a6.78,6.78,0,0,0,1.26,1.21c4.18,2.27,6.18-.09,6.18-.09s0,.17,0,.28c3.49.47,4.21-1.06,4.21-1.06C55.12,18.52,54.83,17.22,54.83,17.22Zm-12-2.81.42.64s-2.68-2.63-3.16-3c0,0-2.56-2.37-5-.25a11.72,11.72,0,0,0-2.54,4.24s.3-4.31,4.1-5.51h-1a2,2,0,0,1,2.3,0,4.63,4.63,0,0,1,2.5,1.27l-.13-.76a7.35,7.35,0,0,0,1.39,1.52s.46-1.79-.71-1.57c0,0,.72-.68,2.07.11,0,0-.87-2.07-2.67-1.32l0,0s3.58-4.08,5.2,1.13l-.23-1L46.7,12.5h.49a6.4,6.4,0,0,0,.47-.55,1.57,1.57,0,0,1-1.87,1.41,4.78,4.78,0,0,1-2.16,1,4.91,4.91,0,0,0,1,.22A2.82,2.82,0,0,1,42.81,14.41Z" style="fill: #7f7f7f"/>
            <path d="M48.85,6.76a6.39,6.39,0,0,1,3.7,2.44l.3-.35-.37-.33s-.38-.49.18-.26c0,0,2,1.2,2.52-.18,0,0,.71-2-1.33-1.41a5.68,5.68,0,0,1,.28.91S53.46,7,52.92,6.51C52.92,6.51,51.37,4.83,48.85,6.76Z" style="fill: #7f7f7f"/>
            <path d="M16.49,13.94s-2.48-.65-5.37,2.14c0,0-.44.54-.18-.06a10.84,10.84,0,0,1,.77-1,2.91,2.91,0,0,0-1.27-2.57,1.39,1.39,0,0,0-1.72.07l-.61.72a1.43,1.43,0,0,1-1.22.68,1.4,1.4,0,0,0,1.33.9,1.23,1.23,0,0,0,1.12-.67s-.72,3.39.85,2.55c0,0,.07.16-2.92,3.1a5.93,5.93,0,0,0-1.4,2.91,4.32,4.32,0,0,1-.74,2.41l.18-1.34a4.35,4.35,0,0,1-1.2.58A1.68,1.68,0,0,0,2.84,26.6s.28-.64.33-.84a4.48,4.48,0,0,1-.85,2.84s-2.7,4,.07,5.2l-.31-.42s2.38,1.92,2.84,2.35a2.65,2.65,0,0,0,2.56,0,13.6,13.6,0,0,0-.64-3.61S8.52,34.1,8,35.78c0,0,4-.08,1.7-4.57,0,0,1.85,1.3,1.25,3.18A2.1,2.1,0,0,0,11.87,32s-.36-1.61-1.68-1.7a4.15,4.15,0,0,0-1.56.06,2,2,0,0,1-1.22-.25,3.73,3.73,0,0,1-2.81.29,5.93,5.93,0,0,1,2.27-.53s1.06-.31-.17-.87c0,0-1.38-.22-1.62-.24s-.41-.18,0-.23.49,0,.49,0a1.36,1.36,0,0,1-.5-.94s6.61,3.72,7.76-1.8a6.39,6.39,0,0,1,.81-3.84s.19-1.27-1.48-3.7a6.82,6.82,0,0,1,1.2,1,3.25,3.25,0,0,1,.83-2,2.67,2.67,0,0,0,.46,3.19,28.55,28.55,0,0,1,3.42-3.22s-.77-2.92,3.35-3.89c0,0-3.35,1.88-2.67,3.72L20,16.48A27.53,27.53,0,0,0,14.32,22c-.89,1.48-1.24,3.07-.34,4.52,0,0,.1-1.26.08-1.39s.55.68,0,4.06c0,0-1,5.57,3.44,5.79h0a2.25,2.25,0,0,1-2.73-.62,4,4,0,0,0,3,2.11,1.24,1.24,0,0,0-.25-.37,2.73,2.73,0,0,1,1.19.59s2,1.19,2.79.27c0,0,3.59,2,4.61-.4,0,0,.31-3-.94-3.39a6.36,6.36,0,0,0-2-.12s2.81-1.72,3.39,1.61c0,0,.54-4-3.48-3.12,0,0,.1-.52,1.25-.59,0,0-.44-.77-2.22-.38,0,0,1,2.16-.87,3.13,0,0,1.61-2.12-.06-3l-.46.92a9.75,9.75,0,0,1,.52-2c.38-.91.64-1.72.46-1.76a6.85,6.85,0,0,1-2.91-1.18,8,8,0,0,0,7.54-1.53s-.31,1.43-3.11,2.33a11.54,11.54,0,0,0,2.34,0s-.74,1-3.13.47c0,0,1.36,1.31,2.6,2.69a10.05,10.05,0,0,0,2.43,1.65s4.07,2.08,7.81.49a16.46,16.46,0,0,1-4.16-2L28,32l.87-3.19a19.72,19.72,0,0,1-2.85-4.38l-2.39,0,1.7-2.26a17.31,17.31,0,0,1-.24-6L23.2,14.57l2.49-.64A14.77,14.77,0,0,1,28,9.45l-.88-3.1L29.94,7.4l1.3-1.05s-3.15-1.55-1-4a13.42,13.42,0,0,0-6.64,2.55,30.74,30.74,0,0,0-6.67,8.93s-.84,1.24-1,1.46c-.36.6-1.16,1.26-.22,0C15.66,15.27,16.23,14.39,16.49,13.94Z" style="fill: #7f7f7f"/>
            <path d="M26.93,32.59a8.91,8.91,0,0,0,2.26.94s-.15,1.49-1.92,1A2.75,2.75,0,0,0,26.93,32.59Z" style="fill: #7f7f7f"/>
            <path d="M29.66,33.64s1.05.23,1.67.3c0,0,.27,1.19-2.21.78A1.57,1.57,0,0,0,29.66,33.64Z" style="fill: #7f7f7f"/>
          </g>
          <path d="M31.45,2.27s4.4-.2,7.51,1.64L37.64,4A3.65,3.65,0,0,0,33,3.56Z" style="fill: #7f7f7f"/>
        </g>
      </g>
    </g>
  </g>
</svg>
