<svg xmlns="http://www.w3.org/2000/svg" viewBox="0 0 59.72 60">
  <title>41</title>
  <g id="Layer_2" data-name="Layer 2">
    <g id="Layer_1-2" data-name="Layer 1">
      <g id="_41" data-name="41">
        <path d="M45.2,59.33a30.55,30.55,0,0,0-6-4,13.47,13.47,0,0,0-5.58-1.49l-.55-.06L32,53.71c-3.51-.19-10.79-.6-14.25-6.85a9.69,9.69,0,0,1-1.23-3.35,7.9,7.9,0,0,1-3.88.81H11.42l.36-1.08c.07-.2.14-.38.21-.56a5.39,5.39,0,0,0,.47-2,3.56,3.56,0,0,1-1.23.22A5.18,5.18,0,0,1,8.5,40c-3-1.81-3.16-5.7-3.17-5.86l0-1.44,1.25.71a8.84,8.84,0,0,0,1.92.73C1.47,30.25.26,25,.21,24.74a13.79,13.79,0,0,1-.12-4v0A11.43,11.43,0,0,1,1,17.08l.37-.62.66.29a11.25,11.25,0,0,0,4.05.82c3.14,0,5.26-1.68,6.28-5v0a32,32,0,0,1,1.43-3.37c2.69-5.45,7.72-8.49,15-9l.63,0,0,0,.37,0,.68,0-.05.09.59,0C31.37.15,41,.81,44.63,7a50.68,50.68,0,0,1,2.78,5.5c1,2.24,1.55,3.47,3.17,4.38a5.62,5.62,0,0,0,2.79.75,11.78,11.78,0,0,0,3.13-.58c.41-.12.83-.24,1.24-.33l.63-.15.28.58a11.56,11.56,0,0,1,.27,9c-1.59,4-5.44,7.22-11.45,9.58a6.89,6.89,0,0,1,.54,4.7l.22.64A3.11,3.11,0,0,1,48,43.66a1.86,1.86,0,0,1-.62.59,2,2,0,0,1,.09.61,1.63,1.63,0,0,1,0,.31l.18.22a2,2,0,0,1,.12,1.8h.14a3.94,3.94,0,0,0,1.47-.34l1.19-.48-.07,1.28c0,.2-.28,4.66-3.34,7a10.56,10.56,0,0,1-.71,4.48L46,60ZM29.52,1.39c-.61.94-2.08,3.76-1.51,5.43A1.93,1.93,0,0,0,29.31,8a1.79,1.79,0,0,0,.57.11h0A1.65,1.65,0,0,0,30.43,8,1.76,1.76,0,0,0,31.7,7c.62-1.65-.86-4.59-1.49-5.58L29.88.84Z" style="fill: #cbcbc9"/>
        <path d="M46.75,47.84s.79.89,3,0c0,0-.24,4.57-3.34,6.56,0,3.32-.62,4.52-.62,4.52a31.7,31.7,0,0,0-6.16-4.11,15.44,15.44,0,0,0-6.39-1.62c-2.56-.26-11.07.13-14.74-6.54a11.16,11.16,0,0,1-1.34-4.59s-.63,1.68-4.55,1.66a7.17,7.17,0,0,0,.7-3.61s-.06-.83-.46-.41c-.17.19-1.53,1.25-3.87-.22-2.69-1.6-2.78-5.18-2.78-5.18s3.33,1.88,4.82.32c-8.64-3.74-9.95-9.84-9.95-9.84A12.91,12.91,0,0,1,1,21.09a11.16,11.16,0,0,1,.78-3.37S10.56,21.63,13.2,13a32.8,32.8,0,0,1,1.4-3.28c1.62-3.28,5.19-7.89,14.31-8.6,0,0-4.11,6.32.21,7.84a2.54,2.54,0,0,0,.82.16A2.93,2.93,0,0,0,30.75,9c4.34-1.33.24-7.88.24-7.88s9.54.58,13,6.47,3.25,8.5,6.26,10.18,5.48.45,7.74-.08c.56,1.13,5.09,11.7-11.64,17.8,0,0,2.38,3.31.15,6.61.16.43,1-.56,1-.56s.82,2.33-1.35,2.42a1.26,1.26,0,0,1,0,2.08s0-1.13-.95-.95c-.53.16-.5,1.32.67,1.4a1.46,1.46,0,0,0,1.17-.4C47.34,46.4,47.07,47.47,46.75,47.84Z" style="fill: #171717"/>
        <path d="M17.74,27.42s-2-.61-1.95,1.45c1.8-1.8,1.71.6,1.64,1.06-.24.14-1-.31-1,.72,0,0,.75-.14.81.23a2.26,2.26,0,0,1-.13,1.17s-1.68-.18.38,1.05c1.39.42.26,1.9-.68,1.06a6.07,6.07,0,0,1-1.57-2.55c0-.42,0-3.29,0-3.29s0-1.71,1.35-1.89a1.23,1.23,0,0,1,.91.23A1,1,0,0,1,17.74,27.42Z" style="fill: #f9ccad"/>
        <path d="M16.34,34.79a.69.69,0,0,1,0,.6c-.1.26-5.2,7.15-8.45,1,0-.22,1.66,1.43,5.76-2.18a1.24,1.24,0,0,1,.19-.16c.26-.19.45,0,.38.12s-.34.4-.62.71c-1,1-2.76,2.58-4.34,2.15a2.43,2.43,0,0,0,2.28.72s.48.15,1.56-1.28,2.14-2.38,2.46-2.2A6.8,6.8,0,0,1,16.34,34.79Z" style="fill: #b53429"/>
        <path d="M17.18,35.38s2.61,4.65-2.93,7.06c0,0,.42-.77-.17-3.09-.18-.62.43-.5.58-.33A2.9,2.9,0,0,1,15,40.45s1.66-1.22.7-2.59Z" style="fill: #b53429"/>
        <path d="M18.31,41.41c1.56,13.51,15.6,8.73,21.5,12.09A23.43,23.43,0,0,1,45,56.88s1-9.21-3.72-12c-1.19-.57-1.6.53-1.73,1.38-.16,1.45.81.71.85-.11,0,0,1.67,3.25-6,3.87-1.67,1.49-3.11.63-4.47.71-2.54.44-4.82.36-6-3.14a13,13,0,0,1-5.59-6Z" style="fill: #b53429"/>
        <path d="M46,53.12s1.66-.55,2.21-3.73c-1.36.16-3.14-1.28-3.27-1.41A27.62,27.62,0,0,1,46,53.06Z" style="fill: #ba2a1f"/>
        <path d="M38.55,45.81l-2.4,1.71a1.94,1.94,0,0,0-.61,1.23,5.48,5.48,0,0,0,3-.77C38.52,47.25,38.52,47.28,38.55,45.81Z" style="fill: #d09e72"/>
        <path d="M30.11,42.35h0l.21.21a5.38,5.38,0,0,0,3.56-1.27H33l-.52.43-.5-.43h-1.5l-.38.38-.37-.38H28.66l-.36.31-.37-.31H26.57a5.27,5.27,0,0,0,3.36,1.26Z" style="fill: #f0f3f0"/>
        <path d="M42.16,27a1.43,1.43,0,0,1,1.77-.39c1,.58,1.47,5.09-.31,6.88,0,0-1.34-.45-1.46.56-.28.63-.46-.52-.42-.86,0,0,1.53-.26,1.53-1-.58.05-.65-.33-.69-.74s.1-.83.92-.83c0,0,.27-.66-1-.65,0,0-.5-1.54.39-1.77a.92.92,0,0,1,1.14.62s.19-1.76-1-1.34S42.16,27,42.16,27Z" style="fill: #f9ccad"/>
        <path d="M43,33.81s-1.1.14.29,1a5.24,5.24,0,0,1,2,5.21,2.2,2.2,0,0,1-3.4,1.55s-.39.12-.16.67,2,.85,3.34.24C47,41.57,48,35.68,43,33.81Z" style="fill: #feb845"/>
        <path d="M17.92,26.42h.58a4.68,4.68,0,0,1,4.34-3c3.56-.31,7.26-.77,10.65-.28s2.46-.05,4.3.37,2.92,1.15,3.23,1.95a3.7,3.7,0,0,1,.31,1.11h.91s.31-2.57-3-4.12S33,20.9,29.24,20.9s-7.6.88-9,2C17.66,24.71,17.92,26.42,17.92,26.42Z" style="fill: #b53429"/>
        <path d="M36,24.07s3.88,0,4.92,2.94,1.26,4.55.21,5.95-.79,1.12-.79,1.12l-1.07-.54s1.45-3.52-.12-5.26a1.93,1.93,0,0,0-1.83-.21s1.77-1.85,3,.07c.3-3.33-3.38-3-3.38-3a6.7,6.7,0,0,1-3.34,4.54,23.67,23.67,0,0,0-3.48-4.4s1.52-1.38,2.79.71c1.05-.85-.41-1.67-.41-1.67s2.54.21,1.37,1.73A1.94,1.94,0,0,0,35.58,26C36.16,25.41,36,24.07,36,24.07Z" style="fill: #f1cead"/>
        <path d="M57.15,19.05l-.08,0a13.33,13.33,0,0,1-3.7.66,7.69,7.69,0,0,1-3.82-1c-2.23-1.25-3-3-4.07-5.36a44.34,44.34,0,0,0-2.67-5.29c-2.24-3.74-7.15-5-10-5.51.61,1.52,1.79,2.24.86,5.14a3.72,3.72,0,0,1-2.62,2.35,3.82,3.82,0,0,1-1.14.18h-.07A3.78,3.78,0,0,1,28.62,10,3.75,3.75,0,0,1,26,7.5c-.69-2.7.41-3.52,1-5-2.75.48-5.63,1.23-7.41,2.79a15.43,15.43,0,0,0-3.95,4.8,31.13,31.13,0,0,0-1.33,3.11c-1.29,4.16-4.23,6.45-8.29,6.45a12.94,12.94,0,0,1-3.54-.52c-.1.44-.22,1.06-.34,1.89a11.93,11.93,0,0,0,.09,3.26c0,.23,1.4,5.54,9.2,8.92l.89.39.61-.38-1.26-.54c-7.44-3.23-8.78-8.17-8.87-8.51a11.47,11.47,0,0,1-.08-3.07c.06-.45.13-.87.2-1.24a13.57,13.57,0,0,0,3.11.39c4.32,0,7.46-2.44,8.84-6.85a29.66,29.66,0,0,1,1.3-3.05A15.05,15.05,0,0,1,20,5.75a13.58,13.58,0,0,1,6-2.44,5.2,5.2,0,0,0-.53,4.33,4.34,4.34,0,0,0,3,2.91,4.73,4.73,0,0,0,1.41.26h.08a4.73,4.73,0,0,0,4.32-2.93,4.86,4.86,0,0,0-.35-4.51c2.38.54,6.53,1.81,8.43,5a43.06,43.06,0,0,1,2.54,5l.1.22c1.07,2.4,1.91,4.29,4.32,5.63a8.13,8.13,0,0,0,4.1,1.09,12.46,12.46,0,0,0,3.38-.54,8.68,8.68,0,0,1-.33,5.4c-1.37,3.45-5,6.28-10.78,8.38l-.15.06.3.51.05,0C51.78,31.94,55.53,29,57,25.39A9.33,9.33,0,0,0,57.15,19.05Z" style="fill: #eaec17"/>
        <path d="M40.75,35s-1.34,1.81-2,2.86c-.24,0,.84-2.79,1.28-3.32,0-.27-1-.34-1.1-.44s-.94,1.48-1.82,1.58-3,.59-4.38-3.8a1.79,1.79,0,0,0-1.11.19c-.25.13,0-.27.64-.62a9.89,9.89,0,0,0-1-.86c-.45-.43.17.38,1.71-.55-.78-1.32-3.31-4.62-3.31-4.62A7.94,7.94,0,0,1,24.05,24a6.26,6.26,0,0,0-4.37,1.86c-.13.17-.64.56-1.51,4,0,.41-.07,1.57-.07,1.57a7.28,7.28,0,0,0,1.32,2.3,12.21,12.21,0,0,1,1.77,4.06c0,.64-1.59-2.77-2.1-3.15-.07-.29,0,6.05,0,6.05s0,2.93,4.57,5.65c-.16-.72-1.09-3.44-1.17-3.62s1.49.57,1.86,4.08c.24.78,1.34,3.75,4.69,3.19l.93-.14.94.15s3.45,1,4.91-3.83c.61-1.76.59-2.73,1.85-3.46a20.76,20.76,0,0,1-1,3.3,8.16,8.16,0,0,0,4-4C41.14,40.16,40.75,35,40.75,35ZM20.06,28.25a2.67,2.67,0,0,1,2.43-3.08c.86-.05.89,0,.89,0s1.31,4.34,5.61,5.37c-.35.34-.62.69-.78.85a1.22,1.22,0,0,1-.14.2s.32-.17.92.56a4,4,0,0,0-2.1-.34c-.32.17-3,1.86-4.8-.69a1.89,1.89,0,0,1,.35,0c0-.13.07-.22-.2-.94a7.31,7.31,0,0,1,0-1.05h-.69s.39-.75,2-.59C23.47,28.1,21.32,26.07,20.06,28.25ZM32.52,44.92A3.38,3.38,0,0,1,33,47.19a5.07,5.07,0,0,0-.95-.9,8.2,8.2,0,0,1-.74,2.48,4.4,4.4,0,0,0-.73-1.58c-.07.22-.33,1.59-.42,2.15a8,8,0,0,1-1.88-2.85c-.05.13-.55,1.43-.72,1.93-.11-.35-.78-2.35-.19-3.5a10.07,10.07,0,0,1-.81-1,8.23,8.23,0,0,0,1.51.45,30.22,30.22,0,0,0,3.84,0,5,5,0,0,0,1.74-.45A6.91,6.91,0,0,1,32.52,44.92Zm1.79-1.67a6.15,6.15,0,0,1,1.15-1.84S35.68,43.3,34.31,43.25Zm-.53-1c-3.28,2.19-7.48.29-8.06-.55S22.91,38.92,21.16,40a.75.75,0,0,1-.22.12s-.12-3.6,5.24-.88c0,0,.26-.79-2.62-1.31,3.61-1.17,3.29-3.34,4.93-1.79,0,0-1-2.48,0-3.83.41.24.7.3.87.5,0,.15-1.2.16-.32,4.83-1.64-3.08-3.38.79-2.19,1.43.88.53.85-.35,2.51,1,.5.56,1.23.27,1.58.29a3.6,3.6,0,0,1,2-1.14c1.06-.08,1.5-.79,1-2a1.12,1.12,0,0,0-2.18.35c0-2.9.8-3.48-.43-4.77l.94-.5a3.58,3.58,0,0,1,0,3.72C33.66,34.65,34,37.43,37,38c-1.1.23-2.79.58-2.53,1.31,1.93-.67,4.48-2.19,5.09.85C39.6,40.12,37.88,38.24,33.78,42.3Z" style="fill: #f1cead"/>
        <polyline points="24.21 29.83 24.21 30.06 24.45 30.06 24.45 29.95 24.33 29.95 24.33 29.83" style="fill: #fff"/>
        <path d="M22.58,29.26s-.14,1.91.9,2.44a3.35,3.35,0,0,0,3.07-.13c-.33-.35-.56-.71-.78-.89a1.2,1.2,0,0,1-1.6.46c-.67-.4-.69-.94-.43-1.67a.86.86,0,0,0-.61-.23Z" style="fill: #fdfbfa"/>
        <circle cx="36.21" cy="31.13" r="0.53" style="fill: #fff;stroke: #000;stroke-miterlimit: 10;stroke-width: 1.0319000482559204px"/>
      </g>
    </g>
  </g>
</svg>
