<svg xmlns="http://www.w3.org/2000/svg" viewBox="0 0 60 53.74">
  <title>42</title>
  <g id="Layer_2" data-name="Layer 2">
    <g id="Layer_1-2" data-name="Layer 1">
      <g id="_42" data-name="42">
        <path d="M3.72.6S-9,21.33,12.66,22.49c0,0-6.86,1.13-9.63,2.79,0,0,2.93,5.47,11.23,2.25,0,0,1.65,5.19,6.92,14.79a1,1,0,0,1-.07,1.62A1.07,1.07,0,0,0,20.54,45c0,.58.16,4.83,2.93,7.58,0,0,7.38,2.67,13.41-.28a15.26,15.26,0,0,0,2.81-6.78c0-.4.28-.54-.66-1.34-.2-.4-.66-.84-.16-1.61,0,0,4.15-8.2,7-15.27.38.14,6.76,3.21,11-2.43A49.35,49.35,0,0,0,48,22.36S68.34,21.08,56.06,0c0,0,1.27,9.71-2.38,12.21,0,0-1.38,1.49-5.53,1.7,0,0-18.91-1.41-31.15.06,0,0-2.61.29-5.65.34A8.82,8.82,0,0,1,6.7,12.93S3,11.23,3.72.6Z" style="fill: #0d1c25;fill-rule: evenodd"/>
        <path d="M28.83,53.74a4,4,0,0,1,1.75,0Z" style="fill: #5f6a70;fill-rule: evenodd"/>
        <path d="M20.23,31.25a2.42,2.42,0,0,1-3.84.25,6,6,0,0,1-1-1.95c-.25-.72-.51-1.45-.76-2.18-.1-.28-.24-.37-.53-.22a10.68,10.68,0,0,1-4.43,1,7.23,7.23,0,0,1-5.86-2.56c-.21-.24,0-.29.13-.36a16.3,16.3,0,0,1,2.51-.89,44.63,44.63,0,0,1,8.87-1.67c.27,0,.29-.17.31-.36a29.12,29.12,0,0,1,.89-4.9c.25-.92.55-1.83.82-2.74a.48.48,0,0,1,.51-.42c1.8-.08,3.59-.2,5.38-.3,2.34-.13,4.69-.26,7.05-.25,3.21,0,6.43.18,9.64.28.77,0,1.54.09,2.31.12a.4.4,0,0,1,.44.34,27.45,27.45,0,0,1,1.07,5c.11.88.21,1.77.29,2.65,0,.33.13.41.45.43a33.56,33.56,0,0,1,9.42,1.68c.64.22,1.27.48,1.9.71.26.09.28.19.09.38a7.39,7.39,0,0,1-6.33,2.53,10.39,10.39,0,0,1-3.63-1c-.23-.11-.33-.06-.42.16-.46,1.12-.92,2.24-1.4,3.35a3,3,0,0,1-2.49,1.81,1.86,1.86,0,0,1-1.85-.8c.48-.1,1-.19,1.43-.31A3.84,3.84,0,0,0,44.06,28a8,8,0,0,0,.21-1,.41.41,0,0,1,.36-.4c.35-.07.73-.11.8-.58a1.43,1.43,0,0,0-.64-1.33,3.12,3.12,0,0,0-2.4,0,5.87,5.87,0,0,0-1.89,1.17c-1,.84-1.81,1.8-2.78,2.63A4.85,4.85,0,0,1,34,29.74a3.37,3.37,0,0,1-3-2.38c-.14-.38-.19-.79-.33-1.18s0-.42.34-.44c.89,0,1.78-.09,2.66-.18,1.3-.12,2.59-.28,3.88-.42l.16,0c.18,0,.39-.07.36-.28s-.27-.22-.46-.2l-1.18.17c-1.32.18-2.64.32-4,.39-.54,0-1.09,0-1.63.08-.26,0-.37-.08-.37-.32s0-.67,0-1,.07-.3.29-.31a51,51,0,0,0,5.08-.47l1.49-.23a1.08,1.08,0,0,0,.3-.11.21.21,0,0,0,.14-.22c0-.1-.12-.13-.21-.15a1.88,1.88,0,0,0-.63.08,32.29,32.29,0,0,1-4.79.5l-1.4.07c-.2,0-.28-.05-.28-.27,0-.49,0-1,0-1.47,0-.21.1-.2.24-.21.89-.07,1.78-.12,2.66-.21,1.28-.12,2.56-.32,3.82-.55.18,0,.4-.05.35-.28s-.26-.18-.43-.15a48.88,48.88,0,0,1-6.15.61c-.35,0-.51-.06-.47-.45a7.53,7.53,0,0,0,0-.95c0-.2.05-.51-.24-.51s-.21.3-.21.49c0,.38,0,.75,0,1.12s-.08.36-.36.36c-1.44,0-2.87-.13-4.29-.29-.74-.08-1.48-.18-2.22-.27H23c-.16,0-.36,0-.38.19s.18.24.34.28a5.59,5.59,0,0,0,.59.08,46.08,46.08,0,0,0,6.1.54c.23,0,.3.09.29.3,0,.46,0,.91,0,1.36,0,.26-.11.31-.33.3-1.49,0-3-.2-4.45-.37-.75-.09-1.5-.21-2.25-.32-.16,0-.34-.08-.4.12s.14.33.33.37c.68.12,1.36.24,2,.34a42.21,42.21,0,0,0,4.77.39c.23,0,.29.08.27.31a6.09,6.09,0,0,0,0,.95c0,.27-.07.38-.36.37-1.42,0-2.84-.15-4.25-.29-.76-.07-1.51-.17-2.26-.26-.18,0-.35,0-.39.19s.17.24.32.26c1.43.21,2.87.37,4.31.47.74.05,1.49.1,2.23.13.25,0,.32.06.26.33A6,6,0,0,1,28.13,29a3.55,3.55,0,0,1-3.62.79A6.89,6.89,0,0,1,21.58,28c-.9-.81-1.7-1.72-2.68-2.44a4.34,4.34,0,0,0-2.64-1,1.61,1.61,0,0,0-1.56,1.56.65.65,0,0,0,.64.76.5.5,0,0,1,.46.48,4,4,0,0,0,3.88,3.78Z" style="fill: #cb1041;fill-rule: evenodd"/>
        <path d="M22.22,31.77a12.54,12.54,0,0,0,2.71.62,5.31,5.31,0,0,0,4.86-1.9c.17-.21.26-.29.46,0A4.79,4.79,0,0,0,35,32.3a9.46,9.46,0,0,0,2.7-.81c.08,0,.17-.06.34-.12A18.9,18.9,0,0,0,38,43.73a16.84,16.84,0,0,0-15.41-.38c.16-.61.33-1.2.47-1.8a16.34,16.34,0,0,0-.36-8.27c-.14-.49-.31-1-.46-1.48Zm7.73,8a5.71,5.71,0,0,0,3.82-1.25,9.69,9.69,0,0,0,3.14-5.37c0-.13.06-.24-.1-.28s-.16.13-.18.22a14.53,14.53,0,0,1-.87,2.39A6.63,6.63,0,0,1,32.35,39a5.68,5.68,0,0,1-6.72-1.53A8.63,8.63,0,0,1,24,33.28c0-.1.05-.28-.14-.27s-.16.18-.14.31a9.63,9.63,0,0,0,.85,3A5.72,5.72,0,0,0,30,39.79Z" style="fill: #cb1041;fill-rule: evenodd"/>
        <path d="M29.27,42.08A15.9,15.9,0,0,1,38.9,45a.53.53,0,0,1,.25.59,13.38,13.38,0,0,1-2.47,6.11,1.7,1.7,0,0,1-.86.66,18.43,18.43,0,0,1-11.33.16,3.46,3.46,0,0,1-1.91-1.79,11.31,11.31,0,0,1-1.5-4.91,1.56,1.56,0,0,0,0-.31c-.19-.59.12-.88.58-1.17A15.27,15.27,0,0,1,29.27,42.08Zm-1.53,5.31a.39.39,0,0,1,.08.38,2.11,2.11,0,0,1-.19.65c0,.09-.07.22.06.27s.16-.07.22-.14A2.42,2.42,0,0,0,28,45.89a2.84,2.84,0,0,0-3.93-.65,1.58,1.58,0,0,0-.62,1.86,2.32,2.32,0,0,0,2.5,1.42A2.83,2.83,0,0,0,27.74,47.39Zm4.35-.29.23.29a2.41,2.41,0,0,0,3.73.07A1.57,1.57,0,0,0,35.86,45a2.82,2.82,0,0,0-3.62.24,2.36,2.36,0,0,0-.32,3c.06.09.11.25.26.17s0-.19,0-.29A1.63,1.63,0,0,1,32.09,47.1ZM30.46,50A16.46,16.46,0,0,0,24,51.19c-.09,0-.28,0-.23.21s.21.11.33.06c.37-.13.73-.27,1.09-.38a16.55,16.55,0,0,1,6.89-.64,16,16,0,0,1,3.72,1c.16.06.36.17.43-.07s-.16-.2-.28-.25A13.51,13.51,0,0,0,30.46,50Z" style="fill: #ca1040;fill-rule: evenodd"/>
        <path d="M43.12,14.24c1.14-.05,2.28.06,3.42.08A17.62,17.62,0,0,0,51.18,14a6.51,6.51,0,0,0,4-2.7s0,0,0-.07A4.86,4.86,0,0,1,57.68,9a.41.41,0,0,1,.47,0c.34.25.68.5,1,.74.15.09.15.24.17.38a8.91,8.91,0,0,1-4.51,9.56,20,20,0,0,1-7.63,2.22c-.79.08-1.59.1-2.38.16-.2,0-.28,0-.3-.25a47.22,47.22,0,0,0-1.43-7.46S43.12,14.29,43.12,14.24Z" style="fill: #fdfdfd;fill-rule: evenodd"/>
        <path d="M13.21,22a18.48,18.48,0,0,1-7-1.13A8.32,8.32,0,0,1,.92,15.29a11.28,11.28,0,0,1-.25-4.66.53.53,0,0,1,.15-.32L2.17,8.84c.09-.09.15-.16.28,0,.42.39.87.75,1.28,1.14A3,3,0,0,1,4.4,11a5.55,5.55,0,0,0,2.11,2.44,8.63,8.63,0,0,0,5.05,1.29c1.69,0,3.37-.16,5-.28.31,0,.39,0,.28.35a35.69,35.69,0,0,0-1.64,6.84c0,.24-.09.35-.36.33C14.33,22,13.77,22,13.21,22Z" style="fill: #fdfdfd;fill-rule: evenodd"/>
        <path d="M21,32.58a16.63,16.63,0,0,1,1.14,10.36,54.11,54.11,0,0,1-4.6-8.69,2.47,2.47,0,0,0,2.14.18A3.43,3.43,0,0,0,21,32.58Z" style="fill: #ca1040;fill-rule: evenodd"/>
        <path d="M39.18,32.73c.72,1.25,1.7,1.91,3.24,1.35A93.47,93.47,0,0,1,38.2,43a5.56,5.56,0,0,1-.42-2.08,22.12,22.12,0,0,1,1.12-7.48A1.8,1.8,0,0,1,39.18,32.73Z" style="fill: #ca1040;fill-rule: evenodd"/>
        <path d="M56.79,2.19a36.94,36.94,0,0,1,2.48,7c-.41-.29-.74-.49-1-.74a.45.45,0,0,0-.63,0c-.32.19-.65.37-1,.54-.07,0-.16.14-.24.05s0-.15,0-.23a29.6,29.6,0,0,0,.36-5.24c0-.43,0-.87-.07-1.3Z" style="fill: #c81040;fill-rule: evenodd"/>
        <path d="M.88,9.47A26.57,26.57,0,0,1,3.33,2.3a34.25,34.25,0,0,0,.44,7.07C3.38,9,3,8.64,2.6,8.26,2.37,8,2.2,8,2,8.3s-.68.81-1,1.21Z" style="fill: #c81040;fill-rule: evenodd"/>
        <path d="M16.67,32.36c1.49.8,2.71.19,4-.57A2.74,2.74,0,0,1,19.71,34a1.35,1.35,0,0,1-1.28.24A2.51,2.51,0,0,1,16.67,32.36Z" style="fill: #c81040;fill-rule: evenodd"/>
        <path d="M43.36,31.93a2.43,2.43,0,0,1-2.21,1.93A2,2,0,0,1,39.54,32a3,3,0,0,0,1.89.55A4.35,4.35,0,0,0,43.36,31.93Z" style="fill: #c81040;fill-rule: evenodd"/>
        <path d="M19.62,30.58a3.15,3.15,0,0,1-3.1-2.07,3.74,3.74,0,0,1-.19-1.05c0-.18,0-.3.24-.28s.35,0,.37.24a3.58,3.58,0,0,0,.11.79A2.52,2.52,0,0,0,19.61,30c.15,0,.33-.05.37.19S19.92,30.6,19.62,30.58Z" style="fill: #f3f4f4;fill-rule: evenodd"/>
        <path d="M43.44,27a3.13,3.13,0,0,1-2.93,3.65h-.28c-.15,0-.15-.12-.17-.22s0-.18.18-.19a3.77,3.77,0,0,0,.75-.11,2.57,2.57,0,0,0,1.94-2.57C43,27.15,43,27.15,43.44,27Z" style="fill: #f3f4f4;fill-rule: evenodd"/>
        <path d="M22.19,31.8l0-.05,0,0Z" style="fill: #cb1041;fill-rule: evenodd"/>
        <path d="M30,39.79a5.72,5.72,0,0,1-5.43-3.5,9.63,9.63,0,0,1-.85-3c0-.13-.06-.3.14-.31s.13.17.14.27a8.63,8.63,0,0,0,1.68,4.21A5.68,5.68,0,0,0,32.35,39a6.63,6.63,0,0,0,3.41-3.52,14.21,14.21,0,0,0,.87-2.39c0-.09,0-.28.18-.22s.13.15.1.28a9.69,9.69,0,0,1-3.14,5.37A5.71,5.71,0,0,1,30,39.79Z" style="fill: #101823;fill-rule: evenodd"/>
        <path d="M27.74,47.39a2.83,2.83,0,0,1-1.8,1.13,2.31,2.31,0,0,1-2.5-1.42,1.56,1.56,0,0,1,.61-1.85,2.83,2.83,0,0,1,3.93.64,2.42,2.42,0,0,1-.07,2.66c-.06.08-.11.19-.22.14s-.1-.18-.06-.27a2.14,2.14,0,0,0,.19-.64A.4.4,0,0,0,27.74,47.39Z" style="fill: #091922;fill-rule: evenodd"/>
        <path d="M32.09,47.1a1.63,1.63,0,0,0,.09,1.06c0,.1.12.23,0,.29s-.2-.08-.26-.17a2.36,2.36,0,0,1,.32-3A2.82,2.82,0,0,1,35.86,45a1.57,1.57,0,0,1,.19,2.44,2.4,2.4,0,0,1-3.73-.07Z" style="fill: #081922;fill-rule: evenodd"/>
        <path d="M30.46,50a13.51,13.51,0,0,1,5.48,1.14c.12.05.35.06.28.25s-.27.13-.43.07a16,16,0,0,0-3.72-1,16.55,16.55,0,0,0-6.89.64c-.36.11-.72.25-1.09.38-.12,0-.28.11-.33-.06s.14-.17.23-.21A16.46,16.46,0,0,1,30.46,50Z" style="fill: #101823;fill-rule: evenodd"/>
      </g>
    </g>
  </g>
</svg>
