<svg xmlns="http://www.w3.org/2000/svg" viewBox="0 0 55.33 60">
  <title>0</title>
  <g id="Layer_2" data-name="Layer 2">
    <g id="Layer_1-2" data-name="Layer 1">
      <g id="_0" data-name="0">
        <path d="M55.33,44.83A11.18,11.18,0,0,1,53.8,49.6a7.88,7.88,0,0,1-2.44,2.68,7.28,7.28,0,0,1-3.81,1.18c-.28,0-.57.08-.86.07s-.67-.08-1-.09c-1,0-1.92,0-2.88-.08s-2.12-.16-3.17-.19A13.67,13.67,0,0,0,35.3,54a32.56,32.56,0,0,0-5.88,2.85,30.41,30.41,0,0,1-6.55,2.84,11.38,11.38,0,0,1-7.78-.8,26.23,26.23,0,0,1-3.13-2,8.15,8.15,0,0,1-3.32-4.3,4.71,4.71,0,0,1,.78-4.74,19.47,19.47,0,0,1,4-3.57c.71-.53,1.32-1.21,2-1.79a7.19,7.19,0,0,0,2.26-5.26,11.7,11.7,0,0,1,.76-3.89,6.9,6.9,0,0,1,3.11-3c1-.6,2-1.19,3.11-1.7a10.21,10.21,0,0,1,1.83-.56,14.68,14.68,0,0,1,6-.21,9.93,9.93,0,0,1,6.63,3.65c.51.67.88,1.43,1.41,2.07a39.3,39.3,0,0,0,2.64,3A9.66,9.66,0,0,0,48.37,39a16.21,16.21,0,0,1,3.9,1.14,5.37,5.37,0,0,1,2.85,3.52A10.59,10.59,0,0,1,55.33,44.83Z" style="fill: #f95e08;fill-rule: evenodd"/>
        <path d="M31.14,19a9.94,9.94,0,0,1,2-6.24,4.15,4.15,0,0,1,6.47-.34,9.89,9.89,0,0,1,2.49,5.69,10.26,10.26,0,0,1-1.25,6.79A4.62,4.62,0,0,1,37,27.63a4.24,4.24,0,0,1-3.36-1.48A10.87,10.87,0,0,1,31.14,19Z" style="fill: #f95e08;fill-rule: evenodd"/>
        <path d="M29.48,19.44A10,10,0,0,1,28.08,24a4,4,0,0,1-3.79,1.71A7.25,7.25,0,0,1,20.36,23,11.3,11.3,0,0,1,18,15.81a6.4,6.4,0,0,1,2.11-5.05,3.28,3.28,0,0,1,3.21-.69c3.27.86,4.59,3.39,5.5,6.26A26.73,26.73,0,0,1,29.48,19.44Z" style="fill: #f95e08;fill-rule: evenodd"/>
        <path d="M18.81,27.24A6.37,6.37,0,0,1,17.15,32a3.06,3.06,0,0,1-1.83.79c-2.36.34-3.81-1.09-5.15-2.61A10.5,10.5,0,0,1,7.9,25.76,9.07,9.07,0,0,1,8,20.05a3.56,3.56,0,0,1,3.75-2.56,5.74,5.74,0,0,1,2.58,1,10.88,10.88,0,0,1,4.24,7A15.55,15.55,0,0,1,18.81,27.24Z" style="fill: #f95e08;fill-rule: evenodd"/>
        <path d="M1.32,32.21A3.6,3.6,0,0,1,4,30.46a5.91,5.91,0,0,1,4.11,1.1,12.93,12.93,0,0,1,2.26,2.12,9,9,0,0,1,2.28,4.72A5.72,5.72,0,0,1,11.74,43a4.15,4.15,0,0,1-4.91,1,10,10,0,0,1-6.1-7.53C.63,36,.22,33.32,1.32,32.21Z" style="fill: #f95e08;fill-rule: evenodd"/>
        <path d="M53.29,29.49a7.32,7.32,0,0,1-.81,3.87c-.76,1.57-2.2,3.13-4.25,2.88a4.38,4.38,0,0,1-2.33-1.09,7.55,7.55,0,0,1-2.25-3.7A9,9,0,0,1,43.27,29a12.25,12.25,0,0,1,.21-3.09,5.55,5.55,0,0,1,3.31-4.3,3.79,3.79,0,0,1,3.76.93,7,7,0,0,1,1.91,2.64A9.26,9.26,0,0,1,53.29,29.49Z" style="fill: #f95e08;fill-rule: evenodd"/>
        <path d="M19.13,9.77C18,8.85,17.33,3.3,17.91,0c1.19.36,5.39,7.47,5,8.47A5,5,0,0,0,19.13,9.77Z" style="fill: #f95e08;fill-rule: evenodd"/>
        <path d="M9.24,6.59A20.73,20.73,0,0,0,11,15.9l-3.28,2A12.34,12.34,0,0,1,9.24,6.59Z" style="fill: #f95e08;fill-rule: evenodd"/>
        <path d="M30.52,1.59c4,1.55,8.5,6.5,7.93,8.74a5.44,5.44,0,0,0-3.71.16C33.64,5.47,31.77,3.8,30.52,1.59Z" style="fill: #f95e08;fill-rule: evenodd"/>
        <path d="M46.59,20.58c0-3.39-1.41-6.28-2.93-9.23a14.78,14.78,0,0,1,1.29.73,12.53,12.53,0,0,1,4.44,5.11c.45,1,.77,2.09,1.13,3.14a1.19,1.19,0,0,1,0,.46,4.07,4.07,0,0,1-.49-.05,5.58,5.58,0,0,0-3-.12A1.23,1.23,0,0,1,46.59,20.58Z" style="fill: #f95e08;fill-rule: evenodd"/>
        <path d="M4,28.76.65,30.88A8.78,8.78,0,0,1,.3,29.79,12.93,12.93,0,0,1,2.39,19.41C2.34,22.68,2.56,25.9,4,28.76Z" style="fill: #f95e08;fill-rule: evenodd"/>
      </g>
    </g>
  </g>
</svg>
