<svg xmlns="http://www.w3.org/2000/svg" viewBox="0 0 60 38.75">
  <title>5</title>
  <g id="Layer_2" data-name="Layer 2">
    <g id="Layer_1-2" data-name="Layer 1">
      <g id="_5" data-name="5">
        <path d="M37.45,37.51a37.66,37.66,0,0,1-9.82-11.35H27a21.52,21.52,0,0,1-8.55-2l-.05,0,0,0a27.87,27.87,0,0,0-5.19-1.57c-3.59-.88-7.3-1.79-9.21-3.62a7.91,7.91,0,0,1-2.46-4.07,4.88,4.88,0,0,1-1.24-5l0-.11A6.21,6.21,0,0,1,5.75,5.21l.16,0h.17s3,.19,6.42.46c1.64.08,3.15.12,4.49.12,4.83,0,6.09-.53,6.36-.69l.06,0,.05,0a6.72,6.72,0,0,0,1.91-1.48L25.79,3l.67,0a12.73,12.73,0,0,0,2.32-.39C29.7,2,32.93,0,35.52,0a5.12,5.12,0,0,1,.56,0,8,8,0,0,1,4.5,1.59l.05,0,0,.05a14.72,14.72,0,0,0,4.54,2.63A6,6,0,0,1,48.16,6.9a4.35,4.35,0,0,1,3.26,1.31,3,3,0,0,1,.55,1,4,4,0,0,1,2.42,1.13,3.69,3.69,0,0,1,1,1.86c.39.12.85.28,1.32.47,2,.81,3.05,1.87,3.28,3.15h0c.11.6.12,2.14-2.31,3.27a24.68,24.68,0,0,1-2.53,1,27.27,27.27,0,0,0-6.43,3.07,28.09,28.09,0,0,0-5.51,5.49,47.32,47.32,0,0,0-3.41,8.11l-.65,2Z" style="fill: #d0d1d2"/>
        <path d="M47.33,8.42s3.73-.47,3.26,2.29c0,0,3.45-.66,3.38,2.66,0,0,4.2.91,4.52,2.69,0,0,.28.84-1.48,1.66-2.16,1.07-5.13,1.54-9.19,4.22a29.76,29.76,0,0,0-5.9,5.91,48.76,48.76,0,0,0-3.58,8.45s-6.54-4.82-9.83-11.75c0,0-3.64.79-9.46-1.75C16,21.17,7.68,20.45,5,17.85a6.32,6.32,0,0,1-2.1-3.73s-1.94-1.6-1.21-3.71A4.77,4.77,0,0,1,6,6.7s3,.19,6.43.46c4.49.22,10,.25,11.71-.77a8.16,8.16,0,0,0,2.41-1.88A14.89,14.89,0,0,0,29.42,4S33.49,1.19,36,1.53a6.73,6.73,0,0,1,3.67,1.25,15.61,15.61,0,0,0,5.1,3S46.05,6.1,47.33,8.42Z"/>
        <path d="M32.19,6.73l1.05-.42A7.71,7.71,0,0,1,32.68,9,6.62,6.62,0,0,1,32.19,6.73Z" style="fill: #fff"/>
        <path d="M36.44,26.15a31.42,31.42,0,0,0,2.38-4.48S36,25.24,34.91,25.82Z" style="fill: #7c4c00"/>
        <path d="M30.44,24s4.39-1.39,8.36-6.86A19.56,19.56,0,0,1,32,24.85,4.33,4.33,0,0,1,30.44,24Z" style="fill: #7e4d00"/>
        <path d="M20.81,19.13s6.61,2.17,10.87-.5C31.68,18.63,28.39,24,20.81,19.13Z" style="fill: #7e4d00"/>
        <path d="M54.36,15.06s-1.29-.66-6.33-.75a18.62,18.62,0,0,1,3.54-.91s.75-2.75-6.33-.91a16.72,16.72,0,0,1,3.2-1.4s.87-2.89-6-1.23a13.79,13.79,0,0,1,3-1.09,3.61,3.61,0,0,0-1.6-1.57,16.21,16.21,0,0,1-5.2-3S36.6,2,32.7,3.63A17.83,17.83,0,0,0,26,9.36a16.22,16.22,0,0,1,1.39-2.67s-5.3,2.63-10.52,2.14l.39,2.71L15.84,8.86H13.76l.39,2.74L12.62,8.74,10.49,8.6l.47,3L9.4,8.44,5.75,8.28a3.24,3.24,0,0,0-3,3.08s-.05,2.42,4,2.51c0,0,23.07-.42,26.71.71,0,0-2.54,3.73-8.55,2.68,0,0,5.83-.78,5.85-2.07a150.32,150.32,0,0,0-15.34-.59c-2.32,0-4.95.19-7.87.24a30,30,0,0,1-3.2-.14,6.49,6.49,0,0,0,4.51,3.64s8.13,2.21,9.61,2.75c0,0,5.76,2.7,10.63,1.93a18.7,18.7,0,0,0,9.7-5.88S35.37,22.21,30.44,24a10.64,10.64,0,0,0,3.17,1.46c1,0,4.28-3,5.12-3.6,0,0-2.59,3.3-3.79,3.92,0,0,.75.4,5.6.9,0,0,5.17-7.26,13.88-9.58C54.42,17.1,57.83,16.35,54.36,15.06Zm-49-4.59a1,1,0,0,0-.11.17,1.22,1.22,0,0,1-1,.74H4.17a.94.94,0,0,1,.14-.68,3.61,3.61,0,0,1,2-1.22l.26-.07-.07,0c-.23.23-.52.49-.82.74ZM36.44,7.56s-1.94,4.1-8.1,1.16c0,0,3.13-4.28,7.43-3.82,0,0,.47,1,3.28,2.39A6.87,6.87,0,0,1,36.44,7.56Z" style="fill: #007046"/>
        <path d="M9.4,8.43,5.87,8.29a3.26,3.26,0,0,0-3.13,3.07c.18,2.1,2.82,2.41,2.82,2.41,0-2.13.81-3,1.77-3.21,2.87-.57,3.55.83,3.55.83Zm-3.94,2a5.08,5.08,0,0,1-.63.79,1,1,0,0,1-.66.21s-.46-1.2,2.38-2C6.55,9.41,6,9.89,5.46,10.38Z" style="fill: #fff"/>
        <path d="M16.87,8.83A21.27,21.27,0,0,0,27.39,6.68s-3.64,3.14-10.33,3.45Z" style="fill: #fff"/>
        <polygon points="13.76 8.87 15.84 8.86 17.24 11.51 15.86 10.25 13.96 10.26 13.76 8.87" style="fill: #fff"/>
        <polygon points="10.49 8.6 12.62 8.74 14.15 11.61 12.91 10.4 10.79 10.42 10.49 8.6" style="fill: #fff"/>
      </g>
    </g>
  </g>
</svg>
