<svg xmlns="http://www.w3.org/2000/svg" viewBox="0 0 60 47.88">
  <title>6</title>
  <g id="Layer_2" data-name="Layer 2">
    <g id="Layer_1-2" data-name="Layer 1">
      <g id="_6" data-name="6">
        <g>
          <path d="M30,6.43H28.26V5.72S17.84.72,16.74,0C16.74,0,11,6.34,0,4.42c0,0,.5,15.88,11,22.69,0,0-2.34,15.26,8.9,12.51a7,7,0,0,0,2.69-2l1,7.55s.32,3,6.59,2.64c0,0,6.18.08,6.29-2.84l1.07-7.33a6.41,6.41,0,0,0,3.29,2.23c3.69.92,9.63-1.09,8.09-13,0,0,7.85-3.27,11.12-22.28A20,20,0,0,1,43.28,0L31.8,5.72v.71Z" style="fill: #a5abb0"/>
          <path d="M29.08,46.69c-3.13,0-4.21-1.06-4.36-1.64v0h0L23.38,34.72l-1.74,2.2a5.79,5.79,0,0,1-2.13,1.57,9.62,9.62,0,0,1-2.15.28,4.37,4.37,0,0,1-3.54-1.5c-2.23-2.6-2-8.09-1.68-10l.12-.75-.64-.42C3.58,20.89,1.71,9.75,1.3,5.8A23.67,23.67,0,0,0,4.07,6,19.61,19.61,0,0,0,16.93,1.49c2.26,1.17,8.05,4,10.15,5V7.61H33V6.46l10.13-5A21,21,0,0,0,56.48,6.09,19.76,19.76,0,0,0,58.53,6c-3.26,16.74-10,19.75-10.11,19.78l-.83.35.11.89c.62,4.78,0,8.33-1.67,10.28a4.73,4.73,0,0,1-3.64,1.62,5.66,5.66,0,0,1-1.31-.16A5.24,5.24,0,0,1,38.46,37L36.75,34.6l-1.5,10.29V45c0,1.16-3,1.7-5.06,1.7h-.12Z" style="fill: #161e24"/>
          <path d="M49.23,19.76l1.54.79c.25-.26.5-.54.75-.83l-.59-1.3,1.23.52a24.14,24.14,0,0,0,5-11.72S50.46,8,43,2.84l-9,4.42,0,.83s2.4.79,3.07,2c0,0-4-1.46-6.85-1.24,0,0-4.38-.09-7.1,1.12.48-.53,2-1.8,2.9-1.83v-1s-6.51-3.08-9-4.29A22.08,22.08,0,0,1,2.69,7.14a20.12,20.12,0,0,0,1.24,4.94l1.21,0-.82,1A25.42,25.42,0,0,0,13.19,24s.77-2.9,4.65-4.62L17,25.57l1.72.8a8,8,0,0,1,1.42-2.1s-1.72-5.63-1.25-7.43c0,0,4.52-1.38-.68-7.1,0,0-4.76.36-7,.45,0,0,6.28-.82,7.13-1.78,0,0,1.63,1.18,3.61,5.35l1.07-2s-.6,2.9-1.76,4a1.84,1.84,0,0,0,.45,1.69l-.44.06s-1.09-1.09-1.09.21a32.92,32.92,0,0,0,1.29,4.66.23.23,0,0,0,.07.07c.88.27,1-.3.79-1.3a15.36,15.36,0,0,1-.82-2.87,2.68,2.68,0,0,1,2.33,1l.09-2.4a15.49,15.49,0,0,1,.39,3.61s-2.28,3.19-2.4,3.28.33,0,.68,1.1a1.93,1.93,0,0,0-1-.57c-.57-.05-.77.74-.48.89s1.1-.12,1.78,1.13a12.06,12.06,0,0,0-2.07-.48c-.3.06-.3.8-.09.83,0,0,2.13.44,2.57,1.51l.95-3s-1.06,9.4,1.24,14.34c1.71,4,7.6,3.57,9.33-.19,1.11-2.43,1.29-6.57.87-14.21,0,0,.89,2.13,1.09,3a18,18,0,0,1,2.44-1.58c.6-.19.32-.63,0-.67a13.63,13.63,0,0,0-2.05.56L39.06,25s-.12-.83-.83-.67-.79.63-.79.63A2.66,2.66,0,0,1,38,23.47,5.23,5.23,0,0,1,36,16.84l.08,2.37a5.66,5.66,0,0,1,2.6-.95s-.51,2.92-1.18,3.51c0,0,.23,1.11,1.18.55a17.81,17.81,0,0,0,1.11-5.16l-1.11.35.43-1.38s-1.22-.47-2-4.1l1,1.5s2.4-3.83,3.43-5a48.33,48.33,0,0,0,8.4,1.58s-7.18,0-8-.2c0,0-4.89,5.48-.71,7,0,0-.47,6.35-1.3,7.5l1.42,2L43,25.91s-.67-5.4-.87-6.39a8.58,8.58,0,0,1,4.62,4.42,18.73,18.73,0,0,0,3.14-2.51ZM35,11.87s-1.18,1.66-1.49,6.79-.4-1.9-.4-1.9l-1,.08S33.65,12.7,35,11.87ZM33.93,25.79s-5.56-.67-8,0A7.5,7.5,0,0,1,33.93,25.79Zm-5.84-8.87-1-.08s-.08,7-.4,1.89S25.17,12,25.17,12C26.52,12.78,28.09,16.92,28.09,16.92ZM26.75,39.87s5.6-.07,6.39-.11C30.58,42,26.75,39.87,26.75,39.87ZM30.05,38c-2.15,0-3.89-.17-3.89-.39s1.74-.4,3.89-.4,3.88.18,3.88.4S32.19,38,30.05,38Zm-4.28-3s3.58-1.93,9,0Zm-.87-2.84s5.33-3.33,10.17,0Zm0-3.11a8.62,8.62,0,0,1,10.29-.16S28,27.77,24.86,29.07Z" style="fill: #7f7f7f"/>
          <circle cx="22.75" cy="19.8" r="0.65" style="fill: #fff"/>
          <circle cx="37.3" cy="19.77" r="0.65" style="fill: #fff"/>
          <path d="M16.15,21.72A11.09,11.09,0,0,0,13.28,30s.42,7.22,5.42,6.48c0,0,2.95-.21,4.14-5.53,0,0-.09-4.35-3.55-2.48,0,0-.5,3-1.27,3.81A3,3,0,0,0,20.86,31s-.51,2.63-3,2.19C17.9,33.17,14.26,31.63,16.15,21.72Z" style="fill: #fff"/>
          <path d="M43.93,21.63a11.1,11.1,0,0,1,2.87,8.29s-.41,7.21-5.41,6.47c0,0-3-.2-4.14-5.53,0,0,.08-4.35,3.55-2.48,0,0,.5,2.95,1.27,3.81a3,3,0,0,1-2.84-1.3s.5,2.63,3,2.19C42.18,33.08,45.82,31.54,43.93,21.63Z" style="fill: #fff"/>
        </g>
      </g>
    </g>
  </g>
</svg>
