<svg xmlns="http://www.w3.org/2000/svg" viewBox="0 0 60 46.6">
  <title>7</title>
  <g id="Layer_2" data-name="Layer 2">
    <g id="Layer_1-2" data-name="Layer 1">
      <g id="_7" data-name="7">
        <ellipse cx="30" cy="23.3" rx="30" ry="23.3"/>
        <path d="M40.74,24.6s4,2,4.83,4.32c0,0,.34-.83.18-1C45.75,27.89,44.86,26,40.74,24.6Z" style="fill: none"/>
        <path d="M47.8,27,48,26a23,23,0,0,0-7.08-3.61S46.52,25.57,47.8,27Z" style="fill: none"/>
        <path d="M38.3,18.25l3.05.79S39.64,18,38.89,17.62c0,0-.51-.77,3.35-.94l-3.84-.36s-.22-.31.92-.43a7.89,7.89,0,0,0,4.73-1.64,17.57,17.57,0,0,1-6.95.89s.69,1.06,1.59,6.52A5.29,5.29,0,0,0,38.3,18.25Z" style="fill: none"/>
        <path d="M49.81,23.79v-1a20.89,20.89,0,0,0-7.51-2.61S48.71,22.67,49.81,23.79Z" style="fill: none"/>
        <path d="M42.18,18.11c4.38.62,10.51,3.3,10.51,3.3A16.73,16.73,0,0,0,42.18,18.11Z" style="fill: none"/>
        <path d="M42.62,15.79c12.05,2.37,12,4.49,12,4.49.1-.18.1-.25.21-.27s1.13-.16,1-.87C51.47,15.53,42.62,15.79,42.62,15.79Z" style="fill: none"/>
        <path d="M33.48,26.34l0-.06Z" style="fill: #8d1414"/>
        <path d="M25.24,20.31c-.19,0-.35.25-.35.56s.16.55.35.55.36-.25.36-.55S25.44,20.31,25.24,20.31Zm0,.85c-.08,0-.14-.1-.14-.23s.06-.24.14-.24.14.11.14.24S25.35,21.16,25.27,21.16Z" style="fill: #fff"/>
        <path d="M36.48,20.31c-.21,0-.38.25-.38.56s.17.55.38.55.38-.25.38-.55S36.69,20.31,36.48,20.31Zm0,.81c-.08,0-.15-.1-.15-.23s.07-.24.15-.24.16.1.16.24S36.55,21.12,36.46,21.12Z" style="fill: #fffcff"/>
        <path d="M26.17,30.88s.24,2.35-1.3,3.19c-.19-.3-1.07-1.31-1.07-1.31s1-.49,1.23-2.92l.68.54a13.81,13.81,0,0,1-1.23,3.11C24.41,33.55,25.22,33.53,26.17,30.88Z" style="fill: #f7f7ff"/>
        <path d="M44,12.57s-1.5.2-3.71.68a5.34,5.34,0,0,1-4.56-1.42,6.87,6.87,0,0,0-5.66-1,7.36,7.36,0,0,0-5.81.91,5.28,5.28,0,0,1-3.78,1.52,8.64,8.64,0,0,1-2.95-.49,14.1,14.1,0,0,0-6.06.14,20.68,20.68,0,0,0-9.7,6.19s.43.81,2.11.61c0,0,.13.31.44,1a2.47,2.47,0,0,0,1-.05c.06.16.68,1.29,1.65,1.19,0,0,.24,1.22,2.67,1.1,0,0,.56,2.79,2.25,3.95a3.85,3.85,0,0,0,2.25,2.48s.22.25.48.58c0,0-1.58,0-.26,3.38a1.71,1.71,0,0,0,3,.19A7,7,0,0,0,18.9,35a17.48,17.48,0,0,1-4.53,0s2.8,2.68,7.79,1.56c0,0,6.07,8.74,10.23.71,0,0,1.36.52,1.51-.21a5.7,5.7,0,0,0,4.48-.77s4.14,4.63,4.79-2.88c0,0-.75,1.68-2.09,1.6,0,0,1.44-.73,4.85-5.66a3.55,3.55,0,0,0,2.24-2.5A7.31,7.31,0,0,0,50.46,23s2.29.12,2.66-1.16c0,0,1,.18,1.66-1.16a3.3,3.3,0,0,0,1,0s.21,0,.38-.95c0,0,1.61.23,2.23-.71C58.35,19,51.84,11.8,44,12.57Zm-14-1a1.91,1.91,0,0,0-1.42.18l1.8.87c-4.48-1.54-6.88.17-6.88.17C27.24,9.93,29.94,11.55,29.94,11.55ZM12.85,26.27s2.33-4.35,4.08-5.53c0,0-3,.61-4.16,4.92,0,0-1.28.36-1.75-3.21l1.81-2.58a5.43,5.43,0,0,0-2.74,2.25c-.41.05-2.42.37-1.87-1.13,0,0,.57-1.2,4.4-4.22,0,0-3.65,2.86-6.57,3.18,0,0,5.22-4,5.52-4.34a34.7,34.7,0,0,0-7.12,3.84,2.56,2.56,0,0,0-1.73-.65S7.81,14.47,12,14.29c0,0,2.17-.63,9.23,1a7,7,0,0,0,4.49-.69s-3.46,3-1.54,6.6c-.08.35-.76,2.36,1.08,5.93,0,0-.51,2.16.52,2.35,0,0,1.62.14,1.22,4.6,0,0,1.24-1.65-.46-7.14,0,0-1.19-.35-2-3.6,0,0,1.66,1.24,2.33-1.27,0,0-1.22,1.67-2.19.65,0,0,1.38.32,2.19-1.57l-2.27-2.52-.71.87.79-2.3,1.24,1.46s-.4-4.06,4.93-2.82c-.49.11-6.71,1.41-3.14,5.12a1.64,1.64,0,0,1,2-1s-2.35.82-2.05,3a2.11,2.11,0,0,1,2.33,0,3.5,3.5,0,0,0-2.14.81c.11.65.13.87.13.87a2.62,2.62,0,0,1,2.14.06,3.8,3.8,0,0,0-1.95.67c.14.71.22,1.17.22,1.17a2.3,2.3,0,0,1,2,.13,3.76,3.76,0,0,0-1.92.59,9.5,9.5,0,0,1,.16,1.09s1.3-.25,1.79.19c0,0-1.71.29-1.68.54s.08,1.05.08,1.05a2.85,2.85,0,0,1,1.81.25,6.82,6.82,0,0,0-1.76.48c0,.27,0,.74,0,.74a2.25,2.25,0,0,1,2,.56,4,4,0,0,0-2.05.25s-.18,3-1.48,2.89c-.32.08-1.4.56-3.45-1.51a12.83,12.83,0,0,0-7.1-3.91c-.09-.15-.49-1-.49-1A2.78,2.78,0,0,1,12.85,26.27Zm11.91-6.54s1.3.72,1.44,1.43c0,0-.42.94-1.07.83C25.13,22,24.53,21.72,24.76,19.73ZM16,35.61s3.25.53,5-.31l.86,1S18.17,37,16,35.61ZM25.22,39c-.28-.1-3.12-2.81-4.89-4.45s-3-1.5-3-1.5c-2,1.62-2.9.36-3.13-.73a3.56,3.56,0,0,1,.22-1.87c.53,3.47,2.48,1.79,3.25,1.38a11.94,11.94,0,0,1,3.36,2.06,3.1,3.1,0,0,0,1.2.08c.13.12-.28.3-.74.31l.3.25a3.39,3.39,0,0,0,1.3.1c.15.13-.35.33-.86.31h0l.23.21a3.92,3.92,0,0,0,1.49.15c.16.14-.46.36-1,.29l.27.24a3.82,3.82,0,0,0,1.45.13c.15.14-.41.35-.95.3l.23.19a3.94,3.94,0,0,0,1.59.17c.16.15-.46.37-1,.29l.29.23a4,4,0,0,0,1.51.15c.15.13-.37.33-.89.3l.52.34a3.49,3.49,0,0,0,1.32.1c.12.11-.2.27-.61.3l.18.09c2.72,1.36,4.27.33,4.27.33C28.38,41.85,25.51,39.09,25.22,39ZM44.05,14.25a7.89,7.89,0,0,1-4.73,1.64c-1.14.12-.92.43-.92.43l3.84.36c-3.86.17-3.35.94-3.35.94C39.64,18,41.35,19,41.35,19l-3.05-.79a5.21,5.21,0,0,1,.39,3.41c-.89-5.46-1.58-6.52-1.58-6.52A17.54,17.54,0,0,0,44.05,14.25ZM36.44,29l-1-2.59s1.76,1.77,2.14-1.3c0-.8,0-1.14,0-1.14s-1.11,3.33-2,0c0,0,.94,1.59,2-.21l-.15-2.92.42,1.55s.3-1.18-.48-4.07c0,0,1.66,3.57.63,4.48,0,0,1.11,4.34-1.24,4.79a4.15,4.15,0,0,1,.39,2.49s-.39-1.05-2-.72A.93.93,0,0,1,36.44,29ZM34.9,24.22l-.37,1.27s-1-7.25,2-7.53c0,0-2.54,1.48-.77,8.26Zm2.53,6.63a11.91,11.91,0,0,0,3.33,4.29C38,34,36,29.81,36,29.81A1.57,1.57,0,0,1,37.43,30.85Zm-2.14-9.24a1.3,1.3,0,0,0,1.79.45S36.1,23.45,35.29,21.61Zm1.29.38s-.59.19-1.1-.85c0,0,.66-1.17,1.52-1.41C37,19.73,37.15,21.68,36.58,22Zm-4.43-5.1,1.93-1,1.36.81s.3-.81-1.06-1.82a1.25,1.25,0,0,1,1.3,1.26s.9-.47-.16-2.91a3.12,3.12,0,0,1,.83,3.94,1.7,1.7,0,0,1-2.43-.75ZM32.64,37a22.53,22.53,0,0,0,.84-10.68.32.32,0,0,0,0-.06l0,.06c.07.39.53,2.48,1.53,3.28a2.93,2.93,0,0,0-.36,2.26A9,9,0,0,1,32.64,37Zm3.22-1-.68-.91-1,1.59L35,32.85l2.49,3.33-1.71-1.4ZM42.79,35S42,41.54,35,32c0,0-.06-1.68.46-2.07C35.49,29.88,40.49,40.26,42.79,35Zm2.78-6c-.83-2.33-4.83-4.32-4.83-4.32,4.12,1.4,5,3.29,5,3.29C45.91,28.09,45.57,28.92,45.57,28.92ZM47.8,27c-1.28-1.45-6.92-4.65-6.92-4.65A23,23,0,0,1,48,26Zm2-3.23c-1.1-1.12-7.51-3.64-7.51-3.64a20.79,20.79,0,0,1,7.51,2.62Zm-7.63-5.68a16.73,16.73,0,0,1,10.51,3.3S46.56,18.73,42.18,18.11ZM54.86,20c-.1,0-.1.08-.2.27,0,0,0-2.12-12-4.49,0,0,8.85-.26,13.24,3.35C56,19.85,55,20,54.86,20Z" style="fill: #fffcff"/>
      </g>
    </g>
  </g>
</svg>
