<svg xmlns="http://www.w3.org/2000/svg" viewBox="0 0 52.93 60">
  <title>8</title>
  <g id="Layer_2" data-name="Layer 2">
    <g id="Layer_1-2" data-name="Layer 1">
      <g id="_8" data-name="8">
        <path d="M13.18,24.41s-2.49,8.32,1,13.54a19,19,0,0,0,.28,10.58s-.8,5.68-.42,7.38a7.17,7.17,0,0,0-1.32,4c.94,0,8.33.1,8.33.1s.84-.85,0-3.44c.42,0,4.46.66,3.4-4.7a21.3,21.3,0,0,1,1.13-3.1,20.17,20.17,0,0,1,1.88-1.85c.12.69,1.31,4.67,1.31,4.67l-.44,5.77a2.93,2.93,0,0,0-.81,2.47l6-.06a2.26,2.26,0,0,0-.5-1.85,8.76,8.76,0,0,1,1.09-4.2,14.24,14.24,0,0,0,.29-8.61A21.81,21.81,0,0,0,40.69,42s1.51,2.35.13,6.83a14.49,14.49,0,0,0,.31,3.8l.25,4.51A11.11,11.11,0,0,0,40,59.79c.53,0,7.52,0,7.52,0s.06-2.79-.94-3.38c0,0,.19-8.31,1.16-10.06,0,0,1.6-3.45,1.63-4.54,0,0,8-5.3-.1-9.25,0,0-1.38-3.6-2.1-4.07l-2-7.06S50.75,22,51.63,18c0,0-5,1.47-8.43-1,0,0,3.5-2.18,2-8.14,0,0-.42-2.58,2.35-.17,0,.72,0,3.1,3.48,2.16,0,0,3-1.72,1.37-3a11.61,11.61,0,0,0-2.15-1s-2.73-4.11-5.72-4c0,0-3.59,0-3.71,5.36l-.33,0a6,6,0,0,0-2.4-4.65S37.25,0,34.91.6a2.9,2.9,0,0,0-1.75,1.52A3.51,3.51,0,0,0,27.6.94s-2.87-2.35-6.27.8a5.67,5.67,0,0,1-3.24,0s-3.31-2-6.42-.45A21,21,0,0,0,4.41,7S3.49,8,0,9.54C0,9.54,3.05,22.22,13.18,24.41Z"/>
        <path d="M37.86,22s-7,1.62-10.23-3.6c0-.35.07-.66.07-.66a9.81,9.81,0,0,0,5,3.76,16.75,16.75,0,0,1-4.16-4.2s-.69-1,.18-1.56a1.19,1.19,0,0,1,1.6.66S30.36,20.2,37.86,22Z" style="fill: #fff"/>
        <path d="M33.44,17.17l.44,2.63-.32,0,.07.35.35,0s.68.59,1,.38-.31-.85-.4-1a10.21,10.21,0,0,1-.33-2.24A1.34,1.34,0,0,0,33.44,17.17Z" style="fill: #fff"/>
        <path d="M49.09,19.38s-5,.09-6.81-1.9a6.85,6.85,0,0,0-.87.51,11.69,11.69,0,0,0,2.46,1.41,5.54,5.54,0,0,1-3.33-1.24l-1,.19s1.32,1.31,5.46,1.83C45,20.18,48.41,20.23,49.09,19.38Z" style="fill: #fff"/>
        <path d="M45.07,32s.31,7.9-6,8.89C41.12,39.76,43.92,36,45.07,32Z" style="fill: #fff"/>
        <path d="M47,31.65s3,2.84,1.2,10.25c0,0,0,.8-3.53,5,.66-1.52,2.94-5.26,3.13-7.07A19.4,19.4,0,0,0,47,31.65Z" style="fill: #fff"/>
        <path d="M49.91,34.4s3.74,2,.05,5.71C50,39.38,49.91,34.4,49.91,34.4Z" style="fill: #fff"/>
        <path d="M20.91,55.61s.87-2.26,2-.16C23,55.45,21,55.55,20.91,55.61Z" style="fill: #fff"/>
        <path d="M18.57,55.81l1.82,0s-.6-1.35-.91-1.22C19.48,54.56,18.5,55.19,18.57,55.81Z" style="fill: #fff"/>
        <path d="M18,55.72s-.05-1.79-1.08-1.46C16.94,54.26,16.09,55.39,18,55.72Z" style="fill: #fff"/>
        <path d="M16.37,52.77s.38,1.38-.06,1.73C16.31,54.5,15.18,53.05,16.37,52.77Z" style="fill: #fff"/>
        <path d="M37.78,18.14l-2.41-.09c1,1.8.43,2.72.43,2.72a40.74,40.74,0,0,1,4.05,1.09c-3.68,3.41-9.26.15-9.26.15-2.28,1.37-3.91,5.08-3.91,5.08A14.69,14.69,0,0,1,31,24.79s-.78,1.41-5.73,5.09a12.52,12.52,0,0,0,2.17.06A22.59,22.59,0,0,0,30,28.42C29.14,30.76,25.27,32,25.27,32l-.11,2.56-.89-.69a4.52,4.52,0,0,0,1.32,3.52c2.54-.2,5.26-3.69,5.26-3.69.6,3.66-7.44,6.86-7.44,6.86-4.33,0-4.39,7.62-4.39,7.62l-2.13,3.58s0,1.56,0,1.82a1.58,1.58,0,0,1,1.77.53,1.56,1.56,0,0,1,2.17.33,1.46,1.46,0,0,1,2.29.35c.9-.17.35-2.21.35-2.21l0-.52.87-2.76a10.76,10.76,0,0,1-3,.44l-.07-.31c3.8-.6,3.55-1.54,3.55-1.54A11.74,11.74,0,0,1,20.39,49a10,10,0,0,0,5.23-2.85c.44-.41.66-3.42.66-3.42,1.44.44.59,2.54.59,2.54a29.93,29.93,0,0,0,9-3.79l-1.57-.22c4.86-1.85,4.2-8.5,4.2-8.5l1.19,1.67c1.82-2.76,1-9.19,1-9.19a8.87,8.87,0,0,0,1.34,1.29A8.3,8.3,0,0,0,37.78,18.14ZM21.26,46c-1.66-1.41.69-4.23.69-4.23-.88,5.39,2.89,3.36,2.89,3.36C22.86,47.41,21.26,46,21.26,46Z" style="fill: #fff"/>
        <path d="M34.06,3.65a1.6,1.6,0,0,1,1-2A1.64,1.64,0,0,1,36.78,3s-1.09-1-1.76-.53a1.58,1.58,0,0,0-.77,1.33C34.16,3.85,34.06,3.65,34.06,3.65Z" style="fill: none"/>
        <path d="M49.48,7.7s-2.55-3.28-4.9-3.55c0,0-2.46-.14-3.11,6.23,0,0-2,0-1.66,3,0,0-1-.13-.66-2.18,0,0-1.12.08-.86,2.52,0,0-1-.09-.51-2.52,0,0-.74,0-2.17,1.83a3.2,3.2,0,0,1,.68-2.33,6.57,6.57,0,0,1-1.93-3,33.68,33.68,0,0,0-3.3-5.57l1.46,1.18a2.84,2.84,0,0,0-3.52-2,6.42,6.42,0,0,1,1.85,3.81s-2.94-5.06-7.21-3c0,0-1.72,1.84-9,.14a4.11,4.11,0,0,0-3,.33A33.71,33.71,0,0,0,7.11,6.19S6.52,7.3,1.68,9.88A17.27,17.27,0,0,0,13.37,23.12a11.2,11.2,0,0,0,4.39,2.23,18.19,18.19,0,0,1,4.79,2.07s-1.41-2.67-1.29-10.5l-.72-.47a28.6,28.6,0,0,1-1.06,6l.5-7.93-.69-.63s-.6,3.2-4.42,6.77c0,0,5.23-8,3.92-9.09,0,0-4.52,6-7.15,7.21l6.68-8.31s-1.91-3.85-3.83-4.54c0,0,3.36-.5,4.61,2.26,0,0-.78,2.28,2.38,2.91,0,0,.29,2.85.38,3.45s-.56-3.36-2-3c0,0,.79,3.82,5.83,7.08a12.42,12.42,0,0,1-3.32-5.58l1.32,1,.25-1.38.53,1.19.28-1.13S25,16.14,27,17.58c0,0-.1-4.67,4.67-1.95,0,0,8.87,4.24,11.34-.81a9.61,9.61,0,0,0-1.72.69s-4.42,3.92-15.64-3.95c0,0,0-.91,2.16-.34,0,0-.25-2.82,1.85-4A4.34,4.34,0,0,0,30.6,13s-.19-2.6.54-2.91a6,6,0,0,0,1.06,3.57s-.28-1.76.35-2.48c0,0-.19,3,1.66,4.14,0,0-1.35-2.79,0-3.67,0,0-.57,5.93,5.58,3.92.09-.31-.19-.34,0-.41S44.86,14,43.64,9.93c0,0-.44-3.1,1-3.54,0,0,1.37-.9,3.89,1.85-.27,1.23,2.28,3,3.11.13C51.3,8.25,49.88,7.89,49.48,7.7ZM29.16,14.41h-1A12.74,12.74,0,0,0,25.78,12C27.31,12.22,29.16,14.41,29.16,14.41ZM26,6.67s-.08,1.43-1.22,1.68c0,0-2.54.05-3,0,0,0,.15-1.09,2.11-.8C23.88,7.53,25.38,7.66,26,6.67ZM22.88,3c-.15.06-1.83.86-2.65,4.05C20.23,7,17.66,5.15,22.88,3Zm1.74,3.53a5,5,0,0,0-4.2.87C22.56,3.76,24.62,6.48,24.62,6.48ZM22.2,11.87H22l-.11-1.12s-1-.32-.61-1.87h.33a2.09,2.09,0,0,0,.83,1.9Zm2.43-1.77s-1.77,1.45-2.38-.76c0,0,2-1.93,3.21,1.19C25.46,10.53,24.91,10,24.63,10.1Zm1.3.27a20.13,20.13,0,0,0-.95-2A1.49,1.49,0,0,1,25.93,10.37Z" style="fill: #fff"/>
        <path d="M35.62,2.27a1.53,1.53,0,0,1,1.24.85,1.5,1.5,0,0,0-3,.21,1.59,1.59,0,0,0,.17.72C34.28,3,34.9,2.27,35.62,2.27Z" style="fill: #fff"/>
      </g>
    </g>
  </g>
</svg>
