<svg xmlns="http://www.w3.org/2000/svg" viewBox="0 0 60 57.55">
  <title>9</title>
  <g id="Layer_2" data-name="Layer 2">
    <g id="Layer_1-2" data-name="Layer 1">
      <g id="_9" data-name="9">
        <path d="M30.25,0,4.19,8.73s0,35.87,25.62,48.82c0,0,23.52-8.35,26-48.95Zm-.4,56.74A39.23,39.23,0,0,1,15.64,44.06a57.1,57.1,0,0,1-7.51-16A77,77,0,0,1,5,9.26L30.25.78,55,9.12c-1.34,20.36-8.13,32.23-13.61,38.62A33.25,33.25,0,0,1,29.85,56.74Z" style="fill: #281b13"/>
        <g>
          <path d="M29.88,55.92A38.64,38.64,0,0,1,16.25,43.63,56.16,56.16,0,0,1,8.84,27.89,76.78,76.78,0,0,1,5.71,9.78L30.25,1.57l24,8.07c-1.41,19.82-8,31.39-13.4,37.61A33,33,0,0,1,29.88,55.92Z"/>
          <path d="M26.33,9.34s-2.75-4.45-7.18-5.47c0,0-9.72-3-15.54,5.73A19.2,19.2,0,0,0,.09,19.15s-1.85,15.94,11,18.38L9.5,24.85s-1.21-5.63,2.78-7.71l-.52-3,5,.06L18.07,14l1.67-2.63L22,9.72Z"/>
          <path d="M33.67,9.34s2.75-4.45,7.18-5.47c0,0,9.72-3,15.54,5.73a19.2,19.2,0,0,1,3.52,9.55s1.85,15.94-11,18.38L50.5,24.85s1.21-5.63-2.79-7.71l.53-3-5,.06L41.93,14l-1.67-2.63L38,9.72Z"/>
        </g>
        <g>
          <g>
            <path d="M23.72,6a16.15,16.15,0,0,1,2.63,3.19l7.39-.09a14.12,14.12,0,0,1,2.73-3L30.18,4.42Z" style="fill: #7f7f7f"/>
            <path d="M10.81,26.8s-2-2.23-.78-6.46a3.76,3.76,0,0,1,2.76-3,25.12,25.12,0,0,0,1.77,2.41L13.94,21s-2.91-.16-2.88,1.11c0,0-.25,1.09,1.24,1.37Z" style="fill: #7f7f7f"/>
            <path d="M49.3,26.76s1.93-2.25.72-6.47a3.79,3.79,0,0,0-2.8-3,23.74,23.74,0,0,1-1.74,2.43L46.11,21S49,20.79,49,22.06c0,0,.26,1.08-1.22,1.37Z" style="fill: #7f7f7f"/>
            <path d="M21.89,21.62a2.59,2.59,0,0,0,2.85,2.1s0-2-1.36-2.1Z" style="fill: #7f7f7f"/>
            <path d="M38.19,21.58a2.59,2.59,0,0,1-2.85,2.1s0-2,1.36-2.1Z" style="fill: #7f7f7f"/>
          </g>
          <path d="M24.27,31s1.18-4.33.84-4.73-2.57-3-3.65-3.25a34.53,34.53,0,0,0,0,4.76S24.15,30.2,24.27,31Z" style="fill: #7f7f7f"/>
          <path d="M35.87,30.88s-1.18-4.33-.84-4.73,2.57-3,3.65-3.25a34.53,34.53,0,0,1,0,4.76S36,30.11,35.87,30.88Z" style="fill: #7f7f7f"/>
          <path d="M30,38.43a3.5,3.5,0,0,0,3.62,1.83s-3.4,3.74-7.09,0A3.21,3.21,0,0,0,30,38.43Z" style="fill: #7f7f7f"/>
        </g>
        <g>
          <path d="M13.48,24.38s2.06,2.19,1,3.55a2.16,2.16,0,0,1-2.4-.29Z" style="fill: #fff"/>
          <path d="M46.67,24.51s-2.07,2.18-1,3.55a2.17,2.17,0,0,0,2.39-.29Z" style="fill: #fff"/>
          <path d="M29.81,53.26S34.6,50.54,36,48.93a28,28,0,0,0,.5-6.35l1.24,4.49s3.3-3.83,3.79-4.62A23.18,23.18,0,0,0,40.25,36a36.1,36.1,0,0,1,2.4,4.7l1.92-3.43s-5.38-1.17-5-9c0,0,.37-5.38,5-7l-.24-.5a9.28,9.28,0,0,1-3,1.24s-2.07,1.64-2.1,5.91c0,0,0,.46-.87,1.3a5.4,5.4,0,0,0-2.23,4.56s1,4.38-1.49,5.91c0,0-.6,3.11-4.58,3a4,4,0,0,1-4.43-3s-2.49-1-1.56-5.58a5.3,5.3,0,0,0-2.26-4.86,3.37,3.37,0,0,1-1-1.77c-.09-.92-.09-4.11-2.07-5.5a4.9,4.9,0,0,1-2.91-1.27,1.07,1.07,0,0,1-.34.55s4.21,1.21,5,6.87c0,0,.84,7.68-5.11,9.19a29.24,29.24,0,0,0,2.08,3.66s1.3-3.75,2.35-4.74a20.69,20.69,0,0,0-1.24,6.69l3.84,4.61a22.66,22.66,0,0,1,1.24-5.08s-.25,5,.46,6.69C24.09,49.11,28.14,52.31,29.81,53.26Z" style="fill: #fff"/>
          <path d="M29.23,38s-3.5,4.39-4.58-2.35a3.46,3.46,0,0,0,2.07.92s-2.91-1.45-1.45-6.15c0,0,1.85-5.67-.59-9.19-.95-1.58-4-3.21-5.26-5.05s.34-5.75,3.65-5.72c0,0-4.64,2.63-.22,6.65a31,31,0,0,1,4,6.22,39,39,0,0,1,.1-4s2.6-.65,3.24-2.57a5.15,5.15,0,0,0,3.13,2.57v3.87a56.15,56.15,0,0,1,4-6.31s4.34-3.72-.37-6.44c0,0,5.54.4,3.62,6l-.25.21a56.69,56.69,0,0,0-5.13,4.9s-2,2.22-.34,9.22c0,0,1.61,3.77-1.49,5.82a2.44,2.44,0,0,0,2.05-.9s-1,6.62-4.68,2.13c.5-.65,1.64-2,1.64-2l.22.28s2.29-2.54-2.35-2.17c0,0-5-.71-2.79,2.17.16-.37.25-.31.25-.31Z" style="fill: #fff"/>
          <path d="M30,15.81s2.69,5.08,6.25,1c0,0,5-5.44-2.88-6.53a16.38,16.38,0,0,0-6-.28s-8.39.65-3.59,6.72C23.72,16.68,27.62,21,30,15.81Z" style="fill: #fff"/>
          <path d="M19.21,21.37a9.57,9.57,0,0,1-7-7.2s3.65-.66,8.76,4.83c0,0,.7,1.77-.76,1.53A17.46,17.46,0,0,0,14,15.29a21.61,21.61,0,0,0,2.13,3.65C17.17,20.22,19.09,19.27,19.21,21.37Z" style="fill: #fff"/>
          <path d="M41,21.24A9.59,9.59,0,0,0,48,14s-3.65-.66-8.77,4.82c0,0-.7,1.78.77,1.53a17.6,17.6,0,0,1,6.14-5.24A21.43,21.43,0,0,1,44,18.8C43,20.08,41.11,19.13,41,21.24Z" style="fill: #fff"/>
        </g>
        <g>
          <path d="M18.35,11.65s.3-4.95,5.37-3C23.72,8.68,19.38,8.79,18.35,11.65Z" style="fill: #fff"/>
          <path d="M21,6.68s-4.56,0-3.9,6.23C17.13,12.91,17.69,8.33,21,6.68Z" style="fill: #fff"/>
          <path d="M18.35,5.3S13.19,7.06,15.54,13C15.54,13,15.75,8.13,18.35,5.3Z" style="fill: #fff"/>
          <path d="M15.5,4.72s-4.85,2.5-2,7.92A10.89,10.89,0,0,1,15.5,4.72Z" style="fill: #fff"/>
          <path d="M11.71,5.3S9.58,8.44,11.79,13C11.79,13,7.17,8.38,11.71,5.3Z" style="fill: #fff"/>
          <path d="M8,7.47a9.55,9.55,0,0,0,2,6.27S5.64,12.07,8,7.47Z" style="fill: #fff"/>
          <path d="M5.54,9.93a9.79,9.79,0,0,0,4.17,5.93S4.86,15.68,5.54,9.93Z" style="fill: #fff"/>
          <path d="M3.43,12.91a12.59,12.59,0,0,0,5,4.58S3.21,17.47,3.43,12.91Z" style="fill: #fff"/>
          <path d="M2.26,16.77A10.63,10.63,0,0,0,8,19.53S3.64,21.51,2.26,16.77Z" style="fill: #fff"/>
          <path d="M1.47,19.94a12.18,12.18,0,0,0,6.12,1.53S3.08,23.72,1.47,19.94Z" style="fill: #fff"/>
          <path d="M1.47,22.81a9.6,9.6,0,0,0,6.19,0S4.47,26.59,1.47,22.81Z" style="fill: #fff"/>
          <path d="M2.22,25.5a11.72,11.72,0,0,0,5.37-.68S5.31,28.24,2.22,25.5Z" style="fill: #fff"/>
          <path d="M2.22,28.08S6,29.33,7,27C7,27,2.88,28.06,2.22,28.08Z" style="fill: #fff"/>
          <path d="M8,27.7s-4,1.35-2.55,4.67c0,0,1.1-3.55,2.55-4.58" style="fill: #fff"/>
          <path d="M9.44,28.28S4.79,30.67,8,34.18C8,34.18,7.07,29.79,9.44,28.28Z" style="fill: #fff"/>
          <path d="M10.06,29.29s-2.56,3.8.62,6.15A14.08,14.08,0,0,1,10.06,29.29Z" style="fill: #fff"/>
          <path d="M13.93,35.58s-3.69-1.36-2.22-5.87C11.71,29.71,11.83,33.64,13.93,35.58Z" style="fill: #fff"/>
          <path d="M13,30s-.27,5.25,4.62,4.15A7.78,7.78,0,0,1,13,30Z" style="fill: #fff"/>
          <path d="M19,31S16.62,34,14.35,29.91C14.35,29.91,15.32,30.94,19,31Z" style="fill: #fff"/>
          <path d="M15.32,29.48s3.46,1.38,3.69-1.2Z" style="fill: #fff"/>
          <path d="M18.18,25.56,16.1,28A2,2,0,0,0,18.18,25.56Z" style="fill: #fff"/>
          <path d="M41.65,11.65s-.3-4.95-5.37-3C36.28,8.68,40.62,8.79,41.65,11.65Z" style="fill: #fff"/>
          <path d="M39,6.68s4.56,0,3.9,6.23C42.87,12.91,42.3,8.33,39,6.68Z" style="fill: #fff"/>
          <path d="M41.65,5.3S46.81,7.06,44.46,13C44.46,13,44.25,8.13,41.65,5.3Z" style="fill: #fff"/>
          <path d="M44.5,4.72s4.84,2.5,2,7.92A10.89,10.89,0,0,0,44.5,4.72Z" style="fill: #fff"/>
          <path d="M48.29,5.3s2.13,3.14-.08,7.74C48.21,13,52.83,8.38,48.29,5.3Z" style="fill: #fff"/>
          <path d="M52,7.47A9.53,9.53,0,0,1,50,13.74S54.36,12.07,52,7.47Z" style="fill: #fff"/>
          <path d="M54.46,9.93a9.79,9.79,0,0,1-4.17,5.93S55.14,15.68,54.46,9.93Z" style="fill: #fff"/>
          <path d="M56.56,12.91a12.52,12.52,0,0,1-5,4.58S56.79,17.47,56.56,12.91Z" style="fill: #fff"/>
          <path d="M57.74,16.77A10.63,10.63,0,0,1,52,19.53S56.36,21.51,57.74,16.77Z" style="fill: #fff"/>
          <path d="M58.52,19.94a12.12,12.12,0,0,1-6.11,1.53S56.92,23.72,58.52,19.94Z" style="fill: #fff"/>
          <path d="M58.52,22.81a9.57,9.57,0,0,1-6.18,0S55.53,26.59,58.52,22.81Z" style="fill: #fff"/>
          <path d="M57.78,25.5a11.72,11.72,0,0,1-5.37-.68S54.69,28.24,57.78,25.5Z" style="fill: #fff"/>
          <path d="M57.78,28.08S54,29.33,53,27C53,27,57.12,28.06,57.78,28.08Z" style="fill: #fff"/>
          <path d="M52,27.7s4,1.35,2.55,4.67c0,0-1.1-3.55-2.55-4.58" style="fill: #fff"/>
          <path d="M50.56,28.28s4.65,2.39,1.43,5.9C52,34.18,52.93,29.79,50.56,28.28Z" style="fill: #fff"/>
          <path d="M49.94,29.29s2.56,3.8-.62,6.15A14.25,14.25,0,0,0,49.94,29.29Z" style="fill: #fff"/>
          <path d="M46.06,35.58s3.7-1.36,2.23-5.87C48.29,29.71,48.17,33.64,46.06,35.58Z" style="fill: #fff"/>
          <path d="M47,30s.27,5.25-4.62,4.15A7.78,7.78,0,0,0,47,30Z" style="fill: #fff"/>
          <path d="M41,31s2.39,3.05,4.66-1.06C45.65,29.91,44.68,30.94,41,31Z" style="fill: #fff"/>
          <path d="M44.68,29.48s-3.46,1.38-3.69-1.2Z" style="fill: #fff"/>
          <path d="M41.81,25.56,43.9,28A2,2,0,0,1,41.81,25.56Z" style="fill: #fff"/>
        </g>
      </g>
    </g>
  </g>
</svg>
