<svg viewBox="0 0 46.64 50.51" xmlns="http://www.w3.org/2000/svg">
         <path d="m26.91 50.51v-11.87h1.39l-.5-1.64h-9.08l-.51 1.66h1.52v11.85h-19.73v-11.87h2.93l8.83-26.77h-1.82v-11.87h27.18v11.87h-2.3l8.83 26.77h3v11.87zm-2.6-23.74-1.06-3.22-1.08 3.22z" class="cjd-border" fill="#525a6f"></path>
         <path d="m28.43 49v-8.84h2l-1.53-4.69h-11.32l-1.52 4.69h2.16v8.84h-16.7v-8.84h2.55l9.86-29.81h-2.48v-8.83h24.15v8.83h-2.94l9.86 29.81h2.6v8.84zm-2-20.7-3.2-9.73-3.23 9.72z" class="cjd-stroke" fill="#fff"></path>
         <path d="m41.39 41.68-10.9-32.85h3.6v-5.83h-21.09v5.83h3.1l-10.91 32.85h-2.19v5.79h13.7v-5.79h-2.81l2.56-7.68h13.61l2.57 7.73h-2.63v5.79h13.61v-5.84zm-23.58-11.87 5.48-16.25 5.35 16.25z" class="cjd-fill" fill="#8089a2"></path>
      </svg>