<svg viewBox="0 0 39.33 50.51" xmlns="http://www.w3.org/2000/svg">
         <path d="m0 50.51v-11.87h3v-26.77h-3v-11.87h31.08l8.25 8.38v12.77l-3.19 3.19 3.19 3.19v14.61l-8.25 8.37zm23.77-11.87 1.35-1.28v-5.76l-1.38-1.38h-6.49v8.42zm0-20.15 1.36-1.29v-4l-1.35-1.3h-6.53v6.62z" class="cjd-border" fill="#525a6f"></path>
         <path d="m1.52 49v-8.84h3v-29.81h-3v-8.83h28.9l7.39 7.48v11.5l-3.81 3.84 3.84 3.84v13.33l-7.42 7.49zm22.89-8.83 2.22-2.17v-7l-2.23-2.3h-8.67v11.46zm0-20.15 2.22-2.16v-5.34l-2.21-2.17h-8.69v9.65z" class="cjd-stroke" fill="#fff"></path>
         <path d="m36.29 9.66-6.53-6.66h-26.76v5.83h3v32.85h-3v5.79h26.76l6.53-6.6v-12l-4.48-4.49 4.48-4.49zm-8.14 29-3.09 3h-10.85v-14.47h10.85l3.09 3.13zm0-20.16-3.09 3h-10.85v-12.67h10.85l3.09 3z" class="cjd-fill" fill="#8089a2"></path>
</svg>