<svg viewBox="0 0 39.33 50.51" xmlns="http://www.w3.org/2000/svg">
         <path d="m0 50.51v-11.87h2.9v-26.77h-2.9v-11.87h31l8.34 8.37v33.79l-8.34 8.35zm23.72-11.87 1.4-1.3v-24.14l-1.4-1.33h-6.47v26.77z" class="cjd-border" fill="#525a6f"></path>
         <path d="m1.52 49v-8.84h2.9v-29.81h-2.9v-8.83h28.82l7.47 7.48v32.51l-7.47 7.49zm22.83-8.83 2.28-2.17v-25.47l-2.27-2.18h-8.63v29.81z" class="cjd-stroke" fill="#fff"></path>
         <path d="m29.69 3h-26.69v5.83h2.93v32.85h-2.93v5.79h26.69l6.6-6.6v-31.21zm-1.54 35.66-3.16 3h-10.78v-32.83h10.79l3.16 3z" class="cjd-fill" fill="#8089a2"></path>
</svg>