<svg viewBox="0 0 37.4 50.51" xmlns="http://www.w3.org/2000/svg">
         <path d="m0 50.51v-11.87h2.9v-26.77h-2.9v-11.87h37.4v13.8h-12.01v-1.93h-8v7.45h1.38v-2.07h11.87v15.87h-11.87v-1.93h-1.38v7.45h5.66v11.87z" class="cjd-border" fill="#525a6f"></path>
         <path d="m1.52 48.99v-8.83h2.9v-29.81h-2.9v-8.83h34.36v10.76h-8.97v-1.93h-11.04v10.49h4.42v-2.07h8.83v12.83h-8.83v-1.93h-4.42v10.49h5.66v8.83z" class="cjd-stroke" fill="#fff"></path>
         <path d="m3.08 47.42v-5.7h2.92v-32.91h-2.92v-5.7h31.13v7.69h-5.77v-1.99h-14.18v13.6h7.48v-1.99h5.7v9.69h-5.7v-2h-7.48v13.61h5.7v5.7z" class="cjd-fill" fill="#8089a2"></path>
</svg>