<svg viewBox="0 0 38.5 50.37" xmlns="http://www.w3.org/2000/svg">
         <path d="m8.35 50.37-8.35-8.26v-33.88l8.28-8.23h21.82l8.4 8.3v11.43h-14.49v-6.62l-1.27-1.24h-7.12l-1.27 1.26v24.15l1.27 1.22h7.12l1.27-1.2v-4.32h-3.59v-10.9h18.08v20.03l-8.4 8.26z" class="cjd-border" fill="#525a6f"></path>
         <path d="m8.99 48.85-7.47-7.39v-32.58l7.4-7.36h20.54l7.52 7.43v9.27h-11.45v-5.76l-2.14-2.11h-8.4l-2.16 2.11v25.49l2.16 2.07h8.4l2.14-2.07v-6.49h-3.59v-7.86h15.04v17.86l-7.52 7.39z" class="cjd-stroke" fill="#fff"></path>
         <path d="m3.09 40.81v-31.28l6.48-6.48h19.24l6.56 6.55v7.06h-8.27v-4.85l-3.06-3.06h-9.69l-3.07 3.06v26.79l3.07 3.06h9.69l3.06-3.06v-8.69h-3.63v-4.78h11.9v15.68l-6.56 6.55h-19.17z" class="cjd-fill" fill="#8089a2"></path>
</svg>