<svg viewBox="0 0 43.75 50.37" xmlns="http://www.w3.org/2000/svg">
         <path d="m23.32 50.37v-11.87h3.04v-7.59h-9.11v7.59h3.04v11.87h-20.29v-11.87h2.9v-26.63h-2.9v-11.87h20.29v11.87h-3.04v6.07h9.11v-6.07h-3.04v-11.87h20.43v11.87h-3.04v26.63h3.04v11.87z" class="cjd-border" fill="#525a6f"></path>
         <path d="m24.84 48.85v-8.83h3.04v-10.63h-12.15v10.63h3.04v8.83h-17.25v-8.83h2.9v-29.67h-2.9v-8.83h17.25v8.83h-3.04v9.11h12.15v-9.11h-3.04v-8.83h17.39v8.83h-3.04v29.67h3.04v8.83z" class="cjd-stroke" fill="#fff"></path>
         <path d="m2.97 47.36v-5.7h2.92v-32.91h-2.92v-5.7h14.18v5.7h-2.99v12.32h15.17v-12.32h-2.99v-5.7h14.25v5.7h-2.99v32.91h2.99v5.7h-14.25v-5.7h2.99v-13.82h-15.17v13.82h2.99v5.7z" class="cjd-fill" fill="#8089a2"></path>
</svg>