<svg viewBox="0 0 37.81 51.06" xmlns="http://www.w3.org/2000/svg">
         <path d="m8.44 51.06-8.44-8.38v-13.01h14.35v7.55l1.29 1.28h3.48l1.3-1.21v-25.42h-4.14v-11.87h21.53v11.87h-2.9v30.81l-8.51 8.38z" class="cjd-border" fill="#525a6f"></path>
         <path d="m9.08 49.54-7.56-7.51v-10.84h11.31v6.69l2.17 2.14h4.76l2.18-2.07v-27.6h-4.14v-8.83h18.49v8.83h-2.89v31.68l-7.65 7.51z" class="cjd-stroke" fill="#fff"></path>
         <path d="m3.1 41.38v-8.55h8.12v5.7l3.13 3.13h6.06l3.06-3.06v-29.85h-4.2v-5.7h15.46v5.7h-2.99v32.63l-6.63 6.55h-15.39z" class="cjd-fill" fill="#8089a2"></path>
      </svg>