<svg viewBox="0 0 46.78 50.37" xmlns="http://www.w3.org/2000/svg">
         <path d="m22.49 50.37v-11.87h.8l-3.91-3.94-1.99 2.04v1.9h3.03v11.87h-20.42v-11.87h2.9v-26.63h-2.9v-11.87h20.29v11.87h-2.9v5.85l5.8-5.85h-.7v-11.87h24.29v11.87h-4.83l-13.33 13.31 13.33 13.32h4.83v11.87z" class="cjd-border" fill="#525a6f"></path>
         <path d="m24.01 48.85v-8.83h3.05l-7.67-7.71-3.52 3.65v4.06h3.04v8.83h-17.39v-8.83h2.9v-29.67h-2.9v-8.83h17.25v8.83h-2.9v11.15l11.1-11.15h-2.96v-8.83h21.25v8.83h-3.96l-14.9 14.83 14.9 14.84h3.96v8.83z" class="cjd-stroke" fill="#fff"></path>
         <path d="m3.03 47.36v-5.7h2.92v-32.91h-2.92v-5.7h14.18v5.7h-2.99v16.53l16.53-16.53h-5.28v-5.7h18.17v5.7h-2.99l-16.46 16.45 16.46 16.46h2.99v5.7h-18.17v-5.7h5.35l-11.47-11.54-5.13 5.2v6.34h3.06v5.7z" class="cjd-fill" fill="#8089a2"></path>
      </svg>