<svg viewBox="0 0 55.75 50.51" xmlns="http://www.w3.org/2000/svg">
         <path d="m35.47 50.51v-11.87h2.89v-10.64l-10.48 17.49-10.49-17.49v10.64h2.9v11.87h-20.29v-11.87h2.9v-26.77h-2.9v-11.87h15.84l11.97 19.86 11.92-19.86h16.02v11.87h-3.03v26.77h3.03v11.87z" class="cjd-border" fill="#525a6f"></path>
         <path d="m36.98 48.99v-8.83h2.9v-17.84l-12 20.12-12.01-20.12v17.84h2.9v8.83h-17.25v-8.83h2.9v-29.81h-2.9v-8.83h13.43l12.87 21.33 12.8-21.33h13.61v8.83h-3.03v29.81h3.03v8.83z" class="cjd-stroke" fill="#fff"></path>
         <path d="m3.02 47.44v-5.7h2.93v-32.92h-2.93v-5.7h11.05l13.75 22.8 13.68-22.8h11.19v5.7h-3.07v32.92h3.07v5.7h-14.25v-5.7h2.99v-25.08l-13.61 22.73-13.61-22.73v25.08h2.99v5.7z" class="cjd-fill" fill="#8089a2"></path>
</svg>