<svg viewBox="0 0 47.2 50.51" xmlns="http://www.w3.org/2000/svg">
         <path d="m30.43 50.51-13.18-21.84v9.97h3.04v11.87h-20.29v-11.87h2.9v-26.77h-2.9v-11.87h16.23l13.58 22.48v-10.61h-3.04v-11.87h20.43v11.87h-3.04v26.77h3.04v11.87z" class="cjd-border" fill="#525a6f"></path>
         <path d="m31.31 48.99-15.58-25.96v17.13h3.04v8.83h-17.25v-8.83h2.9v-29.81h-2.9v-8.83h13.82l15.99 26.61v-17.78h-3.04v-8.83h17.39v8.83h-3.04v29.81h3.04v8.83z" class="cjd-stroke" fill="#fff"></path>
         <path d="m2.98 47.44v-5.7h2.93v-32.92h-2.93v-5.7h11.48l18.45 30.64v-24.94h-3.06v-5.7h14.25v5.7h-3.07v32.92h3.07v5.7h-11.9l-18.03-30.07v24.37h2.99v5.7z" class="cjd-fill" fill="#8089a2"></path>
      </svg>