<svg viewBox="0 0 38.5 50.37" xmlns="http://www.w3.org/2000/svg">
         <path d="m8.39 50.37-8.39-8.47v-33.83l8.43-8.07h21.86l8.21 8.1v33.77l-8.17 8.5zm15.9-13.11v-24.15h-10.08v24.15z" class="cjd-border" fill="#525a6f"></path>
         <path d="m9 48.85-7.48-7.59v-32.52l7.54-7.22h20.58l7.36 7.23v32.5l-7.32 7.6zm16.1-10.07.67-.74v-26l-.54-.49h-11.86l-.67.56v25.89l.79.81z" class="cjd-stroke" fill="#fff"></path>
         <path d="m29 3h-19.31l-6.69 6.4v31.21l6.65 6.72h19.35l6.47-6.72v-31.21zm-1.68 35.68-1.53 1.62h-12.94l-1.67-1.68v-27.14l1.57-1.41h13.15l1.42 1.35z" class="cjd-fill" fill="#8089a2"></path>
      </svg>