<svg viewBox="0 0 39.33 50.37" xmlns="http://www.w3.org/2000/svg">
         <path d="m0 50.37v-11.87h2.9v-26.77h-2.9v-11.73h31l8.38 8.23v14.93l-8.38 8.3h-13.75v7h2.9v11.91zm23.56-30.64 1.44-1.4v-5.33l-1.32-1.3h-6.43v8z" class="cjd-border" fill="#525a6f"></path>
         <path d="m1.52 48.85v-8.85h2.9v-29.79h-2.9v-8.69h28.79l7.5 7.37v13.62l-7.49 7.49h-14.59v10h2.9v8.83zm22.71-27.6 2.27-2.25v-6.61l-2.18-2.18h-8.59v11z" class="cjd-stroke" fill="#fff"></path>
         <path d="m29.67 3h-26.67v5.69h2.93v32.85h-2.93v5.79h14.11v-5.79h-2.9v-13.11h15.46l6.62-6.56v-12.33zm-1.67 16.59-3.1 3.18h-10.69v-14.08h10.79l3 3.06z" class="cjd-fill" fill="#8089a2"></path>
      </svg>