<svg viewBox="0 0 43.79 50.37" xmlns="http://www.w3.org/2000/svg">
         <path d="m8.21 50.37-8.21-8.37v-33.76l8.23-8.24h21.88l8.39 8.23v27.59l5.29 5.3-8.07 8.05-2.2-2.24-3.47 3.44zm14.49-11.87 1.19-1.17-8.26-8.23 8.15-8.27.37.32v-8.09l-1.38-1.33h-7.27l-1.29 1.33v24.16l1.28 1.28z" class="cjd-border" fill="#525a6f"></path>
         <path d="m8.86 48.85-7.34-7.46v-32.5l7.35-7.37h20.6l7.53 7.37v27.58l4.62 4.65-5.88 5.88-2.21-2.23-4.13 4.08zm14.48-8.85 2.33-2.21v-1l-7.82-7.76 5.92-6 1.9 1.97v-12.59l-2.26-2.2h-8.55l-2.16 2.2v25.47l2.16 2.12z" class="cjd-stroke" fill="#fff"></path>
         <path d="m35.47 37.11v-27.57l-6.65-6.54h-19.3l-6.52 6.54v31.21l6.48 6.58h19.27l4.78-4.79 2.21 2.21 3.67-3.64zm-8.28-8.33-3.46-3.49-3.73 3.77 7.15 7.13v2.28l-3.15 3.07h-9.78l-3-3v-26.79l3-3.06h9.83l3.14 3.06v17z" class="cjd-fill" fill="#8089a2"></path>
      </svg>