<svg viewBox="0 0 42.37 50.37" xmlns="http://www.w3.org/2000/svg">
         <path d="m25.12 50.37v-18.84l-1.37-1.31h-6.5v8.28h3v11.87h-20.25v-11.87h2.9v-26.77h-2.9v-11.73h31.09l8.24 8.25v12.62l-3.23 3.28 3.23 3.28v11.07h3v11.87zm-1.46-32 1.46-1.37v-4l-1.36-1.28h-6.51v6.62z" class="cjd-border" fill="#525a6f"></path>
         <path d="m26.63 48.85v-18l-2.25-2.15h-8.65v11.3h3v8.83h-17.21v-8.83h2.9v-29.79h-2.9v-8.69h28.92l7.37 7.37v11.34l-3.81 3.92 3.86 3.92v11.93h3v8.83zm-2.33-29 2.33-2.22v-5.3l-2.24-2.14h-8.66v9.66z" class="cjd-stroke" fill="#fff"></path>
         <path d="m36.29 41.54v-12.83l-4.49-4.56 4.49-4.56v-10l-6.5-6.59h-26.79v5.69h2.93v32.85h-2.93v5.79h14.25v-5.79h-3v-14.35h10.75l3.14 3v17.14h11.19v-5.79zm-8.14-23.24-3.21 3.09h-10.73v-12.7h10.79l3.14 3v6.61z" class="cjd-fill" fill="#8089a2"></path>
      </svg>