<svg viewBox="0 0 38.64 50.51" xmlns="http://www.w3.org/2000/svg">
         <path d="m8.27 50.51-8.27-8.4v-9.82h14.35v5.03l1.29 1.32h7.2l1.31-1.34v-4.6l-1.36-1.37h-14.37l-8.42-8.44v-14.57l8.35-8.32h21.83l8.46 8.47v10.02h-14.49v-5.25l-1.36-1.37h-7.17l-1.27 1.27v4.93l1.28 1.25h14.56l8.45 8.54v14.25l-8.31 8.4z" class="cjd-border" fill="#525a6f"></path>
         <path d="m8.92 48.99-7.4-7.52v-7.66h11.31v4.16l2.16 2.19h8.53l2.15-2.25v-5.85l-2.22-2.25h-14.38l-7.55-7.57v-13.27l7.47-7.45h20.54l7.59 7.6v7.85h-11.45v-4.36l-2.22-2.26h-8.46l-2.16 2.13v6.25l2.16 2.11h14.54l7.59 7.66v12.97l-7.44 7.52z" class="cjd-stroke" fill="#fff"></path>
         <path d="m3.09 40.83v-5.49h8.19v3.28l3.07 3.06h9.83l3.06-3.13v-7.13l-3.13-3.2h-14.4l-6.62-6.63v-11.97l6.55-6.56h19.24l6.63 6.7v5.63h-8.27v-3.42l-3.13-3.21h-9.76l-3.07 3.07v7.55l3.07 3.06h14.53l6.63 6.7v11.69l-6.49 6.55h-19.45z" class="cjd-fill" fill="#8089a2"></path>
      </svg>