<svg viewBox="0 0 44.44 50.51" xmlns="http://www.w3.org/2000/svg">
         <path d="m11.21 50.51-8.31-8.46v-30.18h-2.9v-11.87h20.29v11.87h-3.04v25.46l1.27 1.31h7.15l1.38-1.37v-25.4h-2.9v-11.87h20.29v11.87h-3.04v30.25l-8.34 8.39z" class="cjd-border" fill="#525a6f"></path>
         <path d="m11.87 48.99-7.45-7.59v-31.05h-2.9v-8.83h17.25v8.83h-3.04v27.62l2.14 2.19h8.46l2.24-2.26v-27.55h-2.9v-8.83h17.25v8.83h-3.04v31.13l-7.48 7.51z" class="cjd-stroke" fill="#fff"></path>
         <path d="m2.97 8.76v-5.7h14.18v5.7h-2.99v29.86l3.06 3.06h9.76l3.14-3.13v-29.79h-3v-5.7h14.18v5.7h-2.99v32.07l-6.56 6.55h-19.23l-6.63-6.62v-32z" class="cjd-fill" fill="#8089a2"></path>
      </svg>