<svg viewBox="0 0 49.13 50.51" xmlns="http://www.w3.org/2000/svg">
         <path d="m10.76 50.51v-11.87h1.9l-8.88-26.77h-3.78v-11.87h20.7v11.87h-1.57l5.01 15.1 5.05-15.1h-1.45v-11.87h21.39v11.87h-4.57l-8.89 26.77h2.28v11.87z" class="cjd-border" fill="#525a6f"></path>
         <path d="m12.28 48.99v-8.83h2.56l-9.93-29.81h-3.39v-8.83h17.66v8.83h-2.22l7.18 21.62 7.22-21.62h-2.1v-8.83h18.35v8.83h-4.18l-9.93 29.81h2.93v8.83z" class="cjd-stroke" fill="#fff"></path>
         <path d="m2.97 8.76v-5.7h14.61v5.7h-2.78l9.33 28.15 9.41-28.15h-2.71v-5.7h15.1v5.7h-3.63l-10.97 32.92h3.56v5.7h-21.09v-5.7h3.21l-10.98-32.92z" class="cjd-fill" fill="#8089a2"></path>
      </svg>