<svg viewBox="0 0 76.04 48.48" xmlns="http://www.w3.org/2000/svg">
         <path d="m40.01 48.48v-11.39h1.39l-3.42-10.23-3.42 10.23h1.6v11.39h-25.3v-11.39h1.68l-8.53-25.7h-4.01v-11.39h20.53v11.39h-1.78l4.81 14.46 4.84-14.46h-1.51v-11.39h22.12v11.39h-1.45l4.84 14.46 4.8-14.46h-1.43v-11.39h20.27v11.39h-4.09l-8.53 25.7h1.76v11.39z" class="cjd-border" fill="#525a6f"></path>
         <path d="m41.46 47.03v-8.48h2.02l-5.5-16.47-5.51 16.47h2.24v8.48h-22.39v-8.48h2.3l-9.53-28.61h-3.63v-8.48h17.62v8.48h-2.41l6.88 20.7 6.94-20.7h-2.14v-8.48h19.21v8.48h-2.09l6.93 20.7 6.89-20.7h-2.06v-8.48h17.35v8.48h-3.72l-9.53 28.61h2.39v8.48z" class="cjd-stroke" fill="#fff"></path>
         <path d="m2.89 8.41v-5.47h14.71v5.47h-3.01l8.96 26.95 9.02-26.95h-2.73v-5.47h16.21v5.47h-2.67l9.03 26.95 8.96-26.95h-2.67v-5.47h14.36v5.47h-3.28l-10.53 31.6h2.87v5.47h-19.22v-5.47h2.67l-7.59-22.71-7.59 22.71h2.73v5.47h-19.29v-5.47h2.88l-10.54-31.6z" class="cjd-fill" fill="#8089a2"></path>
      </svg>