<svg viewBox="0 0 55.34 50.51" xmlns="http://www.w3.org/2000/svg">
         <path d="m31.6 50.51v-11.87h-.07l-3.59-3.63-3.65 3.66v11.84h-24.29v-11.87h4.84l13.32-13.38-13.39-13.39h-4.77v-11.87h24.29v11.84l3.69 3.65 3.62-3.57v-11.92h23.74v11.87h-4.3l-13.27 13.39 13.21 13.38h4.36v11.87z" class="cjd-border" fill="#525a6f"></path>
         <path d="m33.12 48.99v-8.83h2.17l-7.35-7.4-7.35 7.4h2.18v8.83h-21.25v-8.83h3.97l14.89-14.9-14.96-14.91h-3.9v-8.83h21.25v8.83h-2.17l7.34 7.34 7.34-7.34h-2.16v-8.83h20.7v8.83h-3.43l-14.83 14.91 14.76 14.9h3.5v8.83z" class="cjd-stroke" fill="#fff"></path>
         <path d="m3.07 47.38v-5.7h3.07l16.45-16.46-16.52-16.46h-3v-5.7h18.1v5.7h-4.35l11.12 11.12 11.11-11.12h-4.34v-5.7h17.52v5.7h-2.49l-16.39 16.46 16.32 16.46h2.56v5.7h-17.52v-5.7h4.34l-11.11-11.18-11.12 11.18h4.35v5.7z" class="cjd-fill" fill="#8089a2"></path>
      </svg>