<svg viewBox="0 0 55.34 51.06" xmlns="http://www.w3.org/2000/svg">
         <path d="m17.8 51.06v-12.42h3.04v-10.76l-16.12-16.01h-4.72v-11.87h24.29v11.89l3.65 3.6 3.66-3.62v-11.87h23.74v11.87h-4.14l-16.01 16.02v10.75h2.9v12.42z" class="cjd-border" fill="#525a6f"></path>
         <path d="m19.32 49.54v-9.38h3.04v-12.93l-16.99-16.88h-3.85v-8.83h21.25v8.83h-2.22l7.34 7.34 7.34-7.34h-2.11v-8.83h20.7v8.83h-3.27l-16.88 16.88v12.93h2.9v9.38z" class="cjd-stroke" fill="#fff"></path>
         <path d="m3.02 8.84v-5.7h18.1v5.7h-4.34l11.11 11.12 11.12-11.12h-4.35v-5.7h17.53v5.7h-2.28l-17.89 17.74v15.18h3v6.27h-14.18v-6.27h2.99v-15.18l-17.81-17.74z" class="cjd-fill" fill="#8089a2"></path>
      </svg>