<svg xmlns="http://www.w3.org/2000/svg" id="Capa_1" data-name="Capa 1" viewBox="0 0 174.24 142.95"><defs><style>.cls-1{fill:#404041;}</style></defs><path class="cls-1" d="M174.24,109.54a49.11,49.11,0,0,1-49,49A48.38,48.38,0,0,1,109.68,156a71.69,71.69,0,0,0,41.45-64.88,70.45,70.45,0,0,0-4.92-25.91A49.07,49.07,0,0,1,174.24,109.54Z" transform="translate(0 -15.65)"/><path class="cls-1" d="M138.49,62.33a71.63,71.63,0,0,0-31-36.94h0a71.3,71.3,0,0,0-94.7,21.13,71.19,71.19,0,0,0,2,83.95,69.2,69.2,0,0,0,13.93,13.74,68.48,68.48,0,0,0,15,8.73h0a71.17,71.17,0,0,0,57.35-.78,69.1,69.1,0,0,0,10.89-6.2,71.74,71.74,0,0,0,30.69-51.51v0c.23-2.39.37-4.82.37-7.26A70.39,70.39,0,0,0,138.49,62.33Z" transform="translate(0 -15.65)"/></svg>