<svg xmlns="http://www.w3.org/2000/svg" id="_x33_0" enable-background="new 0 0 64 64" height="512" viewBox="0 0 64 64" width="512" fill="#404041"><path d="m45.402 3.352-2.27 4.161 4.383 2.63-1.029 1.715-4.313-2.588-1.178 2.161 4.52 2.712-1.029 1.715-4.449-2.669-1.178 2.161 4.657 2.794-1.029 1.715-4.586-2.752-1.178 2.161 4.794 2.876-1.029 1.715-4.723-2.834-1.383 2.535c.378.363.618.873.618 1.44v2h1c1.654 0 3 1.346 3 3v12c0 2.757-2.243 5-5 5h3v2h-4v2h4v2h-4v2h4v2h-4v4h12v-25.92c0-2.836.718-5.65 2.076-8.141l9.565-17.536z"/><path d="m29 29h-1c-.551 0-1 .448-1 1v12c0 1.654 1.346 3 3 3h4c1.654 0 3-1.346 3-3v-12c0-.552-.449-1-1-1h-1v4c0 1.103-.897 2-2 2h-2c-1.103 0-2-.897-2-2zm6 10v2h-6v-2z"/><path d="m25 42v-12c0-1.654 1.346-3 3-3h1v-2c0-.085.015-.166.025-.249l-3.51 2.106-1.029-1.715 4.52-2.712-1.178-2.16-4.312 2.587-1.029-1.715 4.383-2.63-1.178-2.161-4.175 2.505-1.029-1.715 4.246-2.547-1.178-2.161-4.038 2.423-1.029-1.715 4.109-2.465-1.178-2.161-3.901 2.341-1.029-1.715 3.972-2.383-1.859-3.408-11.244 6.053 9.565 17.536c1.358 2.491 2.076 5.305 2.076 8.141v25.92h12v-2h-4v-2h4v-2h-4v-2h4v-2h-4v-2h4v-2h-1c-2.757 0-5-2.243-5-5z"/><path d="m31 25h2.001v8h-2.001z"/></svg>