<svg xmlns="http://www.w3.org/2000/svg" xmlns:xlink="http://www.w3.org/1999/xlink" viewBox="0 0 239.72 102.75"><defs><style>.cls-1{fill:none;}.cls-2{clip-path:url(#clip-path);}.cls-3,.cls-4{fill:#fff;stroke:#231f20;stroke-miterlimit:2.61;fill-rule:evenodd;}.cls-3{stroke-width:2px;}</style><clipPath id="clip-path" transform="translate(0.75 1)"><path class="cls-1" d="M110.86,98C60.86,95,27.42,69.75,0,73.21,15.32,56.06,28,16.69,38.82,10.34c14-6.27,40-8.15,80.29-10.34,40.31,2.19,66.3,4.07,80.29,10.34,10.8,6.35,23.5,45.72,38.83,62.87-24.75-3.13-54.42,17.15-96.7,23.31-4.57.66-9.29,1.16-14.17,1.45Z"/></clipPath></defs><g id="Layer_2" data-name="Layer 2"><g id="Layer_1-2" data-name="Layer 1"><g id="collar_hood" data-name="collar hood"><g class="cls-2"><path class="cls-3" d="M110.86,98C60.86,95,27.42,69.75,0,73.21,15.32,56.06,28,16.69,38.82,10.34c14-6.27,40-8.15,80.29-10.34,40.31,2.19,66.3,4.07,80.29,10.34,10.8,6.35,23.5,45.72,38.83,62.87-24.75-3.13-54.42,17.15-96.7,23.31-4.57.66-9.29,1.16-14.17,1.45Z" transform="translate(0.75 1)"/><path class="cls-4" d="M38.82,17.58c53.51-13.83,107-14.52,160.58,0C208.47,32.37,126.61,98,126.61,98c-6.11,4.52-9.56,4.35-16.11-.48C110.5,97.5,25.6,28.71,38.82,17.58Z" transform="translate(0.75 1)"/></g></g></g></g></svg>