<svg xmlns="http://www.w3.org/2000/svg" id="Layer_1" data-name="Layer 1" viewBox="0 0 51.16 73.87"><path d="M46.06,7.69a1.36,1.36,0,0,0,1.9-.4L48.82,6A1.39,1.39,0,0,0,48.37,4L47,3.17a1.37,1.37,0,0,0-1.9.41L44.25,5a1.3,1.3,0,0,0,.48,1.87Zm-.78-1.81a.26.26,0,0,1-.08-.38l.86-1.33c.09-.14.24-.17.43,0L47.82,5a.26.26,0,0,1,.08.38l0,0L47,6.66a.26.26,0,0,1-.38.08l-1.33-.86Z" transform="translate(-0.47 -0.25)" fill="#f2f2f2" stroke="#404041" stroke-miterlimit="10" stroke-width="0.5"/><path d="M29.84,27.22l.6-.92c.42.2,1.27,1.13,1.67.44s-.73-1.06-1.08-1.36l.59-.91c.43.2,1.28,1.13,1.68.43s-.73-1-1.08-1.35l.59-.92c.42.2,1.28,1.13,1.68.43s-.73-1-1.08-1.35l.59-.92c.42.21,1.27,1.13,1.68.44S35,20.18,34.6,19.88L36,17.75a6.81,6.81,0,0,0,3.71,2.32l-.82,1.26c-.42-.2-1.27-1.12-1.67-.43s.72,1.05,1.08,1.35l-.6.92C37.25,23,36.4,22,36,22.74s.72,1.05,1.08,1.35l-.59.92c-.43-.2-1.28-1.13-1.68-.43s.73,1.05,1.08,1.35l-.59.91c-.42-.2-1.28-1.13-1.68-.43s.73,1.05,1.08,1.35l-.59.92c-.42-.2-1.28-1.13-1.68-.43s.73,1.05,1.08,1.35c-.42.58.56,1.22.92.59l6.36-9.82a4.62,4.62,0,0,0,5.94-4.24s.16-4.27.15-4.28a7.87,7.87,0,0,1,2.33-2.38c2.92-2,2.87-6.58,0-8.15A4.93,4.93,0,0,0,41.68,4.6a7.66,7.66,0,0,1-1.35,3.3L36.72,9.65a4.63,4.63,0,0,0-1.48,7.22l-6.32,9.76C28.5,27.21,29.48,27.85,29.84,27.22Zm5-9.78L27.8,28.36c-.42.58.56,1.22.92.59l.59-.92c.43.21,1.28,1.13,1.68.44s-.73-1-1.08-1.35L31.25,25m3.08,3.3L33,30.41c-.42-.2-1.28-1.13-1.68-.43S32,31,32.39,31.33c-.42.58.56,1.22.92.59l7.11-11m-6.67-1.77L26.68,30.09c-.42.58.56,1.22.92.6l.59-.92c.42.2,1.28,1.13,1.68.43s-.73-1.05-1.08-1.35l1.34-2.07m3.08,3.29-1.34,2.07c-.43-.2-1.28-1.13-1.68-.43s.73,1,1.08,1.35c-.42.59.56,1.22.92.6l7.11-11m-6.68-1.77L25.56,31.82c-.42.59.56,1.22.92.6l.59-.92c.42.2,1.28,1.13,1.68.43s-.73-1.05-1.08-1.35L29,28.51m3.08,3.29-1.35,2.08c-.42-.21-1.27-1.13-1.67-.44s.73,1.05,1.08,1.35c-.42.59.56,1.22.92.6l7.11-11m-6.75-1.66L24.36,33.67c-.42.58.56,1.22.92.59l.6-.91c.42.2,1.27,1.13,1.67.43s-.72-1.05-1.08-1.35l1.34-2.07m3.08,3.29-1.34,2.07c-.42-.2-1.27-1.13-1.68-.43s.73,1.05,1.08,1.35c-.42.58.56,1.22.92.6l7.11-11m-6.67-1.77L23.24,35.4c-.42.58.56,1.22.92.6l.6-.92c.42.2,1.27,1.13,1.67.43s-.73-1-1.08-1.35l1.34-2.07m3.08,3.29-1.34,2.08c-.42-.21-1.28-1.13-1.68-.44s.73,1,1.08,1.35c-.42.59.56,1.22.92.6l7.11-11m-6.67-1.77L22.12,37.13c-.42.59.56,1.22.92.6l.59-.92c.43.2,1.28,1.13,1.68.43s-.73-1.05-1.08-1.35l1.34-2.07m3.08,3.29-1.34,2.08c-.42-.2-1.28-1.13-1.68-.44s.73,1.06,1.08,1.36c-.42.58.56,1.22.92.59l7.11-11M28.07,28,21,38.87c-.42.58.56,1.22.92.59l.59-.92c.42.2,1.28,1.13,1.68.43s-.73-1-1.08-1.35l1.34-2.07m3.08,3.3-1.34,2.07c-.42-.2-1.28-1.13-1.68-.43s.73,1,1.08,1.35c-.42.58.56,1.22.92.59l7.11-11M27,29.68,19.88,40.6c-.42.58.56,1.22.92.59l.59-.92c.42.21,1.28,1.13,1.68.44s-.73-1.05-1.08-1.35l1.34-2.08m3.08,3.3-1.34,2.07c-.43-.2-1.28-1.13-1.68-.43s.73,1.05,1.08,1.35c-.42.58.56,1.22.92.59l7.11-11m-6.68-1.77L18.76,42.33c-.42.58.56,1.22.92.59l.59-.91c.42.2,1.27,1.13,1.68.43s-.73-1-1.08-1.35L22.21,39m3.08,3.3-1.35,2.07c-.42-.2-1.27-1.13-1.67-.43s.72,1,1.08,1.35c-.42.58.56,1.22.92.6l7.1-11M24.7,33.15,17.64,44.06c-.43.58.56,1.22.92.6l.59-.92c.42.2,1.27,1.13,1.67.43s-.72-1.05-1.08-1.35l1.35-2.07M24.16,44l-1.34,2.07c-.42-.2-1.27-1.12-1.67-.43s.72,1,1.08,1.35c-.42.59.56,1.22.92.6l7.1-11m-6.67-1.77L16.52,45.79c-.43.59.56,1.22.92.6l.59-.92c.42.2,1.27,1.13,1.67.43s-.72-1-1.08-1.35L20,42.48M23,45.77,21.7,47.85c-.42-.2-1.27-1.13-1.67-.44s.72,1.06,1.08,1.36c-.43.58.56,1.21.92.59l7.1-11m-6.67-1.77L15.4,47.53c-.43.58.56,1.22.91.59l.6-.92c.42.2,1.27,1.13,1.67.43s-.72-1.05-1.08-1.35l1.34-2.07m3.08,3.3-1.34,2.07c-.42-.2-1.27-1.13-1.67-.43S19.63,50.2,20,50.5c-.43.58.56,1.22.92.59l7.1-11m-6.67-1.77L14.27,49.26c-.42.58.56,1.22.92.59l.6-.92c.42.2,1.27,1.13,1.67.44s-.72-1.06-1.08-1.35l1.34-2.08m3.08,3.3-1.34,2.07c-.42-.2-1.27-1.13-1.67-.43s.72,1,1.08,1.35c-.43.58.56,1.22.91.59l7.11-11m-6.67-1.77L13.15,51c-.42.58.56,1.22.92.59l.6-.91c.42.2,1.27,1.12,1.67.43s-.72-1.05-1.08-1.35l1.34-2.08M19.68,51,18.34,53c-.42-.2-1.27-1.13-1.68-.43s.73,1,1.08,1.35c-.42.58.56,1.22.92.6l7.11-11M19.1,41.81,12,52.72c-.42.58.56,1.22.92.6l.6-.92c.42.2,1.27,1.13,1.67.43s-.73-1-1.08-1.35l1.34-2.07m3.08,3.29-1.34,2.07c-.42-.2-1.28-1.12-1.68-.43s.73,1,1.08,1.35c-.42.59.56,1.22.92.6l7.11-11M18,43.54,10.91,54.45c-.42.59.56,1.22.92.6l.59-.92c.43.2,1.28,1.13,1.68.43s-.73-1.05-1.08-1.35l1.34-2.07m3.08,3.29L16.1,56.51c-.42-.2-1.28-1.13-1.68-.44s.73,1,1.08,1.35c-.42.59.56,1.22.92.6l7.11-11m-6.67-1.77L9.79,56.18c-.42.59.56,1.22.92.6l.59-.92c.42.2,1.28,1.13,1.68.43s-.73-1-1.08-1.35l1.34-2.07m3.08,3.3L15,58.24c-.43-.2-1.28-1.13-1.68-.43s.73,1,1.08,1.35c-.42.58.56,1.22.92.59l7.11-11M15.74,47,8.67,57.92c-.42.58.56,1.22.92.59l.59-.92c.42.2,1.28,1.13,1.68.44s-.73-1.06-1.08-1.36l1.34-2.07m3.08,3.3L13.86,60c-.43-.2-1.28-1.13-1.68-.43s.73,1.05,1.08,1.35c-.42.58.56,1.22.92.59l7.11-11m-6.68-1.77L7.55,59.65c-.42.58.56,1.22.92.59l.59-.92c.42.21,1.27,1.13,1.68.44s-.73-1-1.08-1.35L11,56.33m3.08,3.3L12.73,61.7c-.42-.2-1.27-1.13-1.67-.43s.72,1,1.08,1.35c-.42.58.56,1.22.92.59l7.1-11m-6.67-1.77L6.43,61.38C6,62,7,62.6,7.35,62l.59-.92c.42.2,1.27,1.13,1.67.43s-.72-1.05-1.08-1.35l1.35-2.07M13,61.36l-1.34,2.07c-.42-.2-1.27-1.13-1.67-.43s.72,1,1.08,1.35c-.42.59.56,1.22.92.6L19,54M12.37,52.2,5.31,63.11c-.43.59.56,1.22.91.6l.6-.92c.42.2,1.27,1.13,1.67.43s-.72-1-1.08-1.35L8.76,59.8m3.07,3.29-1.34,2.08C10.07,65,9.22,64,8.82,64.73s.72,1,1.08,1.35c-.43.59.56,1.22.92.6l7.1-11m-6.67-1.77L4.19,64.84c-.43.59.56,1.22.91.6l.6-.92c.42.2,1.27,1.13,1.67.43S6.65,63.9,6.29,63.6l1.34-2.07m3.08,3.3L9.37,66.9C9,66.7,8.1,65.77,7.7,66.47s.72,1,1.08,1.35c-.43.58.56,1.22.91.59l7.11-11m-6.67-1.77L3.06,66.58c-.42.58.56,1.22.92.59l.6-.92c.42.2,1.27,1.13,1.67.44s-.72-1.06-1.08-1.36l1.34-2.07m3.08,3.3L8.25,68.63c-.42-.2-1.27-1.13-1.67-.43s.72,1,1.08,1.35c-.43.58.55,1.22.91.59l7.11-11M9,57.39,1.94,68.31c-.42.58.56,1.22.92.59l.6-.92c.42.21,1.27,1.13,1.67.44s-.72-1-1.08-1.35L5.39,65m3.08,3.3L7.13,70.36c-.42-.2-1.27-1.13-1.68-.43s.73,1,1.08,1.35c-.42.58.56,1.22.92.59l7.11-11M7.89,59.12.82,70c-.42.58.56,1.22.92.59l.6-.91c.42.2,1.27,1.13,1.67.43S3.28,69.1,2.93,68.8l1.34-2.07M7.35,70,6,72.09c-.42-.2-1.28-1.13-1.68-.43s.73,1,1.08,1.35c-.42.58.56,1.22.92.6l7.11-11M41.5,14.25l-.45.68L39,18.15a.59.59,0,0,1-.58.24.71.71,0,0,1-.18-.08.52.52,0,0,1-.16-.76l2.05-3.16,1.82-2.8a.54.54,0,1,1,.91.59L41.5,14.25Zm4.12,1.88a3.39,3.39,0,0,1-1.17,2.5,3.12,3.12,0,0,1-2.5.86A9.31,9.31,0,0,1,39.74,19l.15-.23,2.29-3.54A3.44,3.44,0,0,0,43.56,15a4.16,4.16,0,0,0,.54-.23,6.65,6.65,0,0,0,1.62-1.3ZM42.78,4.72a2.8,2.8,0,0,1,.54-1.34c1-1.08,2.86-2.71,5.3-1.14,1.79,1.16,2.13,3,1.05,5.31l-.12.19a3.33,3.33,0,0,1-.85.81,8.77,8.77,0,0,0-2.86,3l0,0A9.61,9.61,0,0,1,44.62,13a5.45,5.45,0,0,1-1,.76A2.47,2.47,0,0,1,43,14l.78-1.22A1.64,1.64,0,0,0,41,11l-.86,1.33a2.28,2.28,0,0,1,0-.74,5.93,5.93,0,0,1,1.09-3A8.63,8.63,0,0,0,42.78,4.72ZM35.64,15.34a3.48,3.48,0,0,1-.25-2.63,3.44,3.44,0,0,1,1.81-2.09l2.27-1.11a6.33,6.33,0,0,0-.5,2,3.26,3.26,0,0,0,.44,1.94l-2.25,3.47,0,.05-.11.18A8.71,8.71,0,0,1,35.64,15.34Z" transform="translate(-0.47 -0.25)" fill="#f2f2f2" stroke="#404041" stroke-miterlimit="10" stroke-width="0.5"/></svg>