<svg id="Layer_1" data-name="Layer 1" xmlns="http://www.w3.org/2000/svg" viewBox="0 0 273.7 1080"><defs><style>.cls-1{fill:none;stroke:#231f20;stroke-miterlimit:10;stroke-width:5.35px;}</style></defs><path class="cls-1" d="M206.89,73.84c-34.14-58.72-86.58-35.5-86.58-35.5-4.63,1.62-7,192.55-7,192.55.68,69-27.08,170-27.08,170l-8.09,21.25S71,437.79,72,472.61l-.1,573.58s76.92,0,86.14-5.12l-3.85-818.72-68,178.56c13.31-40.3,41.48-119,68-178.56C178,168.84,198,125.74,198,125.74,220.54,93.64,206.89,73.84,206.89,73.84Z"/><circle class="cls-1" cx="98.95" cy="958.92" r="16.05"/><circle class="cls-1" cx="98.95" cy="1016.14" r="16.05"/></svg>
