<svg viewBox="0 0 70.52 49.71" xmlns="http://www.w3.org/2000/svg">
         <path d="m7.35 44.27c4.93 3.32 9.78 2.45 15.1.79a19.6 19.6 0 0 0 8-4.59 20.76 20.76 0 0 0 3-3.57c.75-1.12.84-1.71 2.1-2.09 0 1.32-.1 2.61-.22 3.92a29.79 29.79 0 0 1 -.91 3.61c-.46 2.21 1.2 3.76 3.29 3.92 3.77.3 9.29-1.74 11.7-4.63a18.88 18.88 0 0 0 2-3.49c1.43-2.83 2.77-5.7 4.19-8.53 2.3-4.61 4.76-9.16 7.26-13.68.75-1.36 1.5-2.72 2.31-4a32.37 32.37 0 0 0 2-3.61c1.52-6-7.58-5.39-10.92-4.63a39.94 39.94 0 0 0 -14.83 6.54 41.28 41.28 0 0 0 -3.42 2.77c-.55.51-1.09 1-1.61 1.57-.77.8-.87.34-1.82 0a12.36 12.36 0 0 0 -7.83-.37 32.49 32.49 0 0 0 -5 1.67 9.91 9.91 0 0 0 -4.94 11.31c-3.23-1.46-9.63.78-11.73 3.41a9.61 9.61 0 0 0 2.28 13.68c1.83 1.23-2.74-1.87 0 0zm45.82-33.76a173.55 173.55 0 0 0 -9.85 14.75c-.34-1.19-1.52-3.06-.78-4.05 1.07-1.44 2.19-2.84 3.34-4.21 2.24-2.67 4.55-5.43 7.7-7.07l-.41.58c-1.65 2.16.18-.23 0 0zm-22.08 10.92-3.09 4.7c-.54.83-.29.95-1.18.59a2.77 2.77 0 0 1 -1.19-1.5 5.58 5.58 0 0 1 .68-4.81c1-1.45 3.49.13 4.7.94l.12.08zm-8.38 12.07c-.81 1.09-5.4 8-7 4.72-.56-1.14 1.55-1.33 2.27-2a5.75 5.75 0 0 0 2-4.65 16.8 16.8 0 0 0 2.73 1.85z" class="cjd-stroke" fill="#525a6f"></path>
         <path class="cjd-fill" d="m69.22 3.14c-1.62-2.08-4.5-3.14-8.56-3.14a23.92 23.92 0 0 0 -5.12.55 43 43 0 0 0 -16 7.07 43.55 43.55 0 0 0 -3.66 3c-.26.23-.51.47-.76.71a16.34 16.34 0 0 0 -5.12-.81 14.34 14.34 0 0 0 -4.16.61l-1.2.35a24.43 24.43 0 0 0 -4.25 1.52 12.82 12.82 0 0 0 -5.93 6.34 13.44 13.44 0 0 0 -1.06 4.21c-4.07.3-8.64 2.4-10.74 5a12.29 12.29 0 0 0 -2.55 9.39 13 13 0 0 0 3.76 7.57 3.63 3.63 0 0 0 .82.79l.16.11.72.49a7.1 7.1 0 0 0 .67.43 15.78 15.78 0 0 0 8.46 2.38 29.35 29.35 0 0 0 8.66-1.61 22.6 22.6 0 0 0 7.85-4.1 6 6 0 0 0 1.15 2.74 7 7 0 0 0 5.06 2.68h1c4.14 0 10.24-2 13.38-5.81a17.47 17.47 0 0 0 2.08-3.45c.1-.22.21-.43.31-.64.8-1.58 1.58-3.18 2.34-4.74.6-1.25 1.23-2.54 1.86-3.8 2.42-4.84 5-9.58 7.2-13.57.68-1.23 1.45-2.63 2.24-3.93.12-.19.32-.45.53-.73a19.14 19.14 0 0 0 1.92-4 6.49 6.49 0 0 0 -1.06-5.61zm-.48 5.4a16.05 16.05 0 0 1 -1.63 3.31 8.3 8.3 0 0 0 -.61.86c-.81 1.33-1.59 2.74-2.28 4-2.21 4-4.8 8.75-7.23 13.62-.63 1.26-1.26 2.56-1.87 3.82-.75 1.55-1.53 3.15-2.32 4.72l-.33.65a15.5 15.5 0 0 1 -1.87 3.13c-2.73 3.28-8.33 5.24-12.16 5.24-.3 0-.6 0-.89 0a5.41 5.41 0 0 1 -3.92-2.05 4.65 4.65 0 0 1 -.8-3.78c.13-.6.3-1.12.46-1.63s.22-.7.3-1a23.19 23.19 0 0 1 -2.06 2.25 21 21 0 0 1 -8.63 5 28.15 28.15 0 0 1 -8.2 1.54 14.31 14.31 0 0 1 -7.65-2.22l-.59-.38-.71-.49-.16-.13a1.72 1.72 0 0 1 -.5-.51 11.41 11.41 0 0 1 -3.4-6.74 10.69 10.69 0 0 1 2.21-8.18c2-2.47 6.68-4.47 10.48-4.47h.62a11.61 11.61 0 0 1 1-5.13 11.2 11.2 0 0 1 5.18-5.56 22.8 22.8 0 0 1 4-1.41l1.23-.36a12.48 12.48 0 0 1 3.59-.53 14.85 14.85 0 0 1 5.15.94l.37.15c.47-.47.95-.94 1.43-1.39a41.9 41.9 0 0 1 3.53-2.91 41.35 41.35 0 0 1 15.42-6.8 22.41 22.41 0 0 1 4.76-.51c3.55 0 6 .85 7.31 2.52a5 5 0 0 1 .77 4.43z"></path>
         <path fill="#8089a2" class="cjd-fill" d="m60.75 4.38a22.19 22.19 0 0 0 -9.29 2.27 38.12 38.12 0 0 0 -13.68 11.1 12.83 12.83 0 0 0 -8-2.79 7.51 7.51 0 0 0 -2.21.31q-6.3 1.9-6.3 8.77 0 4.8 6.76 8a40.67 40.67 0 0 1 -5.83 6.76 6.52 6.52 0 0 1 -4.28 1.55 4.23 4.23 0 0 1 -2.94-1 2.18 2.18 0 0 1 -.67-1.6 3 3 0 0 1 .25-1.5 3.86 3.86 0 0 0 2.92-1.25 4.28 4.28 0 0 0 1.21-3 3.81 3.81 0 0 0 -1.21-2.87 3.92 3.92 0 0 0 -2.92-1.13 6.62 6.62 0 0 0 -4.43 1.71c-1.52 1.41-2.27 3.47-2.27 6.19a7.37 7.37 0 0 0 3.56 6.35 13.57 13.57 0 0 0 5.67 2.16c.31 0 .65.05 1 .05a16 16 0 0 0 7.49-2 19.27 19.27 0 0 0 8.15-8.62l.1-.2a7.84 7.84 0 0 0 3.2-.62c.79-.38 1.19-.76 1.19-1.13s-.38-.74-1.14-.88c-.58-.07-1.15-.12-1.7-.16 1.86-3.64 3-5.86 3.56-6.65.79 2.23 1.19 5.64 1.19 10.21a26.78 26.78 0 0 1 -.13 2.64c-.1 1.06-.15 1.77-.15 2.11a11.46 11.46 0 0 0 -.93 3.05 1.6 1.6 0 0 0 .57 1.18 3.73 3.73 0 0 0 2.11.61 6.52 6.52 0 0 0 2.48-.36 11.43 11.43 0 0 0 4.28-2.78 35.48 35.48 0 0 0 2.89-5.32c2.2-4.57 3.85-7.9 5-10q6.87-13 8.47-15.32a7.55 7.55 0 0 0 1.44-3.15 2.43 2.43 0 0 0 -.87-1.6c-.81-.71-2.29-1.09-4.54-1.09zm-30.91 25.29a7.71 7.71 0 0 1 -2.12-.83c-.52-.34-1-.69-1.6-1-1.38-.83-2.06-2.29-2.06-4.39a6.9 6.9 0 0 1 1.65-4.45 4.42 4.42 0 0 1 3.66-1.6 10.82 10.82 0 0 1 6.81 2.68q-4.44 6.7-6.34 9.59zm27.7-19.4q-2.48 3.25-5.26 7.53-4.91 7.43-9 14.76a33 33 0 0 0 -2.63-10.94 96 96 0 0 1 6.45-8c2.79-3.17 5.66-5.12 8.62-5.88a7.37 7.37 0 0 1 1.65-.26c.76 0 1.13.26 1.13.77a3.73 3.73 0 0 1 -.96 2.02z"></path>
      </svg>