<svg viewBox="0 0 62.84 53.79" xmlns="http://www.w3.org/2000/svg">
         <path d="m15.64 52.2a16.44 16.44 0 0 1 -5.59-.94 7.5 7.5 0 0 1 -.76-.26l-.47-.19a3.69 3.69 0 0 1 -.35-.19 13.09 13.09 0 0 1 -5.77-6 11.17 11.17 0 0 1 -.27-9.1 10.1 10.1 0 0 1 6.82-5.81h.07a14.51 14.51 0 0 1 4.61-1 7.36 7.36 0 0 1 1.25.11 2.64 2.64 0 0 1 -.12-.4c-.92-3.22-.14-6.65.64-9.27 1.92-7.15 9.96-11.76 16.3-13.59a33.17 33.17 0 0 1 9.91-1.75h.36c1.11 0 2.14 0 3.14.13h.08a1.8 1.8 0 0 0 .84-.29l.61-.28a11.6 11.6 0 0 1 1.69-.57l1.19-.36a21.18 21.18 0 0 1 2.77-.74 6.12 6.12 0 0 1 1-.09c2.44 0 4.08 1.42 4.08 3.52a3.81 3.81 0 0 1 -1.12 2.65 11.83 11.83 0 0 1 4.66 9.81 12 12 0 0 1 -5 9.19 13.05 13.05 0 0 1 1.6 8.14 19 19 0 0 1 -3.43 9.08c-2.61 3.55-7.08 5.94-13.65 7.3a14.74 14.74 0 0 1 -3 .33 10.86 10.86 0 0 1 -6.89-2.28 14.75 14.75 0 0 1 -1.49-1.32h-.06a17.53 17.53 0 0 1 -4 2.12 27.7 27.7 0 0 1 -9.65 2.05zm22.26-13 .2.19a7 7 0 0 0 .62-.84 14.22 14.22 0 0 0 1-1.8c-.17.13-.34.26-.51.41a3.66 3.66 0 0 0 -1.29 2zm-17.27-4.44a6.54 6.54 0 0 1 0 1l.51-.84a4.44 4.44 0 0 1 -.51-.16zm13.12-20.3a14.58 14.58 0 0 0 -5.75 4.22 6.16 6.16 0 0 0 -1.38 5.23.77.77 0 0 0 .37.5l.1.07c1.06-1.78 2.05-3.37 3-4.85 1.35-2.01 2.51-3.63 3.66-5.17z" class="cjd-border" fill="#fff"></path>
         <path d="m9.91 49.5c4.79 2 10.11 1 14.82-.78a15.8 15.8 0 0 0 3.6-1.93c.71-.5.9-1.19 1.56-.43a13.61 13.61 0 0 0 1.88 1.76 10.27 10.27 0 0 0 8.64 1.65c4.64-1 9.8-2.75 12.7-6.7 3.34-4.54 4.82-12.1.93-16.7 3.29-2.07 5.43-4.93 5.61-8.88.2-4.19-2.21-7.54-5.73-9.66.95-.61 2.19-1.44 2.19-2.72 0-1.77-1.91-2.1-3.26-1.86a38.18 38.18 0 0 0 -3.8 1.06 9.23 9.23 0 0 0 -1.48.51 4.36 4.36 0 0 1 -2.31.72c-1-.08-2-.13-3-.14a31.18 31.18 0 0 0 -9.8 1.68c-5.88 1.71-13.46 6-15.2 12.38-.8 2.68-1.43 5.66-.65 8.41.87 3.06 3.75 6.55 7.34 5.39a37.08 37.08 0 0 1 -4.16 6.39 15.34 15.34 0 0 1 -3.35 2.82c-.59-.06-1.44-.47-1.44-1.18 0-1.48 2.86-2.45 3.54-3.74a5.11 5.11 0 0 0 -2.7-7c-2-.81-4.15-.05-6.11.61a8.52 8.52 0 0 0 -5.84 4.84c-2.21 5.31 1 11.29 6 13.46zm37-32.13a7.88 7.88 0 0 1 -1.33 4c-.65 1-1.5.58-2.54.8.84-2.47 1.59-5.13 3.12-7.29a4 4 0 0 1 .7 2.49zm-10.19 22.88c-1.21-1.31.43-3.45 1.41-4.3a10.11 10.11 0 0 1 4-2.13 13.76 13.76 0 0 1 -2.08 5.56 7.81 7.81 0 0 1 -1.31 1.62c-.65.61-1.47-.23-2.02-.75zm.88-28.25c.66 0-.51.87-.66 1-.64.74-1.25 1.51-1.85 2.28-1.28 1.68-2.48 3.42-3.62 5.19s-2.18 3.44-3.22 5.19c-.58 1-1.16.63-2.07.08a2.39 2.39 0 0 1 -1.06-1.45c-1.7-6.41 7-12.29 12.48-12.29z" class="cjd-stroke" fill="#525a6f"></path>
         <path class="cjd-fill" fill="#8089a2" d="m28 18.68a6.16 6.16 0 0 0 -1.38 5.23.77.77 0 0 0 .37.5l.1.07c1.06-1.78 2.05-3.37 3-4.85 1.31-2 2.46-3.66 3.62-5.18a14.7 14.7 0 0 0 -5.71 4.23z"></path>
         <path class="cjd-fill" fill="#8089a2" d="m62.82 17.64a13.09 13.09 0 0 0 -4.13-10.12 5.06 5.06 0 0 0 .6-2.41c0-3.01-2.29-5.11-5.66-5.11a8.33 8.33 0 0 0 -1.33.11 24.62 24.62 0 0 0 -3 .79c-.34.11-.74.24-1.14.35a13 13 0 0 0 -1.9.65l-.66.3-.25.12h-.05c-1-.07-2-.09-3-.11h-.39a35.06 35.06 0 0 0 -10.39 1.79 33 33 0 0 0 -10.28 5.08 18.19 18.19 0 0 0 -7.06 9.51 20.39 20.39 0 0 0 -1 8.44 18.09 18.09 0 0 0 -4.36 1.06 11.65 11.65 0 0 0 -7.82 6.73 12.75 12.75 0 0 0 .3 10.38 14.59 14.59 0 0 0 6.41 6.74c.17.1.34.19.53.28l.46.19c.45.19.67.29.9.36a18.13 18.13 0 0 0 6.08 1 29.45 29.45 0 0 0 10.2-2.09 19 19 0 0 0 3.29-1.63l.68.55a12.46 12.46 0 0 0 7.88 2.61 17.05 17.05 0 0 0 3.36-.35c7-1.45 11.76-4 14.62-7.92a20.75 20.75 0 0 0 3.78-9.9 15.29 15.29 0 0 0 -1.18-7.9 13.27 13.27 0 0 0 4.51-9.5zm-5 17.26a19 19 0 0 1 -3.43 9.1c-2.62 3.56-7.08 6-13.66 7.31a14.74 14.74 0 0 1 -3 .33 10.86 10.86 0 0 1 -6.89-2.28 14.75 14.75 0 0 1 -1.49-1.32h-.05a17.8 17.8 0 0 1 -4 2.12 27.7 27.7 0 0 1 -9.64 2 16.44 16.44 0 0 1 -5.59-.94c-.15 0-.34-.13-.77-.31l-.46-.19a3.69 3.69 0 0 1 -.35-.19 13.09 13.09 0 0 1 -5.77-6 11.17 11.17 0 0 1 -.27-9.1 10.08 10.08 0 0 1 6.82-5.81h.07a14.51 14.51 0 0 1 4.61-1 7.45 7.45 0 0 1 1.25.11 2.64 2.64 0 0 1 -.12-.4c-.92-3.22-.14-6.65.64-9.27 1.9-7.06 9.94-11.67 16.28-13.5a33.17 33.17 0 0 1 9.91-1.75h.36c1.11 0 2.14 0 3.14.13h.08a1.8 1.8 0 0 0 .84-.29l.61-.28a11.6 11.6 0 0 1 1.69-.57l1.19-.36a21.18 21.18 0 0 1 2.77-.74 6.12 6.12 0 0 1 1-.09c2.44 0 4.08 1.42 4.08 3.52a3.81 3.81 0 0 1 -1.12 2.65 11.83 11.83 0 0 1 4.66 9.81 12 12 0 0 1 -5 9.19 13.05 13.05 0 0 1 1.65 8.12z"></path>
         <path class="cjd-fill" fill="#8089a2" d="m57.42 13a12.66 12.66 0 0 0 -6.09-5l2.06-1.34c1-.62 1.45-1.14 1.45-1.55a.58.58 0 0 0 -.31-.51c-.38-.28-1.22-.23-2.53.15a35.65 35.65 0 0 0 -4.59 2.32 39.69 39.69 0 0 0 -6-.41 22.25 22.25 0 0 0 -13.51 4.64q-5.1 3.89-6.08 7.49a24.4 24.4 0 0 0 -1 5.31 8.5 8.5 0 0 0 1.65 5.11 4.28 4.28 0 0 0 3.56 2 2.75 2.75 0 0 0 .97-.21 2 2 0 0 0 1.47-2c0-.72-.55-1.24-1.65-1.55a3.92 3.92 0 0 1 -3.09-4.18 7.76 7.76 0 0 1 .15-1.49 11.62 11.62 0 0 1 2.79-5.78 21.06 21.06 0 0 1 7.53-4.85 16.75 16.75 0 0 1 6.8-1.45 14.38 14.38 0 0 1 2.9.3 56.92 56.92 0 0 0 -7.64 9.6q-3 4.55-6.65 11.1a86.37 86.37 0 0 1 -4.49 7.48 16.54 16.54 0 0 1 -5.27 4.69 6.27 6.27 0 0 1 -3 .88 2.89 2.89 0 0 1 -2.63-1.19 2.25 2.25 0 0 1 -.47-1.28q0-1.5 2.64-3.21a3.19 3.19 0 0 0 1.44-2.88 3.55 3.55 0 0 0 -1.16-2.66 3.91 3.91 0 0 0 -2.81-1.11 4.68 4.68 0 0 0 -2.79.93 7.34 7.34 0 0 0 -3.2 6.34 9.63 9.63 0 0 0 2 5.68 9.05 9.05 0 0 0 3.93 2.94 12.23 12.23 0 0 0 4.85 1 16.51 16.51 0 0 0 5.67-.82q4.18-1.55 8.1-6.4a9.59 9.59 0 0 0 4 5.37 7.52 7.52 0 0 0 4.49 1.29 14.38 14.38 0 0 0 7.22-2.07 11.39 11.39 0 0 0 5-5.21 18.83 18.83 0 0 0 2-7.64 9.06 9.06 0 0 0 -.72-3.66 10.56 10.56 0 0 0 -2.41-3.11 14.15 14.15 0 0 0 4.91-3.92 8.65 8.65 0 0 0 1.49-5.42 6.45 6.45 0 0 0 -.98-3.72zm-6.09 4.69q-1.33 5.12-4.59 5.53c-1.1.07-2.2.12-3.3.16q-2.07.36-2.07 2c0 1.07.48 1.6 1.45 1.6a22.86 22.86 0 0 1 2.32.41c.83.41 1.36 1.48 1.6 3.2a6.27 6.27 0 0 1 .1 1.14 13.2 13.2 0 0 1 -1.29 5.36 13.24 13.24 0 0 1 -2.16 3.41q-2.18 2.22-4.13 2.22a5 5 0 0 1 -3.41-1.55 2.47 2.47 0 0 1 -.72-1.91 4.91 4.91 0 0 1 1.6-3.76 9.78 9.78 0 0 1 4.59-2.79c1.1-.21 1.65-.67 1.65-1.39s-.38-1.09-1.13-1.09a4.44 4.44 0 0 0 -.83.1 21.6 21.6 0 0 0 -2.89 1.14q1.5-3.26 3.87-10.32c1.14-3.55 2.25-6 3.36-7.38a28.66 28.66 0 0 1 2.32-2.63 16.83 16.83 0 0 1 1.55.82 4.86 4.86 0 0 1 2.27 4.39 5.43 5.43 0 0 1 -.16 1.3z"></path>
      </svg>