<svg viewBox="0 0 52.28 51.72" xmlns="http://www.w3.org/2000/svg">
         <path d="m22.43 50.13a15.3 15.3 0 0 1 -12-5.27c-3.7-4.64-3.43-11-2.53-15.76a13.26 13.26 0 0 1 -6.17-8.75 9.36 9.36 0 0 1 2.27-7.92c2.37-2.72 5.6-3.92 8.75-4.81a16.12 16.12 0 0 1 4.84-.91h.5a11.76 11.76 0 0 1 2.27.43 8.36 8.36 0 0 0 1.83.36h.19c5-3.7 11.1-5.91 16.28-5.91a17.62 17.62 0 0 1 2.34.15 12.27 12.27 0 0 1 6.55 2.73 9.16 9.16 0 0 1 3.11 6.53c.34 5.84-2.37 11-7.87 15-.61.45-1.26.87-1.93 1.28a3.73 3.73 0 0 1 2.67 1.28 5.11 5.11 0 0 1 .86 4.19 19.87 19.87 0 0 1 -3.72 8c-3.1 4.28-7.09 6.89-13.33 8.7a16.07 16.07 0 0 1 -4.91.68zm4.37-18a7.11 7.11 0 0 0 .2 1.12 3.67 3.67 0 0 0 .76 1.66 3.08 3.08 0 0 0 1.88.85 10 10 0 0 0 2.36-3.21c.34-.61.68-1.23 1.09-1.85a40.55 40.55 0 0 1 -6 1.42zm7.57-17.13.29.27.26.22a15.58 15.58 0 0 0 1.08-1.49 6.34 6.34 0 0 0 .67-1.41 24.56 24.56 0 0 0 -1.77 1.77c-.18.19-.35.38-.53.59z" class="cjd-border" fill="#fff"></path>
         <path d="m9.7 28.28s-.07.28-.1.42c-1.09 4.95-1.24 11 2.07 15.17s10.14 5.63 15.21 4 9.27-3.65 12.5-8.11a18.68 18.68 0 0 0 3.44-7.32c.47-2.7-1-4.3-3.65-3.35-1.57.38-3.59.78-4.55 2.15-1.52 2.19-2.18 4.58-4.54 6.14a4.87 4.87 0 0 1 -3.53-1.38 5.33 5.33 0 0 1 -1.13-2.37 11 11 0 0 1 -.25-1.9c-.06-1.35.4-.95 1.64-1.15 9.75-1.53 23-7.66 22.27-19.43-.28-4.7-3.89-7.24-8.32-7.81-6-.78-12.71 2-17.48 5.48-1.19.89-3.68-.43-5.27-.48a13.38 13.38 0 0 0 -4.81.83c-3 .84-5.93 1.94-8 4.33-4.33 4.92-1.06 11.64 3.88 14.5.2.12.41.23.62.33zm28.52-16.72c.54 2-2.19 5.14-3.31 6.48a6.1 6.1 0 0 0 -1.62-1.85l-1.18-1.06c.5-.61 1-1.22 1.57-1.81a27.77 27.77 0 0 1 2.19-2.15c1.06-.9 1.55-1 2.35.39.01.03-.44-.73 0 0zm-9 10.66a7.14 7.14 0 0 0 1.78-.42c-1.27 1-3.08 2.44-4.69 2.74a17.88 17.88 0 0 1 1.29-3 2.32 2.32 0 0 0 1.59.68zm-15.22-7.73a10.18 10.18 0 0 1 2.63.37 31.07 31.07 0 0 0 -3.93 5.52 3.86 3.86 0 0 1 -.62-3.62c.17-.56 1.16-2.27 1.92-2.27z" class="cjd-stroke" fill="#525a6f"></path>
         <path fill="#8089a2" class="cjd-fill" d="m52.25 10.93a10.79 10.79 0 0 0 -3.69-7.66 13.87 13.87 0 0 0 -7.39-3.11 19.05 19.05 0 0 0 -2.52-.16c-5.35 0-11.58 2.19-16.77 5.89-.33-.06-.79-.18-1.13-.27a12.6 12.6 0 0 0 -2.6-.49h-.57a17.21 17.21 0 0 0 -5.29 1c-3.38 1-6.86 2.26-9.5 5.29a10.88 10.88 0 0 0 -2.62 9.2 14.63 14.63 0 0 0 6 9.22c-.8 4.83-.79 11.19 3 16a16.88 16.88 0 0 0 13.25 5.88 17.63 17.63 0 0 0 5.37-.81c6.61-1.91 10.84-4.7 14.21-9.29a21.19 21.19 0 0 0 4-8.62 6.57 6.57 0 0 0 -1.21-5.48 5.2 5.2 0 0 0 -.57-.58c5.61-4.27 8.4-9.79 8.03-16.01zm-9.46 15.07c-.61.45-1.26.87-1.93 1.28a3.73 3.73 0 0 1 2.67 1.28 5.09 5.09 0 0 1 .86 4.18 19.8 19.8 0 0 1 -3.73 8c-3.09 4.28-7.08 6.89-13.32 8.7a16.12 16.12 0 0 1 -4.91.74 15.27 15.27 0 0 1 -12-5.28c-3.7-4.68-3.43-11.04-2.53-15.8a13.29 13.29 0 0 1 -6.17-8.75 9.36 9.36 0 0 1 2.27-7.92c2.37-2.72 5.6-3.92 8.75-4.81a16.06 16.06 0 0 1 4.84-.91h.49a10.8 10.8 0 0 1 2.27.43 8.43 8.43 0 0 0 1.84.36.66.66 0 0 0 .19 0c5-3.69 11.1-5.9 16.28-5.9a19.54 19.54 0 0 1 2.34.13 12.35 12.35 0 0 1 6.55 2.74 9.18 9.18 0 0 1 3.11 6.53c.34 5.84-2.37 11-7.87 15z"></path>
         <path fill="#8089a2" class="cjd-fill" d="m34.85 14.4-.53.58a.12.12 0 0 0 0 0l.29.27.26.22a15.58 15.58 0 0 0 1.13-1.47 6.34 6.34 0 0 0 .67-1.41 24.56 24.56 0 0 0 -1.82 1.81z"></path>
         <path fill="#8089a2" class="cjd-fill" d="m27 33.25a3.67 3.67 0 0 0 .76 1.66 3.08 3.08 0 0 0 1.88.85 10.16 10.16 0 0 0 2.36-3.21c.34-.61.68-1.23 1.09-1.85a40.85 40.85 0 0 1 -6 1.42h-.25a7.11 7.11 0 0 0 .16 1.13z"></path>
         <path fill="#8089a2" class="cjd-fill" d="m38.59 4.42q-6.35-.21-14.4 7a14.47 14.47 0 0 0 -6.19-1.85 10.31 10.31 0 0 0 -6 1.76c-2.14 1.31-3.38 2.8-3.72 4.49a10.83 10.83 0 0 0 -.26 2.27q0 5.67 6.61 8.46a26.9 26.9 0 0 0 -1 7q0 8.82 6.6 11.51a15.39 15.39 0 0 0 5.77 1.2 13.75 13.75 0 0 0 9.7-4.18 21 21 0 0 0 4.44-5.93 11.89 11.89 0 0 0 1.55-4.59c0-1-.19-1.55-.57-1.55a2.13 2.13 0 0 0 -2 .82q-3.51 7.8-9 7.8a6.82 6.82 0 0 1 -1.81-.26q-4.38-1.14-4.38-7.43a18.43 18.43 0 0 1 .07-2.32 28.17 28.17 0 0 0 11.4-1.78 20.71 20.71 0 0 0 8.6-5.84 14 14 0 0 0 3.82-9.18q.01-7.15-9.23-7.4zm-23.27 19.58c-3.16-1.61-4.75-3.59-4.75-5.93a4.92 4.92 0 0 1 1.14-3.2 6.83 6.83 0 0 1 5.62-2.63 13 13 0 0 1 4.9 1.08 29.22 29.22 0 0 0 -6.91 10.68zm25.18-7.79a24.8 24.8 0 0 1 -6.5 6.38 18.84 18.84 0 0 1 -9.5 3.41 20.2 20.2 0 0 1 2.5-6c.62-1 1.29-1.93 2-2.92a15.45 15.45 0 0 1 2.58 2.37 1.09 1.09 0 0 0 .92.52 1.48 1.48 0 0 0 .73-.21 1 1 0 0 0 .25-1.55 42.74 42.74 0 0 0 -3.2-2.89q5.84-7.38 9.29-7.38a3.53 3.53 0 0 1 3.15 2.06 1.78 1.78 0 0 1 .15.78q0 1.98-2.37 5.43z"></path>
      </svg>