<svg viewBox="0 0 61.61 53.71" xmlns="http://www.w3.org/2000/svg">
         <path d="m14.7 52.13c-4.25 0-7.77-1.3-10.16-3.75a10.19 10.19 0 0 1 -2.83-5.23 6.75 6.75 0 0 1 1.79-6c3.32-3.45 8.36-4 11.14-4a17 17 0 0 1 -2.55-5.84 19.42 19.42 0 0 1 .46-10.56c2.22-6.55 8.06-11.5 16.43-14a23.19 23.19 0 0 1 12.31-.48 25.25 25.25 0 0 1 3.06.93 4.77 4.77 0 0 0 .8.25 6.92 6.92 0 0 0 .85-.21c1.11-.39 2.24-.71 3.34-1a15.36 15.36 0 0 1 4.12-.63 4.9 4.9 0 0 1 3.91 1.39 3.4 3.4 0 0 1 .72 2.86c-.34 2.14-2.41 3.19-4.09 4.04l-.2.1a27.58 27.58 0 0 1 6.2 18.74c-.28 7.05-3.1 13.18-8 17.26-4 3.36-10.23 5.44-16.27 5.44-.78 0-1.54 0-2.27-.11a27.41 27.41 0 0 1 -6.59-1.49 5.51 5.51 0 0 0 -.94-.29 4.26 4.26 0 0 0 -.84.27c-.68.26-1.35.46-1.87.62a28.18 28.18 0 0 1 -8.52 1.69zm16.41-40.13a6.84 6.84 0 0 0 -4.68 2.29 12.08 12.08 0 0 0 -3 5 9.08 9.08 0 0 0 .57 6.78 63.51 63.51 0 0 1 9.35-13.82 11.87 11.87 0 0 0 -2.24-.25z" class="cjd-border" fill="#fff"></path>
         <path d="m14.7 50.54a26.76 26.76 0 0 0 8.1-1.62c.6-.17 1.19-.36 1.77-.58a2.93 2.93 0 0 1 2.88 0 26 26 0 0 0 6.21 1.4c5.71.56 12.91-1.21 17.37-5 10.19-8.58 9.45-26.1.31-35.14 1.4-1.23 4.85-2 5.18-4.06.54-3.45-5.16-2.34-6.71-1.85-1.09.31-2.2.63-3.28 1a2.87 2.87 0 0 1 -2.74 0 21.88 21.88 0 0 0 -2.86-.86 21.37 21.37 0 0 0 -11.49.45c-6.65 2-13 6-15.38 13-2.06 6.09-.59 13.72 4.55 17.83-4.32-.86-10.57-.38-14 3.15-2.64 2.75-1.38 6.55 1 9s5.8 3.28 9.09 3.28zm21.09-9.54a18.87 18.87 0 0 1 -2 0c.78-1 1.46-2.69 2.65-3.07a15.82 15.82 0 0 0 5.26-2.77c-1.05 2.27-3.13 5.67-5.92 5.82-.41.02.31.02.01.02zm8.25-18s-1.64.43-2.4.67a40.51 40.51 0 0 1 1.86-4.27 12.17 12.17 0 0 1 .54 3.6zm-12.93-12.56a13 13 0 0 1 5.14 1.06 62.07 62.07 0 0 0 -12 17.65 10.48 10.48 0 0 1 -2.32-10.23c1.07-3.92 4.82-8.48 9.18-8.48z" class="cjd-stroke" fill="#525a6f"></path>
         <g class="cjd-border" fill="#8089a2">
            <path class="cjd-fill" fill="#8089a2" d="m56.23 10.51a6.36 6.36 0 0 0 3.42-4.42 5 5 0 0 0 -1.07-4.09 6.39 6.39 0 0 0 -5.1-2 17.11 17.11 0 0 0 -4.58.7c-1.1.31-2.24.64-3.4 1l-.34.12-.25-.09a24.64 24.64 0 0 0 -3.26-1 25 25 0 0 0 -5.65-.62 24.68 24.68 0 0 0 -7.47 1.17c-8.88 2.6-15.08 7.91-17.47 15a21.06 21.06 0 0 0 -.51 11.44 19.82 19.82 0 0 0 1.45 4.01 15.78 15.78 0 0 0 -9.61 4.33 8.29 8.29 0 0 0 -2.25 7.37 11.81 11.81 0 0 0 3.26 6.06c2.7 2.76 6.61 4.22 11.3 4.22a29.55 29.55 0 0 0 9-1.75c.54-.16 1.25-.38 2-.66l.28-.1.39.14a28.72 28.72 0 0 0 7 1.57 23.77 23.77 0 0 0 2.42.12c6.4 0 13-2.23 17.29-5.81 5.19-4.37 8.21-10.91 8.51-18.42a29.41 29.41 0 0 0 -5.36-18.29zm3.77 18.23c-.28 7.05-3.11 13.19-8 17.27-4 3.35-10.23 5.43-16.27 5.43-.78 0-1.54 0-2.27-.11a26.94 26.94 0 0 1 -6.59-1.49 5.51 5.51 0 0 0 -.94-.29 4.26 4.26 0 0 0 -.84.27c-.68.26-1.36.47-1.87.62a28.11 28.11 0 0 1 -8.57 1.68c-4.25 0-7.77-1.29-10.16-3.74a10.19 10.19 0 0 1 -2.83-5.23 6.73 6.73 0 0 1 1.8-6c3.31-3.45 8.35-4 11.13-4a17 17 0 0 1 -2.55-5.84 19.32 19.32 0 0 1 .47-10.56c2.21-6.55 8-11.5 16.42-14a22.92 22.92 0 0 1 12.31-.48 25.25 25.25 0 0 1 3.06.93 4.77 4.77 0 0 0 .8.25 5.86 5.86 0 0 0 .9-.22c1.11-.38 2.25-.7 3.34-1a15.38 15.38 0 0 1 4.13-.63 4.85 4.85 0 0 1 3.9 1.4 3.4 3.4 0 0 1 .72 2.86c-.34 2.14-2.41 3.19-4.09 4.03l-.2.1a27.67 27.67 0 0 1 6.2 18.75z"></path>
            <path class="cjd-fill" fill="#8089a2" d="m49.49 9.66a11.57 11.57 0 0 1 2.51-2.06c2.17-1.1 3.26-1.86 3.26-2.27a.42.42 0 0 0 -.06-.21c-.17-.48-.86-.72-2.06-.72a10.48 10.48 0 0 0 -4.33 1.13c-.93.45-1.91 1-2.94 1.55a21.44 21.44 0 0 0 -8.87-2.53 17.09 17.09 0 0 0 -10.06 2.38 19.58 19.58 0 0 0 -6.25 5.93 12 12 0 0 0 -2.37 5.06 39.33 39.33 0 0 0 -.41 4.49q0 8.82 8.1 12.69a16.58 16.58 0 0 1 -1.8 3.46 19.23 19.23 0 0 0 -9.49-2.56v-.1a7.69 7.69 0 0 0 -5.32 1.8 4 4 0 0 0 -1.65 3 6.74 6.74 0 0 0 1.85 4.3q2.84 3.26 8.46 3.25a16.49 16.49 0 0 0 10.17-3.41 24.56 24.56 0 0 0 11.14 2.74 16.27 16.27 0 0 0 10.84-3.77q6.86-5.81 6.86-16.5a24.88 24.88 0 0 0 -1-7.27 22 22 0 0 0 -6.58-10.38zm-34 34.11a4.57 4.57 0 0 1 -2.83-1.08 2.42 2.42 0 0 1 -1.14-1.86 2.13 2.13 0 0 1 1.15-1.83 3.28 3.28 0 0 1 2.33-.49 21 21 0 0 1 6.76 2.42q-4.31 2.84-6.28 2.84zm11.51-11.04a12.2 12.2 0 0 1 -4.85-4.18 10.54 10.54 0 0 1 -2-6.3 13.8 13.8 0 0 1 4.33-9.93 13.74 13.74 0 0 1 10-4.15 14.16 14.16 0 0 1 7.33 2 52.23 52.23 0 0 0 -9.24 11.5 70.21 70.21 0 0 0 -5.57 11.06zm21.66-10.22q-.25 8-2.84 13-3.3 6.41-10 6.76a15.58 15.58 0 0 1 -4.53-.3 27.52 27.52 0 0 0 3.71-4.97 14.28 14.28 0 0 0 6.71-3.46 11.27 11.27 0 0 0 3-4.28 6.9 6.9 0 0 0 .83-3.77 3.2 3.2 0 0 0 -.41-1.24 2.2 2.2 0 0 0 -.67-.05c-.87 0-1.3.33-1.3 1a7.55 7.55 0 0 1 -2.47 5.73 11.94 11.94 0 0 1 -4.13 2.58q.57-1.35 3.46-9.34a29 29 0 0 1 3.3-7c1.14-1.44 2-2.52 2.53-3.25a13.13 13.13 0 0 1 2.81 8.59z"></path>
            <path class="cjd-fill" fill="#8089a2" d="m31.11 12a6.84 6.84 0 0 0 -4.68 2.29 12.08 12.08 0 0 0 -3 5 9.08 9.08 0 0 0 .57 6.78 63.51 63.51 0 0 1 9.35-13.82 11.87 11.87 0 0 0 -2.24-.25z"></path>
         </g>
      </svg>