<svg viewBox="0 0 49.21 52.55" xmlns="http://www.w3.org/2000/svg">
         <path d="m19.22 51a19.27 19.27 0 0 1 -11.45-3.62 15.11 15.11 0 0 1 -6.07-10.48c-1.01-8.06 5.3-15.12 12.44-18.47a8.48 8.48 0 0 1 -.62-5.67 12.69 12.69 0 0 1 6.82-8 27.43 27.43 0 0 1 12.6-3.18q1.1 0 2.22.09a19.6 19.6 0 0 1 7.78 2.43c3.2 1.87 4.82 4.37 4.67 7.25-.22 4.43-3.57 6.28-6.52 7.29a4.55 4.55 0 0 1 .29 2 5.76 5.76 0 0 1 -2.87 4.46 10.75 10.75 0 0 1 -1.61.76 10.34 10.34 0 0 1 3 4.55c1.5 4.18-1.19 9-2.41 10.93a20.72 20.72 0 0 1 -8 7.09 22.65 22.65 0 0 1 -10.27 2.57zm6.33-12.1-.5.18a2.3 2.3 0 0 0 .5-.18z" class="cjd-border" fill="#fff"></path>
         <path d="m19.22 49.37a20.48 20.48 0 0 0 17-8.9c1.64-2.55 3.35-6.46 2.25-9.54-1-2.77-3-5-6-5.39a22.75 22.75 0 0 0 5.3-1.82c2.2-1.29 3-4.22.8-5.94 3.48-1 7.31-2.25 7.53-6.5.26-5.1-7-7.69-11-8a25.39 25.39 0 0 0 -14 2.93c-4.83 2.44-8.35 8-4.62 13-7.11 2.63-14.21 9.46-13.21 17.5s8.18 12.66 15.95 12.66zm9.44-23.49c-4.38 1.2-7.71 3-9.07 7.66a13.25 13.25 0 0 1 3.91-6.95c.78-.78 1.53-1.9 2.64-1.53.6.19 1.2.38 1.8.53.15 0 1.39.07.72.29-.12.03.08-.03 0 0zm-6.91 12.35a13.06 13.06 0 0 0 4.06-1.15c1.91-.81 2-3.46 3-5 2.42 1.56-.26 6.46-1.84 7.74-2.41 1.95-6 .49-7.11-2.36a2.53 2.53 0 0 0 1.89.77z" class="cjd-stroke" fill="#525a6f"></path>
         <g fill="#8089a2">
            <path class="cjd-fill" fill="#8089a2" d="m25.05 39.08a2.3 2.3 0 0 0 .5-.18z"></path>
            <path class="cjd-fill" fill="#8089a2" d="m43.73 2.74a21.38 21.38 0 0 0 -8.44-2.64c-.79-.1-1.58-.1-2.35-.1a28.94 28.94 0 0 0 -13.32 3.36 14.24 14.24 0 0 0 -7.64 9 10 10 0 0 0 .16 5.26c-6.94 3.76-13.09 10.96-12.02 19.48a16.61 16.61 0 0 0 6.7 11.55 20.89 20.89 0 0 0 12.4 3.9 24.22 24.22 0 0 0 11.08-2.72 22.22 22.22 0 0 0 8.55-7.64c1.36-2.09 4.31-7.48 2.58-12.32a12.77 12.77 0 0 0 -1.9-3.54 7.37 7.37 0 0 0 3.47-5.59 6.71 6.71 0 0 0 0-1.1 12.08 12.08 0 0 0 3.51-2.18 8.51 8.51 0 0 0 2.75-6c.12-3.46-1.83-6.57-5.53-8.72zm3.88 8.62c-.22 4.43-3.57 6.28-6.52 7.29a4.55 4.55 0 0 1 .29 2 5.72 5.72 0 0 1 -2.87 4.46 11.89 11.89 0 0 1 -1.61.77 10.25 10.25 0 0 1 3 4.54c1.5 4.18-1.19 9-2.41 10.93a20.72 20.72 0 0 1 -8 7.09 22.68 22.68 0 0 1 -10.27 2.56 19.27 19.27 0 0 1 -11.45-3.62 15 15 0 0 1 -6.07-10.48c-1.01-8.06 5.3-15.12 12.43-18.47a8.53 8.53 0 0 1 -.61-5.67 12.69 12.69 0 0 1 6.82-8 27.43 27.43 0 0 1 12.6-3.18q1.1 0 2.22.09a19.82 19.82 0 0 1 7.78 2.43c3.2 1.9 4.82 4.38 4.67 7.26z"></path>
            <path class="cjd-fill" fill="#8089a2" d="m41.57 6.74a14.57 14.57 0 0 0 -8-2.27 19.85 19.85 0 0 0 -8.57 1.86c-2.86 1.34-4.58 3.1-5.16 5.26a7.62 7.62 0 0 0 -.26 1.91 6.67 6.67 0 0 0 2.63 5.32q-3.87.72-8.54 4.72t-5.53 7.25a10.89 10.89 0 0 0 -.36 2.84 13.06 13.06 0 0 0 3.22 8.92q4 4.55 11.55 4.54a13.9 13.9 0 0 0 11.2-5.47q3.66-4.53 3.67-8.92a3.91 3.91 0 0 0 -.21-1.35c-1.17-3.29-3.35-4.83-6.55-4.59a6.69 6.69 0 0 0 -5.37 3.51 10.55 10.55 0 0 0 -1.44 4q-.18 1.73 1.26 1.73c.59 0 1.28-1.12 2.07-3.35a4.34 4.34 0 0 1 2.53-2.79 3.09 3.09 0 0 1 2.06-.26 3.14 3.14 0 0 1 2.48 3.31 11.29 11.29 0 0 1 -.52 3.09 7.8 7.8 0 0 1 -3.73 4.64 9.55 9.55 0 0 1 -4.59 1.45 7.1 7.1 0 0 1 -4.41-1.24 6.47 6.47 0 0 1 -2.79-5.73 12.15 12.15 0 0 1 .1-1.54q.63-4.44 4.9-8.47a25.75 25.75 0 0 1 4.13-3.2 29.58 29.58 0 0 0 5.32 1.66 7.16 7.16 0 0 0 3.4-.47 3.45 3.45 0 0 0 2.43-2.17 2.94 2.94 0 0 0 .1-.72c0-.93-1-1.75-2.89-2.48a13 13 0 0 0 -5-.15 3.11 3.11 0 0 1 -2.27-3 4.71 4.71 0 0 1 .47-1.95 7.29 7.29 0 0 1 2.89-3.72 12.66 12.66 0 0 1 5.14-.91q4.55-.15 4.54 2.89a1.46 1.46 0 0 1 -.1.57q-.82 1.86-2.22 1.86a3.12 3.12 0 0 1 -1.5-.47 7.86 7.86 0 0 0 -2.78-1.13c-1.8.03-1.87 1.28-1.87 1.7 0 .67.55 1.29 1.69 2.09a5.39 5.39 0 0 0 2.66.67q6.66 0 7.38-4.59c.27-1.72-.73-3.33-3.16-4.85z"></path>
         </g>
      </svg>