<svg viewBox="0 0 60.86 55.55" xmlns="http://www.w3.org/2000/svg">
         <path d="m16.15 54a16.66 16.66 0 0 1 -7-1.43 13.77 13.77 0 0 1 -5.65-4.8 11.09 11.09 0 0 1 -1.6-8.9 10.51 10.51 0 0 1 5.1-6.87 15.42 15.42 0 0 1 7-1.8 11.22 11.22 0 0 1 -4.9-9.53 16.25 16.25 0 0 1 3.9-10.4 21.22 21.22 0 0 1 9-6.27 37 37 0 0 1 9.16-2.29 20.69 20.69 0 0 1 2.08-.1 37.6 37.6 0 0 1 9.48 1.54 48.38 48.38 0 0 0 4.86 1c.35 0 .67.09 1 .11a4.4 4.4 0 0 1 1.63-1.3 13.49 13.49 0 0 1 5-1.33 3.94 3.94 0 0 1 2.8 1l.16.16.2.21c2.48 3.06-.12 8.42-1.36 10.27a11.53 11.53 0 0 1 -7 4.75l-.27.08a18.84 18.84 0 0 1 -3.06.82 10.38 10.38 0 0 1 -1.68.08h-.14l-.11.14-.07.08-.07.07a7 7 0 0 0 -1.61 2.42 7.47 7.47 0 0 1 3.06.87 4.72 4.72 0 0 1 2.43 5.07 8.38 8.38 0 0 1 -5.77 6.41c-.79.27-1.61.52-2.36.71 0 .18-.09.39-.17.65-.22.77-.47 1.53-.74 2.25a26 26 0 0 1 -4.59 7.81 24.57 24.57 0 0 1 -8.27 6.05 25.06 25.06 0 0 1 -10.44 2.47zm2.38-22.52a6.45 6.45 0 0 1 1.47 1.52 6.13 6.13 0 0 1 1 4.25 38.92 38.92 0 0 0 2-4.37 9.19 9.19 0 0 1 -1-.75 6.14 6.14 0 0 1 -.81-.81l-.19-.14a11.65 11.65 0 0 1 -2.44.26zm7.69-17.17c-1.41 0-3.23 1.23-4.38 2.85a10.35 10.35 0 0 1 2.7-1.07 10.27 10.27 0 0 1 3.32-.62 5.08 5.08 0 0 1 3.68 1.39 10.69 10.69 0 0 1 1.17-1.08 19 19 0 0 0 -6.49-1.51z" class="cjd-border" fill="#fff"></path>
         <path d="m56.9 3.84c-1.33-1.44-4.6-.12-6.13.55-.74.33-1.05.94-1.59 1.49-.62 0-1.25-.09-1.87-.18a45.29 45.29 0 0 1 -5-1c-3.74-.95-7.11-1.78-11-1.41a36.64 36.64 0 0 0 -8.77 2.21c-6.44 2.35-11.8 8.06-11.8 15.18 0 3.36 1.63 6.94 4.73 8.51a8 8 0 0 0 5.31.45c1.19-.26 1.33.57 2.22 1.3a6.73 6.73 0 0 0 2 1.16 37.91 37.91 0 0 1 -3.72 7.56c-.61.87-4.34 5.7-5.06 3.67-.6-1.7 1.88-3.22 2.57-4.56a4.9 4.9 0 0 0 -.11-4.9c-2.22-3.31-8-2.11-11-.48-4.68 2.61-5.87 9.18-2.88 13.47 6.73 9.69 22.39 5.13 28.83-2.41a24.41 24.41 0 0 0 4.31-7.33c.26-.71.5-1.42.71-2.14.3-1 .1-1.31 1.09-1.69.84-.21 1.71-.47 2.53-.76 3.29-.67 6.88-6.37 3-8.56a8 8 0 0 0 -4.49-.65 10.39 10.39 0 0 1 2.75-5.17c.44-.53.27-.76 1-.73a8.52 8.52 0 0 0 1.82-.09 21.17 21.17 0 0 0 3.12-.85 10 10 0 0 0 6.1-4.12c1.29-1.92 3.24-6.45 1.33-8.52zm-30.68 8.85c3.59 0 7 1.57 10.29 2.8a9.58 9.58 0 0 0 -5.17 4.13c-.83-3.13-3.9-2.92-6.34-2.05-2.85.71-4.42 2.12-5 5.11-2.8-3.95 2.21-9.99 6.22-9.99z" class="cjd-stroke" fill="#525a6f"></path>
         <g fill="#8089a2">
            <path class="cjd-fill" fill="#8089a2" d="m21.84 17.12a10.35 10.35 0 0 1 2.7-1.07 10.27 10.27 0 0 1 3.32-.62 5.08 5.08 0 0 1 3.68 1.39 10.69 10.69 0 0 1 1.17-1.08 19.17 19.17 0 0 0 -6.49-1.46c-1.41-.01-3.22 1.22-4.38 2.84z"></path>
            <path class="cjd-fill" fill="#8089a2" d="m60.27 3.26-.88-1.4-.16-.18-.23-.25a5.54 5.54 0 0 0 -3.9-1.43 15.11 15.11 0 0 0 -5.61 1.46 5.36 5.36 0 0 0 -1.61 1.1h-.14a47 47 0 0 1 -4.68-1 39 39 0 0 0 -9.87-1.56c-.74 0-1.49 0-2.19.11a38.88 38.88 0 0 0 -9.6 2.38 22.78 22.78 0 0 0 -9.68 6.78 17.85 17.85 0 0 0 -4.21 11.4 13.42 13.42 0 0 0 2.88 8.39 17.14 17.14 0 0 0 -4.16 1.56 12.08 12.08 0 0 0 -5.87 7.89 12.67 12.67 0 0 0 1.83 10.17 15.46 15.46 0 0 0 6.32 5.32 18.28 18.28 0 0 0 7.64 1.57 26.79 26.79 0 0 0 11.09-2.57 26.25 26.25 0 0 0 8.81-6.46 27.4 27.4 0 0 0 4.87-8.29q.39-1 .72-2.16c.5-.15 1-.31 1.51-.48a9.06 9.06 0 0 0 4.45-2.82 9.64 9.64 0 0 0 2.4-4.89 6.31 6.31 0 0 0 -3.22-6.7 7.34 7.34 0 0 0 -1.28-.57 10.46 10.46 0 0 0 1.28-.13 20.13 20.13 0 0 0 3.32-.87l.23-.08a13 13 0 0 0 7.82-5.38c1.61-2.34 3.77-7.26 2.12-10.91zm-3.38 10a11.53 11.53 0 0 1 -7 4.75l-.27.08a18.84 18.84 0 0 1 -3.06.82 10.38 10.38 0 0 1 -1.56.09h-.14l-.11.14-.07.08-.07.07a7 7 0 0 0 -1.61 2.43 7.32 7.32 0 0 1 3.06.86 4.72 4.72 0 0 1 2.43 5.07 8.38 8.38 0 0 1 -5.77 6.41c-.79.28-1.61.52-2.36.71 0 .18-.09.39-.17.65-.22.77-.47 1.53-.74 2.25a25.85 25.85 0 0 1 -4.59 7.81 24.57 24.57 0 0 1 -8.27 6.05 25 25 0 0 1 -10.44 2.47 16.78 16.78 0 0 1 -7-1.42 13.86 13.86 0 0 1 -5.68-4.76 11.14 11.14 0 0 1 -1.57-8.96 10.47 10.47 0 0 1 5.1-6.86 15.42 15.42 0 0 1 7-1.8 11.24 11.24 0 0 1 -4.9-9.55 16.25 16.25 0 0 1 3.9-10.38 21.13 21.13 0 0 1 9-6.27 37 37 0 0 1 9.16-2.3c.69-.06 1.38-.1 2.08-.1a38.13 38.13 0 0 1 9.48 1.54 45.56 45.56 0 0 0 4.86 1c.35 0 .67.08 1 .11a4.3 4.3 0 0 1 1.63-1.3 13.3 13.3 0 0 1 5-1.33 3.89 3.89 0 0 1 2.8 1l.16.15.2.22c2.36 3.06-.24 8.41-1.48 10.26z"></path>
            <path class="cjd-fill" fill="#8089a2" d="m55.26 4.42a1.47 1.47 0 0 0 -1.26.71 4.91 4.91 0 0 1 -4.34 2q-3.54.03-10.86-2.13a18.72 18.72 0 0 0 -5.16-.61 19.64 19.64 0 0 0 -13 4.46 13.59 13.59 0 0 0 -5.36 10.76 8.6 8.6 0 0 0 1.91 5.6 5.72 5.72 0 0 0 4.59 2.35 10.18 10.18 0 0 0 3.51-.67q2.22 3.2 4.85 3.2c-.38.86-.84 2-1.39 3.41q-2.58 6.44-6.5 9.59a8.48 8.48 0 0 1 -5.06 2.22q-2 0-2.37-2.37c-.14-.8.46-1.91 1.8-3.36a4.71 4.71 0 0 0 1.5-3.2q0-3.34-4.7-3.35a3.49 3.49 0 0 0 -2.11.67 8.06 8.06 0 0 0 -3.56 6.86 8.36 8.36 0 0 0 3.48 6.71 13 13 0 0 0 8.38 2.79 15.73 15.73 0 0 0 8.62-2.61 21.06 21.06 0 0 0 6.81-7.25 30.51 30.51 0 0 0 3.56-11.5 8.44 8.44 0 0 0 1-.06l.57-.05a1.16 1.16 0 0 1 .85.52 1.78 1.78 0 0 1 .44 1.18 2 2 0 0 1 0 .42c0 .31.21.46.62.46a2 2 0 0 0 1.39-.65c.45-.43.91-.85 1.39-1.26a3.82 3.82 0 0 0 .78-2.47c0-1.52-1.22-2.28-3.67-2.28a17.32 17.32 0 0 0 -2.78.26 18.79 18.79 0 0 1 1.34-4.59 16.61 16.61 0 0 1 1.08-1.75l1-1.11a1.75 1.75 0 0 0 .39-1.03c0-.69-.4-1-1.19-1a12.75 12.75 0 0 0 -3 1c-1.81.71-4.24 4.29-7.24 10.71h-1.57a8.56 8.56 0 0 1 -1.81-1.64 9.94 9.94 0 0 0 1.81-3.24 4 4 0 0 0 .2-1.19 2.54 2.54 0 0 0 -1.86-2.73 1.4 1.4 0 0 0 -.41-.05 3 3 0 0 0 -2.93 2.27 10.56 10.56 0 0 0 -.67 3.92 4.39 4.39 0 0 1 -2.26.62 3.75 3.75 0 0 1 -3-1.4 5.87 5.87 0 0 1 -.89-3.71 8.47 8.47 0 0 1 3.38-6.58 12.05 12.05 0 0 1 8-2.86q3.51 0 9.43 2.37t9.38 2.38a6.86 6.86 0 0 0 5.39-2.54 10.65 10.65 0 0 0 2.51-6.25c.12-1.3-.22-1.95-1.01-1.95z"></path>
            <path class="cjd-fill" fill="#8089a2" d="m23 32.88a9.19 9.19 0 0 1 -1-.75 6.14 6.14 0 0 1 -.81-.81l-.19-.14a11.65 11.65 0 0 1 -2.44.26 6.26 6.26 0 0 1 1.44 1.56 6.13 6.13 0 0 1 1 4.25 37.23 37.23 0 0 0 2-4.37z"></path>
         </g>
      </svg>