<svg viewBox="0 0 51.42 57.7" xmlns="http://www.w3.org/2000/svg">
         <path d="m18.17 56.11c-5.62 0-10-1.9-13.09-5.65a11.63 11.63 0 0 1 -1-12.53 11.43 11.43 0 0 1 7.13-5.21c-.14-.32-.28-.65-.41-1a12.07 12.07 0 0 1 -8.72-8.11 10.28 10.28 0 0 1 2.85-10.7c2.67-2.53 6.25-3.45 9.13-4.2a11.71 11.71 0 0 1 2.83-.24h.37a5.83 5.83 0 0 0 2.53-.33 32.42 32.42 0 0 1 5.56-3.41 30.07 30.07 0 0 1 12.22-3.14 12.6 12.6 0 0 1 9.43 3.64 9.7 9.7 0 0 1 2.79 7.77c-.31 3.7-2.48 7.36-5.06 10.12a5.62 5.62 0 0 1 .76.25 3.71 3.71 0 0 1 2.23 2.63c.69 2.91-1 5.4-2.41 7.6a17.87 17.87 0 0 0 -1.43 2.4c-.49 1.09-1 2.23-1.42 3.32a68.08 68.08 0 0 1 -3.12 6.75 17 17 0 0 1 -9.78 7.93 35.72 35.72 0 0 1 -11.39 2.11zm.63-11.11a2.24 2.24 0 0 0 .85.28c.25-.11.84-.57 2.14-2.28l.11-.15a15.9 15.9 0 0 0 1.36-2.14h-.12-.78a7.8 7.8 0 0 1 -3.56 4.29z" class="cjd-border" fill="#fff"></path>
         <path d="m12 30.35v.08a12.36 12.36 0 0 0 1.6 3.36c-3.35.61-6.42 1.85-8.18 4.92a10.07 10.07 0 0 0 .88 10.74c5.62 6.88 15.34 5.56 22.75 3a15.52 15.52 0 0 0 8.95-7.12c1.77-3.2 3-6.63 4.48-9.95 1.24-2.76 4.51-5.73 3.75-9-.57-2.39-3.63-1.84-5.43-1.84 5.2-3.79 10.79-12.38 5.1-18.23-5.2-5.26-14-2.92-19.9-.14a29.44 29.44 0 0 0 -5.28 3.24c-1.44 1.08-4.42.35-6.29.83-3 .78-6.14 1.64-8.44 3.82-6 5.7-1.71 15.07 5.88 16.27h.1zm17.45-8.23c.4-.09.78-.25 1.18-.35a12.13 12.13 0 0 1 -1.94 1.78c0-.95-.1-1.1.76-1.43.13-.03-.2.08 0 0zm6.85-10.68c0 2-1.72 4.34-2.68 6-.49-1-1.94-2-1.25-3a20.05 20.05 0 0 1 3.7-3.72 1 1 0 0 1 .23.72zm-21.74 4.69a22.35 22.35 0 0 0 -2.23 5.75c-1-1.89-.66-6.11 2.23-5.75-1.01 1.87-.31-.04 0 0zm5.17 30.7c-1.52 0-4.13-1.6-2-3 1.81-1.31 3.27-2.45 3.27-4.95a11.45 11.45 0 0 0 4.84-.12 18.61 18.61 0 0 1 -2.68 5c-.64.85-2.25 3.07-3.43 3.07z" class="cjd-stroke" fill="#525a6f"></path>
         <g fill="#8089a2">
            <path class="cjd-fill" fill="#8089a2" d="m48.12 4.12a14.13 14.13 0 0 0 -10.55-4.12 31.52 31.52 0 0 0 -12.9 3.3 33.13 33.13 0 0 0 -5.67 3.49 10.89 10.89 0 0 1 -1.69.09h-.37a12.83 12.83 0 0 0 -3.23.29c-3.11.83-6.91 1.83-9.87 4.58a11.83 11.83 0 0 0 -3.28 12.33 13.59 13.59 0 0 0 7.22 8.27 12.09 12.09 0 0 0 -5.09 4.79 12.87 12.87 0 0 0 -1.54 7.34 12.68 12.68 0 0 0 2.7 7c3.38 4.14 8.2 6.24 14.32 6.24a37.43 37.43 0 0 0 11.9-2.2 18.56 18.56 0 0 0 10.65-8.63 66.61 66.61 0 0 0 3.2-6.89c.45-1.08.92-2.21 1.41-3.28a16.9 16.9 0 0 1 1.3-2.17c1.55-2.34 3.48-5.26 2.64-8.84a5.41 5.41 0 0 0 -2-3.08 18.33 18.33 0 0 0 4.09-9.45 11.22 11.22 0 0 0 -3.24-9.06zm1.67 8.88c-.31 3.7-2.48 7.35-5.06 10.12a4.5 4.5 0 0 1 .76.25 3.73 3.73 0 0 1 2.23 2.63c.69 2.91-1 5.4-2.41 7.6a17.27 17.27 0 0 0 -1.43 2.4c-.49 1.09-1 2.22-1.42 3.32a70.25 70.25 0 0 1 -3.12 6.75 17 17 0 0 1 -9.78 7.93 35.72 35.72 0 0 1 -11.39 2.12c-5.62 0-10-1.9-13.09-5.66a11.63 11.63 0 0 1 -1-12.53 11.41 11.41 0 0 1 7.13-5.2c-.14-.33-.28-.65-.41-1a12.07 12.07 0 0 1 -8.72-8.11 10.28 10.28 0 0 1 2.85-10.71c2.67-2.53 6.25-3.45 9.13-4.2a11.23 11.23 0 0 1 2.83-.24h.37a5.83 5.83 0 0 0 2.53-.33 32.42 32.42 0 0 1 5.56-3.41 30.07 30.07 0 0 1 12.22-3.14 12.6 12.6 0 0 1 9.43 3.64 9.7 9.7 0 0 1 2.79 7.77z"></path>
            <path class="cjd-fill" fill="#8089a2" d="m44.08 6.46a10.32 10.32 0 0 0 -6.35-2q-7.47 0-15.53 7.18a13.41 13.41 0 0 0 -4.38-.52 10.69 10.69 0 0 0 -7.12 2.48 7.57 7.57 0 0 0 -2.95 6 8 8 0 0 0 2.33 5.73 9.31 9.31 0 0 0 6.29 2.89 11.2 11.2 0 0 0 3.63 6.1 9.47 9.47 0 0 0 6.39 2.48 9.18 9.18 0 0 0 4.75-1.19 20.75 20.75 0 0 1 -4.57 9q-3.16 3.51-7 3.46a4.58 4.58 0 0 1 -2.79-.85 2.56 2.56 0 0 1 -1.13-2.09 3 3 0 0 1 2.06-2.84 3.76 3.76 0 0 0 2-3.41 3.52 3.52 0 0 0 -1.39-2.81 5 5 0 0 0 -3.32-1.13 4.69 4.69 0 0 0 -3.74 1.52 9.25 9.25 0 0 0 -1.73 2.6 11.38 11.38 0 0 0 -.57 4c0 2.55 1.27 4.72 3.82 6.53a15.44 15.44 0 0 0 9.22 2.74 18.39 18.39 0 0 0 12.65-4.54c1-.9 2.18-2.83 3.56-5.78.45-.9 1.39-3.1 2.84-6.61a33.74 33.74 0 0 1 3.09-5.57 6.62 6.62 0 0 0 .8-1.47 4.74 4.74 0 0 0 0-1.58 1.19 1.19 0 0 0 -1.14-1h-4.11a3.08 3.08 0 0 0 -2.42 1.22 8.61 8.61 0 0 1 -5.27 3.4 4.54 4.54 0 0 1 -.83.1 2.61 2.61 0 0 1 -2.53-2.07 24.52 24.52 0 0 0 7.64-2.75 23.23 23.23 0 0 0 6.45-4.47 18.79 18.79 0 0 0 3-4.23 11.11 11.11 0 0 0 1-5.63 6.45 6.45 0 0 0 -2.65-4.89zm-27.69 18.47a4.31 4.31 0 0 1 -1.18.2 4.16 4.16 0 0 1 -3.33-1.67 6.13 6.13 0 0 1 -1.39-4.05 5 5 0 0 1 1.95-4 6.8 6.8 0 0 1 4.41-1.6 10.93 10.93 0 0 1 3.08.47 21.2 21.2 0 0 0 -3.54 10.65zm20.21-5.52a13.77 13.77 0 0 1 -6 5.42 9.05 9.05 0 0 1 -2.94.72 5.29 5.29 0 0 1 -.26-1.75 16.32 16.32 0 0 1 1.24-5.63 2.48 2.48 0 0 1 1.4.83 2.82 2.82 0 0 0 1.7 1c.76 0 1.13-.33 1.13-1a4.86 4.86 0 0 0 -.72-1.7 22.41 22.41 0 0 0 -2-2.54 1.14 1.14 0 0 0 .83-.67 18.33 18.33 0 0 1 3.02-3.25c2-1.86 3.59-2.78 4.8-2.78a1.8 1.8 0 0 1 .87.2 2.34 2.34 0 0 1 1.29 2.17q-.03 2.22-4.36 8.98z"></path>
            <path class="cjd-fill" fill="#8089a2" d="m21.79 43 .11-.15a15.9 15.9 0 0 0 1.36-2.14h-.12-.78a7.8 7.8 0 0 1 -3.56 4.29 2.24 2.24 0 0 0 .85.28c.25-.15.84-.61 2.14-2.28z"></path>
         </g>
      </svg>