<svg viewBox="0 0 74.52 50.32" xmlns="http://www.w3.org/2000/svg">
         <path d="m17 48.74a17.47 17.47 0 0 1 -9.47-2.68c-.19-.07-.25-.12-1.15-.81l-.78-.6a1.72 1.72 0 0 1 -.4-.42 11.46 11.46 0 0 1 -3.54-7.34 11.3 11.3 0 0 1 3.14-8.62 12.55 12.55 0 0 1 8.7-3.63 7.83 7.83 0 0 1 4.87 1.54 22.66 22.66 0 0 1 4.27-3 7.33 7.33 0 0 1 -6-5.11 10.23 10.23 0 0 1 .75-7.71 13.68 13.68 0 0 1 5-5.62 20.83 20.83 0 0 1 9.14-2.81 5.27 5.27 0 0 1 3.34 1 3.32 3.32 0 0 1 1.43 2.49c.08 1.63-1.18 2.83-2.18 3.79a6.7 6.7 0 0 0 -.86.9.83.83 0 0 0 -.13.42c.14-.08.34-.22.48-.32l.39-.29a31.1 31.1 0 0 0 3-2.4c.83-.71 1.69-1.45 2.62-2.13 1.72-1.26 5.4-3.13 8.47-3.13a5.69 5.69 0 0 1 2.37.47 3.33 3.33 0 0 1 2.1 2.51 3.83 3.83 0 0 1 -.45 2.32 24.84 24.84 0 0 1 6-3.72 23.49 23.49 0 0 1 8.72-2.25c4 0 5.37 2.35 5.8 3.75 2.05 6.59-6.63 12.88-9.28 14.66a32.52 32.52 0 0 1 -4.59 2.49c-.91.4-.93.41-1.4 1.23-.38.67-.76 1.37-1.14 2.07-.7 1.3-1.45 2.72-2.17 4.21a8.18 8.18 0 0 1 2.62-.49 4.17 4.17 0 0 1 2.83 1 3.52 3.52 0 0 1 1.22 2.74c0 3-3.55 6.48-6.62 9.14l-.12.1a23.21 23.21 0 0 1 -11.41 5.36 8.36 8.36 0 0 1 -1.4.12 7.13 7.13 0 0 1 -5.33-2.31 9.29 9.29 0 0 1 -2.06-3.8 26.82 26.82 0 0 1 -6.05 4.14 24.16 24.16 0 0 1 -10.73 2.74z" class="cjd-border" fill="#fff"></path>
         <path d="m7.31 44c8.59 6.6 21.57 1.94 27.69-5.8-.31 4.41 2.41 8.87 7.32 8.06a21.77 21.77 0 0 0 10.63-5c1.64-1.43 8.33-7.09 5.5-9.6-1.92-1.71-6.29.73-7.78 2a81.48 81.48 0 0 1 4.15-8.66c.38-.71.76-1.41 1.16-2.1a3.47 3.47 0 0 1 2.13-1.9 29.24 29.24 0 0 0 4.37-2.36c3.58-2.35 10.19-7.83 8.63-12.85-1.49-4.79-9.25-1.79-12.39-.5a27.82 27.82 0 0 0 -8.4 6.07 52.83 52.83 0 0 0 -3.64 4c-.65.78-2.31 3.77-3.23 3.81 1-2.72 1.95-5.8 3.59-8.24 1.13-1.23 6.33-5.11 2.79-6.74-2.5-1.16-7.2 1-9.24 2.5s-3.65 3.21-5.69 4.56c-.7.47-1.42 1.16-2.31.82a1.85 1.85 0 0 1 -.66-2.79c.85-1.4 4.41-3.22 2-5.12s-8.48.6-10.67 1.94c-3.58 2.19-6.5 7.21-5.08 11.48 1.62 4.91 7 4.66 11 3.42-1 1.67-1.72 1.58-3.42 2.37a22.66 22.66 0 0 0 -7.4 5.09c-2.77-3.85-9.6-2.1-12.41.91-4.24 4.52-3.49 10.89 1.36 14.63 2.69 2.08-2.82-2.17 0 0zm13.8-11.53a10.62 10.62 0 0 0 1.46-.47c-.86 1.47-4.56 8.26-6.74 6.45-1.33-1.08-.15-2.18.93-2.7a4.42 4.42 0 0 0 2.43-3.3 2.76 2.76 0 0 0 1.92 0c.14-.01-.27.12 0 .01z" class="cjd-stroke" fill="#525a6f"></path>
         <g fill="#8089a2">
            <path class="cjd-fill" fill="#8089a2" d="m74.14 4.86c-.46-1.46-2.08-4.86-7.32-4.86a25.1 25.1 0 0 0 -9.35 2.37 23 23 0 0 0 -3.47 1.88 5 5 0 0 0 -2.82-3 7.19 7.19 0 0 0 -3-.61c-3.71 0-7.78 2.24-9.41 3.43l-.86.66a5 5 0 0 0 -2-3.11 6.79 6.79 0 0 0 -4.35-1.29 22.33 22.33 0 0 0 -10 3 15.43 15.43 0 0 0 -5.56 6.32 11.88 11.88 0 0 0 -.83 8.91 8.89 8.89 0 0 0 3.94 5c-.29.21-.58.43-.85.65a9.83 9.83 0 0 0 -4.74-1.14 14.06 14.06 0 0 0 -9.86 4.12 12.69 12.69 0 0 0 .34 18.08 3.52 3.52 0 0 0 .64.64l.78.6a7.38 7.38 0 0 0 1.4 1 19.07 19.07 0 0 0 10.18 2.81 25.58 25.58 0 0 0 11.49-2.88 29.17 29.17 0 0 0 4.68-3 10.19 10.19 0 0 0 1.56 2.24 8.67 8.67 0 0 0 6.49 2.81 9.46 9.46 0 0 0 1.66-.14 24.69 24.69 0 0 0 12.12-5.68l.13-.11c3.53-3.05 7.14-6.66 7.16-10.32a5.18 5.18 0 0 0 -1.75-3.94 5.64 5.64 0 0 0 -3.67-1.39l.73-1.38c.38-.7.75-1.38 1.12-2 .07-.12.16-.28.22-.37l.44-.2a32.41 32.41 0 0 0 4.83-2.62 33.15 33.15 0 0 0 6.79-5.84c3.08-3.63 4.17-7.31 3.14-10.64zm-10.79 15.14a31.09 31.09 0 0 1 -4.6 2.48c-.9.4-.92.41-1.39 1.24-.38.67-.77 1.36-1.14 2.06-.7 1.31-1.45 2.73-2.17 4.22a8.18 8.18 0 0 1 2.62-.49 4.17 4.17 0 0 1 2.83 1 3.5 3.5 0 0 1 1.22 2.74c0 3-3.55 6.48-6.62 9.13l-.12.11a23.29 23.29 0 0 1 -11.41 5.36 9.54 9.54 0 0 1 -1.4.11 7.13 7.13 0 0 1 -5.33-2.31 9.13 9.13 0 0 1 -2.06-3.79 26.82 26.82 0 0 1 -6.05 4.14 24.12 24.12 0 0 1 -10.73 2.74 17.35 17.35 0 0 1 -9.5-2.68c-.2-.07-.26-.12-1.16-.81l-.78-.6a2 2 0 0 1 -.4-.42 11.45 11.45 0 0 1 -3.54-7.33 11.31 11.31 0 0 1 3.18-8.63 12.56 12.56 0 0 1 8.7-3.62 7.8 7.8 0 0 1 4.87 1.53 23.34 23.34 0 0 1 4.28-3 7.33 7.33 0 0 1 -6-5.11 10.28 10.28 0 0 1 .75-7.71 13.75 13.75 0 0 1 5-5.62 20.92 20.92 0 0 1 9.14-2.81 5.32 5.32 0 0 1 3.35 1 3.33 3.33 0 0 1 1.42 2.49c.08 1.63-1.17 2.83-2.18 3.79a6.14 6.14 0 0 0 -.86.91.77.77 0 0 0 -.13.41c.14-.08.34-.22.48-.32l.38-.29a29.94 29.94 0 0 0 3-2.4c.83-.71 1.69-1.45 2.62-2.13 1.72-1.26 5.41-3.13 8.47-3.13a5.69 5.69 0 0 1 2.37.47 3.31 3.31 0 0 1 2.1 2.51 3.83 3.83 0 0 1 -.45 2.32 24.84 24.84 0 0 1 6-3.72 23.53 23.53 0 0 1 8.72-2.25c4 0 5.37 2.35 5.8 3.75 2.05 6.58-6.63 12.88-9.28 14.66z"></path>
            <path class="cjd-fill" fill="#8089a2" d="m66.78 4.51q-5 0-11.14 5.73a55.32 55.32 0 0 0 -8.31 9.85 17.09 17.09 0 0 1 -2.94.31c-.35 0-.83 0-1.45.05s-1.06.05-1.34.05q3-8.38 4.44-10.38a36.65 36.65 0 0 1 3.35-3.35 1.2 1.2 0 0 0 .36-.77c0-.58-.53-.87-1.6-.87q-1.9 0-5.57 3.3-5.56 5-9.34 5a2.92 2.92 0 0 1 -2.06-.8 2.49 2.49 0 0 1 -.88-1.93 3.81 3.81 0 0 1 1-2.74l1.7-1.44a1.31 1.31 0 0 0 .42-.83c0-.55-.47-.82-1.4-.82a9 9 0 0 0 -6.7 2.89 9.66 9.66 0 0 0 -2.79 7 4.49 4.49 0 0 0 1.6 3.46 5.56 5.56 0 0 0 3.87 1.4q3 0 7.89-2.68l-3.35 5.52a2.1 2.1 0 0 0 -.78.24 2.21 2.21 0 0 1 -.72.23 22.56 22.56 0 0 0 -5.36 2.94 16.25 16.25 0 0 0 -3.05 2.53.92.92 0 0 1 -.13.36 1.1 1.1 0 0 0 -.13.41c0 .79.38 1.19 1.14 1.19a1 1 0 0 0 .87-.37 42.07 42.07 0 0 1 3.46-2.78 9 9 0 0 1 2.69-1.4q-2.85 4.74-3.82 6.43a20.23 20.23 0 0 1 -5.71 6.69 6.46 6.46 0 0 1 -3.51 1.39 3.78 3.78 0 0 1 -2.49-.85 2.61 2.61 0 0 1 -1-2.08 2.7 2.7 0 0 1 1.91-2.63 3.3 3.3 0 0 0 2.09-3.44 3.72 3.72 0 0 0 -1.21-2.75 4.08 4.08 0 0 0 -2.92-1.15 4.45 4.45 0 0 0 -3.15 1.28 8.71 8.71 0 0 0 -3.02 6.3 8.54 8.54 0 0 0 3.74 7 14.26 14.26 0 0 0 9 2.89q8.16 0 14.24-8.29a34.53 34.53 0 0 0 5.37-11.3c.28-1 .5-1.79.67-2.27a15.3 15.3 0 0 1 2.58-.1l2.22.05a62 62 0 0 0 -3.3 6.57q-.93 2.28-1.86 4.5a10.6 10.6 0 0 0 -.77 4 6.85 6.85 0 0 0 1.19 4.14 4.24 4.24 0 0 0 3.66 1.91q2.88 0 6.65-2.94a31.48 31.48 0 0 0 6.51-7.07 1.15 1.15 0 0 0 0-1.39 1.62 1.62 0 0 0 -1.4-.16 30.19 30.19 0 0 0 -2.6 2.33c-.67.68-1.32 1.35-1.94 2a3.76 3.76 0 0 1 -2.66 1.07c-.35-.07-.52-.38-.52-.93 0-1.37 1-4.06 2.94-8q2.18-4.55 4.49-8.41a26.51 26.51 0 0 0 11.2-7.63q2.89-3.52 2.89-5.83c0-1.75-1-2.63-3.22-2.63zm-1.7 6.86c-.72.86-1.31 1.55-1.76 2.06a14.5 14.5 0 0 1 -5.16 3.46c1.28-2 2.76-4 4.44-6.19 1.34-1.7 2.4-2.63 3.1-2.63.58 0 .88.2.88.62a6.66 6.66 0 0 1 -1.5 2.68z"></path>
         </g>
      </svg>