<svg viewBox="0 0 54.88 50.22" xmlns="http://www.w3.org/2000/svg">
         <path d="m15.59 48.64a14.34 14.34 0 0 1 -8.24-2.4 3.22 3.22 0 0 1 -.58-.41l-.51-.42-.5-.41a2.56 2.56 0 0 1 -.59-.63 11.91 11.91 0 0 1 -1.6-15.07c1.75-2.67 6.52-5 10.21-5h.63a14 14 0 0 1 .86-7.52 20.07 20.07 0 0 1 6.28-8.28 34.77 34.77 0 0 1 18.52-6.83c.88-.06 1.66-.08 2.39-.08a16.5 16.5 0 0 1 7.81 1.59c2 1 3 2.42 3 4.08 0 2-1.56 3.1-2.6 3.82-.17.11-.33.22-.47.33-3.34 2.47-5.12 5.41-6.63 9.37a3.26 3.26 0 0 1 3.1 3.46c0 2.9-3 4.85-4.92 6.15l-.52.34-.33.27c-.89.6-1 .69-1.38 1.48a32.29 32.29 0 0 1 -1.7 3.31 31.34 31.34 0 0 1 -4.52 5.9c-3.54 3.64-8.13 5-12.17 6.16a19.78 19.78 0 0 1 -5.54.79zm18.12-36.53a11.2 11.2 0 0 0 -2.57 2.68 14 14 0 0 0 -1.63 3 57.42 57.42 0 0 1 4.2-5.68z" class="cjd-border" fill="#fff"></path>
         <path d="m7.46 44.33c3.65 3.06 8.82 3.25 13.23 2 4.25-1.24 8.3-2.48 11.47-5.74a30.05 30.05 0 0 0 4.3-5.59 31 31 0 0 0 1.61-3.14c.59-1.35 1.09-1.57 2.29-2.39 1.64-1.11 4.74-2.91 4.74-5.18s-2.35-2-3.86-1.56c1.69-5.12 3.57-9.24 8-12.54 1-.74 2.44-1.45 2.44-2.88s-1.14-2.14-2.18-2.68c-2.76-1.46-6.32-1.51-9.36-1.33a33.1 33.1 0 0 0 -17.64 6.5c-4.94 3.89-8.56 10.77-5.72 17-3.11-2.39-10 .52-11.91 3.4-3.16 4.8-1.71 10.58 2.59 14.13 2.15 1.8-2.87-2.33 0 0zm29.45-35a10.22 10.22 0 0 1 1.56.1c-4.59 4.21-7.89 9.41-11 14.76-1.89-5.35 3.53-14.86 9.44-14.86zm-14.7 22.72a49.63 49.63 0 0 1 -4.15 4.67c-.74.74-2.7 3.21-3.5 1.52s2.44-2.81 3.37-3.94a5.06 5.06 0 0 0 .79-4.73 11.63 11.63 0 0 0 3.49 2.48c-.15.19-1.34-.63 0 0z" class="cjd-stroke" fill="#525a6f"></path>
         <g fill="#8089a2">
            <path class="cjd-fill" fill="#8089a2" d="m51 1.77a18.05 18.05 0 0 0 -8.54-1.77c-.77 0-1.58 0-2.48.08a36.45 36.45 0 0 0 -19.42 7.17 21.78 21.78 0 0 0 -6.77 9 16.07 16.07 0 0 0 -1.15 6.55c-4 .41-8.54 2.83-10.4 5.66a13.23 13.23 0 0 0 -2.16 8.75 14.1 14.1 0 0 0 3.83 8.14 4.3 4.3 0 0 0 .83.86l.51.42.51.42a4.82 4.82 0 0 0 .77.55 16 16 0 0 0 9.06 2.62 21.37 21.37 0 0 0 6-.87c4.24-1.24 9-2.64 12.86-6.58a33.05 33.05 0 0 0 4.76-6.21 31.5 31.5 0 0 0 1.79-3.47c.14-.3.17-.35.18-.35a5.3 5.3 0 0 1 .64-.46l.35-.23.48-.33c2.11-1.39 5.64-3.72 5.64-7.47a4.86 4.86 0 0 0 -2.57-4.46 16.31 16.31 0 0 1 5.45-7.1l.43-.29c1.15-.8 3.29-2.27 3.29-5.13-.01-1.59-.68-3.83-3.89-5.5zm-.32 9.31-.47.33c-3.34 2.48-5.12 5.41-6.63 9.38a3.25 3.25 0 0 1 3.1 3.45c0 2.9-3 4.85-4.92 6.15l-.52.34-.34.27c-.89.6-1 .69-1.38 1.48a31.16 31.16 0 0 1 -6.22 9.21c-3.54 3.64-8.13 5-12.17 6.16a19.78 19.78 0 0 1 -5.54.82 14.27 14.27 0 0 1 -8.24-2.41 2.73 2.73 0 0 1 -.58-.4l-.51-.42-.5-.44a2.56 2.56 0 0 1 -.59-.63 11.92 11.92 0 0 1 -1.59-15.08c1.74-2.67 6.51-5 10.2-5h.63a14 14 0 0 1 .86-7.52 20.07 20.07 0 0 1 6.28-8.27 34.77 34.77 0 0 1 18.52-6.83c.88-.06 1.66-.08 2.39-.08a16.5 16.5 0 0 1 7.81 1.59c2 1 3 2.42 3 4.08.02 2.02-1.54 3.1-2.58 3.82z"></path>
            <path class="cjd-fill" fill="#8089a2" d="m31.14 14.78a14.29 14.29 0 0 0 -1.63 3 57.42 57.42 0 0 1 4.2-5.72 11.34 11.34 0 0 0 -2.57 2.72z"></path>
            <path class="cjd-fill" fill="#8089a2" d="m48.94 5.71q-2.32-1.25-7.12-1.24a23.66 23.66 0 0 0 -14.6 4.85q-6.82 5.06-6.71 12.12a9.07 9.07 0 0 0 2.11 5.84 10.68 10.68 0 0 0 5 3.2c-.45.58-1 1.23-1.55 2-4.33 5.29-7.67 8-10 8a2.92 2.92 0 0 1 -2-.78 2.4 2.4 0 0 1 -.85-1.86 3 3 0 0 1 .39-1.52 2.15 2.15 0 0 1 .69-.85c2.31-1 3.46-2.36 3.46-4.18a4.34 4.34 0 0 0 -.71-2.29 3.26 3.26 0 0 0 -3-1.86 5.17 5.17 0 0 0 -2.89 1 5.9 5.9 0 0 0 -2.06 2.08 10.69 10.69 0 0 0 -1.34 4.9q0 4 3.87 7.22a11 11 0 0 0 7.37 2.43 17.41 17.41 0 0 0 6.45-1.29 14.26 14.26 0 0 0 4.85-2.84 28.38 28.38 0 0 0 7.33-11 26.18 26.18 0 0 0 5-3.56c.79-.69 1.19-1.29 1.19-1.81s-.28-.72-.83-.72a5.12 5.12 0 0 0 -2.06 1.14c-1.31.92-2 1.42-2.17 1.49 1.34-4.16 2.24-6.83 2.68-8a18 18 0 0 1 2.95-5.26 25.72 25.72 0 0 1 3.3-3.15c.21-.17.94-.72 2.22-1.65a1 1 0 0 0 .51-.83c.02-.55-.48-1.06-1.48-1.58zm-13.11 11.69q-1.23 1.76-3 4.86c-1.27 2.28-2.32 4-3.15 5.27q-4-1.08-3.71-5.68a15.22 15.22 0 0 1 5.21-11.13 13.47 13.47 0 0 1 9.08-3.67 9.34 9.34 0 0 1 4.18.83 43.92 43.92 0 0 0 -8.61 9.52z"></path>
         </g>
      </svg>