<svg viewBox="0 0 55.58 53.92" xmlns="http://www.w3.org/2000/svg">
         <path d="m15.85 52.33a15 15 0 0 1 -8.46-2.33 5.33 5.33 0 0 1 -.95-.71l-.87-.72a1.74 1.74 0 0 1 -.39-.44c-3.92-4.13-4.71-9.48-1.95-14.13 1.72-3.1 7-5.26 10.59-5.26a8.55 8.55 0 0 1 1.82.19c-.05-.11-.11-.23-.16-.35a14.42 14.42 0 0 1 0-11.79c3.59-8.38 12.62-12.11 17.69-13.59a32.39 32.39 0 0 1 9.71-1.61h1.33a21.27 21.27 0 0 1 5.4.86c3.63 1.18 4.39 3.21 4.39 4.72 0 2-1.63 3.19-2.71 3.95-.25.17-.48.34-.66.49a34 34 0 0 0 -4 3.89 19.48 19.48 0 0 0 -3.34 6.1 3.72 3.72 0 0 1 1.93 1.23 3.35 3.35 0 0 1 .56 2.94c-.53 2.22-2.7 3.83-4.43 5.12-.33.24-.63.46-.88.67-.72.56-1.24 2.6-1.62 4.08a21.49 21.49 0 0 1 -.73 2.46 24.44 24.44 0 0 1 -3.77 6.82c-3.13 3.82-7.77 5.17-11.87 6.36a22.78 22.78 0 0 1 -6.63 1.05zm4.83-18.12c0 .2.06.41.07.61a6.33 6.33 0 0 1 -.06 1.38c.31-.48.62-1 .92-1.51a8.17 8.17 0 0 1 -.93-.48zm13.46-22.09a11.93 11.93 0 0 0 -2.55 2.75 14.7 14.7 0 0 0 -1 1.65 43.17 43.17 0 0 1 3.55-4.4z" class="cjd-border" fill="#fff"></path>
         <path d="m7.45 48c4 3.32 9.84 3.22 14.58 1.76 4.09-1.19 8.28-2.41 11.09-5.85a23.12 23.12 0 0 0 3.52-6.38c.78-2 1.2-5.91 2.84-7.22s4.27-2.89 4.76-4.91-1.6-2.68-3.18-2.28c1-3 2.25-6.26 4.38-8.68a35.73 35.73 0 0 1 4.18-4.07c1-.85 2.79-1.65 2.79-3.21 0-3.3-6-3.85-8.28-4a30 30 0 0 0 -10.5 1.52c-6.73 2-13.8 5.94-16.71 12.68-2.84 6.57-.19 14.31 7 16.46a34.93 34.93 0 0 1 -4.78 7.06c-.57.63-1.67 2.19-2.56 1.67-1.08-.64-1.72-1.84-.47-2.46 4-2 4.33-7.88-.3-9.53-3.22-1.14-9.55 1.2-11.17 4.16-2.85 4.81-1.28 9.91 2.81 13.28zm30.32-38.91a10.28 10.28 0 0 1 1.57.12 42.39 42.39 0 0 0 -11.34 15.3c-2.1-5.51 3.63-15.42 9.77-15.42z" class="cjd-stroke" fill="#525a6f"></path>
         <g fill="#8089a2">
            <path class="cjd-fill" fill="#8089a2" d="m50.09 1a23.07 23.07 0 0 0 -5.8-1c-.46 0-.94 0-1.41 0a34.05 34.05 0 0 0 -10.16 1.68c-5.34 1.56-14.85 5.51-18.72 14.46a16.21 16.21 0 0 0 -.76 11c-4.1.21-9.47 2.58-11.4 6-3.07 5.29-2.27 11.36 2.1 15.94a3.55 3.55 0 0 0 .62.67l.86.71a7.16 7.16 0 0 0 1.17.86 16.6 16.6 0 0 0 9.26 2.6 24.12 24.12 0 0 0 7.08-1.11c4.1-1.19 9.2-2.67 12.65-6.87a26.23 26.23 0 0 0 4-7.25 23.65 23.65 0 0 0 .78-2.64 14.42 14.42 0 0 1 1.11-3.26c.22-.18.5-.39.8-.61 1.84-1.37 4.36-3.25 5-6a4.85 4.85 0 0 0 -2-5.35 15.63 15.63 0 0 1 2.5-4.25 31.47 31.47 0 0 1 3.79-3.7c.14-.12.35-.26.57-.42 1.18-.83 3.38-2.39 3.38-5.25.08-1.71-.64-4.73-5.42-6.21zm1.2 10.15c-.25.18-.48.34-.66.49a34 34 0 0 0 -4 3.89 19.59 19.59 0 0 0 -3.34 6.1 3.67 3.67 0 0 1 1.93 1.24 3.34 3.34 0 0 1 .56 2.94c-.53 2.21-2.7 3.82-4.43 5.11-.33.24-.63.47-.88.67-.72.56-1.24 2.6-1.62 4.08a21.49 21.49 0 0 1 -.73 2.46 24.3 24.3 0 0 1 -3.77 6.82c-3.13 3.82-7.77 5.17-11.87 6.36a22.78 22.78 0 0 1 -6.63 1 15 15 0 0 1 -8.46-2.31 4.84 4.84 0 0 1 -.95-.71l-.87-.72a1.74 1.74 0 0 1 -.39-.44c-3.92-4.13-4.71-9.48-1.95-14.13 1.72-3.1 7-5.26 10.59-5.26a8.55 8.55 0 0 1 1.82.19l-.16-.34a14.44 14.44 0 0 1 0-11.8c3.59-8.37 12.62-12.1 17.69-13.59a32.39 32.39 0 0 1 9.71-1.61h1.33a22.19 22.19 0 0 1 5.4.86c3.63 1.18 4.39 3.21 4.39 4.72 0 2.04-1.63 3.19-2.71 3.95z"></path>
            <path class="cjd-fill" fill="#8089a2" d="m49.75 5.73a16.29 16.29 0 0 0 -7.23-1.29 24.33 24.33 0 0 0 -15.06 5.26q-7.18 5.46-7.07 12.54a9.31 9.31 0 0 0 2.61 6.6 10.63 10.63 0 0 0 6.11 3.16 42.77 42.77 0 0 1 -2.48 4.44q-4.9 7.74-9 7.74a3.58 3.58 0 0 1 -2.45-1 3.13 3.13 0 0 1 -1.11-2.4c0-.79.19-1.25.57-1.39q3.36-1.31 3.36-3.63a4.53 4.53 0 0 0 -.68-2.22 3.63 3.63 0 0 0 -3.35-2 5.63 5.63 0 0 0 -2.86.83 5.2 5.2 0 0 0 -2 2 10.09 10.09 0 0 0 -1.34 4.7q0 3.77 3.87 7a11.51 11.51 0 0 0 7.58 2.42 19.71 19.71 0 0 0 6.78-1.28 15.34 15.34 0 0 0 5-2.84 17.44 17.44 0 0 0 3.92-5.93 70.18 70.18 0 0 0 2.84-8.36q2.84-2.22 4.07-3.4c.76-.68 1.17-1.3 1.17-1.81s-.31-.67-.83-.67a2 2 0 0 0 -1.44.67 14 14 0 0 1 -2.06 1.65q2.73-9.39 5.83-12.9a35.89 35.89 0 0 1 6.07-5.62 1.11 1.11 0 0 0 .57-.87c0-.48-.46-.96-1.39-1.4zm-12.64 10.37a27.7 27.7 0 0 0 -3.87 6.14c-.87 2.13-1.74 4.27-2.64 6.4a6 6 0 0 1 -3.09-2.32 7.09 7.09 0 0 1 -1.14-4.49 15.48 15.48 0 0 1 5.47-11.2 14 14 0 0 1 9.29-3.82 7.87 7.87 0 0 1 4.13 1q-2.9 1.94-8.15 8.29z"></path>
         </g>
      </svg>