<svg viewBox="0 0 73.54 50.97" xmlns="http://www.w3.org/2000/svg">
         <path d="m17 49.38a24 24 0 0 1 -2.54-.14c-4.95-.58-10.68-3.75-12.46-9.55a11.33 11.33 0 0 1 1-8.61 9 9 0 0 1 5.41-4.37 20.56 20.56 0 0 1 6.19-1.24c4.06 0 5.72 2.29 6.39 4.21a5.71 5.71 0 0 1 .27 2.42c2-2.73 3.86-5.66 5.66-8.53a12.47 12.47 0 0 1 -2.12.19 9.46 9.46 0 0 1 -4.32-1 6.9 6.9 0 0 1 -.71-.38 4.42 4.42 0 0 1 -.86-.58 6.91 6.91 0 0 1 -3-5.7 11 11 0 0 1 2.19-6.15 15.84 15.84 0 0 1 4.7-4.37 28.55 28.55 0 0 1 8-3 6 6 0 0 1 1.36-.17 3.84 3.84 0 0 1 3.62 2.13 4.65 4.65 0 0 1 -.92 4.89 7.87 7.87 0 0 1 -1 .92c-.16.13-.42.34-.61.52a5.78 5.78 0 0 0 .94-.65c.84-.69 1.63-1.47 2.47-2.3a26.64 26.64 0 0 1 4.21-3.6 13.42 13.42 0 0 1 6.22-1.89 4.22 4.22 0 0 1 3.06 1.07 3.8 3.8 0 0 1 1.12 3.26 25.17 25.17 0 0 1 7.58-3.78 23.5 23.5 0 0 1 6.65-1.39c4.3 0 5.69 2.64 6.14 4.21a7.23 7.23 0 0 1 -.64 5.71c-2.11 3.7-6.81 5.19-8.3 5.59a9.68 9.68 0 0 1 -3.13.57c-.26 0-.52 0-.78 0a7.31 7.31 0 0 1 -2.06-.67 6 6 0 0 0 -1.06-.36h-.18a4.12 4.12 0 0 0 -2.38 1.53 6.69 6.69 0 0 1 2.75 1.83 6.15 6.15 0 0 1 1.52 4.84 25.51 25.51 0 0 1 -1.2 4.93 7.55 7.55 0 0 1 1.88-.27 5.43 5.43 0 0 1 .92.08 3.32 3.32 0 0 1 2.77 2.22c.8 2.62-2.13 5.59-2.26 5.71-.53.53-1.07 1.1-1.6 1.65a45.79 45.79 0 0 1 -4.62 4.38c-2.74 2.15-7.55 4.48-11.64 4.48a8.66 8.66 0 0 1 -2.77-.42 5.86 5.86 0 0 1 -3.65-3.16 7.48 7.48 0 0 1 -.63-2.94 26.61 26.61 0 0 1 -4.3 3.62 23.74 23.74 0 0 1 -13.28 4.26z" class="cjd-border" fill="#fff"></path>
         <path d="m20.69 21.08c3.27 1.88 6.3 1 9.65 0-2.67 4.19-5.23 8.49-8.21 12.48a39.31 39.31 0 0 1 -3.75 4.44c-.5.49-2.74 2.87-3 .94-.3-2.36 1.18-2.06 2.47-3.27a5.57 5.57 0 0 0 1.6-5.42c-1.62-4.62-7.23-3.1-10.62-2-4.6 1.25-6.57 6.71-5.28 11 1.45 4.75 6.27 7.85 11.06 8.41 9.88 1.15 19.15-5.11 23.39-13.73-1.48 3.49-3.84 10.49 1.35 12.19 3.95 1.29 9.92-1.43 12.94-3.8a73.63 73.63 0 0 0 6.08-5.9c1.24-1.24 3.47-4.64.31-5.25-1.53-.29-3.56.67-5 1.13.76-2.44 1.85-5.06 2.13-7.61.37-3.37-2.66-5.67-5.84-5.28 1.43-1.62 3.54-4.7 6-4.3 1.07.18 1.93.82 3 .93a7.7 7.7 0 0 0 3.29-.47c4.11-1.06 9.33-4.25 7.88-9.33-1.38-4.74-7.55-2.84-10.84-1.79-5.3 1.55-9.43 5.14-13.3 8.85 1-2 5.41-6.43 3.07-8.72-1.49-1.47-5.75 0-7.3 1-2.44 1.55-4.31 4-6.54 5.79-1.1.89-2.77 2-3.64.07-.6-1.34 1.39-2.29 2.08-3.11 1.93-2.33.65-5-2.48-4.29a27.64 27.64 0 0 0 -7.57 2.87c-4.69 2.74-9.45 10.39-2.88 14.14z" class="cjd-stroke" fill="#525a6f"></path>
         <g fill="#8089a2">
            <path class="cjd-fill" fill="#8089a2" d="m73.17 5.36c-.46-1.61-2.17-5.36-7.67-5.36a24.67 24.67 0 0 0 -7.13 1.41 25.11 25.11 0 0 0 -5.93 2.59 5.42 5.42 0 0 0 -1.19-1.72 5.74 5.74 0 0 0 -4.17-1.49 14.89 14.89 0 0 0 -7.08 2.14 18.82 18.82 0 0 0 -2.46 1.89 5.16 5.16 0 0 0 -.35-1 5.39 5.39 0 0 0 -5.06-3 8.06 8.06 0 0 0 -1.73.2 30.46 30.46 0 0 0 -8.4 3.18 17.61 17.61 0 0 0 -5.23 4.8 12.44 12.44 0 0 0 -2.48 7.06 8.49 8.49 0 0 0 3.57 6.94 6 6 0 0 0 1.09.72c.35.21.59.34.82.45a11.11 11.11 0 0 0 4.14 1.13c-.62 1-1.24 1.92-1.87 2.85-.95-1.92-3-4.29-7.47-4.29a21.94 21.94 0 0 0 -6.65 1.31 10.54 10.54 0 0 0 -6.34 5.12 13 13 0 0 0 -1.06 9.85c1.94 6.5 8.29 10 13.72 10.67a22.44 22.44 0 0 0 2.76.19 25.31 25.31 0 0 0 14.21-4.51c.83-.56 1.63-1.17 2.4-1.81a3.9 3.9 0 0 0 .2.47 7.4 7.4 0 0 0 4.59 4 10.72 10.72 0 0 0 3.27.49c4.49 0 9.57-2.42 12.62-4.82a48.12 48.12 0 0 0 4.71-4.54c.51-.54 1.05-1.1 1.58-1.62s3.7-3.83 2.64-7.29a4.83 4.83 0 0 0 -4-3.32 6.38 6.38 0 0 0 -.89-.1 20 20 0 0 0 .67-2.95 7.66 7.66 0 0 0 -2-6l-.16-.18a7.21 7.21 0 0 0 1.73.41c.32 0 .63.05 1 .05a11 11 0 0 0 3.58-.64c2-.54 6.88-2.22 9.23-6.31a8.82 8.82 0 0 0 .79-6.97zm-2.17 6.15c-2.11 3.7-6.81 5.19-8.3 5.58a9.71 9.71 0 0 1 -3.13.58c-.26 0-.52 0-.78 0a7.66 7.66 0 0 1 -2.06-.67 5.18 5.18 0 0 0 -1.07-.36h-.17a4.12 4.12 0 0 0 -2.38 1.53 6.76 6.76 0 0 1 2.75 1.83 6.15 6.15 0 0 1 1.52 4.84 24.83 24.83 0 0 1 -1.21 4.93 7.63 7.63 0 0 1 1.89-.27 5.43 5.43 0 0 1 .92.08 3.31 3.31 0 0 1 2.77 2.22c.8 2.62-2.13 5.59-2.26 5.71-.53.53-1.07 1.1-1.6 1.65a46.88 46.88 0 0 1 -4.62 4.38c-2.74 2.18-7.55 4.46-11.64 4.46a8.66 8.66 0 0 1 -2.77-.41 5.86 5.86 0 0 1 -3.65-3.16 7.48 7.48 0 0 1 -.63-2.94 26.26 26.26 0 0 1 -4.31 3.62 23.69 23.69 0 0 1 -13.27 4.27 21.5 21.5 0 0 1 -2.54-.14c-4.95-.57-10.68-3.75-12.46-9.55a11.33 11.33 0 0 1 1-8.61 8.9 8.9 0 0 1 5.41-4.37 20.56 20.56 0 0 1 6.19-1.24c4.06 0 5.71 2.29 6.38 4.21a5.76 5.76 0 0 1 .28 2.43c2-2.74 3.86-5.67 5.66-8.53a13.58 13.58 0 0 1 -2.12.18 9.58 9.58 0 0 1 -4.32-1c-.17-.08-.38-.2-.71-.39a4.52 4.52 0 0 1 -.87-.58 6.92 6.92 0 0 1 -3-5.7 10.84 10.84 0 0 1 2.17-6.09 15.83 15.83 0 0 1 4.69-4.38 29.06 29.06 0 0 1 8-3 5.86 5.86 0 0 1 1.36-.16 3.85 3.85 0 0 1 3.62 2.12 4.63 4.63 0 0 1 -.93 4.89 7.78 7.78 0 0 1 -1 .92 6.75 6.75 0 0 0 -.61.53 7.17 7.17 0 0 0 .94-.66c.84-.68 1.63-1.47 2.47-2.3a26.64 26.64 0 0 1 4.21-3.6 13.34 13.34 0 0 1 6.22-1.89 4.18 4.18 0 0 1 3.05 1.07 3.83 3.83 0 0 1 1.13 3.27 25.25 25.25 0 0 1 7.57-3.79 23.65 23.65 0 0 1 6.71-1.43c4.29 0 5.69 2.64 6.14 4.21a7.23 7.23 0 0 1 -.64 5.71z"></path>
            <path class="cjd-fill" fill="#8089a2" d="m65.35 4.43a13.85 13.85 0 0 0 -7 2.21 53.77 53.77 0 0 0 -8.72 7.12q-4.4 4.24-9.21 9.71 3.58-10.56 7.23-15.32a3.07 3.07 0 0 0 .77-1.81c0-.76-.39-1.14-1.18-1.14a3.08 3.08 0 0 0 -2 .83c-2.44 2.18-4.24 3.77-5.24 4.78q-3.87 3.42-7 3.06a3.4 3.4 0 0 1 -2.07-1 2.7 2.7 0 0 1 -.82-1.93 2.51 2.51 0 0 1 1.08-2.07c1.46-1.11 2.17-2.07 2.17-2.87 0-.51-.37-.77-1.09-.77a6.17 6.17 0 0 0 -2.27.59q-7.8 3.45-7.79 8.92a4.59 4.59 0 0 0 2.48 4.26 7.18 7.18 0 0 0 3.61 1q3.87 0 9.75-4.44-5.41 8.57-8.51 13.37-7.84 12.07-12.49 12.07c-2 0-2.94-.83-2.94-2.48 0-1.82.69-2.94 2.06-3.35a2.92 2.92 0 0 0 1.65-1.65 5 5 0 0 0 .57-2.12 2.82 2.82 0 0 0 -1.49-2.4 4.54 4.54 0 0 0 -2.53-.83 6 6 0 0 0 -4.91 2.27 8 8 0 0 0 -1.65 5.16 8.86 8.86 0 0 0 3 6.4 12.78 12.78 0 0 0 9.28 3.46 16.35 16.35 0 0 0 11.41-4.66q5.05-4.69 7.63-13.26a1.93 1.93 0 0 1 .21-.72 2 2 0 0 0 .21-.67 6.08 6.08 0 0 1 2.11-.42 6.18 6.18 0 0 1 1.81.16 1.46 1.46 0 0 1 1 1.6q0 1.35-1.86 5.65a18.94 18.94 0 0 0 -1.86 7c0 2.68 1.36 4 4.08 4q3.3 0 7.28-3.36c.24-.2 2.21-2.16 5.93-5.88a2.71 2.71 0 0 0 1-1.75c0-.56-.34-.81-1-.78a2.8 2.8 0 0 0 -2 1.11 2.82 2.82 0 0 1 -2.24 1.06c-1 0-1.55-.48-1.55-1.45a3.49 3.49 0 0 1 .15-1c1-3.33 1.72-5.71 2.07-7.12a4.2 4.2 0 0 0 .1-.93 3.23 3.23 0 0 0 -1.08-2.45 3.82 3.82 0 0 0 -2.69-1 5.42 5.42 0 0 0 -1.08.11c-1.68.41-2.75.68-3.2.82q1.91-2.41 4.34-5 3.56-3.77 7.79-3.77a5.29 5.29 0 0 1 2.47.62 4.43 4.43 0 0 0 2.53.36 6.18 6.18 0 0 0 3.41-1.91 5.64 5.64 0 0 0 2-4q0-3.39-3.71-3.39z"></path>
         </g>
      </svg>