<svg viewBox="0 0 59.44 51.06" xmlns="http://www.w3.org/2000/svg">
         <path d="m13.61 49.47a14.68 14.68 0 0 1 -7.54-1.89 5.5 5.5 0 0 1 -1-.66l-.51-.37a1.53 1.53 0 0 1 -.34-.33 7.86 7.86 0 0 1 -2.29-8.15c1.14-3.78 4.52-5.13 7-5.81a19.05 19.05 0 0 1 6-1.08c.52 0 1.05 0 1.56.08a26.41 26.41 0 0 1 2.87.48 4 4 0 0 1 .44.11q.64-1.05 1.26-2.22a12.09 12.09 0 0 1 -7.42-9.85 14.94 14.94 0 0 1 5-12.73 23.26 23.26 0 0 1 11.36-5.24 15.93 15.93 0 0 1 2.79-.23c2.38 0 5.55.39 7.16 2.25a4.28 4.28 0 0 1 .44.61 23.41 23.41 0 0 1 9.61-2.44 10.65 10.65 0 0 1 3.3.48 6.28 6.28 0 0 1 4 3.48c1.54 3.5-.14 7.71-.69 8.92-2.25 4.76-6.61 9.12-12.37 12.3a30.41 30.41 0 0 1 -4.24 1.92c-.18.07-.5 1-.61 1.26s-.25.68-.41 1a42.44 42.44 0 0 1 -2.71 4.9h1.26s1 0 1.44-.06a10.92 10.92 0 0 0 3.22-3.08v-.06-.06a11 11 0 0 1 7-3.11 4.59 4.59 0 0 1 .93.09 3.43 3.43 0 0 1 3.06 2.82 6.74 6.74 0 0 1 -1.15 4.27 26.81 26.81 0 0 1 -3 4.08 30.94 30.94 0 0 1 -6 5.59 19.77 19.77 0 0 1 -8.31 2.38 19.17 19.17 0 0 1 -5.33-.82 15.87 15.87 0 0 1 -1.89-.76 9.19 9.19 0 0 0 -2.6-.92 28.36 28.36 0 0 1 -11.29 2.85zm16.47-38.47a3.7 3.7 0 0 0 -3 1.55 7.15 7.15 0 0 0 -1.74 5.66 3.8 3.8 0 0 0 .55 1.46 47.42 47.42 0 0 1 5.54-8.07 2 2 0 0 1 .31-.4l-.41-.07a6.92 6.92 0 0 0 -1.25-.13z" class="cjd-border" fill="#fff"></path>
         <path d="m6 45.64c5.22 3.81 12.94 2.14 18.38-.41 1.33-.63 4.09 1.17 5.6 1.6a17.57 17.57 0 0 0 4.89.76 18.12 18.12 0 0 0 7.54-2.18c2.29-1.25 13.73-12.65 7.59-13.81-2-.37-5.25 1.15-6.45 2.51a11.93 11.93 0 0 1 -4 3.69 21.26 21.26 0 0 1 -6-.27 37.18 37.18 0 0 0 4.1-6.82c.51-1.1.75-2.67 1.91-3.1a29.84 29.84 0 0 0 4-1.82c4.76-2.62 9.32-6.58 11.62-11.6 1.51-3.49 2.11-8.77-2.41-10.19-4-1.29-10 .77-13.49 2.86.56-3.92-6.72-3.89-9-3.45a21.65 21.65 0 0 0 -10.56 4.82 13.42 13.42 0 0 0 -4.51 11.39c.48 4.63 3.78 7.74 8.05 9.18a40.23 40.23 0 0 1 -2.32 4.2c-.61 1-.93.49-1.92.27a27.15 27.15 0 0 0 -2.7-.45 16.29 16.29 0 0 0 -7 .94c-2.61.72-5.07 2-5.91 4.75a6.34 6.34 0 0 0 2.59 7.13zm28-34.46a45.16 45.16 0 0 0 -7.59 11c-4-2.05-3.07-7.93-.46-10.71a5.42 5.42 0 0 1 5.7-1.89 9 9 0 0 0 4.35-.32c-.69.61-1.35 1.25-2 1.92-2.91 3.05.65-.69 0 0zm13.3-.57c0 3-3.15 5.95-5.13 7.83 1.18-2.93 2.46-6.52 4.85-8.71a1.4 1.4 0 0 1 .28.88z" class="cjd-stroke" fill="#525a6f"></path>
         <g fill="#8089a2">
            <path class="cjd-fill" fill="#8089a2" d="m27.1 12.58a7.15 7.15 0 0 0 -1.74 5.66 3.8 3.8 0 0 0 .55 1.46 47.42 47.42 0 0 1 5.54-8.07 2 2 0 0 1 .31-.4l-.41-.07a6.92 6.92 0 0 0 -1.27-.16 3.7 3.7 0 0 0 -2.98 1.58z"></path>
            <path class="cjd-fill" fill="#8089a2" d="m40.92 30.9c.08-.22.14-.39.19-.51a31.29 31.29 0 0 0 3.89-1.82c6-3.33 10.65-8 13-13.06.62-1.36 2.51-6.11.7-10.22a7.84 7.84 0 0 0 -4.95-4.35 12.26 12.26 0 0 0 -3.75-.55 24 24 0 0 0 -9.11 2.09c-2.09-2.04-5.53-2.48-8.11-2.48a17.47 17.47 0 0 0 -3.09.25 24.86 24.86 0 0 0 -12.09 5.62 16.57 16.57 0 0 0 -5.55 14.13 13.1 13.1 0 0 0 2.59 6.61 14.2 14.2 0 0 0 3.63 3.35c-.55-.09-1.09-.17-1.61-.22a14.38 14.38 0 0 0 -1.74-.1 20.62 20.62 0 0 0 -6.46 1.15c-1.66.46-6.53 1.84-8 6.87a9.41 9.41 0 0 0 2.66 9.7 3.09 3.09 0 0 0 .56.52l.51.38a7 7 0 0 0 1.17.74 16.16 16.16 0 0 0 8.25 2.06 29.75 29.75 0 0 0 11.65-2.73 16.39 16.39 0 0 1 1.75.72 15.2 15.2 0 0 0 2.1.83 20.49 20.49 0 0 0 5.77.89 21.29 21.29 0 0 0 9.12-2.58c1.64-.9 4.47-3.68 6.42-5.95a28.31 28.31 0 0 0 3.15-4.32 8.23 8.23 0 0 0 1.33-5.31 5 5 0 0 0 -4.33-4.13 7 7 0 0 0 -1.23-.11 12.46 12.46 0 0 0 -8.21 3.63l-.1.12-.1.12a10.48 10.48 0 0 1 -1.37 1.59c.31-.58.61-1.17.89-1.78.19-.4.34-.79.47-1.15zm-1.49-.54c-.12.33-.25.68-.41 1a42.44 42.44 0 0 1 -2.71 4.9h1.25s1 0 1.44-.06a10.89 10.89 0 0 0 3.22-3.07l.05-.07v-.06a11 11 0 0 1 7-3.11 4.59 4.59 0 0 1 .93.09 3.45 3.45 0 0 1 3.06 2.82 6.74 6.74 0 0 1 -1.15 4.27 27 27 0 0 1 -3 4.08 31 31 0 0 1 -6 5.59 19.77 19.77 0 0 1 -8.31 2.38 19.12 19.12 0 0 1 -5.33-.82 15.87 15.87 0 0 1 -1.89-.76 9.13 9.13 0 0 0 -2.61-.92 28.38 28.38 0 0 1 -11.42 2.78 14.58 14.58 0 0 1 -7.54-1.89 5.5 5.5 0 0 1 -1-.66l-.51-.37a1.53 1.53 0 0 1 -.34-.33 7.85 7.85 0 0 1 -2.29-8.15c1.14-3.78 4.51-5.13 7-5.81a19 19 0 0 1 6-1.08c.53 0 1.05 0 1.57.08.9.1 1.84.26 2.87.48l.44.11q.64-1.05 1.26-2.22a12.1 12.1 0 0 1 -7.43-9.85 15 15 0 0 1 5-12.73 23.3 23.3 0 0 1 11.42-5.17 16 16 0 0 1 2.79-.22c2.38 0 5.55.39 7.16 2.24a4.93 4.93 0 0 1 .44.61 23.41 23.41 0 0 1 9.61-2.44 10.65 10.65 0 0 1 3.3.48 6.24 6.24 0 0 1 4 3.48c1.55 3.5-.13 7.71-.68 8.92-2.26 4.76-6.62 9.12-12.38 12.3a30.41 30.41 0 0 1 -4.24 1.92c-.14.07-.46.96-.57 1.26z"></path>
            <path class="cjd-fill" fill="#8089a2" d="m54.86 11a6 6 0 0 0 -.15-3.77q-1-2.37-4.59-2.37-6 0-11.85 6.19a43.87 43.87 0 0 0 -7.41 10.78c-.49 1-.9 1.88-1.24 2.63-2.71-.41-4.64-1.3-5.77-2.67a7.81 7.81 0 0 1 -1.34-5.51 9.27 9.27 0 0 1 3.6-6.69 10 10 0 0 1 6.38-2.47 13.79 13.79 0 0 1 3.44.38 1.67 1.67 0 0 0 .67.14c1 0 1.44-.41 1.44-1.24a1.19 1.19 0 0 0 -.72-1 10.65 10.65 0 0 0 -5-1 12.25 12.25 0 0 0 -7.89 3.3 11.93 11.93 0 0 0 -4.65 9.5q0 7.53 8.62 9.75a39.46 39.46 0 0 1 -5.21 8.77 29.38 29.38 0 0 0 -8.63-1.72 7.28 7.28 0 0 0 -5.16 1.7 5 5 0 0 0 .72 7.9 12.24 12.24 0 0 0 7.33 2 16.45 16.45 0 0 0 9.91-3.6q6.39 3.36 10.89 3.36 3.45 0 7.12-3.87a61.71 61.71 0 0 0 4.74-6.19 1.92 1.92 0 0 0 .42-1.14c0-.86-.37-1.29-1.09-1.29a2.09 2.09 0 0 0 -1.54 1 11.88 11.88 0 0 1 -7 5 14.65 14.65 0 0 1 -3.2.31 27.14 27.14 0 0 1 -6.5-.83 36.85 36.85 0 0 0 6.65-11.5 29.63 29.63 0 0 0 10.41-5.95c3.57-3.13 5.74-6.43 6.6-9.9zm-40.14 30.85a4 4 0 0 1 -2.5-.85 2.65 2.65 0 0 1 -1.11-2.19c0-1.58 1-2.38 3-2.38a15.9 15.9 0 0 1 6.71 2q-3.41 3.43-6.1 3.42zm24.15-18.11q3.24-9.54 5.93-13.41a9 9 0 0 1 3.1-2.79 3.53 3.53 0 0 1 1.8-.42 2 2 0 0 1 1.63.75 2.75 2.75 0 0 1 .59 1.73q0 3.3-5 8.26a27.9 27.9 0 0 1 -8.05 5.88z"></path>
         </g>
      </svg>