<svg viewBox="0 0 62.91 50.03" xmlns="http://www.w3.org/2000/svg">
         <path d="m6.44 48.44a4.38 4.38 0 0 1 -4.62-3.13c-.71-2.31.38-4.71 1.18-6.46v-.07c.19-.4.44-.84.71-1.29a9.28 9.28 0 0 0 1-2 19.82 19.82 0 0 1 -1.82-13.49 27.6 27.6 0 0 1 5.49-11.7 21.43 21.43 0 0 1 10.62-7.41h.09a20.66 20.66 0 0 1 6.19-1.28 8.13 8.13 0 0 1 4.13 1c2.43 1.39 3.59 3.84 3.47 7.33a23 23 0 0 1 8.39-2.54h.64a5.28 5.28 0 0 1 4.48 2.08 6.93 6.93 0 0 1 1.2 4.18 20 20 0 0 1 7.41-1.83c3 0 5.15 1.35 5.95 3.82 1.09 3.3-.65 6.6-1.92 9-1 1.92-2.06 3.95-3.18 6.15a6.76 6.76 0 0 1 1.75-.25 3.12 3.12 0 0 1 3.4 3.27c0 2.4-2.22 4.42-3.84 5.89-.25.22-.48.43-.66.61-3.64 3.5-7 5.54-10.78 6.61a14.87 14.87 0 0 1 -4.5.8c-3.27 0-5.47-1.61-6.19-4.54a7.31 7.31 0 0 1 -.19-1 11.16 11.16 0 0 1 -2.61 2.72 19.07 19.07 0 0 1 -10.08 3.53 9.4 9.4 0 0 1 -1.54-.13 4.25 4.25 0 0 1 -3.24-2.15 4 4 0 0 1 -.4-1.35 13.5 13.5 0 0 1 -5.09 2.45l-.35.11a17.52 17.52 0 0 1 -5.09 1.07z" class="cjd-border" fill="#fff"></path>
         <path d="m55.74 32.56a14.93 14.93 0 0 0 -3 .94q2.41-4.79 4.9-9.53c1.21-2.31 2.71-5.15 1.84-7.83-1.73-5.28-10.79-1.6-13.92.31 1.07-3.52.4-7.82-4.17-7.46a22.09 22.09 0 0 0 -10.5 4c.64-3.06.94-7.21-2.23-9-2.85-1.64-6.27-.52-9.16.4-7.81 2.25-13.5 10.18-15.05 17.94a18.33 18.33 0 0 0 1.7 12.47c.66 1.16-1.1 3.37-1.68 4.64-.72 1.56-1.68 3.64-1.14 5.41 1 3.39 5.84 1.61 8.14.87a12.17 12.17 0 0 0 4.66-2.25 12.3 12.3 0 0 0 2-2.36c.53-.79.87-.76 1.74-1-1.12 2.35-2.74 6 1.05 6.66 3.12.57 7.92-1.28 10.39-3.12 2.32-1.69 3.34-4.16 4.58-6.64a36.81 36.81 0 0 1 4.71-7.31c-1.61 3.87-5.06 8.77-4 13.11 1 4.17 5.52 3.63 8.69 2.6a23.6 23.6 0 0 0 10.14-6.23c1.3-1.26 4-3.35 4-5.36s-2.4-1.74-3.71-1.26zm-33.82 1.89-.26.07a42.24 42.24 0 0 1 4.73-7.16c-.77 1.44-1.52 2.89-2.28 4.34-.65 1.25-.87 2.31-2.19 2.75zm-6.8-18.24a21.28 21.28 0 0 1 2.08-3.16c-.72 3.43-3 6.9-4.56 10a22.76 22.76 0 0 1 2.48-6.83z" class="cjd-stroke" fill="#525a6f"></path>
         <g fill="#8089a2">
            <path class="cjd-fill" fill="#8089a2" d="m58.55 29.1c.65-1.27 1.28-2.47 1.9-3.65 1.32-2.52 3.31-6.31 2-10.26-1-3.12-3.74-4.91-7.46-4.91a19 19 0 0 0 -5.99 1.13 7.65 7.65 0 0 0 -1.29-2.9 6.93 6.93 0 0 0 -5.74-2.72q-.39 0-.78 0a23.8 23.8 0 0 0 -6.81 1.71 8.3 8.3 0 0 0 -4.09-6.28 9.78 9.78 0 0 0 -4.97-1.22 22.07 22.07 0 0 0 -6.67 1.35h-.07a23 23 0 0 0 -11.44 7.96 29.3 29.3 0 0 0 -5.81 12.4 21.61 21.61 0 0 0 1.67 13.87c-.12.24-.31.59-.61 1.11a15.61 15.61 0 0 0 -.78 1.43v.08c-.91 1.86-2.2 4.68-1.31 7.58a5.94 5.94 0 0 0 6.14 4.22 18.62 18.62 0 0 0 5.63-1.17l.31-.1a17.56 17.56 0 0 0 3.84-1.52 5.87 5.87 0 0 0 4.14 2.61 9.85 9.85 0 0 0 1.84.18 20.47 20.47 0 0 0 11-3.84 12.53 12.53 0 0 0 1-.79c1.28 2.53 3.77 3.94 7.07 3.94a16.54 16.54 0 0 0 5-.86c4.07-1.15 7.59-3.31 11.42-7 .17-.17.41-.38.63-.58 1.73-1.58 4.35-4 4.35-7.07a4.59 4.59 0 0 0 -4.12-4.7zm-1.35 10.61-.66.62c-3.64 3.5-7 5.53-10.78 6.6a14.81 14.81 0 0 1 -4.5.8c-3.27 0-5.47-1.61-6.19-4.54a9.13 9.13 0 0 1 -.19-1 11.16 11.16 0 0 1 -2.61 2.72 19 19 0 0 1 -10.07 3.51 8.45 8.45 0 0 1 -1.55-.13 4.25 4.25 0 0 1 -3.24-2.15 3.81 3.81 0 0 1 -.41-1.35 13.65 13.65 0 0 1 -5.09 2.45l-.36.11a17.52 17.52 0 0 1 -5.13 1.09 4.38 4.38 0 0 1 -4.62-3.13c-.69-2.31.4-4.71 1.2-6.46v-.07c.19-.4.44-.83.71-1.29a9.28 9.28 0 0 0 1-2 19.82 19.82 0 0 1 -1.82-13.49 27.6 27.6 0 0 1 5.49-11.7 21.43 21.43 0 0 1 10.62-7.41h.09a20.66 20.66 0 0 1 6.19-1.28 8.23 8.23 0 0 1 4.13 1c2.43 1.39 3.59 3.84 3.47 7.33a23 23 0 0 1 8.39-2.54h.64a5.28 5.28 0 0 1 4.48 2.08 6.93 6.93 0 0 1 1.2 4.18 20 20 0 0 1 7.41-1.83c3 0 5.15 1.35 5.95 3.82 1.09 3.3-.65 6.61-1.92 9-1 1.92-2.06 4-3.18 6.15a6.78 6.78 0 0 1 1.75-.24 3.11 3.11 0 0 1 3.4 3.26c0 2.4-2.18 4.42-3.8 5.89z"></path>
            <path class="cjd-fill" fill="#8089a2" d="m57.61 33.41a2.09 2.09 0 0 0 -1.54.67q-2.32 2-3.77 3.19-2.53 2-2.53.31a5.9 5.9 0 0 1 .57-2.11q4-8.05 7.12-13.88a10.51 10.51 0 0 0 1-3.87c0-2-1.15-3-3.46-3q-5.83 0-14.6 10.27c1.51-3 2.66-5.49 3.46-7.49a11.62 11.62 0 0 0 1-4.23c0-2-1-3-2.89-3a9 9 0 0 0 -3 .62q-5.26 1.8-13 11.45a81 81 0 0 0 3.2-7.58 22 22 0 0 0 .88-5.16q0-5.11-4.9-5.11a11.54 11.54 0 0 0 -6.14 2 12.31 12.31 0 0 0 -1.24.88 26.6 26.6 0 0 0 -5.77 6.84 21.63 21.63 0 0 0 -3.3 10.68 15.33 15.33 0 0 0 2.63 9.4c-1 1.89-1.64 3.21-2 4a12.16 12.16 0 0 0 -1.5 4.54c0 1.17.69 1.75 2.06 1.75a8.94 8.94 0 0 0 5.11-1.81 12.67 12.67 0 0 0 3.25-4.2h1.24a7.28 7.28 0 0 0 3.67-1 1.24 1.24 0 0 0 .72-1.09.87.87 0 0 0 -1-1 5.64 5.64 0 0 0 -1.45.47 5.6 5.6 0 0 1 -2.11.46c.75-1.55 1.34-2.79 1.75-3.72q3.41-5.14 6.45-8.92 4.29-5.31 5.94-5.31c.41 0 .61.3.61.92a10.58 10.58 0 0 1 -1.54 4.39q-6.65 12.52-8.87 17.43a5.07 5.07 0 0 0 -.57 2c0 .93.83 1.39 2.48 1.39a8.51 8.51 0 0 0 5-2 8.44 8.44 0 0 0 2.16-2.27q.42-.68 2-3.87l1.76-3.51a51.81 51.81 0 0 1 7.9-9 4.13 4.13 0 0 1 2.16-1.24c.35 0 .52.24.52.72a7.53 7.53 0 0 1 -.62 2.48q-1.79 4.62-4.73 11.1a7.41 7.41 0 0 0 -.67 3.09q0 3.87 3.77 3.87c1.86 0 4.14-1.06 6.86-3.2a40.1 40.1 0 0 0 5.52-5.31 3.3 3.3 0 0 0 1-1.65c-.02-.26-.2-.39-.59-.39zm-36.32-19.51q-1.29 3.15-8.77 17.9a12 12 0 0 1 -1.4-6.5 22.13 22.13 0 0 1 2.88-9.7c1.65-3 3.36-5 5.11-5.83l.31-.15a3.87 3.87 0 0 1 .83-.11c1.09 0 1.64.62 1.64 1.86a6.9 6.9 0 0 1 -.6 2.53z"></path>
         </g>
      </svg>