<svg viewBox="0 0 50.71 50.11" xmlns="http://www.w3.org/2000/svg">
         <path d="m27.39 48.53a6.36 6.36 0 0 1 -5-2.22 8.64 8.64 0 0 1 -1.94-5 5.83 5.83 0 0 0 -.62.9 8.47 8.47 0 0 1 -.72 1 11.26 11.26 0 0 1 -5.79 3.52l-.67.22a19.44 19.44 0 0 1 -5.85 1.33c-2.77 0-4-1.39-4.53-2.55-1.19-2.59.39-5.56 1.54-7.72.18-.33.35-.64.48-.91a9.1 9.1 0 0 1 .46-.83 5.82 5.82 0 0 0 .34-.58 16.58 16.58 0 0 1 -2-3 13.37 13.37 0 0 1 -1.43-7.16 31.42 31.42 0 0 1 3.73-12.69 20.66 20.66 0 0 1 9.76-9.22 22.19 22.19 0 0 1 8.51-2 11.4 11.4 0 0 1 3.49.52 8 8 0 0 1 5.09 5.06 12.46 12.46 0 0 1 .76 3.67c2.77-1.51 6.19-2.82 9.15-2.82a7.55 7.55 0 0 1 4.37 1.24 2.74 2.74 0 0 1 .35.25l.41.35a2 2 0 0 1 .29.3 6.16 6.16 0 0 1 1.43 5.61 20.32 20.32 0 0 1 -2 5.2l-.07.15c-1.5 3-3.07 6.22-4.76 9.71a8.91 8.91 0 0 1 1.69-.18c2.28 0 3.7 1.34 3.7 3.49s-1.83 4-3.16 5.26l-.46.45a41.08 41.08 0 0 1 -5.67 4.7c-2.68 1.83-7.12 3.95-10.88 3.95z" class="cjd-border" fill="#fff"></path>
         <path d="m46 10.91c-3.82-3.26-11.37.53-14.73 2.86.54-3.92-.37-8.77-4.61-10.15-3.43-1.12-7.66.08-10.88 1.46-7.86 3.34-11.96 12.57-12.57 20.57a11.75 11.75 0 0 0 1.27 6.35 14.13 14.13 0 0 0 2 2.88c.79.92-.23 1.94-.74 3-.91 1.85-3 5.05-2 7.26 1.43 3.11 6.8.95 9.17.19a9.8 9.8 0 0 0 5-3c.61-.73 1.16-2.2 2-2.44.73-.19 1.46-.42 2.18-.64-.53 3.58 1.07 7.79 5.24 7.79 3.28 0 7.35-1.87 10-3.66a39.27 39.27 0 0 0 5.45-4.52c1.22-1.25 3.22-2.86 3.22-4.67 0-3.4-5.08-1.33-6.8-.75q3.14-6.51 6.34-13c1.39-2.81 3.54-7 .51-9.55zm-21.7 22.52a6.62 6.62 0 0 0 -1.74.43 42.51 42.51 0 0 1 6.44-9.14q-1.2 2.49-2.44 5c-.41.75-1.44 3.71-2.26 3.71zm-12.56-8.54c.13-4.43 2-9.61 5.31-12.69 1.15 1.15-.67 4-1.21 5.17-1.33 2.81-2.71 5.61-4.1 8.39q0-.44 0-.87c.06-2.21-.01.3 0 0z" class="cjd-stroke" fill="#525a6f"></path>
         <g fill="#8089a2">
            <path class="cjd-fill" fill="#8089a2" d="m48.41 21.72a21.51 21.51 0 0 0 2.13-5.63 7.75 7.75 0 0 0 -1.79-6.94 5.07 5.07 0 0 0 -.46-.47l-.42-.35a4 4 0 0 0 -.53-.33 9.08 9.08 0 0 0 -5.22-1.49 20 20 0 0 0 -7.87 2 12.65 12.65 0 0 0 -.51-1.81 9.56 9.56 0 0 0 -6.1-6.1 12.68 12.68 0 0 0 -4-.6 23.81 23.81 0 0 0 -9.13 2.15 22.24 22.24 0 0 0 -10.51 9.92 33 33 0 0 0 -3.95 13.33 14.9 14.9 0 0 0 1.6 8 16 16 0 0 0 1.52 2.42c-.1.18-.21.37-.31.58s-.28.54-.45.86c-1.23 2.32-3.1 5.83-1.58 9.13.6 1.3 2.17 3.47 6 3.47a21.15 21.15 0 0 0 6.38-1.36l.59-.19a13 13 0 0 0 5.94-3.35 9.11 9.11 0 0 0 1.49 2.41 7.88 7.88 0 0 0 6.16 2.76c4.12 0 8.77-2.17 11.75-4.2a42.38 42.38 0 0 0 5.86-4.93l.43-.41c1.45-1.38 3.65-3.48 3.65-6.41a4.82 4.82 0 0 0 -4.38-5c1.25-2.57 2.43-5 3.58-7.3zm-1.5-.55c-1.5 3-3.06 6.21-4.76 9.71a9 9 0 0 1 1.69-.18c2.28 0 3.7 1.33 3.7 3.49s-1.82 4-3.15 5.26l-.46.44a40.33 40.33 0 0 1 -5.68 4.7c-2.66 1.82-7.1 3.94-10.86 3.94a6.36 6.36 0 0 1 -5-2.22 8.64 8.64 0 0 1 -1.94-5 5.83 5.83 0 0 0 -.62.9 9.29 9.29 0 0 1 -.72 1 11.26 11.26 0 0 1 -5.79 3.52l-.67.22a19.74 19.74 0 0 1 -5.85 1.33c-2.77 0-4-1.39-4.53-2.55-1.19-2.59.39-5.56 1.54-7.72.18-.33.35-.65.48-.91a9.1 9.1 0 0 1 .46-.83 5.82 5.82 0 0 0 .34-.58 16.58 16.58 0 0 1 -2-3 13.39 13.39 0 0 1 -1.43-7.16 31.42 31.42 0 0 1 3.73-12.69 20.66 20.66 0 0 1 9.76-9.22 22.19 22.19 0 0 1 8.51-2 11.11 11.11 0 0 1 3.49.52 8 8 0 0 1 5.09 5.06 12.46 12.46 0 0 1 .76 3.67c2.77-1.51 6.19-2.82 9.15-2.82a7.55 7.55 0 0 1 4.37 1.24 2.74 2.74 0 0 1 .35.25l.41.35a2 2 0 0 1 .29.3 6.16 6.16 0 0 1 1.43 5.61 20.32 20.32 0 0 1 -2 5.2z"></path>
            <path class="cjd-fill" fill="#8089a2" d="m42 11c-1.76 0-4 1-6.86 3a53.78 53.78 0 0 0 -8.31 7.74c1.62-3.61 2.56-5.79 2.84-6.55a10.7 10.7 0 0 0 .46-3.36q0-7.17-6.14-7.32a9.77 9.77 0 0 0 -6 1.7q-9.22 6.26-10.15 18.53c-.28 3.45 1.07 6.58 4 9.4q-1.29 2.41-2.16 4.28a13.72 13.72 0 0 0 -1.6 4.49c0 .93.65 1.39 2 1.39a9.47 9.47 0 0 0 5.62-1.67q1.55-1.07 3.56-4.77h1.65a7.44 7.44 0 0 0 3.72-.93 1.28 1.28 0 0 0 .72-1.14c0-.72-.34-1.09-1-1.09a1.33 1.33 0 0 0 -.67.21 6.1 6.1 0 0 1 -3.36.77c.9-1.85 1.6-3.33 2.12-4.43q5.41-7.74 8.87-10.68a4.47 4.47 0 0 1 2.53-1.3c.69 0 1 .42 1 1.24a5.22 5.22 0 0 1 -.47 1.91q-4.18 8.73-7.12 14.19a7.24 7.24 0 0 0 -.57 2.94 6.2 6.2 0 0 0 .93 3.51 3.55 3.55 0 0 0 3.15 1.6q2.73 0 7.17-3.35a38.09 38.09 0 0 0 5.88-5.47 2.94 2.94 0 0 0 .88-1.65c0-.48-.33-.71-1-.67a2 2 0 0 0 -1.45.51q-2.05 2-3.35 3.1a3.73 3.73 0 0 1 -2 1.08c-.41 0-.62-.29-.62-.88a5.49 5.49 0 0 1 .52-2q4.84-10.11 8.77-17.95a7.17 7.17 0 0 0 .62-2.79q.05-3.59-4.18-3.59zm-20.49 3.32q-1.33 3.21-8.51 17.6a9.59 9.59 0 0 1 -2.48-7.07 20.52 20.52 0 0 1 1.65-7.28 19.22 19.22 0 0 1 3.31-5.52 11.36 11.36 0 0 1 2.42-2.11 3.61 3.61 0 0 1 1.45-.31 2.35 2.35 0 0 1 2.65 2.68 5.12 5.12 0 0 1 -.49 2.01z"></path>
         </g>
      </svg>