<svg viewBox="0 0 50.05 52.64" xmlns="http://www.w3.org/2000/svg">
         <path d="m16.44 51.07a15.43 15.43 0 0 1 -8.94-2.62c-4.28-3-6.35-8.37-5.84-15.23a31.75 31.75 0 0 1 6.84-17 37.34 37.34 0 0 1 14.39-11.28 56.51 56.51 0 0 1 6.65-2.24l.61-.18a15.32 15.32 0 0 1 4.55-.93 5.4 5.4 0 0 1 3 .81 3.8 3.8 0 0 1 1.7 2.67 4.47 4.47 0 0 1 -.65 3h.25c3.64 0 6.49 1.54 8 4.33 1.73 3.21 1.86 7.06.39 11.76a46.41 46.41 0 0 1 -8 15.61 28.79 28.79 0 0 1 -14.56 9.86 29.16 29.16 0 0 1 -8.49 1.46zm18.19-31.63a11.91 11.91 0 0 0 -2.35 6.09 30.27 30.27 0 0 0 0 3.69 23.69 23.69 0 0 0 2.18-6.64 21 21 0 0 0 .17-3.14z" class="cjd-border" fill="#fff"></path>
         <path d="m45.66 13.13c-3-5.5-11.13-3.58-15.47-.74a30.24 30.24 0 0 1 3.73-2.83c1.06-.67 2.44-1.11 3.27-2.09a2.52 2.52 0 0 0 -.35-3.74c-1.92-1.24-4.9-.09-6.85.49a53.84 53.84 0 0 0 -6.46 2.17c-10.53 4.61-19.41 15.25-20.28 26.94-.38 5.11.67 10.67 5.15 13.79 4.77 3.29 10.86 2.54 16.08.94 11.55-3.32 18-13.39 21.46-24.39 1.06-3.44 1.5-7.23-.28-10.54zm-14 19.08c-.15-1-.86-1.25-.91-2.3a34.09 34.09 0 0 1 0-4.52 13.69 13.69 0 0 1 3.83-8.29c2.29-2.42 1.65 4.64 1.47 5.74a28 28 0 0 1 -4.48 10.82 3.23 3.23 0 0 0 .09-1.45c-.16-.79.03.5-.05 0zm-9.18-8.64c-1.22 3.6-2 8.92.29 12.3 1.52 2.2 5.36 1.2 7.29-.09-1.44 1.83-3.29 4.43-5.85 3.79a4.85 4.85 0 0 1 -3.31-3.2c-2.31-6.28.59-13.81 4.44-18.8a27.55 27.55 0 0 0 -2.86 6c-.78 2.15.71-2.21-.05 0z" class="cjd-stroke" fill="#525a6f"></path>
         <g fill="#8089a2">
            <path class="cjd-fill" fill="#8089a2" d="m34.63 19.44a11.91 11.91 0 0 0 -2.35 6.09 30.27 30.27 0 0 0 0 3.69 23.69 23.69 0 0 0 2.18-6.64 21 21 0 0 0 .17-3.14z"></path>
            <path class="cjd-fill" fill="#8089a2" d="m48.45 11.62a9.81 9.81 0 0 0 -7.48-5 5.9 5.9 0 0 0 0-1.73 5.3 5.3 0 0 0 -2.41-3.77 7 7 0 0 0 -3.86-1.12 16.75 16.75 0 0 0 -5 1h-.14c-.16.05-5 1.45-7.27 2.44a39.08 39.08 0 0 0 -15 11.78 33.38 33.38 0 0 0 -7.21 17.88c-.56 7.46 1.76 13.36 6.52 16.65a17 17 0 0 0 9.84 2.89 30.49 30.49 0 0 0 9-1.52 30.36 30.36 0 0 0 15.29-10.38 48 48 0 0 0 8.27-16.13c1.57-5.13 1.4-9.38-.55-12.99zm-1 12.52a46.41 46.41 0 0 1 -8 15.61 28.87 28.87 0 0 1 -14.55 9.86 29.17 29.17 0 0 1 -8.5 1.46 15.43 15.43 0 0 1 -8.9-2.62c-4.28-3-6.35-8.37-5.84-15.23a31.75 31.75 0 0 1 6.84-17 37.34 37.34 0 0 1 14.39-11.28 56.51 56.51 0 0 1 6.65-2.24l.61-.18a15.32 15.32 0 0 1 4.55-.93 5.4 5.4 0 0 1 3 .81 3.8 3.8 0 0 1 1.7 2.67 4.47 4.47 0 0 1 -.65 3h.25c3.64 0 6.49 1.54 8 4.33 1.79 3.19 1.92 7.04.45 11.74z"></path>
            <path class="cjd-fill" fill="#8089a2" d="m39.54 10.84q-4.9 0-8.67 4.8a24.43 24.43 0 0 0 -3.87 7.36 18.94 18.94 0 0 0 -1 6.14 10.53 10.53 0 0 0 .88 4.54c.45.89 1 1.34 1.6 1.34a1.81 1.81 0 0 0 1.45-.85 2.24 2.24 0 0 0 .46-1.73q0-.42-.21-.42a.36.36 0 0 0 -.15.08.33.33 0 0 1 -.16.08c-.31 0-.46-1.77-.46-5.32a14.52 14.52 0 0 1 3.35-9.59q2.74-3.36 5-3.36 3.2 0 3.2 4.34a27.19 27.19 0 0 1 -5.06 15.24q-5.08 7.51-10.04 7.51c-4.64 0-7-3.16-7-9.45q0-9.13 7.32-17.08a32.28 32.28 0 0 1 9-7.12c.93-.44 1.39-1 1.39-1.7s-.57-1.16-1.83-1.16a5.23 5.23 0 0 0 -1.09.11 32 32 0 0 0 -18.11 10.78q-7.74 8.78-7.74 19 0 7.07 4.23 10.37a12.72 12.72 0 0 0 8 2.42 20.61 20.61 0 0 0 15.17-6.7 38.34 38.34 0 0 0 8-13.06c1.58-4 2.37-6.86 2.37-8.61a10.62 10.62 0 0 0 -1.08-5.06 5.32 5.32 0 0 0 -4.95-2.9z"></path>
         </g>
      </svg>