<svg viewBox="0 0 60.58 53.74" xmlns="http://www.w3.org/2000/svg">
         <path d="m16.22 52.15a15.77 15.77 0 0 1 -10.78-3.8 11.9 11.9 0 0 1 -2.73-13.8c1.89-3.89 5.71-5 8.8-5.8h.11a2.33 2.33 0 0 1 .38-.15 9.58 9.58 0 0 1 1-.21 17.72 17.72 0 0 1 -.35-7.67 20.53 20.53 0 0 1 3.95-9.07c4-5.17 9.52-7.24 14.87-8.71a25.49 25.49 0 0 1 6.84-.94 24.53 24.53 0 0 1 4.32.38 19.37 19.37 0 0 1 4.47 1.41 12.66 12.66 0 0 1 3-1.24l.29-.1a11.42 11.42 0 0 1 3.72-.86 3.61 3.61 0 0 1 3.45 2 3.76 3.76 0 0 1 -.72 4.45 9 9 0 0 1 -2.14 1.56 19.31 19.31 0 0 1 4.18 14.29 15.51 15.51 0 0 1 -7.52 11.49 23.26 23.26 0 0 1 -11.25 3.11c-.4 0-.8 0-1.18 0h-.32c-.17.33-.35.65-.53 1a27.64 27.64 0 0 1 -2 3 23.71 23.71 0 0 1 -5 4.83 26.3 26.3 0 0 1 -14.86 4.83zm16.78-40.8c-4 0-7.25 3.73-8.31 7.25a12.52 12.52 0 0 0 -.42 5 4 4 0 0 1 1.24-1.29 12.43 12.43 0 0 1 3.91-1.31 14 14 0 0 0 .76-1.29c.2-.37.37-.7.54-.95.76-1.13 1.55-2.22 2.35-3.24a48.11 48.11 0 0 1 3.23-3.73 13 13 0 0 0 -3.3-.44z" class="cjd-border" fill="#fff"></path>
         <path d="m12 30.27c-3.16.86-6.3 1.79-7.85 5a10.32 10.32 0 0 0 2.35 11.9c6.38 5.74 17.24 3.42 23.64-1.19a22.64 22.64 0 0 0 4.65-4.52 26.79 26.79 0 0 0 1.89-2.83c.23-.41.45-.82.67-1.24.48-.94.71-.56 1.67-.49a21.21 21.21 0 0 0 11.48-2.83c9.18-5.57 8.64-17.7 1.67-24.87 1.64-1 5.2-2.23 3.93-4.88-1-2.07-4-.81-5.57-.25a13.4 13.4 0 0 0 -3.37 1.5 18 18 0 0 0 -4.81-1.57 23.62 23.62 0 0 0 -10.41.5c-5.47 1.5-10.44 3.5-14.04 8.12s-5.15 11.78-2.59 17.38a6.74 6.74 0 0 0 -3.33.28c-.13.02.73-.28.02-.01zm32.17-10.27c0 3.18-1 6.78-3.54 8.91.6-1.75 1.23-3.48 1.92-5.2.37-.94 1.62-3.07 1.62-3.71zm-11.17-10.24a12.45 12.45 0 0 1 6.14 1.43 42.9 42.9 0 0 0 -4.82 5.26q-1.2 1.55-2.32 3.15c-.44.64-1.24 2.55-1.92 2.82a12.52 12.52 0 0 0 -3.74 1.21c-1.87 1.2-.84 4-.11 5.57-1.68-1.2-2.89-2.2-3.36-4.35a13.86 13.86 0 0 1 .3-6.71c1.29-4.29 5.2-8.38 9.83-8.38zm-11.3 26a3.35 3.35 0 0 0 .95-.13c-.57.87-6.57 9.28-7.52 6.11-.32-1.06.54-1.8 1.3-2.32 1.61-1.1 3.12-2.26 3.14-4.39a3.75 3.75 0 0 0 2.13.68z" class="cjd-stroke" fill="#525a6f"></path>
         <g fill="#8089a2">
            <path class="cjd-fill" fill="#8089a2" d="m57 10.07a7.67 7.67 0 0 0 1-.9 5.31 5.31 0 0 0 1-6.17 5.16 5.16 0 0 0 -4.92-3 12.75 12.75 0 0 0 -4.26 1h-.22a13.51 13.51 0 0 0 -2.6 1 21.38 21.38 0 0 0 -4.08-1.15 25 25 0 0 0 -4.61-.41 27 27 0 0 0 -7.21 1c-5.61 1.56-11.4 3.7-15.7 9.23a22.18 22.18 0 0 0 -4.26 9.79 19.49 19.49 0 0 0 0 6.73h-.11c-3.2.87-7.54 2.08-9.74 6.61a13.52 13.52 0 0 0 3.1 15.68 17.36 17.36 0 0 0 11.84 4.21 28 28 0 0 0 15.77-5.13 25.68 25.68 0 0 0 5.3-5.16 29 29 0 0 0 2.13-3.19l.06-.1h.59a25 25 0 0 0 12.07-3.34 17.09 17.09 0 0 0 8.28-12.65 20.74 20.74 0 0 0 -3.43-14.05zm1.9 13.86a15.51 15.51 0 0 1 -7.52 11.49 23.26 23.26 0 0 1 -11.25 3.11c-.4 0-.8 0-1.18 0h-.32c-.17.33-.35.65-.53 1a27.64 27.64 0 0 1 -2 3 23.71 23.71 0 0 1 -5 4.83 26.3 26.3 0 0 1 -14.84 4.89 15.82 15.82 0 0 1 -10.78-3.8 11.9 11.9 0 0 1 -2.78-13.9c1.89-3.9 5.72-5 8.81-5.8h.11a2.09 2.09 0 0 1 .38-.15 9.58 9.58 0 0 1 1-.21 17.72 17.72 0 0 1 -.35-7.67 20.53 20.53 0 0 1 3.95-9.07c4-5.17 9.52-7.24 14.87-8.71a25.5 25.5 0 0 1 6.84-.94 23.61 23.61 0 0 1 4.32.39 19.52 19.52 0 0 1 4.47 1.4 12.66 12.66 0 0 1 3-1.24l.28-.1a11.29 11.29 0 0 1 3.73-.86 3.6 3.6 0 0 1 3.45 2 3.76 3.76 0 0 1 -.72 4.45 9.24 9.24 0 0 1 -2.14 1.56 19.3 19.3 0 0 1 4.15 14.33z"></path>
            <path class="cjd-fill" fill="#8089a2" d="m50.14 9a21.78 21.78 0 0 1 3.51-2c.93-.48 1.35-1 1.35-1.69s-.34-.87-1-.87a3 3 0 0 0 -1.49.46q-2.42 1.34-4.51 2.63a17.06 17.06 0 0 0 -9.52-2.63q-8.82 0-14.48 5.52a16.83 16.83 0 0 0 -5.31 12.44q0 6.6 4.85 10a2.52 2.52 0 0 0 1.49.57c1 0 1.55-.56 1.55-1.66a1.5 1.5 0 0 0 -.36-1c-1-.69-1.93-1.4-2.89-2.12q-2-2.07-2-6.52a13.91 13.91 0 0 1 4.38-10.39 14.77 14.77 0 0 1 10.65-4.26 12.55 12.55 0 0 1 8.21 2.59q-6.45 5.34-11.82 15.42l-.1-.31q-.57-1.65-1.65-1.65c-.69 0-1 .45-1 1.34a8.21 8.21 0 0 0 1.19 3.51q-8.6 15.89-14.13 15.32c-2.16 0-3.25-.79-3.25-2.37a3.2 3.2 0 0 1 1.09-2.42 20.15 20.15 0 0 1 1.78-1.24 3.2 3.2 0 0 0 1.62-2.74 3.56 3.56 0 0 0 -1.16-2.6 3.86 3.86 0 0 0 -2.86-1.16 6.19 6.19 0 0 0 -4.13 1.59 7.65 7.65 0 0 0 -2.32 5.94 8.46 8.46 0 0 0 3.35 6.91 13 13 0 0 0 8.36 2.69 16.54 16.54 0 0 0 9.86-3.36 23.75 23.75 0 0 0 8.25-11.4 16.7 16.7 0 0 0 6.09 1.14 12 12 0 0 0 8.75-3.8 12.19 12.19 0 0 0 3.79-8.88 16.52 16.52 0 0 0 -1.5-6.66 17.63 17.63 0 0 0 -4.64-6.34zm-3.56 17.77q-2.32 3.53-5.58 3.52a5.83 5.83 0 0 1 -1.06-.13 7.21 7.21 0 0 0 -1-.13q4.13-12.39 8-17.54a11.33 11.33 0 0 1 1.86 6.51 13.87 13.87 0 0 1 -2.22 7.77z"></path>
            <path class="cjd-fill" fill="#8089a2" d="m30.72 18.71c.77-1.13 1.56-2.22 2.35-3.24a46.13 46.13 0 0 1 3.23-3.72 12.54 12.54 0 0 0 -3.3-.4c-4 0-7.25 3.73-8.31 7.25a12.52 12.52 0 0 0 -.42 5 4 4 0 0 1 1.24-1.29 12.43 12.43 0 0 1 3.91-1.31 14 14 0 0 0 .76-1.29c.2-.42.37-.71.54-1zm-1.32-.89c-.21.33-.4.68-.62 1.09-.07.12-.21.39-.35.63a16.8 16.8 0 0 0 -2.5.77 8.43 8.43 0 0 1 .29-1.25c.9-3 3.69-6.12 6.78-6.12h.09c-.43.5-.85 1-1.27 1.55-.82 1.05-1.63 2.17-2.42 3.33z"></path>
         </g>
      </svg>