<svg viewBox="0 0 49.24 59.41" xmlns="http://www.w3.org/2000/svg">
         <path d="m29.32 57.84a13.72 13.72 0 0 1 -7.25-1.92 14.73 14.73 0 0 1 -3.94-3.45 8.26 8.26 0 0 1 -.64-1c-.09-.15-.21-.36-.32-.52h-.88a15.2 15.2 0 0 1 -7.09-1.65c-5-2.64-7.77-8-7.6-14.68a31.35 31.35 0 0 1 5.94-17.25 37.09 37.09 0 0 1 13.85-11.87 44.37 44.37 0 0 1 7.19-2.61l.91-.29a16.36 16.36 0 0 1 4.87-1 7.13 7.13 0 0 1 1.76.21 4.14 4.14 0 0 1 2.67 2.13 4.1 4.1 0 0 1 .08 3.38 4.36 4.36 0 0 1 -.65 1.08 8.63 8.63 0 0 1 5 1.74 11.18 11.18 0 0 1 4.08 6.73 17.35 17.35 0 0 1 -.21 7.56 39.55 39.55 0 0 1 -6.79 14.5 28.73 28.73 0 0 1 -10.65 8.84 5.3 5.3 0 0 0 1.46.69c.05-.08.1-.18.14-.26a6.81 6.81 0 0 1 1-1.53c1.57-1.73 5.3-2.8 7.28-2.8 2.55 0 4.41 2 4.41 4.82 0 3.73-3.89 6.05-5.56 6.89a20.53 20.53 0 0 1 -9.07 2.26zm2.13-31.62a7.68 7.68 0 0 1 2 .41c1.1-3.53 1.13-6.3 0-7.74v-.05a6.4 6.4 0 0 0 -1.26 2 10.39 10.39 0 0 0 -.88 2.79 8.19 8.19 0 0 0 .14 2.59z" class="cjd-border" fill="#fff"></path>
         <path d="m39.54 45.46c-1.73 0-4.93 1-6.1 2.28s-.9 2.79-2.78 2.24a6.42 6.42 0 0 1 -3.73-2.83c9.72-3.34 16.35-13.46 18.65-23.1 1-4.4.58-9.7-3.29-12.66-3.43-2.61-7.72-1-11.4.1a29.08 29.08 0 0 1 4-2.65c1-.55 2.08-1 2.55-2.14a2.42 2.42 0 0 0 -1.68-3.36c-2.17-.56-4.64.45-6.69 1.08a43 43 0 0 0 -7 2.51c-10.39 5.07-18.6 15.96-18.89 27.73-.13 5.34 1.82 10.62 6.76 13.23a13.88 13.88 0 0 0 7.81 1.45c.62.23 1.13 1.53 1.62 2.16a13.55 13.55 0 0 0 3.53 3.09c4.51 2.74 10.23 1.87 14.78-.41 2-1 4.68-3 4.68-5.49 0-1.69-.98-3.23-2.82-3.23zm-17.64-14.39s-.41.33-.61.51a11.65 11.65 0 0 0 -1.7 1.88 20.07 20.07 0 0 1 1.49-9.74 13.14 13.14 0 0 0 .41 6.28c.12.36.26.71.41 1.06zm3.83 8.66a7.64 7.64 0 0 1 1.53-4.31 8.88 8.88 0 0 0 3.65-.42c-.93 1.24-3.41 4.72-5.18 4.76.2-1.76.04-.04 0-.03zm9-21.8c2.17 2.88.72 8-.44 11a5.47 5.47 0 0 0 -3.82-1.2c-.88-1.13-.87-2.93-.8-4.28.12-1.78 2.77-8.69 5.07-5.52z" class="cjd-stroke" fill="#525a6f"></path>
         <g fill="#8089a2">
            <path class="cjd-fill" fill="#8089a2" d="m33.45 18.86v-.05a6.12 6.12 0 0 0 -1.25 2 10.05 10.05 0 0 0 -.89 2.79 8.19 8.19 0 0 0 .18 2.65 7.68 7.68 0 0 1 2 .41c1.11-3.53 1.13-6.3 0-7.74z"></path>
            <path class="cjd-fill" fill="#8089a2" d="m48.67 24.78a19.09 19.09 0 0 0 .21-8.25 12.69 12.69 0 0 0 -4.66-7.66 9.88 9.88 0 0 0 -3.62-1.74 5.67 5.67 0 0 0 -.39-3.91 5.71 5.71 0 0 0 -3.69-3 8.94 8.94 0 0 0 -2.16-.22 17.41 17.41 0 0 0 -5.36 1.09l-.88.28a45.32 45.32 0 0 0 -7.44 2.71 38.65 38.65 0 0 0 -14.44 12.38 33 33 0 0 0 -6.24 18.13c-.17 7.31 2.91 13.18 8.45 16.11a16.83 16.83 0 0 0 7.84 1.88 6 6 0 0 0 .59.87 16.48 16.48 0 0 0 4.37 3.82 15.33 15.33 0 0 0 8.07 2.14 22 22 0 0 0 9.77-2.41c1.94-1 6.44-3.71 6.44-8.31a6.07 6.07 0 0 0 -6-6.4c.69-.76 1.36-1.56 2-2.39a41.15 41.15 0 0 0 7.14-15.12zm-19 23a5.3 5.3 0 0 0 1.46.69c.05-.08.1-.18.14-.26a6.48 6.48 0 0 1 1-1.53c1.57-1.73 5.3-2.8 7.28-2.8 2.55 0 4.41 2 4.41 4.82 0 3.73-3.89 6.05-5.57 6.89a20.46 20.46 0 0 1 -9.06 2.26 13.72 13.72 0 0 1 -7.25-1.92 14.73 14.73 0 0 1 -3.94-3.45 8.26 8.26 0 0 1 -.64-1l-.33-.48h-.88a15.2 15.2 0 0 1 -7.09-1.7c-5-2.64-7.77-8-7.6-14.67a31.35 31.35 0 0 1 5.94-17.26 37.06 37.06 0 0 1 13.85-11.86 44.37 44.37 0 0 1 7.19-2.62l.91-.28a16.05 16.05 0 0 1 4.87-1 7.13 7.13 0 0 1 1.76.21 4.14 4.14 0 0 1 2.67 2.13 4.1 4.1 0 0 1 .08 3.38 4.36 4.36 0 0 1 -.65 1.08 8.63 8.63 0 0 1 5 1.74 11.18 11.18 0 0 1 4.08 6.73 17.35 17.35 0 0 1 -.21 7.56 39.55 39.55 0 0 1 -6.79 14.49 28.9 28.9 0 0 1 -10.65 8.84z"></path>
            <path class="cjd-fill" fill="#8089a2" d="m37.89 11.22q-5.58 0-9.29 5a15.07 15.07 0 0 0 -3.1 8.93 10.46 10.46 0 0 0 1.4 5.31q-4.44 2.74-5.37 9.44c-2.2-1.44-3.3-4.23-3.3-8.35q0-9.14 7.53-17.08a34.53 34.53 0 0 1 9.24-7.12c.92-.44 1.39-1 1.39-1.7s-.62-1.18-1.86-1.18a5.87 5.87 0 0 0 -1.08.1 31.8 31.8 0 0 0 -18 10.81q-7.56 8.7-7.56 19 0 6.66 4.13 10.11a11.92 11.92 0 0 0 7.84 2.69c.28 0 .68 0 1.22-.08s.92-.07 1.16-.07a11.39 11.39 0 0 0 4.18 5.13 10.85 10.85 0 0 0 6.24 2 10 10 0 0 0 6.09-2c1.62-1.2 2.43-2.34 2.43-3.4 0-1.31-.52-2-1.55-2s-2 .73-2.63 2.19a4.35 4.35 0 0 1 -4.34 2.61 8.15 8.15 0 0 1 -3.66-.88 7.71 7.71 0 0 1 -3.77-4.28 22.64 22.64 0 0 0 11.1-7.11 35.82 35.82 0 0 0 6.5-10.62 24.51 24.51 0 0 0 2.11-8.81 10.36 10.36 0 0 0 -1.54-5.41 6.16 6.16 0 0 0 -5.51-3.23zm-2.38 23.2q-4.84 6.58-9.9 6.58a1.14 1.14 0 0 1 -.57-.06h-.67a11.09 11.09 0 0 1 1.7-6.08 9.47 9.47 0 0 1 2.93-2.28 5.78 5.78 0 0 0 2.58.63c1.72 0 2.58-.59 2.58-1.76a2.35 2.35 0 0 0 -1.6-2.11 7 7 0 0 0 -2.62-.34q-1.55-1.29-1.55-4.85a9.11 9.11 0 0 1 3.36-7.54 8.06 8.06 0 0 1 5-2 3 3 0 0 1 2.38 1.49 6.63 6.63 0 0 1 1.23 4.08 23.38 23.38 0 0 1 -4.85 14.24z"></path>
         </g>
      </svg>