<svg viewBox="0 0 63.89 53.33" xmlns="http://www.w3.org/2000/svg">
         <path d="m16.5 51.74c-5.39 0-10.74-2.76-13.29-6.87a10.71 10.71 0 0 1 -.34-10.74c1.92-3.91 6.72-5.74 10.57-6.13h.7a7 7 0 0 1 1.37.13 15.16 15.16 0 0 1 -.06-8.78 20.08 20.08 0 0 1 5.89-8.58 24.71 24.71 0 0 1 9-5 42.24 42.24 0 0 1 8.38-2 30 30 0 0 1 3.41-.19c.87 0 1.75 0 2.61.11.33 0 .65.08.92.13a5.37 5.37 0 0 0 .78.1h.19l.17-.1a7.19 7.19 0 0 1 1.2-.82 15.75 15.75 0 0 1 5.49-1.44 4.46 4.46 0 0 1 2.61.73 3.54 3.54 0 0 1 1.64 3.27 4.59 4.59 0 0 1 -1.18 2.58 18.11 18.11 0 0 1 4.08 5.11 11.83 11.83 0 0 1 1.27 8.77 11.76 11.76 0 0 1 -6.85 7.65 12.16 12.16 0 0 1 .31 3.33 7.92 7.92 0 0 1 2.41-.43 3.37 3.37 0 0 1 3.07 1.63 4.39 4.39 0 0 1 -.17 4.3 27.06 27.06 0 0 1 -12 10.57 19.89 19.89 0 0 1 -7.09 1.77 6.3 6.3 0 0 1 -5.45-2.59 8 8 0 0 1 -1.33-5 27.49 27.49 0 0 1 -4.12 3.57 26.75 26.75 0 0 1 -12.69 4.84c-.46.05-1 .08-1.5.08zm4.8-17.38v.17a.71.71 0 0 1 .1-.14zm13.49-21.1a12.37 12.37 0 0 0 -6.3 4.06c-1 1.18-2.49 3.91-2.34 5.49a1 1 0 0 0 .33.73 3.17 3.17 0 0 0 .84.33h.11l.14-.24c1.08-1.9 2.2-3.7 3.33-5.35a56.63 56.63 0 0 1 3.89-5.02z" class="cjd-border" fill="#fff"></path>
         <path d="m53.36 28.64a10.27 10.27 0 0 0 7-7c1.46-5.09-2.26-10.74-6.36-13.45 1.66-.78 3.28-3.13 1.21-4.57-1.64-1.14-4.88.18-6.59.88a7.72 7.72 0 0 0 -1.2.65c-.86.52-1.85.1-2.84 0a30.25 30.25 0 0 0 -5.71.07 40.9 40.9 0 0 0 -8.08 2c-6 1.84-11.79 6.49-13.79 12.59-1.64 4.88.34 14.08 7.22 13.14-1.89 3.07-4 6.33-6.83 8.63-1 .8-2.43.2-2-1.2.47-1.69 3-2.23 3.83-3.8 2.08-3.72-1.85-7.39-5.53-7-3.49.37-7.71 2-9.32 5.26-4.46 9.08 5.35 16.1 13.59 15.25a26.07 26.07 0 0 0 20.13-14.09c-1 3.26-2.91 8.23-.67 11.39 2.38 3.36 7.53 1.54 10.65.27a25.32 25.32 0 0 0 11.23-9.92c.84-1.49.6-3.57-1.52-3.57-1.4 0-2.86.77-4.2 1.11.25-2 .49-4.72-.55-6.55a2 2 0 0 1 .33-.09zm-16.23-17.24c.53 0 1 0 1.57.08a47.08 47.08 0 0 0 -6.49 7.73c-1.21 1.69-2.21 3.45-3.21 5.24-.63 1.1-.47 1.49-1.66 1.08a5.94 5.94 0 0 1 -1.78-.74c-2.43-1.89.38-6.94 1.79-8.53 2.56-2.93 5.83-4.86 9.78-4.86zm6.87 11.9c-.45.09-.88.23-1.32.36a62.62 62.62 0 0 1 3.66-8.15c1.39 2.49 1.05 7.21-2.34 7.79z" class="cjd-stroke" fill="#525a6f"></path>
         <g fill="#8089a2">
            <path class="cjd-fill" fill="#8089a2" d="m28.49 17.32c-1 1.18-2.49 3.91-2.34 5.49a1 1 0 0 0 .33.73 3.17 3.17 0 0 0 .84.33h.11l.14-.24c1.08-1.9 2.2-3.7 3.33-5.35a56.63 56.63 0 0 1 3.89-5 12.37 12.37 0 0 0 -6.3 4.04z"></path>
            <path class="cjd-fill" fill="#8089a2" d="m21.3 34.36v.17a.71.71 0 0 1 .1-.14z"></path>
            <path class="cjd-fill" fill="#8089a2" d="m63.47 22.47a13.41 13.41 0 0 0 -1.39-9.94 19.3 19.3 0 0 0 -3.41-4.53 5.59 5.59 0 0 0 .68-2.23 5.14 5.14 0 0 0 -2.35-4.77 6 6 0 0 0 -3.51-1 17.14 17.14 0 0 0 -6.09 1.56 7.69 7.69 0 0 0 -1.26.64l-.25-.05c-.3 0-.66-.11-1.06-.14-.83-.08-1.83-.12-2.72-.12a33 33 0 0 0 -3.58.2 43.31 43.31 0 0 0 -8.69 2.09 26.46 26.46 0 0 0 -9.55 5.35 21.72 21.72 0 0 0 -6.29 9.27 16.25 16.25 0 0 0 -.47 7.59h-.2c-4.28.45-9.63 2.53-11.84 7a12.28 12.28 0 0 0 .42 12.28c2.84 4.55 8.72 7.62 14.64 7.62a16.18 16.18 0 0 0 1.71-.09 28.35 28.35 0 0 0 13.38-5.08c.69-.49 1.36-1 2-1.56a8.73 8.73 0 0 0 1.24 2.59 8 8 0 0 0 6.74 3.25 21.16 21.16 0 0 0 7.69-1.88 28.82 28.82 0 0 0 12.76-11.22 6 6 0 0 0 .16-5.88 5 5 0 0 0 -4.45-2.42 8.14 8.14 0 0 0 -.87.05c0-.15 0-.3 0-.44a13.21 13.21 0 0 0 6.56-8.14zm-8.38 7.22a12.27 12.27 0 0 1 .28 3.31 8 8 0 0 1 2.41-.44 3.39 3.39 0 0 1 3.08 1.64 4.44 4.44 0 0 1 -.17 4.3 27.08 27.08 0 0 1 -12 10.57 19.88 19.88 0 0 1 -7.09 1.76 6.3 6.3 0 0 1 -5.45-2.58 8 8 0 0 1 -1.32-5 28.08 28.08 0 0 1 -4.13 3.57 26.75 26.75 0 0 1 -12.62 4.8c-.51.05-1 .07-1.55.07-5.39 0-10.73-2.76-13.29-6.86a10.71 10.71 0 0 1 -.34-10.74c1.89-3.87 6.69-5.7 10.54-6.09h.71a7 7 0 0 1 1.36.13 15.16 15.16 0 0 1 -.06-8.78 20.08 20.08 0 0 1 5.89-8.58 24.56 24.56 0 0 1 9-5 42.24 42.24 0 0 1 8.38-2 30 30 0 0 1 3.41-.19c.88 0 1.75 0 2.61.11.34 0 .65.08.93.13a5.25 5.25 0 0 0 .77.1h.19l.17-.1a7.58 7.58 0 0 1 1.2-.82 15.75 15.75 0 0 1 5.5-1.44 4.45 4.45 0 0 1 2.6.73 3.54 3.54 0 0 1 1.64 3.27 4.62 4.62 0 0 1 -1.18 2.58 18.21 18.21 0 0 1 4.08 5.1 11.86 11.86 0 0 1 1.27 8.78 11.73 11.73 0 0 1 -6.82 7.67z"></path>
            <path class="cjd-fill" fill="#8089a2" d="m51.33 8.15c.58-.35 1.36-.74 2.32-1.19s1.24-.86 1.24-1.45-.45-1.08-1.34-1.08a3.18 3.18 0 0 0 -1.55.46c-1.27.76-2.46 1.5-3.56 2.23a23.78 23.78 0 0 0 -6.3-.78q-9.7 0-15.94 5.93-5.31 5.11-5.32 10.79a7.94 7.94 0 0 0 2.12 5.62 5.44 5.44 0 0 0 3.46 2q2.37.21 2.37-1.65a2.24 2.24 0 0 0 -.72-1.7 4.63 4.63 0 0 0 -1.73-.77 4.31 4.31 0 0 1 -1.94-1 4.64 4.64 0 0 1 -.92-3.19q0-5 5.18-9.11a18.48 18.48 0 0 1 11.79-4.14 16.45 16.45 0 0 1 4.39.57q-6.81 5.48-12.7 16.62-9.22 17.54-15 17a8.46 8.46 0 0 1 -2-.36 2 2 0 0 1 -1.19-2 3.26 3.26 0 0 1 1.08-2.42l1.7-1.19a3.32 3.32 0 0 0 1.66-2.78 3.52 3.52 0 0 0 -1.17-2.59 3.94 3.94 0 0 0 -2.86-1.13 6 6 0 0 0 -4.08 1.6 7.46 7.46 0 0 0 -2.32 5.84 8.48 8.48 0 0 0 3.35 6.92 13 13 0 0 0 8.36 2.68q5.41 0 10.63-4.23a27.45 27.45 0 0 0 8.66-13.32q4.74-14.59 8.92-19.33a7.28 7.28 0 0 1 3.82 6.61 6 6 0 0 1 -2.84 5.57 14.54 14.54 0 0 1 -4.64 1.39c-1.35.25-2 .85-2 1.81a1.31 1.31 0 0 0 .47 1.06 5.74 5.74 0 0 0 .93.64 1.81 1.81 0 0 1 .51 1.4 10.71 10.71 0 0 1 -.62 3q-2.47 7.74-2.47 10.16 0 4.34 4 4.34c1.76 0 3.92-1 6.5-3a34.84 34.84 0 0 0 5.63-5.52 4.64 4.64 0 0 0 1.34-2.42c0-.41-.26-.62-.78-.62a2.29 2.29 0 0 0 -1.85 1 3 3 0 0 1 -2.22 1.49 1.4 1.4 0 0 1 -1.22-.66 1.81 1.81 0 0 1 -.28-1.4 19.3 19.3 0 0 0 .1-5.41 3.48 3.48 0 0 0 -.93-1.86 6.32 6.32 0 0 0 -.87-.83 14.93 14.93 0 0 0 3.61-.67 7.67 7.67 0 0 0 3.56-2.86 7.64 7.64 0 0 0 1.75-4.67 11.07 11.07 0 0 0 -1.65-5.47 13.87 13.87 0 0 0 -6.44-5.93z"></path>
         </g>
      </svg>