<svg viewBox="0 0 56.82 50.05" xmlns="http://www.w3.org/2000/svg">
         <path d="m16.77 48.46a20 20 0 0 1 -7.42-1.34 12.43 12.43 0 0 1 -6.56-6 11.44 11.44 0 0 1 -.54-8.94 10.52 10.52 0 0 1 4.75-5.56 15.81 15.81 0 0 1 6.79-2h.59a7.17 7.17 0 0 1 6.62 4.02 6.76 6.76 0 0 1 -1.17 7.36 2.6 2.6 0 0 0 -.83 1.71 1.28 1.28 0 0 0 .69.12h.31c.45 0 1.5-.08 2.16-2.36a27.6 27.6 0 0 0 .84-6.32c0-.29.06-.66.12-1.09s.17-1.37.18-2a21.21 21.21 0 0 1 -3.15-1.45 20.41 20.41 0 0 1 -4.85-4.35c-1.44-1.74-3.1-4.31-2.84-6.68.11-1 .73-2.95 3.59-3.83l.84-.28a11.5 11.5 0 0 1 3.68-.81 4.67 4.67 0 0 1 2.51.68 6.55 6.55 0 0 1 2.5 3.66 19.79 19.79 0 0 1 6.31-7.25 23.92 23.92 0 0 1 12.23-4.14h.76a10.4 10.4 0 0 1 8.21 3.9 9.94 9.94 0 0 1 1.91 8.49c-1.39 6-7.57 10-13.09 11.77a14.13 14.13 0 0 0 0 1.47v1.21a26 26 0 0 1 -.52 4 18.16 18.16 0 0 1 -3.18 6.85c-3.35 4.6-8 6.47-12.1 7.7a32.52 32.52 0 0 1 -9.34 1.46z" class="cjd-border" fill="#fff"></path>
         <path d="m18.63 35c3.28-3.85.28-9.14-4.76-8.79-4.19.3-8.68 2.4-10.13 6.54a10.33 10.33 0 0 0 6.2 12.95c5 2 10.71 1.29 15.72-.21 4.5-1.35 8.43-3.21 11.27-7.12a16.59 16.59 0 0 0 2.92-6.25 26.18 26.18 0 0 0 .49-3.75c.06-1-.42-3.63.55-3.94 5.1-1.51 11.24-5.17 12.53-10.76a8.56 8.56 0 0 0 -9.2-10.47c-8.4.54-15.92 5.26-18.43 13.52-1.8-1.64-1.54-4.74-3.58-6-1.7-1.06-4 .06-5.73.58-6.53 2 1.49 10.31 4.42 12a20.46 20.46 0 0 0 3.75 1.63c.5.73 0 3.45-.09 4.36a29.53 29.53 0 0 1 -.92 6.67c-.52 1.8-1.53 3.38-3.59 3.5-3.27.19-3.12-2.47-1.42-4.46zm24.5-22c0 2-1.64 4-3.09 5.26a12.4 12.4 0 0 1 .88-6.38c.2-.4 1-2.08 1.48-1.63a4 4 0 0 1 .73 2.75z" class="cjd-stroke" fill="#525a6f"></path>
         <g fill="#8089a2">
            <path class="cjd-fill" fill="#8089a2" d="m54.33 4.49a12 12 0 0 0 -9.44-4.49q-.45 0-.89 0a25.48 25.48 0 0 0 -13 4.47 21.29 21.29 0 0 0 -5.26 5.24 6.5 6.5 0 0 0 -1.85-1.71 6.24 6.24 0 0 0 -3.35-.92 12.94 12.94 0 0 0 -4.2.9c-.28.09-.55.19-.78.25-3.86 1.19-4.58 4-4.7 5.19-.32 2.91 1.56 5.88 3.2 7.86.5.6 1 1.2 1.6 1.75a11.07 11.07 0 0 0 -1.3-.08h-.71a17.55 17.55 0 0 0 -7.47 2.26 12.07 12.07 0 0 0 -5.42 6.4 13 13 0 0 0 .62 10.17 14 14 0 0 0 7.38 6.82 21.62 21.62 0 0 0 8 1.45 34.52 34.52 0 0 0 9.8-1.57c4.36-1.31 9.31-3.32 12.93-8.29a19.85 19.85 0 0 0 3.51-7.45 28 28 0 0 0 .56-4.22 13.36 13.36 0 0 0 0-1.4c0-.07 0-.15 0-.25a26.09 26.09 0 0 0 7.44-4.18 15.21 15.21 0 0 0 5.54-8.36 11.54 11.54 0 0 0 -2.21-9.84zm.67 9.51c-1.4 6.05-7.58 10-13.1 11.76a14.07 14.07 0 0 0 0 1.47v1.21a26.17 26.17 0 0 1 -.52 4 18.23 18.23 0 0 1 -3.18 6.85c-3.35 4.59-8 6.47-12.1 7.7a32.82 32.82 0 0 1 -9.34 1.5 20 20 0 0 1 -7.43-1.34 12.43 12.43 0 0 1 -6.56-6 11.48 11.48 0 0 1 -.54-8.94 10.52 10.52 0 0 1 4.77-5.59 15.81 15.81 0 0 1 6.79-2h.59a7.16 7.16 0 0 1 6.62 4.02 6.75 6.75 0 0 1 -1.16 7.36 2.66 2.66 0 0 0 -.84 1.71 1.32 1.32 0 0 0 .69.12h.31c.45 0 1.5-.08 2.16-2.36a28.13 28.13 0 0 0 .84-6.32c0-.29.06-.66.11-1.09s.17-1.37.18-2a21.69 21.69 0 0 1 -3.15-1.45 20.41 20.41 0 0 1 -4.85-4.35c-1.44-1.74-3.1-4.31-2.84-6.68.11-1 .73-2.95 3.59-3.83l.84-.28a11.5 11.5 0 0 1 3.68-.81 4.67 4.67 0 0 1 2.51.68 6.5 6.5 0 0 1 2.51 3.66 19.79 19.79 0 0 1 6.31-7.25 23.92 23.92 0 0 1 12.23-4.14h.77a10.39 10.39 0 0 1 8.2 3.9 10 10 0 0 1 1.91 8.49z"></path>
            <path class="cjd-fill" fill="#8089a2" d="m49.57 5.91a7.77 7.77 0 0 0 -5.27-1.44 14.59 14.59 0 0 0 -9.39 4q-4.38 4.13-5.42 11.71-5.26-1.75-6.55-5.47c-.24-.72-.48-1.43-.72-2.12a1.75 1.75 0 0 0 -1.65-1 3.18 3.18 0 0 0 -.62.06 1.39 1.39 0 0 0 -1.19 1.59 6.61 6.61 0 0 0 1.29 3.52c1.9 2.92 4.93 5 9.19 6.24v1.44q0 9.71-1.86 12.9-1.65 2.79-6.76 3.35a8.44 8.44 0 0 1 -1 .06q-3.62-.06-3.62-3.57a2.86 2.86 0 0 1 .62-1.86l1.75-2.06a2.66 2.66 0 0 0 .52-1.65 4 4 0 0 0 -1.3-2.95 4.67 4.67 0 0 0 -3.59-1.23 5.86 5.86 0 0 0 -4.59 2.63 8.38 8.38 0 0 0 -1.55 5 8.48 8.48 0 0 0 2.32 6q3.3 3.51 10.22 3.51 12.59 0 17.39-10.12 1.65-3.49 1.34-10.94a19.87 19.87 0 0 0 9.29-4.56c2.64-2.32 4-4.69 4-7.1a6.77 6.77 0 0 0 -2.85-5.94zm-3.77 10.68a11.74 11.74 0 0 1 -6.86 4.18c0 .1-.07-.93-.21-3.1q-.31-5.06 2.12-8c1.2-1.45 2.35-2.17 3.45-2.17 2.31 0 3.46 1.49 3.46 4.49a7.76 7.76 0 0 1 -1.96 4.6z"></path>
         </g>
      </svg>