<svg viewBox="0 0 59.3 55.01" xmlns="http://www.w3.org/2000/svg">
         <path d="m16.16 53.44a15.08 15.08 0 0 1 -12.47-5.93 11.53 11.53 0 0 1 -1.76-9.46 9.31 9.31 0 0 1 5-6.37 19.42 19.42 0 0 1 4.93-1.61 10.6 10.6 0 0 1 -2.3-3.83 15 15 0 0 1 1-11.65 22.75 22.75 0 0 1 7.64-8.59 27.23 27.23 0 0 1 14.8-4.41 23.13 23.13 0 0 1 4.65.41 48.45 48.45 0 0 1 5.21 1.44l1.14.4a25.54 25.54 0 0 0 2.81.7h.28c.14-.13.32-.31.56-.52a11.58 11.58 0 0 1 6.15-2.02 3.61 3.61 0 0 1 3.31 1.85c1.48 2.67-.12 7.3-1 8.79-2.41 3.88-6.25 5.3-9.66 6.32l-.35.04c-.42.13-.85.26-1.3.36h-.14a7.76 7.76 0 0 1 -.58.79 8.44 8.44 0 0 0 -1.35 2.53 35.34 35.34 0 0 0 -1.4 5.63c-.17.91-.33 1.85-.48 2.75-.85 4.94-1.66 9.94-5.4 14.05-4 4.45-9.38 6.36-14.12 7.63a20.49 20.49 0 0 1 -5.17.7zm4.08-19.94a6 6 0 0 1 .57 3.73 37.65 37.65 0 0 0 2.24-4.23 14.74 14.74 0 0 1 -2.81.48zm6.22-19.42a4.15 4.15 0 0 0 -1.9.42 6.65 6.65 0 0 0 -3.95 6.87c.05.7.27 1.95 1.1 2.37a1.1 1.1 0 0 0 .41.15 2 2 0 0 0 .36-1.09 3.79 3.79 0 0 0 -.33-1.51 5.23 5.23 0 0 1 -.22-3.84 5.21 5.21 0 0 1 4-3l.2-.06a9.75 9.75 0 0 1 1-.3z" class="cjd-border" fill="#fff"></path>
         <path d="m53.8 3.55a10.21 10.21 0 0 0 -5.12 1.7c-1 .85-.76 1.1-2.16.85a24.36 24.36 0 0 1 -3-.75 62.47 62.47 0 0 0 -6.19-1.76 25.33 25.33 0 0 0 -18.25 3.73c-5.82 3.91-10.46 11.22-8 18.41a9.28 9.28 0 0 0 7.85 6.16c2.35.19 4.83-.71 7-1.46-2 4.35-3.86 9-7.71 12.11-.57.46-1.55 1.46-2.22.46a1.48 1.48 0 0 1 .5-2.42c2.26-1.42 3.58-3.83 2.32-6.43-2.05-4.15-7.82-2.64-11.19-1.05-4.92 2.34-5.7 9.36-2.63 13.44 3.74 5 10.17 6.19 16 4.64 5-1.33 9.78-3.16 13.35-7.13 4.09-4.55 4.39-10.21 5.48-15.95a36.21 36.21 0 0 1 1.46-5.89 10.2 10.2 0 0 1 1.64-3c.71-.84.5-1.15 1.61-1.39.5-.1 1-.27 1.49-.42 3.49-1 6.73-2.36 8.76-5.63 1.04-1.77 2.85-8.22-.99-8.22zm-27.33 12.45c-1.27.29-2.55.73-3.06 2-.69 1.75.86 3.2.65 5s-1.23 3.11-3.06 2.15a4.24 4.24 0 0 1 -2-3.65 8.24 8.24 0 0 1 4.81-8.41c3.78-1.94 8.78 1.31 12.08 2.86a23.7 23.7 0 0 0 -2.79 2.7c-.69-3.65-3.81-3.74-6.63-2.65-.13 0 .12-.08 0 0z" class="cjd-stroke" fill="#525a6f"></path>
         <g fill="#8089a2">
            <path class="cjd-fill" fill="#8089a2" d="m23.05 33a14.74 14.74 0 0 1 -2.81.48 6 6 0 0 1 .57 3.73 37.65 37.65 0 0 0 2.24-4.21z"></path>
            <path class="cjd-fill" fill="#8089a2" d="m41.41 15.51a2.44 2.44 0 0 0 -1.75.77q-4 3.91-4.33 4.44a56.2 56.2 0 0 0 -4.49 8.46c-1.83 4-3 6.45-3.46 7.28a20.44 20.44 0 0 1 -5.47 6.45 8.17 8.17 0 0 1 -4.7 1.85 2.53 2.53 0 0 1 -2.24-1 3.24 3.24 0 0 1 -.7-1.9 2.79 2.79 0 0 1 1.55-2.33q2.18-1.37 2.18-3.07a3.57 3.57 0 0 0 -1.11-2.71 3.83 3.83 0 0 0 -2.76-1.06 5.7 5.7 0 0 0 -4.33 1.8 8.07 8.07 0 0 0 -2.07 5.32c-.13 2.51 1 4.78 3.3 6.81a12.24 12.24 0 0 0 9.08 2.94 19 19 0 0 0 10.89-4.18 16.54 16.54 0 0 0 6.4-10.89q1.14-7.43 2-10.52a14.09 14.09 0 0 1 2.53-5.58 2.84 2.84 0 0 0 .82-1.75c-.04-.75-.47-1.13-1.34-1.13z"></path>
            <path class="cjd-fill" fill="#8089a2" d="m25.91 14.47.2-.06c.33-.11.65-.22 1-.3h-.62a4.15 4.15 0 0 0 -1.9.42 6.65 6.65 0 0 0 -3.95 6.87c.05.71.27 1.95 1.1 2.37a1.1 1.1 0 0 0 .41.15 2 2 0 0 0 .36-1.09 3.79 3.79 0 0 0 -.33-1.51 5.23 5.23 0 0 1 -.22-3.84 5.24 5.24 0 0 1 3.95-3.01z"></path>
            <path class="cjd-fill" fill="#8089a2" d="m58.5 3.05a5.21 5.21 0 0 0 -4.7-2.67 13.15 13.15 0 0 0 -7.21 2.49c-.66-.14-1.36-.32-2.12-.56l-1.09-.31a49.05 49.05 0 0 0 -5.38-1.52 24.69 24.69 0 0 0 -5-.48 28.89 28.89 0 0 0 -15.69 4.68 24.33 24.33 0 0 0 -8.18 9.21 16.59 16.59 0 0 0 -1.06 12.87 11.9 11.9 0 0 0 1.1 2.34 23.45 23.45 0 0 0 -2.9 1.14 10.9 10.9 0 0 0 -5.88 7.43 13.13 13.13 0 0 0 2 10.78 16.63 16.63 0 0 0 13.77 6.55 21.87 21.87 0 0 0 5.58-.75c5-1.32 10.59-3.31 14.89-8.09 4-4.5 4.92-9.72 5.77-14.76.14-.9.3-1.82.47-2.71a33.76 33.76 0 0 1 1.32-5.38 6.8 6.8 0 0 1 1.09-2.06c.13-.16.25-.31.35-.45l.93-.27.3-.09c4-1.18 8-2.85 10.55-7 .97-1.55 3.02-6.91 1.09-10.39zm-2.43 9.56c-2.42 3.88-6.26 5.3-9.67 6.32l-.31.09c-.41.13-.84.26-1.29.36h-.14a7.76 7.76 0 0 1 -.58.79 8.67 8.67 0 0 0 -1.36 2.53 34.25 34.25 0 0 0 -1.39 5.63c-.17.91-.33 1.85-.48 2.75-.85 4.92-1.66 9.92-5.4 14.03-4 4.45-9.38 6.36-14.12 7.63a20.49 20.49 0 0 1 -5.17.7 15.08 15.08 0 0 1 -12.47-5.93 11.53 11.53 0 0 1 -1.76-9.46 9.31 9.31 0 0 1 5-6.37 19.82 19.82 0 0 1 4.93-1.61 10.6 10.6 0 0 1 -2.3-3.83 15 15 0 0 1 1-11.65 22.75 22.75 0 0 1 7.64-8.59 27.23 27.23 0 0 1 14.8-4.41 23.13 23.13 0 0 1 4.65.41 48.45 48.45 0 0 1 5.21 1.44l1.14.4a25.54 25.54 0 0 0 2.81.7h.28c.14-.13.32-.31.56-.52a11.58 11.58 0 0 1 6.15-2.02 3.61 3.61 0 0 1 3.31 1.85c1.48 2.64-.11 7.27-1.04 8.76z"></path>
            <path class="cjd-fill" fill="#8089a2" d="m53.8 4.83c-.69 0-1.27.53-1.76 1.59-.37.79-1.39 1.19-3 1.19a21.67 21.67 0 0 1 -6.71-1.32 30.11 30.11 0 0 0 -9.44-1.93 17.38 17.38 0 0 0 -11.49 4.32q-6.3 5.32-6.3 12.05 0 4.59 2.84 7a7.68 7.68 0 0 0 5 1.95 8 8 0 0 0 6.2-2.94 10 10 0 0 0 2.86-6.9 3.66 3.66 0 0 0 -.44-1.84 2.43 2.43 0 0 0 -2.11-1.49 1.45 1.45 0 0 0 -1.4.77 1.86 1.86 0 0 0 .11 1.88 4.7 4.7 0 0 1 .56 2.2 5.64 5.64 0 0 1 -2.58 4.85 4.93 4.93 0 0 1 -2.78.72q-3.51 0-4.85-2.53a7.6 7.6 0 0 1 -.78-3.56q0-5.16 3.67-7.74a14 14 0 0 1 8.15-2.68 16.42 16.42 0 0 1 7.74 2.11c4 2.13 7 3.2 9 3.2a8.3 8.3 0 0 0 5.31-2.32 8.33 8.33 0 0 0 3.2-6.55c.03-1.36-.31-2.03-1-2.03z"></path>
         </g>
      </svg>