<svg viewBox="0 0 49.97 49.72" xmlns="http://www.w3.org/2000/svg">
         <path d="m9.75 48.13a7.34 7.34 0 0 1 -5.44-2.35 6.83 6.83 0 0 1 -1.72-5.34c.28-2.91 1.83-5.86 3.2-8.45.24-.47.49-.93.71-1.37a10.9 10.9 0 0 1 -3.75-4.27 12.53 12.53 0 0 1 -1.06-7 20.28 20.28 0 0 1 6.2-12.48c2.82-2.67 6.17-3.67 9.11-4.56a16 16 0 0 1 4.62-.72 9.71 9.71 0 0 1 8.38 4.13 9.48 9.48 0 0 1 1.42 7.28 12.33 12.33 0 0 1 2.07-2.08 18.19 18.19 0 0 1 10-3.6c2 0 3.46.63 4.25 1.85 1.43 2.24 0 5.41-1.1 7.73-.1.2-.19.4-.27.59-1.83 4.12-3.67 8.33-5.37 12.16a8.4 8.4 0 0 1 1.51-.15 3.58 3.58 0 0 1 3.82 2.82c.72 3.45-3.22 6.74-5.58 8.71l-.66.56a25.77 25.77 0 0 1 -10.42 5.76 10 10 0 0 1 -3.1.51 6.56 6.56 0 0 1 -6.3-3.86 26.19 26.19 0 0 1 -8 3.76 8.16 8.16 0 0 1 -2.52.37z" class="cjd-border" fill="#fff"></path>
         <path d="m43.54 8.88a16.73 16.73 0 0 0 -9.08 3.27 13.48 13.48 0 0 0 -3.59 4.67c-.49 1-.48 1.56-1.49 1.75-.55.11-1.07.34-1.61.48 1.56-3.88 3.62-8.53.91-12.43s-7.18-4-11.22-2.79c-3.14.94-6.03 1.87-8.46 4.17a18.78 18.78 0 0 0 -5.74 11.5c-.5 4.5 1.18 8.38 5.31 10.5-1.47 3.19-4.06 7-4.4 10.59-.41 4.27 3.72 6.92 7.6 5.62a25.12 25.12 0 0 0 9.47-5c.31 4.45 4.17 5.84 8 4.58a24.51 24.51 0 0 0 9.83-5.44c1.77-1.53 6.32-4.92 5.72-7.75s-5-1.15-6.66-.3c2.26-5.15 4.51-10.3 6.87-15.5 1.21-2.8 4-7.92-1.46-7.92zm-21.14 22.66c.23-.52.46-1 .69-1.53.41-.88 1.2-1 2-1.5a16.13 16.13 0 0 1 -2.71 3c.28-.51.89-.89.02.03zm-6.35-18.84c0 1.66-1 3.34-1.68 4.8-.77 1.7-1.53 3.4-2.31 5.09a8.89 8.89 0 0 1 .22-6.72 11.58 11.58 0 0 1 1.79-3c.66-.76 1.98-2.2 1.98-.17z" class="cjd-stroke" fill="#525a6f"></path>
         <g fill="#8089a2">
            <path class="cjd-fill" fill="#8089a2" d="m49.12 8.28c-.75-1.17-2.33-2.57-5.58-2.57a19.64 19.64 0 0 0 -10.48 3.53 10.28 10.28 0 0 0 -1.77-4.43 11.22 11.22 0 0 0 -9.66-4.81 17.81 17.81 0 0 0 -5.08.79c-3 .89-6.65 2-9.75 4.93a21.85 21.85 0 0 0 -6.69 13.43 14.06 14.06 0 0 0 1.22 7.85 12.09 12.09 0 0 0 3.14 4l-.09.18c-1.44 2.82-3.06 5.88-3.38 9.11a8.4 8.4 0 0 0 2.12 6.56 9 9 0 0 0 6.62 2.87 9.36 9.36 0 0 0 3-.48 27.86 27.86 0 0 0 7-3 8.36 8.36 0 0 0 6.87 3.24 11.78 11.78 0 0 0 3.56-.58 27.16 27.16 0 0 0 11-6.08l.64-.55c2.63-2.19 7-5.87 6.11-10.25a5 5 0 0 0 -4.42-4c1.63-3.73 3-6.91 4.36-9.86l.26-.57c1.16-2.59 2.88-6.33 1-9.31zm-2.43 8.58q-.15.32-.27.6c-1.88 4.15-3.72 8.36-5.42 12.19a8.4 8.4 0 0 1 1.51-.15 3.58 3.58 0 0 1 3.82 2.82c.72 3.45-3.22 6.74-5.58 8.71l-.66.56a25.77 25.77 0 0 1 -10.42 5.76 10 10 0 0 1 -3.1.51 6.56 6.56 0 0 1 -6.3-3.86 25.94 25.94 0 0 1 -8 3.75 7.88 7.88 0 0 1 -2.49.41 7.34 7.34 0 0 1 -5.44-2.35 6.83 6.83 0 0 1 -1.72-5.34c.28-2.91 1.83-5.85 3.2-8.45.24-.47.49-.93.71-1.37a10.9 10.9 0 0 1 -3.75-4.27 12.53 12.53 0 0 1 -1.06-7 20.28 20.28 0 0 1 6.17-12.51c2.82-2.67 6.17-3.67 9.11-4.56a16 16 0 0 1 4.62-.72 9.71 9.71 0 0 1 8.38 4.13 9.48 9.48 0 0 1 1.42 7.28 11.92 11.92 0 0 1 2.07-2.07 18.19 18.19 0 0 1 10-3.6c2 0 3.46.62 4.25 1.84 1.48 2.21.02 5.38-1.05 7.69z"></path>
            <path class="cjd-fill" fill="#8089a2" d="m43.54 10.15a6.24 6.24 0 0 0 -3.35.93 11.45 11.45 0 0 0 -2.63 2 15.41 15.41 0 0 0 -2.53 4q-3.41 7-5.52 11.2a63.24 63.24 0 0 1 -6.14 6.35 3.2 3.2 0 0 1 -2 .93c-.8 0-1.19-.5-1.19-1.5q0-1 2.22-5.62a17.32 17.32 0 0 0 7.6-6.22 2.43 2.43 0 0 0 .52-1.44c0-.65-.24-1-.72-1a2.1 2.1 0 0 0 -1.45.87c-.62.76-1.25 1.5-1.91 2.23a11.5 11.5 0 0 1 -2.63 2.32q1.76-4.08 4-9.71a12 12 0 0 0 .93-4.38 6.22 6.22 0 0 0 -2.47-5.21 6.87 6.87 0 0 0 -4.7-1.55 12.8 12.8 0 0 0 -9.7 5 17.28 17.28 0 0 0 -4.09 10.65q-.25 5.94 5.83 8.42c-1.92 4.19-3.32 7.2-4.17 9a7 7 0 0 0 -.68 2.85 3.82 3.82 0 0 0 1.45 3.09 4.32 4.32 0 0 0 2.73 1 6.77 6.77 0 0 0 3.51-1.14 54.84 54.84 0 0 0 6.92-5.36 49.06 49.06 0 0 0 3.56-3.41 15.46 15.46 0 0 0 -1.09 5.14c0 3 1.4 4.56 4.18 4.56q2.18 0 5.89-2.79a38 38 0 0 0 5.57-5c1.41-1.55 2.11-2.59 2.11-3.11s-.31-.88-.92-.88-1.6.77-3.05 2.32c-1.24 1.31-2.29 2-3.15 2-.51 0-.77-.31-.77-.93a5.51 5.51 0 0 1 .46-1.9q6-14 9.34-21.16a2.58 2.58 0 0 0 .21-1c0-1.07-.71-1.55-2.17-1.55zm-28.94 16.2q-4.33-1.55-4.34-6.6a12 12 0 0 1 3.36-8.26 6.84 6.84 0 0 1 2.58-2 5.5 5.5 0 0 1 1.9-.36 2.25 2.25 0 0 1 2.58 2.53 7.7 7.7 0 0 1 -.82 3.14q-3.25 7.33-5.26 11.55z"></path>
         </g>
      </svg>