<svg viewBox="0 0 61.41 49.67" xmlns="http://www.w3.org/2000/svg">
         <path d="m15.56 48.11c-3.5 0-4.31-2.32-4.5-3.31-.37-1.93.76-3.64 1.58-4.88l.45-.7a17.8 17.8 0 0 0 2.3-5.79 41.75 41.75 0 0 0 .5-7c0-1.31 0-2.63.14-4a17.25 17.25 0 0 1 -5.75 1.15 10.18 10.18 0 0 1 -3.85-.72 7.37 7.37 0 0 1 -4.55-4.84 10 10 0 0 1 1.84-8.32c2.85-3.95 6.88-5.54 10.81-6.7a11.2 11.2 0 0 1 3.29-.65 4.52 4.52 0 0 1 2.39.65 3.43 3.43 0 0 1 1.56 2.15 3.79 3.79 0 0 1 -.49 2.85 7.21 7.21 0 0 1 -1.5 1.53 6.72 6.72 0 0 0 -1.25 1.25l.09.1c.67-.06 2.09-1.35 2.56-1.78l.39-.35.66-.59c2-1.82 4.58-4.08 7.5-4.82h.07a16.8 16.8 0 0 1 4.89-1 3.92 3.92 0 0 1 3.12 1.22 4 4 0 0 1 .73 3.29 4.39 4.39 0 0 1 -1.54 2.58c-.15.13-.28.26-.41.39a5.68 5.68 0 0 0 -1 2.19 11.2 11.2 0 0 0 -.38 1.81 47.37 47.37 0 0 1 8.81-8.23c2.89-2 7.49-4 11.26-4 3.25 0 4.2 2 4.45 2.83.91 3.05-1.69 7.39-3.89 8.83a26.09 26.09 0 0 1 -4.58 2.23 20.68 20.68 0 0 0 -4.51 2.26c-5.47 4-8.91 9.47-12.55 15.3-1.36 2.17-2.76 4.42-4.27 6.57-2.14 3-4.9 6.28-9.2 7.45a17 17 0 0 1 -5.07 1z" class="cjd-border" fill="#fff"></path>
         <path d="m55.19 3.18c-3.36 0-7.65 1.82-10.37 3.72-4.42 3-8.07 7.3-11.4 11.48a20.86 20.86 0 0 1 .58-6.82 7 7 0 0 1 1.42-2.83c.64-.73 1.39-1.13 1.58-2.17.65-4.23-4.71-2.36-6.8-1.67-2.86.7-5.43 3.2-7.56 5.08-1 .9-3.64 3.59-5.11 2.06-1.95-2 1.64-3.59 2.44-4.86a2 2 0 0 0 -.55-2.8c-1.28-.79-3.1-.22-4.4.19-3.97 1.12-7.52 2.62-10.02 6.06-2.69 3.74-2.75 8.89 2 10.83 3.53 1.43 7.57.07 10.85-1.47-.69 4.55-.08 9.2-.93 13.73a19.21 19.21 0 0 1 -2.47 6.29c-.76 1.27-2.14 2.87-1.83 4.48.63 3.32 5.55 1.7 7.56 1 3.69-1 6.21-3.81 8.35-6.85 5.47-7.63 9.31-16.45 17.19-22.17 2.84-2.07 6.27-2.66 9.15-4.54 2.67-1.74 5.85-8.74.32-8.74z" class="cjd-stroke" fill="#525a6f"></path>
         <g fill="#8089a2">
            <path class="cjd-fill" fill="#8089a2" d="m61.16 4c-.28-.93-1.53-4-6-4s-9.27 2.31-12.16 4.28c-1 .66-1.9 1.38-2.84 2.18a5.26 5.26 0 0 0 -1.17-4 5.41 5.41 0 0 0 -4.3-1.75 17.76 17.76 0 0 0 -5.39 1.13 16.05 16.05 0 0 0 -5.93 3.26 1.59 1.59 0 0 0 -.06-.3 5 5 0 0 0 -2.31-3.15 6.14 6.14 0 0 0 -3.18-.85 12.58 12.58 0 0 0 -3.75.72c-4.2 1.2-8.51 2.91-11.63 7.25a11.51 11.51 0 0 0 -2.08 9.75 8.89 8.89 0 0 0 5.48 5.87 11.62 11.62 0 0 0 4.44.84 16.13 16.13 0 0 0 4.06-.55v1.75a40.13 40.13 0 0 1 -.47 6.7 15.89 15.89 0 0 1 -2.11 5.27c-.1.17-.23.37-.37.59v.06c-.92 1.39-2.3 3.47-1.81 6 .42 2.23 2.23 4.59 6.06 4.59a18.47 18.47 0 0 0 5.53-1.1c4.77-1.31 7.75-4.8 10-8 1.54-2.19 3-4.45 4.33-6.64 3.5-5.71 6.86-11.08 12.08-14.9a19.19 19.19 0 0 1 4.18-2 27.06 27.06 0 0 0 4.85-2.37c2.63-1.77 5.71-6.76 4.55-10.63zm-5.42 9.28a26.09 26.09 0 0 1 -4.58 2.23 21.14 21.14 0 0 0 -4.51 2.26c-5.47 4-8.91 9.48-12.55 15.3-1.35 2.17-2.76 4.42-4.27 6.57-2.14 3-4.9 6.28-9.19 7.45a17.13 17.13 0 0 1 -5.08 1c-3.5 0-4.31-2.32-4.5-3.31-.37-1.93.76-3.64 1.58-4.88l.45-.7a17.8 17.8 0 0 0 2.3-5.79 41.75 41.75 0 0 0 .5-7c0-1.31 0-2.63.13-4a17.15 17.15 0 0 1 -5.74 1.15 10.18 10.18 0 0 1 -3.85-.72 7.37 7.37 0 0 1 -4.55-4.84 10 10 0 0 1 1.84-8.3c2.85-3.95 6.88-5.54 10.81-6.7a11.2 11.2 0 0 1 3.29-.65 4.55 4.55 0 0 1 2.39.65 3.43 3.43 0 0 1 1.56 2.15 3.79 3.79 0 0 1 -.49 2.85 7.21 7.21 0 0 1 -1.5 1.53 6.72 6.72 0 0 0 -1.25 1.25l.09.1c.66-.06 2.08-1.35 2.56-1.78l.39-.35.66-.59c2-1.82 4.57-4.08 7.5-4.82h.07a16.73 16.73 0 0 1 4.89-1 3.92 3.92 0 0 1 3.12 1.22 4 4 0 0 1 .73 3.29 4.39 4.39 0 0 1 -1.54 2.58c-.15.13-.28.26-.41.39a5.68 5.68 0 0 0 -1 2.19 11.2 11.2 0 0 0 -.38 1.81 47.37 47.37 0 0 1 8.81-8.23c2.89-2 7.49-4 11.26-4 3.25 0 4.2 2 4.45 2.83.81 3.06-1.79 7.39-3.99 8.83z"></path>
            <path class="cjd-fill" fill="#8089a2" d="m55.19 4.45a8.91 8.91 0 0 0 -3 .72q-5.57 2.12-13.93 12.38a77.39 77.39 0 0 0 -4.85 6.66c-.58.93-1.12 1.83-1.6 2.68a46.56 46.56 0 0 0 .31-9.19 18.62 18.62 0 0 1 .88-7.11 6.45 6.45 0 0 1 2-3.2 1.51 1.51 0 0 0 .72-1.24q0-1.4-1.65-1.08-2.16.36-7.27 4.85c-2.93 2.54-5.57 3.82-7.95 3.82a2.83 2.83 0 0 1 -2.63-1.3 3 3 0 0 1 -.46-1.6c0-1.47.85-2.77 2.58-3.87a1.17 1.17 0 0 0 .66-.97c0-.48-.4-.72-1.19-.72a6.71 6.71 0 0 0 -.72.05 12.1 12.1 0 0 0 -6.35 3.46 9.07 9.07 0 0 0 -3 6.45 3.94 3.94 0 0 0 2.11 3.51 7.63 7.63 0 0 0 4.08 1.09 5.3 5.3 0 0 0 1.91-.31 59.2 59.2 0 0 0 7.69-4q-1.4 3-1.4 9.86a38 38 0 0 1 -.79 8.61 21.76 21.76 0 0 1 -2.89 6.42 6.34 6.34 0 0 0 -1.24 2.69c0 .65.57 1 1.7 1.18q4.86.56 11.09-10.29 10.26-18 20.33-21.46a21.88 21.88 0 0 0 3.35-1.4 6.41 6.41 0 0 0 2.64-2.62 5.19 5.19 0 0 0 .72-2.38c.01-1.14-.62-1.69-1.85-1.69z"></path>
         </g>
      </svg>