<svg viewBox="0 0 72.35 50.69" xmlns="http://www.w3.org/2000/svg">
         <path d="m15.73 49.1a4.69 4.69 0 0 1 -4-1.71c-1.71-2.22-.1-4.91.5-5.92a21.35 21.35 0 0 0 3-6.61 39 39 0 0 0 .58-7.41c0-1.3 0-2.63.13-4a16.39 16.39 0 0 1 -5.66 1.12 10.21 10.21 0 0 1 -4.59-1 7 7 0 0 1 -4-5.07c-.66-3.49 1.15-7 3.07-9.13 2.64-2.91 6.56-4.9 11.66-5.91a5.3 5.3 0 0 1 1.26-.15 4.41 4.41 0 0 1 3.41 1.39 3.41 3.41 0 0 1 .75 2.85 4.75 4.75 0 0 1 -2.2 3.05c-.64.48-.95.75-1 1.06a.37.37 0 0 0 0 .15 3.71 3.71 0 0 0 1-.6l.26-.21a40.93 40.93 0 0 0 3.35-2.7c.67-.58 1.36-1.19 2.07-1.76a18 18 0 0 1 7.82-3.21 5.69 5.69 0 0 1 .86-.07 4.34 4.34 0 0 1 3.79 2.16 4.09 4.09 0 0 1 .36 3.14 5 5 0 0 1 2-1.88 10.8 10.8 0 0 1 2-.65l.67-.18a7.67 7.67 0 0 1 2.18-.35c2.43 0 4.38 1.29 5.81 3.85a7.75 7.75 0 0 1 .9 3.07 59.6 59.6 0 0 1 5.29-6.2c1.74-1.73 5.26-4.63 9.36-4.63a4 4 0 0 1 3.13 1.41 5.71 5.71 0 0 1 1.22 4.4c-.38 3.13-2.91 5.25-5.13 7.13-.68.57-1.32 1.1-1.83 1.61a59 59 0 0 0 -11.81 17.51c-.4 1-.8 2-1.19 3a56.31 56.31 0 0 1 -3.19 7.2c-1.31 2.36-3.43 3-5.3 3.5l-.52.15a8.17 8.17 0 0 1 -2.32.35c-4 0-6.61-3.34-7.52-9.33a36.4 36.4 0 0 1 -9.45 8.56 15.21 15.21 0 0 1 -6.72 2.02z" class="cjd-border" fill="#fff"></path>
         <path d="m66.4 3.18c-3.13 0-6.15 2.08-8.24 4.17a70 70 0 0 0 -8.59 10.82c.41-2.53 1.15-5.67-.17-8-1.46-2.62-3.47-3.58-6.21-2.76a16.94 16.94 0 0 0 -2.42.75c-1.13.54-1.82 2.2-2.37 3.25-1.7 3.22-3 6.58-5 9.68 0-3.07-.41-6.39.66-9.32.48-1.33 1.53-1.73 2.21-2.87a2.63 2.63 0 0 0 -2.86-4 16 16 0 0 0 -7.09 2.87c-1.84 1.5-3.56 3.19-5.51 4.56-.9.64-1.87 1.47-3 .84a1.72 1.72 0 0 1 -.73-1.75c.28-1.95 2.92-2.22 3.19-4.12s-1.87-2.68-3.48-2.3c-4 .79-8 2.35-10.82 5.43-3.1 3.42-4.49 9.26.47 11.71 3.67 1.81 7.91.48 11.4-1.16-.71 4.7 0 9.52-1 14.19a23.13 23.13 0 0 1 -3.2 7.11c-.71 1.18-1.59 2.85-.6 4.13 1.76 2.29 6.57.44 8.62-.72 4.55-2.59 8.31-7.2 11.49-11.27.12 4.79 1.35 13.58 8.14 11.58 2-.59 3.79-.94 4.89-2.9 1.75-3.14 2.92-6.75 4.3-10.06a60.28 60.28 0 0 1 12.15-18.04c2.18-2.19 6.09-4.45 6.51-7.81.22-1.82-.62-4.01-2.74-4.01z" class="cjd-stroke" fill="#525a6f"></path>
         <g fill="#8089a2">
            <path class="cjd-fill" fill="#8089a2" d="m70.67 1.91a5.6 5.6 0 0 0 -4.27-1.91c-4.67 0-8.57 3.2-10.48 5.1a52.24 52.24 0 0 0 -3.53 3.9c-.07-.14-.14-.28-.22-.41-2.17-3.87-5.1-4.68-7.17-4.68a9.35 9.35 0 0 0 -2.7.42l-.62.16a12.63 12.63 0 0 0 -2.22.75c-.09-.21-.19-.41-.3-.61a5.93 5.93 0 0 0 -5.17-3 5.77 5.77 0 0 0 -1.1.1 19.51 19.51 0 0 0 -8.56 3.57l-.92.76a4.92 4.92 0 0 0 -1.11-2.39 6 6 0 0 0 -4.59-1.94 7 7 0 0 0 -1.59.18c-5.43 1.09-9.64 3.23-12.5 6.4-2.18 2.41-4.23 6.42-3.45 10.48a8.56 8.56 0 0 0 4.83 6.21 11.87 11.87 0 0 0 5.29 1.19 16.19 16.19 0 0 0 4-.52v1.75a37.84 37.84 0 0 1 -.55 7.11 20.58 20.58 0 0 1 -2.81 6.13c-.69 1.14-2.77 4.62-.39 7.7a6.2 6.2 0 0 0 5.2 2.33 16.55 16.55 0 0 0 7.5-2.24 33 33 0 0 0 7.76-6.51 13.58 13.58 0 0 0 2.24 4.49 7.69 7.69 0 0 0 6.15 3 9.81 9.81 0 0 0 2.8-.43l.31-.09h.2c1.95-.56 4.62-1.33 6.25-4.25a58.47 58.47 0 0 0 3.28-7.41c.38-1 .77-2 1.17-2.94a57 57 0 0 1 11.48-17c.46-.46 1.07-1 1.72-1.52 2.33-2 5.23-4.4 5.69-8.14a7.32 7.32 0 0 0 -1.62-5.74zm0 5.49c-.38 3.13-2.91 5.25-5.14 7.13-.67.57-1.31 1.1-1.82 1.61a58.81 58.81 0 0 0 -11.77 17.51c-.41 1-.8 2-1.19 3a56.31 56.31 0 0 1 -3.19 7.2c-1.31 2.36-3.43 3-5.3 3.5l-.52.15a8.17 8.17 0 0 1 -2.32.35c-4 0-6.61-3.34-7.52-9.33a36.6 36.6 0 0 1 -9.46 8.56 15.12 15.12 0 0 1 -6.71 2 4.69 4.69 0 0 1 -4-1.71c-1.71-2.22-.1-4.91.5-5.92a21.35 21.35 0 0 0 3-6.61 39 39 0 0 0 .58-7.41c0-1.3 0-2.63.13-4a16.39 16.39 0 0 1 -5.66 1.12 10.21 10.21 0 0 1 -4.59-1 7 7 0 0 1 -4-5.07c-.66-3.49 1.15-7 3.07-9.13 2.64-2.91 6.56-4.9 11.66-5.91a5.3 5.3 0 0 1 1.26-.15 4.41 4.41 0 0 1 3.41 1.41 3.41 3.41 0 0 1 .75 2.85 4.75 4.75 0 0 1 -2.2 3.05c-.64.48-.95.75-1 1.06a.37.37 0 0 0 0 .15 3.71 3.71 0 0 0 1-.6l.26-.21a40.93 40.93 0 0 0 3.35-2.7c.67-.58 1.36-1.19 2.07-1.76a18 18 0 0 1 7.82-3.21 5.69 5.69 0 0 1 .86-.07 4.34 4.34 0 0 1 3.79 2.16 4.09 4.09 0 0 1 .36 3.14 4.93 4.93 0 0 1 2-1.87 10.14 10.14 0 0 1 2-.66l.67-.18a8 8 0 0 1 2.18-.35c2.43 0 4.38 1.29 5.81 3.85a7.75 7.75 0 0 1 .9 3.07 59.42 59.42 0 0 1 5.29-6.19c1.74-1.74 5.26-4.64 9.36-4.64a4 4 0 0 1 3.13 1.41 5.71 5.71 0 0 1 1.22 4.4z"></path>
            <path class="cjd-fill" fill="#8089a2" d="m66.4 4.45a3.41 3.41 0 0 0 -2 1q-4.5 3.77-9.91 11.71a62.55 62.55 0 0 0 -6.76 12.12 7.84 7.84 0 0 1 -.41-3.14 42 42 0 0 1 .77-6.71 42.22 42.22 0 0 0 .78-6.61 4.77 4.77 0 0 0 -1.32-3.12 3.55 3.55 0 0 0 -2.4-1.52.9.9 0 0 0 -.78.36 28.31 28.31 0 0 0 -2.78 5.16 54.84 54.84 0 0 1 -3.77 7.07q-5.1 7.44-6.23 8.62a54.18 54.18 0 0 0 .59-8.2v-2.5c-.23-5.27.57-8.57 2.46-9.91a1.55 1.55 0 0 0 .76-1.34c0-1.07-.59-1.5-1.75-1.29a6.33 6.33 0 0 0 -2.43 1q-1 .78-4.39 3.67-4.38 3.81-7.95 3.81a2.82 2.82 0 0 1 -2.63-1.29 3.07 3.07 0 0 1 -.46-1.6q0-2.16 2.58-3.82a1.15 1.15 0 0 0 .63-.92c0-.54-.4-.82-1.19-.82a3.07 3.07 0 0 0 -.77.1 12.12 12.12 0 0 0 -6.3 3.51 9 9 0 0 0 -3 6.4 4 4 0 0 0 2.11 3.56 7.9 7.9 0 0 0 4.15 1.05 4.69 4.69 0 0 0 1.86-.31 53.15 53.15 0 0 0 7.64-4.07q-1.39 3-1.4 9.91a39.15 39.15 0 0 1 -.74 8.61 21.19 21.19 0 0 1 -2.87 6.4 6.38 6.38 0 0 0 -1.24 2.74c0 .65.55 1 1.65 1.18s3.1-1 5.78-3.46a63 63 0 0 0 7.9-8.66c.21-.28 1.22-1.53 3-3.77a46.48 46.48 0 0 0 2.94-4 29.55 29.55 0 0 0 -.77 6.81q0 7.49 2.17 10.27a3.6 3.6 0 0 0 2.79 1.65c1.1 0 2-.74 2.63-2.22q2-4.69 4-9.39a65.24 65.24 0 0 1 5.86-10.55 58.59 58.59 0 0 1 10.06-11.09q2.64-2.26 2.64-4.13c0-1.52-.5-2.27-1.5-2.27z"></path>
         </g>
      </svg>