<svg viewBox="0 0 66.51 51.27" xmlns="http://www.w3.org/2000/svg">
         <path d="m11.92 49.68a12 12 0 0 1 -1.72-.12 10 10 0 0 1 -8.35-8 10.47 10.47 0 0 1 4.42-11.19 17.75 17.75 0 0 1 8.59-2.57 8.16 8.16 0 0 1 1.7.17 5.84 5.84 0 0 1 4.44 4.12 6.68 6.68 0 0 1 .12 3.26c1.43-1.49 2.76-3.09 4-4.68-5.34-1.88-9.07-5.67-10.12-10.44a15.7 15.7 0 0 1 .14-7.68 12.8 12.8 0 0 1 4.13-6.55 21.16 21.16 0 0 1 12.14-4.4 11.22 11.22 0 0 1 2.15.2c3.72.78 6.76 3.51 8.73 7.8 2.63-2.6 5.5-5.06 8.93-6.34a20.75 20.75 0 0 1 7-1.67 7.2 7.2 0 0 1 4.47 1.41 4.69 4.69 0 0 1 .57.48 4.28 4.28 0 0 1 .55.6 5.15 5.15 0 0 1 1.11 3.49 8.79 8.79 0 0 1 -3.35 6c-1.71 1.36-4.24 2-6.49 2.49a7.87 7.87 0 0 1 -1.71.18 17 17 0 0 1 -2.64-.24h-.27a6.35 6.35 0 0 0 -.81.83c-.11.13-.22.26-.33.37-.27.29-.59.61-.94 1-.56.56-1.23 1.22-1.81 1.9a6.24 6.24 0 0 1 1-.08 5 5 0 0 1 1 .09 3.4 3.4 0 0 1 2.78 2.63 4.79 4.79 0 0 1 -2 4.62 16.52 16.52 0 0 1 -2.85 1.53l-.38.18-.26.11c0 .33.08.67.13 1v.25c.07.49.13 1 .22 1.49a11.5 11.5 0 0 1 5.66-2.13 3.81 3.81 0 0 1 2.82 1.11 3.44 3.44 0 0 1 1 2.53c-.06 2.68-2.93 5.57-5.61 8.06l-.75.71a20.42 20.42 0 0 1 -11.67 5.79 9.2 9.2 0 0 1 -1 .06 7.08 7.08 0 0 1 -6-3.32 12.53 12.53 0 0 1 -1.49-3.14 25.63 25.63 0 0 1 -8.64 6.2 24.39 24.39 0 0 1 -8.61 1.89zm13.88-36a12.41 12.41 0 0 0 0 3.59 5.61 5.61 0 0 0 1.2 2.19 23.57 23.57 0 0 0 -.36-3.46 5.85 5.85 0 0 0 -.84-2.37z" class="cjd-border" fill="#fff"></path>
         <path d="m62.16 4.62c-2.77-2.62-7.26-1.05-10.39.12-3.94 1.48-7.2 4.75-10 7.74-1.35-4.09-4-8.19-8.49-9.13-4-.78-9.89 1.31-13 3.85-3.69 3-4.82 8.13-3.78 12.68 1.25 5.46 6.11 8.73 11.31 9.92a65.89 65.89 0 0 1 -7.42 8.49c-.69.63-3.19 3.31-4.09 1.82-.74-1.24 1.31-2 1.92-2.57 2.51-2.51 1.7-7.23-2-8-2.59-.55-6.87.74-9.1 2.18-6.57 4.28-4.56 15.11 3.32 16.28 3.08.46 6.53-.65 9.41-1.78 4-1.57 7.2-4.81 10.07-7.92.69 4 2.55 8.63 7.53 8a18.9 18.9 0 0 0 10.73-5.3c1.41-1.43 7.76-6.62 5.37-9.08-2-2-6.88 1.29-8.31 2.63a19.8 19.8 0 0 1 -.87-4.25c-.06-.47-.12-.94-.17-1.4-.13-1.14.28-.94 1.21-1.37a18 18 0 0 0 3-1.56c1.52-1.09 2.2-3.89-.22-4.4-1.42-.3-3.23.56-4.59 1-.26-2.05 3.17-5 4.57-6.49.57-.6 1.47-1.85 2.33-1.72a11.53 11.53 0 0 0 4.26.18c1.87-.41 4.35-1 5.84-2.18 2.22-1.77 4-5.39 1.58-7.71-1.02-.99.99.92-.02-.03zm-36.32 7.08c3.18 1.26 2.61 8.44 2.75 11a8.26 8.26 0 0 1 -4.37-5.15c-.27-1.12-.44-6.65 1.62-5.89 1.16.48-.2-.04 0 .04z" class="cjd-stroke" fill="#525a6f"></path>
         <g fill="#8089a2">
            <path class="cjd-fill" fill="#8089a2" d="m65.09 3.13a5 5 0 0 0 -.74-.82 5.16 5.16 0 0 0 -.74-.62 8.75 8.75 0 0 0 -5.39-1.69 22.25 22.25 0 0 0 -7.56 1.77 24.87 24.87 0 0 0 -7.93 5.23 16.12 16.12 0 0 0 -3.07-3.8 12.28 12.28 0 0 0 -5.76-2.95 12.92 12.92 0 0 0 -2.49-.25 22.58 22.58 0 0 0 -13.15 4.75 14.49 14.49 0 0 0 -4.71 7.38 17.52 17.52 0 0 0 -.15 8.46 14.6 14.6 0 0 0 2.72 5.7 10.41 10.41 0 0 0 -1.26-.07 19.36 19.36 0 0 0 -9.45 2.78 12.05 12.05 0 0 0 -5.11 12.87 11.54 11.54 0 0 0 9.7 9.27 13.78 13.78 0 0 0 1.95.13 25.72 25.72 0 0 0 9.05-2.1 24.47 24.47 0 0 0 7.49-4.91 13.91 13.91 0 0 0 .74 1.26 8.72 8.72 0 0 0 7.37 4 10.13 10.13 0 0 0 1.22-.08 22 22 0 0 0 12.61-6.25l.7-.66c3.06-2.84 6-5.88 6.12-9.18a5 5 0 0 0 -1.43-3.68 5.35 5.35 0 0 0 -4-1.59 6.94 6.94 0 0 0 -1.2.1 6.33 6.33 0 0 0 2.17-5.9 4.86 4.86 0 0 0 -2.91-3.51l.56-.58.36-.41.16-.19a15.83 15.83 0 0 0 2.37.21 9.76 9.76 0 0 0 2.05-.21c2.42-.53 5.16-1.23 7.14-2.8a10.32 10.32 0 0 0 4-7.2 6.83 6.83 0 0 0 -1.43-4.46zm-.17 4.42a8.79 8.79 0 0 1 -3.35 6c-1.71 1.36-4.25 2-6.49 2.49a7.93 7.93 0 0 1 -1.71.18 17.23 17.23 0 0 1 -2.65-.22h-.26a6.35 6.35 0 0 0 -.81.83l-.33.37c-.27.29-.6.61-.94 1-.56.56-1.23 1.23-1.81 1.9a6.22 6.22 0 0 1 1-.08 4.31 4.31 0 0 1 1 .1 3.36 3.36 0 0 1 2.77 2.62 4.78 4.78 0 0 1 -2 4.62 16.52 16.52 0 0 1 -2.85 1.53l-.39.18-.25.11c0 .34.08.68.13 1v.25q.09.75.21 1.5a11.45 11.45 0 0 1 5.67-2.14 3.81 3.81 0 0 1 2.82 1.11 3.44 3.44 0 0 1 1 2.53c-.08 2.57-2.94 5.47-5.63 7.97l-.74.7a20.45 20.45 0 0 1 -11.67 5.79 7.37 7.37 0 0 1 -1 .07 7.07 7.07 0 0 1 -6.05-3.33 12.52 12.52 0 0 1 -1.48-3.14 25.63 25.63 0 0 1 -8.64 6.2 24.39 24.39 0 0 1 -8.51 2 11.77 11.77 0 0 1 -1.71-.12 10 10 0 0 1 -8.36-8 10.47 10.47 0 0 1 4.38-11.2 17.78 17.78 0 0 1 8.59-2.57 8.26 8.26 0 0 1 1.71.17 5.83 5.83 0 0 1 4.43 4.12 6.67 6.67 0 0 1 .12 3.26 60.52 60.52 0 0 0 4-4.68c-5.34-1.88-9.07-5.67-10.12-10.44a15.7 15.7 0 0 1 .14-7.68 12.87 12.87 0 0 1 4.13-6.55 21.16 21.16 0 0 1 12.14-4.4 10.47 10.47 0 0 1 2.15.2c3.72.77 6.76 3.51 8.73 7.8 2.64-2.6 5.5-5.06 8.93-6.35a21 21 0 0 1 7-1.66 7.13 7.13 0 0 1 4.47 1.41 3.46 3.46 0 0 1 .57.48 3.79 3.79 0 0 1 .55.6 5.23 5.23 0 0 1 1.11 3.47zm-42.54 23.7.17.08-.1.12c-.02-.06-.04-.13-.07-.2z"></path>
            <path class="cjd-fill" fill="#8089a2" d="m61.28 5.54a4.63 4.63 0 0 0 -3.35-1.1q-5.67 0-16.3 12.9-1.96-11.23-8.63-12.74a8.43 8.43 0 0 0 -1.6-.16 10 10 0 0 0 -4.23 1 10.38 10.38 0 0 0 -6.4 10.16 10.76 10.76 0 0 0 4 8.83 17.21 17.21 0 0 0 8.62 3.45q-5.78 7.74-9.55 10.94c-2.27 2-4.28 2.94-6 2.94-1.93 0-2.89-.7-2.89-2.11a2.22 2.22 0 0 1 .77-1.91c.52-.38 1-.76 1.6-1.14a3.78 3.78 0 0 0 1.09-2.78 3 3 0 0 0 -.93-2.35 3.67 3.67 0 0 0 -2.58-.85 7.18 7.18 0 0 0 -7.07 7.38c0 3.38 1.22 5.68 3.66 6.92a8.47 8.47 0 0 0 3.87.88 13.34 13.34 0 0 0 8.07-3.15q4.11-3.15 10.45-10.94c.42 4.89 1 8.15 1.92 9.8a5 5 0 0 0 3.76 2.49 6.27 6.27 0 0 0 4.13-1.13 17.26 17.26 0 0 0 4.07-3.31c2.52-2.68 4-4.31 4.5-4.9a2.08 2.08 0 0 0 .56-1.29c0-.52-.24-.77-.72-.77a2.45 2.45 0 0 0 -1.55.82l-2.42 2.27a3.5 3.5 0 0 1 -2.17.93 1.9 1.9 0 0 1 -1.81-1.39q-.82-1.91-1.39-7.95c2-.86 3.46-1.54 4.39-2.06s1.39-1.07 1.39-1.65-.35-.83-1-.83a2.41 2.41 0 0 0 -1.4.52 15.33 15.33 0 0 1 -3.56 1.86 16 16 0 0 0 -.18-2 15.91 15.91 0 0 1 -.18-1.94 62 62 0 0 1 6.53-7.5 6.06 6.06 0 0 1 3.9-1.78 11.91 11.91 0 0 1 2 .23 13.07 13.07 0 0 0 2 .23 5 5 0 0 0 4.33-2.28 5.09 5.09 0 0 0 1.19-2.86 2.28 2.28 0 0 0 -.89-1.68zm-35.73 16.6a8.43 8.43 0 0 1 -2.81-6.4 7.48 7.48 0 0 1 1.5-5 4.23 4.23 0 0 1 3.4-1.6 5.76 5.76 0 0 1 2 .36q2.37.93 3.05 5 .31 1.5.73 11.05a14.35 14.35 0 0 1 -7.87-3.41zm.21-8.78a13.3 13.3 0 0 0 -.05 3.92 6.11 6.11 0 0 0 1.29 2.46 24 24 0 0 0 -.34-3.81 6.45 6.45 0 0 0 -.9-2.57z"></path>
         </g>
      </svg>