<svg viewBox="0 0 57.75 55.48" xmlns="http://www.w3.org/2000/svg">
         <path d="m16.48 53.89c-5.11 0-9.17-1.63-12.06-4.84a11.08 11.08 0 0 1 -2.83-7.67 12.41 12.41 0 0 1 2.82-7.6c2.06-2.51 5.93-4 9-4.3a11.34 11.34 0 0 1 .68-3.26l-.34-.2a8.9 8.9 0 0 1 -1.51-1.19c-2-2-2.8-4.92-2.35-8.47a15.5 15.5 0 0 1 4.01-8.36 17 17 0 0 1 7.77-4.95 25.5 25.5 0 0 1 7.56-1.47 8.54 8.54 0 0 1 7.46 3.56 7.39 7.39 0 0 1 1.31 5.76 23.58 23.58 0 0 1 5.42-4.67 19.11 19.11 0 0 1 8.66-2.71 4.05 4.05 0 0 1 3.52 1.83 4 4 0 0 1 .08 4 16.15 16.15 0 0 1 -3.14 4c-.59.6-1.14 1.18-1.61 1.75a29.3 29.3 0 0 0 -5.36 11.87l-.15.65c-1.14 4.88-2.21 9.49-5 13.89a24.51 24.51 0 0 1 -11.32 9.64 34.71 34.71 0 0 1 -12.62 2.74zm.74-11.18a1.33 1.33 0 0 0 .61.49 3.39 3.39 0 0 0 1.34.32c1.75 0 3.25-2 4.21-3.63a27.19 27.19 0 0 0 1.73-3.72 17.41 17.41 0 0 1 -3.35.66 5.92 5.92 0 0 1 -4 5.62 1.23 1.23 0 0 0 -.54.26z" class="cjd-border" fill="#fff"></path>
         <path d="m52.05 5.11a17.58 17.58 0 0 0 -7.84 2.48c-3.71 2.23-6.55 5.95-8.89 9.51a2 2 0 0 0 -1.18-.44c1.45-3.48 3.77-7 1.25-10.6-3-4.37-9-2.83-13.26-1.48-5.26 1.48-10 6.51-10.68 12-.31 2.52 0 5.27 1.91 7.14a6.81 6.81 0 0 0 1.22 1c.92.57 1.66.31 1.2 1.5a9 9 0 0 0 -.71 4.78c-3.07-.18-7.48 1.4-9.43 3.79a10.13 10.13 0 0 0 -.04 13.21c5.74 6.36 15.83 4.57 22.91 1.69a23.15 23.15 0 0 0 10.54-9.09c2.8-4.35 3.82-9.08 5-14a30.65 30.65 0 0 1 5.67-12.5c1.43-1.79 3.53-3.39 4.56-5.46a2.3 2.3 0 0 0 -2.23-3.53zm-30.23 7.17c0 2.06-1.26 4.24-2.18 6-.92-2.12.6-5 2.14-6.43v.44zm-.84 23a20.88 20.88 0 0 0 6.7-1.67c-1.27 4-4.61 13.74-10.5 11-2-.9-2.19-3 .07-3.71 2.47-.77 3.23-3.33 2.85-5.69z" class="cjd-stroke" fill="#525a6f"></path>
         <g fill="#8089a2">
            <path class="cjd-fill" fill="#8089a2" d="m57 4.51a5.61 5.61 0 0 0 -4.9-2.58 20.52 20.52 0 0 0 -9.47 2.93 22 22 0 0 0 -3.19 2.36 9.15 9.15 0 0 0 -1.39-3 10.17 10.17 0 0 0 -8.82-4.22 26.94 26.94 0 0 0 -8 1.54 18.55 18.55 0 0 0 -8.49 5.4 17.22 17.22 0 0 0 -4.44 9.22c-.51 4.06.47 7.44 2.81 9.79a10 10 0 0 0 1.1.95c-.11.4-.19.8-.26 1.18-2.91.54-6.56 2-8.77 4.7a14 14 0 0 0 -3.18 8.58 12.66 12.66 0 0 0 3.24 8.76c3.21 3.56 7.66 5.36 13.24 5.36a36.26 36.26 0 0 0 13.23-2.86 26.05 26.05 0 0 0 12-10.3c3-4.63 4.08-9.37 5.25-14.39l.15-.64a27.65 27.65 0 0 1 5.05-11.24c.42-.52.95-1.07 1.51-1.65a17.28 17.28 0 0 0 3.43-4.4 5.55 5.55 0 0 0 -.1-5.49zm-1.32 4.79a16.15 16.15 0 0 1 -3.14 4c-.59.6-1.14 1.17-1.61 1.75a29.3 29.3 0 0 0 -5.36 11.87l-.15.65c-1.14 4.88-2.21 9.49-5 13.89a24.51 24.51 0 0 1 -11.32 9.69 34.71 34.71 0 0 1 -12.62 2.74c-5.11 0-9.17-1.63-12.06-4.84a11.08 11.08 0 0 1 -2.83-7.67 12.41 12.41 0 0 1 2.82-7.6c2.06-2.51 5.92-4 9-4.3a11.41 11.41 0 0 1 .68-3.26 3 3 0 0 1 -.34-.2 8.9 8.9 0 0 1 -1.51-1.19c-2-2-2.8-4.92-2.35-8.47a15.5 15.5 0 0 1 4.01-8.36 17 17 0 0 1 7.77-4.95 25.5 25.5 0 0 1 7.56-1.47 8.54 8.54 0 0 1 7.46 3.56 7.43 7.43 0 0 1 1.31 5.76 23.37 23.37 0 0 1 5.42-4.67 19.11 19.11 0 0 1 8.66-2.71 4.05 4.05 0 0 1 3.52 1.83 4 4 0 0 1 .08 3.95z"></path>
            <path class="cjd-fill" fill="#8089a2" d="m52.05 6.38a6.27 6.27 0 0 0 -2.27.51q-4.55 1.82-9.86 9.62-1.92 2.9-3.77 5.85a12.81 12.81 0 0 1 -4.33 3.93 4.8 4.8 0 0 1 -2 .67c-.45 0-.67-.28-.67-.83a12.29 12.29 0 0 1 1-3.55 18 18 0 0 0 3-1.86 3.74 3.74 0 0 0 1.39-1.81c.18-.65 0-1-.56-1a3.14 3.14 0 0 0 -1.5.57c-.07 0-.19.09-.36.26a.68.68 0 0 1 -.42.25q3.57-8.36 3.57-9.13a5.23 5.23 0 0 0 -1-3.09c-1-1.48-2.76-2.28-5.17-2.38a10.12 10.12 0 0 0 -5.41 1.24q-7.69 4.46-7.69 11.63c0 3.44 1.73 5.56 5.21 6.35a13.94 13.94 0 0 0 -1.6 5.06c0 2.88 1.58 4.33 4.74 4.33q4 0 9.6-5.06c-.62 1.69-1.13 3.22-1.55 4.6q-2.05 6.7-4.28 9.33-3.77 4.55-8.56 4.54a6.81 6.81 0 0 1 -2.89-.61c-1.59-.72-2.38-1.72-2.38-3a3 3 0 0 1 .7-1.91 2.88 2.88 0 0 1 1.57-1.08c1.59-.34 2.38-1.46 2.38-3.35q0-4.18-4.49-4.18a5.85 5.85 0 0 0 -4.85 2.83 9.29 9.29 0 0 0 -1.81 5.53 8.14 8.14 0 0 0 3 6.34c2.4 2.14 5.76 3.13 10.06 3a19.88 19.88 0 0 0 14.5-6.61 29.3 29.3 0 0 0 7-14.73 39 39 0 0 1 4.23-12.29 38.47 38.47 0 0 1 5.22-6.51c1.06-1.1 1.59-2 1.59-2.59s-.49-.87-1.34-.87zm-28.13 11.86q-1.44 2.76-1.65 3.15-4.12-.93-4.13-4.39a8.13 8.13 0 0 1 .47-2.53 8.46 8.46 0 0 1 2.29-3.56 5.52 5.52 0 0 1 3.1-1.6c1.61-.13 2.42.52 2.42 2s-.81 3.77-2.5 6.93z"></path>
            <path class="cjd-fill" fill="#8089a2" d="m17.22 42.71a1.33 1.33 0 0 0 .61.49 3.39 3.39 0 0 0 1.34.32c1.75 0 3.25-2 4.21-3.63a27.19 27.19 0 0 0 1.73-3.72 17.41 17.41 0 0 1 -3.35.66 5.92 5.92 0 0 1 -4 5.62 1.23 1.23 0 0 0 -.54.26z"></path>
         </g>
      </svg>