<svg viewBox="0 0 55.39 50.81" xmlns="http://www.w3.org/2000/svg">
         <path d="m25.88 49.22a8.23 8.23 0 0 1 -6.28-2.57 8.82 8.82 0 0 1 -1.8-3.89c0-.17-.09-.33-.13-.5-.51.5-1 1-1.48 1.61a20.25 20.25 0 0 1 -2.82 2.81 11.43 11.43 0 0 1 -4 1.69l-.91.24a8.18 8.18 0 0 1 -2.46.39 4.1 4.1 0 0 1 -4.21-3 5.75 5.75 0 0 1 2.21-6.18c1.27-1 2.65-1.86 4-2.7s2.35-1.48 3.42-2.29c3-2.25 6-4.62 8.76-6.88a10.45 10.45 0 0 1 -7.79-6.61 12.23 12.23 0 0 1 -.21-7.91 14.38 14.38 0 0 1 4.09-6.64c2.65-2.36 6.67-4 12-4.95a16.88 16.88 0 0 1 2.9-.25 20.23 20.23 0 0 1 10.83 3.61 5.41 5.41 0 0 1 3.12-2.29l.75-.26a16.31 16.31 0 0 1 1.9-.57s1.12-.14 1.33-.15a3.82 3.82 0 0 1 2 .44 4.41 4.41 0 0 1 2.1 2 6.33 6.33 0 0 1 -.2 5.85 35.53 35.53 0 0 1 -5.13 6.62l-.43.48c-3.92 4.34-8.13 8.28-12.48 12.23a10.42 10.42 0 0 1 1.18 2.45c.07.17.12.38.2.64s.09.32.16.54a10 10 0 0 1 4.33-2.3 8.82 8.82 0 0 1 2.38-.36 3.75 3.75 0 0 1 3.12 1.27 3.48 3.48 0 0 1 .51 3.09c-.59 2.5-2.82 4.53-4.44 6l-.15.13c-4.61 4.22-9 6.72-13.93 7.88a11.14 11.14 0 0 1 -2.44.33zm2.34-32.3a5.85 5.85 0 0 1 2.25 2.36c.63-.57 1.26-1.16 1.88-1.76a20.62 20.62 0 0 1 -4.07-3.75 10.6 10.6 0 0 0 -3.23-2.77 3.8 3.8 0 0 0 -.92 3.09 3.69 3.69 0 0 0 2.42 2.07l1 .33a1.73 1.73 0 0 1 .67.43z" class="cjd-border" fill="#fff"></path>
         <path d="m49.26 3.52a10.74 10.74 0 0 0 -3.7.9 4.28 4.28 0 0 0 -3 3.11c-4.4-3-8.68-5.07-14.09-4.12-3.8.66-8.26 2-11.16 4.56-3.32 3-5.18 8.51-3.46 12.77a8.69 8.69 0 0 0 11.22 5.26c-4.16 3.43-8.35 6.85-12.67 10.09-2.4 1.79-5.07 3.18-7.4 4.98a4.2 4.2 0 0 0 -1.68 4.5c.65 2.15 2.88 2 4.63 1.52 1.46-.43 3.21-.73 4.43-1.67 2.19-1.69 3.52-4.2 5.93-5.72 1.19 1.85.92 4.17 2.46 5.9 1.77 1.95 4.73 2.4 7.23 1.79 5.14-1.21 9.36-4 13.23-7.5 1.52-1.39 3.63-3.26 4.12-5.35.66-2.76-2.26-2.63-4-2.11a8.47 8.47 0 0 0 -4.6 2.86c-1.14 1.25-1.76-2-2-2.73a7 7 0 0 0 -2-3.13 187 187 0 0 0 13.48-13.17 37.73 37.73 0 0 0 5.34-6.81c1.27-2.31.78-5.67-2.31-5.93zm-23 14.25c-4-1.34-5-4.5-2.33-7.92 1.34-1.72 4.69 1.92 5.52 2.87 1.55 1.74 3.34 3.58 5.55 4.38-1.76 1.85-3.67 3.56-5.6 5.24a4.14 4.14 0 0 0 -3.13-4.57c-3.87-1.3 3.12 1.03.01 0z" class="cjd-stroke" fill="#525a6f"></path>
         <g fill="#8089a2">
            <path class="cjd-fill" fill="#8089a2" d="m32.35 17.52a20.62 20.62 0 0 1 -4.07-3.75 10.45 10.45 0 0 0 -3.23-2.77 3.8 3.8 0 0 0 -.92 3.09 3.69 3.69 0 0 0 2.42 2.07l1 .33a1.73 1.73 0 0 1 .7.41 5.85 5.85 0 0 1 2.25 2.36c.6-.55 1.23-1.14 1.85-1.74zm-6.69-3.85a.78.78 0 0 1 0-.31 16.59 16.59 0 0 1 1.25 1.26c-.81-.34-1.18-.72-1.25-.95z"></path>
            <path class="cjd-fill" fill="#8089a2" d="m54.59 3.59a6 6 0 0 0 -2.68-2.59 3.35 3.35 0 0 0 -1.7-.58l-.68-.06a9.58 9.58 0 0 0 -3.33.49c-.32.1-.62.21-.9.31l-.69.24a7.35 7.35 0 0 0 -3 1.73 20.81 20.81 0 0 0 -10.47-3.13 18.15 18.15 0 0 0 -3.14.28c-5.57 1-9.85 2.76-12.72 5.33a15.9 15.9 0 0 0 -4.6 7.39 13.81 13.81 0 0 0 .26 8.94 12.42 12.42 0 0 0 6 6.61c-2.38 1.91-4.47 3.54-6.45 5-1 .76-2.13 1.46-3.32 2.21-1.36.86-2.77 1.75-4.11 2.79a7.29 7.29 0 0 0 -2.76 7.94 5.66 5.66 0 0 0 5.7 4.09 10.24 10.24 0 0 0 2.84-.44l.86-.24a12.54 12.54 0 0 0 4.61-2 19.37 19.37 0 0 0 2.69-2.51 8.07 8.07 0 0 0 1.45 2.32 9.78 9.78 0 0 0 7.46 3.1 12 12 0 0 0 2.8-.33c5.17-1.21 9.82-3.83 14.64-8.25l.15-.13c1.78-1.62 4.21-3.85 4.92-6.82a5 5 0 0 0 -.82-4.44 5.24 5.24 0 0 0 -4.39-1.84 10.28 10.28 0 0 0 -2.84.44 14 14 0 0 0 -3.06 1.25c-.12-.28-.24-.54-.37-.79 4.42-4 8.13-7.59 11.64-11.47l.43-.48a36.7 36.7 0 0 0 5.34-6.95 7.94 7.94 0 0 0 .24-7.41zm-1.59 6.63a35.9 35.9 0 0 1 -5.12 6.62l-.44.48a173.63 173.63 0 0 1 -12.52 12.23 10.81 10.81 0 0 1 1.23 2.45c.06.17.12.38.19.64s.09.32.16.54a10 10 0 0 1 4.33-2.3 8.84 8.84 0 0 1 2.38-.37 3.73 3.73 0 0 1 3.12 1.28 3.48 3.48 0 0 1 .52 3.09c-.6 2.49-2.82 4.53-4.45 6l-.14.13c-4.62 4.22-9 6.72-13.94 7.87a10.57 10.57 0 0 1 -2.44.29 8.22 8.22 0 0 1 -6.27-2.57 8.78 8.78 0 0 1 -1.81-3.89c0-.17-.08-.34-.13-.5-.5.49-1 1-1.48 1.6a19.21 19.21 0 0 1 -2.82 2.81 11.07 11.07 0 0 1 -4 1.69l-.9.25a8.65 8.65 0 0 1 -2.47.44 4.1 4.1 0 0 1 -4.21-3 5.75 5.75 0 0 1 2.21-6.18c1.27-1 2.65-1.86 4-2.7s2.35-1.48 3.43-2.29c3-2.25 6-4.62 8.75-6.88a10.48 10.48 0 0 1 -7.79-6.61 12.24 12.24 0 0 1 -.21-7.91 14.38 14.38 0 0 1 4.09-6.64c2.65-2.37 6.67-4 12-4.95a16.88 16.88 0 0 1 2.9-.25 20.15 20.15 0 0 1 10.83 3.61 5.4 5.4 0 0 1 3.13-2.29l.74-.26a17.57 17.57 0 0 1 1.9-.57s1.12-.14 1.33-.15a3.82 3.82 0 0 1 2 .44 4.36 4.36 0 0 1 2.1 2 6.34 6.34 0 0 1 -.2 5.85z"></path>
            <path class="cjd-fill" fill="#8089a2" d="m49.15 4.78c-.73-.06-1.28.35-1.65 1.24-.25.65-.49 1.31-.73 2a2.55 2.55 0 0 1 -2.32 1.71 3.93 3.93 0 0 1 -2.17-.83q-6.39-4.52-10.11-4.53a17.32 17.32 0 0 0 -8.36 2 11.06 11.06 0 0 0 -5.88 9.75 7.47 7.47 0 0 0 2.42 6 7 7 0 0 0 4.44 2.37q3 .16 3.36-2.22t-2.27-3.27q-4.75-1.59-4.75-5.1a8.25 8.25 0 0 1 1.39-4.18 5 5 0 0 1 4.39-2.62 8 8 0 0 1 6.34 3.15q4.08 4.9 6.92 4.91a1.57 1.57 0 0 0 .88-.21q-2.85 3.71-13 12-13.83 11.37-17.91 13.49c-1.55.82-2.32 1.82-2.32 3s.51 1.75 1.54 1.75a3.77 3.77 0 0 0 3.05-1.54q3.56-4.5 6.81-5.83a7.46 7.46 0 0 1 2.27-.67q1.5 0 2.32 3.87.93 4.34 5.52 4.33a7.71 7.71 0 0 0 4.23-1.29q7.13-4.65 9.86-8.51a2.79 2.79 0 0 0 .67-1.76.68.68 0 0 0 -.78-.57 1.66 1.66 0 0 0 -1.28.67q-3 3.82-4.85 3.52a3.93 3.93 0 0 1 -3.36-3.21q-1.14-4.38-3.51-4.33 7.13-6.39 10.63-9.9a78.32 78.32 0 0 0 9.19-10.59 4.4 4.4 0 0 0 .87-2.38 1.88 1.88 0 0 0 -1.85-2.22z"></path>
         </g>
      </svg>